%TF.GenerationSoftware,KiCad,Pcbnew,9.0.1*%
%TF.CreationDate,2025-05-13T00:09:27-04:00*%
%TF.ProjectId,CRVFCU,43525646-4355-42e6-9b69-6361645f7063,rev?*%
%TF.SameCoordinates,Original*%
%TF.FileFunction,Copper,L2,Inr*%
%TF.FilePolarity,Positive*%
%FSLAX46Y46*%
G04 Gerber Fmt 4.6, Leading zero omitted, Abs format (unit mm)*
G04 Created by KiCad (PCBNEW 9.0.1) date 2025-05-13 00:09:27*
%MOMM*%
%LPD*%
G01*
G04 APERTURE LIST*
G04 Aperture macros list*
%AMRoundRect*
0 Rectangle with rounded corners*
0 $1 Rounding radius*
0 $2 $3 $4 $5 $6 $7 $8 $9 X,Y pos of 4 corners*
0 Add a 4 corners polygon primitive as box body*
4,1,4,$2,$3,$4,$5,$6,$7,$8,$9,$2,$3,0*
0 Add four circle primitives for the rounded corners*
1,1,$1+$1,$2,$3*
1,1,$1+$1,$4,$5*
1,1,$1+$1,$6,$7*
1,1,$1+$1,$8,$9*
0 Add four rect primitives between the rounded corners*
20,1,$1+$1,$2,$3,$4,$5,0*
20,1,$1+$1,$4,$5,$6,$7,0*
20,1,$1+$1,$6,$7,$8,$9,0*
20,1,$1+$1,$8,$9,$2,$3,0*%
G04 Aperture macros list end*
%TA.AperFunction,ComponentPad*%
%ADD10R,1.700000X1.700000*%
%TD*%
%TA.AperFunction,ComponentPad*%
%ADD11C,1.700000*%
%TD*%
%TA.AperFunction,ComponentPad*%
%ADD12C,6.400000*%
%TD*%
%TA.AperFunction,ComponentPad*%
%ADD13RoundRect,0.760000X-1.140000X-1.140000X1.140000X-1.140000X1.140000X1.140000X-1.140000X1.140000X0*%
%TD*%
%TA.AperFunction,ComponentPad*%
%ADD14C,4.000000*%
%TD*%
%TA.AperFunction,ComponentPad*%
%ADD15RoundRect,0.250001X0.799999X-0.799999X0.799999X0.799999X-0.799999X0.799999X-0.799999X-0.799999X0*%
%TD*%
%TA.AperFunction,ComponentPad*%
%ADD16C,2.100000*%
%TD*%
%TA.AperFunction,ComponentPad*%
%ADD17RoundRect,0.250001X-0.799999X0.799999X-0.799999X-0.799999X0.799999X-0.799999X0.799999X0.799999X0*%
%TD*%
%TA.AperFunction,ComponentPad*%
%ADD18R,1.600000X1.600000*%
%TD*%
%TA.AperFunction,ComponentPad*%
%ADD19C,1.600000*%
%TD*%
%TA.AperFunction,HeatsinkPad*%
%ADD20O,2.100000X1.000000*%
%TD*%
%TA.AperFunction,HeatsinkPad*%
%ADD21O,1.800000X1.000000*%
%TD*%
%TA.AperFunction,ViaPad*%
%ADD22C,0.460000*%
%TD*%
%TA.AperFunction,ViaPad*%
%ADD23C,0.600000*%
%TD*%
G04 APERTURE END LIST*
D10*
%TO.N,/SRVO_7*%
%TO.C,PWM7*%
X60799999Y-112900000D03*
D11*
%TO.N,+8V4*%
X60799999Y-115440000D03*
%TO.N,GND*%
X60799999Y-117980000D03*
%TD*%
D12*
%TO.N,GND*%
%TO.C,H2*%
X86000000Y-24000000D03*
%TD*%
D13*
%TO.N,GND*%
%TO.C,BATT1*%
X70000000Y-116000000D03*
D14*
%TO.N,VBAT*%
X75000000Y-116000000D03*
%TD*%
D15*
%TO.N,VBAT*%
%TO.C,PYRO_TERM1*%
X86000000Y-109860000D03*
D16*
%TO.N,/VPYRO*%
X86000000Y-107320000D03*
X86000000Y-104780000D03*
%TO.N,/PYO0*%
X86000000Y-102240000D03*
%TO.N,/PYO1*%
X86000000Y-99700000D03*
%TO.N,/VPYRO*%
X86000000Y-97160000D03*
X86000000Y-94620000D03*
%TO.N,/PYO2*%
X86000000Y-92080000D03*
%TO.N,/PYO3*%
X86000000Y-89540000D03*
%TO.N,/VPYRO*%
X86000000Y-87000000D03*
%TD*%
D10*
%TO.N,/SRVO_2*%
%TO.C,PWM2*%
X47140000Y-95200000D03*
D11*
%TO.N,+8V4*%
X44600000Y-95200000D03*
%TO.N,GND*%
X42060000Y-95200000D03*
%TD*%
D10*
%TO.N,/SRVO_4*%
%TO.C,PWM4*%
X50000000Y-112900000D03*
D11*
%TO.N,+8V4*%
X50000000Y-115440000D03*
%TO.N,GND*%
X50000000Y-117980000D03*
%TD*%
D10*
%TO.N,/SRVO_6*%
%TO.C,PWM6*%
X57200000Y-112900000D03*
D11*
%TO.N,+8V4*%
X57200000Y-115440000D03*
%TO.N,GND*%
X57200000Y-117980000D03*
%TD*%
D12*
%TO.N,GND*%
%TO.C,H4*%
X86000000Y-116000000D03*
%TD*%
D10*
%TO.N,/SRVO_5*%
%TO.C,PWM5*%
X53600001Y-112900000D03*
D11*
%TO.N,+8V4*%
X53600001Y-115440000D03*
%TO.N,GND*%
X53600001Y-117980000D03*
%TD*%
D10*
%TO.N,+3V3*%
%TO.C,J5*%
X87650000Y-61000000D03*
D11*
%TO.N,Net-(J5-Pin_2)*%
X85110000Y-61000000D03*
%TD*%
D10*
%TO.N,/SRVO_3*%
%TO.C,PWM3*%
X47140000Y-98800000D03*
D11*
%TO.N,+8V4*%
X44600000Y-98800000D03*
%TO.N,GND*%
X42060000Y-98800000D03*
%TD*%
D10*
%TO.N,GND*%
%TO.C,J2*%
X87650000Y-35600000D03*
D11*
%TO.N,/RESET*%
X85110000Y-35600000D03*
%TD*%
D10*
%TO.N,/SRVO_0*%
%TO.C,PWM0*%
X47140000Y-88000001D03*
D11*
%TO.N,+8V4*%
X44600000Y-88000001D03*
%TO.N,GND*%
X42060000Y-88000001D03*
%TD*%
D10*
%TO.N,/SRVO_1*%
%TO.C,PWM1*%
X47140000Y-91600000D03*
D11*
%TO.N,+8V4*%
X44600000Y-91600000D03*
%TO.N,GND*%
X42060000Y-91600000D03*
%TD*%
D17*
%TO.N,+3V3*%
%TO.C,ARM1*%
X44000000Y-102580000D03*
D16*
%TO.N,Net-(ARM1-Pin_2)*%
X44000000Y-105120000D03*
%TO.N,+8V4*%
X44000000Y-107660000D03*
%TO.N,VBAT*%
X44000000Y-110200000D03*
%TD*%
D12*
%TO.N,GND*%
%TO.C,H1*%
X44000000Y-116000000D03*
%TD*%
D18*
%TO.N,VBAT*%
%TO.C,C1*%
X73820000Y-110272651D03*
D19*
%TO.N,GND*%
X73820000Y-105272651D03*
%TD*%
D12*
%TO.N,GND*%
%TO.C,H3*%
X44000000Y-24000000D03*
%TD*%
D20*
%TO.N,GND*%
%TO.C,J3*%
X47355000Y-76080000D03*
D21*
X43175000Y-76080000D03*
D20*
X47355000Y-84720000D03*
D21*
X43175000Y-84720000D03*
%TD*%
D22*
%TO.N,Net-(3V3_PWR1-K)*%
X68350000Y-102500000D03*
%TO.N,GND*%
X42740000Y-82610000D03*
X81532234Y-47225129D03*
X41790000Y-103310000D03*
X78300000Y-44700000D03*
X81178681Y-46871576D03*
X80825127Y-46518022D03*
X49100000Y-91500000D03*
X71746447Y-36153553D03*
X79550000Y-61800000D03*
X49450000Y-89060000D03*
X46000000Y-71000000D03*
X71770000Y-69850000D03*
X68500000Y-70150000D03*
X42250000Y-70300000D03*
X82946448Y-48639343D03*
X67550000Y-42410000D03*
X72453553Y-36153553D03*
X72800000Y-69450000D03*
X82292893Y-50107107D03*
X42800000Y-60480000D03*
X66540000Y-104510000D03*
X77850000Y-93100000D03*
X80500000Y-85500000D03*
X48900000Y-24700000D03*
X70600000Y-72650000D03*
X52200000Y-111400000D03*
X82592894Y-48285789D03*
X81939340Y-50460660D03*
X88000000Y-76800000D03*
X54600000Y-63500000D03*
X74400000Y-78700000D03*
X61000000Y-25500000D03*
X65000000Y-68000000D03*
X73500000Y-42500000D03*
X77950000Y-65650000D03*
X74221320Y-37921320D03*
X75053554Y-42446446D03*
X79764467Y-45457362D03*
X87116077Y-31673542D03*
X54000000Y-45400000D03*
X74690000Y-44060000D03*
X83089966Y-42349658D03*
X54965859Y-83003832D03*
X78600000Y-67250000D03*
X44000000Y-73600000D03*
X55550000Y-64400000D03*
X41800000Y-47420000D03*
X71392893Y-36507107D03*
X62040000Y-80470000D03*
X49300000Y-50150000D03*
X73500000Y-32000000D03*
X53500000Y-41900000D03*
X66500000Y-54000000D03*
X44000000Y-29500000D03*
X62650330Y-56342815D03*
X52470578Y-98775887D03*
X65000000Y-28050000D03*
X47000000Y-71100000D03*
X62900000Y-68200000D03*
X88300000Y-57300000D03*
X59850000Y-79750000D03*
X50200000Y-47500000D03*
X72800000Y-46200000D03*
X71400000Y-100000000D03*
X42800000Y-54000000D03*
X53200000Y-100400000D03*
X76342641Y-40042641D03*
X49060000Y-57750000D03*
X46460000Y-70110000D03*
X81585786Y-50814214D03*
X78400000Y-47900000D03*
X57050000Y-77850000D03*
X65300000Y-36100000D03*
X84100000Y-82700000D03*
X44450000Y-62130000D03*
X89000000Y-99900000D03*
X69900000Y-87000000D03*
X55300000Y-107200000D03*
X81107107Y-50507107D03*
X73867767Y-37567767D03*
X53200000Y-62050000D03*
X88900000Y-88950000D03*
X81700000Y-65200000D03*
X50901806Y-89751664D03*
X80753553Y-50153553D03*
X45500000Y-52000000D03*
X79000000Y-96000000D03*
X51580000Y-60280000D03*
X77900000Y-45100000D03*
X49300000Y-41550000D03*
X73150000Y-42150000D03*
X78000000Y-24400000D03*
X84900000Y-58700000D03*
X73500000Y-65150000D03*
X88150000Y-49300000D03*
X78500000Y-60250000D03*
X81450000Y-26550000D03*
X71100000Y-32900000D03*
X84400000Y-67500000D03*
X88850000Y-66750000D03*
X70800000Y-39700000D03*
X44100000Y-59180000D03*
X72800000Y-41800000D03*
X78200000Y-36800000D03*
X71200000Y-40100000D03*
X83300000Y-48992895D03*
X70000000Y-59000000D03*
X73160660Y-36860660D03*
X64000000Y-114000000D03*
X57300000Y-98800000D03*
X80238155Y-39080400D03*
X80100000Y-29900000D03*
X51000000Y-81000000D03*
X70400000Y-38500000D03*
X80900000Y-118200000D03*
X84500000Y-52000000D03*
X86000000Y-82000000D03*
X81090000Y-75950000D03*
X60100000Y-87900000D03*
X43350000Y-37450000D03*
X80499607Y-33707957D03*
X75760660Y-41739340D03*
X71300000Y-96100000D03*
X45592943Y-55513532D03*
X88800000Y-37650000D03*
X69100000Y-50400000D03*
X41710000Y-109400000D03*
X48500000Y-73800000D03*
X75600000Y-22500000D03*
X74450000Y-65650000D03*
X72780000Y-67600000D03*
X47500000Y-113000000D03*
X74574874Y-38274874D03*
X48440000Y-100970000D03*
X42869128Y-78452055D03*
X72100000Y-35800000D03*
X73900000Y-42900000D03*
X64000000Y-43800000D03*
X76800000Y-50650000D03*
X71150000Y-40650000D03*
X50500000Y-42200000D03*
X81885788Y-47578683D03*
X76800000Y-45800000D03*
X82720000Y-80080000D03*
X82646446Y-49753554D03*
X70000000Y-38900000D03*
X77300000Y-45300000D03*
X75989087Y-39689087D03*
X68300000Y-43500000D03*
X75281981Y-38981981D03*
X80046447Y-49446447D03*
X66000000Y-118200000D03*
X80118021Y-45810916D03*
X48600000Y-36300000D03*
X52390000Y-102210000D03*
X60708089Y-86308085D03*
X72446447Y-41446447D03*
X57670219Y-82834820D03*
X75635534Y-39335534D03*
X53400000Y-98200000D03*
X75500000Y-99100000D03*
X46800000Y-57500000D03*
X53500000Y-68500000D03*
X83000000Y-49400000D03*
X73514214Y-37214214D03*
X82239341Y-47932236D03*
X75510000Y-49560000D03*
X50100001Y-49150000D03*
X75407107Y-42092893D03*
X75350000Y-66200000D03*
X88250000Y-58650000D03*
X58700000Y-111400000D03*
X68050000Y-41020000D03*
X53500000Y-37000000D03*
X45600000Y-67050000D03*
X70200000Y-91300000D03*
X53000000Y-73000000D03*
X56500000Y-52500000D03*
X76300000Y-40749747D03*
X51000000Y-76000000D03*
X77250000Y-30100000D03*
X57920000Y-36860000D03*
X72807107Y-36507107D03*
X58970000Y-37280000D03*
X52000000Y-86500000D03*
X85100000Y-28000000D03*
X47070000Y-70080000D03*
X49400000Y-32550000D03*
X71370000Y-48530000D03*
X75300000Y-101000000D03*
X55950000Y-74050000D03*
X60000000Y-60500000D03*
X46600000Y-38000000D03*
X56700000Y-88100000D03*
X78000000Y-47500000D03*
X41900000Y-45460000D03*
X79410914Y-45103809D03*
X72440000Y-48910000D03*
X74210000Y-71840000D03*
X66500000Y-73000000D03*
X78703807Y-44396702D03*
X49130000Y-96080000D03*
X60000000Y-108300000D03*
X76114214Y-41385786D03*
X70685786Y-37214214D03*
X66260000Y-42830000D03*
X89000000Y-108150000D03*
X82900000Y-55549999D03*
X54437272Y-24253725D03*
X50200000Y-40050000D03*
X46860000Y-28010000D03*
X74700000Y-42800000D03*
X47600000Y-62950000D03*
X51410000Y-78460000D03*
X80510000Y-106050000D03*
X81000000Y-115500000D03*
X50500000Y-62000000D03*
X70600000Y-69250000D03*
X81298521Y-57286853D03*
X63686586Y-84032157D03*
X67350000Y-106400000D03*
X71039340Y-36860660D03*
X76600000Y-62520000D03*
X60300000Y-98900000D03*
X70332233Y-37567767D03*
X54100000Y-56100000D03*
X84500000Y-37000000D03*
X79057360Y-44750255D03*
X58278553Y-66878553D03*
X51500000Y-38500000D03*
X74300000Y-42500000D03*
X54600000Y-85800000D03*
X76793760Y-53043945D03*
X56300000Y-43200000D03*
X72000000Y-79100000D03*
X69450000Y-79060000D03*
X70400000Y-39300000D03*
X53500000Y-105800000D03*
X75540000Y-43770000D03*
X81200000Y-59800000D03*
X71930000Y-73990000D03*
X76696193Y-40396193D03*
X71120000Y-21840000D03*
X74928427Y-38628427D03*
X77500000Y-85500000D03*
X67350000Y-63800000D03*
X80471574Y-46164469D03*
X60750000Y-47300000D03*
X77700000Y-103350000D03*
X42220000Y-68560000D03*
X71010000Y-73930000D03*
X62220000Y-37430000D03*
X69250000Y-36670000D03*
X80400000Y-49800000D03*
X85100000Y-74300000D03*
X71850000Y-88750000D03*
%TO.N,+3V3*%
X78530000Y-51310000D03*
X73900000Y-43550000D03*
X74970000Y-47890000D03*
X44730000Y-65580000D03*
X65500000Y-38350000D03*
X53925000Y-35625000D03*
X69310000Y-76290000D03*
X70800000Y-103200000D03*
X50240329Y-39421230D03*
X70780000Y-72010000D03*
X82340000Y-56260000D03*
X69410928Y-44935771D03*
X50700000Y-32650000D03*
X76150000Y-49860000D03*
X49330000Y-38150000D03*
X56220000Y-64770000D03*
D23*
X58600000Y-100400000D03*
D22*
X43380000Y-59840000D03*
X51190000Y-59790000D03*
X67870000Y-70640000D03*
X44080000Y-59810000D03*
X65720000Y-81000000D03*
X74120000Y-76420000D03*
D23*
X59045000Y-102395000D03*
D22*
X55700000Y-43750000D03*
X49900000Y-49950000D03*
X63700000Y-108000000D03*
X53930000Y-38300000D03*
X48640000Y-50890000D03*
X51050000Y-45850000D03*
X58900000Y-67550000D03*
X63220000Y-76300000D03*
D23*
X63000000Y-101300000D03*
D22*
X46430000Y-39550000D03*
X53560000Y-45900000D03*
X65699999Y-37350000D03*
X57500000Y-31050000D03*
X48600000Y-57300000D03*
X61900001Y-37950000D03*
X74140000Y-64630000D03*
X75900000Y-29550000D03*
X76800000Y-61930000D03*
X73710928Y-47135771D03*
X44050000Y-45800000D03*
X60740000Y-69430000D03*
X48700000Y-32640000D03*
D23*
%TO.N,+5V*%
X57800000Y-92200000D03*
D22*
X77400000Y-39500000D03*
D23*
X64900000Y-90350000D03*
D22*
X85500000Y-38100000D03*
%TO.N,Net-(5V_PWR1-K)*%
X68670000Y-99880000D03*
%TO.N,+8V4*%
X43989336Y-65704266D03*
%TO.N,/VDDSMPS*%
X77100000Y-46550000D03*
%TO.N,/VLXSMPS*%
X77500000Y-47150000D03*
%TO.N,Net-(C13-Pad1)*%
X80900000Y-57750000D03*
%TO.N,/VDD12DSI*%
X54300001Y-62950000D03*
%TO.N,/VDDA*%
X68500000Y-38150000D03*
%TO.N,Net-(U3-C1)*%
X48110000Y-41640000D03*
%TO.N,Net-(LED1-K)*%
X80775000Y-41775000D03*
%TO.N,Net-(NEOPIX1-DIN)*%
X78130000Y-41700000D03*
%TO.N,/VREF*%
X68980000Y-38550000D03*
X67010000Y-40300000D03*
%TO.N,Net-(U2-PDR_ON)*%
X81835878Y-56814122D03*
%TO.N,Net-(J5-Pin_2)*%
X77499999Y-57850000D03*
%TO.N,/SRV_OE*%
X60910000Y-71370000D03*
%TO.N,/PYR1*%
X75510000Y-80470000D03*
%TO.N,/PYC1*%
X76180000Y-80550000D03*
%TO.N,/PYR0*%
X75600000Y-79650000D03*
%TO.N,/IMU_CS*%
X59169310Y-39895287D03*
X49800000Y-29450000D03*
%TO.N,/ALT_CS*%
X53925000Y-39225000D03*
%TO.N,/MAG_CS*%
X58500000Y-40400000D03*
X47120000Y-39330000D03*
%TO.N,/FLASH_CS*%
X59300000Y-63650000D03*
%TO.N,/PYC0*%
X74220000Y-81000000D03*
%TO.N,/PYR3*%
X77403783Y-80114231D03*
%TO.N,/PYC3*%
X77995000Y-79960000D03*
%TO.N,/PYR2*%
X77130000Y-80710000D03*
%TO.N,/PYC2*%
X76191663Y-81440000D03*
%TO.N,/BUZZ*%
X74717472Y-73475739D03*
X68850000Y-93400000D03*
%TO.N,/ARM*%
X54070000Y-64210000D03*
%TO.N,/SCK*%
X46250000Y-32750000D03*
X47100000Y-34450000D03*
%TO.N,/SD_DAT0*%
X59410000Y-69730000D03*
%TO.N,/QSPI_IO1*%
X70700000Y-43850000D03*
%TO.N,/SRVI_2*%
X58850000Y-69350000D03*
%TO.N,/SD_CMD*%
X68250000Y-76450000D03*
%TO.N,/SD_DET*%
X71900000Y-67500000D03*
%TO.N,/SRVI_0*%
X60350000Y-71090000D03*
%TO.N,/SRVI_6*%
X55861988Y-67045505D03*
%TO.N,/SRVI_1*%
X59670000Y-70620000D03*
%TO.N,/SRVI_7*%
X55200000Y-67075000D03*
%TO.N,/QSPI_IO3*%
X71412579Y-45337421D03*
%TO.N,/SD_CLK*%
X68224855Y-75737572D03*
%TO.N,/NEOPIX*%
X75450000Y-44650000D03*
%TO.N,/QSPI_CLK*%
X70130000Y-43480000D03*
%TO.N,/SRVI_3*%
X58350000Y-68790000D03*
%TO.N,/SD_DAT2*%
X66780000Y-75940000D03*
%TO.N,/SRVI_5*%
X56714420Y-67200000D03*
%TO.N,/SRVI_4*%
X57400000Y-67500000D03*
%TO.N,/IMU_INT*%
X60600000Y-36950000D03*
X54020000Y-33850000D03*
%TO.N,/QSPI_IO2*%
X70800000Y-47085771D03*
%TO.N,/SD_DAT3*%
X67430000Y-75940000D03*
%TO.N,/SD_DAT1*%
X60060000Y-69440000D03*
%TO.N,/QSPI_IO0*%
X68095000Y-47855000D03*
%TO.N,Net-(ARM1-Pin_2)*%
X49200000Y-105100000D03*
%TO.N,Net-(C14-Pad1)*%
X67100000Y-71550000D03*
%TD*%
%TA.AperFunction,Conductor*%
%TO.N,GND*%
G36*
X87001228Y-20381568D02*
G01*
X87290727Y-20397827D01*
X87295609Y-20398377D01*
X87580250Y-20446739D01*
X87585029Y-20447830D01*
X87862467Y-20527758D01*
X87867104Y-20529380D01*
X88051203Y-20605637D01*
X88133841Y-20639867D01*
X88138287Y-20642008D01*
X88390966Y-20781659D01*
X88395143Y-20784284D01*
X88630594Y-20951345D01*
X88634452Y-20954422D01*
X88849716Y-21146794D01*
X88853205Y-21150283D01*
X89045577Y-21365547D01*
X89048654Y-21369405D01*
X89215715Y-21604856D01*
X89218340Y-21609033D01*
X89357991Y-21861712D01*
X89360132Y-21866158D01*
X89470615Y-22132885D01*
X89472244Y-22137542D01*
X89552165Y-22414954D01*
X89553262Y-22419763D01*
X89567755Y-22505066D01*
X89601620Y-22704380D01*
X89602173Y-22709283D01*
X89618431Y-22998771D01*
X89618500Y-23001238D01*
X89618500Y-116998761D01*
X89618431Y-117001228D01*
X89602173Y-117290716D01*
X89601620Y-117295619D01*
X89553263Y-117580234D01*
X89552165Y-117585045D01*
X89472244Y-117862457D01*
X89470615Y-117867114D01*
X89360132Y-118133841D01*
X89357991Y-118138287D01*
X89218340Y-118390966D01*
X89215715Y-118395143D01*
X89048654Y-118630594D01*
X89045577Y-118634452D01*
X88853205Y-118849716D01*
X88849716Y-118853205D01*
X88634452Y-119045577D01*
X88630594Y-119048654D01*
X88395143Y-119215715D01*
X88390966Y-119218340D01*
X88138287Y-119357991D01*
X88133841Y-119360132D01*
X87867114Y-119470615D01*
X87862457Y-119472244D01*
X87585045Y-119552165D01*
X87580234Y-119553263D01*
X87295619Y-119601620D01*
X87290716Y-119602173D01*
X87001229Y-119618431D01*
X86998762Y-119618500D01*
X43001238Y-119618500D01*
X42998771Y-119618431D01*
X42709283Y-119602173D01*
X42704380Y-119601620D01*
X42505066Y-119567755D01*
X42419763Y-119553262D01*
X42414957Y-119552165D01*
X42137542Y-119472244D01*
X42132885Y-119470615D01*
X41866158Y-119360132D01*
X41861712Y-119357991D01*
X41609033Y-119218340D01*
X41604856Y-119215715D01*
X41369405Y-119048654D01*
X41365547Y-119045577D01*
X41150283Y-118853205D01*
X41146794Y-118849716D01*
X40954422Y-118634452D01*
X40951345Y-118630594D01*
X40784284Y-118395143D01*
X40781659Y-118390966D01*
X40642008Y-118138287D01*
X40639867Y-118133841D01*
X40622162Y-118091097D01*
X40529380Y-117867104D01*
X40527758Y-117862467D01*
X40447830Y-117585029D01*
X40446739Y-117580250D01*
X40398377Y-117295609D01*
X40397827Y-117290727D01*
X40381569Y-117001228D01*
X40381500Y-116998761D01*
X40381500Y-115343725D01*
X49022500Y-115343725D01*
X49022500Y-115536275D01*
X49060064Y-115725126D01*
X49116160Y-115860555D01*
X49133752Y-115903024D01*
X49240005Y-116062042D01*
X49240726Y-116063120D01*
X49376880Y-116199274D01*
X49456391Y-116252401D01*
X49536975Y-116306247D01*
X49536976Y-116306247D01*
X49536980Y-116306250D01*
X49714874Y-116379936D01*
X49903725Y-116417500D01*
X49903728Y-116417500D01*
X50096271Y-116417500D01*
X50096275Y-116417500D01*
X50285126Y-116379936D01*
X50463020Y-116306250D01*
X50623120Y-116199274D01*
X50759274Y-116063120D01*
X50866250Y-115903020D01*
X50939936Y-115725126D01*
X50977500Y-115536275D01*
X50977500Y-115343725D01*
X52622501Y-115343725D01*
X52622501Y-115536275D01*
X52660065Y-115725126D01*
X52716161Y-115860555D01*
X52733753Y-115903024D01*
X52840006Y-116062042D01*
X52840727Y-116063120D01*
X52976881Y-116199274D01*
X53056392Y-116252401D01*
X53136976Y-116306247D01*
X53136977Y-116306247D01*
X53136981Y-116306250D01*
X53314875Y-116379936D01*
X53503726Y-116417500D01*
X53503729Y-116417500D01*
X53696272Y-116417500D01*
X53696276Y-116417500D01*
X53885127Y-116379936D01*
X54063021Y-116306250D01*
X54223121Y-116199274D01*
X54359275Y-116063120D01*
X54466251Y-115903020D01*
X54539937Y-115725126D01*
X54577501Y-115536275D01*
X54577501Y-115343725D01*
X56222500Y-115343725D01*
X56222500Y-115536275D01*
X56260064Y-115725126D01*
X56316160Y-115860555D01*
X56333752Y-115903024D01*
X56440005Y-116062042D01*
X56440726Y-116063120D01*
X56576880Y-116199274D01*
X56656391Y-116252401D01*
X56736975Y-116306247D01*
X56736976Y-116306247D01*
X56736980Y-116306250D01*
X56914874Y-116379936D01*
X57103725Y-116417500D01*
X57103728Y-116417500D01*
X57296271Y-116417500D01*
X57296275Y-116417500D01*
X57485126Y-116379936D01*
X57663020Y-116306250D01*
X57823120Y-116199274D01*
X57959274Y-116063120D01*
X58066250Y-115903020D01*
X58139936Y-115725126D01*
X58177500Y-115536275D01*
X58177500Y-115343725D01*
X59822499Y-115343725D01*
X59822499Y-115536275D01*
X59860063Y-115725126D01*
X59916159Y-115860555D01*
X59933751Y-115903024D01*
X60040004Y-116062042D01*
X60040725Y-116063120D01*
X60176879Y-116199274D01*
X60256390Y-116252401D01*
X60336974Y-116306247D01*
X60336975Y-116306247D01*
X60336979Y-116306250D01*
X60514873Y-116379936D01*
X60703724Y-116417500D01*
X60703727Y-116417500D01*
X60896270Y-116417500D01*
X60896274Y-116417500D01*
X61085125Y-116379936D01*
X61263019Y-116306250D01*
X61423119Y-116199274D01*
X61559273Y-116063120D01*
X61666249Y-115903020D01*
X61683839Y-115860555D01*
X72872500Y-115860555D01*
X72872500Y-116139444D01*
X72908902Y-116415947D01*
X72981083Y-116685329D01*
X73087811Y-116942992D01*
X73120725Y-117000000D01*
X73227253Y-117184512D01*
X73397029Y-117405768D01*
X73594232Y-117602971D01*
X73815488Y-117772747D01*
X74057012Y-117912191D01*
X74314670Y-118018917D01*
X74584055Y-118091098D01*
X74860556Y-118127500D01*
X75139444Y-118127500D01*
X75415945Y-118091098D01*
X75685330Y-118018917D01*
X75942988Y-117912191D01*
X76184512Y-117772747D01*
X76405768Y-117602971D01*
X76602971Y-117405768D01*
X76772747Y-117184512D01*
X76912191Y-116942988D01*
X77018917Y-116685330D01*
X77091098Y-116415945D01*
X77127500Y-116139444D01*
X77127500Y-115860556D01*
X77091098Y-115584055D01*
X77018917Y-115314670D01*
X76912191Y-115057012D01*
X76772747Y-114815488D01*
X76602971Y-114594232D01*
X76405768Y-114397029D01*
X76184512Y-114227253D01*
X76104004Y-114180771D01*
X75942992Y-114087811D01*
X75942990Y-114087810D01*
X75942988Y-114087809D01*
X75685330Y-113981083D01*
X75595535Y-113957022D01*
X75415947Y-113908902D01*
X75139444Y-113872500D01*
X74860556Y-113872500D01*
X74584052Y-113908902D01*
X74314670Y-113981083D01*
X74057007Y-114087811D01*
X73815489Y-114227252D01*
X73594236Y-114397025D01*
X73397025Y-114594236D01*
X73227252Y-114815489D01*
X73087811Y-115057007D01*
X72981083Y-115314670D01*
X72908902Y-115584052D01*
X72872500Y-115860555D01*
X61683839Y-115860555D01*
X61739935Y-115725126D01*
X61777499Y-115536275D01*
X61777499Y-115343725D01*
X61739935Y-115154874D01*
X61666249Y-114976980D01*
X61559273Y-114816880D01*
X61423119Y-114680726D01*
X61422041Y-114680005D01*
X61263023Y-114573752D01*
X61263020Y-114573750D01*
X61263019Y-114573750D01*
X61085125Y-114500064D01*
X60896274Y-114462500D01*
X60703724Y-114462500D01*
X60562085Y-114490673D01*
X60514872Y-114500064D01*
X60336974Y-114573752D01*
X60176881Y-114680724D01*
X60040723Y-114816882D01*
X59933751Y-114976975D01*
X59900599Y-115057012D01*
X59860063Y-115154874D01*
X59822499Y-115343725D01*
X58177500Y-115343725D01*
X58139936Y-115154874D01*
X58066250Y-114976980D01*
X57959274Y-114816880D01*
X57823120Y-114680726D01*
X57822042Y-114680005D01*
X57663024Y-114573752D01*
X57663021Y-114573750D01*
X57663020Y-114573750D01*
X57485126Y-114500064D01*
X57296275Y-114462500D01*
X57103725Y-114462500D01*
X56962086Y-114490673D01*
X56914873Y-114500064D01*
X56736975Y-114573752D01*
X56576882Y-114680724D01*
X56440724Y-114816882D01*
X56333752Y-114976975D01*
X56300600Y-115057012D01*
X56260064Y-115154874D01*
X56222500Y-115343725D01*
X54577501Y-115343725D01*
X54539937Y-115154874D01*
X54466251Y-114976980D01*
X54359275Y-114816880D01*
X54223121Y-114680726D01*
X54222043Y-114680005D01*
X54063025Y-114573752D01*
X54063022Y-114573750D01*
X54063021Y-114573750D01*
X53885127Y-114500064D01*
X53696276Y-114462500D01*
X53503726Y-114462500D01*
X53362087Y-114490673D01*
X53314874Y-114500064D01*
X53136976Y-114573752D01*
X52976883Y-114680724D01*
X52840725Y-114816882D01*
X52733753Y-114976975D01*
X52700601Y-115057012D01*
X52660065Y-115154874D01*
X52622501Y-115343725D01*
X50977500Y-115343725D01*
X50939936Y-115154874D01*
X50866250Y-114976980D01*
X50759274Y-114816880D01*
X50623120Y-114680726D01*
X50622042Y-114680005D01*
X50463024Y-114573752D01*
X50463021Y-114573750D01*
X50463020Y-114573750D01*
X50285126Y-114500064D01*
X50096275Y-114462500D01*
X49903725Y-114462500D01*
X49762086Y-114490673D01*
X49714873Y-114500064D01*
X49536975Y-114573752D01*
X49376882Y-114680724D01*
X49240724Y-114816882D01*
X49133752Y-114976975D01*
X49100600Y-115057012D01*
X49060064Y-115154874D01*
X49022500Y-115343725D01*
X40381500Y-115343725D01*
X40381500Y-112037442D01*
X49022500Y-112037442D01*
X49022500Y-113762558D01*
X49029898Y-113799748D01*
X49058078Y-113841922D01*
X49100252Y-113870102D01*
X49137442Y-113877500D01*
X49137446Y-113877500D01*
X50862554Y-113877500D01*
X50862558Y-113877500D01*
X50899748Y-113870102D01*
X50941922Y-113841922D01*
X50970102Y-113799748D01*
X50977500Y-113762558D01*
X50977500Y-112037442D01*
X52622501Y-112037442D01*
X52622501Y-113762558D01*
X52629899Y-113799748D01*
X52658079Y-113841922D01*
X52700253Y-113870102D01*
X52737443Y-113877500D01*
X52737447Y-113877500D01*
X54462555Y-113877500D01*
X54462559Y-113877500D01*
X54499749Y-113870102D01*
X54541923Y-113841922D01*
X54570103Y-113799748D01*
X54577501Y-113762558D01*
X54577501Y-112037442D01*
X56222500Y-112037442D01*
X56222500Y-113762558D01*
X56229898Y-113799748D01*
X56258078Y-113841922D01*
X56300252Y-113870102D01*
X56337442Y-113877500D01*
X56337446Y-113877500D01*
X58062554Y-113877500D01*
X58062558Y-113877500D01*
X58099748Y-113870102D01*
X58141922Y-113841922D01*
X58170102Y-113799748D01*
X58177500Y-113762558D01*
X58177500Y-112037442D01*
X59822499Y-112037442D01*
X59822499Y-113762558D01*
X59829897Y-113799748D01*
X59858077Y-113841922D01*
X59900251Y-113870102D01*
X59937441Y-113877500D01*
X59937445Y-113877500D01*
X61662553Y-113877500D01*
X61662557Y-113877500D01*
X61699747Y-113870102D01*
X61741921Y-113841922D01*
X61770101Y-113799748D01*
X61777499Y-113762558D01*
X61777499Y-112037442D01*
X61770101Y-112000252D01*
X61741921Y-111958078D01*
X61699747Y-111929898D01*
X61662557Y-111922500D01*
X59937441Y-111922500D01*
X59900251Y-111929898D01*
X59858077Y-111958078D01*
X59829897Y-112000252D01*
X59822499Y-112037442D01*
X58177500Y-112037442D01*
X58170102Y-112000252D01*
X58141922Y-111958078D01*
X58099748Y-111929898D01*
X58062558Y-111922500D01*
X56337442Y-111922500D01*
X56300252Y-111929898D01*
X56258078Y-111958078D01*
X56229898Y-112000252D01*
X56222500Y-112037442D01*
X54577501Y-112037442D01*
X54570103Y-112000252D01*
X54541923Y-111958078D01*
X54499749Y-111929898D01*
X54462559Y-111922500D01*
X52737443Y-111922500D01*
X52700253Y-111929898D01*
X52658079Y-111958078D01*
X52629899Y-112000252D01*
X52622501Y-112037442D01*
X50977500Y-112037442D01*
X50970102Y-112000252D01*
X50941922Y-111958078D01*
X50899748Y-111929898D01*
X50862558Y-111922500D01*
X49137442Y-111922500D01*
X49100252Y-111929898D01*
X49058078Y-111958078D01*
X49029898Y-112000252D01*
X49022500Y-112037442D01*
X40381500Y-112037442D01*
X40381500Y-110107331D01*
X42822500Y-110107331D01*
X42822500Y-110292668D01*
X42822501Y-110292681D01*
X42851492Y-110475725D01*
X42851496Y-110475741D01*
X42908765Y-110651995D01*
X42908769Y-110652006D01*
X42992913Y-110817146D01*
X43101848Y-110967084D01*
X43101850Y-110967086D01*
X43101853Y-110967090D01*
X43232910Y-111098147D01*
X43232913Y-111098149D01*
X43232915Y-111098151D01*
X43363124Y-111192752D01*
X43382856Y-111207088D01*
X43547997Y-111291232D01*
X43640378Y-111321248D01*
X43724258Y-111348503D01*
X43724261Y-111348503D01*
X43724268Y-111348506D01*
X43907329Y-111377500D01*
X43907332Y-111377500D01*
X44092668Y-111377500D01*
X44092671Y-111377500D01*
X44275732Y-111348506D01*
X44452003Y-111291232D01*
X44617144Y-111207088D01*
X44767090Y-111098147D01*
X44898147Y-110967090D01*
X45007088Y-110817144D01*
X45091232Y-110652003D01*
X45148506Y-110475732D01*
X45177500Y-110292671D01*
X45177500Y-110107329D01*
X45148506Y-109924268D01*
X45091232Y-109747997D01*
X45007088Y-109582856D01*
X44917896Y-109460093D01*
X72892500Y-109460093D01*
X72892500Y-111085209D01*
X72899898Y-111122399D01*
X72928078Y-111164573D01*
X72970252Y-111192753D01*
X73007442Y-111200151D01*
X73007446Y-111200151D01*
X74632554Y-111200151D01*
X74632558Y-111200151D01*
X74669748Y-111192753D01*
X74711922Y-111164573D01*
X74740102Y-111122399D01*
X74747500Y-111085209D01*
X74747500Y-109460093D01*
X74740102Y-109422903D01*
X74711922Y-109380729D01*
X74669748Y-109352549D01*
X74632558Y-109345151D01*
X73007442Y-109345151D01*
X72970252Y-109352549D01*
X72928078Y-109380729D01*
X72899898Y-109422903D01*
X72892500Y-109460093D01*
X44917896Y-109460093D01*
X44898147Y-109432910D01*
X44767090Y-109301853D01*
X44767086Y-109301850D01*
X44767084Y-109301848D01*
X44617146Y-109192913D01*
X44452006Y-109108769D01*
X44451995Y-109108765D01*
X44315541Y-109064428D01*
X44275741Y-109051496D01*
X44275725Y-109051492D01*
X44103219Y-109024170D01*
X84822500Y-109024170D01*
X84822500Y-110695829D01*
X84833190Y-110769201D01*
X84888523Y-110882388D01*
X84888524Y-110882389D01*
X84977611Y-110971476D01*
X85090797Y-111026809D01*
X85164171Y-111037499D01*
X85164172Y-111037500D01*
X85164174Y-111037500D01*
X86835828Y-111037500D01*
X86835828Y-111037499D01*
X86909203Y-111026809D01*
X87022389Y-110971476D01*
X87111476Y-110882389D01*
X87166809Y-110769203D01*
X87177500Y-110695826D01*
X87177500Y-109024174D01*
X87166809Y-108950797D01*
X87111476Y-108837611D01*
X87022389Y-108748524D01*
X87022388Y-108748523D01*
X86909201Y-108693190D01*
X86835829Y-108682500D01*
X86835826Y-108682500D01*
X85164174Y-108682500D01*
X85164170Y-108682500D01*
X85090798Y-108693190D01*
X84977611Y-108748523D01*
X84888523Y-108837611D01*
X84833190Y-108950798D01*
X84822500Y-109024170D01*
X44103219Y-109024170D01*
X44092681Y-109022501D01*
X44092673Y-109022500D01*
X44092671Y-109022500D01*
X43907329Y-109022500D01*
X43907326Y-109022500D01*
X43907318Y-109022501D01*
X43724274Y-109051492D01*
X43724258Y-109051496D01*
X43548004Y-109108765D01*
X43547993Y-109108769D01*
X43382853Y-109192913D01*
X43232915Y-109301848D01*
X43101848Y-109432915D01*
X42992913Y-109582853D01*
X42908769Y-109747993D01*
X42908765Y-109748004D01*
X42851496Y-109924258D01*
X42851492Y-109924274D01*
X42822501Y-110107318D01*
X42822500Y-110107331D01*
X40381500Y-110107331D01*
X40381500Y-107567331D01*
X42822500Y-107567331D01*
X42822500Y-107752668D01*
X42822501Y-107752681D01*
X42851492Y-107935725D01*
X42851496Y-107935741D01*
X42908765Y-108111995D01*
X42908769Y-108112006D01*
X42992913Y-108277146D01*
X43101848Y-108427084D01*
X43101850Y-108427086D01*
X43101853Y-108427090D01*
X43232910Y-108558147D01*
X43232913Y-108558149D01*
X43232915Y-108558151D01*
X43382853Y-108667086D01*
X43382856Y-108667088D01*
X43547997Y-108751232D01*
X43640378Y-108781248D01*
X43724258Y-108808503D01*
X43724261Y-108808503D01*
X43724268Y-108808506D01*
X43907329Y-108837500D01*
X43907332Y-108837500D01*
X44092668Y-108837500D01*
X44092671Y-108837500D01*
X44275732Y-108808506D01*
X44452003Y-108751232D01*
X44617144Y-108667088D01*
X44767090Y-108558147D01*
X44898147Y-108427090D01*
X45007088Y-108277144D01*
X45091232Y-108112003D01*
X45143944Y-107949775D01*
X63318500Y-107949775D01*
X63318500Y-108050225D01*
X63344499Y-108147254D01*
X63394724Y-108234247D01*
X63465753Y-108305276D01*
X63552746Y-108355501D01*
X63649775Y-108381500D01*
X63649777Y-108381500D01*
X63750223Y-108381500D01*
X63750225Y-108381500D01*
X63847254Y-108355501D01*
X63934247Y-108305276D01*
X64005276Y-108234247D01*
X64055501Y-108147254D01*
X64081500Y-108050225D01*
X64081500Y-107949775D01*
X64055501Y-107852746D01*
X64005276Y-107765753D01*
X63934247Y-107694724D01*
X63905249Y-107677982D01*
X63847258Y-107644501D01*
X63847255Y-107644500D01*
X63847254Y-107644499D01*
X63847252Y-107644498D01*
X63847251Y-107644498D01*
X63821253Y-107637532D01*
X63750225Y-107618500D01*
X63649775Y-107618500D01*
X63597779Y-107632432D01*
X63552748Y-107644498D01*
X63552741Y-107644501D01*
X63465754Y-107694723D01*
X63394723Y-107765754D01*
X63344501Y-107852741D01*
X63344499Y-107852746D01*
X63318500Y-107949775D01*
X45143944Y-107949775D01*
X45148047Y-107937146D01*
X45148506Y-107935733D01*
X45161650Y-107852741D01*
X45177500Y-107752671D01*
X45177500Y-107567329D01*
X45148506Y-107384268D01*
X45097514Y-107227331D01*
X84822500Y-107227331D01*
X84822500Y-107412668D01*
X84822501Y-107412681D01*
X84851492Y-107595725D01*
X84851496Y-107595741D01*
X84908765Y-107771995D01*
X84908769Y-107772006D01*
X84992913Y-107937146D01*
X85101848Y-108087084D01*
X85101850Y-108087086D01*
X85101853Y-108087090D01*
X85232910Y-108218147D01*
X85232913Y-108218149D01*
X85232915Y-108218151D01*
X85255067Y-108234245D01*
X85382856Y-108327088D01*
X85547997Y-108411232D01*
X85596803Y-108427090D01*
X85724258Y-108468503D01*
X85724261Y-108468503D01*
X85724268Y-108468506D01*
X85907329Y-108497500D01*
X85907332Y-108497500D01*
X86092668Y-108497500D01*
X86092671Y-108497500D01*
X86275732Y-108468506D01*
X86452003Y-108411232D01*
X86617144Y-108327088D01*
X86767090Y-108218147D01*
X86898147Y-108087090D01*
X87007088Y-107937144D01*
X87091232Y-107772003D01*
X87148506Y-107595732D01*
X87177500Y-107412671D01*
X87177500Y-107227329D01*
X87148506Y-107044268D01*
X87091232Y-106867997D01*
X87007088Y-106702856D01*
X86909669Y-106568769D01*
X86898151Y-106552915D01*
X86898149Y-106552913D01*
X86898147Y-106552910D01*
X86767090Y-106421853D01*
X86767086Y-106421850D01*
X86767084Y-106421848D01*
X86617146Y-106312913D01*
X86452006Y-106228769D01*
X86451995Y-106228765D01*
X86275741Y-106171496D01*
X86275725Y-106171492D01*
X86092681Y-106142501D01*
X86092673Y-106142500D01*
X86092671Y-106142500D01*
X85907329Y-106142500D01*
X85907326Y-106142500D01*
X85907318Y-106142501D01*
X85724274Y-106171492D01*
X85724258Y-106171496D01*
X85548004Y-106228765D01*
X85547993Y-106228769D01*
X85382853Y-106312913D01*
X85232915Y-106421848D01*
X85101848Y-106552915D01*
X84992913Y-106702853D01*
X84908769Y-106867993D01*
X84908765Y-106868004D01*
X84851496Y-107044258D01*
X84851492Y-107044274D01*
X84822501Y-107227318D01*
X84822500Y-107227331D01*
X45097514Y-107227331D01*
X45097513Y-107227329D01*
X45091234Y-107208004D01*
X45091232Y-107207997D01*
X45007088Y-107042856D01*
X44898147Y-106892910D01*
X44767090Y-106761853D01*
X44767086Y-106761850D01*
X44767084Y-106761848D01*
X44617146Y-106652913D01*
X44452006Y-106568769D01*
X44451995Y-106568765D01*
X44275741Y-106511496D01*
X44275725Y-106511492D01*
X44092681Y-106482501D01*
X44092673Y-106482500D01*
X44092671Y-106482500D01*
X43907329Y-106482500D01*
X43907326Y-106482500D01*
X43907318Y-106482501D01*
X43724274Y-106511492D01*
X43724258Y-106511496D01*
X43548004Y-106568765D01*
X43547993Y-106568769D01*
X43382853Y-106652913D01*
X43232915Y-106761848D01*
X43101848Y-106892915D01*
X42992913Y-107042853D01*
X42908769Y-107207993D01*
X42908765Y-107208004D01*
X42851496Y-107384258D01*
X42851492Y-107384274D01*
X42822501Y-107567318D01*
X42822500Y-107567331D01*
X40381500Y-107567331D01*
X40381500Y-105027331D01*
X42822500Y-105027331D01*
X42822500Y-105212668D01*
X42822501Y-105212681D01*
X42851492Y-105395725D01*
X42851496Y-105395741D01*
X42908765Y-105571995D01*
X42908769Y-105572006D01*
X42992913Y-105737146D01*
X43101848Y-105887084D01*
X43101850Y-105887086D01*
X43101853Y-105887090D01*
X43232910Y-106018147D01*
X43232913Y-106018149D01*
X43232915Y-106018151D01*
X43382853Y-106127086D01*
X43382856Y-106127088D01*
X43547997Y-106211232D01*
X43640378Y-106241248D01*
X43724258Y-106268503D01*
X43724261Y-106268503D01*
X43724268Y-106268506D01*
X43907329Y-106297500D01*
X43907332Y-106297500D01*
X44092668Y-106297500D01*
X44092671Y-106297500D01*
X44275732Y-106268506D01*
X44452003Y-106211232D01*
X44617144Y-106127088D01*
X44767090Y-106018147D01*
X44898147Y-105887090D01*
X45007088Y-105737144D01*
X45091232Y-105572003D01*
X45148506Y-105395732D01*
X45177500Y-105212671D01*
X45177500Y-105049775D01*
X48818500Y-105049775D01*
X48818500Y-105150225D01*
X48844499Y-105247254D01*
X48894724Y-105334247D01*
X48965753Y-105405276D01*
X49052746Y-105455501D01*
X49149775Y-105481500D01*
X49149777Y-105481500D01*
X49250223Y-105481500D01*
X49250225Y-105481500D01*
X49347254Y-105455501D01*
X49434247Y-105405276D01*
X49505276Y-105334247D01*
X49555501Y-105247254D01*
X49581500Y-105150225D01*
X49581500Y-105049775D01*
X49555501Y-104952746D01*
X49505276Y-104865753D01*
X49434247Y-104794724D01*
X49405249Y-104777982D01*
X49347258Y-104744501D01*
X49347255Y-104744500D01*
X49347254Y-104744499D01*
X49347252Y-104744498D01*
X49347251Y-104744498D01*
X49331984Y-104740407D01*
X49250225Y-104718500D01*
X49149775Y-104718500D01*
X49113944Y-104728101D01*
X49052748Y-104744498D01*
X49052741Y-104744501D01*
X48965754Y-104794723D01*
X48894723Y-104865754D01*
X48844501Y-104952741D01*
X48844499Y-104952746D01*
X48818500Y-105049775D01*
X45177500Y-105049775D01*
X45177500Y-105027329D01*
X45148506Y-104844268D01*
X45097514Y-104687331D01*
X84822500Y-104687331D01*
X84822500Y-104872668D01*
X84822501Y-104872681D01*
X84851492Y-105055725D01*
X84851496Y-105055741D01*
X84908765Y-105231995D01*
X84908769Y-105232006D01*
X84992913Y-105397146D01*
X85101848Y-105547084D01*
X85101850Y-105547086D01*
X85101853Y-105547090D01*
X85232910Y-105678147D01*
X85232913Y-105678149D01*
X85232915Y-105678151D01*
X85314113Y-105737144D01*
X85382856Y-105787088D01*
X85547997Y-105871232D01*
X85596803Y-105887090D01*
X85724258Y-105928503D01*
X85724261Y-105928503D01*
X85724268Y-105928506D01*
X85907329Y-105957500D01*
X85907332Y-105957500D01*
X86092668Y-105957500D01*
X86092671Y-105957500D01*
X86275732Y-105928506D01*
X86452003Y-105871232D01*
X86617144Y-105787088D01*
X86767090Y-105678147D01*
X86898147Y-105547090D01*
X87007088Y-105397144D01*
X87091232Y-105232003D01*
X87148506Y-105055732D01*
X87177500Y-104872671D01*
X87177500Y-104687329D01*
X87148506Y-104504268D01*
X87091232Y-104327997D01*
X87007088Y-104162856D01*
X86909669Y-104028769D01*
X86898151Y-104012915D01*
X86898149Y-104012913D01*
X86898147Y-104012910D01*
X86767090Y-103881853D01*
X86767086Y-103881850D01*
X86767084Y-103881848D01*
X86617146Y-103772913D01*
X86452006Y-103688769D01*
X86451995Y-103688765D01*
X86275741Y-103631496D01*
X86275725Y-103631492D01*
X86092681Y-103602501D01*
X86092673Y-103602500D01*
X86092671Y-103602500D01*
X85907329Y-103602500D01*
X85907326Y-103602500D01*
X85907318Y-103602501D01*
X85724274Y-103631492D01*
X85724258Y-103631496D01*
X85548004Y-103688765D01*
X85547993Y-103688769D01*
X85382853Y-103772913D01*
X85232915Y-103881848D01*
X85101848Y-104012915D01*
X84992913Y-104162853D01*
X84908769Y-104327993D01*
X84908765Y-104328004D01*
X84851496Y-104504258D01*
X84851492Y-104504274D01*
X84822501Y-104687318D01*
X84822500Y-104687331D01*
X45097514Y-104687331D01*
X45091232Y-104667997D01*
X45007088Y-104502856D01*
X44898147Y-104352910D01*
X44767090Y-104221853D01*
X44767086Y-104221850D01*
X44767084Y-104221848D01*
X44617146Y-104112913D01*
X44452006Y-104028769D01*
X44451995Y-104028765D01*
X44275741Y-103971496D01*
X44275725Y-103971492D01*
X44092681Y-103942501D01*
X44092673Y-103942500D01*
X44092671Y-103942500D01*
X43907329Y-103942500D01*
X43907326Y-103942500D01*
X43907318Y-103942501D01*
X43724274Y-103971492D01*
X43724258Y-103971496D01*
X43548004Y-104028765D01*
X43547993Y-104028769D01*
X43382853Y-104112913D01*
X43232915Y-104221848D01*
X43101848Y-104352915D01*
X42992913Y-104502853D01*
X42908769Y-104667993D01*
X42908765Y-104668004D01*
X42851496Y-104844258D01*
X42851492Y-104844274D01*
X42822501Y-105027318D01*
X42822500Y-105027331D01*
X40381500Y-105027331D01*
X40381500Y-101744170D01*
X42822500Y-101744170D01*
X42822500Y-103415829D01*
X42833190Y-103489201D01*
X42888523Y-103602388D01*
X42888524Y-103602389D01*
X42977611Y-103691476D01*
X43090797Y-103746809D01*
X43164171Y-103757499D01*
X43164172Y-103757500D01*
X43164174Y-103757500D01*
X44835828Y-103757500D01*
X44835828Y-103757499D01*
X44909203Y-103746809D01*
X45022389Y-103691476D01*
X45111476Y-103602389D01*
X45166809Y-103489203D01*
X45177500Y-103415826D01*
X45177500Y-103149775D01*
X70418500Y-103149775D01*
X70418500Y-103250225D01*
X70444499Y-103347254D01*
X70494724Y-103434247D01*
X70565753Y-103505276D01*
X70652746Y-103555501D01*
X70749775Y-103581500D01*
X70749777Y-103581500D01*
X70850223Y-103581500D01*
X70850225Y-103581500D01*
X70947254Y-103555501D01*
X71034247Y-103505276D01*
X71105276Y-103434247D01*
X71155501Y-103347254D01*
X71181500Y-103250225D01*
X71181500Y-103149775D01*
X71155501Y-103052746D01*
X71105276Y-102965753D01*
X71034247Y-102894724D01*
X71005249Y-102877982D01*
X70947258Y-102844501D01*
X70947255Y-102844500D01*
X70947254Y-102844499D01*
X70947252Y-102844498D01*
X70947251Y-102844498D01*
X70921253Y-102837532D01*
X70850225Y-102818500D01*
X70749775Y-102818500D01*
X70708723Y-102829500D01*
X70652748Y-102844498D01*
X70652741Y-102844501D01*
X70565754Y-102894723D01*
X70494723Y-102965754D01*
X70444501Y-103052741D01*
X70444499Y-103052746D01*
X70418500Y-103149775D01*
X45177500Y-103149775D01*
X45177500Y-102337797D01*
X58610500Y-102337797D01*
X58610500Y-102452202D01*
X58640111Y-102562711D01*
X58640113Y-102562715D01*
X58697311Y-102661785D01*
X58697312Y-102661786D01*
X58697314Y-102661789D01*
X58778211Y-102742686D01*
X58877289Y-102799889D01*
X58987797Y-102829500D01*
X58987798Y-102829500D01*
X59102202Y-102829500D01*
X59102203Y-102829500D01*
X59212711Y-102799889D01*
X59311789Y-102742686D01*
X59392686Y-102661789D01*
X59449889Y-102562711D01*
X59479500Y-102452203D01*
X59479500Y-102449775D01*
X67968500Y-102449775D01*
X67968500Y-102550225D01*
X67971846Y-102562711D01*
X67994498Y-102647251D01*
X67994501Y-102647258D01*
X68020330Y-102691995D01*
X68044724Y-102734247D01*
X68115753Y-102805276D01*
X68202746Y-102855501D01*
X68299775Y-102881500D01*
X68299777Y-102881500D01*
X68400223Y-102881500D01*
X68400225Y-102881500D01*
X68497254Y-102855501D01*
X68584247Y-102805276D01*
X68655276Y-102734247D01*
X68705501Y-102647254D01*
X68731500Y-102550225D01*
X68731500Y-102449775D01*
X68705501Y-102352746D01*
X68655276Y-102265753D01*
X68584247Y-102194724D01*
X68537514Y-102167743D01*
X68502160Y-102147331D01*
X84822500Y-102147331D01*
X84822500Y-102332668D01*
X84822501Y-102332681D01*
X84851492Y-102515725D01*
X84851496Y-102515741D01*
X84908765Y-102691995D01*
X84908769Y-102692006D01*
X84992913Y-102857146D01*
X85101848Y-103007084D01*
X85101850Y-103007086D01*
X85101853Y-103007090D01*
X85232910Y-103138147D01*
X85232913Y-103138149D01*
X85232915Y-103138151D01*
X85248916Y-103149776D01*
X85382856Y-103247088D01*
X85547997Y-103331232D01*
X85597308Y-103347254D01*
X85724258Y-103388503D01*
X85724261Y-103388503D01*
X85724268Y-103388506D01*
X85907329Y-103417500D01*
X85907332Y-103417500D01*
X86092668Y-103417500D01*
X86092671Y-103417500D01*
X86275732Y-103388506D01*
X86452003Y-103331232D01*
X86617144Y-103247088D01*
X86767090Y-103138147D01*
X86898147Y-103007090D01*
X87007088Y-102857144D01*
X87091232Y-102692003D01*
X87148506Y-102515732D01*
X87177500Y-102332671D01*
X87177500Y-102147329D01*
X87148506Y-101964268D01*
X87091232Y-101787997D01*
X87007088Y-101622856D01*
X87007086Y-101622853D01*
X86898151Y-101472915D01*
X86898149Y-101472913D01*
X86898147Y-101472910D01*
X86767090Y-101341853D01*
X86767086Y-101341850D01*
X86767084Y-101341848D01*
X86617146Y-101232913D01*
X86452006Y-101148769D01*
X86451995Y-101148765D01*
X86275741Y-101091496D01*
X86275725Y-101091492D01*
X86092681Y-101062501D01*
X86092673Y-101062500D01*
X86092671Y-101062500D01*
X85907329Y-101062500D01*
X85907326Y-101062500D01*
X85907318Y-101062501D01*
X85724274Y-101091492D01*
X85724258Y-101091496D01*
X85548004Y-101148765D01*
X85547993Y-101148769D01*
X85382853Y-101232913D01*
X85232915Y-101341848D01*
X85101848Y-101472915D01*
X84992913Y-101622853D01*
X84908769Y-101787993D01*
X84908765Y-101788004D01*
X84851496Y-101964258D01*
X84851492Y-101964274D01*
X84822501Y-102147318D01*
X84822500Y-102147331D01*
X68502160Y-102147331D01*
X68497258Y-102144501D01*
X68497255Y-102144500D01*
X68497254Y-102144499D01*
X68497252Y-102144498D01*
X68497251Y-102144498D01*
X68471253Y-102137532D01*
X68400225Y-102118500D01*
X68299775Y-102118500D01*
X68247779Y-102132432D01*
X68202748Y-102144498D01*
X68202741Y-102144501D01*
X68115754Y-102194723D01*
X68044723Y-102265754D01*
X67994501Y-102352741D01*
X67994499Y-102352746D01*
X67968500Y-102449775D01*
X59479500Y-102449775D01*
X59479500Y-102337797D01*
X59449889Y-102227289D01*
X59432894Y-102197853D01*
X59392688Y-102128214D01*
X59392687Y-102128213D01*
X59392686Y-102128211D01*
X59311789Y-102047314D01*
X59311786Y-102047312D01*
X59311785Y-102047311D01*
X59212715Y-101990113D01*
X59212711Y-101990111D01*
X59102203Y-101960500D01*
X58987797Y-101960500D01*
X58932543Y-101975305D01*
X58877288Y-101990111D01*
X58877284Y-101990113D01*
X58778214Y-102047311D01*
X58697311Y-102128214D01*
X58640113Y-102227284D01*
X58640111Y-102227288D01*
X58610500Y-102337797D01*
X45177500Y-102337797D01*
X45177500Y-101744174D01*
X45166809Y-101670797D01*
X45111476Y-101557611D01*
X45022389Y-101468524D01*
X45022388Y-101468523D01*
X44909201Y-101413190D01*
X44835829Y-101402500D01*
X44835826Y-101402500D01*
X43164174Y-101402500D01*
X43164170Y-101402500D01*
X43090798Y-101413190D01*
X42977611Y-101468523D01*
X42888523Y-101557611D01*
X42833190Y-101670798D01*
X42822500Y-101744170D01*
X40381500Y-101744170D01*
X40381500Y-101242797D01*
X62565500Y-101242797D01*
X62565500Y-101357203D01*
X62580502Y-101413190D01*
X62595111Y-101467711D01*
X62595113Y-101467715D01*
X62652311Y-101566785D01*
X62652312Y-101566786D01*
X62652314Y-101566789D01*
X62733211Y-101647686D01*
X62832289Y-101704889D01*
X62942797Y-101734500D01*
X62942798Y-101734500D01*
X63057202Y-101734500D01*
X63057203Y-101734500D01*
X63167711Y-101704889D01*
X63266789Y-101647686D01*
X63347686Y-101566789D01*
X63404889Y-101467711D01*
X63434500Y-101357203D01*
X63434500Y-101242797D01*
X63404889Y-101132289D01*
X63347686Y-101033211D01*
X63266789Y-100952314D01*
X63266786Y-100952312D01*
X63266785Y-100952311D01*
X63167715Y-100895113D01*
X63167711Y-100895111D01*
X63057203Y-100865500D01*
X62942797Y-100865500D01*
X62898021Y-100877498D01*
X62832288Y-100895111D01*
X62832284Y-100895113D01*
X62733214Y-100952311D01*
X62652311Y-101033214D01*
X62595113Y-101132284D01*
X62595111Y-101132288D01*
X62595111Y-101132289D01*
X62565500Y-101242797D01*
X40381500Y-101242797D01*
X40381500Y-100342797D01*
X58165500Y-100342797D01*
X58165500Y-100457202D01*
X58195111Y-100567711D01*
X58195113Y-100567715D01*
X58252311Y-100666785D01*
X58252312Y-100666786D01*
X58252314Y-100666789D01*
X58333211Y-100747686D01*
X58432289Y-100804889D01*
X58542797Y-100834500D01*
X58542798Y-100834500D01*
X58657202Y-100834500D01*
X58657203Y-100834500D01*
X58767711Y-100804889D01*
X58866789Y-100747686D01*
X58947686Y-100666789D01*
X59004889Y-100567711D01*
X59034500Y-100457203D01*
X59034500Y-100342797D01*
X59004889Y-100232289D01*
X58977746Y-100185276D01*
X58947688Y-100133214D01*
X58947687Y-100133213D01*
X58947686Y-100133211D01*
X58866789Y-100052314D01*
X58866786Y-100052312D01*
X58866785Y-100052311D01*
X58767715Y-99995113D01*
X58767711Y-99995111D01*
X58695422Y-99975741D01*
X58657203Y-99965500D01*
X58542797Y-99965500D01*
X58504578Y-99975741D01*
X58432288Y-99995111D01*
X58432284Y-99995113D01*
X58333214Y-100052311D01*
X58252311Y-100133214D01*
X58195113Y-100232284D01*
X58195111Y-100232288D01*
X58165500Y-100342797D01*
X40381500Y-100342797D01*
X40381500Y-99829775D01*
X68288500Y-99829775D01*
X68288500Y-99930225D01*
X68297952Y-99965500D01*
X68314498Y-100027251D01*
X68314501Y-100027258D01*
X68328967Y-100052314D01*
X68364724Y-100114247D01*
X68435753Y-100185276D01*
X68522746Y-100235501D01*
X68619775Y-100261500D01*
X68619777Y-100261500D01*
X68720223Y-100261500D01*
X68720225Y-100261500D01*
X68817254Y-100235501D01*
X68904247Y-100185276D01*
X68975276Y-100114247D01*
X69025501Y-100027254D01*
X69051500Y-99930225D01*
X69051500Y-99829775D01*
X69025501Y-99732746D01*
X68975276Y-99645753D01*
X68936854Y-99607331D01*
X84822500Y-99607331D01*
X84822500Y-99792668D01*
X84822501Y-99792681D01*
X84851492Y-99975725D01*
X84851496Y-99975741D01*
X84908765Y-100151995D01*
X84908769Y-100152006D01*
X84992913Y-100317146D01*
X85101848Y-100467084D01*
X85101850Y-100467086D01*
X85101853Y-100467090D01*
X85232910Y-100598147D01*
X85232913Y-100598149D01*
X85232915Y-100598151D01*
X85382853Y-100707086D01*
X85382856Y-100707088D01*
X85547997Y-100791232D01*
X85590020Y-100804886D01*
X85724258Y-100848503D01*
X85724261Y-100848503D01*
X85724268Y-100848506D01*
X85907329Y-100877500D01*
X85907332Y-100877500D01*
X86092668Y-100877500D01*
X86092671Y-100877500D01*
X86275732Y-100848506D01*
X86452003Y-100791232D01*
X86617144Y-100707088D01*
X86767090Y-100598147D01*
X86898147Y-100467090D01*
X87007088Y-100317144D01*
X87091232Y-100152003D01*
X87148506Y-99975732D01*
X87177500Y-99792671D01*
X87177500Y-99607329D01*
X87148506Y-99424268D01*
X87091232Y-99247997D01*
X87007088Y-99082856D01*
X86898147Y-98932910D01*
X86767090Y-98801853D01*
X86767086Y-98801850D01*
X86767084Y-98801848D01*
X86617146Y-98692913D01*
X86452006Y-98608769D01*
X86451995Y-98608765D01*
X86275741Y-98551496D01*
X86275725Y-98551492D01*
X86092681Y-98522501D01*
X86092673Y-98522500D01*
X86092671Y-98522500D01*
X85907329Y-98522500D01*
X85907326Y-98522500D01*
X85907318Y-98522501D01*
X85724274Y-98551492D01*
X85724258Y-98551496D01*
X85548004Y-98608765D01*
X85547993Y-98608769D01*
X85382853Y-98692913D01*
X85232915Y-98801848D01*
X85101848Y-98932915D01*
X84992913Y-99082853D01*
X84908769Y-99247993D01*
X84908765Y-99248004D01*
X84851496Y-99424258D01*
X84851492Y-99424274D01*
X84822501Y-99607318D01*
X84822500Y-99607331D01*
X68936854Y-99607331D01*
X68904247Y-99574724D01*
X68875249Y-99557982D01*
X68817258Y-99524501D01*
X68817255Y-99524500D01*
X68817254Y-99524499D01*
X68817252Y-99524498D01*
X68817251Y-99524498D01*
X68791253Y-99517532D01*
X68720225Y-99498500D01*
X68619775Y-99498500D01*
X68567779Y-99512432D01*
X68522748Y-99524498D01*
X68522741Y-99524501D01*
X68435754Y-99574723D01*
X68364723Y-99645754D01*
X68314501Y-99732741D01*
X68314498Y-99732748D01*
X68312040Y-99741922D01*
X68288500Y-99829775D01*
X40381500Y-99829775D01*
X40381500Y-98703725D01*
X43622500Y-98703725D01*
X43622500Y-98896275D01*
X43660064Y-99085126D01*
X43727527Y-99247997D01*
X43733752Y-99263024D01*
X43840005Y-99422042D01*
X43840726Y-99423120D01*
X43976880Y-99559274D01*
X44048783Y-99607318D01*
X44136975Y-99666247D01*
X44136976Y-99666247D01*
X44136980Y-99666250D01*
X44314874Y-99739936D01*
X44503725Y-99777500D01*
X44503728Y-99777500D01*
X44696271Y-99777500D01*
X44696275Y-99777500D01*
X44885126Y-99739936D01*
X45063020Y-99666250D01*
X45223120Y-99559274D01*
X45359274Y-99423120D01*
X45466250Y-99263020D01*
X45539936Y-99085126D01*
X45577500Y-98896275D01*
X45577500Y-98703725D01*
X45539936Y-98514874D01*
X45466250Y-98336980D01*
X45359274Y-98176880D01*
X45223120Y-98040726D01*
X45120063Y-97971865D01*
X45068546Y-97937442D01*
X46162500Y-97937442D01*
X46162500Y-99662558D01*
X46169898Y-99699748D01*
X46198078Y-99741922D01*
X46240252Y-99770102D01*
X46277442Y-99777500D01*
X46277446Y-99777500D01*
X48002554Y-99777500D01*
X48002558Y-99777500D01*
X48039748Y-99770102D01*
X48081922Y-99741922D01*
X48110102Y-99699748D01*
X48117500Y-99662558D01*
X48117500Y-97937442D01*
X48110102Y-97900252D01*
X48081922Y-97858078D01*
X48039748Y-97829898D01*
X48002558Y-97822500D01*
X46277442Y-97822500D01*
X46240252Y-97829898D01*
X46198078Y-97858078D01*
X46169898Y-97900252D01*
X46162500Y-97937442D01*
X45068546Y-97937442D01*
X45063024Y-97933752D01*
X45063021Y-97933750D01*
X45063020Y-97933750D01*
X44885126Y-97860064D01*
X44696275Y-97822500D01*
X44503725Y-97822500D01*
X44362086Y-97850673D01*
X44314873Y-97860064D01*
X44136975Y-97933752D01*
X43976882Y-98040724D01*
X43840724Y-98176882D01*
X43733752Y-98336975D01*
X43733750Y-98336980D01*
X43660064Y-98514874D01*
X43622500Y-98703725D01*
X40381500Y-98703725D01*
X40381500Y-97067331D01*
X84822500Y-97067331D01*
X84822500Y-97252668D01*
X84822501Y-97252681D01*
X84851492Y-97435725D01*
X84851496Y-97435741D01*
X84908765Y-97611995D01*
X84908769Y-97612006D01*
X84992913Y-97777146D01*
X85101848Y-97927084D01*
X85101850Y-97927086D01*
X85101853Y-97927090D01*
X85232910Y-98058147D01*
X85232913Y-98058149D01*
X85232915Y-98058151D01*
X85382853Y-98167086D01*
X85382856Y-98167088D01*
X85547997Y-98251232D01*
X85640378Y-98281248D01*
X85724258Y-98308503D01*
X85724261Y-98308503D01*
X85724268Y-98308506D01*
X85907329Y-98337500D01*
X85907332Y-98337500D01*
X86092668Y-98337500D01*
X86092671Y-98337500D01*
X86275732Y-98308506D01*
X86452003Y-98251232D01*
X86617144Y-98167088D01*
X86767090Y-98058147D01*
X86898147Y-97927090D01*
X87007088Y-97777144D01*
X87091232Y-97612003D01*
X87148506Y-97435732D01*
X87177500Y-97252671D01*
X87177500Y-97067329D01*
X87148506Y-96884268D01*
X87091232Y-96707997D01*
X87007088Y-96542856D01*
X86898147Y-96392910D01*
X86767090Y-96261853D01*
X86767086Y-96261850D01*
X86767084Y-96261848D01*
X86617146Y-96152913D01*
X86452006Y-96068769D01*
X86451995Y-96068765D01*
X86275741Y-96011496D01*
X86275725Y-96011492D01*
X86092681Y-95982501D01*
X86092673Y-95982500D01*
X86092671Y-95982500D01*
X85907329Y-95982500D01*
X85907326Y-95982500D01*
X85907318Y-95982501D01*
X85724274Y-96011492D01*
X85724258Y-96011496D01*
X85548004Y-96068765D01*
X85547993Y-96068769D01*
X85382853Y-96152913D01*
X85232915Y-96261848D01*
X85101848Y-96392915D01*
X84992913Y-96542853D01*
X84908769Y-96707993D01*
X84908765Y-96708004D01*
X84851496Y-96884258D01*
X84851492Y-96884274D01*
X84822501Y-97067318D01*
X84822500Y-97067331D01*
X40381500Y-97067331D01*
X40381500Y-95103725D01*
X43622500Y-95103725D01*
X43622500Y-95296275D01*
X43660064Y-95485126D01*
X43718866Y-95627088D01*
X43733752Y-95663024D01*
X43823606Y-95797498D01*
X43840726Y-95823120D01*
X43976880Y-95959274D01*
X44055029Y-96011492D01*
X44136975Y-96066247D01*
X44136976Y-96066247D01*
X44136980Y-96066250D01*
X44314874Y-96139936D01*
X44503725Y-96177500D01*
X44503728Y-96177500D01*
X44696271Y-96177500D01*
X44696275Y-96177500D01*
X44885126Y-96139936D01*
X45063020Y-96066250D01*
X45223120Y-95959274D01*
X45359274Y-95823120D01*
X45466250Y-95663020D01*
X45539936Y-95485126D01*
X45577500Y-95296275D01*
X45577500Y-95103725D01*
X45539936Y-94914874D01*
X45466250Y-94736980D01*
X45359274Y-94576880D01*
X45223120Y-94440726D01*
X45120063Y-94371865D01*
X45068546Y-94337442D01*
X46162500Y-94337442D01*
X46162500Y-96062558D01*
X46169898Y-96099748D01*
X46198078Y-96141922D01*
X46240252Y-96170102D01*
X46277442Y-96177500D01*
X46277446Y-96177500D01*
X48002554Y-96177500D01*
X48002558Y-96177500D01*
X48039748Y-96170102D01*
X48081922Y-96141922D01*
X48110102Y-96099748D01*
X48117500Y-96062558D01*
X48117500Y-94527331D01*
X84822500Y-94527331D01*
X84822500Y-94712668D01*
X84822501Y-94712681D01*
X84851492Y-94895725D01*
X84851496Y-94895741D01*
X84908765Y-95071995D01*
X84908769Y-95072006D01*
X84992913Y-95237146D01*
X85101848Y-95387084D01*
X85101850Y-95387086D01*
X85101853Y-95387090D01*
X85232910Y-95518147D01*
X85232913Y-95518149D01*
X85232915Y-95518151D01*
X85382853Y-95627086D01*
X85382856Y-95627088D01*
X85547997Y-95711232D01*
X85640378Y-95741248D01*
X85724258Y-95768503D01*
X85724261Y-95768503D01*
X85724268Y-95768506D01*
X85907329Y-95797500D01*
X85907332Y-95797500D01*
X86092668Y-95797500D01*
X86092671Y-95797500D01*
X86275732Y-95768506D01*
X86452003Y-95711232D01*
X86617144Y-95627088D01*
X86767090Y-95518147D01*
X86898147Y-95387090D01*
X87007088Y-95237144D01*
X87091232Y-95072003D01*
X87148506Y-94895732D01*
X87177500Y-94712671D01*
X87177500Y-94527329D01*
X87148506Y-94344268D01*
X87145088Y-94333750D01*
X87091234Y-94168004D01*
X87091232Y-94167997D01*
X87007088Y-94002856D01*
X86898147Y-93852910D01*
X86767090Y-93721853D01*
X86767086Y-93721850D01*
X86767084Y-93721848D01*
X86617146Y-93612913D01*
X86452006Y-93528769D01*
X86451995Y-93528765D01*
X86275741Y-93471496D01*
X86275725Y-93471492D01*
X86092681Y-93442501D01*
X86092673Y-93442500D01*
X86092671Y-93442500D01*
X85907329Y-93442500D01*
X85907326Y-93442500D01*
X85907318Y-93442501D01*
X85724274Y-93471492D01*
X85724258Y-93471496D01*
X85548004Y-93528765D01*
X85547993Y-93528769D01*
X85382853Y-93612913D01*
X85232915Y-93721848D01*
X85101848Y-93852915D01*
X84992913Y-94002853D01*
X84908769Y-94167993D01*
X84908765Y-94168004D01*
X84851496Y-94344258D01*
X84851492Y-94344274D01*
X84822501Y-94527318D01*
X84822500Y-94527331D01*
X48117500Y-94527331D01*
X48117500Y-94337442D01*
X48110102Y-94300252D01*
X48081922Y-94258078D01*
X48039748Y-94229898D01*
X48002558Y-94222500D01*
X46277442Y-94222500D01*
X46240252Y-94229898D01*
X46198078Y-94258078D01*
X46169898Y-94300252D01*
X46162500Y-94337442D01*
X45068546Y-94337442D01*
X45063024Y-94333752D01*
X45063021Y-94333750D01*
X45063020Y-94333750D01*
X44885126Y-94260064D01*
X44696275Y-94222500D01*
X44503725Y-94222500D01*
X44362086Y-94250673D01*
X44314873Y-94260064D01*
X44136975Y-94333752D01*
X43976882Y-94440724D01*
X43840724Y-94576882D01*
X43733752Y-94736975D01*
X43667993Y-94895732D01*
X43660064Y-94914874D01*
X43622500Y-95103725D01*
X40381500Y-95103725D01*
X40381500Y-93349775D01*
X68468500Y-93349775D01*
X68468500Y-93450225D01*
X68494499Y-93547254D01*
X68544724Y-93634247D01*
X68615753Y-93705276D01*
X68702746Y-93755501D01*
X68799775Y-93781500D01*
X68799777Y-93781500D01*
X68900223Y-93781500D01*
X68900225Y-93781500D01*
X68997254Y-93755501D01*
X69084247Y-93705276D01*
X69155276Y-93634247D01*
X69205501Y-93547254D01*
X69231500Y-93450225D01*
X69231500Y-93349775D01*
X69205501Y-93252746D01*
X69155276Y-93165753D01*
X69084247Y-93094724D01*
X69055249Y-93077982D01*
X68997258Y-93044501D01*
X68997255Y-93044500D01*
X68997254Y-93044499D01*
X68997252Y-93044498D01*
X68997251Y-93044498D01*
X68971253Y-93037532D01*
X68900225Y-93018500D01*
X68799775Y-93018500D01*
X68747779Y-93032432D01*
X68702748Y-93044498D01*
X68702741Y-93044501D01*
X68615754Y-93094723D01*
X68544723Y-93165754D01*
X68494501Y-93252741D01*
X68494498Y-93252748D01*
X68493225Y-93257500D01*
X68468500Y-93349775D01*
X40381500Y-93349775D01*
X40381500Y-91503725D01*
X43622500Y-91503725D01*
X43622500Y-91696275D01*
X43660064Y-91885126D01*
X43721020Y-92032288D01*
X43733752Y-92063024D01*
X43840005Y-92222042D01*
X43840726Y-92223120D01*
X43976880Y-92359274D01*
X43989507Y-92367711D01*
X44136975Y-92466247D01*
X44136976Y-92466247D01*
X44136980Y-92466250D01*
X44314874Y-92539936D01*
X44503725Y-92577500D01*
X44503728Y-92577500D01*
X44696271Y-92577500D01*
X44696275Y-92577500D01*
X44885126Y-92539936D01*
X45063020Y-92466250D01*
X45223120Y-92359274D01*
X45359274Y-92223120D01*
X45466250Y-92063020D01*
X45539936Y-91885126D01*
X45577500Y-91696275D01*
X45577500Y-91503725D01*
X45539936Y-91314874D01*
X45466250Y-91136980D01*
X45359274Y-90976880D01*
X45223120Y-90840726D01*
X45094657Y-90754889D01*
X45068546Y-90737442D01*
X46162500Y-90737442D01*
X46162500Y-92462558D01*
X46169898Y-92499748D01*
X46198078Y-92541922D01*
X46240252Y-92570102D01*
X46277442Y-92577500D01*
X46277446Y-92577500D01*
X48002554Y-92577500D01*
X48002558Y-92577500D01*
X48039748Y-92570102D01*
X48081922Y-92541922D01*
X48110102Y-92499748D01*
X48117500Y-92462558D01*
X48117500Y-92142797D01*
X57365500Y-92142797D01*
X57365500Y-92257202D01*
X57395111Y-92367711D01*
X57395113Y-92367715D01*
X57452311Y-92466785D01*
X57452312Y-92466786D01*
X57452314Y-92466789D01*
X57533211Y-92547686D01*
X57632289Y-92604889D01*
X57742797Y-92634500D01*
X57742798Y-92634500D01*
X57857202Y-92634500D01*
X57857203Y-92634500D01*
X57967711Y-92604889D01*
X58066789Y-92547686D01*
X58147686Y-92466789D01*
X58204889Y-92367711D01*
X58234500Y-92257203D01*
X58234500Y-92142797D01*
X58204889Y-92032289D01*
X58178932Y-91987331D01*
X84822500Y-91987331D01*
X84822500Y-92172668D01*
X84822501Y-92172681D01*
X84851492Y-92355725D01*
X84851496Y-92355741D01*
X84908765Y-92531995D01*
X84908769Y-92532006D01*
X84992913Y-92697146D01*
X85101848Y-92847084D01*
X85101850Y-92847086D01*
X85101853Y-92847090D01*
X85232910Y-92978147D01*
X85232913Y-92978149D01*
X85232915Y-92978151D01*
X85324239Y-93044501D01*
X85382856Y-93087088D01*
X85547997Y-93171232D01*
X85640378Y-93201248D01*
X85724258Y-93228503D01*
X85724261Y-93228503D01*
X85724268Y-93228506D01*
X85907329Y-93257500D01*
X85907332Y-93257500D01*
X86092668Y-93257500D01*
X86092671Y-93257500D01*
X86275732Y-93228506D01*
X86452003Y-93171232D01*
X86617144Y-93087088D01*
X86767090Y-92978147D01*
X86898147Y-92847090D01*
X87007088Y-92697144D01*
X87091232Y-92532003D01*
X87148506Y-92355732D01*
X87177500Y-92172671D01*
X87177500Y-91987329D01*
X87148506Y-91804268D01*
X87145531Y-91795113D01*
X87091234Y-91628004D01*
X87091232Y-91627997D01*
X87007088Y-91462856D01*
X86899574Y-91314874D01*
X86898151Y-91312915D01*
X86898149Y-91312913D01*
X86898147Y-91312910D01*
X86767090Y-91181853D01*
X86767086Y-91181850D01*
X86767084Y-91181848D01*
X86617146Y-91072913D01*
X86452006Y-90988769D01*
X86451995Y-90988765D01*
X86275741Y-90931496D01*
X86275725Y-90931492D01*
X86092681Y-90902501D01*
X86092673Y-90902500D01*
X86092671Y-90902500D01*
X85907329Y-90902500D01*
X85907326Y-90902500D01*
X85907318Y-90902501D01*
X85724274Y-90931492D01*
X85724258Y-90931496D01*
X85548004Y-90988765D01*
X85547993Y-90988769D01*
X85382853Y-91072913D01*
X85232915Y-91181848D01*
X85101848Y-91312915D01*
X84992913Y-91462853D01*
X84908769Y-91627993D01*
X84908765Y-91628004D01*
X84851496Y-91804258D01*
X84851492Y-91804274D01*
X84822501Y-91987318D01*
X84822500Y-91987331D01*
X58178932Y-91987331D01*
X58147688Y-91933214D01*
X58147687Y-91933213D01*
X58147686Y-91933211D01*
X58066789Y-91852314D01*
X58066786Y-91852312D01*
X58066785Y-91852311D01*
X57967715Y-91795113D01*
X57967711Y-91795111D01*
X57857203Y-91765500D01*
X57742797Y-91765500D01*
X57687543Y-91780305D01*
X57632288Y-91795111D01*
X57632284Y-91795113D01*
X57533214Y-91852311D01*
X57452311Y-91933214D01*
X57395113Y-92032284D01*
X57395111Y-92032288D01*
X57365500Y-92142797D01*
X48117500Y-92142797D01*
X48117500Y-90737442D01*
X48110102Y-90700252D01*
X48081922Y-90658078D01*
X48039748Y-90629898D01*
X48002558Y-90622500D01*
X46277442Y-90622500D01*
X46240252Y-90629898D01*
X46198078Y-90658078D01*
X46169898Y-90700252D01*
X46162500Y-90737442D01*
X45068546Y-90737442D01*
X45063024Y-90733752D01*
X45063021Y-90733750D01*
X45063020Y-90733750D01*
X44885126Y-90660064D01*
X44696275Y-90622500D01*
X44503725Y-90622500D01*
X44362086Y-90650673D01*
X44314873Y-90660064D01*
X44136975Y-90733752D01*
X43976882Y-90840724D01*
X43840724Y-90976882D01*
X43733752Y-91136975D01*
X43660878Y-91312910D01*
X43660064Y-91314874D01*
X43622500Y-91503725D01*
X40381500Y-91503725D01*
X40381500Y-90292797D01*
X64465500Y-90292797D01*
X64465500Y-90407202D01*
X64495111Y-90517711D01*
X64495113Y-90517715D01*
X64552311Y-90616785D01*
X64552312Y-90616786D01*
X64552314Y-90616789D01*
X64633211Y-90697686D01*
X64633213Y-90697687D01*
X64633214Y-90697688D01*
X64695675Y-90733750D01*
X64732289Y-90754889D01*
X64842797Y-90784500D01*
X64842798Y-90784500D01*
X64957202Y-90784500D01*
X64957203Y-90784500D01*
X65067711Y-90754889D01*
X65166789Y-90697686D01*
X65247686Y-90616789D01*
X65304889Y-90517711D01*
X65334500Y-90407203D01*
X65334500Y-90292797D01*
X65304889Y-90182289D01*
X65247686Y-90083211D01*
X65166789Y-90002314D01*
X65166786Y-90002312D01*
X65166785Y-90002311D01*
X65067715Y-89945113D01*
X65067711Y-89945111D01*
X64957203Y-89915500D01*
X64842797Y-89915500D01*
X64787543Y-89930305D01*
X64732288Y-89945111D01*
X64732284Y-89945113D01*
X64633214Y-90002311D01*
X64552311Y-90083214D01*
X64495113Y-90182284D01*
X64495111Y-90182288D01*
X64465500Y-90292797D01*
X40381500Y-90292797D01*
X40381500Y-89447331D01*
X84822500Y-89447331D01*
X84822500Y-89632668D01*
X84822501Y-89632681D01*
X84851492Y-89815725D01*
X84851496Y-89815741D01*
X84908765Y-89991995D01*
X84908769Y-89992006D01*
X84992913Y-90157146D01*
X85101848Y-90307084D01*
X85101850Y-90307086D01*
X85101853Y-90307090D01*
X85232910Y-90438147D01*
X85232913Y-90438149D01*
X85232915Y-90438151D01*
X85342427Y-90517715D01*
X85382856Y-90547088D01*
X85547997Y-90631232D01*
X85636733Y-90660064D01*
X85724258Y-90688503D01*
X85724261Y-90688503D01*
X85724268Y-90688506D01*
X85907329Y-90717500D01*
X85907332Y-90717500D01*
X86092668Y-90717500D01*
X86092671Y-90717500D01*
X86275732Y-90688506D01*
X86452003Y-90631232D01*
X86617144Y-90547088D01*
X86767090Y-90438147D01*
X86898147Y-90307090D01*
X87007088Y-90157144D01*
X87091232Y-89992003D01*
X87148506Y-89815732D01*
X87177500Y-89632671D01*
X87177500Y-89447329D01*
X87148506Y-89264268D01*
X87091232Y-89087997D01*
X87007088Y-88922856D01*
X86990299Y-88899748D01*
X86898151Y-88772915D01*
X86898149Y-88772913D01*
X86898147Y-88772910D01*
X86767090Y-88641853D01*
X86767086Y-88641850D01*
X86767084Y-88641848D01*
X86617146Y-88532913D01*
X86452006Y-88448769D01*
X86451995Y-88448765D01*
X86275741Y-88391496D01*
X86275725Y-88391492D01*
X86092681Y-88362501D01*
X86092673Y-88362500D01*
X86092671Y-88362500D01*
X85907329Y-88362500D01*
X85907326Y-88362500D01*
X85907318Y-88362501D01*
X85724274Y-88391492D01*
X85724258Y-88391496D01*
X85548004Y-88448765D01*
X85547993Y-88448769D01*
X85382853Y-88532913D01*
X85232915Y-88641848D01*
X85101848Y-88772915D01*
X84992913Y-88922853D01*
X84908769Y-89087993D01*
X84908765Y-89088004D01*
X84851496Y-89264258D01*
X84851492Y-89264274D01*
X84822501Y-89447318D01*
X84822500Y-89447331D01*
X40381500Y-89447331D01*
X40381500Y-87903726D01*
X43622500Y-87903726D01*
X43622500Y-88096276D01*
X43660064Y-88285127D01*
X43727846Y-88448768D01*
X43733752Y-88463025D01*
X43840005Y-88622043D01*
X43840726Y-88623121D01*
X43976880Y-88759275D01*
X43997286Y-88772910D01*
X44136975Y-88866248D01*
X44136976Y-88866248D01*
X44136980Y-88866251D01*
X44314874Y-88939937D01*
X44503725Y-88977501D01*
X44503728Y-88977501D01*
X44696271Y-88977501D01*
X44696275Y-88977501D01*
X44885126Y-88939937D01*
X45063020Y-88866251D01*
X45223120Y-88759275D01*
X45359274Y-88623121D01*
X45466250Y-88463021D01*
X45539936Y-88285127D01*
X45577500Y-88096276D01*
X45577500Y-87903726D01*
X45539936Y-87714875D01*
X45466250Y-87536981D01*
X45359274Y-87376881D01*
X45223120Y-87240727D01*
X45120063Y-87171866D01*
X45068546Y-87137443D01*
X46162500Y-87137443D01*
X46162500Y-88862559D01*
X46169898Y-88899749D01*
X46198078Y-88941923D01*
X46240252Y-88970103D01*
X46277442Y-88977501D01*
X46277446Y-88977501D01*
X48002554Y-88977501D01*
X48002558Y-88977501D01*
X48039748Y-88970103D01*
X48081922Y-88941923D01*
X48110102Y-88899749D01*
X48117500Y-88862559D01*
X48117500Y-87137443D01*
X48110102Y-87100253D01*
X48081922Y-87058079D01*
X48039748Y-87029899D01*
X48002558Y-87022501D01*
X46277442Y-87022501D01*
X46240252Y-87029899D01*
X46198078Y-87058079D01*
X46169898Y-87100253D01*
X46162500Y-87137443D01*
X45068546Y-87137443D01*
X45063024Y-87133753D01*
X45063021Y-87133751D01*
X45063020Y-87133751D01*
X44885126Y-87060065D01*
X44696275Y-87022501D01*
X44503725Y-87022501D01*
X44362086Y-87050674D01*
X44314873Y-87060065D01*
X44136975Y-87133753D01*
X43976882Y-87240725D01*
X43840724Y-87376883D01*
X43733752Y-87536976D01*
X43700545Y-87617146D01*
X43660064Y-87714875D01*
X43622500Y-87903726D01*
X40381500Y-87903726D01*
X40381500Y-86907331D01*
X84822500Y-86907331D01*
X84822500Y-87092668D01*
X84822501Y-87092681D01*
X84851492Y-87275725D01*
X84851496Y-87275741D01*
X84908765Y-87451995D01*
X84908769Y-87452006D01*
X84992913Y-87617146D01*
X85101848Y-87767084D01*
X85101850Y-87767086D01*
X85101853Y-87767090D01*
X85232910Y-87898147D01*
X85232913Y-87898149D01*
X85232915Y-87898151D01*
X85240593Y-87903729D01*
X85382856Y-88007088D01*
X85547997Y-88091232D01*
X85640378Y-88121248D01*
X85724258Y-88148503D01*
X85724261Y-88148503D01*
X85724268Y-88148506D01*
X85907329Y-88177500D01*
X85907332Y-88177500D01*
X86092668Y-88177500D01*
X86092671Y-88177500D01*
X86275732Y-88148506D01*
X86452003Y-88091232D01*
X86617144Y-88007088D01*
X86767090Y-87898147D01*
X86898147Y-87767090D01*
X87007088Y-87617144D01*
X87091232Y-87452003D01*
X87148506Y-87275732D01*
X87177500Y-87092671D01*
X87177500Y-86907329D01*
X87148506Y-86724268D01*
X87091232Y-86547997D01*
X87007088Y-86382856D01*
X86898147Y-86232910D01*
X86767090Y-86101853D01*
X86767086Y-86101850D01*
X86767084Y-86101848D01*
X86617146Y-85992913D01*
X86452006Y-85908769D01*
X86451995Y-85908765D01*
X86275741Y-85851496D01*
X86275725Y-85851492D01*
X86092681Y-85822501D01*
X86092673Y-85822500D01*
X86092671Y-85822500D01*
X85907329Y-85822500D01*
X85907326Y-85822500D01*
X85907318Y-85822501D01*
X85724274Y-85851492D01*
X85724258Y-85851496D01*
X85548004Y-85908765D01*
X85547993Y-85908769D01*
X85382853Y-85992913D01*
X85232915Y-86101848D01*
X85101848Y-86232915D01*
X84992913Y-86382853D01*
X84908769Y-86547993D01*
X84908765Y-86548004D01*
X84851496Y-86724258D01*
X84851492Y-86724274D01*
X84822501Y-86907318D01*
X84822500Y-86907331D01*
X40381500Y-86907331D01*
X40381500Y-83213707D01*
X46275500Y-83213707D01*
X46275500Y-83366293D01*
X46314992Y-83513678D01*
X46314994Y-83513682D01*
X46391282Y-83645817D01*
X46391283Y-83645818D01*
X46391285Y-83645821D01*
X46499179Y-83753715D01*
X46631322Y-83830008D01*
X46778707Y-83869500D01*
X46778709Y-83869500D01*
X46931291Y-83869500D01*
X46931293Y-83869500D01*
X47078678Y-83830008D01*
X47210821Y-83753715D01*
X47318715Y-83645821D01*
X47395008Y-83513678D01*
X47434500Y-83366293D01*
X47434500Y-83213707D01*
X47395008Y-83066322D01*
X47318715Y-82934179D01*
X47210821Y-82826285D01*
X47210818Y-82826283D01*
X47210817Y-82826282D01*
X47078682Y-82749994D01*
X47078678Y-82749992D01*
X46931293Y-82710500D01*
X46778707Y-82710500D01*
X46680450Y-82736828D01*
X46631321Y-82749992D01*
X46631317Y-82749994D01*
X46499182Y-82826282D01*
X46391282Y-82934182D01*
X46314994Y-83066317D01*
X46314992Y-83066321D01*
X46314992Y-83066322D01*
X46275500Y-83213707D01*
X40381500Y-83213707D01*
X40381500Y-81389775D01*
X75810163Y-81389775D01*
X75810163Y-81490225D01*
X75836162Y-81587254D01*
X75886387Y-81674247D01*
X75957416Y-81745276D01*
X76044409Y-81795501D01*
X76141438Y-81821500D01*
X76141440Y-81821500D01*
X76241886Y-81821500D01*
X76241888Y-81821500D01*
X76338917Y-81795501D01*
X76425910Y-81745276D01*
X76496939Y-81674247D01*
X76547164Y-81587254D01*
X76573163Y-81490225D01*
X76573163Y-81389775D01*
X76547164Y-81292746D01*
X76496939Y-81205753D01*
X76425910Y-81134724D01*
X76396912Y-81117982D01*
X76338921Y-81084501D01*
X76338918Y-81084500D01*
X76338917Y-81084499D01*
X76338915Y-81084498D01*
X76338914Y-81084498D01*
X76312916Y-81077532D01*
X76241888Y-81058500D01*
X76141438Y-81058500D01*
X76089442Y-81072432D01*
X76044411Y-81084498D01*
X76044404Y-81084501D01*
X75957417Y-81134723D01*
X75886386Y-81205754D01*
X75836164Y-81292741D01*
X75836161Y-81292748D01*
X75821146Y-81348786D01*
X75810163Y-81389775D01*
X40381500Y-81389775D01*
X40381500Y-80949775D01*
X65338500Y-80949775D01*
X65338500Y-81050225D01*
X65349560Y-81091500D01*
X65361141Y-81134724D01*
X65364499Y-81147254D01*
X65414724Y-81234247D01*
X65485753Y-81305276D01*
X65572746Y-81355501D01*
X65669775Y-81381500D01*
X65669777Y-81381500D01*
X65770223Y-81381500D01*
X65770225Y-81381500D01*
X65867254Y-81355501D01*
X65954247Y-81305276D01*
X66025276Y-81234247D01*
X66075501Y-81147254D01*
X66101500Y-81050225D01*
X66101500Y-80949775D01*
X73838500Y-80949775D01*
X73838500Y-81050225D01*
X73849560Y-81091500D01*
X73861141Y-81134724D01*
X73864499Y-81147254D01*
X73914724Y-81234247D01*
X73985753Y-81305276D01*
X74072746Y-81355501D01*
X74169775Y-81381500D01*
X74169777Y-81381500D01*
X74270223Y-81381500D01*
X74270225Y-81381500D01*
X74367254Y-81355501D01*
X74454247Y-81305276D01*
X74525276Y-81234247D01*
X74575501Y-81147254D01*
X74601500Y-81050225D01*
X74601500Y-80949775D01*
X74575501Y-80852746D01*
X74525276Y-80765753D01*
X74454247Y-80694724D01*
X74393713Y-80659775D01*
X74367258Y-80644501D01*
X74367255Y-80644500D01*
X74367254Y-80644499D01*
X74367252Y-80644498D01*
X74367251Y-80644498D01*
X74341253Y-80637532D01*
X74270225Y-80618500D01*
X74169775Y-80618500D01*
X74117779Y-80632432D01*
X74072748Y-80644498D01*
X74072741Y-80644501D01*
X73985754Y-80694723D01*
X73914723Y-80765754D01*
X73864501Y-80852741D01*
X73864498Y-80852748D01*
X73863291Y-80857254D01*
X73838500Y-80949775D01*
X66101500Y-80949775D01*
X66075501Y-80852746D01*
X66025276Y-80765753D01*
X65954247Y-80694724D01*
X65893713Y-80659775D01*
X65867258Y-80644501D01*
X65867255Y-80644500D01*
X65867254Y-80644499D01*
X65867252Y-80644498D01*
X65867251Y-80644498D01*
X65841253Y-80637532D01*
X65770225Y-80618500D01*
X65669775Y-80618500D01*
X65617779Y-80632432D01*
X65572748Y-80644498D01*
X65572741Y-80644501D01*
X65485754Y-80694723D01*
X65414723Y-80765754D01*
X65364501Y-80852741D01*
X65364498Y-80852748D01*
X65363291Y-80857254D01*
X65338500Y-80949775D01*
X40381500Y-80949775D01*
X40381500Y-80419775D01*
X75128500Y-80419775D01*
X75128500Y-80520225D01*
X75135691Y-80547061D01*
X75149935Y-80600223D01*
X75154499Y-80617254D01*
X75204724Y-80704247D01*
X75275753Y-80775276D01*
X75362746Y-80825501D01*
X75459775Y-80851500D01*
X75459777Y-80851500D01*
X75560223Y-80851500D01*
X75560225Y-80851500D01*
X75657254Y-80825501D01*
X75744247Y-80775276D01*
X75783136Y-80736386D01*
X75814247Y-80723499D01*
X75845360Y-80736386D01*
X75852353Y-80745499D01*
X75874724Y-80784247D01*
X75945753Y-80855276D01*
X76032746Y-80905501D01*
X76129775Y-80931500D01*
X76129777Y-80931500D01*
X76230223Y-80931500D01*
X76230225Y-80931500D01*
X76327254Y-80905501D01*
X76414247Y-80855276D01*
X76485276Y-80784247D01*
X76535501Y-80697254D01*
X76545544Y-80659775D01*
X76748500Y-80659775D01*
X76748500Y-80760225D01*
X76754937Y-80784247D01*
X76773291Y-80852748D01*
X76774499Y-80857254D01*
X76824724Y-80944247D01*
X76895753Y-81015276D01*
X76982746Y-81065501D01*
X77079775Y-81091500D01*
X77079777Y-81091500D01*
X77180223Y-81091500D01*
X77180225Y-81091500D01*
X77277254Y-81065501D01*
X77364247Y-81015276D01*
X77435276Y-80944247D01*
X77485501Y-80857254D01*
X77511500Y-80760225D01*
X77511500Y-80659775D01*
X77485501Y-80562746D01*
X77476443Y-80547058D01*
X77472048Y-80513673D01*
X77492548Y-80486955D01*
X77503154Y-80482562D01*
X77551037Y-80469732D01*
X77638030Y-80419507D01*
X77709059Y-80348478D01*
X77736011Y-80301794D01*
X77762725Y-80281296D01*
X77796110Y-80285689D01*
X77847746Y-80315501D01*
X77944775Y-80341500D01*
X77944777Y-80341500D01*
X78045223Y-80341500D01*
X78045225Y-80341500D01*
X78142254Y-80315501D01*
X78229247Y-80265276D01*
X78300276Y-80194247D01*
X78350501Y-80107254D01*
X78376500Y-80010225D01*
X78376500Y-79909775D01*
X78350501Y-79812746D01*
X78300276Y-79725753D01*
X78229247Y-79654724D01*
X78200249Y-79637982D01*
X78142258Y-79604501D01*
X78142255Y-79604500D01*
X78142254Y-79604499D01*
X78142252Y-79604498D01*
X78142251Y-79604498D01*
X78116253Y-79597532D01*
X78045225Y-79578500D01*
X77944775Y-79578500D01*
X77892779Y-79592432D01*
X77847748Y-79604498D01*
X77847741Y-79604501D01*
X77760754Y-79654723D01*
X77760749Y-79654727D01*
X77689727Y-79725748D01*
X77689725Y-79725751D01*
X77662772Y-79772434D01*
X77636054Y-79792934D01*
X77602667Y-79788538D01*
X77551041Y-79758732D01*
X77551038Y-79758731D01*
X77551037Y-79758730D01*
X77551035Y-79758729D01*
X77551034Y-79758729D01*
X77525036Y-79751763D01*
X77454008Y-79732731D01*
X77353558Y-79732731D01*
X77301562Y-79746663D01*
X77256531Y-79758729D01*
X77256524Y-79758732D01*
X77169537Y-79808954D01*
X77098506Y-79879985D01*
X77048284Y-79966972D01*
X77048282Y-79966977D01*
X77022283Y-80064006D01*
X77022283Y-80164456D01*
X77022355Y-80164723D01*
X77048281Y-80261482D01*
X77048284Y-80261489D01*
X77057338Y-80277170D01*
X77061734Y-80310558D01*
X77041233Y-80337275D01*
X77030621Y-80341670D01*
X77010237Y-80347132D01*
X76982749Y-80354498D01*
X76982741Y-80354501D01*
X76895754Y-80404723D01*
X76824723Y-80475754D01*
X76774501Y-80562741D01*
X76774498Y-80562748D01*
X76759892Y-80617258D01*
X76748500Y-80659775D01*
X76545544Y-80659775D01*
X76561500Y-80600225D01*
X76561500Y-80499775D01*
X76535501Y-80402746D01*
X76485276Y-80315753D01*
X76414247Y-80244724D01*
X76385249Y-80227982D01*
X76327258Y-80194501D01*
X76327255Y-80194500D01*
X76327254Y-80194499D01*
X76327252Y-80194498D01*
X76327251Y-80194498D01*
X76301253Y-80187532D01*
X76230225Y-80168500D01*
X76129775Y-80168500D01*
X76077779Y-80182432D01*
X76032748Y-80194498D01*
X76032741Y-80194501D01*
X75945754Y-80244723D01*
X75945749Y-80244727D01*
X75906863Y-80283613D01*
X75875750Y-80296500D01*
X75844638Y-80283612D01*
X75837646Y-80274500D01*
X75830982Y-80262957D01*
X75815276Y-80235753D01*
X75744247Y-80164724D01*
X75715249Y-80147982D01*
X75657258Y-80114501D01*
X75657256Y-80114500D01*
X75657254Y-80114499D01*
X75657251Y-80114498D01*
X75654589Y-80113396D01*
X75654918Y-80112600D01*
X75630752Y-80094047D01*
X75626365Y-80060658D01*
X75646873Y-80033946D01*
X75657465Y-80029559D01*
X75747254Y-80005501D01*
X75834247Y-79955276D01*
X75905276Y-79884247D01*
X75955501Y-79797254D01*
X75981500Y-79700225D01*
X75981500Y-79599775D01*
X75955501Y-79502746D01*
X75905276Y-79415753D01*
X75834247Y-79344724D01*
X75783562Y-79315461D01*
X75747258Y-79294501D01*
X75747255Y-79294500D01*
X75747254Y-79294499D01*
X75747252Y-79294498D01*
X75747251Y-79294498D01*
X75721253Y-79287532D01*
X75650225Y-79268500D01*
X75549775Y-79268500D01*
X75497779Y-79282432D01*
X75452748Y-79294498D01*
X75452741Y-79294501D01*
X75365754Y-79344723D01*
X75294723Y-79415754D01*
X75244501Y-79502741D01*
X75244499Y-79502746D01*
X75218500Y-79599775D01*
X75218500Y-79700225D01*
X75234177Y-79758732D01*
X75244498Y-79797251D01*
X75244501Y-79797258D01*
X75252593Y-79811273D01*
X75294724Y-79884247D01*
X75365753Y-79955276D01*
X75452746Y-80005501D01*
X75452752Y-80005502D01*
X75455411Y-80006604D01*
X75455080Y-80007402D01*
X75479241Y-80025942D01*
X75483637Y-80059330D01*
X75463136Y-80086047D01*
X75452524Y-80090443D01*
X75362748Y-80114498D01*
X75362741Y-80114501D01*
X75275754Y-80164723D01*
X75204723Y-80235754D01*
X75154501Y-80322741D01*
X75154499Y-80322746D01*
X75128500Y-80419775D01*
X40381500Y-80419775D01*
X40381500Y-78577151D01*
X58260200Y-78577151D01*
X58260200Y-78724849D01*
X58289014Y-78869709D01*
X58345538Y-79006168D01*
X58427041Y-79128146D01*
X58427592Y-79128970D01*
X58532030Y-79233408D01*
X58584549Y-79268500D01*
X58654831Y-79315461D01*
X58654832Y-79315461D01*
X58654836Y-79315464D01*
X58791291Y-79371986D01*
X58936151Y-79400800D01*
X58936154Y-79400800D01*
X59083845Y-79400800D01*
X59083849Y-79400800D01*
X59228709Y-79371986D01*
X59365164Y-79315464D01*
X59487970Y-79233408D01*
X59592408Y-79128970D01*
X59674464Y-79006164D01*
X59730986Y-78869709D01*
X59759800Y-78724849D01*
X59759800Y-78577151D01*
X59730986Y-78432291D01*
X59674464Y-78295836D01*
X59592408Y-78173030D01*
X59487970Y-78068592D01*
X59460157Y-78050008D01*
X59365168Y-77986538D01*
X59365165Y-77986536D01*
X59365164Y-77986536D01*
X59228709Y-77930014D01*
X59083849Y-77901200D01*
X58936151Y-77901200D01*
X58827506Y-77922810D01*
X58791290Y-77930014D01*
X58654831Y-77986538D01*
X58532032Y-78068590D01*
X58427590Y-78173032D01*
X58345538Y-78295831D01*
X58308686Y-78384800D01*
X58289014Y-78432291D01*
X58260200Y-78577151D01*
X40381500Y-78577151D01*
X40381500Y-77433707D01*
X46275500Y-77433707D01*
X46275500Y-77586293D01*
X46308338Y-77708845D01*
X46314992Y-77733678D01*
X46314994Y-77733682D01*
X46391282Y-77865817D01*
X46391283Y-77865818D01*
X46391285Y-77865821D01*
X46499179Y-77973715D01*
X46499181Y-77973716D01*
X46499182Y-77973717D01*
X46521389Y-77986538D01*
X46631322Y-78050008D01*
X46778707Y-78089500D01*
X46778709Y-78089500D01*
X46931291Y-78089500D01*
X46931293Y-78089500D01*
X47078678Y-78050008D01*
X47210821Y-77973715D01*
X47318715Y-77865821D01*
X47395008Y-77733678D01*
X47434500Y-77586293D01*
X47434500Y-77561151D01*
X63340200Y-77561151D01*
X63340200Y-77708849D01*
X63369014Y-77853709D01*
X63424033Y-77986536D01*
X63425538Y-77990168D01*
X63491910Y-78089500D01*
X63507592Y-78112970D01*
X63612030Y-78217408D01*
X63673021Y-78258160D01*
X63734831Y-78299461D01*
X63734832Y-78299461D01*
X63734836Y-78299464D01*
X63871291Y-78355986D01*
X64016151Y-78384800D01*
X64016154Y-78384800D01*
X64163845Y-78384800D01*
X64163849Y-78384800D01*
X64308709Y-78355986D01*
X64445164Y-78299464D01*
X64567970Y-78217408D01*
X64672408Y-78112970D01*
X64754464Y-77990164D01*
X64810986Y-77853709D01*
X64839800Y-77708849D01*
X64839800Y-77561151D01*
X64810986Y-77416291D01*
X64754464Y-77279836D01*
X64672408Y-77157030D01*
X64567970Y-77052592D01*
X64558526Y-77046282D01*
X64445168Y-76970538D01*
X64445165Y-76970536D01*
X64445164Y-76970536D01*
X64308709Y-76914014D01*
X64163849Y-76885200D01*
X64016151Y-76885200D01*
X63907506Y-76906810D01*
X63871290Y-76914014D01*
X63734831Y-76970538D01*
X63612032Y-77052590D01*
X63507590Y-77157032D01*
X63425538Y-77279831D01*
X63369014Y-77416290D01*
X63361810Y-77452506D01*
X63340200Y-77561151D01*
X47434500Y-77561151D01*
X47434500Y-77433707D01*
X47395008Y-77286322D01*
X47318715Y-77154179D01*
X47210821Y-77046285D01*
X47210818Y-77046283D01*
X47210817Y-77046282D01*
X47078682Y-76969994D01*
X47078678Y-76969992D01*
X46931293Y-76930500D01*
X46778707Y-76930500D01*
X46680450Y-76956828D01*
X46631321Y-76969992D01*
X46631317Y-76969994D01*
X46499182Y-77046282D01*
X46391282Y-77154182D01*
X46314994Y-77286317D01*
X46314992Y-77286321D01*
X46314992Y-77286322D01*
X46275500Y-77433707D01*
X40381500Y-77433707D01*
X40381500Y-76545151D01*
X58260200Y-76545151D01*
X58260200Y-76692849D01*
X58289014Y-76837709D01*
X58344033Y-76970536D01*
X58345538Y-76974168D01*
X58427041Y-77096146D01*
X58427592Y-77096970D01*
X58532030Y-77201408D01*
X58593021Y-77242160D01*
X58654831Y-77283461D01*
X58654832Y-77283461D01*
X58654836Y-77283464D01*
X58791291Y-77339986D01*
X58936151Y-77368800D01*
X58936154Y-77368800D01*
X59083845Y-77368800D01*
X59083849Y-77368800D01*
X59228709Y-77339986D01*
X59365164Y-77283464D01*
X59487970Y-77201408D01*
X59592408Y-77096970D01*
X59674464Y-76974164D01*
X59730986Y-76837709D01*
X59759800Y-76692849D01*
X59759800Y-76545151D01*
X59730986Y-76400291D01*
X59674464Y-76263836D01*
X59665069Y-76249775D01*
X62838500Y-76249775D01*
X62838500Y-76350225D01*
X62843739Y-76369776D01*
X62861820Y-76437258D01*
X62864499Y-76447254D01*
X62914724Y-76534247D01*
X62985753Y-76605276D01*
X63072746Y-76655501D01*
X63169775Y-76681500D01*
X63169777Y-76681500D01*
X63270223Y-76681500D01*
X63270225Y-76681500D01*
X63367254Y-76655501D01*
X63454247Y-76605276D01*
X63525276Y-76534247D01*
X63575501Y-76447254D01*
X63601500Y-76350225D01*
X63601500Y-76249775D01*
X63575501Y-76152746D01*
X63525276Y-76065753D01*
X63454247Y-75994724D01*
X63414571Y-75971817D01*
X63367258Y-75944501D01*
X63367255Y-75944500D01*
X63367254Y-75944499D01*
X63367252Y-75944498D01*
X63367251Y-75944498D01*
X63353414Y-75940790D01*
X63270225Y-75918500D01*
X63169775Y-75918500D01*
X63129126Y-75929392D01*
X63072748Y-75944498D01*
X63072741Y-75944501D01*
X62985754Y-75994723D01*
X62914723Y-76065754D01*
X62864501Y-76152741D01*
X62864498Y-76152748D01*
X62855686Y-76185635D01*
X62838500Y-76249775D01*
X59665069Y-76249775D01*
X59592408Y-76141030D01*
X59487970Y-76036592D01*
X59425310Y-75994724D01*
X59365168Y-75954538D01*
X59365165Y-75954536D01*
X59365164Y-75954536D01*
X59228709Y-75898014D01*
X59187288Y-75889775D01*
X66398500Y-75889775D01*
X66398500Y-75990225D01*
X66414094Y-76048421D01*
X66424498Y-76087251D01*
X66424501Y-76087258D01*
X66428682Y-76094499D01*
X66474724Y-76174247D01*
X66545753Y-76245276D01*
X66632746Y-76295501D01*
X66729775Y-76321500D01*
X66729777Y-76321500D01*
X66830223Y-76321500D01*
X66830225Y-76321500D01*
X66927254Y-76295501D01*
X67014247Y-76245276D01*
X67073888Y-76185634D01*
X67105000Y-76172748D01*
X67136111Y-76185634D01*
X67195753Y-76245276D01*
X67282746Y-76295501D01*
X67379775Y-76321500D01*
X67379777Y-76321500D01*
X67480223Y-76321500D01*
X67480225Y-76321500D01*
X67577254Y-76295501D01*
X67664247Y-76245276D01*
X67735276Y-76174247D01*
X67785501Y-76087254D01*
X67811500Y-75990225D01*
X67811500Y-75948829D01*
X67824387Y-75917716D01*
X67855500Y-75904829D01*
X67886613Y-75917716D01*
X67893601Y-75926824D01*
X67919579Y-75971819D01*
X67990608Y-76042848D01*
X68025408Y-76062940D01*
X68045909Y-76089656D01*
X68041513Y-76123044D01*
X68025409Y-76139148D01*
X68015756Y-76144721D01*
X68015748Y-76144727D01*
X67944727Y-76215749D01*
X67944723Y-76215754D01*
X67894501Y-76302741D01*
X67894499Y-76302746D01*
X67868500Y-76399775D01*
X67868500Y-76500225D01*
X67894499Y-76597254D01*
X67944724Y-76684247D01*
X68015753Y-76755276D01*
X68102746Y-76805501D01*
X68199775Y-76831500D01*
X68199777Y-76831500D01*
X68300223Y-76831500D01*
X68300225Y-76831500D01*
X68397254Y-76805501D01*
X68484247Y-76755276D01*
X68555276Y-76684247D01*
X68605501Y-76597254D01*
X68631500Y-76500225D01*
X68631500Y-76399775D01*
X68605501Y-76302746D01*
X68569145Y-76239775D01*
X68928500Y-76239775D01*
X68928500Y-76340225D01*
X68944595Y-76400291D01*
X68954498Y-76437251D01*
X68954501Y-76437258D01*
X68960272Y-76447254D01*
X69004724Y-76524247D01*
X69075753Y-76595276D01*
X69162746Y-76645501D01*
X69259775Y-76671500D01*
X69259777Y-76671500D01*
X69360223Y-76671500D01*
X69360225Y-76671500D01*
X69457254Y-76645501D01*
X69544247Y-76595276D01*
X69615276Y-76524247D01*
X69665501Y-76437254D01*
X69683582Y-76369775D01*
X73738500Y-76369775D01*
X73738500Y-76470225D01*
X73746538Y-76500223D01*
X73764498Y-76567251D01*
X73764501Y-76567258D01*
X73781819Y-76597254D01*
X73814724Y-76654247D01*
X73885753Y-76725276D01*
X73972746Y-76775501D01*
X74069775Y-76801500D01*
X74069777Y-76801500D01*
X74170223Y-76801500D01*
X74170225Y-76801500D01*
X74267254Y-76775501D01*
X74354247Y-76725276D01*
X74425276Y-76654247D01*
X74475501Y-76567254D01*
X74501500Y-76470225D01*
X74501500Y-76369775D01*
X74475501Y-76272746D01*
X74425276Y-76185753D01*
X74354247Y-76114724D01*
X74269428Y-76065754D01*
X74267258Y-76064501D01*
X74267255Y-76064500D01*
X74267254Y-76064499D01*
X74267252Y-76064498D01*
X74267251Y-76064498D01*
X74234617Y-76055754D01*
X74170225Y-76038500D01*
X74069775Y-76038500D01*
X74032750Y-76048421D01*
X73972748Y-76064498D01*
X73972741Y-76064501D01*
X73885754Y-76114723D01*
X73814723Y-76185754D01*
X73764501Y-76272741D01*
X73764498Y-76272748D01*
X73756462Y-76302741D01*
X73738500Y-76369775D01*
X69683582Y-76369775D01*
X69691500Y-76340225D01*
X69691500Y-76239775D01*
X69665501Y-76142746D01*
X69615276Y-76055753D01*
X69544247Y-75984724D01*
X69491963Y-75954538D01*
X69457258Y-75934501D01*
X69457255Y-75934500D01*
X69457254Y-75934499D01*
X69457252Y-75934498D01*
X69457251Y-75934498D01*
X69428629Y-75926829D01*
X69360225Y-75908500D01*
X69259775Y-75908500D01*
X69225381Y-75917716D01*
X69162748Y-75934498D01*
X69162741Y-75934501D01*
X69075754Y-75984723D01*
X69004723Y-76055754D01*
X68954501Y-76142741D01*
X68954498Y-76142748D01*
X68951819Y-76152746D01*
X68928500Y-76239775D01*
X68569145Y-76239775D01*
X68555276Y-76215753D01*
X68484247Y-76144724D01*
X68449445Y-76124631D01*
X68428945Y-76097915D01*
X68433341Y-76064527D01*
X68449444Y-76048423D01*
X68459102Y-76042848D01*
X68530131Y-75971819D01*
X68580356Y-75884826D01*
X68606355Y-75787797D01*
X68606355Y-75687347D01*
X68580356Y-75590318D01*
X68530131Y-75503325D01*
X68459102Y-75432296D01*
X68430104Y-75415554D01*
X68372113Y-75382073D01*
X68372110Y-75382072D01*
X68372109Y-75382071D01*
X68372107Y-75382070D01*
X68372106Y-75382070D01*
X68346108Y-75375104D01*
X68275080Y-75356072D01*
X68174630Y-75356072D01*
X68122634Y-75370004D01*
X68077603Y-75382070D01*
X68077596Y-75382073D01*
X67990609Y-75432295D01*
X67919578Y-75503326D01*
X67869356Y-75590313D01*
X67869353Y-75590320D01*
X67843355Y-75687348D01*
X67843355Y-75728742D01*
X67830468Y-75759855D01*
X67799355Y-75772742D01*
X67768242Y-75759855D01*
X67761250Y-75750742D01*
X67755000Y-75739916D01*
X67735276Y-75705753D01*
X67664247Y-75634724D01*
X67635249Y-75617982D01*
X67577258Y-75584501D01*
X67577255Y-75584500D01*
X67577254Y-75584499D01*
X67577252Y-75584498D01*
X67577251Y-75584498D01*
X67551253Y-75577532D01*
X67480225Y-75558500D01*
X67379775Y-75558500D01*
X67327779Y-75572432D01*
X67282748Y-75584498D01*
X67282741Y-75584501D01*
X67195754Y-75634723D01*
X67195753Y-75634723D01*
X67195753Y-75634724D01*
X67136111Y-75694365D01*
X67105000Y-75707252D01*
X67073888Y-75694365D01*
X67014247Y-75634724D01*
X66985249Y-75617982D01*
X66927258Y-75584501D01*
X66927255Y-75584500D01*
X66927254Y-75584499D01*
X66927252Y-75584498D01*
X66927251Y-75584498D01*
X66901253Y-75577532D01*
X66830225Y-75558500D01*
X66729775Y-75558500D01*
X66677779Y-75572432D01*
X66632748Y-75584498D01*
X66632741Y-75584501D01*
X66545754Y-75634723D01*
X66474723Y-75705754D01*
X66424501Y-75792741D01*
X66424499Y-75792746D01*
X66398500Y-75889775D01*
X59187288Y-75889775D01*
X59083849Y-75869200D01*
X58936151Y-75869200D01*
X58832712Y-75889775D01*
X58791290Y-75898014D01*
X58654831Y-75954538D01*
X58532032Y-76036590D01*
X58427590Y-76141032D01*
X58345538Y-76263831D01*
X58289228Y-76399775D01*
X58289014Y-76400291D01*
X58260200Y-76545151D01*
X40381500Y-76545151D01*
X40381500Y-73425514D01*
X74335972Y-73425514D01*
X74335972Y-73525964D01*
X74361971Y-73622993D01*
X74412196Y-73709986D01*
X74483225Y-73781015D01*
X74570218Y-73831240D01*
X74667247Y-73857239D01*
X74667249Y-73857239D01*
X74767695Y-73857239D01*
X74767697Y-73857239D01*
X74864726Y-73831240D01*
X74951719Y-73781015D01*
X75022748Y-73709986D01*
X75072973Y-73622993D01*
X75098972Y-73525964D01*
X75098972Y-73425514D01*
X75072973Y-73328485D01*
X75022748Y-73241492D01*
X74951719Y-73170463D01*
X74922721Y-73153721D01*
X74864730Y-73120240D01*
X74864727Y-73120239D01*
X74864726Y-73120238D01*
X74864724Y-73120237D01*
X74864723Y-73120237D01*
X74838725Y-73113271D01*
X74767697Y-73094239D01*
X74667247Y-73094239D01*
X74615251Y-73108171D01*
X74570220Y-73120237D01*
X74570213Y-73120240D01*
X74483226Y-73170462D01*
X74412195Y-73241493D01*
X74361973Y-73328480D01*
X74361971Y-73328485D01*
X74335972Y-73425514D01*
X40381500Y-73425514D01*
X40381500Y-71959775D01*
X70398500Y-71959775D01*
X70398500Y-72060225D01*
X70424499Y-72157254D01*
X70474724Y-72244247D01*
X70545753Y-72315276D01*
X70632746Y-72365501D01*
X70729775Y-72391500D01*
X70729777Y-72391500D01*
X70830223Y-72391500D01*
X70830225Y-72391500D01*
X70927254Y-72365501D01*
X71014247Y-72315276D01*
X71085276Y-72244247D01*
X71135501Y-72157254D01*
X71161500Y-72060225D01*
X71161500Y-71959775D01*
X71135501Y-71862746D01*
X71085276Y-71775753D01*
X71014247Y-71704724D01*
X70963241Y-71675276D01*
X70927258Y-71654501D01*
X70927255Y-71654500D01*
X70927254Y-71654499D01*
X70927252Y-71654498D01*
X70927251Y-71654498D01*
X70901253Y-71647532D01*
X70830225Y-71628500D01*
X70729775Y-71628500D01*
X70677779Y-71642432D01*
X70632748Y-71654498D01*
X70632741Y-71654501D01*
X70545754Y-71704723D01*
X70474723Y-71775754D01*
X70424501Y-71862741D01*
X70424498Y-71862748D01*
X70413043Y-71905501D01*
X70398500Y-71959775D01*
X40381500Y-71959775D01*
X40381500Y-70569775D01*
X59288500Y-70569775D01*
X59288500Y-70670225D01*
X59293859Y-70690225D01*
X59314498Y-70767251D01*
X59314501Y-70767258D01*
X59339858Y-70811178D01*
X59364724Y-70854247D01*
X59435753Y-70925276D01*
X59522746Y-70975501D01*
X59619775Y-71001500D01*
X59619777Y-71001500D01*
X59720223Y-71001500D01*
X59720225Y-71001500D01*
X59817254Y-70975501D01*
X59904247Y-70925276D01*
X59917815Y-70911707D01*
X59948925Y-70898821D01*
X59980038Y-70911707D01*
X59992926Y-70942820D01*
X59991427Y-70954209D01*
X59968500Y-71039775D01*
X59968500Y-71140225D01*
X59983043Y-71194499D01*
X59994498Y-71237251D01*
X59994501Y-71237258D01*
X60027982Y-71295249D01*
X60044724Y-71324247D01*
X60115753Y-71395276D01*
X60202746Y-71445501D01*
X60299775Y-71471500D01*
X60299777Y-71471500D01*
X60400223Y-71471500D01*
X60400225Y-71471500D01*
X60490228Y-71447383D01*
X60523613Y-71451779D01*
X60544113Y-71478495D01*
X60554499Y-71517254D01*
X60604724Y-71604247D01*
X60675753Y-71675276D01*
X60762746Y-71725501D01*
X60859775Y-71751500D01*
X60859777Y-71751500D01*
X60960223Y-71751500D01*
X60960225Y-71751500D01*
X61057254Y-71725501D01*
X61144247Y-71675276D01*
X61215276Y-71604247D01*
X61265501Y-71517254D01*
X61270185Y-71499775D01*
X66718500Y-71499775D01*
X66718500Y-71600225D01*
X66733043Y-71654499D01*
X66744498Y-71697251D01*
X66744501Y-71697258D01*
X66760807Y-71725501D01*
X66794724Y-71784247D01*
X66865753Y-71855276D01*
X66952746Y-71905501D01*
X67049775Y-71931500D01*
X67049777Y-71931500D01*
X67150223Y-71931500D01*
X67150225Y-71931500D01*
X67247254Y-71905501D01*
X67334247Y-71855276D01*
X67405276Y-71784247D01*
X67455501Y-71697254D01*
X67481500Y-71600225D01*
X67481500Y-71499775D01*
X67455501Y-71402746D01*
X67405276Y-71315753D01*
X67334247Y-71244724D01*
X67296171Y-71222741D01*
X67247258Y-71194501D01*
X67247255Y-71194500D01*
X67247254Y-71194499D01*
X67247252Y-71194498D01*
X67247251Y-71194498D01*
X67221253Y-71187532D01*
X67150225Y-71168500D01*
X67049775Y-71168500D01*
X66997779Y-71182432D01*
X66952748Y-71194498D01*
X66952741Y-71194501D01*
X66865754Y-71244723D01*
X66794723Y-71315754D01*
X66744501Y-71402741D01*
X66744498Y-71402748D01*
X66728016Y-71464260D01*
X66718500Y-71499775D01*
X61270185Y-71499775D01*
X61291500Y-71420225D01*
X61291500Y-71319775D01*
X61265501Y-71222746D01*
X61215276Y-71135753D01*
X61144247Y-71064724D01*
X61115249Y-71047982D01*
X61057258Y-71014501D01*
X61057255Y-71014500D01*
X61057254Y-71014499D01*
X61057252Y-71014498D01*
X61057251Y-71014498D01*
X61008741Y-71001500D01*
X60960225Y-70988500D01*
X60859775Y-70988500D01*
X60769773Y-71012615D01*
X60736386Y-71008220D01*
X60715885Y-70981504D01*
X60705501Y-70942746D01*
X60655276Y-70855753D01*
X60584247Y-70784724D01*
X60553854Y-70767177D01*
X60497258Y-70734501D01*
X60497255Y-70734500D01*
X60497254Y-70734499D01*
X60497252Y-70734498D01*
X60497251Y-70734498D01*
X60471253Y-70727532D01*
X60400225Y-70708500D01*
X60299775Y-70708500D01*
X60247779Y-70722432D01*
X60202748Y-70734498D01*
X60202741Y-70734501D01*
X60115754Y-70784723D01*
X60102185Y-70798292D01*
X60071072Y-70811178D01*
X60039959Y-70798290D01*
X60027073Y-70767177D01*
X60028571Y-70755795D01*
X60051500Y-70670225D01*
X60051500Y-70589775D01*
X67488500Y-70589775D01*
X67488500Y-70690225D01*
X67493397Y-70708500D01*
X67514498Y-70787251D01*
X67514501Y-70787258D01*
X67528311Y-70811178D01*
X67564724Y-70874247D01*
X67635753Y-70945276D01*
X67722746Y-70995501D01*
X67819775Y-71021500D01*
X67819777Y-71021500D01*
X67920223Y-71021500D01*
X67920225Y-71021500D01*
X68017254Y-70995501D01*
X68104247Y-70945276D01*
X68175276Y-70874247D01*
X68225501Y-70787254D01*
X68251500Y-70690225D01*
X68251500Y-70589775D01*
X68225501Y-70492746D01*
X68175276Y-70405753D01*
X68104247Y-70334724D01*
X68069604Y-70314723D01*
X68017258Y-70284501D01*
X68017255Y-70284500D01*
X68017254Y-70284499D01*
X68017252Y-70284498D01*
X68017251Y-70284498D01*
X67991253Y-70277532D01*
X67920225Y-70258500D01*
X67819775Y-70258500D01*
X67767779Y-70272432D01*
X67722748Y-70284498D01*
X67722741Y-70284501D01*
X67635754Y-70334723D01*
X67564723Y-70405754D01*
X67514501Y-70492741D01*
X67514499Y-70492746D01*
X67488500Y-70589775D01*
X60051500Y-70589775D01*
X60051500Y-70569775D01*
X60025501Y-70472746D01*
X59975276Y-70385753D01*
X59904247Y-70314724D01*
X59851899Y-70284501D01*
X59817258Y-70264501D01*
X59817255Y-70264500D01*
X59817254Y-70264499D01*
X59817252Y-70264498D01*
X59817251Y-70264498D01*
X59791253Y-70257532D01*
X59720225Y-70238500D01*
X59619775Y-70238500D01*
X59567779Y-70252432D01*
X59522748Y-70264498D01*
X59522741Y-70264501D01*
X59435754Y-70314723D01*
X59364723Y-70385754D01*
X59314501Y-70472741D01*
X59314499Y-70472746D01*
X59288500Y-70569775D01*
X40381500Y-70569775D01*
X40381500Y-68739775D01*
X57968500Y-68739775D01*
X57968500Y-68840225D01*
X57994499Y-68937254D01*
X58044724Y-69024247D01*
X58115753Y-69095276D01*
X58202746Y-69145501D01*
X58299775Y-69171500D01*
X58299777Y-69171500D01*
X58400222Y-69171500D01*
X58400225Y-69171500D01*
X58437199Y-69161592D01*
X58470584Y-69165987D01*
X58491086Y-69192704D01*
X58491086Y-69215481D01*
X58490689Y-69216964D01*
X58468500Y-69299775D01*
X58468500Y-69400225D01*
X58475065Y-69424724D01*
X58489935Y-69480223D01*
X58494499Y-69497254D01*
X58544724Y-69584247D01*
X58615753Y-69655276D01*
X58702746Y-69705501D01*
X58799775Y-69731500D01*
X58799777Y-69731500D01*
X58900223Y-69731500D01*
X58900225Y-69731500D01*
X58973114Y-69711969D01*
X59006500Y-69716365D01*
X59027001Y-69743082D01*
X59028500Y-69754470D01*
X59028500Y-69780225D01*
X59054499Y-69877254D01*
X59104724Y-69964247D01*
X59175753Y-70035276D01*
X59262746Y-70085501D01*
X59359775Y-70111500D01*
X59359777Y-70111500D01*
X59460223Y-70111500D01*
X59460225Y-70111500D01*
X59557254Y-70085501D01*
X59644247Y-70035276D01*
X59715276Y-69964247D01*
X59765501Y-69877254D01*
X59789358Y-69788216D01*
X59809858Y-69761502D01*
X59843246Y-69757106D01*
X59853856Y-69761501D01*
X59912746Y-69795501D01*
X60009775Y-69821500D01*
X60009777Y-69821500D01*
X60110223Y-69821500D01*
X60110225Y-69821500D01*
X60207254Y-69795501D01*
X60294247Y-69745276D01*
X60365276Y-69674247D01*
X60365679Y-69673548D01*
X60366000Y-69673301D01*
X60367030Y-69671960D01*
X60367389Y-69672235D01*
X60392385Y-69653040D01*
X60425775Y-69657424D01*
X60434897Y-69664420D01*
X60505753Y-69735276D01*
X60592746Y-69785501D01*
X60689775Y-69811500D01*
X60689777Y-69811500D01*
X60790223Y-69811500D01*
X60790225Y-69811500D01*
X60887254Y-69785501D01*
X60974247Y-69735276D01*
X61045276Y-69664247D01*
X61095501Y-69577254D01*
X61121500Y-69480225D01*
X61121500Y-69379775D01*
X61095501Y-69282746D01*
X61045276Y-69195753D01*
X60974247Y-69124724D01*
X60904573Y-69084498D01*
X60887258Y-69074501D01*
X60887255Y-69074500D01*
X60887254Y-69074499D01*
X60887252Y-69074498D01*
X60887251Y-69074498D01*
X60861253Y-69067532D01*
X60790225Y-69048500D01*
X60689775Y-69048500D01*
X60652455Y-69058500D01*
X60592748Y-69074498D01*
X60592741Y-69074501D01*
X60505754Y-69124723D01*
X60434722Y-69195755D01*
X60434719Y-69195759D01*
X60434309Y-69196470D01*
X60433981Y-69196721D01*
X60432967Y-69198043D01*
X60432612Y-69197771D01*
X60407587Y-69216964D01*
X60374200Y-69212561D01*
X60365100Y-69205577D01*
X60294247Y-69134724D01*
X60261388Y-69115753D01*
X60207258Y-69084501D01*
X60207255Y-69084500D01*
X60207254Y-69084499D01*
X60207252Y-69084498D01*
X60207251Y-69084498D01*
X60169941Y-69074501D01*
X60110225Y-69058500D01*
X60009775Y-69058500D01*
X59957779Y-69072432D01*
X59912748Y-69084498D01*
X59912741Y-69084501D01*
X59825754Y-69134723D01*
X59754723Y-69205754D01*
X59704501Y-69292741D01*
X59704498Y-69292749D01*
X59680642Y-69381780D01*
X59660141Y-69408497D01*
X59626753Y-69412893D01*
X59616141Y-69408497D01*
X59557258Y-69374501D01*
X59557255Y-69374500D01*
X59557254Y-69374499D01*
X59557252Y-69374498D01*
X59557251Y-69374498D01*
X59531253Y-69367532D01*
X59460225Y-69348500D01*
X59359775Y-69348500D01*
X59286888Y-69368030D01*
X59253500Y-69363634D01*
X59232999Y-69336917D01*
X59231500Y-69325529D01*
X59231500Y-69299776D01*
X59229617Y-69292749D01*
X59205501Y-69202746D01*
X59155276Y-69115753D01*
X59084247Y-69044724D01*
X59055249Y-69027982D01*
X58997258Y-68994501D01*
X58997255Y-68994500D01*
X58997254Y-68994499D01*
X58997252Y-68994498D01*
X58997251Y-68994498D01*
X58971253Y-68987532D01*
X58900225Y-68968500D01*
X58799775Y-68968500D01*
X58786556Y-68972041D01*
X58762800Y-68978407D01*
X58729412Y-68974011D01*
X58708912Y-68947293D01*
X58708912Y-68924524D01*
X58731500Y-68840225D01*
X58731500Y-68739775D01*
X58705501Y-68642746D01*
X58655276Y-68555753D01*
X58584247Y-68484724D01*
X58555249Y-68467982D01*
X58497258Y-68434501D01*
X58497255Y-68434500D01*
X58497254Y-68434499D01*
X58497252Y-68434498D01*
X58497251Y-68434498D01*
X58471253Y-68427532D01*
X58400225Y-68408500D01*
X58299775Y-68408500D01*
X58247779Y-68422432D01*
X58202748Y-68434498D01*
X58202741Y-68434501D01*
X58115754Y-68484723D01*
X58044723Y-68555754D01*
X57994501Y-68642741D01*
X57994499Y-68642746D01*
X57968500Y-68739775D01*
X40381500Y-68739775D01*
X40381500Y-67024775D01*
X54818500Y-67024775D01*
X54818500Y-67125225D01*
X54827573Y-67159086D01*
X54844498Y-67222251D01*
X54844501Y-67222258D01*
X54875145Y-67275335D01*
X54894724Y-67309247D01*
X54965753Y-67380276D01*
X55052746Y-67430501D01*
X55149775Y-67456500D01*
X55149777Y-67456500D01*
X55250223Y-67456500D01*
X55250225Y-67456500D01*
X55347254Y-67430501D01*
X55434247Y-67380276D01*
X55505276Y-67309247D01*
X55506224Y-67307604D01*
X55506982Y-67307022D01*
X55507030Y-67306960D01*
X55507046Y-67306972D01*
X55532934Y-67287099D01*
X55566323Y-67291487D01*
X55575440Y-67298480D01*
X55627741Y-67350781D01*
X55714734Y-67401006D01*
X55811763Y-67427005D01*
X55811765Y-67427005D01*
X55912211Y-67427005D01*
X55912213Y-67427005D01*
X56009242Y-67401006D01*
X56096235Y-67350781D01*
X56167264Y-67279752D01*
X56217489Y-67192759D01*
X56229007Y-67149775D01*
X56332920Y-67149775D01*
X56332920Y-67250225D01*
X56358919Y-67347254D01*
X56409144Y-67434247D01*
X56480173Y-67505276D01*
X56567166Y-67555501D01*
X56664195Y-67581500D01*
X56664197Y-67581500D01*
X56764643Y-67581500D01*
X56764645Y-67581500D01*
X56861674Y-67555501D01*
X56948667Y-67505276D01*
X56948667Y-67505275D01*
X56951164Y-67503834D01*
X56951790Y-67504918D01*
X56980226Y-67497287D01*
X57009397Y-67514114D01*
X57018500Y-67540913D01*
X57018500Y-67550225D01*
X57019913Y-67555498D01*
X57044498Y-67647251D01*
X57044501Y-67647258D01*
X57073366Y-67697254D01*
X57094724Y-67734247D01*
X57165753Y-67805276D01*
X57252746Y-67855501D01*
X57349775Y-67881500D01*
X57349777Y-67881500D01*
X57450223Y-67881500D01*
X57450225Y-67881500D01*
X57547254Y-67855501D01*
X57634247Y-67805276D01*
X57705276Y-67734247D01*
X57755501Y-67647254D01*
X57781500Y-67550225D01*
X57781500Y-67499775D01*
X58518500Y-67499775D01*
X58518500Y-67600225D01*
X58531103Y-67647258D01*
X58544498Y-67697251D01*
X58544501Y-67697258D01*
X58565857Y-67734247D01*
X58594724Y-67784247D01*
X58665753Y-67855276D01*
X58752746Y-67905501D01*
X58849775Y-67931500D01*
X58849777Y-67931500D01*
X58950223Y-67931500D01*
X58950225Y-67931500D01*
X59047254Y-67905501D01*
X59134247Y-67855276D01*
X59205276Y-67784247D01*
X59255501Y-67697254D01*
X59281500Y-67600225D01*
X59281500Y-67499775D01*
X59268102Y-67449775D01*
X71518500Y-67449775D01*
X71518500Y-67550225D01*
X71519913Y-67555498D01*
X71544498Y-67647251D01*
X71544501Y-67647258D01*
X71573366Y-67697254D01*
X71594724Y-67734247D01*
X71665753Y-67805276D01*
X71752746Y-67855501D01*
X71849775Y-67881500D01*
X71849777Y-67881500D01*
X71950223Y-67881500D01*
X71950225Y-67881500D01*
X72047254Y-67855501D01*
X72134247Y-67805276D01*
X72205276Y-67734247D01*
X72255501Y-67647254D01*
X72281500Y-67550225D01*
X72281500Y-67449775D01*
X72255501Y-67352746D01*
X72205276Y-67265753D01*
X72134247Y-67194724D01*
X72072520Y-67159086D01*
X72047258Y-67144501D01*
X72047255Y-67144500D01*
X72047254Y-67144499D01*
X72047252Y-67144498D01*
X72047251Y-67144498D01*
X72021253Y-67137532D01*
X71950225Y-67118500D01*
X71849775Y-67118500D01*
X71797779Y-67132432D01*
X71752748Y-67144498D01*
X71752741Y-67144501D01*
X71665754Y-67194723D01*
X71594723Y-67265754D01*
X71544501Y-67352741D01*
X71544499Y-67352746D01*
X71518500Y-67449775D01*
X59268102Y-67449775D01*
X59255501Y-67402746D01*
X59205276Y-67315753D01*
X59134247Y-67244724D01*
X59105249Y-67227982D01*
X59047258Y-67194501D01*
X59047255Y-67194500D01*
X59047254Y-67194499D01*
X59047252Y-67194498D01*
X59047251Y-67194498D01*
X59021253Y-67187532D01*
X58950225Y-67168500D01*
X58849775Y-67168500D01*
X58797779Y-67182432D01*
X58752748Y-67194498D01*
X58752741Y-67194501D01*
X58665754Y-67244723D01*
X58594723Y-67315754D01*
X58544501Y-67402741D01*
X58544498Y-67402748D01*
X58531897Y-67449776D01*
X58518500Y-67499775D01*
X57781500Y-67499775D01*
X57781500Y-67449775D01*
X57755501Y-67352746D01*
X57705276Y-67265753D01*
X57634247Y-67194724D01*
X57572520Y-67159086D01*
X57547258Y-67144501D01*
X57547255Y-67144500D01*
X57547254Y-67144499D01*
X57547252Y-67144498D01*
X57547251Y-67144498D01*
X57521253Y-67137532D01*
X57450225Y-67118500D01*
X57349775Y-67118500D01*
X57297779Y-67132432D01*
X57252748Y-67144498D01*
X57252741Y-67144501D01*
X57189540Y-67180990D01*
X57165753Y-67194724D01*
X57165752Y-67194724D01*
X57163256Y-67196166D01*
X57162632Y-67195085D01*
X57134174Y-67202709D01*
X57105011Y-67185869D01*
X57095920Y-67159086D01*
X57095920Y-67149776D01*
X57094506Y-67144498D01*
X57069921Y-67052746D01*
X57019696Y-66965753D01*
X56948667Y-66894724D01*
X56906796Y-66870550D01*
X56861678Y-66844501D01*
X56861675Y-66844500D01*
X56861674Y-66844499D01*
X56861672Y-66844498D01*
X56861671Y-66844498D01*
X56835673Y-66837532D01*
X56764645Y-66818500D01*
X56664195Y-66818500D01*
X56612199Y-66832432D01*
X56567168Y-66844498D01*
X56567161Y-66844501D01*
X56480174Y-66894723D01*
X56409143Y-66965754D01*
X56358921Y-67052741D01*
X56358919Y-67052746D01*
X56332920Y-67149775D01*
X56229007Y-67149775D01*
X56243488Y-67095730D01*
X56243488Y-66995280D01*
X56217489Y-66898251D01*
X56167264Y-66811258D01*
X56096235Y-66740229D01*
X56060328Y-66719498D01*
X56009246Y-66690006D01*
X56009243Y-66690005D01*
X56009242Y-66690004D01*
X56009240Y-66690003D01*
X56009239Y-66690003D01*
X55983241Y-66683037D01*
X55912213Y-66664005D01*
X55811763Y-66664005D01*
X55759767Y-66677937D01*
X55714736Y-66690003D01*
X55714729Y-66690006D01*
X55627742Y-66740228D01*
X55627737Y-66740232D01*
X55556715Y-66811253D01*
X55556708Y-66811262D01*
X55555754Y-66812915D01*
X55554992Y-66813498D01*
X55554958Y-66813544D01*
X55554945Y-66813534D01*
X55529032Y-66833409D01*
X55495645Y-66829006D01*
X55486545Y-66822022D01*
X55434247Y-66769724D01*
X55383158Y-66740228D01*
X55347258Y-66719501D01*
X55347255Y-66719500D01*
X55347254Y-66719499D01*
X55347252Y-66719498D01*
X55347251Y-66719498D01*
X55321253Y-66712532D01*
X55250225Y-66693500D01*
X55149775Y-66693500D01*
X55097779Y-66707432D01*
X55052748Y-66719498D01*
X55052741Y-66719501D01*
X54965754Y-66769723D01*
X54894723Y-66840754D01*
X54844501Y-66927741D01*
X54844499Y-66927746D01*
X54818500Y-67024775D01*
X40381500Y-67024775D01*
X40381500Y-65654041D01*
X43607836Y-65654041D01*
X43607836Y-65754491D01*
X43633835Y-65851520D01*
X43684060Y-65938513D01*
X43755089Y-66009542D01*
X43842082Y-66059767D01*
X43939111Y-66085766D01*
X43939113Y-66085766D01*
X44039559Y-66085766D01*
X44039561Y-66085766D01*
X44136590Y-66059767D01*
X44223583Y-66009542D01*
X44294612Y-65938513D01*
X44344837Y-65851520D01*
X44349871Y-65832731D01*
X44370369Y-65806015D01*
X44403757Y-65801618D01*
X44423484Y-65813006D01*
X44424722Y-65814244D01*
X44424724Y-65814247D01*
X44495753Y-65885276D01*
X44582746Y-65935501D01*
X44679775Y-65961500D01*
X44679777Y-65961500D01*
X44780223Y-65961500D01*
X44780225Y-65961500D01*
X44877254Y-65935501D01*
X44964247Y-65885276D01*
X45035276Y-65814247D01*
X45085501Y-65727254D01*
X45111500Y-65630225D01*
X45111500Y-65529775D01*
X45085501Y-65432746D01*
X45035276Y-65345753D01*
X44964247Y-65274724D01*
X44935249Y-65257982D01*
X44877258Y-65224501D01*
X44877255Y-65224500D01*
X44877254Y-65224499D01*
X44877252Y-65224498D01*
X44877251Y-65224498D01*
X44851253Y-65217532D01*
X44780225Y-65198500D01*
X44679775Y-65198500D01*
X44627779Y-65212432D01*
X44582748Y-65224498D01*
X44582741Y-65224501D01*
X44495754Y-65274723D01*
X44424723Y-65345754D01*
X44374501Y-65432741D01*
X44374499Y-65432744D01*
X44374499Y-65432746D01*
X44369464Y-65451536D01*
X44348964Y-65478251D01*
X44315575Y-65482647D01*
X44295851Y-65471259D01*
X44294613Y-65470021D01*
X44294612Y-65470019D01*
X44223583Y-65398990D01*
X44194585Y-65382248D01*
X44136594Y-65348767D01*
X44136591Y-65348766D01*
X44136590Y-65348765D01*
X44136588Y-65348764D01*
X44136587Y-65348764D01*
X44110589Y-65341798D01*
X44039561Y-65322766D01*
X43939111Y-65322766D01*
X43887115Y-65336698D01*
X43842084Y-65348764D01*
X43842077Y-65348767D01*
X43755090Y-65398989D01*
X43684059Y-65470020D01*
X43633837Y-65557007D01*
X43633835Y-65557012D01*
X43607836Y-65654041D01*
X40381500Y-65654041D01*
X40381500Y-64719775D01*
X55838500Y-64719775D01*
X55838500Y-64820225D01*
X55864499Y-64917254D01*
X55914724Y-65004247D01*
X55985753Y-65075276D01*
X56072746Y-65125501D01*
X56169775Y-65151500D01*
X56169777Y-65151500D01*
X56270223Y-65151500D01*
X56270225Y-65151500D01*
X56367254Y-65125501D01*
X56454247Y-65075276D01*
X56525276Y-65004247D01*
X56575501Y-64917254D01*
X56601500Y-64820225D01*
X56601500Y-64719775D01*
X56575501Y-64622746D01*
X56550692Y-64579775D01*
X73758500Y-64579775D01*
X73758500Y-64680225D01*
X73784499Y-64777254D01*
X73834724Y-64864247D01*
X73905753Y-64935276D01*
X73992746Y-64985501D01*
X74089775Y-65011500D01*
X74089777Y-65011500D01*
X74190223Y-65011500D01*
X74190225Y-65011500D01*
X74287254Y-64985501D01*
X74374247Y-64935276D01*
X74445276Y-64864247D01*
X74495501Y-64777254D01*
X74521500Y-64680225D01*
X74521500Y-64579775D01*
X74495501Y-64482746D01*
X74445276Y-64395753D01*
X74374247Y-64324724D01*
X74345249Y-64307982D01*
X74287258Y-64274501D01*
X74287255Y-64274500D01*
X74287254Y-64274499D01*
X74287252Y-64274498D01*
X74287251Y-64274498D01*
X74261253Y-64267532D01*
X74190225Y-64248500D01*
X74089775Y-64248500D01*
X74046017Y-64260225D01*
X73992748Y-64274498D01*
X73992741Y-64274501D01*
X73905754Y-64324723D01*
X73834723Y-64395754D01*
X73784501Y-64482741D01*
X73784498Y-64482748D01*
X73770296Y-64535753D01*
X73758500Y-64579775D01*
X56550692Y-64579775D01*
X56525276Y-64535753D01*
X56454247Y-64464724D01*
X56425249Y-64447982D01*
X56367258Y-64414501D01*
X56367255Y-64414500D01*
X56367254Y-64414499D01*
X56367252Y-64414498D01*
X56367251Y-64414498D01*
X56341253Y-64407532D01*
X56270225Y-64388500D01*
X56169775Y-64388500D01*
X56117779Y-64402432D01*
X56072748Y-64414498D01*
X56072741Y-64414501D01*
X55985754Y-64464723D01*
X55914723Y-64535754D01*
X55864501Y-64622741D01*
X55864499Y-64622746D01*
X55838500Y-64719775D01*
X40381500Y-64719775D01*
X40381500Y-64159775D01*
X53688500Y-64159775D01*
X53688500Y-64260225D01*
X53714499Y-64357254D01*
X53764724Y-64444247D01*
X53835753Y-64515276D01*
X53922746Y-64565501D01*
X54019775Y-64591500D01*
X54019777Y-64591500D01*
X54120223Y-64591500D01*
X54120225Y-64591500D01*
X54217254Y-64565501D01*
X54304247Y-64515276D01*
X54375276Y-64444247D01*
X54425501Y-64357254D01*
X54451500Y-64260225D01*
X54451500Y-64159775D01*
X54425501Y-64062746D01*
X54375276Y-63975753D01*
X54304247Y-63904724D01*
X54275249Y-63887982D01*
X54217258Y-63854501D01*
X54217255Y-63854500D01*
X54217254Y-63854499D01*
X54217252Y-63854498D01*
X54217251Y-63854498D01*
X54191253Y-63847532D01*
X54120225Y-63828500D01*
X54019775Y-63828500D01*
X53967779Y-63842432D01*
X53922748Y-63854498D01*
X53922741Y-63854501D01*
X53835754Y-63904723D01*
X53764723Y-63975754D01*
X53714501Y-64062741D01*
X53714499Y-64062746D01*
X53688500Y-64159775D01*
X40381500Y-64159775D01*
X40381500Y-63599775D01*
X58918500Y-63599775D01*
X58918500Y-63700225D01*
X58944499Y-63797254D01*
X58994724Y-63884247D01*
X59065753Y-63955276D01*
X59152746Y-64005501D01*
X59249775Y-64031500D01*
X59249777Y-64031500D01*
X59350223Y-64031500D01*
X59350225Y-64031500D01*
X59447254Y-64005501D01*
X59534247Y-63955276D01*
X59605276Y-63884247D01*
X59655501Y-63797254D01*
X59681500Y-63700225D01*
X59681500Y-63599775D01*
X59655501Y-63502746D01*
X59605276Y-63415753D01*
X59534247Y-63344724D01*
X59505249Y-63327982D01*
X59447258Y-63294501D01*
X59447255Y-63294500D01*
X59447254Y-63294499D01*
X59447252Y-63294498D01*
X59447251Y-63294498D01*
X59421253Y-63287532D01*
X59350225Y-63268500D01*
X59249775Y-63268500D01*
X59197779Y-63282432D01*
X59152748Y-63294498D01*
X59152741Y-63294501D01*
X59065754Y-63344723D01*
X58994723Y-63415754D01*
X58944501Y-63502741D01*
X58944499Y-63502746D01*
X58918500Y-63599775D01*
X40381500Y-63599775D01*
X40381500Y-62899775D01*
X53918501Y-62899775D01*
X53918501Y-63000225D01*
X53944500Y-63097254D01*
X53994725Y-63184247D01*
X54065754Y-63255276D01*
X54152747Y-63305501D01*
X54249776Y-63331500D01*
X54249778Y-63331500D01*
X54350224Y-63331500D01*
X54350226Y-63331500D01*
X54447255Y-63305501D01*
X54534248Y-63255276D01*
X54605277Y-63184247D01*
X54655502Y-63097254D01*
X54681501Y-63000225D01*
X54681501Y-62899775D01*
X54655502Y-62802746D01*
X54605277Y-62715753D01*
X54534248Y-62644724D01*
X54505250Y-62627982D01*
X54447259Y-62594501D01*
X54447256Y-62594500D01*
X54447255Y-62594499D01*
X54447253Y-62594498D01*
X54447252Y-62594498D01*
X54421254Y-62587532D01*
X54350226Y-62568500D01*
X54249776Y-62568500D01*
X54197780Y-62582432D01*
X54152749Y-62594498D01*
X54152742Y-62594501D01*
X54065755Y-62644723D01*
X53994724Y-62715754D01*
X53944502Y-62802741D01*
X53944500Y-62802746D01*
X53918501Y-62899775D01*
X40381500Y-62899775D01*
X40381500Y-61879775D01*
X76418500Y-61879775D01*
X76418500Y-61980225D01*
X76444499Y-62077254D01*
X76494724Y-62164247D01*
X76565753Y-62235276D01*
X76652746Y-62285501D01*
X76749775Y-62311500D01*
X76749777Y-62311500D01*
X76850223Y-62311500D01*
X76850225Y-62311500D01*
X76947254Y-62285501D01*
X77034247Y-62235276D01*
X77105276Y-62164247D01*
X77155501Y-62077254D01*
X77181500Y-61980225D01*
X77181500Y-61879775D01*
X77155501Y-61782746D01*
X77105276Y-61695753D01*
X77034247Y-61624724D01*
X77005249Y-61607982D01*
X76947258Y-61574501D01*
X76947255Y-61574500D01*
X76947254Y-61574499D01*
X76947252Y-61574498D01*
X76947251Y-61574498D01*
X76921253Y-61567532D01*
X76850225Y-61548500D01*
X76749775Y-61548500D01*
X76697779Y-61562432D01*
X76652748Y-61574498D01*
X76652741Y-61574501D01*
X76565754Y-61624723D01*
X76494723Y-61695754D01*
X76444501Y-61782741D01*
X76444499Y-61782746D01*
X76418500Y-61879775D01*
X40381500Y-61879775D01*
X40381500Y-60903725D01*
X84132500Y-60903725D01*
X84132500Y-61096275D01*
X84170064Y-61285126D01*
X84243752Y-61463024D01*
X84350005Y-61622042D01*
X84350726Y-61623120D01*
X84486880Y-61759274D01*
X84522001Y-61782741D01*
X84646975Y-61866247D01*
X84646976Y-61866247D01*
X84646980Y-61866250D01*
X84824874Y-61939936D01*
X85013725Y-61977500D01*
X85013728Y-61977500D01*
X85206271Y-61977500D01*
X85206275Y-61977500D01*
X85395126Y-61939936D01*
X85573020Y-61866250D01*
X85733120Y-61759274D01*
X85869274Y-61623120D01*
X85976250Y-61463020D01*
X86049936Y-61285126D01*
X86087500Y-61096275D01*
X86087500Y-60903725D01*
X86049936Y-60714874D01*
X85976250Y-60536980D01*
X85869274Y-60376880D01*
X85733120Y-60240726D01*
X85704346Y-60221500D01*
X85630063Y-60171865D01*
X85578546Y-60137442D01*
X86672500Y-60137442D01*
X86672500Y-61862558D01*
X86679898Y-61899748D01*
X86708078Y-61941922D01*
X86750252Y-61970102D01*
X86787442Y-61977500D01*
X86787446Y-61977500D01*
X88512554Y-61977500D01*
X88512558Y-61977500D01*
X88549748Y-61970102D01*
X88591922Y-61941922D01*
X88620102Y-61899748D01*
X88627500Y-61862558D01*
X88627500Y-60137442D01*
X88620102Y-60100252D01*
X88591922Y-60058078D01*
X88549748Y-60029898D01*
X88512558Y-60022500D01*
X86787442Y-60022500D01*
X86750252Y-60029898D01*
X86730873Y-60042847D01*
X86708078Y-60058078D01*
X86679898Y-60100252D01*
X86672500Y-60137442D01*
X85578546Y-60137442D01*
X85573024Y-60133752D01*
X85573021Y-60133750D01*
X85573020Y-60133750D01*
X85395126Y-60060064D01*
X85206275Y-60022500D01*
X85013725Y-60022500D01*
X84887355Y-60047636D01*
X84824873Y-60060064D01*
X84646975Y-60133752D01*
X84486882Y-60240724D01*
X84350724Y-60376882D01*
X84243752Y-60536975D01*
X84243750Y-60536980D01*
X84170064Y-60714874D01*
X84132500Y-60903725D01*
X40381500Y-60903725D01*
X40381500Y-59789775D01*
X42998500Y-59789775D01*
X42998500Y-59890225D01*
X43016462Y-59957258D01*
X43024498Y-59987251D01*
X43024501Y-59987258D01*
X43045857Y-60024247D01*
X43074724Y-60074247D01*
X43145753Y-60145276D01*
X43232746Y-60195501D01*
X43329775Y-60221500D01*
X43329777Y-60221500D01*
X43430223Y-60221500D01*
X43430225Y-60221500D01*
X43527254Y-60195501D01*
X43614247Y-60145276D01*
X43685276Y-60074247D01*
X43700641Y-60047633D01*
X43727355Y-60027135D01*
X43760743Y-60031529D01*
X43773650Y-60042847D01*
X43774722Y-60044244D01*
X43774724Y-60044247D01*
X43845753Y-60115276D01*
X43932746Y-60165501D01*
X44029775Y-60191500D01*
X44029777Y-60191500D01*
X44130223Y-60191500D01*
X44130225Y-60191500D01*
X44227254Y-60165501D01*
X44314247Y-60115276D01*
X44385276Y-60044247D01*
X44435501Y-59957254D01*
X44461500Y-59860225D01*
X44461500Y-59759775D01*
X44456141Y-59739775D01*
X50808500Y-59739775D01*
X50808500Y-59840225D01*
X50813859Y-59860225D01*
X50834498Y-59937251D01*
X50834501Y-59937258D01*
X50863366Y-59987254D01*
X50884724Y-60024247D01*
X50955753Y-60095276D01*
X51042746Y-60145501D01*
X51139775Y-60171500D01*
X51139777Y-60171500D01*
X51240223Y-60171500D01*
X51240225Y-60171500D01*
X51337254Y-60145501D01*
X51424247Y-60095276D01*
X51495276Y-60024247D01*
X51545501Y-59937254D01*
X51571500Y-59840225D01*
X51571500Y-59739775D01*
X51545501Y-59642746D01*
X51495276Y-59555753D01*
X51424247Y-59484724D01*
X51371899Y-59454501D01*
X51337258Y-59434501D01*
X51337255Y-59434500D01*
X51337254Y-59434499D01*
X51337252Y-59434498D01*
X51337251Y-59434498D01*
X51311253Y-59427532D01*
X51240225Y-59408500D01*
X51139775Y-59408500D01*
X51087779Y-59422432D01*
X51042748Y-59434498D01*
X51042741Y-59434501D01*
X50955754Y-59484723D01*
X50884723Y-59555754D01*
X50834501Y-59642741D01*
X50834499Y-59642746D01*
X50808500Y-59739775D01*
X44456141Y-59739775D01*
X44435501Y-59662746D01*
X44385276Y-59575753D01*
X44314247Y-59504724D01*
X44234184Y-59458500D01*
X44227258Y-59454501D01*
X44227255Y-59454500D01*
X44227254Y-59454499D01*
X44227252Y-59454498D01*
X44227251Y-59454498D01*
X44201253Y-59447532D01*
X44130225Y-59428500D01*
X44029775Y-59428500D01*
X43977779Y-59442432D01*
X43932748Y-59454498D01*
X43932741Y-59454501D01*
X43845754Y-59504723D01*
X43774723Y-59575754D01*
X43774723Y-59575755D01*
X43759360Y-59602364D01*
X43732643Y-59622865D01*
X43699255Y-59618469D01*
X43686348Y-59607151D01*
X43685279Y-59605758D01*
X43685276Y-59605753D01*
X43614247Y-59534724D01*
X43562285Y-59504724D01*
X43527258Y-59484501D01*
X43527255Y-59484500D01*
X43527254Y-59484499D01*
X43527252Y-59484498D01*
X43527251Y-59484498D01*
X43501253Y-59477532D01*
X43430225Y-59458500D01*
X43329775Y-59458500D01*
X43277779Y-59472432D01*
X43232748Y-59484498D01*
X43232741Y-59484501D01*
X43145754Y-59534723D01*
X43074723Y-59605754D01*
X43024501Y-59692741D01*
X43024498Y-59692748D01*
X43011897Y-59739776D01*
X42998500Y-59789775D01*
X40381500Y-59789775D01*
X40381500Y-57799775D01*
X77118499Y-57799775D01*
X77118499Y-57900225D01*
X77144498Y-57997254D01*
X77194723Y-58084247D01*
X77265752Y-58155276D01*
X77352745Y-58205501D01*
X77449774Y-58231500D01*
X77449776Y-58231500D01*
X77550222Y-58231500D01*
X77550224Y-58231500D01*
X77647253Y-58205501D01*
X77734246Y-58155276D01*
X77805275Y-58084247D01*
X77855500Y-57997254D01*
X77881499Y-57900225D01*
X77881499Y-57799775D01*
X77855500Y-57702746D01*
X77853785Y-57699775D01*
X80518500Y-57699775D01*
X80518500Y-57800225D01*
X80544499Y-57897254D01*
X80594724Y-57984247D01*
X80665753Y-58055276D01*
X80752746Y-58105501D01*
X80849775Y-58131500D01*
X80849777Y-58131500D01*
X80950223Y-58131500D01*
X80950225Y-58131500D01*
X81047254Y-58105501D01*
X81134247Y-58055276D01*
X81205276Y-57984247D01*
X81255501Y-57897254D01*
X81281500Y-57800225D01*
X81281500Y-57699775D01*
X81255501Y-57602746D01*
X81205276Y-57515753D01*
X81134247Y-57444724D01*
X81105249Y-57427982D01*
X81047258Y-57394501D01*
X81047255Y-57394500D01*
X81047254Y-57394499D01*
X81047252Y-57394498D01*
X81047251Y-57394498D01*
X81021253Y-57387532D01*
X80950225Y-57368500D01*
X80849775Y-57368500D01*
X80797779Y-57382432D01*
X80752748Y-57394498D01*
X80752741Y-57394501D01*
X80665754Y-57444723D01*
X80594723Y-57515754D01*
X80544501Y-57602741D01*
X80544498Y-57602748D01*
X80541013Y-57615754D01*
X80518500Y-57699775D01*
X77853785Y-57699775D01*
X77805275Y-57615753D01*
X77734246Y-57544724D01*
X77684068Y-57515754D01*
X77647257Y-57494501D01*
X77647254Y-57494500D01*
X77647253Y-57494499D01*
X77647251Y-57494498D01*
X77647250Y-57494498D01*
X77621252Y-57487532D01*
X77550224Y-57468500D01*
X77449774Y-57468500D01*
X77397778Y-57482432D01*
X77352747Y-57494498D01*
X77352740Y-57494501D01*
X77265753Y-57544723D01*
X77194722Y-57615754D01*
X77144500Y-57702741D01*
X77144498Y-57702746D01*
X77118499Y-57799775D01*
X40381500Y-57799775D01*
X40381500Y-57249775D01*
X48218500Y-57249775D01*
X48218500Y-57350225D01*
X48244499Y-57447254D01*
X48294724Y-57534247D01*
X48365753Y-57605276D01*
X48452746Y-57655501D01*
X48549775Y-57681500D01*
X48549777Y-57681500D01*
X48650223Y-57681500D01*
X48650225Y-57681500D01*
X48747254Y-57655501D01*
X48834247Y-57605276D01*
X48905276Y-57534247D01*
X48955501Y-57447254D01*
X48981500Y-57350225D01*
X48981500Y-57249775D01*
X48955501Y-57152746D01*
X48905276Y-57065753D01*
X48834247Y-56994724D01*
X48776481Y-56961373D01*
X48747258Y-56944501D01*
X48747255Y-56944500D01*
X48747254Y-56944499D01*
X48747252Y-56944498D01*
X48747251Y-56944498D01*
X48721253Y-56937532D01*
X48650225Y-56918500D01*
X48549775Y-56918500D01*
X48497779Y-56932432D01*
X48452748Y-56944498D01*
X48452741Y-56944501D01*
X48365754Y-56994723D01*
X48294723Y-57065754D01*
X48244501Y-57152741D01*
X48244498Y-57152748D01*
X48233010Y-57195622D01*
X48218500Y-57249775D01*
X40381500Y-57249775D01*
X40381500Y-56763897D01*
X81454378Y-56763897D01*
X81454378Y-56864347D01*
X81468888Y-56918500D01*
X81475854Y-56944498D01*
X81480377Y-56961376D01*
X81530602Y-57048369D01*
X81601631Y-57119398D01*
X81688624Y-57169623D01*
X81785653Y-57195622D01*
X81785655Y-57195622D01*
X81886101Y-57195622D01*
X81886103Y-57195622D01*
X81983132Y-57169623D01*
X82070125Y-57119398D01*
X82141154Y-57048369D01*
X82191379Y-56961376D01*
X82217378Y-56864347D01*
X82217378Y-56763897D01*
X82196169Y-56684744D01*
X82200565Y-56651358D01*
X82227282Y-56630857D01*
X82250055Y-56630857D01*
X82289775Y-56641500D01*
X82289777Y-56641500D01*
X82390223Y-56641500D01*
X82390225Y-56641500D01*
X82487254Y-56615501D01*
X82574247Y-56565276D01*
X82645276Y-56494247D01*
X82695501Y-56407254D01*
X82721500Y-56310225D01*
X82721500Y-56209775D01*
X82695501Y-56112746D01*
X82645276Y-56025753D01*
X82574247Y-55954724D01*
X82545249Y-55937982D01*
X82487258Y-55904501D01*
X82487255Y-55904500D01*
X82487254Y-55904499D01*
X82487252Y-55904498D01*
X82487251Y-55904498D01*
X82461253Y-55897532D01*
X82390225Y-55878500D01*
X82289775Y-55878500D01*
X82237779Y-55892432D01*
X82192748Y-55904498D01*
X82192741Y-55904501D01*
X82105754Y-55954723D01*
X82034723Y-56025754D01*
X81984501Y-56112741D01*
X81984499Y-56112746D01*
X81958500Y-56209775D01*
X81958500Y-56310225D01*
X81971978Y-56360527D01*
X81979708Y-56389375D01*
X81975312Y-56422763D01*
X81948595Y-56443264D01*
X81925819Y-56443264D01*
X81886103Y-56432622D01*
X81785653Y-56432622D01*
X81745937Y-56443264D01*
X81688626Y-56458620D01*
X81688619Y-56458623D01*
X81601632Y-56508845D01*
X81530601Y-56579876D01*
X81480379Y-56666863D01*
X81480376Y-56666870D01*
X81463894Y-56728382D01*
X81454378Y-56763897D01*
X40381500Y-56763897D01*
X40381500Y-50839775D01*
X48258500Y-50839775D01*
X48258500Y-50940225D01*
X48284499Y-51037254D01*
X48334724Y-51124247D01*
X48405753Y-51195276D01*
X48492746Y-51245501D01*
X48589775Y-51271500D01*
X48589777Y-51271500D01*
X48690223Y-51271500D01*
X48690225Y-51271500D01*
X48733983Y-51259775D01*
X78148500Y-51259775D01*
X78148500Y-51360225D01*
X78174499Y-51457254D01*
X78224724Y-51544247D01*
X78295753Y-51615276D01*
X78382746Y-51665501D01*
X78479775Y-51691500D01*
X78479777Y-51691500D01*
X78580223Y-51691500D01*
X78580225Y-51691500D01*
X78677254Y-51665501D01*
X78764247Y-51615276D01*
X78835276Y-51544247D01*
X78885501Y-51457254D01*
X78911500Y-51360225D01*
X78911500Y-51259775D01*
X78885501Y-51162746D01*
X78835276Y-51075753D01*
X78764247Y-51004724D01*
X78735249Y-50987982D01*
X78677258Y-50954501D01*
X78677255Y-50954500D01*
X78677254Y-50954499D01*
X78677252Y-50954498D01*
X78677251Y-50954498D01*
X78651253Y-50947532D01*
X78580225Y-50928500D01*
X78479775Y-50928500D01*
X78436017Y-50940225D01*
X78382748Y-50954498D01*
X78382741Y-50954501D01*
X78295754Y-51004723D01*
X78224723Y-51075754D01*
X78174501Y-51162741D01*
X78174498Y-51162748D01*
X78159483Y-51218786D01*
X78148500Y-51259775D01*
X48733983Y-51259775D01*
X48787254Y-51245501D01*
X48874247Y-51195276D01*
X48945276Y-51124247D01*
X48995501Y-51037254D01*
X49021500Y-50940225D01*
X49021500Y-50839775D01*
X48995501Y-50742746D01*
X48945276Y-50655753D01*
X48874247Y-50584724D01*
X48845249Y-50567982D01*
X48787258Y-50534501D01*
X48787255Y-50534500D01*
X48787254Y-50534499D01*
X48787252Y-50534498D01*
X48787251Y-50534498D01*
X48761253Y-50527532D01*
X48690225Y-50508500D01*
X48589775Y-50508500D01*
X48537779Y-50522432D01*
X48492748Y-50534498D01*
X48492741Y-50534501D01*
X48405754Y-50584723D01*
X48334723Y-50655754D01*
X48284501Y-50742741D01*
X48284499Y-50742746D01*
X48258500Y-50839775D01*
X40381500Y-50839775D01*
X40381500Y-49899775D01*
X49518500Y-49899775D01*
X49518500Y-50000225D01*
X49544499Y-50097254D01*
X49594724Y-50184247D01*
X49665753Y-50255276D01*
X49752746Y-50305501D01*
X49849775Y-50331500D01*
X49849777Y-50331500D01*
X49950223Y-50331500D01*
X49950225Y-50331500D01*
X50047254Y-50305501D01*
X50134247Y-50255276D01*
X50205276Y-50184247D01*
X50255501Y-50097254D01*
X50281500Y-50000225D01*
X50281500Y-49899775D01*
X50257384Y-49809775D01*
X75768500Y-49809775D01*
X75768500Y-49910225D01*
X75787532Y-49981253D01*
X75792615Y-50000225D01*
X75794499Y-50007254D01*
X75844724Y-50094247D01*
X75915753Y-50165276D01*
X76002746Y-50215501D01*
X76099775Y-50241500D01*
X76099777Y-50241500D01*
X76200223Y-50241500D01*
X76200225Y-50241500D01*
X76297254Y-50215501D01*
X76384247Y-50165276D01*
X76455276Y-50094247D01*
X76505501Y-50007254D01*
X76531500Y-49910225D01*
X76531500Y-49809775D01*
X76505501Y-49712746D01*
X76455276Y-49625753D01*
X76384247Y-49554724D01*
X76355249Y-49537982D01*
X76297258Y-49504501D01*
X76297255Y-49504500D01*
X76297254Y-49504499D01*
X76297252Y-49504498D01*
X76297251Y-49504498D01*
X76271253Y-49497532D01*
X76200225Y-49478500D01*
X76099775Y-49478500D01*
X76047779Y-49492432D01*
X76002748Y-49504498D01*
X76002741Y-49504501D01*
X75915754Y-49554723D01*
X75844723Y-49625754D01*
X75794501Y-49712741D01*
X75794499Y-49712746D01*
X75768500Y-49809775D01*
X50257384Y-49809775D01*
X50255503Y-49802754D01*
X50255501Y-49802746D01*
X50205276Y-49715753D01*
X50134247Y-49644724D01*
X50101388Y-49625753D01*
X50047258Y-49594501D01*
X50047255Y-49594500D01*
X50047254Y-49594499D01*
X50047252Y-49594498D01*
X50047251Y-49594498D01*
X50021253Y-49587532D01*
X49950225Y-49568500D01*
X49849775Y-49568500D01*
X49797779Y-49582432D01*
X49752748Y-49594498D01*
X49752741Y-49594501D01*
X49665754Y-49644723D01*
X49594723Y-49715754D01*
X49544501Y-49802741D01*
X49544498Y-49802748D01*
X49542615Y-49809776D01*
X49518500Y-49899775D01*
X40381500Y-49899775D01*
X40381500Y-47804775D01*
X67713500Y-47804775D01*
X67713500Y-47905225D01*
X67739499Y-48002254D01*
X67789724Y-48089247D01*
X67860753Y-48160276D01*
X67947746Y-48210501D01*
X68044775Y-48236500D01*
X68044777Y-48236500D01*
X68145223Y-48236500D01*
X68145225Y-48236500D01*
X68242254Y-48210501D01*
X68329247Y-48160276D01*
X68400276Y-48089247D01*
X68450501Y-48002254D01*
X68476500Y-47905225D01*
X68476500Y-47839775D01*
X74588500Y-47839775D01*
X74588500Y-47940225D01*
X74614499Y-48037254D01*
X74664724Y-48124247D01*
X74735753Y-48195276D01*
X74822746Y-48245501D01*
X74919775Y-48271500D01*
X74919777Y-48271500D01*
X75020223Y-48271500D01*
X75020225Y-48271500D01*
X75117254Y-48245501D01*
X75204247Y-48195276D01*
X75275276Y-48124247D01*
X75325501Y-48037254D01*
X75351500Y-47940225D01*
X75351500Y-47839775D01*
X75325501Y-47742746D01*
X75275276Y-47655753D01*
X75204247Y-47584724D01*
X75143623Y-47549723D01*
X75117258Y-47534501D01*
X75117255Y-47534500D01*
X75117254Y-47534499D01*
X75117252Y-47534498D01*
X75117251Y-47534498D01*
X75091253Y-47527532D01*
X75020225Y-47508500D01*
X74919775Y-47508500D01*
X74867779Y-47522432D01*
X74822748Y-47534498D01*
X74822741Y-47534501D01*
X74735754Y-47584723D01*
X74664723Y-47655754D01*
X74614501Y-47742741D01*
X74614499Y-47742746D01*
X74588500Y-47839775D01*
X68476500Y-47839775D01*
X68476500Y-47804775D01*
X68450501Y-47707746D01*
X68400276Y-47620753D01*
X68329247Y-47549724D01*
X68297682Y-47531500D01*
X68242258Y-47499501D01*
X68242255Y-47499500D01*
X68242254Y-47499499D01*
X68242252Y-47499498D01*
X68242251Y-47499498D01*
X68216253Y-47492532D01*
X68145225Y-47473500D01*
X68044775Y-47473500D01*
X67992779Y-47487432D01*
X67947748Y-47499498D01*
X67947741Y-47499501D01*
X67860754Y-47549723D01*
X67789723Y-47620754D01*
X67739501Y-47707741D01*
X67739499Y-47707746D01*
X67713500Y-47804775D01*
X40381500Y-47804775D01*
X40381500Y-47035546D01*
X70418500Y-47035546D01*
X70418500Y-47135996D01*
X70431897Y-47185994D01*
X70444498Y-47233022D01*
X70444501Y-47233029D01*
X70473366Y-47283025D01*
X70494724Y-47320018D01*
X70565753Y-47391047D01*
X70652746Y-47441272D01*
X70749775Y-47467271D01*
X70749777Y-47467271D01*
X70850223Y-47467271D01*
X70850225Y-47467271D01*
X70947254Y-47441272D01*
X71034247Y-47391047D01*
X71105276Y-47320018D01*
X71155501Y-47233025D01*
X71181500Y-47135996D01*
X71181500Y-47085546D01*
X73329428Y-47085546D01*
X73329428Y-47185996D01*
X73342031Y-47233029D01*
X73355426Y-47283022D01*
X73355429Y-47283029D01*
X73376785Y-47320018D01*
X73405652Y-47370018D01*
X73476681Y-47441047D01*
X73563674Y-47491272D01*
X73660703Y-47517271D01*
X73660705Y-47517271D01*
X73761151Y-47517271D01*
X73761153Y-47517271D01*
X73858182Y-47491272D01*
X73945175Y-47441047D01*
X74016204Y-47370018D01*
X74066429Y-47283025D01*
X74092428Y-47185996D01*
X74092428Y-47085546D01*
X74066429Y-46988517D01*
X74016204Y-46901524D01*
X73945175Y-46830495D01*
X73882826Y-46794498D01*
X73858186Y-46780272D01*
X73858183Y-46780271D01*
X73858182Y-46780270D01*
X73858180Y-46780269D01*
X73858179Y-46780269D01*
X73814256Y-46768500D01*
X73761153Y-46754271D01*
X73660703Y-46754271D01*
X73608707Y-46768203D01*
X73563676Y-46780269D01*
X73563669Y-46780272D01*
X73476682Y-46830494D01*
X73405651Y-46901525D01*
X73355429Y-46988512D01*
X73355426Y-46988519D01*
X73342825Y-47035547D01*
X73329428Y-47085546D01*
X71181500Y-47085546D01*
X71181500Y-47035546D01*
X71155501Y-46938517D01*
X71105276Y-46851524D01*
X71034247Y-46780495D01*
X70988825Y-46754271D01*
X70947258Y-46730272D01*
X70947255Y-46730271D01*
X70947254Y-46730270D01*
X70947252Y-46730269D01*
X70947251Y-46730269D01*
X70921253Y-46723303D01*
X70850225Y-46704271D01*
X70749775Y-46704271D01*
X70697779Y-46718203D01*
X70652748Y-46730269D01*
X70652741Y-46730272D01*
X70565754Y-46780494D01*
X70494723Y-46851525D01*
X70444501Y-46938512D01*
X70444499Y-46938517D01*
X70418500Y-47035546D01*
X40381500Y-47035546D01*
X40381500Y-46499775D01*
X76718500Y-46499775D01*
X76718500Y-46600225D01*
X76737532Y-46671253D01*
X76744498Y-46697251D01*
X76744501Y-46697258D01*
X76763562Y-46730272D01*
X76794724Y-46784247D01*
X76865753Y-46855276D01*
X76952746Y-46905501D01*
X77049775Y-46931500D01*
X77049777Y-46931500D01*
X77109423Y-46931500D01*
X77140536Y-46944387D01*
X77153423Y-46975500D01*
X77147528Y-46997500D01*
X77144501Y-47002741D01*
X77144499Y-47002746D01*
X77118500Y-47099775D01*
X77118500Y-47200225D01*
X77127288Y-47233022D01*
X77144498Y-47297251D01*
X77144501Y-47297258D01*
X77157642Y-47320018D01*
X77194724Y-47384247D01*
X77265753Y-47455276D01*
X77352746Y-47505501D01*
X77449775Y-47531500D01*
X77449777Y-47531500D01*
X77550223Y-47531500D01*
X77550225Y-47531500D01*
X77647254Y-47505501D01*
X77734247Y-47455276D01*
X77805276Y-47384247D01*
X77855501Y-47297254D01*
X77881500Y-47200225D01*
X77881500Y-47099775D01*
X77855501Y-47002746D01*
X77805276Y-46915753D01*
X77734247Y-46844724D01*
X77705249Y-46827982D01*
X77647258Y-46794501D01*
X77647255Y-46794500D01*
X77647254Y-46794499D01*
X77647252Y-46794498D01*
X77647251Y-46794498D01*
X77608993Y-46784247D01*
X77550225Y-46768500D01*
X77490577Y-46768500D01*
X77459464Y-46755613D01*
X77446577Y-46724500D01*
X77452473Y-46702498D01*
X77455501Y-46697254D01*
X77481500Y-46600225D01*
X77481500Y-46499775D01*
X77455501Y-46402746D01*
X77405276Y-46315753D01*
X77334247Y-46244724D01*
X77305249Y-46227982D01*
X77247258Y-46194501D01*
X77247255Y-46194500D01*
X77247254Y-46194499D01*
X77247252Y-46194498D01*
X77247251Y-46194498D01*
X77198741Y-46181500D01*
X77150225Y-46168500D01*
X77049775Y-46168500D01*
X77001259Y-46181500D01*
X76952748Y-46194498D01*
X76952741Y-46194501D01*
X76865754Y-46244723D01*
X76794723Y-46315754D01*
X76744501Y-46402741D01*
X76744499Y-46402746D01*
X76718500Y-46499775D01*
X40381500Y-46499775D01*
X40381500Y-45749775D01*
X43668500Y-45749775D01*
X43668500Y-45850225D01*
X43681897Y-45900223D01*
X43694498Y-45947251D01*
X43694501Y-45947258D01*
X43723366Y-45997254D01*
X43744724Y-46034247D01*
X43815753Y-46105276D01*
X43902746Y-46155501D01*
X43999775Y-46181500D01*
X43999777Y-46181500D01*
X44100223Y-46181500D01*
X44100225Y-46181500D01*
X44197254Y-46155501D01*
X44284247Y-46105276D01*
X44355276Y-46034247D01*
X44405501Y-45947254D01*
X44431500Y-45850225D01*
X44431500Y-45799775D01*
X50668500Y-45799775D01*
X50668500Y-45900225D01*
X50681103Y-45947258D01*
X50694498Y-45997251D01*
X50694501Y-45997258D01*
X50723366Y-46047254D01*
X50744724Y-46084247D01*
X50815753Y-46155276D01*
X50902746Y-46205501D01*
X50999775Y-46231500D01*
X50999777Y-46231500D01*
X51100223Y-46231500D01*
X51100225Y-46231500D01*
X51197254Y-46205501D01*
X51284247Y-46155276D01*
X51355276Y-46084247D01*
X51405501Y-45997254D01*
X51431500Y-45900225D01*
X51431500Y-45849775D01*
X53178500Y-45849775D01*
X53178500Y-45950225D01*
X53191103Y-45997258D01*
X53204498Y-46047251D01*
X53204501Y-46047258D01*
X53225857Y-46084247D01*
X53254724Y-46134247D01*
X53325753Y-46205276D01*
X53412746Y-46255501D01*
X53509775Y-46281500D01*
X53509777Y-46281500D01*
X53610223Y-46281500D01*
X53610225Y-46281500D01*
X53707254Y-46255501D01*
X53794247Y-46205276D01*
X53865276Y-46134247D01*
X53915501Y-46047254D01*
X53941500Y-45950225D01*
X53941500Y-45849775D01*
X53915501Y-45752746D01*
X53865276Y-45665753D01*
X53794247Y-45594724D01*
X53765249Y-45577982D01*
X53707258Y-45544501D01*
X53707255Y-45544500D01*
X53707254Y-45544499D01*
X53707252Y-45544498D01*
X53707251Y-45544498D01*
X53681253Y-45537532D01*
X53610225Y-45518500D01*
X53509775Y-45518500D01*
X53457779Y-45532432D01*
X53412748Y-45544498D01*
X53412741Y-45544501D01*
X53325754Y-45594723D01*
X53254723Y-45665754D01*
X53204501Y-45752741D01*
X53204498Y-45752748D01*
X53191897Y-45799776D01*
X53178500Y-45849775D01*
X51431500Y-45849775D01*
X51431500Y-45799775D01*
X51405501Y-45702746D01*
X51355276Y-45615753D01*
X51284247Y-45544724D01*
X51197644Y-45494724D01*
X51197258Y-45494501D01*
X51197255Y-45494500D01*
X51197254Y-45494499D01*
X51197252Y-45494498D01*
X51197251Y-45494498D01*
X51160605Y-45484679D01*
X51100225Y-45468500D01*
X50999775Y-45468500D01*
X50947779Y-45482432D01*
X50902748Y-45494498D01*
X50902741Y-45494501D01*
X50815754Y-45544723D01*
X50744723Y-45615754D01*
X50694501Y-45702741D01*
X50694498Y-45702748D01*
X50681897Y-45749776D01*
X50668500Y-45799775D01*
X44431500Y-45799775D01*
X44431500Y-45749775D01*
X44405501Y-45652746D01*
X44355276Y-45565753D01*
X44284247Y-45494724D01*
X44238825Y-45468500D01*
X44197258Y-45444501D01*
X44197255Y-45444500D01*
X44197254Y-45444499D01*
X44197252Y-45444498D01*
X44197251Y-45444498D01*
X44171253Y-45437532D01*
X44100225Y-45418500D01*
X43999775Y-45418500D01*
X43947779Y-45432432D01*
X43902748Y-45444498D01*
X43902741Y-45444501D01*
X43815754Y-45494723D01*
X43744723Y-45565754D01*
X43694501Y-45652741D01*
X43694498Y-45652748D01*
X43683734Y-45692922D01*
X43668500Y-45749775D01*
X40381500Y-45749775D01*
X40381500Y-44885546D01*
X69029428Y-44885546D01*
X69029428Y-44985996D01*
X69041794Y-45032145D01*
X69055426Y-45083022D01*
X69055429Y-45083029D01*
X69088910Y-45141020D01*
X69105652Y-45170018D01*
X69176681Y-45241047D01*
X69263674Y-45291272D01*
X69360703Y-45317271D01*
X69360705Y-45317271D01*
X69461151Y-45317271D01*
X69461153Y-45317271D01*
X69558182Y-45291272D01*
X69565242Y-45287196D01*
X71031079Y-45287196D01*
X71031079Y-45387646D01*
X71046313Y-45444498D01*
X71057077Y-45484672D01*
X71057080Y-45484679D01*
X71076607Y-45518500D01*
X71107303Y-45571668D01*
X71178332Y-45642697D01*
X71265325Y-45692922D01*
X71362354Y-45718921D01*
X71362356Y-45718921D01*
X71462802Y-45718921D01*
X71462804Y-45718921D01*
X71559833Y-45692922D01*
X71646826Y-45642697D01*
X71717855Y-45571668D01*
X71768080Y-45484675D01*
X71794079Y-45387646D01*
X71794079Y-45287196D01*
X71768080Y-45190167D01*
X71717855Y-45103174D01*
X71646826Y-45032145D01*
X71566893Y-44985996D01*
X71559837Y-44981922D01*
X71559834Y-44981921D01*
X71559833Y-44981920D01*
X71559831Y-44981919D01*
X71559830Y-44981919D01*
X71533832Y-44974953D01*
X71462804Y-44955921D01*
X71362354Y-44955921D01*
X71310358Y-44969853D01*
X71265327Y-44981919D01*
X71265320Y-44981922D01*
X71178333Y-45032144D01*
X71107302Y-45103175D01*
X71057080Y-45190162D01*
X71057078Y-45190167D01*
X71031079Y-45287196D01*
X69565242Y-45287196D01*
X69645175Y-45241047D01*
X69716204Y-45170018D01*
X69766429Y-45083025D01*
X69792428Y-44985996D01*
X69792428Y-44885546D01*
X69766429Y-44788517D01*
X69716204Y-44701524D01*
X69645175Y-44630495D01*
X69591966Y-44599775D01*
X75068500Y-44599775D01*
X75068500Y-44700225D01*
X75087532Y-44771253D01*
X75092156Y-44788512D01*
X75094499Y-44797254D01*
X75144724Y-44884247D01*
X75215753Y-44955276D01*
X75302746Y-45005501D01*
X75399775Y-45031500D01*
X75399777Y-45031500D01*
X75500223Y-45031500D01*
X75500225Y-45031500D01*
X75597254Y-45005501D01*
X75684247Y-44955276D01*
X75755276Y-44884247D01*
X75805501Y-44797254D01*
X75831500Y-44700225D01*
X75831500Y-44599775D01*
X75805501Y-44502746D01*
X75755276Y-44415753D01*
X75684247Y-44344724D01*
X75655249Y-44327982D01*
X75597258Y-44294501D01*
X75597255Y-44294500D01*
X75597254Y-44294499D01*
X75597252Y-44294498D01*
X75597251Y-44294498D01*
X75571253Y-44287532D01*
X75500225Y-44268500D01*
X75399775Y-44268500D01*
X75347779Y-44282432D01*
X75302748Y-44294498D01*
X75302741Y-44294501D01*
X75215754Y-44344723D01*
X75144723Y-44415754D01*
X75094501Y-44502741D01*
X75094499Y-44502746D01*
X75068500Y-44599775D01*
X69591966Y-44599775D01*
X69558186Y-44580272D01*
X69558183Y-44580271D01*
X69558182Y-44580270D01*
X69558180Y-44580269D01*
X69558179Y-44580269D01*
X69532181Y-44573303D01*
X69461153Y-44554271D01*
X69360703Y-44554271D01*
X69308707Y-44568203D01*
X69263676Y-44580269D01*
X69263669Y-44580272D01*
X69176682Y-44630494D01*
X69105651Y-44701525D01*
X69055429Y-44788512D01*
X69055426Y-44788519D01*
X69038944Y-44850031D01*
X69029428Y-44885546D01*
X40381500Y-44885546D01*
X40381500Y-43699775D01*
X55318500Y-43699775D01*
X55318500Y-43800225D01*
X55328967Y-43839289D01*
X55344498Y-43897251D01*
X55344501Y-43897258D01*
X55349260Y-43905501D01*
X55394724Y-43984247D01*
X55465753Y-44055276D01*
X55552746Y-44105501D01*
X55649775Y-44131500D01*
X55649777Y-44131500D01*
X55750223Y-44131500D01*
X55750225Y-44131500D01*
X55847254Y-44105501D01*
X55934247Y-44055276D01*
X56005276Y-43984247D01*
X56055501Y-43897254D01*
X56081500Y-43800225D01*
X56081500Y-43699775D01*
X56055501Y-43602746D01*
X56005276Y-43515753D01*
X55934247Y-43444724D01*
X55908354Y-43429775D01*
X69748500Y-43429775D01*
X69748500Y-43530225D01*
X69752385Y-43544723D01*
X69771417Y-43615754D01*
X69774499Y-43627254D01*
X69824724Y-43714247D01*
X69895753Y-43785276D01*
X69982746Y-43835501D01*
X70079775Y-43861500D01*
X70079777Y-43861500D01*
X70180223Y-43861500D01*
X70180225Y-43861500D01*
X70263115Y-43839289D01*
X70296500Y-43843685D01*
X70317001Y-43870402D01*
X70318500Y-43881790D01*
X70318500Y-43900225D01*
X70344499Y-43997254D01*
X70394724Y-44084247D01*
X70465753Y-44155276D01*
X70552746Y-44205501D01*
X70649775Y-44231500D01*
X70649777Y-44231500D01*
X70750223Y-44231500D01*
X70750225Y-44231500D01*
X70847254Y-44205501D01*
X70934247Y-44155276D01*
X71005276Y-44084247D01*
X71055501Y-43997254D01*
X71081500Y-43900225D01*
X71081500Y-43799775D01*
X71055501Y-43702746D01*
X71005276Y-43615753D01*
X70934247Y-43544724D01*
X70884067Y-43515753D01*
X70856393Y-43499775D01*
X73518500Y-43499775D01*
X73518500Y-43600225D01*
X73525744Y-43627258D01*
X73544498Y-43697251D01*
X73544501Y-43697258D01*
X73554310Y-43714247D01*
X73594724Y-43784247D01*
X73665753Y-43855276D01*
X73752746Y-43905501D01*
X73849775Y-43931500D01*
X73849777Y-43931500D01*
X73950223Y-43931500D01*
X73950225Y-43931500D01*
X74047254Y-43905501D01*
X74134247Y-43855276D01*
X74205276Y-43784247D01*
X74255501Y-43697254D01*
X74281500Y-43600225D01*
X74281500Y-43499775D01*
X74255501Y-43402746D01*
X74205276Y-43315753D01*
X74134247Y-43244724D01*
X74105249Y-43227982D01*
X74047258Y-43194501D01*
X74047255Y-43194500D01*
X74047254Y-43194499D01*
X74047252Y-43194498D01*
X74047251Y-43194498D01*
X74021253Y-43187532D01*
X73950225Y-43168500D01*
X73849775Y-43168500D01*
X73797779Y-43182432D01*
X73752748Y-43194498D01*
X73752741Y-43194501D01*
X73665754Y-43244723D01*
X73594723Y-43315754D01*
X73544501Y-43402741D01*
X73544498Y-43402748D01*
X73537256Y-43429776D01*
X73518500Y-43499775D01*
X70856393Y-43499775D01*
X70847258Y-43494501D01*
X70847255Y-43494500D01*
X70847254Y-43494499D01*
X70847252Y-43494498D01*
X70847251Y-43494498D01*
X70816707Y-43486314D01*
X70750225Y-43468500D01*
X70649775Y-43468500D01*
X70566887Y-43490709D01*
X70533500Y-43486314D01*
X70512999Y-43459597D01*
X70511500Y-43448209D01*
X70511500Y-43429776D01*
X70504258Y-43402748D01*
X70485501Y-43332746D01*
X70435276Y-43245753D01*
X70364247Y-43174724D01*
X70335249Y-43157982D01*
X70277258Y-43124501D01*
X70277255Y-43124500D01*
X70277254Y-43124499D01*
X70277252Y-43124498D01*
X70277251Y-43124498D01*
X70251253Y-43117532D01*
X70180225Y-43098500D01*
X70079775Y-43098500D01*
X70027779Y-43112432D01*
X69982748Y-43124498D01*
X69982741Y-43124501D01*
X69895754Y-43174723D01*
X69824723Y-43245754D01*
X69774501Y-43332741D01*
X69774498Y-43332748D01*
X69758016Y-43394260D01*
X69748500Y-43429775D01*
X55908354Y-43429775D01*
X55861542Y-43402748D01*
X55847258Y-43394501D01*
X55847255Y-43394500D01*
X55847254Y-43394499D01*
X55847252Y-43394498D01*
X55847251Y-43394498D01*
X55821253Y-43387532D01*
X55750225Y-43368500D01*
X55649775Y-43368500D01*
X55597779Y-43382432D01*
X55552748Y-43394498D01*
X55552741Y-43394501D01*
X55465754Y-43444723D01*
X55394723Y-43515754D01*
X55344501Y-43602741D01*
X55344498Y-43602748D01*
X55341013Y-43615754D01*
X55318500Y-43699775D01*
X40381500Y-43699775D01*
X40381500Y-41589775D01*
X47728500Y-41589775D01*
X47728500Y-41690225D01*
X47754499Y-41787254D01*
X47804724Y-41874247D01*
X47875753Y-41945276D01*
X47962746Y-41995501D01*
X48059775Y-42021500D01*
X48059777Y-42021500D01*
X48160223Y-42021500D01*
X48160225Y-42021500D01*
X48257254Y-41995501D01*
X48344247Y-41945276D01*
X48415276Y-41874247D01*
X48465501Y-41787254D01*
X48491500Y-41690225D01*
X48491500Y-41649775D01*
X77748500Y-41649775D01*
X77748500Y-41750225D01*
X77774499Y-41847254D01*
X77824724Y-41934247D01*
X77895753Y-42005276D01*
X77982746Y-42055501D01*
X78079775Y-42081500D01*
X78079777Y-42081500D01*
X78180223Y-42081500D01*
X78180225Y-42081500D01*
X78277254Y-42055501D01*
X78364247Y-42005276D01*
X78435276Y-41934247D01*
X78485501Y-41847254D01*
X78511500Y-41750225D01*
X78511500Y-41724775D01*
X80393500Y-41724775D01*
X80393500Y-41825225D01*
X80412532Y-41896253D01*
X80419498Y-41922251D01*
X80419501Y-41922258D01*
X80452982Y-41980249D01*
X80469724Y-42009247D01*
X80540753Y-42080276D01*
X80627746Y-42130501D01*
X80724775Y-42156500D01*
X80724777Y-42156500D01*
X80825223Y-42156500D01*
X80825225Y-42156500D01*
X80922254Y-42130501D01*
X81009247Y-42080276D01*
X81080276Y-42009247D01*
X81130501Y-41922254D01*
X81156500Y-41825225D01*
X81156500Y-41724775D01*
X81130501Y-41627746D01*
X81080276Y-41540753D01*
X81009247Y-41469724D01*
X80980249Y-41452982D01*
X80922258Y-41419501D01*
X80922255Y-41419500D01*
X80922254Y-41419499D01*
X80922252Y-41419498D01*
X80922251Y-41419498D01*
X80870957Y-41405754D01*
X80825225Y-41393500D01*
X80724775Y-41393500D01*
X80679043Y-41405754D01*
X80627748Y-41419498D01*
X80627741Y-41419501D01*
X80540754Y-41469723D01*
X80469723Y-41540754D01*
X80419501Y-41627741D01*
X80419499Y-41627746D01*
X80393500Y-41724775D01*
X78511500Y-41724775D01*
X78511500Y-41649775D01*
X78485501Y-41552746D01*
X78435276Y-41465753D01*
X78364247Y-41394724D01*
X78335249Y-41377982D01*
X78277258Y-41344501D01*
X78277255Y-41344500D01*
X78277254Y-41344499D01*
X78277252Y-41344498D01*
X78277251Y-41344498D01*
X78240773Y-41334724D01*
X78180225Y-41318500D01*
X78079775Y-41318500D01*
X78027779Y-41332432D01*
X77982748Y-41344498D01*
X77982741Y-41344501D01*
X77895754Y-41394723D01*
X77824723Y-41465754D01*
X77774501Y-41552741D01*
X77774499Y-41552746D01*
X77748500Y-41649775D01*
X48491500Y-41649775D01*
X48491500Y-41589775D01*
X48465501Y-41492746D01*
X48415276Y-41405753D01*
X48344247Y-41334724D01*
X48315249Y-41317982D01*
X48257258Y-41284501D01*
X48257255Y-41284500D01*
X48257254Y-41284499D01*
X48257252Y-41284498D01*
X48257251Y-41284498D01*
X48231253Y-41277532D01*
X48160225Y-41258500D01*
X48059775Y-41258500D01*
X48007779Y-41272432D01*
X47962748Y-41284498D01*
X47962741Y-41284501D01*
X47875754Y-41334723D01*
X47804723Y-41405754D01*
X47754501Y-41492741D01*
X47754499Y-41492746D01*
X47728500Y-41589775D01*
X40381500Y-41589775D01*
X40381500Y-40349775D01*
X58118500Y-40349775D01*
X58118500Y-40450225D01*
X58144499Y-40547254D01*
X58194724Y-40634247D01*
X58265753Y-40705276D01*
X58352746Y-40755501D01*
X58449775Y-40781500D01*
X58449777Y-40781500D01*
X58550223Y-40781500D01*
X58550225Y-40781500D01*
X58647254Y-40755501D01*
X58734247Y-40705276D01*
X58805276Y-40634247D01*
X58855501Y-40547254D01*
X58881500Y-40450225D01*
X58881500Y-40349775D01*
X58855501Y-40252746D01*
X58842638Y-40230467D01*
X58838243Y-40197081D01*
X58858744Y-40170364D01*
X58892132Y-40165968D01*
X58911854Y-40177354D01*
X58935063Y-40200563D01*
X59022056Y-40250788D01*
X59119085Y-40276787D01*
X59119087Y-40276787D01*
X59219533Y-40276787D01*
X59219535Y-40276787D01*
X59316564Y-40250788D01*
X59318319Y-40249775D01*
X66628500Y-40249775D01*
X66628500Y-40350225D01*
X66654499Y-40447254D01*
X66704724Y-40534247D01*
X66775753Y-40605276D01*
X66862746Y-40655501D01*
X66959775Y-40681500D01*
X66959777Y-40681500D01*
X67060223Y-40681500D01*
X67060225Y-40681500D01*
X67157254Y-40655501D01*
X67244247Y-40605276D01*
X67315276Y-40534247D01*
X67365501Y-40447254D01*
X67391500Y-40350225D01*
X67391500Y-40249775D01*
X67365501Y-40152746D01*
X67315276Y-40065753D01*
X67244247Y-39994724D01*
X67159009Y-39945512D01*
X67157258Y-39944501D01*
X67157255Y-39944500D01*
X67157254Y-39944499D01*
X67157252Y-39944498D01*
X67157251Y-39944498D01*
X67108741Y-39931500D01*
X67060225Y-39918500D01*
X66959775Y-39918500D01*
X66911259Y-39931500D01*
X66862748Y-39944498D01*
X66862741Y-39944501D01*
X66775754Y-39994723D01*
X66704723Y-40065754D01*
X66654501Y-40152741D01*
X66654498Y-40152748D01*
X66642619Y-40197081D01*
X66628500Y-40249775D01*
X59318319Y-40249775D01*
X59403557Y-40200563D01*
X59474586Y-40129534D01*
X59524811Y-40042541D01*
X59550810Y-39945512D01*
X59550810Y-39845062D01*
X59524811Y-39748033D01*
X59474586Y-39661040D01*
X59403557Y-39590011D01*
X59358929Y-39564245D01*
X59316568Y-39539788D01*
X59316565Y-39539787D01*
X59316564Y-39539786D01*
X59316562Y-39539785D01*
X59316561Y-39539785D01*
X59281072Y-39530276D01*
X59219535Y-39513787D01*
X59119085Y-39513787D01*
X59067089Y-39527719D01*
X59022058Y-39539785D01*
X59022051Y-39539788D01*
X58935064Y-39590010D01*
X58864033Y-39661041D01*
X58813811Y-39748028D01*
X58813809Y-39748033D01*
X58787810Y-39845062D01*
X58787810Y-39945512D01*
X58806842Y-40016540D01*
X58813808Y-40042538D01*
X58813811Y-40042545D01*
X58826670Y-40064817D01*
X58831066Y-40098205D01*
X58810565Y-40124922D01*
X58777177Y-40129318D01*
X58757454Y-40117931D01*
X58734247Y-40094724D01*
X58684069Y-40065754D01*
X58647258Y-40044501D01*
X58647255Y-40044500D01*
X58647254Y-40044499D01*
X58647252Y-40044498D01*
X58647251Y-40044498D01*
X58621253Y-40037532D01*
X58550225Y-40018500D01*
X58449775Y-40018500D01*
X58397779Y-40032432D01*
X58352748Y-40044498D01*
X58352741Y-40044501D01*
X58265754Y-40094723D01*
X58194723Y-40165754D01*
X58144501Y-40252741D01*
X58144499Y-40252746D01*
X58118500Y-40349775D01*
X40381500Y-40349775D01*
X40381500Y-39499775D01*
X46048500Y-39499775D01*
X46048500Y-39600225D01*
X46064796Y-39661041D01*
X46074498Y-39697251D01*
X46074501Y-39697258D01*
X46095857Y-39734247D01*
X46124724Y-39784247D01*
X46195753Y-39855276D01*
X46282746Y-39905501D01*
X46379775Y-39931500D01*
X46379777Y-39931500D01*
X46480223Y-39931500D01*
X46480225Y-39931500D01*
X46577254Y-39905501D01*
X46664247Y-39855276D01*
X46735276Y-39784247D01*
X46785501Y-39697254D01*
X46800060Y-39642918D01*
X46820560Y-39616203D01*
X46853948Y-39611807D01*
X46873670Y-39623193D01*
X46885753Y-39635276D01*
X46972746Y-39685501D01*
X47069775Y-39711500D01*
X47069777Y-39711500D01*
X47170223Y-39711500D01*
X47170225Y-39711500D01*
X47267254Y-39685501D01*
X47354247Y-39635276D01*
X47425276Y-39564247D01*
X47475501Y-39477254D01*
X47501500Y-39380225D01*
X47501500Y-39371005D01*
X49858829Y-39371005D01*
X49858829Y-39471455D01*
X49866418Y-39499776D01*
X49884827Y-39568481D01*
X49884830Y-39568488D01*
X49906776Y-39606500D01*
X49935053Y-39655477D01*
X50006082Y-39726506D01*
X50093075Y-39776731D01*
X50190104Y-39802730D01*
X50190106Y-39802730D01*
X50290552Y-39802730D01*
X50290554Y-39802730D01*
X50387583Y-39776731D01*
X50474576Y-39726506D01*
X50545605Y-39655477D01*
X50595830Y-39568484D01*
X50621829Y-39471455D01*
X50621829Y-39371005D01*
X50595830Y-39273976D01*
X50545605Y-39186983D01*
X50533397Y-39174775D01*
X53543500Y-39174775D01*
X53543500Y-39275225D01*
X53554360Y-39315753D01*
X53569498Y-39372251D01*
X53569501Y-39372258D01*
X53599889Y-39424891D01*
X53619724Y-39459247D01*
X53690753Y-39530276D01*
X53777746Y-39580501D01*
X53874775Y-39606500D01*
X53874777Y-39606500D01*
X53975223Y-39606500D01*
X53975225Y-39606500D01*
X54072254Y-39580501D01*
X54159247Y-39530276D01*
X54230276Y-39459247D01*
X54235745Y-39449775D01*
X77018500Y-39449775D01*
X77018500Y-39550225D01*
X77029161Y-39590011D01*
X77044498Y-39647251D01*
X77044501Y-39647258D01*
X77073366Y-39697254D01*
X77094724Y-39734247D01*
X77165753Y-39805276D01*
X77252746Y-39855501D01*
X77349775Y-39881500D01*
X77349777Y-39881500D01*
X77450223Y-39881500D01*
X77450225Y-39881500D01*
X77547254Y-39855501D01*
X77634247Y-39805276D01*
X77705276Y-39734247D01*
X77755501Y-39647254D01*
X77781500Y-39550225D01*
X77781500Y-39449775D01*
X77755501Y-39352746D01*
X77705276Y-39265753D01*
X77634247Y-39194724D01*
X77588825Y-39168500D01*
X77547258Y-39144501D01*
X77547255Y-39144500D01*
X77547254Y-39144499D01*
X77547252Y-39144498D01*
X77547251Y-39144498D01*
X77521253Y-39137532D01*
X77450225Y-39118500D01*
X77349775Y-39118500D01*
X77297779Y-39132432D01*
X77252748Y-39144498D01*
X77252741Y-39144501D01*
X77165754Y-39194723D01*
X77094723Y-39265754D01*
X77044501Y-39352741D01*
X77044498Y-39352748D01*
X77037136Y-39380225D01*
X77018500Y-39449775D01*
X54235745Y-39449775D01*
X54280501Y-39372254D01*
X54306500Y-39275225D01*
X54306500Y-39174775D01*
X54280501Y-39077746D01*
X54230276Y-38990753D01*
X54159247Y-38919724D01*
X54130249Y-38902982D01*
X54072258Y-38869501D01*
X54072255Y-38869500D01*
X54072254Y-38869499D01*
X54072252Y-38869498D01*
X54072251Y-38869498D01*
X54019173Y-38855276D01*
X53975225Y-38843500D01*
X53874775Y-38843500D01*
X53830827Y-38855276D01*
X53777748Y-38869498D01*
X53777741Y-38869501D01*
X53690754Y-38919723D01*
X53619723Y-38990754D01*
X53569501Y-39077741D01*
X53569498Y-39077748D01*
X53559261Y-39115953D01*
X53543500Y-39174775D01*
X50533397Y-39174775D01*
X50474576Y-39115954D01*
X50408401Y-39077748D01*
X50387587Y-39065731D01*
X50387584Y-39065730D01*
X50387583Y-39065729D01*
X50387581Y-39065728D01*
X50387580Y-39065728D01*
X50361582Y-39058762D01*
X50290554Y-39039730D01*
X50190104Y-39039730D01*
X50138108Y-39053662D01*
X50093077Y-39065728D01*
X50093070Y-39065731D01*
X50006083Y-39115953D01*
X49935052Y-39186984D01*
X49884830Y-39273971D01*
X49884827Y-39273978D01*
X49868345Y-39335490D01*
X49858829Y-39371005D01*
X47501500Y-39371005D01*
X47501500Y-39279775D01*
X47475501Y-39182746D01*
X47425276Y-39095753D01*
X47354247Y-39024724D01*
X47295407Y-38990753D01*
X47267258Y-38974501D01*
X47267255Y-38974500D01*
X47267254Y-38974499D01*
X47267252Y-38974498D01*
X47267251Y-38974498D01*
X47241253Y-38967532D01*
X47170225Y-38948500D01*
X47069775Y-38948500D01*
X47017779Y-38962432D01*
X46972748Y-38974498D01*
X46972741Y-38974501D01*
X46885754Y-39024723D01*
X46814723Y-39095754D01*
X46764501Y-39182741D01*
X46764499Y-39182744D01*
X46764499Y-39182746D01*
X46755387Y-39216749D01*
X46749940Y-39237080D01*
X46729438Y-39263796D01*
X46696050Y-39268192D01*
X46676328Y-39256805D01*
X46664247Y-39244724D01*
X46577644Y-39194724D01*
X46577258Y-39194501D01*
X46577255Y-39194500D01*
X46577254Y-39194499D01*
X46577252Y-39194498D01*
X46577251Y-39194498D01*
X46551253Y-39187532D01*
X46480225Y-39168500D01*
X46379775Y-39168500D01*
X46327779Y-39182432D01*
X46282748Y-39194498D01*
X46282741Y-39194501D01*
X46195754Y-39244723D01*
X46124723Y-39315754D01*
X46074501Y-39402741D01*
X46074498Y-39402748D01*
X46058016Y-39464260D01*
X46048500Y-39499775D01*
X40381500Y-39499775D01*
X40381500Y-38099775D01*
X48948500Y-38099775D01*
X48948500Y-38200225D01*
X48967532Y-38271253D01*
X48974498Y-38297251D01*
X48974501Y-38297258D01*
X48995857Y-38334247D01*
X49024724Y-38384247D01*
X49095753Y-38455276D01*
X49182746Y-38505501D01*
X49279775Y-38531500D01*
X49279777Y-38531500D01*
X49380223Y-38531500D01*
X49380225Y-38531500D01*
X49477254Y-38505501D01*
X49564247Y-38455276D01*
X49635276Y-38384247D01*
X49685501Y-38297254D01*
X49698223Y-38249775D01*
X53548500Y-38249775D01*
X53548500Y-38350225D01*
X53561897Y-38400223D01*
X53574498Y-38447251D01*
X53574501Y-38447258D01*
X53603366Y-38497254D01*
X53624724Y-38534247D01*
X53695753Y-38605276D01*
X53782746Y-38655501D01*
X53879775Y-38681500D01*
X53879777Y-38681500D01*
X53980223Y-38681500D01*
X53980225Y-38681500D01*
X54077254Y-38655501D01*
X54164247Y-38605276D01*
X54235276Y-38534247D01*
X54285501Y-38447254D01*
X54311500Y-38350225D01*
X54311500Y-38249775D01*
X54285501Y-38152746D01*
X54235276Y-38065753D01*
X54164247Y-37994724D01*
X54118825Y-37968500D01*
X54077258Y-37944501D01*
X54077255Y-37944500D01*
X54077254Y-37944499D01*
X54077252Y-37944498D01*
X54077251Y-37944498D01*
X54071089Y-37942847D01*
X53980225Y-37918500D01*
X53879775Y-37918500D01*
X53827779Y-37932432D01*
X53782748Y-37944498D01*
X53782741Y-37944501D01*
X53695754Y-37994723D01*
X53624723Y-38065754D01*
X53574501Y-38152741D01*
X53574500Y-38152743D01*
X53574499Y-38152746D01*
X53548500Y-38249775D01*
X49698223Y-38249775D01*
X49711500Y-38200225D01*
X49711500Y-38099775D01*
X49685501Y-38002746D01*
X49635276Y-37915753D01*
X49619298Y-37899775D01*
X61518501Y-37899775D01*
X61518501Y-38000225D01*
X61544500Y-38097254D01*
X61594725Y-38184247D01*
X61665754Y-38255276D01*
X61752747Y-38305501D01*
X61849776Y-38331500D01*
X61849778Y-38331500D01*
X61950224Y-38331500D01*
X61950226Y-38331500D01*
X62047255Y-38305501D01*
X62057173Y-38299775D01*
X65118500Y-38299775D01*
X65118500Y-38400225D01*
X65144499Y-38497254D01*
X65194724Y-38584247D01*
X65265753Y-38655276D01*
X65352746Y-38705501D01*
X65449775Y-38731500D01*
X65449777Y-38731500D01*
X65550223Y-38731500D01*
X65550225Y-38731500D01*
X65647254Y-38705501D01*
X65734247Y-38655276D01*
X65805276Y-38584247D01*
X65855501Y-38497254D01*
X65881500Y-38400225D01*
X65881500Y-38299775D01*
X65855501Y-38202746D01*
X65805276Y-38115753D01*
X65789298Y-38099775D01*
X68118500Y-38099775D01*
X68118500Y-38200225D01*
X68137532Y-38271253D01*
X68144498Y-38297251D01*
X68144501Y-38297258D01*
X68165857Y-38334247D01*
X68194724Y-38384247D01*
X68265753Y-38455276D01*
X68352746Y-38505501D01*
X68449775Y-38531500D01*
X68449777Y-38531500D01*
X68553109Y-38531500D01*
X68553109Y-38532866D01*
X68581264Y-38540392D01*
X68598120Y-38569546D01*
X68598500Y-38575316D01*
X68598500Y-38600225D01*
X68624499Y-38697254D01*
X68674724Y-38784247D01*
X68745753Y-38855276D01*
X68832746Y-38905501D01*
X68929775Y-38931500D01*
X68929777Y-38931500D01*
X69030223Y-38931500D01*
X69030225Y-38931500D01*
X69127254Y-38905501D01*
X69214247Y-38855276D01*
X69285276Y-38784247D01*
X69335501Y-38697254D01*
X69361500Y-38600225D01*
X69361500Y-38499775D01*
X69335501Y-38402746D01*
X69285276Y-38315753D01*
X69214247Y-38244724D01*
X69141542Y-38202748D01*
X69127258Y-38194501D01*
X69127255Y-38194500D01*
X69127254Y-38194499D01*
X69127252Y-38194498D01*
X69127251Y-38194498D01*
X69088993Y-38184247D01*
X69030225Y-38168500D01*
X68929775Y-38168500D01*
X68926891Y-38168500D01*
X68926891Y-38167141D01*
X68898711Y-38159588D01*
X68882068Y-38131728D01*
X68881500Y-38128226D01*
X68881500Y-38099775D01*
X68868102Y-38049775D01*
X85118500Y-38049775D01*
X85118500Y-38150225D01*
X85130363Y-38194498D01*
X85144498Y-38247251D01*
X85144501Y-38247258D01*
X85173366Y-38297254D01*
X85194724Y-38334247D01*
X85265753Y-38405276D01*
X85352746Y-38455501D01*
X85449775Y-38481500D01*
X85449777Y-38481500D01*
X85550223Y-38481500D01*
X85550225Y-38481500D01*
X85647254Y-38455501D01*
X85734247Y-38405276D01*
X85805276Y-38334247D01*
X85855501Y-38247254D01*
X85881500Y-38150225D01*
X85881500Y-38049775D01*
X85855501Y-37952746D01*
X85805276Y-37865753D01*
X85734247Y-37794724D01*
X85688825Y-37768500D01*
X85647258Y-37744501D01*
X85647255Y-37744500D01*
X85647254Y-37744499D01*
X85647252Y-37744498D01*
X85647251Y-37744498D01*
X85598741Y-37731500D01*
X85550225Y-37718500D01*
X85449775Y-37718500D01*
X85401259Y-37731500D01*
X85352748Y-37744498D01*
X85352741Y-37744501D01*
X85265754Y-37794723D01*
X85194723Y-37865754D01*
X85144501Y-37952741D01*
X85144500Y-37952743D01*
X85144499Y-37952746D01*
X85118500Y-38049775D01*
X68868102Y-38049775D01*
X68855501Y-38002746D01*
X68805276Y-37915753D01*
X68734247Y-37844724D01*
X68661542Y-37802748D01*
X68647258Y-37794501D01*
X68647255Y-37794500D01*
X68647254Y-37794499D01*
X68647252Y-37794498D01*
X68647251Y-37794498D01*
X68621253Y-37787532D01*
X68550225Y-37768500D01*
X68449775Y-37768500D01*
X68397779Y-37782432D01*
X68352748Y-37794498D01*
X68352741Y-37794501D01*
X68265754Y-37844723D01*
X68194723Y-37915754D01*
X68144501Y-38002741D01*
X68144498Y-38002748D01*
X68131897Y-38049776D01*
X68118500Y-38099775D01*
X65789298Y-38099775D01*
X65734247Y-38044724D01*
X65661542Y-38002748D01*
X65647258Y-37994501D01*
X65647255Y-37994500D01*
X65647254Y-37994499D01*
X65647252Y-37994498D01*
X65647251Y-37994498D01*
X65621253Y-37987532D01*
X65550225Y-37968500D01*
X65449775Y-37968500D01*
X65397779Y-37982432D01*
X65352748Y-37994498D01*
X65352741Y-37994501D01*
X65265754Y-38044723D01*
X65194723Y-38115754D01*
X65144501Y-38202741D01*
X65144498Y-38202748D01*
X65129483Y-38258786D01*
X65118500Y-38299775D01*
X62057173Y-38299775D01*
X62134248Y-38255276D01*
X62205277Y-38184247D01*
X62255502Y-38097254D01*
X62281501Y-38000225D01*
X62281501Y-37899775D01*
X62255502Y-37802746D01*
X62205277Y-37715753D01*
X62134248Y-37644724D01*
X62105250Y-37627982D01*
X62047259Y-37594501D01*
X62047256Y-37594500D01*
X62047255Y-37594499D01*
X62047253Y-37594498D01*
X62047252Y-37594498D01*
X62008994Y-37584247D01*
X61950226Y-37568500D01*
X61849776Y-37568500D01*
X61797780Y-37582432D01*
X61752749Y-37594498D01*
X61752742Y-37594501D01*
X61665755Y-37644723D01*
X61594724Y-37715754D01*
X61544502Y-37802741D01*
X61544500Y-37802746D01*
X61518501Y-37899775D01*
X49619298Y-37899775D01*
X49564247Y-37844724D01*
X49491542Y-37802748D01*
X49477258Y-37794501D01*
X49477255Y-37794500D01*
X49477254Y-37794499D01*
X49477252Y-37794498D01*
X49477251Y-37794498D01*
X49451253Y-37787532D01*
X49380225Y-37768500D01*
X49279775Y-37768500D01*
X49227779Y-37782432D01*
X49182748Y-37794498D01*
X49182741Y-37794501D01*
X49095754Y-37844723D01*
X49024723Y-37915754D01*
X48974501Y-38002741D01*
X48974498Y-38002748D01*
X48961897Y-38049776D01*
X48948500Y-38099775D01*
X40381500Y-38099775D01*
X40381500Y-36899775D01*
X60218500Y-36899775D01*
X60218500Y-37000225D01*
X60244499Y-37097254D01*
X60294724Y-37184247D01*
X60365753Y-37255276D01*
X60452746Y-37305501D01*
X60549775Y-37331500D01*
X60549777Y-37331500D01*
X60650223Y-37331500D01*
X60650225Y-37331500D01*
X60747254Y-37305501D01*
X60757172Y-37299775D01*
X65318499Y-37299775D01*
X65318499Y-37400225D01*
X65344498Y-37497254D01*
X65394723Y-37584247D01*
X65465752Y-37655276D01*
X65552745Y-37705501D01*
X65649774Y-37731500D01*
X65649776Y-37731500D01*
X65750222Y-37731500D01*
X65750224Y-37731500D01*
X65847253Y-37705501D01*
X65934246Y-37655276D01*
X66005275Y-37584247D01*
X66055500Y-37497254D01*
X66081499Y-37400225D01*
X66081499Y-37299775D01*
X66055500Y-37202746D01*
X66005275Y-37115753D01*
X65934246Y-37044724D01*
X65857171Y-37000225D01*
X65847257Y-36994501D01*
X65847254Y-36994500D01*
X65847253Y-36994499D01*
X65847251Y-36994498D01*
X65847250Y-36994498D01*
X65821252Y-36987532D01*
X65750224Y-36968500D01*
X65649774Y-36968500D01*
X65597778Y-36982432D01*
X65552747Y-36994498D01*
X65552740Y-36994501D01*
X65465753Y-37044723D01*
X65394722Y-37115754D01*
X65344500Y-37202741D01*
X65344497Y-37202748D01*
X65329482Y-37258786D01*
X65318499Y-37299775D01*
X60757172Y-37299775D01*
X60834247Y-37255276D01*
X60905276Y-37184247D01*
X60955501Y-37097254D01*
X60981500Y-37000225D01*
X60981500Y-36899775D01*
X60955501Y-36802746D01*
X60905276Y-36715753D01*
X60834247Y-36644724D01*
X60805249Y-36627982D01*
X60747258Y-36594501D01*
X60747255Y-36594500D01*
X60747254Y-36594499D01*
X60747252Y-36594498D01*
X60747251Y-36594498D01*
X60721253Y-36587532D01*
X60650225Y-36568500D01*
X60549775Y-36568500D01*
X60516187Y-36577500D01*
X60452748Y-36594498D01*
X60452741Y-36594501D01*
X60365754Y-36644723D01*
X60294723Y-36715754D01*
X60244501Y-36802741D01*
X60244499Y-36802746D01*
X60218500Y-36899775D01*
X40381500Y-36899775D01*
X40381500Y-35574775D01*
X53543500Y-35574775D01*
X53543500Y-35675225D01*
X53569499Y-35772254D01*
X53619724Y-35859247D01*
X53690753Y-35930276D01*
X53777746Y-35980501D01*
X53874775Y-36006500D01*
X53874777Y-36006500D01*
X53975223Y-36006500D01*
X53975225Y-36006500D01*
X54072254Y-35980501D01*
X54159247Y-35930276D01*
X54230276Y-35859247D01*
X54280501Y-35772254D01*
X54306500Y-35675225D01*
X54306500Y-35574775D01*
X54287462Y-35503725D01*
X84132500Y-35503725D01*
X84132500Y-35696275D01*
X84170064Y-35885126D01*
X84209568Y-35980498D01*
X84243752Y-36063024D01*
X84350005Y-36222042D01*
X84350726Y-36223120D01*
X84486880Y-36359274D01*
X84566391Y-36412401D01*
X84646975Y-36466247D01*
X84646976Y-36466247D01*
X84646980Y-36466250D01*
X84824874Y-36539936D01*
X85013725Y-36577500D01*
X85013728Y-36577500D01*
X85206271Y-36577500D01*
X85206275Y-36577500D01*
X85395126Y-36539936D01*
X85573020Y-36466250D01*
X85733120Y-36359274D01*
X85869274Y-36223120D01*
X85976250Y-36063020D01*
X86049936Y-35885126D01*
X86087500Y-35696275D01*
X86087500Y-35503725D01*
X86049936Y-35314874D01*
X85976250Y-35136980D01*
X85869274Y-34976880D01*
X85733120Y-34840726D01*
X85719312Y-34831500D01*
X85573024Y-34733752D01*
X85573021Y-34733750D01*
X85573020Y-34733750D01*
X85395126Y-34660064D01*
X85206275Y-34622500D01*
X85013725Y-34622500D01*
X84872086Y-34650673D01*
X84824873Y-34660064D01*
X84646975Y-34733752D01*
X84486882Y-34840724D01*
X84350724Y-34976882D01*
X84243752Y-35136975D01*
X84243750Y-35136980D01*
X84170064Y-35314874D01*
X84132500Y-35503725D01*
X54287462Y-35503725D01*
X54280501Y-35477746D01*
X54230276Y-35390753D01*
X54159247Y-35319724D01*
X54130249Y-35302982D01*
X54072258Y-35269501D01*
X54072255Y-35269500D01*
X54072254Y-35269499D01*
X54072252Y-35269498D01*
X54072251Y-35269498D01*
X54046253Y-35262532D01*
X53975225Y-35243500D01*
X53874775Y-35243500D01*
X53822779Y-35257432D01*
X53777748Y-35269498D01*
X53777741Y-35269501D01*
X53690754Y-35319723D01*
X53619723Y-35390754D01*
X53569501Y-35477741D01*
X53569499Y-35477746D01*
X53543500Y-35574775D01*
X40381500Y-35574775D01*
X40381500Y-34399775D01*
X46718500Y-34399775D01*
X46718500Y-34500225D01*
X46737532Y-34571253D01*
X46744498Y-34597251D01*
X46744501Y-34597258D01*
X46777982Y-34655249D01*
X46794724Y-34684247D01*
X46865753Y-34755276D01*
X46952746Y-34805501D01*
X47049775Y-34831500D01*
X47049777Y-34831500D01*
X47150223Y-34831500D01*
X47150225Y-34831500D01*
X47247254Y-34805501D01*
X47334247Y-34755276D01*
X47405276Y-34684247D01*
X47455501Y-34597254D01*
X47481500Y-34500225D01*
X47481500Y-34399775D01*
X47455501Y-34302746D01*
X47405276Y-34215753D01*
X47334247Y-34144724D01*
X47305249Y-34127982D01*
X47247258Y-34094501D01*
X47247255Y-34094500D01*
X47247254Y-34094499D01*
X47247252Y-34094498D01*
X47247251Y-34094498D01*
X47208993Y-34084247D01*
X47150225Y-34068500D01*
X47049775Y-34068500D01*
X46997779Y-34082432D01*
X46952748Y-34094498D01*
X46952741Y-34094501D01*
X46865754Y-34144723D01*
X46794723Y-34215754D01*
X46744501Y-34302741D01*
X46744499Y-34302746D01*
X46718500Y-34399775D01*
X40381500Y-34399775D01*
X40381500Y-33799775D01*
X53638500Y-33799775D01*
X53638500Y-33900225D01*
X53664499Y-33997254D01*
X53714724Y-34084247D01*
X53785753Y-34155276D01*
X53872746Y-34205501D01*
X53969775Y-34231500D01*
X53969777Y-34231500D01*
X54070223Y-34231500D01*
X54070225Y-34231500D01*
X54167254Y-34205501D01*
X54254247Y-34155276D01*
X54325276Y-34084247D01*
X54375501Y-33997254D01*
X54401500Y-33900225D01*
X54401500Y-33799775D01*
X54375501Y-33702746D01*
X54325276Y-33615753D01*
X54254247Y-33544724D01*
X54225249Y-33527982D01*
X54167258Y-33494501D01*
X54167255Y-33494500D01*
X54167254Y-33494499D01*
X54167252Y-33494498D01*
X54167251Y-33494498D01*
X54141253Y-33487532D01*
X54070225Y-33468500D01*
X53969775Y-33468500D01*
X53917779Y-33482432D01*
X53872748Y-33494498D01*
X53872741Y-33494501D01*
X53785754Y-33544723D01*
X53714723Y-33615754D01*
X53664501Y-33702741D01*
X53664499Y-33702746D01*
X53638500Y-33799775D01*
X40381500Y-33799775D01*
X40381500Y-32699775D01*
X45868500Y-32699775D01*
X45868500Y-32800225D01*
X45894499Y-32897254D01*
X45944724Y-32984247D01*
X46015753Y-33055276D01*
X46102746Y-33105501D01*
X46199775Y-33131500D01*
X46199777Y-33131500D01*
X46300223Y-33131500D01*
X46300225Y-33131500D01*
X46397254Y-33105501D01*
X46484247Y-33055276D01*
X46555276Y-32984247D01*
X46605501Y-32897254D01*
X46631500Y-32800225D01*
X46631500Y-32699775D01*
X46605501Y-32602746D01*
X46598012Y-32589775D01*
X48318500Y-32589775D01*
X48318500Y-32690225D01*
X48321179Y-32700223D01*
X48344498Y-32787251D01*
X48344501Y-32787258D01*
X48351988Y-32800225D01*
X48394724Y-32874247D01*
X48465753Y-32945276D01*
X48552746Y-32995501D01*
X48649775Y-33021500D01*
X48649777Y-33021500D01*
X48750223Y-33021500D01*
X48750225Y-33021500D01*
X48847254Y-32995501D01*
X48934247Y-32945276D01*
X49005276Y-32874247D01*
X49055501Y-32787254D01*
X49081500Y-32690225D01*
X49081500Y-32599775D01*
X50318500Y-32599775D01*
X50318500Y-32700225D01*
X50337532Y-32771253D01*
X50341820Y-32787258D01*
X50344499Y-32797254D01*
X50394724Y-32884247D01*
X50465753Y-32955276D01*
X50552746Y-33005501D01*
X50649775Y-33031500D01*
X50649777Y-33031500D01*
X50750223Y-33031500D01*
X50750225Y-33031500D01*
X50847254Y-33005501D01*
X50934247Y-32955276D01*
X51005276Y-32884247D01*
X51055501Y-32797254D01*
X51081500Y-32700225D01*
X51081500Y-32599775D01*
X51055501Y-32502746D01*
X51005276Y-32415753D01*
X50934247Y-32344724D01*
X50905249Y-32327982D01*
X50847258Y-32294501D01*
X50847255Y-32294500D01*
X50847254Y-32294499D01*
X50847252Y-32294498D01*
X50847251Y-32294498D01*
X50809941Y-32284501D01*
X50750225Y-32268500D01*
X50649775Y-32268500D01*
X50597779Y-32282432D01*
X50552748Y-32294498D01*
X50552741Y-32294501D01*
X50465754Y-32344723D01*
X50394723Y-32415754D01*
X50344501Y-32502741D01*
X50344498Y-32502748D01*
X50341013Y-32515754D01*
X50318500Y-32599775D01*
X49081500Y-32599775D01*
X49081500Y-32589775D01*
X49055501Y-32492746D01*
X49005276Y-32405753D01*
X48934247Y-32334724D01*
X48864573Y-32294498D01*
X48847258Y-32284501D01*
X48847255Y-32284500D01*
X48847254Y-32284499D01*
X48847252Y-32284498D01*
X48847251Y-32284498D01*
X48821253Y-32277532D01*
X48750225Y-32258500D01*
X48649775Y-32258500D01*
X48612455Y-32268500D01*
X48552748Y-32284498D01*
X48552741Y-32284501D01*
X48465754Y-32334723D01*
X48394723Y-32405754D01*
X48344501Y-32492741D01*
X48344498Y-32492748D01*
X48341819Y-32502746D01*
X48318500Y-32589775D01*
X46598012Y-32589775D01*
X46555276Y-32515753D01*
X46484247Y-32444724D01*
X46434069Y-32415754D01*
X46397258Y-32394501D01*
X46397255Y-32394500D01*
X46397254Y-32394499D01*
X46397252Y-32394498D01*
X46397251Y-32394498D01*
X46371253Y-32387532D01*
X46300225Y-32368500D01*
X46199775Y-32368500D01*
X46147779Y-32382432D01*
X46102748Y-32394498D01*
X46102741Y-32394501D01*
X46015754Y-32444723D01*
X45944723Y-32515754D01*
X45894501Y-32602741D01*
X45894499Y-32602746D01*
X45868500Y-32699775D01*
X40381500Y-32699775D01*
X40381500Y-30999775D01*
X57118500Y-30999775D01*
X57118500Y-31100225D01*
X57144499Y-31197254D01*
X57194724Y-31284247D01*
X57265753Y-31355276D01*
X57352746Y-31405501D01*
X57449775Y-31431500D01*
X57449777Y-31431500D01*
X57550223Y-31431500D01*
X57550225Y-31431500D01*
X57647254Y-31405501D01*
X57734247Y-31355276D01*
X57805276Y-31284247D01*
X57855501Y-31197254D01*
X57881500Y-31100225D01*
X57881500Y-30999775D01*
X57855501Y-30902746D01*
X57805276Y-30815753D01*
X57734247Y-30744724D01*
X57705249Y-30727982D01*
X57647258Y-30694501D01*
X57647255Y-30694500D01*
X57647254Y-30694499D01*
X57647252Y-30694498D01*
X57647251Y-30694498D01*
X57621253Y-30687532D01*
X57550225Y-30668500D01*
X57449775Y-30668500D01*
X57397779Y-30682432D01*
X57352748Y-30694498D01*
X57352741Y-30694501D01*
X57265754Y-30744723D01*
X57194723Y-30815754D01*
X57144501Y-30902741D01*
X57144499Y-30902746D01*
X57118500Y-30999775D01*
X40381500Y-30999775D01*
X40381500Y-29399775D01*
X49418500Y-29399775D01*
X49418500Y-29500225D01*
X49444499Y-29597254D01*
X49494724Y-29684247D01*
X49565753Y-29755276D01*
X49652746Y-29805501D01*
X49749775Y-29831500D01*
X49749777Y-29831500D01*
X49850223Y-29831500D01*
X49850225Y-29831500D01*
X49947254Y-29805501D01*
X50034247Y-29755276D01*
X50105276Y-29684247D01*
X50155501Y-29597254D01*
X50181500Y-29500225D01*
X50181500Y-29499775D01*
X75518500Y-29499775D01*
X75518500Y-29600225D01*
X75544499Y-29697254D01*
X75594724Y-29784247D01*
X75665753Y-29855276D01*
X75752746Y-29905501D01*
X75849775Y-29931500D01*
X75849777Y-29931500D01*
X75950223Y-29931500D01*
X75950225Y-29931500D01*
X76047254Y-29905501D01*
X76134247Y-29855276D01*
X76205276Y-29784247D01*
X76255501Y-29697254D01*
X76281500Y-29600225D01*
X76281500Y-29499775D01*
X76255501Y-29402746D01*
X76205276Y-29315753D01*
X76134247Y-29244724D01*
X76084069Y-29215754D01*
X76047258Y-29194501D01*
X76047255Y-29194500D01*
X76047254Y-29194499D01*
X76047252Y-29194498D01*
X76047251Y-29194498D01*
X76021253Y-29187532D01*
X75950225Y-29168500D01*
X75849775Y-29168500D01*
X75797779Y-29182432D01*
X75752748Y-29194498D01*
X75752741Y-29194501D01*
X75665754Y-29244723D01*
X75594723Y-29315754D01*
X75544501Y-29402741D01*
X75544499Y-29402746D01*
X75518500Y-29499775D01*
X50181500Y-29499775D01*
X50181500Y-29399775D01*
X50155501Y-29302746D01*
X50105276Y-29215753D01*
X50034247Y-29144724D01*
X50005249Y-29127982D01*
X49947258Y-29094501D01*
X49947255Y-29094500D01*
X49947254Y-29094499D01*
X49947252Y-29094498D01*
X49947251Y-29094498D01*
X49921253Y-29087532D01*
X49850225Y-29068500D01*
X49749775Y-29068500D01*
X49697779Y-29082432D01*
X49652748Y-29094498D01*
X49652741Y-29094501D01*
X49565754Y-29144723D01*
X49494723Y-29215754D01*
X49444501Y-29302741D01*
X49444498Y-29302748D01*
X49441013Y-29315754D01*
X49418500Y-29399775D01*
X40381500Y-29399775D01*
X40381500Y-23001238D01*
X40381569Y-22998771D01*
X40384321Y-22949775D01*
X40397827Y-22709270D01*
X40398377Y-22704392D01*
X40446740Y-22419745D01*
X40447829Y-22414974D01*
X40527760Y-22137527D01*
X40529378Y-22132900D01*
X40639869Y-21866152D01*
X40642008Y-21861712D01*
X40781665Y-21609022D01*
X40784277Y-21604866D01*
X40951351Y-21369396D01*
X40954415Y-21365555D01*
X41146802Y-21150274D01*
X41150274Y-21146802D01*
X41365555Y-20954415D01*
X41369396Y-20951351D01*
X41604866Y-20784277D01*
X41609022Y-20781665D01*
X41861718Y-20642004D01*
X41866152Y-20639869D01*
X42132900Y-20529378D01*
X42137527Y-20527760D01*
X42414974Y-20447829D01*
X42419745Y-20446740D01*
X42704392Y-20398377D01*
X42709270Y-20397827D01*
X42998771Y-20381568D01*
X43001238Y-20381500D01*
X43054851Y-20381500D01*
X86945149Y-20381500D01*
X86998762Y-20381500D01*
X87001228Y-20381568D01*
G37*
%TD.AperFunction*%
%TD*%
M02*
