M48
; DRILL file {KiCad 9.0.1} date 2025-05-12T23:36:48-0400
; FORMAT={-:-/ absolute / inch / decimal}
; #@! TF.CreationDate,2025-05-12T23:36:48-04:00
; #@! TF.GenerationSoftware,Kicad,Pcbnew,9.0.1
; #@! TF.FileFunction,Plated,1,4,PTH
FMAT,2
INCH
; #@! TA.AperFunction,Plated,PTH,ViaDrill
T1C0.0100
; #@! TA.AperFunction,Plated,PTH,ViaDrill
T2C0.0142
; #@! TA.AperFunction,Plated,PTH,ComponentDrill
T3C0.0236
; #@! TA.AperFunction,Plated,PTH,ComponentDrill
T4C0.0315
; #@! TA.AperFunction,Plated,PTH,ComponentDrill
T5C0.0394
; #@! TA.AperFunction,Plated,PTH,ComponentDrill
T6C0.0433
; #@! TA.AperFunction,Plated,PTH,ComponentDrill
T7C0.1063
; #@! TA.AperFunction,Plated,PTH,ComponentDrill
T8C0.1260
%
G90
G05
T1
X1.6421Y-4.3071
X1.6453Y-4.0673
X1.6457Y-1.8669
X1.6496Y-1.7898
X1.6622Y-2.6992
X1.6634Y-2.7677
X1.6827Y-3.2524
X1.685Y-2.126
X1.685Y-2.3811
X1.6878Y-3.0887
X1.7067Y-1.4744
X1.7079Y-2.3559
X1.7319Y-2.5868
X1.7323Y-1.1614
X1.7323Y-2.8976
X1.7343Y-1.8031
X1.7354Y-2.3547
X1.7362Y-2.3299
X1.75Y-2.4461
X1.761Y-2.5819
X1.7913Y-2.0472
X1.795Y-2.1856
X1.7953Y-2.6398
X1.811Y-2.7953
X1.8209Y-1.2894
X1.828Y-1.5571
X1.8291Y-2.7602
X1.8346Y-1.4961
X1.8425Y-2.2638
X1.8449Y-1.1028
X1.8504Y-2.7992
X1.8531Y-2.7591
X1.8543Y-1.3563
X1.8551Y-1.5484
X1.8701Y-4.4488
X1.874Y-2.4783
X1.8941Y-1.6394
X1.9071Y-3.9752
X1.9094Y-2.9055
X1.9134Y-1.4291
X1.9134Y-2.2559
X1.915Y-2.0035
X1.9173Y-1.285
X1.9252Y-0.9724
X1.9315Y-2.2736
X1.9331Y-3.6024
X1.9343Y-3.7827
X1.937Y-4.1378
X1.9409Y-1.6358
X1.9409Y-1.9744
X1.9421Y-1.502
X1.9449Y-1.2815
X1.9469Y-3.5063
X1.9606Y-1.1594
X1.9646Y-1.9665
X1.9724Y-1.935
X1.9764Y-1.5768
X1.9764Y-1.8701
X1.978Y-1.552
X1.9882Y-1.6614
X1.9882Y-2.4409
X1.9961Y-1.2854
X2.004Y-3.5335
X2.0079Y-2.9921
X2.0079Y-3.189
X2.0098Y-1.8051
X2.0154Y-2.3539
X2.024Y-3.089
X2.0276Y-1.5157
X2.0307Y-2.3732
X2.0472Y-3.4055
X2.0551Y-4.3858
X2.0626Y-4.024
X2.0658Y-3.8888
X2.0866Y-2.874
X2.0945Y-2.4429
X2.0945Y-3.9528
X2.1024Y-3.8661
X2.1063Y-1.4567
X2.1063Y-1.6496
X2.1063Y-2.6969
X2.1063Y-4.1654
X2.1087Y-1.8071
X2.123Y-1.4026
X2.123Y-1.5443
X2.1232Y-1.5079
X2.126Y-1.7874
X2.1268Y-1.3327
X2.1287Y-2.528
X2.1299Y-2.2087
X2.1378Y-2.4783
X2.1432Y-0.9549
X2.1496Y-2.5
X2.1496Y-3.378
X2.164Y-3.2679
X2.1732Y-2.6407
X2.1772Y-4.2205
X2.187Y-2.5354
X2.1929Y-1.7224
X2.1993Y-2.6396
X2.2028Y-2.9154
X2.2134Y-2.55
X2.2165Y-1.7008
X2.2244Y-2.0669
X2.2323Y-3.4685
X2.2329Y-2.6457
X2.2461Y-3.065
X2.2559Y-3.8898
X2.2598Y-2.6575
X2.2638Y-1.2224
X2.2705Y-3.2612
X2.2803Y-1.4512
X2.2944Y-2.633
X2.2972Y-2.7083
X2.3031Y-1.5906
X2.311Y-4.3858
X2.3169Y-2.7303
X2.3189Y-2.6594
X2.3217Y-1.4677
X2.3295Y-1.5707
X2.3346Y-2.5059
X2.339Y-2.7453
X2.3425Y-3.1299
X2.3492Y-2.7803
X2.3622Y-2.3819
X2.3622Y-4.2638
X2.3646Y-2.7339
X2.3661Y-3.4606
X2.374Y-3.8937
X2.376Y-2.7988
X2.3858Y-1.4547
X2.3901Y-3.398
X2.3913Y-2.7335
X2.3917Y-1.8622
X2.398Y-2.8098
X2.4016Y-1.0039
X2.437Y-1.4941
X2.4425Y-3.1681
X2.4496Y-1.4736
X2.4665Y-2.2182
X2.4764Y-2.685
X2.489Y-3.0039
X2.5073Y-3.3084
X2.5079Y-4.252
X2.5197Y-1.7244
X2.5197Y-4.4882
X2.5591Y-1.1043
X2.5591Y-2.6772
X2.5709Y-1.4213
X2.5787Y-1.5098
X2.5866Y-1.4705
X2.5874Y-3.189
X2.5984Y-4.6535
X2.6087Y-1.6862
X2.6181Y-2.126
X2.6181Y-2.874
X2.6197Y-4.1146
X2.6291Y-2.9898
X2.6382Y-1.5866
X2.6417Y-2.8169
X2.6516Y-2.5118
X2.6516Y-4.189
X2.6547Y-2.9898
X2.6594Y-1.6697
X2.672Y-2.7811
X2.6791Y-1.615
X2.6809Y-1.8841
X2.686Y-2.9818
X2.687Y-3.0098
X2.689Y-1.7126
X2.6909Y-4.0354
X2.6969Y-1.502
X2.6969Y-2.7618
X2.7035Y-3.9323
X2.7106Y-3.6772
X2.7157Y-1.5177
X2.7205Y-1.9843
X2.7264Y-1.4437
X2.7287Y-3.0035
X2.7327Y-1.7691
X2.7343Y-3.1126
X2.752Y-3.4252
X2.7559Y-1.5315
X2.7559Y-2.3228
X2.761Y-1.7118
X2.7638Y-3.5945
X2.769Y-1.479
X2.7717Y-1.5157
X2.7717Y-1.5472
X2.7795Y-2.7264
X2.7795Y-2.8602
X2.7829Y-1.4651
X2.7835Y-1.7264
X2.7866Y-2.835
X2.7874Y-1.563
X2.7874Y-1.8538
X2.7874Y-4.063
X2.7957Y-2.9106
X2.7968Y-1.4512
X2.7992Y-1.2953
X2.8Y-0.8598
X2.8012Y-1.6004
X2.8031Y-1.5787
X2.8071Y-3.7835
X2.8098Y-1.9106
X2.8107Y-1.4373
X2.811Y-3.937
X2.8115Y-1.7849
X2.8247Y-1.4234
X2.8256Y-2.75
X2.8287Y-3.4941
X2.8307Y-2.6575
X2.8319Y-2.913
X2.8346Y-3.1142
X2.8386Y-1.4094
X2.852Y-1.9256
X2.8522Y-1.6317
X2.8525Y-1.4234
X2.8654Y-2.6614
X2.8661Y-1.6457
X2.8661Y-1.8189
X2.8661Y-2.7343
X2.8664Y-1.4373
X2.8799Y-1.6594
X2.8803Y-1.4512
X2.8937Y-1.2598
X2.8937Y-1.6732
X2.8937Y-2.565
X2.8943Y-1.4651
X2.902Y-1.8557
X2.9082Y-1.479
X2.9094Y-1.689
X2.9094Y-1.7146
X2.9181Y-3.0087
X2.9189Y-2.5445
X2.9217Y-2.8283
X2.922Y-3.189
X2.9221Y-1.493
X2.9252Y-1.6732
X2.9291Y-3.0984
X2.9311Y-2.5846
X2.936Y-1.5069
X2.9406Y-1.7346
X2.9409Y-1.685
X2.9416Y-2.8927
X2.9499Y-1.5208
X2.9516Y-1.8854
X2.9549Y-1.6711
X2.9639Y-1.5347
X2.9646Y-3.9764
X2.9665Y-2.6063
X2.9688Y-1.6572
X2.9705Y-1.7579
X2.9724Y-3.9016
X2.9728Y-1.9512
X2.9728Y-3.1681
X2.974Y-1.7232
X2.9764Y-0.8858
X2.9764Y-3.1358
X2.9778Y-1.5486
X2.9827Y-1.6433
X2.9882Y-1.1634
X2.9917Y-1.5626
X2.9966Y-1.6294
X2.998Y-1.963
X2.9992Y-3.1713
X2.9997Y-3.2063
X3.0039Y-1.6043
X3.0056Y-1.5765
X3.0157Y-2.4614
X3.0195Y-1.5904
X3.0234Y-2.0883
X3.0236Y-1.8031
X3.0236Y-1.9941
X3.0236Y-2.4382
X3.0354Y-1.8327
X3.0366Y-3.1776
X3.0413Y-1.185
X3.0433Y-1.7835
X3.0472Y-1.5551
X3.0474Y-3.1541
X3.0512Y-2.2776
X3.0512Y-1.8563
X3.0512Y-3.3661
X3.0591Y-4.0689
X3.065Y-3.6654
X3.0669Y-1.7756
X3.0689Y-2.5846
X3.0707Y-3.148
X3.0709Y-0.9606
X3.0709Y-1.8701
X3.076Y-1.6417
X3.0787Y-1.4488
X3.0827Y-1.7598
X3.0866Y-1.8858
X3.0906Y-2.372
X3.0917Y-2.0201
X3.0945Y-2.6476
X3.0986Y-1.7479
X3.1102Y-3.7795
X3.1125Y-1.7618
X3.1264Y-1.7757
X3.1319Y-2.4331
X3.1403Y-1.7897
X3.1514Y-1.9467
X3.1535Y-1.1772
X3.1543Y-1.8036
X3.159Y-1.5386
X3.1654Y-1.9606
X3.1682Y-1.8175
X3.1693Y-1.3271
X3.1693Y-3.3661
X3.1697Y-4.1752
X3.1793Y-1.9745
X3.1801Y-1.6447
X3.1821Y-1.8314
X3.185Y-2.2736
X3.185Y-4.6535
X3.189Y-4.5472
X3.1925Y-2.9902
X3.1932Y-1.9885
X3.196Y-1.8453
X3.1969Y-2.3543
X3.2007Y-2.2554
X3.2067Y-1.0453
X3.2099Y-1.8593
X3.212Y-2.0006
X3.2165Y-2.5669
X3.2219Y-2.2368
X3.2238Y-1.8732
X3.226Y-1.9866
X3.2378Y-1.8871
X3.2399Y-1.9727
X3.2417Y-2.215
X3.2517Y-1.901
X3.2538Y-1.9588
X3.2567Y-3.1528
X3.2638Y-2.187
X3.2656Y-1.9149
X3.2677Y-1.9449
X3.2713Y-1.6673
X3.2795Y-1.9289
X3.311Y-3.2559
X3.3228Y-2.6575
X3.3268Y-1.4567
X3.3268Y-2.0472
X3.3425Y-2.311
X3.3504Y-1.1024
X3.3504Y-2.9252
X3.3661Y-1.5
X3.3858Y-3.2283
X3.4298Y-1.247
X3.4646Y-3.0236
X3.4705Y-1.9409
X3.4744Y-2.3091
X3.4764Y-2.2559
X3.4961Y-1.4823
X3.498Y-2.628
X3.5Y-3.502
X3.5039Y-3.9331
X3.5039Y-4.2579
T2
X2.2756Y-3.6299
X2.3071Y-3.9528
X2.3246Y-4.0313
X2.4803Y-3.9882
X2.5551Y-3.5571
T4
X2.9063Y-4.1446
X2.9063Y-4.3414
T5
X1.6559Y-3.4646
X1.6559Y-3.6063
X1.6559Y-3.748
X1.6559Y-3.8898
X1.7559Y-3.4646
X1.7559Y-3.6063
X1.7559Y-3.748
X1.7559Y-3.8898
X1.8559Y-3.4646
X1.8559Y-3.6063
X1.8559Y-3.748
X1.8559Y-3.8898
X1.9685Y-4.4449
X1.9685Y-4.5449
X1.9685Y-4.6449
X2.1102Y-4.4449
X2.1102Y-4.5449
X2.1102Y-4.6449
X2.252Y-4.4449
X2.252Y-4.5449
X2.252Y-4.6449
X2.3937Y-4.4449
X2.3937Y-4.5449
X2.3937Y-4.6449
X3.3508Y-1.4016
X3.3508Y-2.4016
X3.4508Y-1.4016
X3.4508Y-2.4016
T6
X1.7323Y-4.0386
X1.7323Y-4.1386
X1.7323Y-4.2386
X1.7323Y-4.3386
X3.3858Y-3.4252
X3.3858Y-3.5252
X3.3858Y-3.6252
X3.3858Y-3.7252
X3.3858Y-3.8252
X3.3858Y-3.9252
X3.3858Y-4.0252
X3.3858Y-4.1252
X3.3858Y-4.2252
X3.3858Y-4.3252
T7
X2.7559Y-4.5669
X2.9528Y-4.5669
T8
X1.7323Y-0.9449
X1.7323Y-4.5669
X3.3858Y-0.9449
X3.3858Y-4.5669
T3
G00X1.7156Y-2.9953
M15
G01X1.6841Y-2.9953
M16
G05
G00X1.7156Y-3.3354
M15
G01X1.6841Y-3.3354
M16
G05
G00X1.886Y-2.9953
M15
G01X1.8427Y-2.9953
M16
G05
G00X1.886Y-3.3354
M15
G01X1.8427Y-3.3354
M16
G05
M30
