%TF.GenerationSoftware,KiCad,Pcbnew,9.0.1*%
%TF.CreationDate,2025-05-13T00:09:27-04:00*%
%TF.ProjectId,CRVFCU,43525646-4355-42e6-9b69-6361645f7063,rev?*%
%TF.SameCoordinates,Original*%
%TF.FileFunction,Paste,Top*%
%TF.FilePolarity,Positive*%
%FSLAX46Y46*%
G04 Gerber Fmt 4.6, Leading zero omitted, Abs format (unit mm)*
G04 Created by KiCad (PCBNEW 9.0.1) date 2025-05-13 00:09:27*
%MOMM*%
%LPD*%
G01*
G04 APERTURE LIST*
G04 Aperture macros list*
%AMRoundRect*
0 Rectangle with rounded corners*
0 $1 Rounding radius*
0 $2 $3 $4 $5 $6 $7 $8 $9 X,Y pos of 4 corners*
0 Add a 4 corners polygon primitive as box body*
4,1,4,$2,$3,$4,$5,$6,$7,$8,$9,$2,$3,0*
0 Add four circle primitives for the rounded corners*
1,1,$1+$1,$2,$3*
1,1,$1+$1,$4,$5*
1,1,$1+$1,$6,$7*
1,1,$1+$1,$8,$9*
0 Add four rect primitives between the rounded corners*
20,1,$1+$1,$2,$3,$4,$5,0*
20,1,$1+$1,$4,$5,$6,$7,0*
20,1,$1+$1,$6,$7,$8,$9,0*
20,1,$1+$1,$8,$9,$2,$3,0*%
%AMRotRect*
0 Rectangle, with rotation*
0 The origin of the aperture is its center*
0 $1 length*
0 $2 width*
0 $3 Rotation angle, in degrees counterclockwise*
0 Add horizontal line*
21,1,$1,$2,0,0,$3*%
G04 Aperture macros list end*
%ADD10RoundRect,0.135000X-0.185000X0.135000X-0.185000X-0.135000X0.185000X-0.135000X0.185000X0.135000X0*%
%ADD11RoundRect,0.135000X0.135000X0.185000X-0.135000X0.185000X-0.135000X-0.185000X0.135000X-0.185000X0*%
%ADD12RoundRect,0.140000X0.021213X-0.219203X0.219203X-0.021213X-0.021213X0.219203X-0.219203X0.021213X0*%
%ADD13RoundRect,0.140000X-0.021213X0.219203X-0.219203X0.021213X0.021213X-0.219203X0.219203X-0.021213X0*%
%ADD14RoundRect,0.150000X-0.700000X0.150000X-0.700000X-0.150000X0.700000X-0.150000X0.700000X0.150000X0*%
%ADD15RoundRect,0.250000X-1.100000X0.250000X-1.100000X-0.250000X1.100000X-0.250000X1.100000X0.250000X0*%
%ADD16RoundRect,0.225000X-0.225000X-0.375000X0.225000X-0.375000X0.225000X0.375000X-0.225000X0.375000X0*%
%ADD17RoundRect,0.140000X-0.170000X0.140000X-0.170000X-0.140000X0.170000X-0.140000X0.170000X0.140000X0*%
%ADD18R,0.950000X0.550000*%
%ADD19RoundRect,0.075000X0.424264X0.530330X-0.530330X-0.424264X-0.424264X-0.530330X0.530330X0.424264X0*%
%ADD20RoundRect,0.075000X-0.424264X0.530330X-0.530330X0.424264X0.424264X-0.530330X0.530330X-0.424264X0*%
%ADD21RoundRect,0.150000X-0.512500X-0.150000X0.512500X-0.150000X0.512500X0.150000X-0.512500X0.150000X0*%
%ADD22RoundRect,0.150000X-0.587500X-0.150000X0.587500X-0.150000X0.587500X0.150000X-0.587500X0.150000X0*%
%ADD23RoundRect,0.140000X0.170000X-0.140000X0.170000X0.140000X-0.170000X0.140000X-0.170000X-0.140000X0*%
%ADD24R,0.400000X0.500000*%
%ADD25RoundRect,0.218750X-0.218750X-0.256250X0.218750X-0.256250X0.218750X0.256250X-0.218750X0.256250X0*%
%ADD26RoundRect,0.087500X-0.225000X-0.087500X0.225000X-0.087500X0.225000X0.087500X-0.225000X0.087500X0*%
%ADD27RoundRect,0.087500X-0.087500X-0.225000X0.087500X-0.225000X0.087500X0.225000X-0.087500X0.225000X0*%
%ADD28RoundRect,0.135000X-0.135000X-0.185000X0.135000X-0.185000X0.135000X0.185000X-0.135000X0.185000X0*%
%ADD29RoundRect,0.218750X-0.026517X0.335876X-0.335876X0.026517X0.026517X-0.335876X0.335876X-0.026517X0*%
%ADD30RoundRect,0.135000X0.185000X-0.135000X0.185000X0.135000X-0.185000X0.135000X-0.185000X-0.135000X0*%
%ADD31RotRect,0.700000X0.700000X45.000000*%
%ADD32R,1.300000X1.100000*%
%ADD33RoundRect,0.375000X-0.625000X-0.375000X0.625000X-0.375000X0.625000X0.375000X-0.625000X0.375000X0*%
%ADD34RoundRect,0.500000X-0.500000X-1.400000X0.500000X-1.400000X0.500000X1.400000X-0.500000X1.400000X0*%
%ADD35R,0.375000X0.350000*%
%ADD36R,0.350000X0.375000*%
%ADD37RoundRect,0.150000X-0.150000X0.587500X-0.150000X-0.587500X0.150000X-0.587500X0.150000X0.587500X0*%
%ADD38RoundRect,0.150000X0.150000X0.700000X-0.150000X0.700000X-0.150000X-0.700000X0.150000X-0.700000X0*%
%ADD39RoundRect,0.250000X0.250000X1.100000X-0.250000X1.100000X-0.250000X-1.100000X0.250000X-1.100000X0*%
%ADD40RotRect,1.000000X1.800000X315.000000*%
%ADD41R,4.200000X2.000000*%
%ADD42RoundRect,0.150000X-0.625000X0.150000X-0.625000X-0.150000X0.625000X-0.150000X0.625000X0.150000X0*%
%ADD43RoundRect,0.250000X-0.650000X0.350000X-0.650000X-0.350000X0.650000X-0.350000X0.650000X0.350000X0*%
%ADD44RoundRect,0.150000X0.587500X0.150000X-0.587500X0.150000X-0.587500X-0.150000X0.587500X-0.150000X0*%
%ADD45RotRect,1.400000X1.200000X135.000000*%
%ADD46R,0.500000X0.400000*%
%ADD47R,0.500000X0.300000*%
%ADD48RoundRect,0.100000X0.100000X-0.225000X0.100000X0.225000X-0.100000X0.225000X-0.100000X-0.225000X0*%
%ADD49RoundRect,0.080000X0.160000X-0.080000X0.160000X0.080000X-0.160000X0.080000X-0.160000X-0.080000X0*%
%ADD50RoundRect,0.062500X0.062500X-0.325000X0.062500X0.325000X-0.062500X0.325000X-0.062500X-0.325000X0*%
%ADD51RoundRect,0.150000X-0.425000X0.150000X-0.425000X-0.150000X0.425000X-0.150000X0.425000X0.150000X0*%
%ADD52RoundRect,0.075000X-0.500000X0.075000X-0.500000X-0.075000X0.500000X-0.075000X0.500000X0.075000X0*%
%ADD53O,2.100000X1.000000*%
%ADD54O,1.800000X1.000000*%
G04 APERTURE END LIST*
D10*
%TO.C,R40*%
X66400000Y-91040000D03*
X66400000Y-92060000D03*
%TD*%
D11*
%TO.C,R17*%
X51060000Y-82900000D03*
X50040000Y-82900000D03*
%TD*%
D12*
%TO.C,C37*%
X77860589Y-46089411D03*
X78539411Y-45410589D03*
%TD*%
D13*
%TO.C,C52*%
X75339411Y-41160589D03*
X74660589Y-41839411D03*
%TD*%
D14*
%TO.C,VIDEO1*%
X45050000Y-68800000D03*
X45050000Y-70050000D03*
D15*
X41850000Y-66950000D03*
X41850000Y-71900000D03*
%TD*%
D16*
%TO.C,D1*%
X57750002Y-95500000D03*
X61050002Y-95500000D03*
%TD*%
D17*
%TO.C,C41*%
X82700000Y-35170000D03*
X82700000Y-36130000D03*
%TD*%
D18*
%TO.C,U1*%
X54875000Y-35575000D03*
X54875000Y-36825000D03*
X54875000Y-38075000D03*
X54875000Y-39325000D03*
X57025000Y-39325000D03*
X57025000Y-38075000D03*
X57025000Y-36825000D03*
X57025000Y-35575000D03*
%TD*%
D19*
%TO.C,U2*%
X81563976Y-52774590D03*
X81210423Y-52421037D03*
X80856870Y-52067484D03*
X80503316Y-51713930D03*
X80149763Y-51360377D03*
X79796209Y-51006823D03*
X79442656Y-50653270D03*
X79089103Y-50299717D03*
X78735549Y-49946163D03*
X78381996Y-49592610D03*
X78028442Y-49239057D03*
X77674889Y-48885503D03*
X77321336Y-48531950D03*
X76967782Y-48178396D03*
X76614229Y-47824843D03*
X76260675Y-47471290D03*
X75907122Y-47117736D03*
X75553569Y-46764183D03*
X75200015Y-46410629D03*
X74846462Y-46057076D03*
X74492909Y-45703523D03*
X74139355Y-45349969D03*
X73785802Y-44996416D03*
X73432248Y-44642862D03*
X73078695Y-44289309D03*
X72725142Y-43935756D03*
X72371588Y-43582202D03*
X72018035Y-43228649D03*
X71664481Y-42875096D03*
X71310928Y-42521542D03*
X70957375Y-42167989D03*
X70603821Y-41814435D03*
X70250268Y-41460882D03*
X69896714Y-41107329D03*
X69543161Y-40753775D03*
X69189608Y-40400222D03*
X68836054Y-40046668D03*
X68482501Y-39693115D03*
X68128948Y-39339562D03*
X67775394Y-38986008D03*
X67421841Y-38632455D03*
X67068287Y-38278901D03*
X66714734Y-37925348D03*
X66361181Y-37571795D03*
D20*
X63638819Y-37571795D03*
X63285266Y-37925348D03*
X62931713Y-38278901D03*
X62578159Y-38632455D03*
X62224606Y-38986008D03*
X61871052Y-39339562D03*
X61517499Y-39693115D03*
X61163946Y-40046668D03*
X60810392Y-40400222D03*
X60456839Y-40753775D03*
X60103286Y-41107329D03*
X59749732Y-41460882D03*
X59396179Y-41814435D03*
X59042625Y-42167989D03*
X58689072Y-42521542D03*
X58335519Y-42875096D03*
X57981965Y-43228649D03*
X57628412Y-43582202D03*
X57274858Y-43935756D03*
X56921305Y-44289309D03*
X56567752Y-44642862D03*
X56214198Y-44996416D03*
X55860645Y-45349969D03*
X55507091Y-45703523D03*
X55153538Y-46057076D03*
X54799985Y-46410629D03*
X54446431Y-46764183D03*
X54092878Y-47117736D03*
X53739325Y-47471290D03*
X53385771Y-47824843D03*
X53032218Y-48178396D03*
X52678664Y-48531950D03*
X52325111Y-48885503D03*
X51971558Y-49239057D03*
X51618004Y-49592610D03*
X51264451Y-49946163D03*
X50910897Y-50299717D03*
X50557344Y-50653270D03*
X50203791Y-51006823D03*
X49850237Y-51360377D03*
X49496684Y-51713930D03*
X49143130Y-52067484D03*
X48789577Y-52421037D03*
X48436024Y-52774590D03*
D19*
X48436024Y-55496952D03*
X48789577Y-55850505D03*
X49143130Y-56204058D03*
X49496684Y-56557612D03*
X49850237Y-56911165D03*
X50203791Y-57264719D03*
X50557344Y-57618272D03*
X50910897Y-57971825D03*
X51264451Y-58325379D03*
X51618004Y-58678932D03*
X51971558Y-59032485D03*
X52325111Y-59386039D03*
X52678664Y-59739592D03*
X53032218Y-60093146D03*
X53385771Y-60446699D03*
X53739325Y-60800252D03*
X54092878Y-61153806D03*
X54446431Y-61507359D03*
X54799985Y-61860913D03*
X55153538Y-62214466D03*
X55507091Y-62568019D03*
X55860645Y-62921573D03*
X56214198Y-63275126D03*
X56567752Y-63628680D03*
X56921305Y-63982233D03*
X57274858Y-64335786D03*
X57628412Y-64689340D03*
X57981965Y-65042893D03*
X58335519Y-65396446D03*
X58689072Y-65750000D03*
X59042625Y-66103553D03*
X59396179Y-66457107D03*
X59749732Y-66810660D03*
X60103286Y-67164213D03*
X60456839Y-67517767D03*
X60810392Y-67871320D03*
X61163946Y-68224874D03*
X61517499Y-68578427D03*
X61871052Y-68931980D03*
X62224606Y-69285534D03*
X62578159Y-69639087D03*
X62931713Y-69992641D03*
X63285266Y-70346194D03*
X63638819Y-70699747D03*
D20*
X66361181Y-70699747D03*
X66714734Y-70346194D03*
X67068287Y-69992641D03*
X67421841Y-69639087D03*
X67775394Y-69285534D03*
X68128948Y-68931980D03*
X68482501Y-68578427D03*
X68836054Y-68224874D03*
X69189608Y-67871320D03*
X69543161Y-67517767D03*
X69896714Y-67164213D03*
X70250268Y-66810660D03*
X70603821Y-66457107D03*
X70957375Y-66103553D03*
X71310928Y-65750000D03*
X71664481Y-65396446D03*
X72018035Y-65042893D03*
X72371588Y-64689340D03*
X72725142Y-64335786D03*
X73078695Y-63982233D03*
X73432248Y-63628680D03*
X73785802Y-63275126D03*
X74139355Y-62921573D03*
X74492909Y-62568019D03*
X74846462Y-62214466D03*
X75200015Y-61860913D03*
X75553569Y-61507359D03*
X75907122Y-61153806D03*
X76260675Y-60800252D03*
X76614229Y-60446699D03*
X76967782Y-60093146D03*
X77321336Y-59739592D03*
X77674889Y-59386039D03*
X78028442Y-59032485D03*
X78381996Y-58678932D03*
X78735549Y-58325379D03*
X79089103Y-57971825D03*
X79442656Y-57618272D03*
X79796209Y-57264719D03*
X80149763Y-56911165D03*
X80503316Y-56557612D03*
X80856870Y-56204058D03*
X81210423Y-55850505D03*
X81563976Y-55496952D03*
%TD*%
D21*
%TO.C,U14*%
X50050001Y-79700000D03*
X50050001Y-80650000D03*
X50050001Y-81600000D03*
X52325001Y-81600000D03*
X52325001Y-80650000D03*
X52325001Y-79700000D03*
%TD*%
D16*
%TO.C,D2*%
X57650000Y-106500000D03*
X60950000Y-106500000D03*
%TD*%
D12*
%TO.C,C38*%
X81460589Y-49739411D03*
X82139411Y-49060589D03*
%TD*%
D22*
%TO.C,Q4*%
X71550000Y-95050000D03*
X71550000Y-96950000D03*
X73425000Y-96000000D03*
%TD*%
D21*
%TO.C,U13*%
X47700000Y-44900000D03*
X47700000Y-45850000D03*
X47700000Y-46800000D03*
X49975000Y-46800000D03*
X49975000Y-45850000D03*
X49975000Y-44900000D03*
%TD*%
D17*
%TO.C,C9*%
X62300000Y-102020000D03*
X62300000Y-102980000D03*
%TD*%
D23*
%TO.C,C5*%
X62300002Y-89580000D03*
X62300002Y-88620000D03*
%TD*%
D24*
%TO.C,R15*%
X44100000Y-60480833D03*
X43400000Y-60480833D03*
X43400000Y-61480833D03*
X44100000Y-61480833D03*
%TD*%
D25*
%TO.C,5V_PWR1*%
X68402500Y-100710000D03*
X69977500Y-100710000D03*
%TD*%
D26*
%TO.C,U4*%
X48175000Y-30250000D03*
X48175000Y-30750000D03*
X48175000Y-31250000D03*
X48175000Y-31750000D03*
D27*
X48837500Y-31912500D03*
X49337500Y-31912500D03*
X49837500Y-31912500D03*
D26*
X50500000Y-31750000D03*
X50500000Y-31250000D03*
X50500000Y-30750000D03*
X50500000Y-30250000D03*
D27*
X49837500Y-30087500D03*
X49337500Y-30087500D03*
X48837500Y-30087500D03*
%TD*%
D28*
%TO.C,R41*%
X68940000Y-95050000D03*
X69960000Y-95050000D03*
%TD*%
D10*
%TO.C,R7*%
X56800000Y-29130001D03*
X56800000Y-30150001D03*
%TD*%
D21*
%TO.C,U9*%
X72637499Y-28399999D03*
X72637499Y-29349999D03*
X72637499Y-30299999D03*
X74912499Y-30299999D03*
X74912499Y-29349999D03*
X74912499Y-28399999D03*
%TD*%
D29*
%TO.C,LED1*%
X80205812Y-42394189D03*
X79092118Y-43507883D03*
%TD*%
D30*
%TO.C,R18*%
X51700000Y-31550001D03*
X51700000Y-30530001D03*
%TD*%
D12*
%TO.C,C50*%
X70960589Y-38039411D03*
X71639411Y-37360589D03*
%TD*%
D31*
%TO.C,NEOPIX1*%
X76878178Y-41876188D03*
X77655995Y-42654005D03*
X78950000Y-41360000D03*
X78172183Y-40582183D03*
%TD*%
D32*
%TO.C,Y3*%
X55300000Y-29940001D03*
X53200000Y-29940001D03*
X53200000Y-31590001D03*
X55300000Y-31590001D03*
%TD*%
D17*
%TO.C,C7*%
X52300000Y-104220000D03*
X52300000Y-105180000D03*
%TD*%
D33*
%TO.C,U7*%
X54200001Y-99300000D03*
X54200001Y-101600000D03*
D34*
X60500001Y-101600000D03*
D33*
X54200001Y-103900000D03*
%TD*%
D28*
%TO.C,R2*%
X57500001Y-97200000D03*
X58520001Y-97200000D03*
%TD*%
D35*
%TO.C,U3*%
X47705000Y-39050000D03*
X47705000Y-39550000D03*
X47705000Y-40050000D03*
X47705000Y-40550000D03*
D36*
X48217500Y-40562500D03*
X48717500Y-40562500D03*
D35*
X49230000Y-40550000D03*
X49230000Y-40050000D03*
X49230000Y-39550000D03*
X49230000Y-39050000D03*
D36*
X48717500Y-39037500D03*
X48217500Y-39037500D03*
%TD*%
D37*
%TO.C,Q5*%
X50300000Y-68775000D03*
X48400000Y-68775000D03*
X49350000Y-70650000D03*
%TD*%
D38*
%TO.C,RADIO_5VPWR_3V3IO1*%
X76499999Y-25050000D03*
X75249999Y-25050000D03*
X73999999Y-25050000D03*
X72749999Y-25050000D03*
X71499999Y-25050000D03*
X70249999Y-25050000D03*
D39*
X78349999Y-21850000D03*
X68399999Y-21850000D03*
%TD*%
D17*
%TO.C,C49*%
X56800000Y-31050000D03*
X56800000Y-32010000D03*
%TD*%
D11*
%TO.C,R13*%
X50610000Y-78300000D03*
X49590000Y-78300000D03*
%TD*%
D40*
%TO.C,Y1*%
X80894811Y-48419654D03*
X79127045Y-46651888D03*
%TD*%
D41*
%TO.C,BZ1*%
X71900000Y-84800000D03*
X71900000Y-92800000D03*
%TD*%
D42*
%TO.C,STEMMA_QT1*%
X45324998Y-44900000D03*
X45324998Y-45900000D03*
X45324998Y-46900000D03*
X45324998Y-47900000D03*
D43*
X41449998Y-43600000D03*
X41449998Y-49200000D03*
%TD*%
D44*
%TO.C,Q6*%
X55800000Y-108050000D03*
X55800000Y-106150000D03*
X53925000Y-107100000D03*
%TD*%
D45*
%TO.C,Y2*%
X74602081Y-39697919D03*
X73046446Y-38142284D03*
X71844365Y-39344365D03*
X73400000Y-40900000D03*
%TD*%
D44*
%TO.C,Q3*%
X55800002Y-97000000D03*
X55800002Y-95100000D03*
X53925002Y-96050000D03*
%TD*%
D33*
%TO.C,U6*%
X54150002Y-88300000D03*
X54150002Y-90600000D03*
D34*
X60450002Y-90600000D03*
D33*
X54150002Y-92900000D03*
%TD*%
D46*
%TO.C,R1*%
X65070000Y-82050000D03*
D47*
X65070000Y-81550000D03*
X65070000Y-81050000D03*
D46*
X65070000Y-80550000D03*
X64070000Y-80550000D03*
D47*
X64070000Y-81050000D03*
X64070000Y-81550000D03*
D46*
X64070000Y-82050000D03*
%TD*%
D48*
%TO.C,U12*%
X61370000Y-82350000D03*
X62020000Y-82350000D03*
X62670000Y-82350000D03*
X62670000Y-80450000D03*
X61370000Y-80450000D03*
%TD*%
D49*
%TO.C,U15*%
X43900000Y-64000001D03*
X44500000Y-64000001D03*
X43900000Y-63600001D03*
X44500000Y-63600001D03*
D50*
X43450000Y-64787501D03*
X43950000Y-64787501D03*
X44450000Y-64787501D03*
X44950000Y-64787501D03*
X44950000Y-62812501D03*
X44450000Y-62812501D03*
X43950000Y-62812501D03*
X43450000Y-62812501D03*
%TD*%
D23*
%TO.C,C8*%
X62300000Y-100680000D03*
X62300000Y-99720000D03*
%TD*%
D17*
%TO.C,C4*%
X52400002Y-93640000D03*
X52400002Y-94600000D03*
%TD*%
D23*
%TO.C,C2*%
X68500000Y-109180000D03*
X68500000Y-108220000D03*
%TD*%
D11*
%TO.C,R45*%
X49869999Y-67150000D03*
X48849999Y-67150000D03*
%TD*%
D17*
%TO.C,C6*%
X62300002Y-91040000D03*
X62300002Y-92000000D03*
%TD*%
D25*
%TO.C,3V3_PWR1*%
X68375000Y-103200000D03*
X69950000Y-103200000D03*
%TD*%
D51*
%TO.C,J3*%
X47930000Y-77200000D03*
X47930000Y-78000000D03*
D52*
X47930000Y-79150000D03*
X47930000Y-80150000D03*
X47930000Y-80650000D03*
X47930000Y-81650000D03*
D51*
X47930000Y-82800000D03*
X47930000Y-83600000D03*
X47930000Y-83600000D03*
X47930000Y-82800000D03*
D52*
X47930000Y-82150000D03*
X47930000Y-81150000D03*
X47930000Y-79650000D03*
X47930000Y-78650000D03*
D51*
X47930000Y-78000000D03*
X47930000Y-77200000D03*
D53*
X47355000Y-76080000D03*
D54*
X43175000Y-76080000D03*
D53*
X47355000Y-84720000D03*
D54*
X43175000Y-84720000D03*
%TD*%
M02*
