%TF.GenerationSoftware,KiCad,Pcbnew,9.0.1*%
%TF.CreationDate,2025-05-13T00:09:27-04:00*%
%TF.ProjectId,CRVFCU,43525646-4355-42e6-9b69-6361645f7063,rev?*%
%TF.SameCoordinates,Original*%
%TF.FileFunction,Paste,Bot*%
%TF.FilePolarity,Positive*%
%FSLAX46Y46*%
G04 Gerber Fmt 4.6, Leading zero omitted, Abs format (unit mm)*
G04 Created by KiCad (PCBNEW 9.0.1) date 2025-05-13 00:09:27*
%MOMM*%
%LPD*%
G01*
G04 APERTURE LIST*
G04 Aperture macros list*
%AMRoundRect*
0 Rectangle with rounded corners*
0 $1 Rounding radius*
0 $2 $3 $4 $5 $6 $7 $8 $9 X,Y pos of 4 corners*
0 Add a 4 corners polygon primitive as box body*
4,1,4,$2,$3,$4,$5,$6,$7,$8,$9,$2,$3,0*
0 Add four circle primitives for the rounded corners*
1,1,$1+$1,$2,$3*
1,1,$1+$1,$4,$5*
1,1,$1+$1,$6,$7*
1,1,$1+$1,$8,$9*
0 Add four rect primitives between the rounded corners*
20,1,$1+$1,$2,$3,$4,$5,0*
20,1,$1+$1,$4,$5,$6,$7,0*
20,1,$1+$1,$6,$7,$8,$9,0*
20,1,$1+$1,$8,$9,$2,$3,0*%
%AMFreePoly0*
4,1,17,1.515000,0.170000,0.915000,0.170000,0.915000,-0.080000,1.515000,-0.080000,1.515000,-0.480000,0.915000,-0.480000,0.915000,-0.505000,-0.395000,-0.505000,-0.395000,-1.005000,-0.825000,-1.005000,-0.825000,-0.625000,-0.915000,-0.625000,-0.915000,0.505000,0.815000,0.505000,0.815000,0.570000,1.515000,0.570000,1.515000,0.170000,1.515000,0.170000,$1*%
%AMFreePoly1*
4,1,17,-0.395000,0.505000,0.915000,0.505000,0.915000,0.480000,1.515000,0.480000,1.515000,0.080000,0.915000,0.080000,0.915000,-0.170000,1.515000,-0.170000,1.515000,-0.570000,0.815000,-0.570000,0.815000,-0.505000,-0.915000,-0.505000,-0.915000,0.625000,-0.825000,0.625000,-0.825000,1.005000,-0.395000,1.005000,-0.395000,0.505000,-0.395000,0.505000,$1*%
G04 Aperture macros list end*
%ADD10RoundRect,0.140000X0.219203X0.021213X0.021213X0.219203X-0.219203X-0.021213X-0.021213X-0.219203X0*%
%ADD11R,0.400000X0.500000*%
%ADD12R,0.300000X0.500000*%
%ADD13RoundRect,0.135000X-0.135000X-0.185000X0.135000X-0.185000X0.135000X0.185000X-0.135000X0.185000X0*%
%ADD14RoundRect,0.135000X0.135000X0.185000X-0.135000X0.185000X-0.135000X-0.185000X0.135000X-0.185000X0*%
%ADD15RoundRect,0.100000X0.088388X0.229810X-0.229810X-0.088388X-0.088388X-0.229810X0.229810X0.088388X0*%
%ADD16RoundRect,0.140000X0.021213X-0.219203X0.219203X-0.021213X-0.021213X0.219203X-0.219203X0.021213X0*%
%ADD17RoundRect,0.135000X-0.035355X0.226274X-0.226274X0.035355X0.035355X-0.226274X0.226274X-0.035355X0*%
%ADD18RoundRect,0.140000X-0.219203X-0.021213X-0.021213X-0.219203X0.219203X0.021213X0.021213X0.219203X0*%
%ADD19RoundRect,0.080000X0.080000X0.295000X-0.080000X0.295000X-0.080000X-0.295000X0.080000X-0.295000X0*%
%ADD20RoundRect,0.050000X0.262500X0.050000X-0.262500X0.050000X-0.262500X-0.050000X0.262500X-0.050000X0*%
%ADD21RoundRect,0.140000X-0.021213X0.219203X-0.219203X0.021213X0.021213X-0.219203X0.219203X-0.021213X0*%
%ADD22RoundRect,0.140000X-0.140000X-0.170000X0.140000X-0.170000X0.140000X0.170000X-0.140000X0.170000X0*%
%ADD23R,0.760000X0.350000*%
%ADD24FreePoly0,0.000000*%
%ADD25FreePoly1,0.000000*%
%ADD26R,1.200000X0.700000*%
%ADD27R,0.800000X1.000000*%
%ADD28R,2.800000X1.000000*%
%ADD29R,1.200000X1.000000*%
%ADD30R,1.900000X1.300000*%
%ADD31RoundRect,0.218750X-0.335876X-0.026517X-0.026517X-0.335876X0.335876X0.026517X0.026517X0.335876X0*%
%ADD32RoundRect,0.135000X0.226274X0.035355X0.035355X0.226274X-0.226274X-0.035355X-0.035355X-0.226274X0*%
%ADD33RoundRect,0.135000X-0.226274X-0.035355X-0.035355X-0.226274X0.226274X0.035355X0.035355X0.226274X0*%
%ADD34R,0.500000X0.400000*%
%ADD35R,0.500000X0.300000*%
%ADD36RoundRect,0.140000X-0.170000X0.140000X-0.170000X-0.140000X0.170000X-0.140000X0.170000X0.140000X0*%
%ADD37RoundRect,0.140000X0.140000X0.170000X-0.140000X0.170000X-0.140000X-0.170000X0.140000X-0.170000X0*%
%ADD38RoundRect,0.218750X0.335876X0.026517X0.026517X0.335876X-0.335876X-0.026517X-0.026517X-0.335876X0*%
%ADD39RoundRect,0.135000X-0.185000X0.135000X-0.185000X-0.135000X0.185000X-0.135000X0.185000X0.135000X0*%
%ADD40RoundRect,0.162500X0.574524X-0.344715X-0.344715X0.574524X-0.574524X0.344715X0.344715X-0.574524X0*%
%ADD41R,0.800000X0.800000*%
%ADD42R,0.240000X0.900000*%
%ADD43R,0.900000X0.240000*%
G04 APERTURE END LIST*
D10*
%TO.C,C28*%
X66600000Y-37200000D03*
X65921178Y-36521178D03*
%TD*%
D11*
%TO.C,R39*%
X56300000Y-110400000D03*
D12*
X55800000Y-110400000D03*
X55300000Y-110400000D03*
D11*
X54800000Y-110400000D03*
X54800000Y-109400000D03*
D12*
X55300000Y-109400000D03*
X55800000Y-109400000D03*
D11*
X56300000Y-109400000D03*
%TD*%
D13*
%TO.C,R28*%
X76590000Y-90100000D03*
X77610000Y-90100000D03*
%TD*%
%TO.C,R19*%
X76599999Y-102510000D03*
X77619999Y-102510000D03*
%TD*%
D14*
%TO.C,R44*%
X50910000Y-105100000D03*
X49890000Y-105100000D03*
%TD*%
D15*
%TO.C,U17*%
X78180761Y-40390761D03*
X78640380Y-40850381D03*
X79100000Y-41310000D03*
X77756497Y-42653503D03*
X76837258Y-41734264D03*
%TD*%
D16*
%TO.C,C24*%
X50500001Y-49950000D03*
X51178823Y-49271178D03*
%TD*%
D17*
%TO.C,R5*%
X82610871Y-56968061D03*
X81889623Y-57689309D03*
%TD*%
D18*
%TO.C,C18*%
X67900000Y-38550000D03*
X68578822Y-39228822D03*
%TD*%
D14*
%TO.C,R25*%
X77619999Y-101510000D03*
X76599999Y-101510000D03*
%TD*%
D17*
%TO.C,R6*%
X78460624Y-58789376D03*
X77739376Y-59510624D03*
%TD*%
D13*
%TO.C,R20*%
X48190000Y-30950000D03*
X49210000Y-30950000D03*
%TD*%
D14*
%TO.C,R30*%
X81629999Y-88400000D03*
X80609999Y-88400000D03*
%TD*%
D13*
%TO.C,R32*%
X76590000Y-92100000D03*
X77610000Y-92100000D03*
%TD*%
D19*
%TO.C,U11*%
X70815000Y-77240000D03*
X70815000Y-76310000D03*
X70815000Y-75380000D03*
D20*
X71527500Y-74910000D03*
X71527500Y-75310000D03*
X71527500Y-75710000D03*
X71527500Y-76110000D03*
X71527500Y-76510000D03*
X71527500Y-76910000D03*
X71527500Y-77310000D03*
X71527500Y-77710000D03*
X70102500Y-77710000D03*
X70102500Y-77310000D03*
X70102500Y-76910000D03*
X70102500Y-76510000D03*
X70102500Y-76110000D03*
X70102500Y-75710000D03*
X70102500Y-75310000D03*
X70102500Y-74910000D03*
%TD*%
D21*
%TO.C,C33*%
X73578822Y-64071178D03*
X72900000Y-64750000D03*
%TD*%
D13*
%TO.C,R46*%
X72380002Y-68400000D03*
X73400000Y-68400000D03*
%TD*%
%TO.C,R37*%
X68540000Y-103200000D03*
X69560000Y-103200000D03*
%TD*%
D18*
%TO.C,C22*%
X48960589Y-56610589D03*
X49639411Y-57289411D03*
%TD*%
D14*
%TO.C,R14*%
X81610000Y-98610000D03*
X80590000Y-98610000D03*
%TD*%
D22*
%TO.C,C45*%
X48710000Y-41050000D03*
X49670000Y-41050000D03*
%TD*%
D23*
%TO.C,U8*%
X78535000Y-101980000D03*
X78535000Y-101330000D03*
X78535000Y-100680000D03*
X78535000Y-100030000D03*
D24*
X80500000Y-101700000D03*
D25*
X80500000Y-100310000D03*
%TD*%
D13*
%TO.C,R27*%
X78590000Y-103410000D03*
X79610000Y-103410000D03*
%TD*%
D26*
%TO.C,J4*%
X73225000Y-79725000D03*
X73225000Y-78625000D03*
X73225000Y-77525000D03*
X73225000Y-76425000D03*
X73225000Y-75325000D03*
X73225000Y-74225000D03*
X73225000Y-73125000D03*
X73225000Y-72025000D03*
X73225000Y-71075000D03*
D27*
X83725000Y-70125000D03*
D28*
X87875000Y-70125000D03*
D29*
X77525000Y-70125000D03*
X73225000Y-81275000D03*
D30*
X88325000Y-83625000D03*
%TD*%
D18*
%TO.C,C17*%
X67100000Y-39350000D03*
X67778822Y-40028822D03*
%TD*%
%TO.C,C16*%
X55560589Y-61610589D03*
X56239411Y-62289411D03*
%TD*%
D13*
%TO.C,R11*%
X76590000Y-100510000D03*
X77610000Y-100510000D03*
%TD*%
D14*
%TO.C,R29*%
X77610000Y-89100000D03*
X76590000Y-89100000D03*
%TD*%
D18*
%TO.C,C21*%
X51500000Y-59150001D03*
X52178822Y-59828823D03*
%TD*%
D10*
%TO.C,C20*%
X56839411Y-64489411D03*
X56160589Y-63810589D03*
%TD*%
D16*
%TO.C,C27*%
X62100000Y-38350000D03*
X62778822Y-37671178D03*
%TD*%
D14*
%TO.C,R10*%
X62810000Y-108200000D03*
X61790000Y-108200000D03*
%TD*%
D16*
%TO.C,C25*%
X53821179Y-46628822D03*
X54500001Y-45950000D03*
%TD*%
D18*
%TO.C,C55*%
X66770589Y-40830589D03*
X67449411Y-41509411D03*
%TD*%
D16*
%TO.C,C36*%
X66960589Y-70289411D03*
X67639411Y-69610589D03*
%TD*%
D10*
%TO.C,C11*%
X77610929Y-45935771D03*
X76932107Y-45256949D03*
%TD*%
D14*
%TO.C,R34*%
X81610000Y-93200000D03*
X80590000Y-93200000D03*
%TD*%
D31*
%TO.C,L2*%
X74854081Y-45978923D03*
X75967775Y-47092617D03*
%TD*%
D16*
%TO.C,C34*%
X81760590Y-55689411D03*
X82439412Y-55010589D03*
%TD*%
D32*
%TO.C,R23*%
X73771552Y-48396395D03*
X73050304Y-47675147D03*
%TD*%
D22*
%TO.C,C48*%
X48220000Y-31950000D03*
X49180000Y-31950000D03*
%TD*%
D14*
%TO.C,R43*%
X50900001Y-104000000D03*
X49880001Y-104000000D03*
%TD*%
D18*
%TO.C,C19*%
X75471517Y-48396360D03*
X76150339Y-49075182D03*
%TD*%
D33*
%TO.C,R4*%
X68928999Y-37528685D03*
X69650247Y-38249933D03*
%TD*%
D34*
%TO.C,R38*%
X49600000Y-94700000D03*
D35*
X49600000Y-94200000D03*
X49600000Y-93700000D03*
D34*
X49600000Y-93200000D03*
X50600000Y-93200000D03*
D35*
X50600000Y-93700000D03*
X50600000Y-94200000D03*
D34*
X50600000Y-94700000D03*
%TD*%
D18*
%TO.C,C29*%
X73421178Y-43871177D03*
X74100000Y-44549999D03*
%TD*%
D36*
%TO.C,C46*%
X54925000Y-35765000D03*
X54925000Y-36725000D03*
%TD*%
D21*
%TO.C,C53*%
X75969411Y-42520589D03*
X75290589Y-43199411D03*
%TD*%
D16*
%TO.C,C23*%
X49100001Y-51350000D03*
X49778823Y-50671178D03*
%TD*%
D18*
%TO.C,C32*%
X60900000Y-68750000D03*
X61578822Y-69428822D03*
%TD*%
D17*
%TO.C,R42*%
X80046248Y-42503752D03*
X79325000Y-43225000D03*
%TD*%
D37*
%TO.C,C47*%
X51100000Y-31950000D03*
X50140000Y-31950000D03*
%TD*%
D22*
%TO.C,C44*%
X48550000Y-38850000D03*
X49510000Y-38850000D03*
%TD*%
D13*
%TO.C,R31*%
X78580000Y-88400000D03*
X79600000Y-88400000D03*
%TD*%
D18*
%TO.C,C31*%
X76760589Y-49810589D03*
X77439411Y-50489411D03*
%TD*%
D16*
%TO.C,C35*%
X68021178Y-71428822D03*
X68700000Y-70750000D03*
%TD*%
D23*
%TO.C,U16*%
X78535000Y-91770000D03*
X78535000Y-91120000D03*
X78535000Y-90470000D03*
X78535000Y-89820000D03*
D24*
X80500000Y-91490000D03*
D25*
X80500000Y-90100000D03*
%TD*%
D13*
%TO.C,R35*%
X78590000Y-93200000D03*
X79610000Y-93200000D03*
%TD*%
%TO.C,R22*%
X46620000Y-40050000D03*
X47640000Y-40050000D03*
%TD*%
D14*
%TO.C,R33*%
X77610000Y-91116000D03*
X76590000Y-91116000D03*
%TD*%
D10*
%TO.C,C12*%
X78950340Y-47275182D03*
X78271518Y-46596360D03*
%TD*%
D18*
%TO.C,C15*%
X54821178Y-62331767D03*
X55500000Y-63010589D03*
%TD*%
D16*
%TO.C,C26*%
X55960589Y-44489411D03*
X56639411Y-43810589D03*
%TD*%
D18*
%TO.C,C54*%
X66110589Y-41470589D03*
X66789411Y-42149411D03*
%TD*%
D38*
%TO.C,L3*%
X78124623Y-49249465D03*
X77010929Y-48135771D03*
%TD*%
D13*
%TO.C,R16*%
X78590000Y-98610000D03*
X79610000Y-98610000D03*
%TD*%
%TO.C,R36*%
X68680000Y-100700000D03*
X69700000Y-100700000D03*
%TD*%
D31*
%TO.C,L1*%
X64866306Y-38876306D03*
X65980000Y-39990000D03*
%TD*%
D37*
%TO.C,C42*%
X47610000Y-41050000D03*
X46650000Y-41050000D03*
%TD*%
D39*
%TO.C,R21*%
X54925000Y-38115000D03*
X54925000Y-39135000D03*
%TD*%
D10*
%TO.C,C10*%
X59439412Y-66889411D03*
X58760590Y-66210589D03*
%TD*%
D14*
%TO.C,R26*%
X81610000Y-103410000D03*
X80590000Y-103410000D03*
%TD*%
D16*
%TO.C,C13*%
X80221178Y-57228822D03*
X80900000Y-56550000D03*
%TD*%
D22*
%TO.C,C40*%
X44000000Y-64700000D03*
X44960000Y-64700000D03*
%TD*%
D21*
%TO.C,C39*%
X76339411Y-61310589D03*
X75660589Y-61989411D03*
%TD*%
D18*
%TO.C,C30*%
X78900000Y-50600000D03*
X79578822Y-51278822D03*
%TD*%
D21*
%TO.C,C14*%
X66300000Y-70950000D03*
X65621178Y-71628822D03*
%TD*%
D10*
%TO.C,C51*%
X69889750Y-44614593D03*
X69210928Y-43935771D03*
%TD*%
D13*
%TO.C,R24*%
X70305000Y-71125000D03*
X71325000Y-71125000D03*
%TD*%
D14*
%TO.C,R12*%
X77619999Y-99510000D03*
X76599999Y-99510000D03*
%TD*%
D22*
%TO.C,C43*%
X48710000Y-40050000D03*
X49670000Y-40050000D03*
%TD*%
D40*
%TO.C,U10*%
X73383784Y-50239707D03*
X72485758Y-51137733D03*
X71587733Y-52035758D03*
X70689707Y-52933784D03*
X65616216Y-47860293D03*
X66514242Y-46962267D03*
X67412267Y-46064242D03*
X68310293Y-45166216D03*
%TD*%
D41*
%TO.C,U5*%
X59100000Y-106850000D03*
X59100000Y-105900000D03*
X59100000Y-104950000D03*
D42*
X59350000Y-103600000D03*
D43*
X60400000Y-104150000D03*
X60400000Y-104650000D03*
X60400000Y-105150000D03*
X60400000Y-105650000D03*
X60400000Y-106150000D03*
X60400000Y-106650000D03*
X60400000Y-107150000D03*
X60400000Y-107650000D03*
D42*
X59350000Y-108200000D03*
X58850000Y-108200000D03*
D43*
X57800000Y-107650000D03*
X57800000Y-107150000D03*
X57800000Y-106650000D03*
X57800000Y-106150000D03*
X57800000Y-105650000D03*
X57800000Y-105150000D03*
X57800000Y-104650000D03*
X57800000Y-104150000D03*
D42*
X58850000Y-103600000D03*
%TD*%
M02*
