%TF.GenerationSoftware,KiCad,Pcbnew,9.0.1*%
%TF.CreationDate,2025-05-12T23:36:45-04:00*%
%TF.ProjectId,CRVFCU,43525646-4355-42e6-9b69-6361645f7063,rev?*%
%TF.SameCoordinates,Original*%
%TF.FileFunction,Legend,Top*%
%TF.FilePolarity,Positive*%
%FSLAX46Y46*%
G04 Gerber Fmt 4.6, Leading zero omitted, Abs format (unit mm)*
G04 Created by KiCad (PCBNEW 9.0.1) date 2025-05-12 23:36:45*
%MOMM*%
%LPD*%
G01*
G04 APERTURE LIST*
%ADD10C,0.180000*%
%ADD11C,0.200000*%
%ADD12C,0.150000*%
%ADD13C,0.120000*%
%ADD14C,0.000000*%
G04 APERTURE END LIST*
D10*
X57409523Y-74168259D02*
X57980951Y-74168259D01*
X57695237Y-75168259D02*
X57695237Y-74168259D01*
X58742856Y-75168259D02*
X58742856Y-74644449D01*
X58742856Y-74644449D02*
X58695237Y-74549211D01*
X58695237Y-74549211D02*
X58599999Y-74501592D01*
X58599999Y-74501592D02*
X58409523Y-74501592D01*
X58409523Y-74501592D02*
X58314285Y-74549211D01*
X58742856Y-75120640D02*
X58647618Y-75168259D01*
X58647618Y-75168259D02*
X58409523Y-75168259D01*
X58409523Y-75168259D02*
X58314285Y-75120640D01*
X58314285Y-75120640D02*
X58266666Y-75025401D01*
X58266666Y-75025401D02*
X58266666Y-74930163D01*
X58266666Y-74930163D02*
X58314285Y-74834925D01*
X58314285Y-74834925D02*
X58409523Y-74787306D01*
X58409523Y-74787306D02*
X58647618Y-74787306D01*
X58647618Y-74787306D02*
X58742856Y-74739687D01*
X59647618Y-74501592D02*
X59647618Y-75311116D01*
X59647618Y-75311116D02*
X59599999Y-75406354D01*
X59599999Y-75406354D02*
X59552380Y-75453973D01*
X59552380Y-75453973D02*
X59457142Y-75501592D01*
X59457142Y-75501592D02*
X59314285Y-75501592D01*
X59314285Y-75501592D02*
X59219047Y-75453973D01*
X59647618Y-75120640D02*
X59552380Y-75168259D01*
X59552380Y-75168259D02*
X59361904Y-75168259D01*
X59361904Y-75168259D02*
X59266666Y-75120640D01*
X59266666Y-75120640D02*
X59219047Y-75073020D01*
X59219047Y-75073020D02*
X59171428Y-74977782D01*
X59171428Y-74977782D02*
X59171428Y-74692068D01*
X59171428Y-74692068D02*
X59219047Y-74596830D01*
X59219047Y-74596830D02*
X59266666Y-74549211D01*
X59266666Y-74549211D02*
X59361904Y-74501592D01*
X59361904Y-74501592D02*
X59552380Y-74501592D01*
X59552380Y-74501592D02*
X59647618Y-74549211D01*
X60695237Y-75073020D02*
X60647618Y-75120640D01*
X60647618Y-75120640D02*
X60504761Y-75168259D01*
X60504761Y-75168259D02*
X60409523Y-75168259D01*
X60409523Y-75168259D02*
X60266666Y-75120640D01*
X60266666Y-75120640D02*
X60171428Y-75025401D01*
X60171428Y-75025401D02*
X60123809Y-74930163D01*
X60123809Y-74930163D02*
X60076190Y-74739687D01*
X60076190Y-74739687D02*
X60076190Y-74596830D01*
X60076190Y-74596830D02*
X60123809Y-74406354D01*
X60123809Y-74406354D02*
X60171428Y-74311116D01*
X60171428Y-74311116D02*
X60266666Y-74215878D01*
X60266666Y-74215878D02*
X60409523Y-74168259D01*
X60409523Y-74168259D02*
X60504761Y-74168259D01*
X60504761Y-74168259D02*
X60647618Y-74215878D01*
X60647618Y-74215878D02*
X60695237Y-74263497D01*
X61266666Y-75168259D02*
X61171428Y-75120640D01*
X61171428Y-75120640D02*
X61123809Y-75073020D01*
X61123809Y-75073020D02*
X61076190Y-74977782D01*
X61076190Y-74977782D02*
X61076190Y-74692068D01*
X61076190Y-74692068D02*
X61123809Y-74596830D01*
X61123809Y-74596830D02*
X61171428Y-74549211D01*
X61171428Y-74549211D02*
X61266666Y-74501592D01*
X61266666Y-74501592D02*
X61409523Y-74501592D01*
X61409523Y-74501592D02*
X61504761Y-74549211D01*
X61504761Y-74549211D02*
X61552380Y-74596830D01*
X61552380Y-74596830D02*
X61599999Y-74692068D01*
X61599999Y-74692068D02*
X61599999Y-74977782D01*
X61599999Y-74977782D02*
X61552380Y-75073020D01*
X61552380Y-75073020D02*
X61504761Y-75120640D01*
X61504761Y-75120640D02*
X61409523Y-75168259D01*
X61409523Y-75168259D02*
X61266666Y-75168259D01*
X62028571Y-74501592D02*
X62028571Y-75168259D01*
X62028571Y-74596830D02*
X62076190Y-74549211D01*
X62076190Y-74549211D02*
X62171428Y-74501592D01*
X62171428Y-74501592D02*
X62314285Y-74501592D01*
X62314285Y-74501592D02*
X62409523Y-74549211D01*
X62409523Y-74549211D02*
X62457142Y-74644449D01*
X62457142Y-74644449D02*
X62457142Y-75168259D01*
X62933333Y-74501592D02*
X62933333Y-75168259D01*
X62933333Y-74596830D02*
X62980952Y-74549211D01*
X62980952Y-74549211D02*
X63076190Y-74501592D01*
X63076190Y-74501592D02*
X63219047Y-74501592D01*
X63219047Y-74501592D02*
X63314285Y-74549211D01*
X63314285Y-74549211D02*
X63361904Y-74644449D01*
X63361904Y-74644449D02*
X63361904Y-75168259D01*
X64219047Y-75120640D02*
X64123809Y-75168259D01*
X64123809Y-75168259D02*
X63933333Y-75168259D01*
X63933333Y-75168259D02*
X63838095Y-75120640D01*
X63838095Y-75120640D02*
X63790476Y-75025401D01*
X63790476Y-75025401D02*
X63790476Y-74644449D01*
X63790476Y-74644449D02*
X63838095Y-74549211D01*
X63838095Y-74549211D02*
X63933333Y-74501592D01*
X63933333Y-74501592D02*
X64123809Y-74501592D01*
X64123809Y-74501592D02*
X64219047Y-74549211D01*
X64219047Y-74549211D02*
X64266666Y-74644449D01*
X64266666Y-74644449D02*
X64266666Y-74739687D01*
X64266666Y-74739687D02*
X63790476Y-74834925D01*
X65123809Y-75120640D02*
X65028571Y-75168259D01*
X65028571Y-75168259D02*
X64838095Y-75168259D01*
X64838095Y-75168259D02*
X64742857Y-75120640D01*
X64742857Y-75120640D02*
X64695238Y-75073020D01*
X64695238Y-75073020D02*
X64647619Y-74977782D01*
X64647619Y-74977782D02*
X64647619Y-74692068D01*
X64647619Y-74692068D02*
X64695238Y-74596830D01*
X64695238Y-74596830D02*
X64742857Y-74549211D01*
X64742857Y-74549211D02*
X64838095Y-74501592D01*
X64838095Y-74501592D02*
X65028571Y-74501592D01*
X65028571Y-74501592D02*
X65123809Y-74549211D01*
X65409524Y-74501592D02*
X65790476Y-74501592D01*
X65552381Y-74168259D02*
X65552381Y-75025401D01*
X65552381Y-75025401D02*
X65600000Y-75120640D01*
X65600000Y-75120640D02*
X65695238Y-75168259D01*
X65695238Y-75168259D02*
X65790476Y-75168259D01*
D11*
X80010809Y-89599999D02*
X78810809Y-89599999D01*
X78810809Y-89599999D02*
X78810809Y-89142856D01*
X78810809Y-89142856D02*
X78867952Y-89028571D01*
X78867952Y-89028571D02*
X78925095Y-88971428D01*
X78925095Y-88971428D02*
X79039381Y-88914285D01*
X79039381Y-88914285D02*
X79210809Y-88914285D01*
X79210809Y-88914285D02*
X79325095Y-88971428D01*
X79325095Y-88971428D02*
X79382238Y-89028571D01*
X79382238Y-89028571D02*
X79439381Y-89142856D01*
X79439381Y-89142856D02*
X79439381Y-89599999D01*
X79439381Y-88171428D02*
X80010809Y-88171428D01*
X78810809Y-88571428D02*
X79439381Y-88171428D01*
X79439381Y-88171428D02*
X78810809Y-87771428D01*
X78810809Y-87485714D02*
X78810809Y-86742857D01*
X78810809Y-86742857D02*
X79267952Y-87142857D01*
X79267952Y-87142857D02*
X79267952Y-86971428D01*
X79267952Y-86971428D02*
X79325095Y-86857143D01*
X79325095Y-86857143D02*
X79382238Y-86800000D01*
X79382238Y-86800000D02*
X79496524Y-86742857D01*
X79496524Y-86742857D02*
X79782238Y-86742857D01*
X79782238Y-86742857D02*
X79896524Y-86800000D01*
X79896524Y-86800000D02*
X79953667Y-86857143D01*
X79953667Y-86857143D02*
X80010809Y-86971428D01*
X80010809Y-86971428D02*
X80010809Y-87314285D01*
X80010809Y-87314285D02*
X79953667Y-87428571D01*
X79953667Y-87428571D02*
X79896524Y-87485714D01*
X81485600Y-89857142D02*
X81485600Y-88942857D01*
X81485600Y-87457142D02*
X81485600Y-86542857D01*
X81942742Y-86999999D02*
X81028457Y-86999999D01*
X80010809Y-99799999D02*
X78810809Y-99799999D01*
X78810809Y-99799999D02*
X78810809Y-99342856D01*
X78810809Y-99342856D02*
X78867952Y-99228571D01*
X78867952Y-99228571D02*
X78925095Y-99171428D01*
X78925095Y-99171428D02*
X79039381Y-99114285D01*
X79039381Y-99114285D02*
X79210809Y-99114285D01*
X79210809Y-99114285D02*
X79325095Y-99171428D01*
X79325095Y-99171428D02*
X79382238Y-99228571D01*
X79382238Y-99228571D02*
X79439381Y-99342856D01*
X79439381Y-99342856D02*
X79439381Y-99799999D01*
X79439381Y-98371428D02*
X80010809Y-98371428D01*
X78810809Y-98771428D02*
X79439381Y-98371428D01*
X79439381Y-98371428D02*
X78810809Y-97971428D01*
X80010809Y-96942857D02*
X80010809Y-97628571D01*
X80010809Y-97285714D02*
X78810809Y-97285714D01*
X78810809Y-97285714D02*
X78982238Y-97400000D01*
X78982238Y-97400000D02*
X79096524Y-97514285D01*
X79096524Y-97514285D02*
X79153667Y-97628571D01*
X81485600Y-100057142D02*
X81485600Y-99142857D01*
X81485600Y-97657142D02*
X81485600Y-96742857D01*
X81942742Y-97199999D02*
X81028457Y-97199999D01*
X80210809Y-104399999D02*
X79010809Y-104399999D01*
X79010809Y-104399999D02*
X79010809Y-103942856D01*
X79010809Y-103942856D02*
X79067952Y-103828571D01*
X79067952Y-103828571D02*
X79125095Y-103771428D01*
X79125095Y-103771428D02*
X79239381Y-103714285D01*
X79239381Y-103714285D02*
X79410809Y-103714285D01*
X79410809Y-103714285D02*
X79525095Y-103771428D01*
X79525095Y-103771428D02*
X79582238Y-103828571D01*
X79582238Y-103828571D02*
X79639381Y-103942856D01*
X79639381Y-103942856D02*
X79639381Y-104399999D01*
X79639381Y-102971428D02*
X80210809Y-102971428D01*
X79010809Y-103371428D02*
X79639381Y-102971428D01*
X79639381Y-102971428D02*
X79010809Y-102571428D01*
X79010809Y-101942857D02*
X79010809Y-101828571D01*
X79010809Y-101828571D02*
X79067952Y-101714285D01*
X79067952Y-101714285D02*
X79125095Y-101657143D01*
X79125095Y-101657143D02*
X79239381Y-101600000D01*
X79239381Y-101600000D02*
X79467952Y-101542857D01*
X79467952Y-101542857D02*
X79753667Y-101542857D01*
X79753667Y-101542857D02*
X79982238Y-101600000D01*
X79982238Y-101600000D02*
X80096524Y-101657143D01*
X80096524Y-101657143D02*
X80153667Y-101714285D01*
X80153667Y-101714285D02*
X80210809Y-101828571D01*
X80210809Y-101828571D02*
X80210809Y-101942857D01*
X80210809Y-101942857D02*
X80153667Y-102057143D01*
X80153667Y-102057143D02*
X80096524Y-102114285D01*
X80096524Y-102114285D02*
X79982238Y-102171428D01*
X79982238Y-102171428D02*
X79753667Y-102228571D01*
X79753667Y-102228571D02*
X79467952Y-102228571D01*
X79467952Y-102228571D02*
X79239381Y-102171428D01*
X79239381Y-102171428D02*
X79125095Y-102114285D01*
X79125095Y-102114285D02*
X79067952Y-102057143D01*
X79067952Y-102057143D02*
X79010809Y-101942857D01*
X81685600Y-104657142D02*
X81685600Y-103742857D01*
X82142742Y-104199999D02*
X81228457Y-104199999D01*
X81685600Y-102257142D02*
X81685600Y-101342857D01*
X67140149Y-111397028D02*
X67197292Y-111339885D01*
X67197292Y-111339885D02*
X67311578Y-111282742D01*
X67311578Y-111282742D02*
X67597292Y-111282742D01*
X67597292Y-111282742D02*
X67711578Y-111339885D01*
X67711578Y-111339885D02*
X67768720Y-111397028D01*
X67768720Y-111397028D02*
X67825863Y-111511314D01*
X67825863Y-111511314D02*
X67825863Y-111625600D01*
X67825863Y-111625600D02*
X67768720Y-111797028D01*
X67768720Y-111797028D02*
X67083006Y-112482742D01*
X67083006Y-112482742D02*
X67825863Y-112482742D01*
X68283006Y-112425600D02*
X68454435Y-112482742D01*
X68454435Y-112482742D02*
X68740149Y-112482742D01*
X68740149Y-112482742D02*
X68854435Y-112425600D01*
X68854435Y-112425600D02*
X68911577Y-112368457D01*
X68911577Y-112368457D02*
X68968720Y-112254171D01*
X68968720Y-112254171D02*
X68968720Y-112139885D01*
X68968720Y-112139885D02*
X68911577Y-112025600D01*
X68911577Y-112025600D02*
X68854435Y-111968457D01*
X68854435Y-111968457D02*
X68740149Y-111911314D01*
X68740149Y-111911314D02*
X68511577Y-111854171D01*
X68511577Y-111854171D02*
X68397292Y-111797028D01*
X68397292Y-111797028D02*
X68340149Y-111739885D01*
X68340149Y-111739885D02*
X68283006Y-111625600D01*
X68283006Y-111625600D02*
X68283006Y-111511314D01*
X68283006Y-111511314D02*
X68340149Y-111397028D01*
X68340149Y-111397028D02*
X68397292Y-111339885D01*
X68397292Y-111339885D02*
X68511577Y-111282742D01*
X68511577Y-111282742D02*
X68797292Y-111282742D01*
X68797292Y-111282742D02*
X68968720Y-111339885D01*
X49095714Y-111085600D02*
X49267143Y-111142742D01*
X49267143Y-111142742D02*
X49552857Y-111142742D01*
X49552857Y-111142742D02*
X49667143Y-111085600D01*
X49667143Y-111085600D02*
X49724285Y-111028457D01*
X49724285Y-111028457D02*
X49781428Y-110914171D01*
X49781428Y-110914171D02*
X49781428Y-110799885D01*
X49781428Y-110799885D02*
X49724285Y-110685600D01*
X49724285Y-110685600D02*
X49667143Y-110628457D01*
X49667143Y-110628457D02*
X49552857Y-110571314D01*
X49552857Y-110571314D02*
X49324285Y-110514171D01*
X49324285Y-110514171D02*
X49210000Y-110457028D01*
X49210000Y-110457028D02*
X49152857Y-110399885D01*
X49152857Y-110399885D02*
X49095714Y-110285600D01*
X49095714Y-110285600D02*
X49095714Y-110171314D01*
X49095714Y-110171314D02*
X49152857Y-110057028D01*
X49152857Y-110057028D02*
X49210000Y-109999885D01*
X49210000Y-109999885D02*
X49324285Y-109942742D01*
X49324285Y-109942742D02*
X49610000Y-109942742D01*
X49610000Y-109942742D02*
X49781428Y-109999885D01*
X50810000Y-110342742D02*
X50810000Y-111142742D01*
X50524285Y-109885600D02*
X50238571Y-110742742D01*
X50238571Y-110742742D02*
X50981428Y-110742742D01*
D10*
X42054378Y-41877805D02*
X42101997Y-41734948D01*
X42101997Y-41734948D02*
X42101997Y-41496853D01*
X42101997Y-41496853D02*
X42054378Y-41401615D01*
X42054378Y-41401615D02*
X42006758Y-41353996D01*
X42006758Y-41353996D02*
X41911520Y-41306377D01*
X41911520Y-41306377D02*
X41816282Y-41306377D01*
X41816282Y-41306377D02*
X41721044Y-41353996D01*
X41721044Y-41353996D02*
X41673425Y-41401615D01*
X41673425Y-41401615D02*
X41625806Y-41496853D01*
X41625806Y-41496853D02*
X41578187Y-41687329D01*
X41578187Y-41687329D02*
X41530568Y-41782567D01*
X41530568Y-41782567D02*
X41482949Y-41830186D01*
X41482949Y-41830186D02*
X41387711Y-41877805D01*
X41387711Y-41877805D02*
X41292473Y-41877805D01*
X41292473Y-41877805D02*
X41197235Y-41830186D01*
X41197235Y-41830186D02*
X41149616Y-41782567D01*
X41149616Y-41782567D02*
X41101997Y-41687329D01*
X41101997Y-41687329D02*
X41101997Y-41449234D01*
X41101997Y-41449234D02*
X41149616Y-41306377D01*
X41101997Y-41020662D02*
X41101997Y-40449234D01*
X42101997Y-40734948D02*
X41101997Y-40734948D01*
X41578187Y-40115900D02*
X41578187Y-39782567D01*
X42101997Y-39639710D02*
X42101997Y-40115900D01*
X42101997Y-40115900D02*
X41101997Y-40115900D01*
X41101997Y-40115900D02*
X41101997Y-39639710D01*
X42101997Y-39211138D02*
X41101997Y-39211138D01*
X41101997Y-39211138D02*
X41816282Y-38877805D01*
X41816282Y-38877805D02*
X41101997Y-38544472D01*
X41101997Y-38544472D02*
X42101997Y-38544472D01*
X42101997Y-38068281D02*
X41101997Y-38068281D01*
X41101997Y-38068281D02*
X41816282Y-37734948D01*
X41816282Y-37734948D02*
X41101997Y-37401615D01*
X41101997Y-37401615D02*
X42101997Y-37401615D01*
X41816282Y-36973043D02*
X41816282Y-36496853D01*
X42101997Y-37068281D02*
X41101997Y-36734948D01*
X41101997Y-36734948D02*
X42101997Y-36401615D01*
X42197235Y-34639710D02*
X42149616Y-34734948D01*
X42149616Y-34734948D02*
X42054378Y-34830186D01*
X42054378Y-34830186D02*
X41911520Y-34973043D01*
X41911520Y-34973043D02*
X41863901Y-35068281D01*
X41863901Y-35068281D02*
X41863901Y-35163519D01*
X42101997Y-35115900D02*
X42054378Y-35211138D01*
X42054378Y-35211138D02*
X41959139Y-35306376D01*
X41959139Y-35306376D02*
X41768663Y-35353995D01*
X41768663Y-35353995D02*
X41435330Y-35353995D01*
X41435330Y-35353995D02*
X41244854Y-35306376D01*
X41244854Y-35306376D02*
X41149616Y-35211138D01*
X41149616Y-35211138D02*
X41101997Y-35115900D01*
X41101997Y-35115900D02*
X41101997Y-34925424D01*
X41101997Y-34925424D02*
X41149616Y-34830186D01*
X41149616Y-34830186D02*
X41244854Y-34734948D01*
X41244854Y-34734948D02*
X41435330Y-34687329D01*
X41435330Y-34687329D02*
X41768663Y-34687329D01*
X41768663Y-34687329D02*
X41959139Y-34734948D01*
X41959139Y-34734948D02*
X42054378Y-34830186D01*
X42054378Y-34830186D02*
X42101997Y-34925424D01*
X42101997Y-34925424D02*
X42101997Y-35115900D01*
X41101997Y-34401614D02*
X41101997Y-33830186D01*
X42101997Y-34115900D02*
X41101997Y-34115900D01*
X43616702Y-41473044D02*
X43664322Y-41520663D01*
X43664322Y-41520663D02*
X43711941Y-41663520D01*
X43711941Y-41663520D02*
X43711941Y-41758758D01*
X43711941Y-41758758D02*
X43664322Y-41901615D01*
X43664322Y-41901615D02*
X43569083Y-41996853D01*
X43569083Y-41996853D02*
X43473845Y-42044472D01*
X43473845Y-42044472D02*
X43283369Y-42092091D01*
X43283369Y-42092091D02*
X43140512Y-42092091D01*
X43140512Y-42092091D02*
X42950036Y-42044472D01*
X42950036Y-42044472D02*
X42854798Y-41996853D01*
X42854798Y-41996853D02*
X42759560Y-41901615D01*
X42759560Y-41901615D02*
X42711941Y-41758758D01*
X42711941Y-41758758D02*
X42711941Y-41663520D01*
X42711941Y-41663520D02*
X42759560Y-41520663D01*
X42759560Y-41520663D02*
X42807179Y-41473044D01*
X43711941Y-40568282D02*
X43711941Y-41044472D01*
X43711941Y-41044472D02*
X42711941Y-41044472D01*
X43711941Y-39473043D02*
X42711941Y-39473043D01*
X42711941Y-39473043D02*
X42711941Y-39234948D01*
X42711941Y-39234948D02*
X42759560Y-39092091D01*
X42759560Y-39092091D02*
X42854798Y-38996853D01*
X42854798Y-38996853D02*
X42950036Y-38949234D01*
X42950036Y-38949234D02*
X43140512Y-38901615D01*
X43140512Y-38901615D02*
X43283369Y-38901615D01*
X43283369Y-38901615D02*
X43473845Y-38949234D01*
X43473845Y-38949234D02*
X43569083Y-38996853D01*
X43569083Y-38996853D02*
X43664322Y-39092091D01*
X43664322Y-39092091D02*
X43711941Y-39234948D01*
X43711941Y-39234948D02*
X43711941Y-39473043D01*
X43426226Y-38520662D02*
X43426226Y-38044472D01*
X43711941Y-38615900D02*
X42711941Y-38282567D01*
X42711941Y-38282567D02*
X43711941Y-37949234D01*
X42711941Y-36949233D02*
X42711941Y-36330186D01*
X42711941Y-36330186D02*
X43092893Y-36663519D01*
X43092893Y-36663519D02*
X43092893Y-36520662D01*
X43092893Y-36520662D02*
X43140512Y-36425424D01*
X43140512Y-36425424D02*
X43188131Y-36377805D01*
X43188131Y-36377805D02*
X43283369Y-36330186D01*
X43283369Y-36330186D02*
X43521464Y-36330186D01*
X43521464Y-36330186D02*
X43616702Y-36377805D01*
X43616702Y-36377805D02*
X43664322Y-36425424D01*
X43664322Y-36425424D02*
X43711941Y-36520662D01*
X43711941Y-36520662D02*
X43711941Y-36806376D01*
X43711941Y-36806376D02*
X43664322Y-36901614D01*
X43664322Y-36901614D02*
X43616702Y-36949233D01*
X42711941Y-36044471D02*
X43711941Y-35711138D01*
X43711941Y-35711138D02*
X42711941Y-35377805D01*
X42759560Y-33758757D02*
X42711941Y-33853995D01*
X42711941Y-33853995D02*
X42711941Y-33996852D01*
X42711941Y-33996852D02*
X42759560Y-34139709D01*
X42759560Y-34139709D02*
X42854798Y-34234947D01*
X42854798Y-34234947D02*
X42950036Y-34282566D01*
X42950036Y-34282566D02*
X43140512Y-34330185D01*
X43140512Y-34330185D02*
X43283369Y-34330185D01*
X43283369Y-34330185D02*
X43473845Y-34282566D01*
X43473845Y-34282566D02*
X43569083Y-34234947D01*
X43569083Y-34234947D02*
X43664322Y-34139709D01*
X43664322Y-34139709D02*
X43711941Y-33996852D01*
X43711941Y-33996852D02*
X43711941Y-33901614D01*
X43711941Y-33901614D02*
X43664322Y-33758757D01*
X43664322Y-33758757D02*
X43616702Y-33711138D01*
X43616702Y-33711138D02*
X43283369Y-33711138D01*
X43283369Y-33711138D02*
X43283369Y-33901614D01*
D11*
X59885713Y-111085600D02*
X60057142Y-111142742D01*
X60057142Y-111142742D02*
X60342856Y-111142742D01*
X60342856Y-111142742D02*
X60457142Y-111085600D01*
X60457142Y-111085600D02*
X60514284Y-111028457D01*
X60514284Y-111028457D02*
X60571427Y-110914171D01*
X60571427Y-110914171D02*
X60571427Y-110799885D01*
X60571427Y-110799885D02*
X60514284Y-110685600D01*
X60514284Y-110685600D02*
X60457142Y-110628457D01*
X60457142Y-110628457D02*
X60342856Y-110571314D01*
X60342856Y-110571314D02*
X60114284Y-110514171D01*
X60114284Y-110514171D02*
X59999999Y-110457028D01*
X59999999Y-110457028D02*
X59942856Y-110399885D01*
X59942856Y-110399885D02*
X59885713Y-110285600D01*
X59885713Y-110285600D02*
X59885713Y-110171314D01*
X59885713Y-110171314D02*
X59942856Y-110057028D01*
X59942856Y-110057028D02*
X59999999Y-109999885D01*
X59999999Y-109999885D02*
X60114284Y-109942742D01*
X60114284Y-109942742D02*
X60399999Y-109942742D01*
X60399999Y-109942742D02*
X60571427Y-109999885D01*
X60971427Y-109942742D02*
X61771427Y-109942742D01*
X61771427Y-109942742D02*
X61257141Y-111142742D01*
X49145714Y-92087600D02*
X49317143Y-92144742D01*
X49317143Y-92144742D02*
X49602857Y-92144742D01*
X49602857Y-92144742D02*
X49717143Y-92087600D01*
X49717143Y-92087600D02*
X49774285Y-92030457D01*
X49774285Y-92030457D02*
X49831428Y-91916171D01*
X49831428Y-91916171D02*
X49831428Y-91801885D01*
X49831428Y-91801885D02*
X49774285Y-91687600D01*
X49774285Y-91687600D02*
X49717143Y-91630457D01*
X49717143Y-91630457D02*
X49602857Y-91573314D01*
X49602857Y-91573314D02*
X49374285Y-91516171D01*
X49374285Y-91516171D02*
X49260000Y-91459028D01*
X49260000Y-91459028D02*
X49202857Y-91401885D01*
X49202857Y-91401885D02*
X49145714Y-91287600D01*
X49145714Y-91287600D02*
X49145714Y-91173314D01*
X49145714Y-91173314D02*
X49202857Y-91059028D01*
X49202857Y-91059028D02*
X49260000Y-91001885D01*
X49260000Y-91001885D02*
X49374285Y-90944742D01*
X49374285Y-90944742D02*
X49660000Y-90944742D01*
X49660000Y-90944742D02*
X49831428Y-91001885D01*
X50974285Y-92144742D02*
X50288571Y-92144742D01*
X50631428Y-92144742D02*
X50631428Y-90944742D01*
X50631428Y-90944742D02*
X50517142Y-91116171D01*
X50517142Y-91116171D02*
X50402857Y-91230457D01*
X50402857Y-91230457D02*
X50288571Y-91287600D01*
X49759190Y-105800000D02*
X50959190Y-105800000D01*
X50959190Y-105800000D02*
X50959190Y-106257143D01*
X50959190Y-106257143D02*
X50902047Y-106371428D01*
X50902047Y-106371428D02*
X50844904Y-106428571D01*
X50844904Y-106428571D02*
X50730618Y-106485714D01*
X50730618Y-106485714D02*
X50559190Y-106485714D01*
X50559190Y-106485714D02*
X50444904Y-106428571D01*
X50444904Y-106428571D02*
X50387761Y-106371428D01*
X50387761Y-106371428D02*
X50330618Y-106257143D01*
X50330618Y-106257143D02*
X50330618Y-105800000D01*
X50959190Y-106885714D02*
X49759190Y-107171428D01*
X49759190Y-107171428D02*
X50616333Y-107400000D01*
X50616333Y-107400000D02*
X49759190Y-107628571D01*
X49759190Y-107628571D02*
X50959190Y-107914286D01*
X49759190Y-109057143D02*
X50330618Y-108657143D01*
X49759190Y-108371429D02*
X50959190Y-108371429D01*
X50959190Y-108371429D02*
X50959190Y-108828572D01*
X50959190Y-108828572D02*
X50902047Y-108942857D01*
X50902047Y-108942857D02*
X50844904Y-109000000D01*
X50844904Y-109000000D02*
X50730618Y-109057143D01*
X50730618Y-109057143D02*
X50559190Y-109057143D01*
X50559190Y-109057143D02*
X50444904Y-109000000D01*
X50444904Y-109000000D02*
X50387761Y-108942857D01*
X50387761Y-108942857D02*
X50330618Y-108828572D01*
X50330618Y-108828572D02*
X50330618Y-108371429D01*
X48284400Y-105742857D02*
X48284400Y-106657143D01*
X48284400Y-108142857D02*
X48284400Y-109057143D01*
X47827257Y-108600000D02*
X48741542Y-108600000D01*
D10*
X46663076Y-65690476D02*
X46710696Y-65738095D01*
X46710696Y-65738095D02*
X46758315Y-65880952D01*
X46758315Y-65880952D02*
X46758315Y-65976190D01*
X46758315Y-65976190D02*
X46710696Y-66119047D01*
X46710696Y-66119047D02*
X46615457Y-66214285D01*
X46615457Y-66214285D02*
X46520219Y-66261904D01*
X46520219Y-66261904D02*
X46329743Y-66309523D01*
X46329743Y-66309523D02*
X46186886Y-66309523D01*
X46186886Y-66309523D02*
X45996410Y-66261904D01*
X45996410Y-66261904D02*
X45901172Y-66214285D01*
X45901172Y-66214285D02*
X45805934Y-66119047D01*
X45805934Y-66119047D02*
X45758315Y-65976190D01*
X45758315Y-65976190D02*
X45758315Y-65880952D01*
X45758315Y-65880952D02*
X45805934Y-65738095D01*
X45805934Y-65738095D02*
X45853553Y-65690476D01*
X46472600Y-65309523D02*
X46472600Y-64833333D01*
X46758315Y-65404761D02*
X45758315Y-65071428D01*
X45758315Y-65071428D02*
X46758315Y-64738095D01*
X46758315Y-64404761D02*
X45758315Y-64404761D01*
X45758315Y-64404761D02*
X46472600Y-64071428D01*
X46472600Y-64071428D02*
X45758315Y-63738095D01*
X45758315Y-63738095D02*
X46758315Y-63738095D01*
X47796830Y-66404761D02*
X47749211Y-66499999D01*
X47749211Y-66499999D02*
X47701592Y-66547618D01*
X47701592Y-66547618D02*
X47606354Y-66595237D01*
X47606354Y-66595237D02*
X47558735Y-66595237D01*
X47558735Y-66595237D02*
X47463497Y-66547618D01*
X47463497Y-66547618D02*
X47415878Y-66499999D01*
X47415878Y-66499999D02*
X47368259Y-66404761D01*
X47368259Y-66404761D02*
X47368259Y-66214285D01*
X47368259Y-66214285D02*
X47415878Y-66119047D01*
X47415878Y-66119047D02*
X47463497Y-66071428D01*
X47463497Y-66071428D02*
X47558735Y-66023809D01*
X47558735Y-66023809D02*
X47606354Y-66023809D01*
X47606354Y-66023809D02*
X47701592Y-66071428D01*
X47701592Y-66071428D02*
X47749211Y-66119047D01*
X47749211Y-66119047D02*
X47796830Y-66214285D01*
X47796830Y-66214285D02*
X47796830Y-66404761D01*
X47796830Y-66404761D02*
X47844449Y-66499999D01*
X47844449Y-66499999D02*
X47892068Y-66547618D01*
X47892068Y-66547618D02*
X47987306Y-66595237D01*
X47987306Y-66595237D02*
X48177782Y-66595237D01*
X48177782Y-66595237D02*
X48273020Y-66547618D01*
X48273020Y-66547618D02*
X48320640Y-66499999D01*
X48320640Y-66499999D02*
X48368259Y-66404761D01*
X48368259Y-66404761D02*
X48368259Y-66214285D01*
X48368259Y-66214285D02*
X48320640Y-66119047D01*
X48320640Y-66119047D02*
X48273020Y-66071428D01*
X48273020Y-66071428D02*
X48177782Y-66023809D01*
X48177782Y-66023809D02*
X47987306Y-66023809D01*
X47987306Y-66023809D02*
X47892068Y-66071428D01*
X47892068Y-66071428D02*
X47844449Y-66119047D01*
X47844449Y-66119047D02*
X47796830Y-66214285D01*
X47368259Y-65738094D02*
X48368259Y-65404761D01*
X48368259Y-65404761D02*
X47368259Y-65071428D01*
X47415878Y-63452380D02*
X47368259Y-63547618D01*
X47368259Y-63547618D02*
X47368259Y-63690475D01*
X47368259Y-63690475D02*
X47415878Y-63833332D01*
X47415878Y-63833332D02*
X47511116Y-63928570D01*
X47511116Y-63928570D02*
X47606354Y-63976189D01*
X47606354Y-63976189D02*
X47796830Y-64023808D01*
X47796830Y-64023808D02*
X47939687Y-64023808D01*
X47939687Y-64023808D02*
X48130163Y-63976189D01*
X48130163Y-63976189D02*
X48225401Y-63928570D01*
X48225401Y-63928570D02*
X48320640Y-63833332D01*
X48320640Y-63833332D02*
X48368259Y-63690475D01*
X48368259Y-63690475D02*
X48368259Y-63595237D01*
X48368259Y-63595237D02*
X48320640Y-63452380D01*
X48320640Y-63452380D02*
X48273020Y-63404761D01*
X48273020Y-63404761D02*
X47939687Y-63404761D01*
X47939687Y-63404761D02*
X47939687Y-63595237D01*
X84892857Y-63544449D02*
X85035714Y-63592068D01*
X85035714Y-63592068D02*
X85083333Y-63639687D01*
X85083333Y-63639687D02*
X85130952Y-63734925D01*
X85130952Y-63734925D02*
X85130952Y-63877782D01*
X85130952Y-63877782D02*
X85083333Y-63973020D01*
X85083333Y-63973020D02*
X85035714Y-64020640D01*
X85035714Y-64020640D02*
X84940476Y-64068259D01*
X84940476Y-64068259D02*
X84559524Y-64068259D01*
X84559524Y-64068259D02*
X84559524Y-63068259D01*
X84559524Y-63068259D02*
X84892857Y-63068259D01*
X84892857Y-63068259D02*
X84988095Y-63115878D01*
X84988095Y-63115878D02*
X85035714Y-63163497D01*
X85035714Y-63163497D02*
X85083333Y-63258735D01*
X85083333Y-63258735D02*
X85083333Y-63353973D01*
X85083333Y-63353973D02*
X85035714Y-63449211D01*
X85035714Y-63449211D02*
X84988095Y-63496830D01*
X84988095Y-63496830D02*
X84892857Y-63544449D01*
X84892857Y-63544449D02*
X84559524Y-63544449D01*
X85750000Y-63068259D02*
X85940476Y-63068259D01*
X85940476Y-63068259D02*
X86035714Y-63115878D01*
X86035714Y-63115878D02*
X86130952Y-63211116D01*
X86130952Y-63211116D02*
X86178571Y-63401592D01*
X86178571Y-63401592D02*
X86178571Y-63734925D01*
X86178571Y-63734925D02*
X86130952Y-63925401D01*
X86130952Y-63925401D02*
X86035714Y-64020640D01*
X86035714Y-64020640D02*
X85940476Y-64068259D01*
X85940476Y-64068259D02*
X85750000Y-64068259D01*
X85750000Y-64068259D02*
X85654762Y-64020640D01*
X85654762Y-64020640D02*
X85559524Y-63925401D01*
X85559524Y-63925401D02*
X85511905Y-63734925D01*
X85511905Y-63734925D02*
X85511905Y-63401592D01*
X85511905Y-63401592D02*
X85559524Y-63211116D01*
X85559524Y-63211116D02*
X85654762Y-63115878D01*
X85654762Y-63115878D02*
X85750000Y-63068259D01*
X86797619Y-63068259D02*
X86988095Y-63068259D01*
X86988095Y-63068259D02*
X87083333Y-63115878D01*
X87083333Y-63115878D02*
X87178571Y-63211116D01*
X87178571Y-63211116D02*
X87226190Y-63401592D01*
X87226190Y-63401592D02*
X87226190Y-63734925D01*
X87226190Y-63734925D02*
X87178571Y-63925401D01*
X87178571Y-63925401D02*
X87083333Y-64020640D01*
X87083333Y-64020640D02*
X86988095Y-64068259D01*
X86988095Y-64068259D02*
X86797619Y-64068259D01*
X86797619Y-64068259D02*
X86702381Y-64020640D01*
X86702381Y-64020640D02*
X86607143Y-63925401D01*
X86607143Y-63925401D02*
X86559524Y-63734925D01*
X86559524Y-63734925D02*
X86559524Y-63401592D01*
X86559524Y-63401592D02*
X86607143Y-63211116D01*
X86607143Y-63211116D02*
X86702381Y-63115878D01*
X86702381Y-63115878D02*
X86797619Y-63068259D01*
X87511905Y-63068259D02*
X88083333Y-63068259D01*
X87797619Y-64068259D02*
X87797619Y-63068259D01*
D11*
X50102047Y-101368571D02*
X50102047Y-101940000D01*
X49759190Y-101254285D02*
X50959190Y-101654285D01*
X50959190Y-101654285D02*
X49759190Y-102054285D01*
X49759190Y-103139999D02*
X50330618Y-102739999D01*
X49759190Y-102454285D02*
X50959190Y-102454285D01*
X50959190Y-102454285D02*
X50959190Y-102911428D01*
X50959190Y-102911428D02*
X50902047Y-103025713D01*
X50902047Y-103025713D02*
X50844904Y-103082856D01*
X50844904Y-103082856D02*
X50730618Y-103139999D01*
X50730618Y-103139999D02*
X50559190Y-103139999D01*
X50559190Y-103139999D02*
X50444904Y-103082856D01*
X50444904Y-103082856D02*
X50387761Y-103025713D01*
X50387761Y-103025713D02*
X50330618Y-102911428D01*
X50330618Y-102911428D02*
X50330618Y-102454285D01*
X49759190Y-103654285D02*
X50959190Y-103654285D01*
X50959190Y-103654285D02*
X50102047Y-104054285D01*
X50102047Y-104054285D02*
X50959190Y-104454285D01*
X50959190Y-104454285D02*
X49759190Y-104454285D01*
X48284400Y-101282857D02*
X48284400Y-102197143D01*
X47827257Y-101740000D02*
X48741542Y-101740000D01*
X48284400Y-103682857D02*
X48284400Y-104597143D01*
X49145714Y-99287600D02*
X49317143Y-99344742D01*
X49317143Y-99344742D02*
X49602857Y-99344742D01*
X49602857Y-99344742D02*
X49717143Y-99287600D01*
X49717143Y-99287600D02*
X49774285Y-99230457D01*
X49774285Y-99230457D02*
X49831428Y-99116171D01*
X49831428Y-99116171D02*
X49831428Y-99001885D01*
X49831428Y-99001885D02*
X49774285Y-98887600D01*
X49774285Y-98887600D02*
X49717143Y-98830457D01*
X49717143Y-98830457D02*
X49602857Y-98773314D01*
X49602857Y-98773314D02*
X49374285Y-98716171D01*
X49374285Y-98716171D02*
X49260000Y-98659028D01*
X49260000Y-98659028D02*
X49202857Y-98601885D01*
X49202857Y-98601885D02*
X49145714Y-98487600D01*
X49145714Y-98487600D02*
X49145714Y-98373314D01*
X49145714Y-98373314D02*
X49202857Y-98259028D01*
X49202857Y-98259028D02*
X49260000Y-98201885D01*
X49260000Y-98201885D02*
X49374285Y-98144742D01*
X49374285Y-98144742D02*
X49660000Y-98144742D01*
X49660000Y-98144742D02*
X49831428Y-98201885D01*
X50231428Y-98144742D02*
X50974285Y-98144742D01*
X50974285Y-98144742D02*
X50574285Y-98601885D01*
X50574285Y-98601885D02*
X50745714Y-98601885D01*
X50745714Y-98601885D02*
X50860000Y-98659028D01*
X50860000Y-98659028D02*
X50917142Y-98716171D01*
X50917142Y-98716171D02*
X50974285Y-98830457D01*
X50974285Y-98830457D02*
X50974285Y-99116171D01*
X50974285Y-99116171D02*
X50917142Y-99230457D01*
X50917142Y-99230457D02*
X50860000Y-99287600D01*
X50860000Y-99287600D02*
X50745714Y-99344742D01*
X50745714Y-99344742D02*
X50402857Y-99344742D01*
X50402857Y-99344742D02*
X50288571Y-99287600D01*
X50288571Y-99287600D02*
X50231428Y-99230457D01*
D10*
X62459524Y-112710864D02*
X62602381Y-112758483D01*
X62602381Y-112758483D02*
X62840476Y-112758483D01*
X62840476Y-112758483D02*
X62935714Y-112710864D01*
X62935714Y-112710864D02*
X62983333Y-112663244D01*
X62983333Y-112663244D02*
X63030952Y-112568006D01*
X63030952Y-112568006D02*
X63030952Y-112472768D01*
X63030952Y-112472768D02*
X62983333Y-112377530D01*
X62983333Y-112377530D02*
X62935714Y-112329911D01*
X62935714Y-112329911D02*
X62840476Y-112282292D01*
X62840476Y-112282292D02*
X62650000Y-112234673D01*
X62650000Y-112234673D02*
X62554762Y-112187054D01*
X62554762Y-112187054D02*
X62507143Y-112139435D01*
X62507143Y-112139435D02*
X62459524Y-112044197D01*
X62459524Y-112044197D02*
X62459524Y-111948959D01*
X62459524Y-111948959D02*
X62507143Y-111853721D01*
X62507143Y-111853721D02*
X62554762Y-111806102D01*
X62554762Y-111806102D02*
X62650000Y-111758483D01*
X62650000Y-111758483D02*
X62888095Y-111758483D01*
X62888095Y-111758483D02*
X63030952Y-111806102D01*
X63935714Y-111758483D02*
X63459524Y-111758483D01*
X63459524Y-111758483D02*
X63411905Y-112234673D01*
X63411905Y-112234673D02*
X63459524Y-112187054D01*
X63459524Y-112187054D02*
X63554762Y-112139435D01*
X63554762Y-112139435D02*
X63792857Y-112139435D01*
X63792857Y-112139435D02*
X63888095Y-112187054D01*
X63888095Y-112187054D02*
X63935714Y-112234673D01*
X63935714Y-112234673D02*
X63983333Y-112329911D01*
X63983333Y-112329911D02*
X63983333Y-112568006D01*
X63983333Y-112568006D02*
X63935714Y-112663244D01*
X63935714Y-112663244D02*
X63888095Y-112710864D01*
X63888095Y-112710864D02*
X63792857Y-112758483D01*
X63792857Y-112758483D02*
X63554762Y-112758483D01*
X63554762Y-112758483D02*
X63459524Y-112710864D01*
X63459524Y-112710864D02*
X63411905Y-112663244D01*
X64269048Y-111758483D02*
X64602381Y-112758483D01*
X64602381Y-112758483D02*
X64935714Y-111758483D01*
X63126190Y-115406942D02*
X63030952Y-115359323D01*
X63030952Y-115359323D02*
X62983333Y-115311704D01*
X62983333Y-115311704D02*
X62935714Y-115216466D01*
X62935714Y-115216466D02*
X62935714Y-115168847D01*
X62935714Y-115168847D02*
X62983333Y-115073609D01*
X62983333Y-115073609D02*
X63030952Y-115025990D01*
X63030952Y-115025990D02*
X63126190Y-114978371D01*
X63126190Y-114978371D02*
X63316666Y-114978371D01*
X63316666Y-114978371D02*
X63411904Y-115025990D01*
X63411904Y-115025990D02*
X63459523Y-115073609D01*
X63459523Y-115073609D02*
X63507142Y-115168847D01*
X63507142Y-115168847D02*
X63507142Y-115216466D01*
X63507142Y-115216466D02*
X63459523Y-115311704D01*
X63459523Y-115311704D02*
X63411904Y-115359323D01*
X63411904Y-115359323D02*
X63316666Y-115406942D01*
X63316666Y-115406942D02*
X63126190Y-115406942D01*
X63126190Y-115406942D02*
X63030952Y-115454561D01*
X63030952Y-115454561D02*
X62983333Y-115502180D01*
X62983333Y-115502180D02*
X62935714Y-115597418D01*
X62935714Y-115597418D02*
X62935714Y-115787894D01*
X62935714Y-115787894D02*
X62983333Y-115883132D01*
X62983333Y-115883132D02*
X63030952Y-115930752D01*
X63030952Y-115930752D02*
X63126190Y-115978371D01*
X63126190Y-115978371D02*
X63316666Y-115978371D01*
X63316666Y-115978371D02*
X63411904Y-115930752D01*
X63411904Y-115930752D02*
X63459523Y-115883132D01*
X63459523Y-115883132D02*
X63507142Y-115787894D01*
X63507142Y-115787894D02*
X63507142Y-115597418D01*
X63507142Y-115597418D02*
X63459523Y-115502180D01*
X63459523Y-115502180D02*
X63411904Y-115454561D01*
X63411904Y-115454561D02*
X63316666Y-115406942D01*
X63792857Y-114978371D02*
X64126190Y-115978371D01*
X64126190Y-115978371D02*
X64459523Y-114978371D01*
X63911904Y-118245878D02*
X63816666Y-118198259D01*
X63816666Y-118198259D02*
X63673809Y-118198259D01*
X63673809Y-118198259D02*
X63530952Y-118245878D01*
X63530952Y-118245878D02*
X63435714Y-118341116D01*
X63435714Y-118341116D02*
X63388095Y-118436354D01*
X63388095Y-118436354D02*
X63340476Y-118626830D01*
X63340476Y-118626830D02*
X63340476Y-118769687D01*
X63340476Y-118769687D02*
X63388095Y-118960163D01*
X63388095Y-118960163D02*
X63435714Y-119055401D01*
X63435714Y-119055401D02*
X63530952Y-119150640D01*
X63530952Y-119150640D02*
X63673809Y-119198259D01*
X63673809Y-119198259D02*
X63769047Y-119198259D01*
X63769047Y-119198259D02*
X63911904Y-119150640D01*
X63911904Y-119150640D02*
X63959523Y-119103020D01*
X63959523Y-119103020D02*
X63959523Y-118769687D01*
X63959523Y-118769687D02*
X63769047Y-118769687D01*
D11*
X80110809Y-110182707D02*
X78910809Y-110182707D01*
X78910809Y-110182707D02*
X78910809Y-109725564D01*
X78910809Y-109725564D02*
X78967952Y-109611279D01*
X78967952Y-109611279D02*
X79025095Y-109554136D01*
X79025095Y-109554136D02*
X79139381Y-109496993D01*
X79139381Y-109496993D02*
X79310809Y-109496993D01*
X79310809Y-109496993D02*
X79425095Y-109554136D01*
X79425095Y-109554136D02*
X79482238Y-109611279D01*
X79482238Y-109611279D02*
X79539381Y-109725564D01*
X79539381Y-109725564D02*
X79539381Y-110182707D01*
X79539381Y-108754136D02*
X80110809Y-108754136D01*
X78910809Y-109154136D02*
X79539381Y-108754136D01*
X79539381Y-108754136D02*
X78910809Y-108354136D01*
X80110809Y-107268422D02*
X79539381Y-107668422D01*
X80110809Y-107954136D02*
X78910809Y-107954136D01*
X78910809Y-107954136D02*
X78910809Y-107496993D01*
X78910809Y-107496993D02*
X78967952Y-107382708D01*
X78967952Y-107382708D02*
X79025095Y-107325565D01*
X79025095Y-107325565D02*
X79139381Y-107268422D01*
X79139381Y-107268422D02*
X79310809Y-107268422D01*
X79310809Y-107268422D02*
X79425095Y-107325565D01*
X79425095Y-107325565D02*
X79482238Y-107382708D01*
X79482238Y-107382708D02*
X79539381Y-107496993D01*
X79539381Y-107496993D02*
X79539381Y-107954136D01*
X78910809Y-106525565D02*
X78910809Y-106296993D01*
X78910809Y-106296993D02*
X78967952Y-106182708D01*
X78967952Y-106182708D02*
X79082238Y-106068422D01*
X79082238Y-106068422D02*
X79310809Y-106011279D01*
X79310809Y-106011279D02*
X79710809Y-106011279D01*
X79710809Y-106011279D02*
X79939381Y-106068422D01*
X79939381Y-106068422D02*
X80053667Y-106182708D01*
X80053667Y-106182708D02*
X80110809Y-106296993D01*
X80110809Y-106296993D02*
X80110809Y-106525565D01*
X80110809Y-106525565D02*
X80053667Y-106639851D01*
X80053667Y-106639851D02*
X79939381Y-106754136D01*
X79939381Y-106754136D02*
X79710809Y-106811279D01*
X79710809Y-106811279D02*
X79310809Y-106811279D01*
X79310809Y-106811279D02*
X79082238Y-106754136D01*
X79082238Y-106754136D02*
X78967952Y-106639851D01*
X78967952Y-106639851D02*
X78910809Y-106525565D01*
X81699885Y-110239850D02*
X81699885Y-109668422D01*
X82042742Y-110354136D02*
X80842742Y-109954136D01*
X80842742Y-109954136D02*
X82042742Y-109554136D01*
X82042742Y-108468422D02*
X81471314Y-108868422D01*
X82042742Y-109154136D02*
X80842742Y-109154136D01*
X80842742Y-109154136D02*
X80842742Y-108696993D01*
X80842742Y-108696993D02*
X80899885Y-108582708D01*
X80899885Y-108582708D02*
X80957028Y-108525565D01*
X80957028Y-108525565D02*
X81071314Y-108468422D01*
X81071314Y-108468422D02*
X81242742Y-108468422D01*
X81242742Y-108468422D02*
X81357028Y-108525565D01*
X81357028Y-108525565D02*
X81414171Y-108582708D01*
X81414171Y-108582708D02*
X81471314Y-108696993D01*
X81471314Y-108696993D02*
X81471314Y-109154136D01*
X82042742Y-107954136D02*
X80842742Y-107954136D01*
X80842742Y-107954136D02*
X81699885Y-107554136D01*
X81699885Y-107554136D02*
X80842742Y-107154136D01*
X80842742Y-107154136D02*
X82042742Y-107154136D01*
D10*
X64339849Y-102693782D02*
X65082706Y-102693782D01*
X65082706Y-102693782D02*
X64682706Y-103150925D01*
X64682706Y-103150925D02*
X64854135Y-103150925D01*
X64854135Y-103150925D02*
X64968421Y-103208068D01*
X64968421Y-103208068D02*
X65025563Y-103265211D01*
X65025563Y-103265211D02*
X65082706Y-103379497D01*
X65082706Y-103379497D02*
X65082706Y-103665211D01*
X65082706Y-103665211D02*
X65025563Y-103779497D01*
X65025563Y-103779497D02*
X64968421Y-103836640D01*
X64968421Y-103836640D02*
X64854135Y-103893782D01*
X64854135Y-103893782D02*
X64511278Y-103893782D01*
X64511278Y-103893782D02*
X64396992Y-103836640D01*
X64396992Y-103836640D02*
X64339849Y-103779497D01*
X65425563Y-102693782D02*
X65825563Y-103893782D01*
X65825563Y-103893782D02*
X66225563Y-102693782D01*
X66511277Y-102693782D02*
X67254134Y-102693782D01*
X67254134Y-102693782D02*
X66854134Y-103150925D01*
X66854134Y-103150925D02*
X67025563Y-103150925D01*
X67025563Y-103150925D02*
X67139849Y-103208068D01*
X67139849Y-103208068D02*
X67196991Y-103265211D01*
X67196991Y-103265211D02*
X67254134Y-103379497D01*
X67254134Y-103379497D02*
X67254134Y-103665211D01*
X67254134Y-103665211D02*
X67196991Y-103779497D01*
X67196991Y-103779497D02*
X67139849Y-103836640D01*
X67139849Y-103836640D02*
X67025563Y-103893782D01*
X67025563Y-103893782D02*
X66682706Y-103893782D01*
X66682706Y-103893782D02*
X66568420Y-103836640D01*
X66568420Y-103836640D02*
X66511277Y-103779497D01*
D11*
X56285714Y-111085600D02*
X56457143Y-111142742D01*
X56457143Y-111142742D02*
X56742857Y-111142742D01*
X56742857Y-111142742D02*
X56857143Y-111085600D01*
X56857143Y-111085600D02*
X56914285Y-111028457D01*
X56914285Y-111028457D02*
X56971428Y-110914171D01*
X56971428Y-110914171D02*
X56971428Y-110799885D01*
X56971428Y-110799885D02*
X56914285Y-110685600D01*
X56914285Y-110685600D02*
X56857143Y-110628457D01*
X56857143Y-110628457D02*
X56742857Y-110571314D01*
X56742857Y-110571314D02*
X56514285Y-110514171D01*
X56514285Y-110514171D02*
X56400000Y-110457028D01*
X56400000Y-110457028D02*
X56342857Y-110399885D01*
X56342857Y-110399885D02*
X56285714Y-110285600D01*
X56285714Y-110285600D02*
X56285714Y-110171314D01*
X56285714Y-110171314D02*
X56342857Y-110057028D01*
X56342857Y-110057028D02*
X56400000Y-109999885D01*
X56400000Y-109999885D02*
X56514285Y-109942742D01*
X56514285Y-109942742D02*
X56800000Y-109942742D01*
X56800000Y-109942742D02*
X56971428Y-109999885D01*
X58000000Y-109942742D02*
X57771428Y-109942742D01*
X57771428Y-109942742D02*
X57657142Y-109999885D01*
X57657142Y-109999885D02*
X57600000Y-110057028D01*
X57600000Y-110057028D02*
X57485714Y-110228457D01*
X57485714Y-110228457D02*
X57428571Y-110457028D01*
X57428571Y-110457028D02*
X57428571Y-110914171D01*
X57428571Y-110914171D02*
X57485714Y-111028457D01*
X57485714Y-111028457D02*
X57542857Y-111085600D01*
X57542857Y-111085600D02*
X57657142Y-111142742D01*
X57657142Y-111142742D02*
X57885714Y-111142742D01*
X57885714Y-111142742D02*
X58000000Y-111085600D01*
X58000000Y-111085600D02*
X58057142Y-111028457D01*
X58057142Y-111028457D02*
X58114285Y-110914171D01*
X58114285Y-110914171D02*
X58114285Y-110628457D01*
X58114285Y-110628457D02*
X58057142Y-110514171D01*
X58057142Y-110514171D02*
X58000000Y-110457028D01*
X58000000Y-110457028D02*
X57885714Y-110399885D01*
X57885714Y-110399885D02*
X57657142Y-110399885D01*
X57657142Y-110399885D02*
X57542857Y-110457028D01*
X57542857Y-110457028D02*
X57485714Y-110514171D01*
X57485714Y-110514171D02*
X57428571Y-110628457D01*
X52685715Y-111085600D02*
X52857144Y-111142742D01*
X52857144Y-111142742D02*
X53142858Y-111142742D01*
X53142858Y-111142742D02*
X53257144Y-111085600D01*
X53257144Y-111085600D02*
X53314286Y-111028457D01*
X53314286Y-111028457D02*
X53371429Y-110914171D01*
X53371429Y-110914171D02*
X53371429Y-110799885D01*
X53371429Y-110799885D02*
X53314286Y-110685600D01*
X53314286Y-110685600D02*
X53257144Y-110628457D01*
X53257144Y-110628457D02*
X53142858Y-110571314D01*
X53142858Y-110571314D02*
X52914286Y-110514171D01*
X52914286Y-110514171D02*
X52800001Y-110457028D01*
X52800001Y-110457028D02*
X52742858Y-110399885D01*
X52742858Y-110399885D02*
X52685715Y-110285600D01*
X52685715Y-110285600D02*
X52685715Y-110171314D01*
X52685715Y-110171314D02*
X52742858Y-110057028D01*
X52742858Y-110057028D02*
X52800001Y-109999885D01*
X52800001Y-109999885D02*
X52914286Y-109942742D01*
X52914286Y-109942742D02*
X53200001Y-109942742D01*
X53200001Y-109942742D02*
X53371429Y-109999885D01*
X54457143Y-109942742D02*
X53885715Y-109942742D01*
X53885715Y-109942742D02*
X53828572Y-110514171D01*
X53828572Y-110514171D02*
X53885715Y-110457028D01*
X53885715Y-110457028D02*
X54000001Y-110399885D01*
X54000001Y-110399885D02*
X54285715Y-110399885D01*
X54285715Y-110399885D02*
X54400001Y-110457028D01*
X54400001Y-110457028D02*
X54457143Y-110514171D01*
X54457143Y-110514171D02*
X54514286Y-110628457D01*
X54514286Y-110628457D02*
X54514286Y-110914171D01*
X54514286Y-110914171D02*
X54457143Y-111028457D01*
X54457143Y-111028457D02*
X54400001Y-111085600D01*
X54400001Y-111085600D02*
X54285715Y-111142742D01*
X54285715Y-111142742D02*
X54000001Y-111142742D01*
X54000001Y-111142742D02*
X53885715Y-111085600D01*
X53885715Y-111085600D02*
X53828572Y-111028457D01*
D10*
X85952380Y-38818259D02*
X85619047Y-38342068D01*
X85380952Y-38818259D02*
X85380952Y-37818259D01*
X85380952Y-37818259D02*
X85761904Y-37818259D01*
X85761904Y-37818259D02*
X85857142Y-37865878D01*
X85857142Y-37865878D02*
X85904761Y-37913497D01*
X85904761Y-37913497D02*
X85952380Y-38008735D01*
X85952380Y-38008735D02*
X85952380Y-38151592D01*
X85952380Y-38151592D02*
X85904761Y-38246830D01*
X85904761Y-38246830D02*
X85857142Y-38294449D01*
X85857142Y-38294449D02*
X85761904Y-38342068D01*
X85761904Y-38342068D02*
X85380952Y-38342068D01*
X86333333Y-38770640D02*
X86476190Y-38818259D01*
X86476190Y-38818259D02*
X86714285Y-38818259D01*
X86714285Y-38818259D02*
X86809523Y-38770640D01*
X86809523Y-38770640D02*
X86857142Y-38723020D01*
X86857142Y-38723020D02*
X86904761Y-38627782D01*
X86904761Y-38627782D02*
X86904761Y-38532544D01*
X86904761Y-38532544D02*
X86857142Y-38437306D01*
X86857142Y-38437306D02*
X86809523Y-38389687D01*
X86809523Y-38389687D02*
X86714285Y-38342068D01*
X86714285Y-38342068D02*
X86523809Y-38294449D01*
X86523809Y-38294449D02*
X86428571Y-38246830D01*
X86428571Y-38246830D02*
X86380952Y-38199211D01*
X86380952Y-38199211D02*
X86333333Y-38103973D01*
X86333333Y-38103973D02*
X86333333Y-38008735D01*
X86333333Y-38008735D02*
X86380952Y-37913497D01*
X86380952Y-37913497D02*
X86428571Y-37865878D01*
X86428571Y-37865878D02*
X86523809Y-37818259D01*
X86523809Y-37818259D02*
X86761904Y-37818259D01*
X86761904Y-37818259D02*
X86904761Y-37865878D01*
X87190476Y-37818259D02*
X87761904Y-37818259D01*
X87476190Y-38818259D02*
X87476190Y-37818259D01*
D11*
X49145714Y-95687600D02*
X49317143Y-95744742D01*
X49317143Y-95744742D02*
X49602857Y-95744742D01*
X49602857Y-95744742D02*
X49717143Y-95687600D01*
X49717143Y-95687600D02*
X49774285Y-95630457D01*
X49774285Y-95630457D02*
X49831428Y-95516171D01*
X49831428Y-95516171D02*
X49831428Y-95401885D01*
X49831428Y-95401885D02*
X49774285Y-95287600D01*
X49774285Y-95287600D02*
X49717143Y-95230457D01*
X49717143Y-95230457D02*
X49602857Y-95173314D01*
X49602857Y-95173314D02*
X49374285Y-95116171D01*
X49374285Y-95116171D02*
X49260000Y-95059028D01*
X49260000Y-95059028D02*
X49202857Y-95001885D01*
X49202857Y-95001885D02*
X49145714Y-94887600D01*
X49145714Y-94887600D02*
X49145714Y-94773314D01*
X49145714Y-94773314D02*
X49202857Y-94659028D01*
X49202857Y-94659028D02*
X49260000Y-94601885D01*
X49260000Y-94601885D02*
X49374285Y-94544742D01*
X49374285Y-94544742D02*
X49660000Y-94544742D01*
X49660000Y-94544742D02*
X49831428Y-94601885D01*
X50288571Y-94659028D02*
X50345714Y-94601885D01*
X50345714Y-94601885D02*
X50460000Y-94544742D01*
X50460000Y-94544742D02*
X50745714Y-94544742D01*
X50745714Y-94544742D02*
X50860000Y-94601885D01*
X50860000Y-94601885D02*
X50917142Y-94659028D01*
X50917142Y-94659028D02*
X50974285Y-94773314D01*
X50974285Y-94773314D02*
X50974285Y-94887600D01*
X50974285Y-94887600D02*
X50917142Y-95059028D01*
X50917142Y-95059028D02*
X50231428Y-95744742D01*
X50231428Y-95744742D02*
X50974285Y-95744742D01*
D10*
X59519047Y-21948371D02*
X59185714Y-21472180D01*
X58947619Y-21948371D02*
X58947619Y-20948371D01*
X58947619Y-20948371D02*
X59328571Y-20948371D01*
X59328571Y-20948371D02*
X59423809Y-20995990D01*
X59423809Y-20995990D02*
X59471428Y-21043609D01*
X59471428Y-21043609D02*
X59519047Y-21138847D01*
X59519047Y-21138847D02*
X59519047Y-21281704D01*
X59519047Y-21281704D02*
X59471428Y-21376942D01*
X59471428Y-21376942D02*
X59423809Y-21424561D01*
X59423809Y-21424561D02*
X59328571Y-21472180D01*
X59328571Y-21472180D02*
X58947619Y-21472180D01*
X59900000Y-21662656D02*
X60376190Y-21662656D01*
X59804762Y-21948371D02*
X60138095Y-20948371D01*
X60138095Y-20948371D02*
X60471428Y-21948371D01*
X60804762Y-21948371D02*
X60804762Y-20948371D01*
X60804762Y-20948371D02*
X61042857Y-20948371D01*
X61042857Y-20948371D02*
X61185714Y-20995990D01*
X61185714Y-20995990D02*
X61280952Y-21091228D01*
X61280952Y-21091228D02*
X61328571Y-21186466D01*
X61328571Y-21186466D02*
X61376190Y-21376942D01*
X61376190Y-21376942D02*
X61376190Y-21519799D01*
X61376190Y-21519799D02*
X61328571Y-21710275D01*
X61328571Y-21710275D02*
X61280952Y-21805513D01*
X61280952Y-21805513D02*
X61185714Y-21900752D01*
X61185714Y-21900752D02*
X61042857Y-21948371D01*
X61042857Y-21948371D02*
X60804762Y-21948371D01*
X61804762Y-21948371D02*
X61804762Y-20948371D01*
X62471428Y-20948371D02*
X62661904Y-20948371D01*
X62661904Y-20948371D02*
X62757142Y-20995990D01*
X62757142Y-20995990D02*
X62852380Y-21091228D01*
X62852380Y-21091228D02*
X62899999Y-21281704D01*
X62899999Y-21281704D02*
X62899999Y-21615037D01*
X62899999Y-21615037D02*
X62852380Y-21805513D01*
X62852380Y-21805513D02*
X62757142Y-21900752D01*
X62757142Y-21900752D02*
X62661904Y-21948371D01*
X62661904Y-21948371D02*
X62471428Y-21948371D01*
X62471428Y-21948371D02*
X62376190Y-21900752D01*
X62376190Y-21900752D02*
X62280952Y-21805513D01*
X62280952Y-21805513D02*
X62233333Y-21615037D01*
X62233333Y-21615037D02*
X62233333Y-21281704D01*
X62233333Y-21281704D02*
X62280952Y-21091228D01*
X62280952Y-21091228D02*
X62376190Y-20995990D01*
X62376190Y-20995990D02*
X62471428Y-20948371D01*
X55519046Y-22605934D02*
X55423808Y-22558315D01*
X55423808Y-22558315D02*
X55280951Y-22558315D01*
X55280951Y-22558315D02*
X55138094Y-22605934D01*
X55138094Y-22605934D02*
X55042856Y-22701172D01*
X55042856Y-22701172D02*
X54995237Y-22796410D01*
X54995237Y-22796410D02*
X54947618Y-22986886D01*
X54947618Y-22986886D02*
X54947618Y-23129743D01*
X54947618Y-23129743D02*
X54995237Y-23320219D01*
X54995237Y-23320219D02*
X55042856Y-23415457D01*
X55042856Y-23415457D02*
X55138094Y-23510696D01*
X55138094Y-23510696D02*
X55280951Y-23558315D01*
X55280951Y-23558315D02*
X55376189Y-23558315D01*
X55376189Y-23558315D02*
X55519046Y-23510696D01*
X55519046Y-23510696D02*
X55566665Y-23463076D01*
X55566665Y-23463076D02*
X55566665Y-23129743D01*
X55566665Y-23129743D02*
X55376189Y-23129743D01*
X57328570Y-23558315D02*
X56995237Y-23082124D01*
X56757142Y-23558315D02*
X56757142Y-22558315D01*
X56757142Y-22558315D02*
X57138094Y-22558315D01*
X57138094Y-22558315D02*
X57233332Y-22605934D01*
X57233332Y-22605934D02*
X57280951Y-22653553D01*
X57280951Y-22653553D02*
X57328570Y-22748791D01*
X57328570Y-22748791D02*
X57328570Y-22891648D01*
X57328570Y-22891648D02*
X57280951Y-22986886D01*
X57280951Y-22986886D02*
X57233332Y-23034505D01*
X57233332Y-23034505D02*
X57138094Y-23082124D01*
X57138094Y-23082124D02*
X56757142Y-23082124D01*
X59090475Y-23463076D02*
X59042856Y-23510696D01*
X59042856Y-23510696D02*
X58899999Y-23558315D01*
X58899999Y-23558315D02*
X58804761Y-23558315D01*
X58804761Y-23558315D02*
X58661904Y-23510696D01*
X58661904Y-23510696D02*
X58566666Y-23415457D01*
X58566666Y-23415457D02*
X58519047Y-23320219D01*
X58519047Y-23320219D02*
X58471428Y-23129743D01*
X58471428Y-23129743D02*
X58471428Y-22986886D01*
X58471428Y-22986886D02*
X58519047Y-22796410D01*
X58519047Y-22796410D02*
X58566666Y-22701172D01*
X58566666Y-22701172D02*
X58661904Y-22605934D01*
X58661904Y-22605934D02*
X58804761Y-22558315D01*
X58804761Y-22558315D02*
X58899999Y-22558315D01*
X58899999Y-22558315D02*
X59042856Y-22605934D01*
X59042856Y-22605934D02*
X59090475Y-22653553D01*
X60852380Y-23558315D02*
X60519047Y-23082124D01*
X60280952Y-23558315D02*
X60280952Y-22558315D01*
X60280952Y-22558315D02*
X60661904Y-22558315D01*
X60661904Y-22558315D02*
X60757142Y-22605934D01*
X60757142Y-22605934D02*
X60804761Y-22653553D01*
X60804761Y-22653553D02*
X60852380Y-22748791D01*
X60852380Y-22748791D02*
X60852380Y-22891648D01*
X60852380Y-22891648D02*
X60804761Y-22986886D01*
X60804761Y-22986886D02*
X60757142Y-23034505D01*
X60757142Y-23034505D02*
X60661904Y-23082124D01*
X60661904Y-23082124D02*
X60280952Y-23082124D01*
X61185714Y-22558315D02*
X61852380Y-23558315D01*
X61852380Y-22558315D02*
X61185714Y-23558315D01*
X62852381Y-22558315D02*
X63423809Y-22558315D01*
X63138095Y-23558315D02*
X63138095Y-22558315D01*
X63661905Y-22558315D02*
X64328571Y-23558315D01*
X64328571Y-22558315D02*
X63661905Y-23558315D01*
X65947619Y-22558315D02*
X65471429Y-22558315D01*
X65471429Y-22558315D02*
X65423810Y-23034505D01*
X65423810Y-23034505D02*
X65471429Y-22986886D01*
X65471429Y-22986886D02*
X65566667Y-22939267D01*
X65566667Y-22939267D02*
X65804762Y-22939267D01*
X65804762Y-22939267D02*
X65900000Y-22986886D01*
X65900000Y-22986886D02*
X65947619Y-23034505D01*
X65947619Y-23034505D02*
X65995238Y-23129743D01*
X65995238Y-23129743D02*
X65995238Y-23367838D01*
X65995238Y-23367838D02*
X65947619Y-23463076D01*
X65947619Y-23463076D02*
X65900000Y-23510696D01*
X65900000Y-23510696D02*
X65804762Y-23558315D01*
X65804762Y-23558315D02*
X65566667Y-23558315D01*
X65566667Y-23558315D02*
X65471429Y-23510696D01*
X65471429Y-23510696D02*
X65423810Y-23463076D01*
X66280953Y-22558315D02*
X66614286Y-23558315D01*
X66614286Y-23558315D02*
X66947619Y-22558315D01*
X58995238Y-24168259D02*
X59614285Y-24168259D01*
X59614285Y-24168259D02*
X59280952Y-24549211D01*
X59280952Y-24549211D02*
X59423809Y-24549211D01*
X59423809Y-24549211D02*
X59519047Y-24596830D01*
X59519047Y-24596830D02*
X59566666Y-24644449D01*
X59566666Y-24644449D02*
X59614285Y-24739687D01*
X59614285Y-24739687D02*
X59614285Y-24977782D01*
X59614285Y-24977782D02*
X59566666Y-25073020D01*
X59566666Y-25073020D02*
X59519047Y-25120640D01*
X59519047Y-25120640D02*
X59423809Y-25168259D01*
X59423809Y-25168259D02*
X59138095Y-25168259D01*
X59138095Y-25168259D02*
X59042857Y-25120640D01*
X59042857Y-25120640D02*
X58995238Y-25073020D01*
X59900000Y-24168259D02*
X60233333Y-25168259D01*
X60233333Y-25168259D02*
X60566666Y-24168259D01*
X61661905Y-25168259D02*
X61661905Y-24168259D01*
X62328571Y-24168259D02*
X62519047Y-24168259D01*
X62519047Y-24168259D02*
X62614285Y-24215878D01*
X62614285Y-24215878D02*
X62709523Y-24311116D01*
X62709523Y-24311116D02*
X62757142Y-24501592D01*
X62757142Y-24501592D02*
X62757142Y-24834925D01*
X62757142Y-24834925D02*
X62709523Y-25025401D01*
X62709523Y-25025401D02*
X62614285Y-25120640D01*
X62614285Y-25120640D02*
X62519047Y-25168259D01*
X62519047Y-25168259D02*
X62328571Y-25168259D01*
X62328571Y-25168259D02*
X62233333Y-25120640D01*
X62233333Y-25120640D02*
X62138095Y-25025401D01*
X62138095Y-25025401D02*
X62090476Y-24834925D01*
X62090476Y-24834925D02*
X62090476Y-24501592D01*
X62090476Y-24501592D02*
X62138095Y-24311116D01*
X62138095Y-24311116D02*
X62233333Y-24215878D01*
X62233333Y-24215878D02*
X62328571Y-24168259D01*
D11*
X80010809Y-94599999D02*
X78810809Y-94599999D01*
X78810809Y-94599999D02*
X78810809Y-94142856D01*
X78810809Y-94142856D02*
X78867952Y-94028571D01*
X78867952Y-94028571D02*
X78925095Y-93971428D01*
X78925095Y-93971428D02*
X79039381Y-93914285D01*
X79039381Y-93914285D02*
X79210809Y-93914285D01*
X79210809Y-93914285D02*
X79325095Y-93971428D01*
X79325095Y-93971428D02*
X79382238Y-94028571D01*
X79382238Y-94028571D02*
X79439381Y-94142856D01*
X79439381Y-94142856D02*
X79439381Y-94599999D01*
X79439381Y-93171428D02*
X80010809Y-93171428D01*
X78810809Y-93571428D02*
X79439381Y-93171428D01*
X79439381Y-93171428D02*
X78810809Y-92771428D01*
X78925095Y-92428571D02*
X78867952Y-92371428D01*
X78867952Y-92371428D02*
X78810809Y-92257143D01*
X78810809Y-92257143D02*
X78810809Y-91971428D01*
X78810809Y-91971428D02*
X78867952Y-91857143D01*
X78867952Y-91857143D02*
X78925095Y-91800000D01*
X78925095Y-91800000D02*
X79039381Y-91742857D01*
X79039381Y-91742857D02*
X79153667Y-91742857D01*
X79153667Y-91742857D02*
X79325095Y-91800000D01*
X79325095Y-91800000D02*
X80010809Y-92485714D01*
X80010809Y-92485714D02*
X80010809Y-91742857D01*
X81485600Y-94857142D02*
X81485600Y-93942857D01*
X81942742Y-94399999D02*
X81028457Y-94399999D01*
X81485600Y-92457142D02*
X81485600Y-91542857D01*
D10*
X66075563Y-100043782D02*
X65504135Y-100043782D01*
X65504135Y-100043782D02*
X65446992Y-100615211D01*
X65446992Y-100615211D02*
X65504135Y-100558068D01*
X65504135Y-100558068D02*
X65618421Y-100500925D01*
X65618421Y-100500925D02*
X65904135Y-100500925D01*
X65904135Y-100500925D02*
X66018421Y-100558068D01*
X66018421Y-100558068D02*
X66075563Y-100615211D01*
X66075563Y-100615211D02*
X66132706Y-100729497D01*
X66132706Y-100729497D02*
X66132706Y-101015211D01*
X66132706Y-101015211D02*
X66075563Y-101129497D01*
X66075563Y-101129497D02*
X66018421Y-101186640D01*
X66018421Y-101186640D02*
X65904135Y-101243782D01*
X65904135Y-101243782D02*
X65618421Y-101243782D01*
X65618421Y-101243782D02*
X65504135Y-101186640D01*
X65504135Y-101186640D02*
X65446992Y-101129497D01*
X66475563Y-100043782D02*
X66875563Y-101243782D01*
X66875563Y-101243782D02*
X67275563Y-100043782D01*
X41039048Y-73648259D02*
X41039048Y-74457782D01*
X41039048Y-74457782D02*
X41086667Y-74553020D01*
X41086667Y-74553020D02*
X41134286Y-74600640D01*
X41134286Y-74600640D02*
X41229524Y-74648259D01*
X41229524Y-74648259D02*
X41420000Y-74648259D01*
X41420000Y-74648259D02*
X41515238Y-74600640D01*
X41515238Y-74600640D02*
X41562857Y-74553020D01*
X41562857Y-74553020D02*
X41610476Y-74457782D01*
X41610476Y-74457782D02*
X41610476Y-73648259D01*
X42039048Y-74600640D02*
X42181905Y-74648259D01*
X42181905Y-74648259D02*
X42420000Y-74648259D01*
X42420000Y-74648259D02*
X42515238Y-74600640D01*
X42515238Y-74600640D02*
X42562857Y-74553020D01*
X42562857Y-74553020D02*
X42610476Y-74457782D01*
X42610476Y-74457782D02*
X42610476Y-74362544D01*
X42610476Y-74362544D02*
X42562857Y-74267306D01*
X42562857Y-74267306D02*
X42515238Y-74219687D01*
X42515238Y-74219687D02*
X42420000Y-74172068D01*
X42420000Y-74172068D02*
X42229524Y-74124449D01*
X42229524Y-74124449D02*
X42134286Y-74076830D01*
X42134286Y-74076830D02*
X42086667Y-74029211D01*
X42086667Y-74029211D02*
X42039048Y-73933973D01*
X42039048Y-73933973D02*
X42039048Y-73838735D01*
X42039048Y-73838735D02*
X42086667Y-73743497D01*
X42086667Y-73743497D02*
X42134286Y-73695878D01*
X42134286Y-73695878D02*
X42229524Y-73648259D01*
X42229524Y-73648259D02*
X42467619Y-73648259D01*
X42467619Y-73648259D02*
X42610476Y-73695878D01*
X43372381Y-74124449D02*
X43515238Y-74172068D01*
X43515238Y-74172068D02*
X43562857Y-74219687D01*
X43562857Y-74219687D02*
X43610476Y-74314925D01*
X43610476Y-74314925D02*
X43610476Y-74457782D01*
X43610476Y-74457782D02*
X43562857Y-74553020D01*
X43562857Y-74553020D02*
X43515238Y-74600640D01*
X43515238Y-74600640D02*
X43420000Y-74648259D01*
X43420000Y-74648259D02*
X43039048Y-74648259D01*
X43039048Y-74648259D02*
X43039048Y-73648259D01*
X43039048Y-73648259D02*
X43372381Y-73648259D01*
X43372381Y-73648259D02*
X43467619Y-73695878D01*
X43467619Y-73695878D02*
X43515238Y-73743497D01*
X43515238Y-73743497D02*
X43562857Y-73838735D01*
X43562857Y-73838735D02*
X43562857Y-73933973D01*
X43562857Y-73933973D02*
X43515238Y-74029211D01*
X43515238Y-74029211D02*
X43467619Y-74076830D01*
X43467619Y-74076830D02*
X43372381Y-74124449D01*
X43372381Y-74124449D02*
X43039048Y-74124449D01*
X44039048Y-74267306D02*
X44800953Y-74267306D01*
X45848571Y-74553020D02*
X45800952Y-74600640D01*
X45800952Y-74600640D02*
X45658095Y-74648259D01*
X45658095Y-74648259D02*
X45562857Y-74648259D01*
X45562857Y-74648259D02*
X45420000Y-74600640D01*
X45420000Y-74600640D02*
X45324762Y-74505401D01*
X45324762Y-74505401D02*
X45277143Y-74410163D01*
X45277143Y-74410163D02*
X45229524Y-74219687D01*
X45229524Y-74219687D02*
X45229524Y-74076830D01*
X45229524Y-74076830D02*
X45277143Y-73886354D01*
X45277143Y-73886354D02*
X45324762Y-73791116D01*
X45324762Y-73791116D02*
X45420000Y-73695878D01*
X45420000Y-73695878D02*
X45562857Y-73648259D01*
X45562857Y-73648259D02*
X45658095Y-73648259D01*
X45658095Y-73648259D02*
X45800952Y-73695878D01*
X45800952Y-73695878D02*
X45848571Y-73743497D01*
D11*
X49145714Y-88487600D02*
X49317143Y-88544742D01*
X49317143Y-88544742D02*
X49602857Y-88544742D01*
X49602857Y-88544742D02*
X49717143Y-88487600D01*
X49717143Y-88487600D02*
X49774285Y-88430457D01*
X49774285Y-88430457D02*
X49831428Y-88316171D01*
X49831428Y-88316171D02*
X49831428Y-88201885D01*
X49831428Y-88201885D02*
X49774285Y-88087600D01*
X49774285Y-88087600D02*
X49717143Y-88030457D01*
X49717143Y-88030457D02*
X49602857Y-87973314D01*
X49602857Y-87973314D02*
X49374285Y-87916171D01*
X49374285Y-87916171D02*
X49260000Y-87859028D01*
X49260000Y-87859028D02*
X49202857Y-87801885D01*
X49202857Y-87801885D02*
X49145714Y-87687600D01*
X49145714Y-87687600D02*
X49145714Y-87573314D01*
X49145714Y-87573314D02*
X49202857Y-87459028D01*
X49202857Y-87459028D02*
X49260000Y-87401885D01*
X49260000Y-87401885D02*
X49374285Y-87344742D01*
X49374285Y-87344742D02*
X49660000Y-87344742D01*
X49660000Y-87344742D02*
X49831428Y-87401885D01*
X50574285Y-87344742D02*
X50688571Y-87344742D01*
X50688571Y-87344742D02*
X50802857Y-87401885D01*
X50802857Y-87401885D02*
X50860000Y-87459028D01*
X50860000Y-87459028D02*
X50917142Y-87573314D01*
X50917142Y-87573314D02*
X50974285Y-87801885D01*
X50974285Y-87801885D02*
X50974285Y-88087600D01*
X50974285Y-88087600D02*
X50917142Y-88316171D01*
X50917142Y-88316171D02*
X50860000Y-88430457D01*
X50860000Y-88430457D02*
X50802857Y-88487600D01*
X50802857Y-88487600D02*
X50688571Y-88544742D01*
X50688571Y-88544742D02*
X50574285Y-88544742D01*
X50574285Y-88544742D02*
X50460000Y-88487600D01*
X50460000Y-88487600D02*
X50402857Y-88430457D01*
X50402857Y-88430457D02*
X50345714Y-88316171D01*
X50345714Y-88316171D02*
X50288571Y-88087600D01*
X50288571Y-88087600D02*
X50288571Y-87801885D01*
X50288571Y-87801885D02*
X50345714Y-87573314D01*
X50345714Y-87573314D02*
X50402857Y-87459028D01*
X50402857Y-87459028D02*
X50460000Y-87401885D01*
X50460000Y-87401885D02*
X50574285Y-87344742D01*
D12*
X74243946Y-64457213D02*
X74816366Y-65029633D01*
X74816366Y-65029633D02*
X74917381Y-65063305D01*
X74917381Y-65063305D02*
X74984725Y-65063305D01*
X74984725Y-65063305D02*
X75085740Y-65029633D01*
X75085740Y-65029633D02*
X75220427Y-64894946D01*
X75220427Y-64894946D02*
X75254099Y-64793931D01*
X75254099Y-64793931D02*
X75254099Y-64726587D01*
X75254099Y-64726587D02*
X75220427Y-64625572D01*
X75220427Y-64625572D02*
X74648007Y-64053152D01*
X75018397Y-63817450D02*
X75018397Y-63750107D01*
X75018397Y-63750107D02*
X75052068Y-63649091D01*
X75052068Y-63649091D02*
X75220427Y-63480733D01*
X75220427Y-63480733D02*
X75321442Y-63447061D01*
X75321442Y-63447061D02*
X75388786Y-63447061D01*
X75388786Y-63447061D02*
X75489801Y-63480733D01*
X75489801Y-63480733D02*
X75557145Y-63548076D01*
X75557145Y-63548076D02*
X75624488Y-63682763D01*
X75624488Y-63682763D02*
X75624488Y-64490885D01*
X75624488Y-64490885D02*
X76062221Y-64053152D01*
X66924819Y-94722857D02*
X66448628Y-95056190D01*
X66924819Y-95294285D02*
X65924819Y-95294285D01*
X65924819Y-95294285D02*
X65924819Y-94913333D01*
X65924819Y-94913333D02*
X65972438Y-94818095D01*
X65972438Y-94818095D02*
X66020057Y-94770476D01*
X66020057Y-94770476D02*
X66115295Y-94722857D01*
X66115295Y-94722857D02*
X66258152Y-94722857D01*
X66258152Y-94722857D02*
X66353390Y-94770476D01*
X66353390Y-94770476D02*
X66401009Y-94818095D01*
X66401009Y-94818095D02*
X66448628Y-94913333D01*
X66448628Y-94913333D02*
X66448628Y-95294285D01*
X66258152Y-93865714D02*
X66924819Y-93865714D01*
X65877200Y-94103809D02*
X66591485Y-94341904D01*
X66591485Y-94341904D02*
X66591485Y-93722857D01*
X65924819Y-93151428D02*
X65924819Y-93056190D01*
X65924819Y-93056190D02*
X65972438Y-92960952D01*
X65972438Y-92960952D02*
X66020057Y-92913333D01*
X66020057Y-92913333D02*
X66115295Y-92865714D01*
X66115295Y-92865714D02*
X66305771Y-92818095D01*
X66305771Y-92818095D02*
X66543866Y-92818095D01*
X66543866Y-92818095D02*
X66734342Y-92865714D01*
X66734342Y-92865714D02*
X66829580Y-92913333D01*
X66829580Y-92913333D02*
X66877200Y-92960952D01*
X66877200Y-92960952D02*
X66924819Y-93056190D01*
X66924819Y-93056190D02*
X66924819Y-93151428D01*
X66924819Y-93151428D02*
X66877200Y-93246666D01*
X66877200Y-93246666D02*
X66829580Y-93294285D01*
X66829580Y-93294285D02*
X66734342Y-93341904D01*
X66734342Y-93341904D02*
X66543866Y-93389523D01*
X66543866Y-93389523D02*
X66305771Y-93389523D01*
X66305771Y-93389523D02*
X66115295Y-93341904D01*
X66115295Y-93341904D02*
X66020057Y-93294285D01*
X66020057Y-93294285D02*
X65972438Y-93246666D01*
X65972438Y-93246666D02*
X65924819Y-93151428D01*
X78428571Y-116114700D02*
X79571429Y-116114700D01*
X79000000Y-116686128D02*
X79000000Y-115543271D01*
X65428571Y-116114700D02*
X66571429Y-116114700D01*
X52327142Y-83484819D02*
X51993809Y-83008628D01*
X51755714Y-83484819D02*
X51755714Y-82484819D01*
X51755714Y-82484819D02*
X52136666Y-82484819D01*
X52136666Y-82484819D02*
X52231904Y-82532438D01*
X52231904Y-82532438D02*
X52279523Y-82580057D01*
X52279523Y-82580057D02*
X52327142Y-82675295D01*
X52327142Y-82675295D02*
X52327142Y-82818152D01*
X52327142Y-82818152D02*
X52279523Y-82913390D01*
X52279523Y-82913390D02*
X52231904Y-82961009D01*
X52231904Y-82961009D02*
X52136666Y-83008628D01*
X52136666Y-83008628D02*
X51755714Y-83008628D01*
X53279523Y-83484819D02*
X52708095Y-83484819D01*
X52993809Y-83484819D02*
X52993809Y-82484819D01*
X52993809Y-82484819D02*
X52898571Y-82627676D01*
X52898571Y-82627676D02*
X52803333Y-82722914D01*
X52803333Y-82722914D02*
X52708095Y-82770533D01*
X53612857Y-82484819D02*
X54279523Y-82484819D01*
X54279523Y-82484819D02*
X53850952Y-83484819D01*
X77179693Y-45628830D02*
X77179693Y-45696174D01*
X77179693Y-45696174D02*
X77112349Y-45830861D01*
X77112349Y-45830861D02*
X77045006Y-45898204D01*
X77045006Y-45898204D02*
X76910319Y-45965548D01*
X76910319Y-45965548D02*
X76775632Y-45965548D01*
X76775632Y-45965548D02*
X76674617Y-45931876D01*
X76674617Y-45931876D02*
X76506258Y-45830861D01*
X76506258Y-45830861D02*
X76405243Y-45729846D01*
X76405243Y-45729846D02*
X76304227Y-45561487D01*
X76304227Y-45561487D02*
X76270556Y-45460472D01*
X76270556Y-45460472D02*
X76270556Y-45325785D01*
X76270556Y-45325785D02*
X76337899Y-45191098D01*
X76337899Y-45191098D02*
X76405243Y-45123754D01*
X76405243Y-45123754D02*
X76539930Y-45056411D01*
X76539930Y-45056411D02*
X76607273Y-45056411D01*
X76775632Y-44753365D02*
X77213365Y-44315632D01*
X77213365Y-44315632D02*
X77247036Y-44820708D01*
X77247036Y-44820708D02*
X77348052Y-44719693D01*
X77348052Y-44719693D02*
X77449067Y-44686021D01*
X77449067Y-44686021D02*
X77516410Y-44686021D01*
X77516410Y-44686021D02*
X77617426Y-44719693D01*
X77617426Y-44719693D02*
X77785784Y-44888052D01*
X77785784Y-44888052D02*
X77819456Y-44989067D01*
X77819456Y-44989067D02*
X77819456Y-45056411D01*
X77819456Y-45056411D02*
X77785784Y-45157426D01*
X77785784Y-45157426D02*
X77583754Y-45359456D01*
X77583754Y-45359456D02*
X77482739Y-45393128D01*
X77482739Y-45393128D02*
X77415395Y-45393128D01*
X77449067Y-44079930D02*
X77920472Y-43608525D01*
X77920472Y-43608525D02*
X78324533Y-44618678D01*
X75069693Y-43978830D02*
X75069693Y-44046174D01*
X75069693Y-44046174D02*
X75002349Y-44180861D01*
X75002349Y-44180861D02*
X74935006Y-44248204D01*
X74935006Y-44248204D02*
X74800319Y-44315548D01*
X74800319Y-44315548D02*
X74665632Y-44315548D01*
X74665632Y-44315548D02*
X74564617Y-44281876D01*
X74564617Y-44281876D02*
X74396258Y-44180861D01*
X74396258Y-44180861D02*
X74295243Y-44079846D01*
X74295243Y-44079846D02*
X74194227Y-43911487D01*
X74194227Y-43911487D02*
X74160556Y-43810472D01*
X74160556Y-43810472D02*
X74160556Y-43675785D01*
X74160556Y-43675785D02*
X74227899Y-43541098D01*
X74227899Y-43541098D02*
X74295243Y-43473754D01*
X74295243Y-43473754D02*
X74429930Y-43406411D01*
X74429930Y-43406411D02*
X74497273Y-43406411D01*
X75069693Y-42699304D02*
X74732975Y-43036021D01*
X74732975Y-43036021D02*
X75036021Y-43406411D01*
X75036021Y-43406411D02*
X75036021Y-43339067D01*
X75036021Y-43339067D02*
X75069693Y-43238052D01*
X75069693Y-43238052D02*
X75238052Y-43069693D01*
X75238052Y-43069693D02*
X75339067Y-43036021D01*
X75339067Y-43036021D02*
X75406410Y-43036021D01*
X75406410Y-43036021D02*
X75507426Y-43069693D01*
X75507426Y-43069693D02*
X75675784Y-43238052D01*
X75675784Y-43238052D02*
X75709456Y-43339067D01*
X75709456Y-43339067D02*
X75709456Y-43406411D01*
X75709456Y-43406411D02*
X75675784Y-43507426D01*
X75675784Y-43507426D02*
X75507426Y-43675785D01*
X75507426Y-43675785D02*
X75406410Y-43709456D01*
X75406410Y-43709456D02*
X75339067Y-43709456D01*
X75440082Y-42463601D02*
X75440082Y-42396258D01*
X75440082Y-42396258D02*
X75473754Y-42295243D01*
X75473754Y-42295243D02*
X75642113Y-42126884D01*
X75642113Y-42126884D02*
X75743128Y-42093212D01*
X75743128Y-42093212D02*
X75810472Y-42093212D01*
X75810472Y-42093212D02*
X75911487Y-42126884D01*
X75911487Y-42126884D02*
X75978830Y-42194227D01*
X75978830Y-42194227D02*
X76046174Y-42328914D01*
X76046174Y-42328914D02*
X76046174Y-43137036D01*
X76046174Y-43137036D02*
X76483907Y-42699304D01*
X62361905Y-95924819D02*
X62361905Y-94924819D01*
X62361905Y-94924819D02*
X62600000Y-94924819D01*
X62600000Y-94924819D02*
X62742857Y-94972438D01*
X62742857Y-94972438D02*
X62838095Y-95067676D01*
X62838095Y-95067676D02*
X62885714Y-95162914D01*
X62885714Y-95162914D02*
X62933333Y-95353390D01*
X62933333Y-95353390D02*
X62933333Y-95496247D01*
X62933333Y-95496247D02*
X62885714Y-95686723D01*
X62885714Y-95686723D02*
X62838095Y-95781961D01*
X62838095Y-95781961D02*
X62742857Y-95877200D01*
X62742857Y-95877200D02*
X62600000Y-95924819D01*
X62600000Y-95924819D02*
X62361905Y-95924819D01*
X63885714Y-95924819D02*
X63314286Y-95924819D01*
X63600000Y-95924819D02*
X63600000Y-94924819D01*
X63600000Y-94924819D02*
X63504762Y-95067676D01*
X63504762Y-95067676D02*
X63409524Y-95162914D01*
X63409524Y-95162914D02*
X63314286Y-95210533D01*
X56138095Y-33334819D02*
X56138095Y-34144342D01*
X56138095Y-34144342D02*
X56185714Y-34239580D01*
X56185714Y-34239580D02*
X56233333Y-34287200D01*
X56233333Y-34287200D02*
X56328571Y-34334819D01*
X56328571Y-34334819D02*
X56519047Y-34334819D01*
X56519047Y-34334819D02*
X56614285Y-34287200D01*
X56614285Y-34287200D02*
X56661904Y-34239580D01*
X56661904Y-34239580D02*
X56709523Y-34144342D01*
X56709523Y-34144342D02*
X56709523Y-33334819D01*
X57709523Y-34334819D02*
X57138095Y-34334819D01*
X57423809Y-34334819D02*
X57423809Y-33334819D01*
X57423809Y-33334819D02*
X57328571Y-33477676D01*
X57328571Y-33477676D02*
X57233333Y-33572914D01*
X57233333Y-33572914D02*
X57138095Y-33620533D01*
X53551905Y-78964819D02*
X53551905Y-79774342D01*
X53551905Y-79774342D02*
X53599524Y-79869580D01*
X53599524Y-79869580D02*
X53647143Y-79917200D01*
X53647143Y-79917200D02*
X53742381Y-79964819D01*
X53742381Y-79964819D02*
X53932857Y-79964819D01*
X53932857Y-79964819D02*
X54028095Y-79917200D01*
X54028095Y-79917200D02*
X54075714Y-79869580D01*
X54075714Y-79869580D02*
X54123333Y-79774342D01*
X54123333Y-79774342D02*
X54123333Y-78964819D01*
X55123333Y-79964819D02*
X54551905Y-79964819D01*
X54837619Y-79964819D02*
X54837619Y-78964819D01*
X54837619Y-78964819D02*
X54742381Y-79107676D01*
X54742381Y-79107676D02*
X54647143Y-79202914D01*
X54647143Y-79202914D02*
X54551905Y-79250533D01*
X55980476Y-79298152D02*
X55980476Y-79964819D01*
X55742381Y-78917200D02*
X55504286Y-79631485D01*
X55504286Y-79631485D02*
X56123333Y-79631485D01*
X62161905Y-106964819D02*
X62161905Y-105964819D01*
X62161905Y-105964819D02*
X62400000Y-105964819D01*
X62400000Y-105964819D02*
X62542857Y-106012438D01*
X62542857Y-106012438D02*
X62638095Y-106107676D01*
X62638095Y-106107676D02*
X62685714Y-106202914D01*
X62685714Y-106202914D02*
X62733333Y-106393390D01*
X62733333Y-106393390D02*
X62733333Y-106536247D01*
X62733333Y-106536247D02*
X62685714Y-106726723D01*
X62685714Y-106726723D02*
X62638095Y-106821961D01*
X62638095Y-106821961D02*
X62542857Y-106917200D01*
X62542857Y-106917200D02*
X62400000Y-106964819D01*
X62400000Y-106964819D02*
X62161905Y-106964819D01*
X63114286Y-106060057D02*
X63161905Y-106012438D01*
X63161905Y-106012438D02*
X63257143Y-105964819D01*
X63257143Y-105964819D02*
X63495238Y-105964819D01*
X63495238Y-105964819D02*
X63590476Y-106012438D01*
X63590476Y-106012438D02*
X63638095Y-106060057D01*
X63638095Y-106060057D02*
X63685714Y-106155295D01*
X63685714Y-106155295D02*
X63685714Y-106250533D01*
X63685714Y-106250533D02*
X63638095Y-106393390D01*
X63638095Y-106393390D02*
X63066667Y-106964819D01*
X63066667Y-106964819D02*
X63685714Y-106964819D01*
X82579693Y-51078830D02*
X82579693Y-51146174D01*
X82579693Y-51146174D02*
X82512349Y-51280861D01*
X82512349Y-51280861D02*
X82445006Y-51348204D01*
X82445006Y-51348204D02*
X82310319Y-51415548D01*
X82310319Y-51415548D02*
X82175632Y-51415548D01*
X82175632Y-51415548D02*
X82074617Y-51381876D01*
X82074617Y-51381876D02*
X81906258Y-51280861D01*
X81906258Y-51280861D02*
X81805243Y-51179846D01*
X81805243Y-51179846D02*
X81704227Y-51011487D01*
X81704227Y-51011487D02*
X81670556Y-50910472D01*
X81670556Y-50910472D02*
X81670556Y-50775785D01*
X81670556Y-50775785D02*
X81737899Y-50641098D01*
X81737899Y-50641098D02*
X81805243Y-50573754D01*
X81805243Y-50573754D02*
X81939930Y-50506411D01*
X81939930Y-50506411D02*
X82007273Y-50506411D01*
X82175632Y-50203365D02*
X82613365Y-49765632D01*
X82613365Y-49765632D02*
X82647036Y-50270708D01*
X82647036Y-50270708D02*
X82748052Y-50169693D01*
X82748052Y-50169693D02*
X82849067Y-50136021D01*
X82849067Y-50136021D02*
X82916410Y-50136021D01*
X82916410Y-50136021D02*
X83017426Y-50169693D01*
X83017426Y-50169693D02*
X83185784Y-50338052D01*
X83185784Y-50338052D02*
X83219456Y-50439067D01*
X83219456Y-50439067D02*
X83219456Y-50506411D01*
X83219456Y-50506411D02*
X83185784Y-50607426D01*
X83185784Y-50607426D02*
X82983754Y-50809456D01*
X82983754Y-50809456D02*
X82882739Y-50843128D01*
X82882739Y-50843128D02*
X82815395Y-50843128D01*
X83320472Y-49664617D02*
X83219456Y-49698288D01*
X83219456Y-49698288D02*
X83152113Y-49698288D01*
X83152113Y-49698288D02*
X83051098Y-49664617D01*
X83051098Y-49664617D02*
X83017426Y-49630945D01*
X83017426Y-49630945D02*
X82983754Y-49529930D01*
X82983754Y-49529930D02*
X82983754Y-49462586D01*
X82983754Y-49462586D02*
X83017426Y-49361571D01*
X83017426Y-49361571D02*
X83152113Y-49226884D01*
X83152113Y-49226884D02*
X83253128Y-49193212D01*
X83253128Y-49193212D02*
X83320472Y-49193212D01*
X83320472Y-49193212D02*
X83421487Y-49226884D01*
X83421487Y-49226884D02*
X83455159Y-49260556D01*
X83455159Y-49260556D02*
X83488830Y-49361571D01*
X83488830Y-49361571D02*
X83488830Y-49428914D01*
X83488830Y-49428914D02*
X83455159Y-49529930D01*
X83455159Y-49529930D02*
X83320472Y-49664617D01*
X83320472Y-49664617D02*
X83286800Y-49765632D01*
X83286800Y-49765632D02*
X83286800Y-49832975D01*
X83286800Y-49832975D02*
X83320472Y-49933991D01*
X83320472Y-49933991D02*
X83455159Y-50068678D01*
X83455159Y-50068678D02*
X83556174Y-50102349D01*
X83556174Y-50102349D02*
X83623517Y-50102349D01*
X83623517Y-50102349D02*
X83724533Y-50068678D01*
X83724533Y-50068678D02*
X83859220Y-49933991D01*
X83859220Y-49933991D02*
X83892891Y-49832975D01*
X83892891Y-49832975D02*
X83892891Y-49765632D01*
X83892891Y-49765632D02*
X83859220Y-49664617D01*
X83859220Y-49664617D02*
X83724533Y-49529930D01*
X83724533Y-49529930D02*
X83623517Y-49496258D01*
X83623517Y-49496258D02*
X83556174Y-49496258D01*
X83556174Y-49496258D02*
X83455159Y-49529930D01*
X75404761Y-96800057D02*
X75309523Y-96752438D01*
X75309523Y-96752438D02*
X75214285Y-96657200D01*
X75214285Y-96657200D02*
X75071428Y-96514342D01*
X75071428Y-96514342D02*
X74976190Y-96466723D01*
X74976190Y-96466723D02*
X74880952Y-96466723D01*
X74928571Y-96704819D02*
X74833333Y-96657200D01*
X74833333Y-96657200D02*
X74738095Y-96561961D01*
X74738095Y-96561961D02*
X74690476Y-96371485D01*
X74690476Y-96371485D02*
X74690476Y-96038152D01*
X74690476Y-96038152D02*
X74738095Y-95847676D01*
X74738095Y-95847676D02*
X74833333Y-95752438D01*
X74833333Y-95752438D02*
X74928571Y-95704819D01*
X74928571Y-95704819D02*
X75119047Y-95704819D01*
X75119047Y-95704819D02*
X75214285Y-95752438D01*
X75214285Y-95752438D02*
X75309523Y-95847676D01*
X75309523Y-95847676D02*
X75357142Y-96038152D01*
X75357142Y-96038152D02*
X75357142Y-96371485D01*
X75357142Y-96371485D02*
X75309523Y-96561961D01*
X75309523Y-96561961D02*
X75214285Y-96657200D01*
X75214285Y-96657200D02*
X75119047Y-96704819D01*
X75119047Y-96704819D02*
X74928571Y-96704819D01*
X76214285Y-96038152D02*
X76214285Y-96704819D01*
X75976190Y-95657200D02*
X75738095Y-96371485D01*
X75738095Y-96371485D02*
X76357142Y-96371485D01*
X47531905Y-42674819D02*
X47531905Y-43484342D01*
X47531905Y-43484342D02*
X47579524Y-43579580D01*
X47579524Y-43579580D02*
X47627143Y-43627200D01*
X47627143Y-43627200D02*
X47722381Y-43674819D01*
X47722381Y-43674819D02*
X47912857Y-43674819D01*
X47912857Y-43674819D02*
X48008095Y-43627200D01*
X48008095Y-43627200D02*
X48055714Y-43579580D01*
X48055714Y-43579580D02*
X48103333Y-43484342D01*
X48103333Y-43484342D02*
X48103333Y-42674819D01*
X49103333Y-43674819D02*
X48531905Y-43674819D01*
X48817619Y-43674819D02*
X48817619Y-42674819D01*
X48817619Y-42674819D02*
X48722381Y-42817676D01*
X48722381Y-42817676D02*
X48627143Y-42912914D01*
X48627143Y-42912914D02*
X48531905Y-42960533D01*
X49436667Y-42674819D02*
X50055714Y-42674819D01*
X50055714Y-42674819D02*
X49722381Y-43055771D01*
X49722381Y-43055771D02*
X49865238Y-43055771D01*
X49865238Y-43055771D02*
X49960476Y-43103390D01*
X49960476Y-43103390D02*
X50008095Y-43151009D01*
X50008095Y-43151009D02*
X50055714Y-43246247D01*
X50055714Y-43246247D02*
X50055714Y-43484342D01*
X50055714Y-43484342D02*
X50008095Y-43579580D01*
X50008095Y-43579580D02*
X49960476Y-43627200D01*
X49960476Y-43627200D02*
X49865238Y-43674819D01*
X49865238Y-43674819D02*
X49579524Y-43674819D01*
X49579524Y-43674819D02*
X49484286Y-43627200D01*
X49484286Y-43627200D02*
X49436667Y-43579580D01*
X62759580Y-104616666D02*
X62807200Y-104664285D01*
X62807200Y-104664285D02*
X62854819Y-104807142D01*
X62854819Y-104807142D02*
X62854819Y-104902380D01*
X62854819Y-104902380D02*
X62807200Y-105045237D01*
X62807200Y-105045237D02*
X62711961Y-105140475D01*
X62711961Y-105140475D02*
X62616723Y-105188094D01*
X62616723Y-105188094D02*
X62426247Y-105235713D01*
X62426247Y-105235713D02*
X62283390Y-105235713D01*
X62283390Y-105235713D02*
X62092914Y-105188094D01*
X62092914Y-105188094D02*
X61997676Y-105140475D01*
X61997676Y-105140475D02*
X61902438Y-105045237D01*
X61902438Y-105045237D02*
X61854819Y-104902380D01*
X61854819Y-104902380D02*
X61854819Y-104807142D01*
X61854819Y-104807142D02*
X61902438Y-104664285D01*
X61902438Y-104664285D02*
X61950057Y-104616666D01*
X62854819Y-104140475D02*
X62854819Y-103949999D01*
X62854819Y-103949999D02*
X62807200Y-103854761D01*
X62807200Y-103854761D02*
X62759580Y-103807142D01*
X62759580Y-103807142D02*
X62616723Y-103711904D01*
X62616723Y-103711904D02*
X62426247Y-103664285D01*
X62426247Y-103664285D02*
X62045295Y-103664285D01*
X62045295Y-103664285D02*
X61950057Y-103711904D01*
X61950057Y-103711904D02*
X61902438Y-103759523D01*
X61902438Y-103759523D02*
X61854819Y-103854761D01*
X61854819Y-103854761D02*
X61854819Y-104045237D01*
X61854819Y-104045237D02*
X61902438Y-104140475D01*
X61902438Y-104140475D02*
X61950057Y-104188094D01*
X61950057Y-104188094D02*
X62045295Y-104235713D01*
X62045295Y-104235713D02*
X62283390Y-104235713D01*
X62283390Y-104235713D02*
X62378628Y-104188094D01*
X62378628Y-104188094D02*
X62426247Y-104140475D01*
X62426247Y-104140475D02*
X62473866Y-104045237D01*
X62473866Y-104045237D02*
X62473866Y-103854761D01*
X62473866Y-103854761D02*
X62426247Y-103759523D01*
X62426247Y-103759523D02*
X62378628Y-103711904D01*
X62378628Y-103711904D02*
X62283390Y-103664285D01*
X62829580Y-87336666D02*
X62877200Y-87384285D01*
X62877200Y-87384285D02*
X62924819Y-87527142D01*
X62924819Y-87527142D02*
X62924819Y-87622380D01*
X62924819Y-87622380D02*
X62877200Y-87765237D01*
X62877200Y-87765237D02*
X62781961Y-87860475D01*
X62781961Y-87860475D02*
X62686723Y-87908094D01*
X62686723Y-87908094D02*
X62496247Y-87955713D01*
X62496247Y-87955713D02*
X62353390Y-87955713D01*
X62353390Y-87955713D02*
X62162914Y-87908094D01*
X62162914Y-87908094D02*
X62067676Y-87860475D01*
X62067676Y-87860475D02*
X61972438Y-87765237D01*
X61972438Y-87765237D02*
X61924819Y-87622380D01*
X61924819Y-87622380D02*
X61924819Y-87527142D01*
X61924819Y-87527142D02*
X61972438Y-87384285D01*
X61972438Y-87384285D02*
X62020057Y-87336666D01*
X61924819Y-86431904D02*
X61924819Y-86908094D01*
X61924819Y-86908094D02*
X62401009Y-86955713D01*
X62401009Y-86955713D02*
X62353390Y-86908094D01*
X62353390Y-86908094D02*
X62305771Y-86812856D01*
X62305771Y-86812856D02*
X62305771Y-86574761D01*
X62305771Y-86574761D02*
X62353390Y-86479523D01*
X62353390Y-86479523D02*
X62401009Y-86431904D01*
X62401009Y-86431904D02*
X62496247Y-86384285D01*
X62496247Y-86384285D02*
X62734342Y-86384285D01*
X62734342Y-86384285D02*
X62829580Y-86431904D01*
X62829580Y-86431904D02*
X62877200Y-86479523D01*
X62877200Y-86479523D02*
X62924819Y-86574761D01*
X62924819Y-86574761D02*
X62924819Y-86812856D01*
X62924819Y-86812856D02*
X62877200Y-86908094D01*
X62877200Y-86908094D02*
X62829580Y-86955713D01*
X44264819Y-58542857D02*
X43788628Y-58876190D01*
X44264819Y-59114285D02*
X43264819Y-59114285D01*
X43264819Y-59114285D02*
X43264819Y-58733333D01*
X43264819Y-58733333D02*
X43312438Y-58638095D01*
X43312438Y-58638095D02*
X43360057Y-58590476D01*
X43360057Y-58590476D02*
X43455295Y-58542857D01*
X43455295Y-58542857D02*
X43598152Y-58542857D01*
X43598152Y-58542857D02*
X43693390Y-58590476D01*
X43693390Y-58590476D02*
X43741009Y-58638095D01*
X43741009Y-58638095D02*
X43788628Y-58733333D01*
X43788628Y-58733333D02*
X43788628Y-59114285D01*
X44264819Y-57590476D02*
X44264819Y-58161904D01*
X44264819Y-57876190D02*
X43264819Y-57876190D01*
X43264819Y-57876190D02*
X43407676Y-57971428D01*
X43407676Y-57971428D02*
X43502914Y-58066666D01*
X43502914Y-58066666D02*
X43550533Y-58161904D01*
X43264819Y-56685714D02*
X43264819Y-57161904D01*
X43264819Y-57161904D02*
X43741009Y-57209523D01*
X43741009Y-57209523D02*
X43693390Y-57161904D01*
X43693390Y-57161904D02*
X43645771Y-57066666D01*
X43645771Y-57066666D02*
X43645771Y-56828571D01*
X43645771Y-56828571D02*
X43693390Y-56733333D01*
X43693390Y-56733333D02*
X43741009Y-56685714D01*
X43741009Y-56685714D02*
X43836247Y-56638095D01*
X43836247Y-56638095D02*
X44074342Y-56638095D01*
X44074342Y-56638095D02*
X44169580Y-56685714D01*
X44169580Y-56685714D02*
X44217200Y-56733333D01*
X44217200Y-56733333D02*
X44264819Y-56828571D01*
X44264819Y-56828571D02*
X44264819Y-57066666D01*
X44264819Y-57066666D02*
X44217200Y-57161904D01*
X44217200Y-57161904D02*
X44169580Y-57209523D01*
X48568095Y-28014819D02*
X48568095Y-28824342D01*
X48568095Y-28824342D02*
X48615714Y-28919580D01*
X48615714Y-28919580D02*
X48663333Y-28967200D01*
X48663333Y-28967200D02*
X48758571Y-29014819D01*
X48758571Y-29014819D02*
X48949047Y-29014819D01*
X48949047Y-29014819D02*
X49044285Y-28967200D01*
X49044285Y-28967200D02*
X49091904Y-28919580D01*
X49091904Y-28919580D02*
X49139523Y-28824342D01*
X49139523Y-28824342D02*
X49139523Y-28014819D01*
X50044285Y-28348152D02*
X50044285Y-29014819D01*
X49806190Y-27967200D02*
X49568095Y-28681485D01*
X49568095Y-28681485D02*
X50187142Y-28681485D01*
X68387142Y-96824819D02*
X68053809Y-96348628D01*
X67815714Y-96824819D02*
X67815714Y-95824819D01*
X67815714Y-95824819D02*
X68196666Y-95824819D01*
X68196666Y-95824819D02*
X68291904Y-95872438D01*
X68291904Y-95872438D02*
X68339523Y-95920057D01*
X68339523Y-95920057D02*
X68387142Y-96015295D01*
X68387142Y-96015295D02*
X68387142Y-96158152D01*
X68387142Y-96158152D02*
X68339523Y-96253390D01*
X68339523Y-96253390D02*
X68291904Y-96301009D01*
X68291904Y-96301009D02*
X68196666Y-96348628D01*
X68196666Y-96348628D02*
X67815714Y-96348628D01*
X69244285Y-96158152D02*
X69244285Y-96824819D01*
X69006190Y-95777200D02*
X68768095Y-96491485D01*
X68768095Y-96491485D02*
X69387142Y-96491485D01*
X70291904Y-96824819D02*
X69720476Y-96824819D01*
X70006190Y-96824819D02*
X70006190Y-95824819D01*
X70006190Y-95824819D02*
X69910952Y-95967676D01*
X69910952Y-95967676D02*
X69815714Y-96062914D01*
X69815714Y-96062914D02*
X69720476Y-96110533D01*
X57354819Y-27556666D02*
X56878628Y-27889999D01*
X57354819Y-28128094D02*
X56354819Y-28128094D01*
X56354819Y-28128094D02*
X56354819Y-27747142D01*
X56354819Y-27747142D02*
X56402438Y-27651904D01*
X56402438Y-27651904D02*
X56450057Y-27604285D01*
X56450057Y-27604285D02*
X56545295Y-27556666D01*
X56545295Y-27556666D02*
X56688152Y-27556666D01*
X56688152Y-27556666D02*
X56783390Y-27604285D01*
X56783390Y-27604285D02*
X56831009Y-27651904D01*
X56831009Y-27651904D02*
X56878628Y-27747142D01*
X56878628Y-27747142D02*
X56878628Y-28128094D01*
X56354819Y-27223332D02*
X56354819Y-26556666D01*
X56354819Y-26556666D02*
X57354819Y-26985237D01*
X69698095Y-28634819D02*
X69698095Y-29444342D01*
X69698095Y-29444342D02*
X69745714Y-29539580D01*
X69745714Y-29539580D02*
X69793333Y-29587200D01*
X69793333Y-29587200D02*
X69888571Y-29634819D01*
X69888571Y-29634819D02*
X70079047Y-29634819D01*
X70079047Y-29634819D02*
X70174285Y-29587200D01*
X70174285Y-29587200D02*
X70221904Y-29539580D01*
X70221904Y-29539580D02*
X70269523Y-29444342D01*
X70269523Y-29444342D02*
X70269523Y-28634819D01*
X70793333Y-29634819D02*
X70983809Y-29634819D01*
X70983809Y-29634819D02*
X71079047Y-29587200D01*
X71079047Y-29587200D02*
X71126666Y-29539580D01*
X71126666Y-29539580D02*
X71221904Y-29396723D01*
X71221904Y-29396723D02*
X71269523Y-29206247D01*
X71269523Y-29206247D02*
X71269523Y-28825295D01*
X71269523Y-28825295D02*
X71221904Y-28730057D01*
X71221904Y-28730057D02*
X71174285Y-28682438D01*
X71174285Y-28682438D02*
X71079047Y-28634819D01*
X71079047Y-28634819D02*
X70888571Y-28634819D01*
X70888571Y-28634819D02*
X70793333Y-28682438D01*
X70793333Y-28682438D02*
X70745714Y-28730057D01*
X70745714Y-28730057D02*
X70698095Y-28825295D01*
X70698095Y-28825295D02*
X70698095Y-29063390D01*
X70698095Y-29063390D02*
X70745714Y-29158628D01*
X70745714Y-29158628D02*
X70793333Y-29206247D01*
X70793333Y-29206247D02*
X70888571Y-29253866D01*
X70888571Y-29253866D02*
X71079047Y-29253866D01*
X71079047Y-29253866D02*
X71174285Y-29206247D01*
X71174285Y-29206247D02*
X71221904Y-29158628D01*
X71221904Y-29158628D02*
X71269523Y-29063390D01*
X81756764Y-41969008D02*
X81280574Y-41969008D01*
X81280574Y-41969008D02*
X81280574Y-40969008D01*
X82090098Y-41445198D02*
X82423431Y-41445198D01*
X82566288Y-41969008D02*
X82090098Y-41969008D01*
X82090098Y-41969008D02*
X82090098Y-40969008D01*
X82090098Y-40969008D02*
X82566288Y-40969008D01*
X82994860Y-41969008D02*
X82994860Y-40969008D01*
X82994860Y-40969008D02*
X83232955Y-40969008D01*
X83232955Y-40969008D02*
X83375812Y-41016627D01*
X83375812Y-41016627D02*
X83471050Y-41111865D01*
X83471050Y-41111865D02*
X83518669Y-41207103D01*
X83518669Y-41207103D02*
X83566288Y-41397579D01*
X83566288Y-41397579D02*
X83566288Y-41540436D01*
X83566288Y-41540436D02*
X83518669Y-41730912D01*
X83518669Y-41730912D02*
X83471050Y-41826150D01*
X83471050Y-41826150D02*
X83375812Y-41921389D01*
X83375812Y-41921389D02*
X83232955Y-41969008D01*
X83232955Y-41969008D02*
X82994860Y-41969008D01*
X84518669Y-41969008D02*
X83947241Y-41969008D01*
X84232955Y-41969008D02*
X84232955Y-40969008D01*
X84232955Y-40969008D02*
X84137717Y-41111865D01*
X84137717Y-41111865D02*
X84042479Y-41207103D01*
X84042479Y-41207103D02*
X83947241Y-41254722D01*
X52274819Y-34292857D02*
X51798628Y-34626190D01*
X52274819Y-34864285D02*
X51274819Y-34864285D01*
X51274819Y-34864285D02*
X51274819Y-34483333D01*
X51274819Y-34483333D02*
X51322438Y-34388095D01*
X51322438Y-34388095D02*
X51370057Y-34340476D01*
X51370057Y-34340476D02*
X51465295Y-34292857D01*
X51465295Y-34292857D02*
X51608152Y-34292857D01*
X51608152Y-34292857D02*
X51703390Y-34340476D01*
X51703390Y-34340476D02*
X51751009Y-34388095D01*
X51751009Y-34388095D02*
X51798628Y-34483333D01*
X51798628Y-34483333D02*
X51798628Y-34864285D01*
X52274819Y-33340476D02*
X52274819Y-33911904D01*
X52274819Y-33626190D02*
X51274819Y-33626190D01*
X51274819Y-33626190D02*
X51417676Y-33721428D01*
X51417676Y-33721428D02*
X51512914Y-33816666D01*
X51512914Y-33816666D02*
X51560533Y-33911904D01*
X51703390Y-32769047D02*
X51655771Y-32864285D01*
X51655771Y-32864285D02*
X51608152Y-32911904D01*
X51608152Y-32911904D02*
X51512914Y-32959523D01*
X51512914Y-32959523D02*
X51465295Y-32959523D01*
X51465295Y-32959523D02*
X51370057Y-32911904D01*
X51370057Y-32911904D02*
X51322438Y-32864285D01*
X51322438Y-32864285D02*
X51274819Y-32769047D01*
X51274819Y-32769047D02*
X51274819Y-32578571D01*
X51274819Y-32578571D02*
X51322438Y-32483333D01*
X51322438Y-32483333D02*
X51370057Y-32435714D01*
X51370057Y-32435714D02*
X51465295Y-32388095D01*
X51465295Y-32388095D02*
X51512914Y-32388095D01*
X51512914Y-32388095D02*
X51608152Y-32435714D01*
X51608152Y-32435714D02*
X51655771Y-32483333D01*
X51655771Y-32483333D02*
X51703390Y-32578571D01*
X51703390Y-32578571D02*
X51703390Y-32769047D01*
X51703390Y-32769047D02*
X51751009Y-32864285D01*
X51751009Y-32864285D02*
X51798628Y-32911904D01*
X51798628Y-32911904D02*
X51893866Y-32959523D01*
X51893866Y-32959523D02*
X52084342Y-32959523D01*
X52084342Y-32959523D02*
X52179580Y-32911904D01*
X52179580Y-32911904D02*
X52227200Y-32864285D01*
X52227200Y-32864285D02*
X52274819Y-32769047D01*
X52274819Y-32769047D02*
X52274819Y-32578571D01*
X52274819Y-32578571D02*
X52227200Y-32483333D01*
X52227200Y-32483333D02*
X52179580Y-32435714D01*
X52179580Y-32435714D02*
X52084342Y-32388095D01*
X52084342Y-32388095D02*
X51893866Y-32388095D01*
X51893866Y-32388095D02*
X51798628Y-32435714D01*
X51798628Y-32435714D02*
X51751009Y-32483333D01*
X51751009Y-32483333D02*
X51703390Y-32578571D01*
X70389693Y-37388830D02*
X70389693Y-37456174D01*
X70389693Y-37456174D02*
X70322349Y-37590861D01*
X70322349Y-37590861D02*
X70255006Y-37658204D01*
X70255006Y-37658204D02*
X70120319Y-37725548D01*
X70120319Y-37725548D02*
X69985632Y-37725548D01*
X69985632Y-37725548D02*
X69884617Y-37691876D01*
X69884617Y-37691876D02*
X69716258Y-37590861D01*
X69716258Y-37590861D02*
X69615243Y-37489846D01*
X69615243Y-37489846D02*
X69514227Y-37321487D01*
X69514227Y-37321487D02*
X69480556Y-37220472D01*
X69480556Y-37220472D02*
X69480556Y-37085785D01*
X69480556Y-37085785D02*
X69547899Y-36951098D01*
X69547899Y-36951098D02*
X69615243Y-36883754D01*
X69615243Y-36883754D02*
X69749930Y-36816411D01*
X69749930Y-36816411D02*
X69817273Y-36816411D01*
X70389693Y-36109304D02*
X70052975Y-36446021D01*
X70052975Y-36446021D02*
X70356021Y-36816411D01*
X70356021Y-36816411D02*
X70356021Y-36749067D01*
X70356021Y-36749067D02*
X70389693Y-36648052D01*
X70389693Y-36648052D02*
X70558052Y-36479693D01*
X70558052Y-36479693D02*
X70659067Y-36446021D01*
X70659067Y-36446021D02*
X70726410Y-36446021D01*
X70726410Y-36446021D02*
X70827426Y-36479693D01*
X70827426Y-36479693D02*
X70995784Y-36648052D01*
X70995784Y-36648052D02*
X71029456Y-36749067D01*
X71029456Y-36749067D02*
X71029456Y-36816411D01*
X71029456Y-36816411D02*
X70995784Y-36917426D01*
X70995784Y-36917426D02*
X70827426Y-37085785D01*
X70827426Y-37085785D02*
X70726410Y-37119456D01*
X70726410Y-37119456D02*
X70659067Y-37119456D01*
X70861098Y-35637899D02*
X70928441Y-35570556D01*
X70928441Y-35570556D02*
X71029456Y-35536884D01*
X71029456Y-35536884D02*
X71096800Y-35536884D01*
X71096800Y-35536884D02*
X71197815Y-35570556D01*
X71197815Y-35570556D02*
X71366174Y-35671571D01*
X71366174Y-35671571D02*
X71534533Y-35839930D01*
X71534533Y-35839930D02*
X71635548Y-36008288D01*
X71635548Y-36008288D02*
X71669220Y-36109304D01*
X71669220Y-36109304D02*
X71669220Y-36176647D01*
X71669220Y-36176647D02*
X71635548Y-36277662D01*
X71635548Y-36277662D02*
X71568204Y-36345006D01*
X71568204Y-36345006D02*
X71467189Y-36378678D01*
X71467189Y-36378678D02*
X71399846Y-36378678D01*
X71399846Y-36378678D02*
X71298830Y-36345006D01*
X71298830Y-36345006D02*
X71130472Y-36243991D01*
X71130472Y-36243991D02*
X70962113Y-36075632D01*
X70962113Y-36075632D02*
X70861098Y-35907273D01*
X70861098Y-35907273D02*
X70827426Y-35806258D01*
X70827426Y-35806258D02*
X70827426Y-35738914D01*
X70827426Y-35738914D02*
X70861098Y-35637899D01*
X79461708Y-40282912D02*
X79461708Y-39282912D01*
X79461708Y-39282912D02*
X80033136Y-40282912D01*
X80033136Y-40282912D02*
X80033136Y-39282912D01*
X80509327Y-39759102D02*
X80842660Y-39759102D01*
X80985517Y-40282912D02*
X80509327Y-40282912D01*
X80509327Y-40282912D02*
X80509327Y-39282912D01*
X80509327Y-39282912D02*
X80985517Y-39282912D01*
X81604565Y-39282912D02*
X81795041Y-39282912D01*
X81795041Y-39282912D02*
X81890279Y-39330531D01*
X81890279Y-39330531D02*
X81985517Y-39425769D01*
X81985517Y-39425769D02*
X82033136Y-39616245D01*
X82033136Y-39616245D02*
X82033136Y-39949578D01*
X82033136Y-39949578D02*
X81985517Y-40140054D01*
X81985517Y-40140054D02*
X81890279Y-40235293D01*
X81890279Y-40235293D02*
X81795041Y-40282912D01*
X81795041Y-40282912D02*
X81604565Y-40282912D01*
X81604565Y-40282912D02*
X81509327Y-40235293D01*
X81509327Y-40235293D02*
X81414089Y-40140054D01*
X81414089Y-40140054D02*
X81366470Y-39949578D01*
X81366470Y-39949578D02*
X81366470Y-39616245D01*
X81366470Y-39616245D02*
X81414089Y-39425769D01*
X81414089Y-39425769D02*
X81509327Y-39330531D01*
X81509327Y-39330531D02*
X81604565Y-39282912D01*
X82461708Y-40282912D02*
X82461708Y-39282912D01*
X82461708Y-39282912D02*
X82842660Y-39282912D01*
X82842660Y-39282912D02*
X82937898Y-39330531D01*
X82937898Y-39330531D02*
X82985517Y-39378150D01*
X82985517Y-39378150D02*
X83033136Y-39473388D01*
X83033136Y-39473388D02*
X83033136Y-39616245D01*
X83033136Y-39616245D02*
X82985517Y-39711483D01*
X82985517Y-39711483D02*
X82937898Y-39759102D01*
X82937898Y-39759102D02*
X82842660Y-39806721D01*
X82842660Y-39806721D02*
X82461708Y-39806721D01*
X83461708Y-40282912D02*
X83461708Y-39282912D01*
X83842660Y-39282912D02*
X84509326Y-40282912D01*
X84509326Y-39282912D02*
X83842660Y-40282912D01*
X85414088Y-40282912D02*
X84842660Y-40282912D01*
X85128374Y-40282912D02*
X85128374Y-39282912D01*
X85128374Y-39282912D02*
X85033136Y-39425769D01*
X85033136Y-39425769D02*
X84937898Y-39521007D01*
X84937898Y-39521007D02*
X84842660Y-39568626D01*
X53773809Y-27718628D02*
X53773809Y-28194819D01*
X53440476Y-27194819D02*
X53773809Y-27718628D01*
X53773809Y-27718628D02*
X54107142Y-27194819D01*
X54345238Y-27194819D02*
X54964285Y-27194819D01*
X54964285Y-27194819D02*
X54630952Y-27575771D01*
X54630952Y-27575771D02*
X54773809Y-27575771D01*
X54773809Y-27575771D02*
X54869047Y-27623390D01*
X54869047Y-27623390D02*
X54916666Y-27671009D01*
X54916666Y-27671009D02*
X54964285Y-27766247D01*
X54964285Y-27766247D02*
X54964285Y-28004342D01*
X54964285Y-28004342D02*
X54916666Y-28099580D01*
X54916666Y-28099580D02*
X54869047Y-28147200D01*
X54869047Y-28147200D02*
X54773809Y-28194819D01*
X54773809Y-28194819D02*
X54488095Y-28194819D01*
X54488095Y-28194819D02*
X54392857Y-28147200D01*
X54392857Y-28147200D02*
X54345238Y-28099580D01*
X52649580Y-106626666D02*
X52697200Y-106674285D01*
X52697200Y-106674285D02*
X52744819Y-106817142D01*
X52744819Y-106817142D02*
X52744819Y-106912380D01*
X52744819Y-106912380D02*
X52697200Y-107055237D01*
X52697200Y-107055237D02*
X52601961Y-107150475D01*
X52601961Y-107150475D02*
X52506723Y-107198094D01*
X52506723Y-107198094D02*
X52316247Y-107245713D01*
X52316247Y-107245713D02*
X52173390Y-107245713D01*
X52173390Y-107245713D02*
X51982914Y-107198094D01*
X51982914Y-107198094D02*
X51887676Y-107150475D01*
X51887676Y-107150475D02*
X51792438Y-107055237D01*
X51792438Y-107055237D02*
X51744819Y-106912380D01*
X51744819Y-106912380D02*
X51744819Y-106817142D01*
X51744819Y-106817142D02*
X51792438Y-106674285D01*
X51792438Y-106674285D02*
X51840057Y-106626666D01*
X51744819Y-106293332D02*
X51744819Y-105626666D01*
X51744819Y-105626666D02*
X52744819Y-106055237D01*
X51654819Y-101961904D02*
X52464342Y-101961904D01*
X52464342Y-101961904D02*
X52559580Y-101914285D01*
X52559580Y-101914285D02*
X52607200Y-101866666D01*
X52607200Y-101866666D02*
X52654819Y-101771428D01*
X52654819Y-101771428D02*
X52654819Y-101580952D01*
X52654819Y-101580952D02*
X52607200Y-101485714D01*
X52607200Y-101485714D02*
X52559580Y-101438095D01*
X52559580Y-101438095D02*
X52464342Y-101390476D01*
X52464342Y-101390476D02*
X51654819Y-101390476D01*
X51654819Y-101009523D02*
X51654819Y-100342857D01*
X51654819Y-100342857D02*
X52654819Y-100771428D01*
X59733333Y-97784819D02*
X59400000Y-97308628D01*
X59161905Y-97784819D02*
X59161905Y-96784819D01*
X59161905Y-96784819D02*
X59542857Y-96784819D01*
X59542857Y-96784819D02*
X59638095Y-96832438D01*
X59638095Y-96832438D02*
X59685714Y-96880057D01*
X59685714Y-96880057D02*
X59733333Y-96975295D01*
X59733333Y-96975295D02*
X59733333Y-97118152D01*
X59733333Y-97118152D02*
X59685714Y-97213390D01*
X59685714Y-97213390D02*
X59638095Y-97261009D01*
X59638095Y-97261009D02*
X59542857Y-97308628D01*
X59542857Y-97308628D02*
X59161905Y-97308628D01*
X60114286Y-96880057D02*
X60161905Y-96832438D01*
X60161905Y-96832438D02*
X60257143Y-96784819D01*
X60257143Y-96784819D02*
X60495238Y-96784819D01*
X60495238Y-96784819D02*
X60590476Y-96832438D01*
X60590476Y-96832438D02*
X60638095Y-96880057D01*
X60638095Y-96880057D02*
X60685714Y-96975295D01*
X60685714Y-96975295D02*
X60685714Y-97070533D01*
X60685714Y-97070533D02*
X60638095Y-97213390D01*
X60638095Y-97213390D02*
X60066667Y-97784819D01*
X60066667Y-97784819D02*
X60685714Y-97784819D01*
X47788095Y-37094819D02*
X47788095Y-37904342D01*
X47788095Y-37904342D02*
X47835714Y-37999580D01*
X47835714Y-37999580D02*
X47883333Y-38047200D01*
X47883333Y-38047200D02*
X47978571Y-38094819D01*
X47978571Y-38094819D02*
X48169047Y-38094819D01*
X48169047Y-38094819D02*
X48264285Y-38047200D01*
X48264285Y-38047200D02*
X48311904Y-37999580D01*
X48311904Y-37999580D02*
X48359523Y-37904342D01*
X48359523Y-37904342D02*
X48359523Y-37094819D01*
X48740476Y-37094819D02*
X49359523Y-37094819D01*
X49359523Y-37094819D02*
X49026190Y-37475771D01*
X49026190Y-37475771D02*
X49169047Y-37475771D01*
X49169047Y-37475771D02*
X49264285Y-37523390D01*
X49264285Y-37523390D02*
X49311904Y-37571009D01*
X49311904Y-37571009D02*
X49359523Y-37666247D01*
X49359523Y-37666247D02*
X49359523Y-37904342D01*
X49359523Y-37904342D02*
X49311904Y-37999580D01*
X49311904Y-37999580D02*
X49264285Y-38047200D01*
X49264285Y-38047200D02*
X49169047Y-38094819D01*
X49169047Y-38094819D02*
X48883333Y-38094819D01*
X48883333Y-38094819D02*
X48788095Y-38047200D01*
X48788095Y-38047200D02*
X48740476Y-37999580D01*
X52300057Y-69807738D02*
X52252438Y-69902976D01*
X52252438Y-69902976D02*
X52157200Y-69998214D01*
X52157200Y-69998214D02*
X52014342Y-70141071D01*
X52014342Y-70141071D02*
X51966723Y-70236309D01*
X51966723Y-70236309D02*
X51966723Y-70331547D01*
X52204819Y-70283928D02*
X52157200Y-70379166D01*
X52157200Y-70379166D02*
X52061961Y-70474404D01*
X52061961Y-70474404D02*
X51871485Y-70522023D01*
X51871485Y-70522023D02*
X51538152Y-70522023D01*
X51538152Y-70522023D02*
X51347676Y-70474404D01*
X51347676Y-70474404D02*
X51252438Y-70379166D01*
X51252438Y-70379166D02*
X51204819Y-70283928D01*
X51204819Y-70283928D02*
X51204819Y-70093452D01*
X51204819Y-70093452D02*
X51252438Y-69998214D01*
X51252438Y-69998214D02*
X51347676Y-69902976D01*
X51347676Y-69902976D02*
X51538152Y-69855357D01*
X51538152Y-69855357D02*
X51871485Y-69855357D01*
X51871485Y-69855357D02*
X52061961Y-69902976D01*
X52061961Y-69902976D02*
X52157200Y-69998214D01*
X52157200Y-69998214D02*
X52204819Y-70093452D01*
X52204819Y-70093452D02*
X52204819Y-70283928D01*
X51204819Y-68950595D02*
X51204819Y-69426785D01*
X51204819Y-69426785D02*
X51681009Y-69474404D01*
X51681009Y-69474404D02*
X51633390Y-69426785D01*
X51633390Y-69426785D02*
X51585771Y-69331547D01*
X51585771Y-69331547D02*
X51585771Y-69093452D01*
X51585771Y-69093452D02*
X51633390Y-68998214D01*
X51633390Y-68998214D02*
X51681009Y-68950595D01*
X51681009Y-68950595D02*
X51776247Y-68902976D01*
X51776247Y-68902976D02*
X52014342Y-68902976D01*
X52014342Y-68902976D02*
X52109580Y-68950595D01*
X52109580Y-68950595D02*
X52157200Y-68998214D01*
X52157200Y-68998214D02*
X52204819Y-69093452D01*
X52204819Y-69093452D02*
X52204819Y-69331547D01*
X52204819Y-69331547D02*
X52157200Y-69426785D01*
X52157200Y-69426785D02*
X52109580Y-69474404D01*
X58619580Y-32212857D02*
X58667200Y-32260476D01*
X58667200Y-32260476D02*
X58714819Y-32403333D01*
X58714819Y-32403333D02*
X58714819Y-32498571D01*
X58714819Y-32498571D02*
X58667200Y-32641428D01*
X58667200Y-32641428D02*
X58571961Y-32736666D01*
X58571961Y-32736666D02*
X58476723Y-32784285D01*
X58476723Y-32784285D02*
X58286247Y-32831904D01*
X58286247Y-32831904D02*
X58143390Y-32831904D01*
X58143390Y-32831904D02*
X57952914Y-32784285D01*
X57952914Y-32784285D02*
X57857676Y-32736666D01*
X57857676Y-32736666D02*
X57762438Y-32641428D01*
X57762438Y-32641428D02*
X57714819Y-32498571D01*
X57714819Y-32498571D02*
X57714819Y-32403333D01*
X57714819Y-32403333D02*
X57762438Y-32260476D01*
X57762438Y-32260476D02*
X57810057Y-32212857D01*
X58048152Y-31355714D02*
X58714819Y-31355714D01*
X57667200Y-31593809D02*
X58381485Y-31831904D01*
X58381485Y-31831904D02*
X58381485Y-31212857D01*
X58714819Y-30784285D02*
X58714819Y-30593809D01*
X58714819Y-30593809D02*
X58667200Y-30498571D01*
X58667200Y-30498571D02*
X58619580Y-30450952D01*
X58619580Y-30450952D02*
X58476723Y-30355714D01*
X58476723Y-30355714D02*
X58286247Y-30308095D01*
X58286247Y-30308095D02*
X57905295Y-30308095D01*
X57905295Y-30308095D02*
X57810057Y-30355714D01*
X57810057Y-30355714D02*
X57762438Y-30403333D01*
X57762438Y-30403333D02*
X57714819Y-30498571D01*
X57714819Y-30498571D02*
X57714819Y-30689047D01*
X57714819Y-30689047D02*
X57762438Y-30784285D01*
X57762438Y-30784285D02*
X57810057Y-30831904D01*
X57810057Y-30831904D02*
X57905295Y-30879523D01*
X57905295Y-30879523D02*
X58143390Y-30879523D01*
X58143390Y-30879523D02*
X58238628Y-30831904D01*
X58238628Y-30831904D02*
X58286247Y-30784285D01*
X58286247Y-30784285D02*
X58333866Y-30689047D01*
X58333866Y-30689047D02*
X58333866Y-30498571D01*
X58333866Y-30498571D02*
X58286247Y-30403333D01*
X58286247Y-30403333D02*
X58238628Y-30355714D01*
X58238628Y-30355714D02*
X58143390Y-30308095D01*
X51907142Y-78454819D02*
X51573809Y-77978628D01*
X51335714Y-78454819D02*
X51335714Y-77454819D01*
X51335714Y-77454819D02*
X51716666Y-77454819D01*
X51716666Y-77454819D02*
X51811904Y-77502438D01*
X51811904Y-77502438D02*
X51859523Y-77550057D01*
X51859523Y-77550057D02*
X51907142Y-77645295D01*
X51907142Y-77645295D02*
X51907142Y-77788152D01*
X51907142Y-77788152D02*
X51859523Y-77883390D01*
X51859523Y-77883390D02*
X51811904Y-77931009D01*
X51811904Y-77931009D02*
X51716666Y-77978628D01*
X51716666Y-77978628D02*
X51335714Y-77978628D01*
X52859523Y-78454819D02*
X52288095Y-78454819D01*
X52573809Y-78454819D02*
X52573809Y-77454819D01*
X52573809Y-77454819D02*
X52478571Y-77597676D01*
X52478571Y-77597676D02*
X52383333Y-77692914D01*
X52383333Y-77692914D02*
X52288095Y-77740533D01*
X53192857Y-77454819D02*
X53811904Y-77454819D01*
X53811904Y-77454819D02*
X53478571Y-77835771D01*
X53478571Y-77835771D02*
X53621428Y-77835771D01*
X53621428Y-77835771D02*
X53716666Y-77883390D01*
X53716666Y-77883390D02*
X53764285Y-77931009D01*
X53764285Y-77931009D02*
X53811904Y-78026247D01*
X53811904Y-78026247D02*
X53811904Y-78264342D01*
X53811904Y-78264342D02*
X53764285Y-78359580D01*
X53764285Y-78359580D02*
X53716666Y-78407200D01*
X53716666Y-78407200D02*
X53621428Y-78454819D01*
X53621428Y-78454819D02*
X53335714Y-78454819D01*
X53335714Y-78454819D02*
X53240476Y-78407200D01*
X53240476Y-78407200D02*
X53192857Y-78359580D01*
X81028394Y-45998170D02*
X80691676Y-46334888D01*
X81163081Y-45392079D02*
X81028394Y-45998170D01*
X81028394Y-45998170D02*
X81634485Y-45863483D01*
X81533470Y-47176681D02*
X81129409Y-46772620D01*
X81331440Y-46974651D02*
X82038546Y-46267544D01*
X82038546Y-46267544D02*
X81870188Y-46301216D01*
X81870188Y-46301216D02*
X81735501Y-46301216D01*
X81735501Y-46301216D02*
X81634485Y-46267544D01*
X57504761Y-108850057D02*
X57409523Y-108802438D01*
X57409523Y-108802438D02*
X57314285Y-108707200D01*
X57314285Y-108707200D02*
X57171428Y-108564342D01*
X57171428Y-108564342D02*
X57076190Y-108516723D01*
X57076190Y-108516723D02*
X56980952Y-108516723D01*
X57028571Y-108754819D02*
X56933333Y-108707200D01*
X56933333Y-108707200D02*
X56838095Y-108611961D01*
X56838095Y-108611961D02*
X56790476Y-108421485D01*
X56790476Y-108421485D02*
X56790476Y-108088152D01*
X56790476Y-108088152D02*
X56838095Y-107897676D01*
X56838095Y-107897676D02*
X56933333Y-107802438D01*
X56933333Y-107802438D02*
X57028571Y-107754819D01*
X57028571Y-107754819D02*
X57219047Y-107754819D01*
X57219047Y-107754819D02*
X57314285Y-107802438D01*
X57314285Y-107802438D02*
X57409523Y-107897676D01*
X57409523Y-107897676D02*
X57457142Y-108088152D01*
X57457142Y-108088152D02*
X57457142Y-108421485D01*
X57457142Y-108421485D02*
X57409523Y-108611961D01*
X57409523Y-108611961D02*
X57314285Y-108707200D01*
X57314285Y-108707200D02*
X57219047Y-108754819D01*
X57219047Y-108754819D02*
X57028571Y-108754819D01*
X58314285Y-107754819D02*
X58123809Y-107754819D01*
X58123809Y-107754819D02*
X58028571Y-107802438D01*
X58028571Y-107802438D02*
X57980952Y-107850057D01*
X57980952Y-107850057D02*
X57885714Y-107992914D01*
X57885714Y-107992914D02*
X57838095Y-108183390D01*
X57838095Y-108183390D02*
X57838095Y-108564342D01*
X57838095Y-108564342D02*
X57885714Y-108659580D01*
X57885714Y-108659580D02*
X57933333Y-108707200D01*
X57933333Y-108707200D02*
X58028571Y-108754819D01*
X58028571Y-108754819D02*
X58219047Y-108754819D01*
X58219047Y-108754819D02*
X58314285Y-108707200D01*
X58314285Y-108707200D02*
X58361904Y-108659580D01*
X58361904Y-108659580D02*
X58409523Y-108564342D01*
X58409523Y-108564342D02*
X58409523Y-108326247D01*
X58409523Y-108326247D02*
X58361904Y-108231009D01*
X58361904Y-108231009D02*
X58314285Y-108183390D01*
X58314285Y-108183390D02*
X58219047Y-108135771D01*
X58219047Y-108135771D02*
X58028571Y-108135771D01*
X58028571Y-108135771D02*
X57933333Y-108183390D01*
X57933333Y-108183390D02*
X57885714Y-108231009D01*
X57885714Y-108231009D02*
X57838095Y-108326247D01*
X74928394Y-37438170D02*
X74591676Y-37774888D01*
X75063081Y-36832079D02*
X74928394Y-37438170D01*
X74928394Y-37438170D02*
X75534485Y-37303483D01*
X75669172Y-37572857D02*
X75736516Y-37572857D01*
X75736516Y-37572857D02*
X75837531Y-37606529D01*
X75837531Y-37606529D02*
X76005890Y-37774888D01*
X76005890Y-37774888D02*
X76039562Y-37875903D01*
X76039562Y-37875903D02*
X76039562Y-37943246D01*
X76039562Y-37943246D02*
X76005890Y-38044262D01*
X76005890Y-38044262D02*
X75938546Y-38111605D01*
X75938546Y-38111605D02*
X75803859Y-38178949D01*
X75803859Y-38178949D02*
X74995737Y-38178949D01*
X74995737Y-38178949D02*
X75433470Y-38616681D01*
X52780057Y-96445238D02*
X52732438Y-96540476D01*
X52732438Y-96540476D02*
X52637200Y-96635714D01*
X52637200Y-96635714D02*
X52494342Y-96778571D01*
X52494342Y-96778571D02*
X52446723Y-96873809D01*
X52446723Y-96873809D02*
X52446723Y-96969047D01*
X52684819Y-96921428D02*
X52637200Y-97016666D01*
X52637200Y-97016666D02*
X52541961Y-97111904D01*
X52541961Y-97111904D02*
X52351485Y-97159523D01*
X52351485Y-97159523D02*
X52018152Y-97159523D01*
X52018152Y-97159523D02*
X51827676Y-97111904D01*
X51827676Y-97111904D02*
X51732438Y-97016666D01*
X51732438Y-97016666D02*
X51684819Y-96921428D01*
X51684819Y-96921428D02*
X51684819Y-96730952D01*
X51684819Y-96730952D02*
X51732438Y-96635714D01*
X51732438Y-96635714D02*
X51827676Y-96540476D01*
X51827676Y-96540476D02*
X52018152Y-96492857D01*
X52018152Y-96492857D02*
X52351485Y-96492857D01*
X52351485Y-96492857D02*
X52541961Y-96540476D01*
X52541961Y-96540476D02*
X52637200Y-96635714D01*
X52637200Y-96635714D02*
X52684819Y-96730952D01*
X52684819Y-96730952D02*
X52684819Y-96921428D01*
X51684819Y-96159523D02*
X51684819Y-95540476D01*
X51684819Y-95540476D02*
X52065771Y-95873809D01*
X52065771Y-95873809D02*
X52065771Y-95730952D01*
X52065771Y-95730952D02*
X52113390Y-95635714D01*
X52113390Y-95635714D02*
X52161009Y-95588095D01*
X52161009Y-95588095D02*
X52256247Y-95540476D01*
X52256247Y-95540476D02*
X52494342Y-95540476D01*
X52494342Y-95540476D02*
X52589580Y-95588095D01*
X52589580Y-95588095D02*
X52637200Y-95635714D01*
X52637200Y-95635714D02*
X52684819Y-95730952D01*
X52684819Y-95730952D02*
X52684819Y-96016666D01*
X52684819Y-96016666D02*
X52637200Y-96111904D01*
X52637200Y-96111904D02*
X52589580Y-96159523D01*
X55998095Y-85664819D02*
X55998095Y-86474342D01*
X55998095Y-86474342D02*
X56045714Y-86569580D01*
X56045714Y-86569580D02*
X56093333Y-86617200D01*
X56093333Y-86617200D02*
X56188571Y-86664819D01*
X56188571Y-86664819D02*
X56379047Y-86664819D01*
X56379047Y-86664819D02*
X56474285Y-86617200D01*
X56474285Y-86617200D02*
X56521904Y-86569580D01*
X56521904Y-86569580D02*
X56569523Y-86474342D01*
X56569523Y-86474342D02*
X56569523Y-85664819D01*
X57474285Y-85664819D02*
X57283809Y-85664819D01*
X57283809Y-85664819D02*
X57188571Y-85712438D01*
X57188571Y-85712438D02*
X57140952Y-85760057D01*
X57140952Y-85760057D02*
X57045714Y-85902914D01*
X57045714Y-85902914D02*
X56998095Y-86093390D01*
X56998095Y-86093390D02*
X56998095Y-86474342D01*
X56998095Y-86474342D02*
X57045714Y-86569580D01*
X57045714Y-86569580D02*
X57093333Y-86617200D01*
X57093333Y-86617200D02*
X57188571Y-86664819D01*
X57188571Y-86664819D02*
X57379047Y-86664819D01*
X57379047Y-86664819D02*
X57474285Y-86617200D01*
X57474285Y-86617200D02*
X57521904Y-86569580D01*
X57521904Y-86569580D02*
X57569523Y-86474342D01*
X57569523Y-86474342D02*
X57569523Y-86236247D01*
X57569523Y-86236247D02*
X57521904Y-86141009D01*
X57521904Y-86141009D02*
X57474285Y-86093390D01*
X57474285Y-86093390D02*
X57379047Y-86045771D01*
X57379047Y-86045771D02*
X57188571Y-86045771D01*
X57188571Y-86045771D02*
X57093333Y-86093390D01*
X57093333Y-86093390D02*
X57045714Y-86141009D01*
X57045714Y-86141009D02*
X56998095Y-86236247D01*
X71815833Y-99104819D02*
X71482500Y-98628628D01*
X71244405Y-99104819D02*
X71244405Y-98104819D01*
X71244405Y-98104819D02*
X71625357Y-98104819D01*
X71625357Y-98104819D02*
X71720595Y-98152438D01*
X71720595Y-98152438D02*
X71768214Y-98200057D01*
X71768214Y-98200057D02*
X71815833Y-98295295D01*
X71815833Y-98295295D02*
X71815833Y-98438152D01*
X71815833Y-98438152D02*
X71768214Y-98533390D01*
X71768214Y-98533390D02*
X71720595Y-98581009D01*
X71720595Y-98581009D02*
X71625357Y-98628628D01*
X71625357Y-98628628D02*
X71244405Y-98628628D01*
X72768214Y-99104819D02*
X72196786Y-99104819D01*
X72482500Y-99104819D02*
X72482500Y-98104819D01*
X72482500Y-98104819D02*
X72387262Y-98247676D01*
X72387262Y-98247676D02*
X72292024Y-98342914D01*
X72292024Y-98342914D02*
X72196786Y-98390533D01*
X72679580Y-102936666D02*
X72727200Y-102984285D01*
X72727200Y-102984285D02*
X72774819Y-103127142D01*
X72774819Y-103127142D02*
X72774819Y-103222380D01*
X72774819Y-103222380D02*
X72727200Y-103365237D01*
X72727200Y-103365237D02*
X72631961Y-103460475D01*
X72631961Y-103460475D02*
X72536723Y-103508094D01*
X72536723Y-103508094D02*
X72346247Y-103555713D01*
X72346247Y-103555713D02*
X72203390Y-103555713D01*
X72203390Y-103555713D02*
X72012914Y-103508094D01*
X72012914Y-103508094D02*
X71917676Y-103460475D01*
X71917676Y-103460475D02*
X71822438Y-103365237D01*
X71822438Y-103365237D02*
X71774819Y-103222380D01*
X71774819Y-103222380D02*
X71774819Y-103127142D01*
X71774819Y-103127142D02*
X71822438Y-102984285D01*
X71822438Y-102984285D02*
X71870057Y-102936666D01*
X72774819Y-101984285D02*
X72774819Y-102555713D01*
X72774819Y-102269999D02*
X71774819Y-102269999D01*
X71774819Y-102269999D02*
X71917676Y-102365237D01*
X71917676Y-102365237D02*
X72012914Y-102460475D01*
X72012914Y-102460475D02*
X72060533Y-102555713D01*
X59224819Y-82638094D02*
X60034342Y-82638094D01*
X60034342Y-82638094D02*
X60129580Y-82590475D01*
X60129580Y-82590475D02*
X60177200Y-82542856D01*
X60177200Y-82542856D02*
X60224819Y-82447618D01*
X60224819Y-82447618D02*
X60224819Y-82257142D01*
X60224819Y-82257142D02*
X60177200Y-82161904D01*
X60177200Y-82161904D02*
X60129580Y-82114285D01*
X60129580Y-82114285D02*
X60034342Y-82066666D01*
X60034342Y-82066666D02*
X59224819Y-82066666D01*
X60224819Y-81066666D02*
X60224819Y-81638094D01*
X60224819Y-81352380D02*
X59224819Y-81352380D01*
X59224819Y-81352380D02*
X59367676Y-81447618D01*
X59367676Y-81447618D02*
X59462914Y-81542856D01*
X59462914Y-81542856D02*
X59510533Y-81638094D01*
X59320057Y-80685713D02*
X59272438Y-80638094D01*
X59272438Y-80638094D02*
X59224819Y-80542856D01*
X59224819Y-80542856D02*
X59224819Y-80304761D01*
X59224819Y-80304761D02*
X59272438Y-80209523D01*
X59272438Y-80209523D02*
X59320057Y-80161904D01*
X59320057Y-80161904D02*
X59415295Y-80114285D01*
X59415295Y-80114285D02*
X59510533Y-80114285D01*
X59510533Y-80114285D02*
X59653390Y-80161904D01*
X59653390Y-80161904D02*
X60224819Y-80733332D01*
X60224819Y-80733332D02*
X60224819Y-80114285D01*
X41704819Y-65038095D02*
X42514342Y-65038095D01*
X42514342Y-65038095D02*
X42609580Y-64990476D01*
X42609580Y-64990476D02*
X42657200Y-64942857D01*
X42657200Y-64942857D02*
X42704819Y-64847619D01*
X42704819Y-64847619D02*
X42704819Y-64657143D01*
X42704819Y-64657143D02*
X42657200Y-64561905D01*
X42657200Y-64561905D02*
X42609580Y-64514286D01*
X42609580Y-64514286D02*
X42514342Y-64466667D01*
X42514342Y-64466667D02*
X41704819Y-64466667D01*
X42704819Y-63466667D02*
X42704819Y-64038095D01*
X42704819Y-63752381D02*
X41704819Y-63752381D01*
X41704819Y-63752381D02*
X41847676Y-63847619D01*
X41847676Y-63847619D02*
X41942914Y-63942857D01*
X41942914Y-63942857D02*
X41990533Y-64038095D01*
X41704819Y-62561905D02*
X41704819Y-63038095D01*
X41704819Y-63038095D02*
X42181009Y-63085714D01*
X42181009Y-63085714D02*
X42133390Y-63038095D01*
X42133390Y-63038095D02*
X42085771Y-62942857D01*
X42085771Y-62942857D02*
X42085771Y-62704762D01*
X42085771Y-62704762D02*
X42133390Y-62609524D01*
X42133390Y-62609524D02*
X42181009Y-62561905D01*
X42181009Y-62561905D02*
X42276247Y-62514286D01*
X42276247Y-62514286D02*
X42514342Y-62514286D01*
X42514342Y-62514286D02*
X42609580Y-62561905D01*
X42609580Y-62561905D02*
X42657200Y-62609524D01*
X42657200Y-62609524D02*
X42704819Y-62704762D01*
X42704819Y-62704762D02*
X42704819Y-62942857D01*
X42704819Y-62942857D02*
X42657200Y-63038095D01*
X42657200Y-63038095D02*
X42609580Y-63085714D01*
X62759580Y-98666666D02*
X62807200Y-98714285D01*
X62807200Y-98714285D02*
X62854819Y-98857142D01*
X62854819Y-98857142D02*
X62854819Y-98952380D01*
X62854819Y-98952380D02*
X62807200Y-99095237D01*
X62807200Y-99095237D02*
X62711961Y-99190475D01*
X62711961Y-99190475D02*
X62616723Y-99238094D01*
X62616723Y-99238094D02*
X62426247Y-99285713D01*
X62426247Y-99285713D02*
X62283390Y-99285713D01*
X62283390Y-99285713D02*
X62092914Y-99238094D01*
X62092914Y-99238094D02*
X61997676Y-99190475D01*
X61997676Y-99190475D02*
X61902438Y-99095237D01*
X61902438Y-99095237D02*
X61854819Y-98952380D01*
X61854819Y-98952380D02*
X61854819Y-98857142D01*
X61854819Y-98857142D02*
X61902438Y-98714285D01*
X61902438Y-98714285D02*
X61950057Y-98666666D01*
X62283390Y-98095237D02*
X62235771Y-98190475D01*
X62235771Y-98190475D02*
X62188152Y-98238094D01*
X62188152Y-98238094D02*
X62092914Y-98285713D01*
X62092914Y-98285713D02*
X62045295Y-98285713D01*
X62045295Y-98285713D02*
X61950057Y-98238094D01*
X61950057Y-98238094D02*
X61902438Y-98190475D01*
X61902438Y-98190475D02*
X61854819Y-98095237D01*
X61854819Y-98095237D02*
X61854819Y-97904761D01*
X61854819Y-97904761D02*
X61902438Y-97809523D01*
X61902438Y-97809523D02*
X61950057Y-97761904D01*
X61950057Y-97761904D02*
X62045295Y-97714285D01*
X62045295Y-97714285D02*
X62092914Y-97714285D01*
X62092914Y-97714285D02*
X62188152Y-97761904D01*
X62188152Y-97761904D02*
X62235771Y-97809523D01*
X62235771Y-97809523D02*
X62283390Y-97904761D01*
X62283390Y-97904761D02*
X62283390Y-98095237D01*
X62283390Y-98095237D02*
X62331009Y-98190475D01*
X62331009Y-98190475D02*
X62378628Y-98238094D01*
X62378628Y-98238094D02*
X62473866Y-98285713D01*
X62473866Y-98285713D02*
X62664342Y-98285713D01*
X62664342Y-98285713D02*
X62759580Y-98238094D01*
X62759580Y-98238094D02*
X62807200Y-98190475D01*
X62807200Y-98190475D02*
X62854819Y-98095237D01*
X62854819Y-98095237D02*
X62854819Y-97904761D01*
X62854819Y-97904761D02*
X62807200Y-97809523D01*
X62807200Y-97809523D02*
X62759580Y-97761904D01*
X62759580Y-97761904D02*
X62664342Y-97714285D01*
X62664342Y-97714285D02*
X62473866Y-97714285D01*
X62473866Y-97714285D02*
X62378628Y-97761904D01*
X62378628Y-97761904D02*
X62331009Y-97809523D01*
X62331009Y-97809523D02*
X62283390Y-97904761D01*
X52399582Y-92336666D02*
X52447202Y-92384285D01*
X52447202Y-92384285D02*
X52494821Y-92527142D01*
X52494821Y-92527142D02*
X52494821Y-92622380D01*
X52494821Y-92622380D02*
X52447202Y-92765237D01*
X52447202Y-92765237D02*
X52351963Y-92860475D01*
X52351963Y-92860475D02*
X52256725Y-92908094D01*
X52256725Y-92908094D02*
X52066249Y-92955713D01*
X52066249Y-92955713D02*
X51923392Y-92955713D01*
X51923392Y-92955713D02*
X51732916Y-92908094D01*
X51732916Y-92908094D02*
X51637678Y-92860475D01*
X51637678Y-92860475D02*
X51542440Y-92765237D01*
X51542440Y-92765237D02*
X51494821Y-92622380D01*
X51494821Y-92622380D02*
X51494821Y-92527142D01*
X51494821Y-92527142D02*
X51542440Y-92384285D01*
X51542440Y-92384285D02*
X51590059Y-92336666D01*
X51828154Y-91479523D02*
X52494821Y-91479523D01*
X51447202Y-91717618D02*
X52161487Y-91955713D01*
X52161487Y-91955713D02*
X52161487Y-91336666D01*
X67699580Y-108866666D02*
X67747200Y-108914285D01*
X67747200Y-108914285D02*
X67794819Y-109057142D01*
X67794819Y-109057142D02*
X67794819Y-109152380D01*
X67794819Y-109152380D02*
X67747200Y-109295237D01*
X67747200Y-109295237D02*
X67651961Y-109390475D01*
X67651961Y-109390475D02*
X67556723Y-109438094D01*
X67556723Y-109438094D02*
X67366247Y-109485713D01*
X67366247Y-109485713D02*
X67223390Y-109485713D01*
X67223390Y-109485713D02*
X67032914Y-109438094D01*
X67032914Y-109438094D02*
X66937676Y-109390475D01*
X66937676Y-109390475D02*
X66842438Y-109295237D01*
X66842438Y-109295237D02*
X66794819Y-109152380D01*
X66794819Y-109152380D02*
X66794819Y-109057142D01*
X66794819Y-109057142D02*
X66842438Y-108914285D01*
X66842438Y-108914285D02*
X66890057Y-108866666D01*
X66890057Y-108485713D02*
X66842438Y-108438094D01*
X66842438Y-108438094D02*
X66794819Y-108342856D01*
X66794819Y-108342856D02*
X66794819Y-108104761D01*
X66794819Y-108104761D02*
X66842438Y-108009523D01*
X66842438Y-108009523D02*
X66890057Y-107961904D01*
X66890057Y-107961904D02*
X66985295Y-107914285D01*
X66985295Y-107914285D02*
X67080533Y-107914285D01*
X67080533Y-107914285D02*
X67223390Y-107961904D01*
X67223390Y-107961904D02*
X67794819Y-108533332D01*
X67794819Y-108533332D02*
X67794819Y-107914285D01*
X50957142Y-67654819D02*
X50623809Y-67178628D01*
X50385714Y-67654819D02*
X50385714Y-66654819D01*
X50385714Y-66654819D02*
X50766666Y-66654819D01*
X50766666Y-66654819D02*
X50861904Y-66702438D01*
X50861904Y-66702438D02*
X50909523Y-66750057D01*
X50909523Y-66750057D02*
X50957142Y-66845295D01*
X50957142Y-66845295D02*
X50957142Y-66988152D01*
X50957142Y-66988152D02*
X50909523Y-67083390D01*
X50909523Y-67083390D02*
X50861904Y-67131009D01*
X50861904Y-67131009D02*
X50766666Y-67178628D01*
X50766666Y-67178628D02*
X50385714Y-67178628D01*
X51814285Y-66988152D02*
X51814285Y-67654819D01*
X51576190Y-66607200D02*
X51338095Y-67321485D01*
X51338095Y-67321485D02*
X51957142Y-67321485D01*
X52814285Y-66654819D02*
X52338095Y-66654819D01*
X52338095Y-66654819D02*
X52290476Y-67131009D01*
X52290476Y-67131009D02*
X52338095Y-67083390D01*
X52338095Y-67083390D02*
X52433333Y-67035771D01*
X52433333Y-67035771D02*
X52671428Y-67035771D01*
X52671428Y-67035771D02*
X52766666Y-67083390D01*
X52766666Y-67083390D02*
X52814285Y-67131009D01*
X52814285Y-67131009D02*
X52861904Y-67226247D01*
X52861904Y-67226247D02*
X52861904Y-67464342D01*
X52861904Y-67464342D02*
X52814285Y-67559580D01*
X52814285Y-67559580D02*
X52766666Y-67607200D01*
X52766666Y-67607200D02*
X52671428Y-67654819D01*
X52671428Y-67654819D02*
X52433333Y-67654819D01*
X52433333Y-67654819D02*
X52338095Y-67607200D01*
X52338095Y-67607200D02*
X52290476Y-67559580D01*
X63009580Y-93716666D02*
X63057200Y-93764285D01*
X63057200Y-93764285D02*
X63104819Y-93907142D01*
X63104819Y-93907142D02*
X63104819Y-94002380D01*
X63104819Y-94002380D02*
X63057200Y-94145237D01*
X63057200Y-94145237D02*
X62961961Y-94240475D01*
X62961961Y-94240475D02*
X62866723Y-94288094D01*
X62866723Y-94288094D02*
X62676247Y-94335713D01*
X62676247Y-94335713D02*
X62533390Y-94335713D01*
X62533390Y-94335713D02*
X62342914Y-94288094D01*
X62342914Y-94288094D02*
X62247676Y-94240475D01*
X62247676Y-94240475D02*
X62152438Y-94145237D01*
X62152438Y-94145237D02*
X62104819Y-94002380D01*
X62104819Y-94002380D02*
X62104819Y-93907142D01*
X62104819Y-93907142D02*
X62152438Y-93764285D01*
X62152438Y-93764285D02*
X62200057Y-93716666D01*
X62104819Y-92859523D02*
X62104819Y-93049999D01*
X62104819Y-93049999D02*
X62152438Y-93145237D01*
X62152438Y-93145237D02*
X62200057Y-93192856D01*
X62200057Y-93192856D02*
X62342914Y-93288094D01*
X62342914Y-93288094D02*
X62533390Y-93335713D01*
X62533390Y-93335713D02*
X62914342Y-93335713D01*
X62914342Y-93335713D02*
X63009580Y-93288094D01*
X63009580Y-93288094D02*
X63057200Y-93240475D01*
X63057200Y-93240475D02*
X63104819Y-93145237D01*
X63104819Y-93145237D02*
X63104819Y-92954761D01*
X63104819Y-92954761D02*
X63057200Y-92859523D01*
X63057200Y-92859523D02*
X63009580Y-92811904D01*
X63009580Y-92811904D02*
X62914342Y-92764285D01*
X62914342Y-92764285D02*
X62676247Y-92764285D01*
X62676247Y-92764285D02*
X62581009Y-92811904D01*
X62581009Y-92811904D02*
X62533390Y-92859523D01*
X62533390Y-92859523D02*
X62485771Y-92954761D01*
X62485771Y-92954761D02*
X62485771Y-93145237D01*
X62485771Y-93145237D02*
X62533390Y-93240475D01*
X62533390Y-93240475D02*
X62581009Y-93288094D01*
X62581009Y-93288094D02*
X62676247Y-93335713D01*
D13*
%TO.C,U2*%
X82453163Y-53129912D02*
X81972331Y-53610744D01*
X81880407Y-53037988D01*
X82453163Y-53129912D01*
G36*
X82453163Y-53129912D02*
G01*
X81972331Y-53610744D01*
X81880407Y-53037988D01*
X82453163Y-53129912D01*
G37*
X82126126Y-54135771D02*
X81454375Y-53464020D01*
X81454375Y-54807522D02*
X82126126Y-54135771D01*
X65671751Y-70590146D02*
X65000000Y-71261897D01*
X65000000Y-71261897D02*
X64328249Y-70590146D01*
X65000000Y-37009645D02*
X65671751Y-37681396D01*
X64328249Y-37681396D02*
X65000000Y-37009645D01*
X48545625Y-53464020D02*
X47873874Y-54135771D01*
X47873874Y-54135771D02*
X48545625Y-54807522D01*
%TO.C,PWM7*%
X59419999Y-111520000D02*
X60799999Y-111520000D01*
X59419999Y-112900000D02*
X59419999Y-111520000D01*
X59419999Y-114170000D02*
X59419999Y-119360000D01*
X59419999Y-114170000D02*
X62179999Y-114170000D01*
X59419999Y-119360000D02*
X62179999Y-119360000D01*
X62179999Y-114170000D02*
X62179999Y-119360000D01*
%TO.C,R40*%
X66020000Y-91396359D02*
X66020000Y-91703641D01*
X66780000Y-91396359D02*
X66780000Y-91703641D01*
%TO.C,BATT1*%
X67290000Y-114590000D02*
X67290000Y-117410000D01*
X67290000Y-114590000D02*
X68990000Y-113290000D01*
X67290000Y-117410000D02*
X68990000Y-118710000D01*
X68990000Y-113290000D02*
X77710000Y-113290000D01*
X68990000Y-118710000D02*
X77710000Y-118710000D01*
X77710000Y-113290000D02*
X77710000Y-118710000D01*
%TO.C,PYRO_TERM1*%
X82630000Y-85380000D02*
X89370000Y-85380000D01*
X82630000Y-111480000D02*
X82630000Y-85380000D01*
X82630000Y-111480000D02*
X89370000Y-111480000D01*
X83750000Y-111480000D02*
X83750000Y-85380000D01*
X88850000Y-111480000D02*
X88850000Y-85380000D01*
X89370000Y-109560000D02*
X89370000Y-85380000D01*
X89370000Y-111480000D02*
X89370000Y-110160000D01*
X89980000Y-110300000D02*
X89370000Y-109860000D01*
X89980000Y-109420000D01*
X89980000Y-110300000D01*
G36*
X89980000Y-110300000D02*
G01*
X89370000Y-109860000D01*
X89980000Y-109420000D01*
X89980000Y-110300000D01*
G37*
%TO.C,R17*%
X50703641Y-82520000D02*
X50396359Y-82520000D01*
X50703641Y-83280000D02*
X50396359Y-83280000D01*
%TO.C,C37*%
X77869190Y-45571693D02*
X78021693Y-45419190D01*
X78378307Y-46080810D02*
X78530810Y-45928307D01*
%TO.C,C52*%
X74821693Y-41169190D02*
X74669190Y-41321693D01*
X75330810Y-41678307D02*
X75178307Y-41830810D01*
%TO.C,PWM2*%
X40680000Y-93820000D02*
X40680000Y-96580000D01*
X45870000Y-93820000D02*
X40680000Y-93820000D01*
X45870000Y-93820000D02*
X45870000Y-96580000D01*
X45870000Y-96580000D02*
X40680000Y-96580000D01*
X47140000Y-93820000D02*
X48520000Y-93820000D01*
X48520000Y-93820000D02*
X48520000Y-95200000D01*
%TO.C,VIDEO1*%
X40640000Y-67710000D02*
X40640000Y-71140000D01*
X43460000Y-66440000D02*
X44910000Y-66440000D01*
X43460000Y-72410000D02*
X44910000Y-72410000D01*
X44910000Y-66440000D02*
X44910000Y-68240000D01*
X44910000Y-68240000D02*
X45900000Y-68240000D01*
X44910000Y-72410000D02*
X44910000Y-70610000D01*
%TO.C,D1*%
X57040002Y-94500000D02*
X57040002Y-96500000D01*
X57040002Y-94500000D02*
X61050002Y-94500000D01*
X57040002Y-96500000D02*
X61050002Y-96500000D01*
%TO.C,C41*%
X82340000Y-35542164D02*
X82340000Y-35757836D01*
X83060000Y-35542164D02*
X83060000Y-35757836D01*
%TO.C,U1*%
X54300000Y-40050000D02*
X54300000Y-39550000D01*
X54600000Y-34850000D02*
X55350000Y-34850000D01*
X54800000Y-40050000D02*
X54300000Y-40050000D01*
X57100000Y-34850000D02*
X57600000Y-34850000D01*
X57600000Y-34850000D02*
X57600000Y-35350000D01*
X57600000Y-39550000D02*
X57600000Y-40050000D01*
X57600000Y-40050000D02*
X57100000Y-40050000D01*
X54400000Y-34850000D02*
X54040000Y-34850000D01*
X54400000Y-34490000D01*
X54400000Y-34850000D01*
G36*
X54400000Y-34850000D02*
G01*
X54040000Y-34850000D01*
X54400000Y-34490000D01*
X54400000Y-34850000D01*
G37*
%TO.C,PWM4*%
X48620000Y-111520000D02*
X50000000Y-111520000D01*
X48620000Y-112900000D02*
X48620000Y-111520000D01*
X48620000Y-114170000D02*
X48620000Y-119360000D01*
X48620000Y-114170000D02*
X51380000Y-114170000D01*
X48620000Y-119360000D02*
X51380000Y-119360000D01*
X51380000Y-114170000D02*
X51380000Y-119360000D01*
D14*
%TO.C,G\u002A\u002A\u002A*%
G36*
X84178234Y-66764997D02*
G01*
X84167603Y-66802697D01*
X84149100Y-66859631D01*
X84124494Y-66930863D01*
X84095556Y-67011460D01*
X84064053Y-67096484D01*
X84031757Y-67181002D01*
X84000434Y-67260077D01*
X83974327Y-67323011D01*
X83931840Y-67418614D01*
X83879908Y-67529529D01*
X83822605Y-67647544D01*
X83764006Y-67764447D01*
X83708186Y-67872026D01*
X83659219Y-67962070D01*
X83644067Y-67988587D01*
X83615132Y-68040103D01*
X83593694Y-68081646D01*
X83583673Y-68105535D01*
X83583384Y-68107453D01*
X83597889Y-68114444D01*
X83636941Y-68121521D01*
X83693843Y-68127667D01*
X83735784Y-68130599D01*
X83866328Y-68144868D01*
X83974234Y-68172935D01*
X84065931Y-68217087D01*
X84143534Y-68275698D01*
X84216987Y-68354091D01*
X84262382Y-68434743D01*
X84282595Y-68524413D01*
X84282865Y-68603066D01*
X84281694Y-68620811D01*
X84280374Y-68637300D01*
X84278281Y-68654318D01*
X84274789Y-68673648D01*
X84269274Y-68697073D01*
X84261110Y-68726379D01*
X84249673Y-68763349D01*
X84234339Y-68809766D01*
X84214481Y-68867416D01*
X84189476Y-68938080D01*
X84158699Y-69023545D01*
X84121525Y-69125593D01*
X84077328Y-69246008D01*
X84025485Y-69386575D01*
X83965370Y-69549077D01*
X83896358Y-69735298D01*
X83817825Y-69947023D01*
X83729145Y-70186034D01*
X83716150Y-70221060D01*
X83669835Y-70345780D01*
X83615052Y-70493104D01*
X83554290Y-70656358D01*
X83490034Y-70828866D01*
X83424770Y-71003954D01*
X83360986Y-71174946D01*
X83301167Y-71335167D01*
X83296943Y-71346476D01*
X83201622Y-71601840D01*
X83105275Y-71860356D01*
X83008763Y-72119695D01*
X82912945Y-72377524D01*
X82818685Y-72631514D01*
X82726842Y-72879335D01*
X82638278Y-73118656D01*
X82553853Y-73347147D01*
X82474430Y-73562477D01*
X82400869Y-73762316D01*
X82334031Y-73944333D01*
X82274777Y-74106199D01*
X82223969Y-74245582D01*
X82182468Y-74360153D01*
X82153343Y-74441368D01*
X82066285Y-74655038D01*
X81966217Y-74841291D01*
X81851419Y-75001863D01*
X81720168Y-75138490D01*
X81570745Y-75252907D01*
X81401426Y-75346849D01*
X81210491Y-75422054D01*
X81167197Y-75435716D01*
X81027753Y-75478001D01*
X79620984Y-75490077D01*
X79427657Y-75491632D01*
X79216793Y-75493136D01*
X78990048Y-75494587D01*
X78749077Y-75495981D01*
X78495533Y-75497315D01*
X78231073Y-75498587D01*
X77957350Y-75499793D01*
X77676020Y-75500931D01*
X77388737Y-75501997D01*
X77097156Y-75502989D01*
X76802932Y-75503903D01*
X76507719Y-75504737D01*
X76213173Y-75505488D01*
X75920947Y-75506153D01*
X75632698Y-75506728D01*
X75350078Y-75507211D01*
X75074744Y-75507600D01*
X74808350Y-75507890D01*
X74552551Y-75508079D01*
X74309001Y-75508164D01*
X74079356Y-75508143D01*
X73865270Y-75508011D01*
X73668397Y-75507767D01*
X73490393Y-75507407D01*
X73332913Y-75506929D01*
X73197610Y-75506328D01*
X73086140Y-75505604D01*
X73000158Y-75504751D01*
X72941318Y-75503768D01*
X72911276Y-75502652D01*
X72907569Y-75502056D01*
X72919246Y-75485341D01*
X72952118Y-75451887D01*
X73002946Y-75404456D01*
X73068489Y-75345808D01*
X73145509Y-75278706D01*
X73230765Y-75205910D01*
X73321018Y-75130181D01*
X73413029Y-75054281D01*
X73503557Y-74980971D01*
X73589364Y-74913011D01*
X73667209Y-74853164D01*
X73681292Y-74842595D01*
X73908535Y-74677466D01*
X74136676Y-74520581D01*
X74362790Y-74373613D01*
X74583954Y-74238235D01*
X74797243Y-74116121D01*
X74999733Y-74008942D01*
X75188500Y-73918373D01*
X75360621Y-73846087D01*
X75513170Y-73793757D01*
X75515556Y-73793055D01*
X75579043Y-73774455D01*
X78675322Y-73774455D01*
X78690236Y-73775658D01*
X78732113Y-73776343D01*
X78796661Y-73776510D01*
X78879587Y-73776161D01*
X78976597Y-73775294D01*
X79046553Y-73774435D01*
X79145390Y-73773158D01*
X79269672Y-73771654D01*
X79413587Y-73769990D01*
X79571321Y-73768228D01*
X79737058Y-73766433D01*
X79904985Y-73764671D01*
X80069289Y-73763006D01*
X80113353Y-73762571D01*
X80287866Y-73760679D01*
X80434168Y-73758645D01*
X80555308Y-73756345D01*
X80654337Y-73753658D01*
X80734304Y-73750460D01*
X80798260Y-73746630D01*
X80849254Y-73742044D01*
X80890337Y-73736580D01*
X80924559Y-73730116D01*
X80925277Y-73729958D01*
X81121995Y-73672898D01*
X81299328Y-73593670D01*
X81455873Y-73493275D01*
X81590226Y-73372716D01*
X81700981Y-73232994D01*
X81757798Y-73135990D01*
X81792993Y-73060820D01*
X81830920Y-72968669D01*
X81866339Y-72872781D01*
X81887688Y-72807744D01*
X81934817Y-72620132D01*
X81956063Y-72449648D01*
X81951353Y-72295779D01*
X81920613Y-72158017D01*
X81863771Y-72035850D01*
X81780754Y-71928768D01*
X81759319Y-71907513D01*
X81722838Y-71874599D01*
X81683593Y-71843303D01*
X81637962Y-71811491D01*
X81582323Y-71777030D01*
X81513054Y-71737785D01*
X81426534Y-71691623D01*
X81319141Y-71636410D01*
X81187252Y-71570012D01*
X81182050Y-71567410D01*
X81050506Y-71500808D01*
X80944498Y-71444878D01*
X80861052Y-71397463D01*
X80797197Y-71356407D01*
X80749959Y-71319555D01*
X80716365Y-71284752D01*
X80693441Y-71249840D01*
X80678216Y-71212665D01*
X80674294Y-71199235D01*
X80665044Y-71135978D01*
X80672793Y-71066176D01*
X80674890Y-71056434D01*
X80703703Y-70968566D01*
X80749123Y-70900193D01*
X80816669Y-70844573D01*
X80874828Y-70812177D01*
X80980117Y-70760322D01*
X81636981Y-70756344D01*
X81778426Y-70755314D01*
X81911013Y-70754015D01*
X82031291Y-70752505D01*
X82135807Y-70750843D01*
X82221108Y-70749088D01*
X82283741Y-70747297D01*
X82320254Y-70745528D01*
X82327557Y-70744689D01*
X82352324Y-70729212D01*
X82375144Y-70691606D01*
X82392595Y-70647067D01*
X82429860Y-70539435D01*
X82467205Y-70430425D01*
X82503073Y-70324690D01*
X82535909Y-70226881D01*
X82564157Y-70141650D01*
X82586261Y-70073648D01*
X82600666Y-70027527D01*
X82605142Y-70011572D01*
X82616067Y-69966207D01*
X82051928Y-69977483D01*
X81487788Y-69988760D01*
X81368095Y-70059524D01*
X81126526Y-70196126D01*
X80869410Y-70330191D01*
X80606808Y-70456833D01*
X80348785Y-70571166D01*
X80146398Y-70652797D01*
X80061568Y-70686667D01*
X79983339Y-70720455D01*
X79918125Y-70751201D01*
X79872343Y-70775946D01*
X79857679Y-70786000D01*
X79789969Y-70860598D01*
X79735258Y-70959963D01*
X79694883Y-71079856D01*
X79670184Y-71216039D01*
X79662501Y-71364273D01*
X79663338Y-71401183D01*
X79672386Y-71518855D01*
X79692104Y-71614361D01*
X79725937Y-71695951D01*
X79777330Y-71771875D01*
X79849729Y-71850382D01*
X79851773Y-71852387D01*
X79883407Y-71881981D01*
X79916848Y-71909713D01*
X79955811Y-71937836D01*
X80004013Y-71968603D01*
X80065168Y-72004266D01*
X80142992Y-72047080D01*
X80241200Y-72099296D01*
X80363508Y-72163170D01*
X80368617Y-72165824D01*
X80493516Y-72231089D01*
X80593667Y-72284449D01*
X80672343Y-72327861D01*
X80732816Y-72363280D01*
X80778357Y-72392665D01*
X80812239Y-72417972D01*
X80837735Y-72441157D01*
X80848620Y-72452859D01*
X80900047Y-72526809D01*
X80922316Y-72601770D01*
X80917052Y-72684216D01*
X80911972Y-72705463D01*
X80878574Y-72789045D01*
X80825394Y-72855846D01*
X80747774Y-72911043D01*
X80709019Y-72930947D01*
X80605722Y-72979891D01*
X79781952Y-72985198D01*
X79590518Y-72986597D01*
X79428335Y-72988169D01*
X79293391Y-72989974D01*
X79183675Y-72992071D01*
X79097175Y-72994520D01*
X79031880Y-72997380D01*
X78985780Y-73000711D01*
X78956863Y-73004573D01*
X78943117Y-73009024D01*
X78941957Y-73010054D01*
X78934074Y-73027845D01*
X78917878Y-73070339D01*
X78895082Y-73132629D01*
X78867397Y-73209808D01*
X78836535Y-73296968D01*
X78804207Y-73389202D01*
X78772125Y-73481603D01*
X78742002Y-73569263D01*
X78715548Y-73647275D01*
X78694476Y-73710732D01*
X78680498Y-73754726D01*
X78675324Y-73774350D01*
X78675322Y-73774455D01*
X75579043Y-73774455D01*
X75630437Y-73759398D01*
X75761263Y-73400906D01*
X75797637Y-73300514D01*
X75830161Y-73209366D01*
X75857356Y-73131725D01*
X75877739Y-73071856D01*
X75889829Y-73034022D01*
X75892568Y-73022876D01*
X75886365Y-73017832D01*
X75865939Y-73013675D01*
X75828970Y-73010333D01*
X75773137Y-73007735D01*
X75696118Y-73005810D01*
X75595592Y-73004486D01*
X75469239Y-73003693D01*
X75314738Y-73003359D01*
X75255310Y-73003337D01*
X75085152Y-73003085D01*
X74944211Y-73002288D01*
X74830447Y-73000890D01*
X74741819Y-72998831D01*
X74676287Y-72996054D01*
X74631811Y-72992500D01*
X74606350Y-72988110D01*
X74598818Y-72984580D01*
X74592467Y-72978896D01*
X74586852Y-72973786D01*
X74582534Y-72967564D01*
X74580070Y-72958546D01*
X74580022Y-72945046D01*
X74582948Y-72925380D01*
X74589408Y-72897862D01*
X74599961Y-72860807D01*
X74615167Y-72812530D01*
X74635585Y-72751345D01*
X74661775Y-72675569D01*
X74694296Y-72583515D01*
X74733708Y-72473498D01*
X74780570Y-72343834D01*
X74835441Y-72192837D01*
X74898882Y-72018822D01*
X74971452Y-71820104D01*
X75053710Y-71594998D01*
X75124529Y-71401183D01*
X75180597Y-71247926D01*
X75239281Y-71087900D01*
X75298416Y-70926983D01*
X75355838Y-70771054D01*
X75409381Y-70625991D01*
X75456880Y-70497671D01*
X75496171Y-70391973D01*
X75501186Y-70378530D01*
X75538970Y-70275787D01*
X75572071Y-70182807D01*
X75599174Y-70103535D01*
X75618963Y-70041918D01*
X75630120Y-70001901D01*
X75631610Y-69987540D01*
X75613624Y-69985580D01*
X75568113Y-69984233D01*
X75498811Y-69983510D01*
X75409449Y-69983417D01*
X75303760Y-69983963D01*
X75185475Y-69985155D01*
X75097255Y-69986379D01*
X74575004Y-69994414D01*
X74498871Y-70197614D01*
X74453535Y-70319760D01*
X74401987Y-70460646D01*
X74345158Y-70617596D01*
X74283982Y-70787931D01*
X74219390Y-70968975D01*
X74152314Y-71158050D01*
X74083687Y-71352479D01*
X74014440Y-71549585D01*
X73945505Y-71746691D01*
X73877816Y-71941118D01*
X73812303Y-72130191D01*
X73749899Y-72311232D01*
X73691535Y-72481562D01*
X73638146Y-72638507D01*
X73590661Y-72779387D01*
X73550013Y-72901525D01*
X73517135Y-73002245D01*
X73492959Y-73078870D01*
X73478505Y-73128383D01*
X73447962Y-73271291D01*
X73438455Y-73393185D01*
X73450364Y-73496520D01*
X73484068Y-73583745D01*
X73539947Y-73657314D01*
X73563760Y-73679392D01*
X73602584Y-73710947D01*
X73639904Y-73735994D01*
X73679994Y-73755387D01*
X73727128Y-73769978D01*
X73785578Y-73780622D01*
X73859618Y-73788172D01*
X73953523Y-73793482D01*
X74071564Y-73797407D01*
X74165846Y-73799676D01*
X74556615Y-73808322D01*
X74322153Y-73962508D01*
X73919566Y-74243138D01*
X73525172Y-74549410D01*
X73142921Y-74877630D01*
X72776761Y-75224105D01*
X72430640Y-75585139D01*
X72108506Y-75957040D01*
X71880620Y-76246722D01*
X71809440Y-76340918D01*
X71755719Y-76411023D01*
X71718506Y-76458212D01*
X71696849Y-76483657D01*
X71689794Y-76488533D01*
X71696391Y-76474013D01*
X71696747Y-76473368D01*
X71733653Y-76409744D01*
X71784877Y-76325852D01*
X71846914Y-76227107D01*
X71916262Y-76118923D01*
X71989416Y-76006718D01*
X72062872Y-75895906D01*
X72133128Y-75791903D01*
X72196678Y-75700124D01*
X72200999Y-75693993D01*
X72243343Y-75632252D01*
X72277013Y-75579764D01*
X72298899Y-75541638D01*
X72305891Y-75522984D01*
X72305533Y-75522245D01*
X72286471Y-75516794D01*
X72243981Y-75510640D01*
X72185847Y-75504821D01*
X72160087Y-75502830D01*
X72034397Y-75484215D01*
X71931544Y-75446595D01*
X71848070Y-75387868D01*
X71780516Y-75305933D01*
X71750984Y-75254348D01*
X71731379Y-75211351D01*
X71717447Y-75167758D01*
X71709780Y-75120860D01*
X71708966Y-75067945D01*
X71715599Y-75006305D01*
X71730267Y-74933229D01*
X71753562Y-74846007D01*
X71786074Y-74741929D01*
X71828395Y-74618285D01*
X71881115Y-74472364D01*
X71944824Y-74301458D01*
X71977598Y-74214722D01*
X72114556Y-73853279D01*
X72241571Y-73517934D01*
X72359818Y-73205567D01*
X72470474Y-72913057D01*
X72574714Y-72637285D01*
X72673716Y-72375132D01*
X72768654Y-72123477D01*
X72860706Y-71879201D01*
X72951048Y-71639185D01*
X73040855Y-71400308D01*
X73131304Y-71159451D01*
X73223571Y-70913493D01*
X73318833Y-70659317D01*
X73418265Y-70393801D01*
X73433193Y-70353922D01*
X73510177Y-70148592D01*
X73584951Y-69949802D01*
X73656680Y-69759737D01*
X73724528Y-69580582D01*
X73787659Y-69414522D01*
X73845240Y-69263742D01*
X73896433Y-69130428D01*
X73940405Y-69016764D01*
X73976319Y-68924934D01*
X74003341Y-68857126D01*
X74020635Y-68815523D01*
X74024755Y-68806476D01*
X74116044Y-68654069D01*
X74232341Y-68517972D01*
X74370697Y-68400501D01*
X74528167Y-68303972D01*
X74701801Y-68230702D01*
X74791076Y-68204202D01*
X74808679Y-68199817D01*
X74826893Y-68195835D01*
X74847283Y-68192223D01*
X74871415Y-68188954D01*
X74900855Y-68185995D01*
X74937167Y-68183318D01*
X74981918Y-68180893D01*
X75036672Y-68178689D01*
X75102996Y-68176676D01*
X75182454Y-68174824D01*
X75276613Y-68173103D01*
X75387037Y-68171484D01*
X75515292Y-68169936D01*
X75662944Y-68168428D01*
X75831557Y-68166932D01*
X76022699Y-68165416D01*
X76237933Y-68163851D01*
X76478826Y-68162207D01*
X76746942Y-68160454D01*
X77043848Y-68158561D01*
X77229476Y-68157391D01*
X77664623Y-68154716D01*
X78089627Y-68152234D01*
X78503472Y-68149945D01*
X78905141Y-68147852D01*
X79293620Y-68145957D01*
X79667891Y-68144262D01*
X80026939Y-68142769D01*
X80369747Y-68141481D01*
X80695300Y-68140398D01*
X81002581Y-68139524D01*
X81290574Y-68138861D01*
X81558263Y-68138411D01*
X81804632Y-68138175D01*
X82028665Y-68138156D01*
X82229346Y-68138356D01*
X82405658Y-68138777D01*
X82556586Y-68139421D01*
X82681113Y-68140291D01*
X82778223Y-68141388D01*
X82846901Y-68142714D01*
X82886129Y-68144272D01*
X82895631Y-68145655D01*
X82885046Y-68162472D01*
X82855817Y-68197113D01*
X82811728Y-68245628D01*
X82756567Y-68304064D01*
X82694119Y-68368473D01*
X82628169Y-68434901D01*
X82562504Y-68499400D01*
X82500909Y-68558018D01*
X82497046Y-68561615D01*
X82274086Y-68752666D01*
X82024732Y-68937074D01*
X81753562Y-69112418D01*
X81465157Y-69276277D01*
X81164097Y-69426228D01*
X80854961Y-69559850D01*
X80542330Y-69674723D01*
X80230783Y-69768423D01*
X80198444Y-69776903D01*
X80045745Y-69815175D01*
X79903825Y-69847850D01*
X79768289Y-69875427D01*
X79634746Y-69898405D01*
X79498801Y-69917284D01*
X79356062Y-69932563D01*
X79202136Y-69944741D01*
X79032628Y-69954319D01*
X78843147Y-69961795D01*
X78629299Y-69967669D01*
X78495569Y-69970477D01*
X78320258Y-69973947D01*
X78172768Y-69977349D01*
X78049663Y-69981136D01*
X77947507Y-69985763D01*
X77862863Y-69991681D01*
X77792296Y-69999343D01*
X77732368Y-70009204D01*
X77679645Y-70021716D01*
X77630690Y-70037331D01*
X77582066Y-70056504D01*
X77530337Y-70079687D01*
X77477539Y-70104713D01*
X77338009Y-70184127D01*
X77220595Y-70279977D01*
X77118488Y-70398229D01*
X77081071Y-70452125D01*
X77059168Y-70486301D01*
X77038774Y-70520516D01*
X77018796Y-70557500D01*
X76998139Y-70599987D01*
X76975711Y-70650708D01*
X76950418Y-70712396D01*
X76921165Y-70787783D01*
X76886860Y-70879602D01*
X76846409Y-70990584D01*
X76798719Y-71123461D01*
X76742694Y-71280967D01*
X76691816Y-71424629D01*
X76641183Y-71567666D01*
X76582530Y-71733192D01*
X76518328Y-71914247D01*
X76451046Y-72103872D01*
X76383155Y-72295106D01*
X76317123Y-72480989D01*
X76255421Y-72654561D01*
X76239779Y-72698537D01*
X76168588Y-72898736D01*
X76107221Y-73071539D01*
X76054992Y-73218996D01*
X76011217Y-73343152D01*
X75975211Y-73446056D01*
X75946288Y-73529754D01*
X75923763Y-73596295D01*
X75906951Y-73647725D01*
X75895167Y-73686093D01*
X75887726Y-73713445D01*
X75883942Y-73731829D01*
X75883131Y-73743292D01*
X75884607Y-73749881D01*
X75886923Y-73752972D01*
X75906280Y-73756784D01*
X75951910Y-73759385D01*
X76019286Y-73760867D01*
X76103883Y-73761327D01*
X76201174Y-73760859D01*
X76306631Y-73759556D01*
X76415729Y-73757514D01*
X76523940Y-73754827D01*
X76626738Y-73751590D01*
X76719597Y-73747896D01*
X76797989Y-73743841D01*
X76857388Y-73739519D01*
X76893268Y-73735025D01*
X76901983Y-73731780D01*
X76932605Y-73641994D01*
X76968691Y-73537607D01*
X77009003Y-73422073D01*
X77052305Y-73298850D01*
X77097360Y-73171392D01*
X77142930Y-73043158D01*
X77187780Y-72917601D01*
X77230670Y-72798179D01*
X77270366Y-72688347D01*
X77305629Y-72591562D01*
X77335223Y-72511280D01*
X77357910Y-72450957D01*
X77372454Y-72414048D01*
X77377308Y-72403776D01*
X77397482Y-72399259D01*
X77448038Y-72395108D01*
X77528097Y-72391353D01*
X77636782Y-72388020D01*
X77773215Y-72385141D01*
X77936517Y-72382742D01*
X78061755Y-72381407D01*
X78212570Y-72379677D01*
X78350280Y-72377446D01*
X78472031Y-72374801D01*
X78574968Y-72371830D01*
X78656235Y-72368618D01*
X78712978Y-72365254D01*
X78742343Y-72361823D01*
X78745661Y-72360589D01*
X78755331Y-72342002D01*
X78772901Y-72299135D01*
X78796667Y-72236865D01*
X78824925Y-72160072D01*
X78855973Y-72073633D01*
X78888106Y-71982426D01*
X78919621Y-71891330D01*
X78948816Y-71805224D01*
X78973987Y-71728984D01*
X78993430Y-71667490D01*
X79005441Y-71625620D01*
X79008342Y-71608291D01*
X78991820Y-71605832D01*
X78947253Y-71603548D01*
X78877857Y-71601494D01*
X78786850Y-71599725D01*
X78677446Y-71598296D01*
X78552863Y-71597263D01*
X78416318Y-71596680D01*
X78322708Y-71596568D01*
X78180409Y-71596425D01*
X78048233Y-71596015D01*
X77929354Y-71595369D01*
X77826947Y-71594516D01*
X77744187Y-71593488D01*
X77684250Y-71592314D01*
X77650309Y-71591023D01*
X77643692Y-71590126D01*
X77649018Y-71567798D01*
X77663673Y-71521736D01*
X77685673Y-71457348D01*
X77713033Y-71380042D01*
X77743768Y-71295225D01*
X77775894Y-71208306D01*
X77807426Y-71124693D01*
X77836380Y-71049794D01*
X77860770Y-70989017D01*
X77878613Y-70947769D01*
X77881946Y-70940890D01*
X77913656Y-70883287D01*
X77943306Y-70845328D01*
X77979733Y-70817359D01*
X78010744Y-70800213D01*
X78050466Y-70781389D01*
X78085812Y-70770167D01*
X78126279Y-70765165D01*
X78181361Y-70764997D01*
X78237390Y-70767186D01*
X78533039Y-70774164D01*
X78809160Y-70766018D01*
X79074096Y-70741783D01*
X79336189Y-70700499D01*
X79603781Y-70641203D01*
X79806707Y-70586188D01*
X80124294Y-70482745D01*
X80450739Y-70354828D01*
X80780308Y-70205544D01*
X81107269Y-70037997D01*
X81425891Y-69855295D01*
X81730441Y-69660542D01*
X82015186Y-69456845D01*
X82268676Y-69252246D01*
X82315316Y-69209342D01*
X82378907Y-69146908D01*
X82455749Y-69068885D01*
X82542142Y-68979213D01*
X82634384Y-68881832D01*
X82728777Y-68780682D01*
X82821619Y-68679703D01*
X82909211Y-68582835D01*
X82987851Y-68494018D01*
X83053841Y-68417193D01*
X83061632Y-68407891D01*
X83262245Y-68156251D01*
X83465738Y-67879335D01*
X83668511Y-67582450D01*
X83866964Y-67270904D01*
X84057497Y-66950001D01*
X84092604Y-66888236D01*
X84125891Y-66830813D01*
X84153988Y-66785237D01*
X84173196Y-66757348D01*
X84179224Y-66751467D01*
X84178234Y-66764997D01*
G37*
D13*
%TO.C,PWM6*%
X55820000Y-111520000D02*
X57200000Y-111520000D01*
X55820000Y-112900000D02*
X55820000Y-111520000D01*
X55820000Y-114170000D02*
X55820000Y-119360000D01*
X55820000Y-114170000D02*
X58580000Y-114170000D01*
X55820000Y-119360000D02*
X58580000Y-119360000D01*
X58580000Y-114170000D02*
X58580000Y-119360000D01*
%TO.C,U14*%
X51187501Y-79090000D02*
X50387501Y-79090000D01*
X51187501Y-79090000D02*
X51987501Y-79090000D01*
X51187501Y-82210000D02*
X50387501Y-82210000D01*
X51187501Y-82210000D02*
X51987501Y-82210000D01*
X49887501Y-79140000D02*
X49647501Y-78810000D01*
X50127501Y-78810000D01*
X49887501Y-79140000D01*
G36*
X49887501Y-79140000D02*
G01*
X49647501Y-78810000D01*
X50127501Y-78810000D01*
X49887501Y-79140000D01*
G37*
%TO.C,D2*%
X56940000Y-105500000D02*
X56940000Y-107500000D01*
X56940000Y-105500000D02*
X60950000Y-105500000D01*
X56940000Y-107500000D02*
X60950000Y-107500000D01*
%TO.C,C38*%
X81469190Y-49221693D02*
X81621693Y-49069190D01*
X81978307Y-49730810D02*
X82130810Y-49578307D01*
%TO.C,Q4*%
X72487500Y-94440000D02*
X71837500Y-94440000D01*
X72487500Y-94440000D02*
X73137500Y-94440000D01*
X72487500Y-97560000D02*
X71837500Y-97560000D01*
X72487500Y-97560000D02*
X73137500Y-97560000D01*
X71325000Y-94490000D02*
X71085000Y-94160000D01*
X71565000Y-94160000D01*
X71325000Y-94490000D01*
G36*
X71325000Y-94490000D02*
G01*
X71085000Y-94160000D01*
X71565000Y-94160000D01*
X71325000Y-94490000D01*
G37*
%TO.C,U13*%
X48837500Y-44290000D02*
X48037500Y-44290000D01*
X48837500Y-44290000D02*
X49637500Y-44290000D01*
X48837500Y-47410000D02*
X48037500Y-47410000D01*
X48837500Y-47410000D02*
X49637500Y-47410000D01*
X47537500Y-44340000D02*
X47297500Y-44010000D01*
X47777500Y-44010000D01*
X47537500Y-44340000D01*
G36*
X47537500Y-44340000D02*
G01*
X47297500Y-44010000D01*
X47777500Y-44010000D01*
X47537500Y-44340000D01*
G37*
%TO.C,C9*%
X61940000Y-102392164D02*
X61940000Y-102607836D01*
X62660000Y-102392164D02*
X62660000Y-102607836D01*
%TO.C,C5*%
X61940002Y-89207836D02*
X61940002Y-88992164D01*
X62660002Y-89207836D02*
X62660002Y-88992164D01*
%TO.C,R15*%
X42970000Y-61230833D02*
X42970000Y-60730833D01*
X44530000Y-61230833D02*
X44530000Y-60730833D01*
%TO.C,5V_PWR1*%
X67705000Y-99975000D02*
X67705000Y-101445000D01*
X67705000Y-101445000D02*
X69990000Y-101445000D01*
X69990000Y-99975000D02*
X67705000Y-99975000D01*
%TO.C,U4*%
X47727500Y-32360000D02*
X47727500Y-32185000D01*
X48402500Y-29640000D02*
X48027500Y-29640000D01*
X48402500Y-32360000D02*
X47727500Y-32360000D01*
X50272500Y-29640000D02*
X50947500Y-29640000D01*
X50272500Y-32360000D02*
X50947500Y-32360000D01*
X50947500Y-29640000D02*
X50947500Y-29815000D01*
X50947500Y-32360000D02*
X50947500Y-32185000D01*
X47727500Y-29640000D02*
X47587500Y-29450000D01*
X47867500Y-29450000D01*
X47727500Y-29640000D01*
G36*
X47727500Y-29640000D02*
G01*
X47587500Y-29450000D01*
X47867500Y-29450000D01*
X47727500Y-29640000D01*
G37*
%TO.C,R41*%
X69296359Y-94670000D02*
X69603641Y-94670000D01*
X69296359Y-95430000D02*
X69603641Y-95430000D01*
%TO.C,R7*%
X56420000Y-29486360D02*
X56420000Y-29793642D01*
X57180000Y-29486360D02*
X57180000Y-29793642D01*
%TO.C,U9*%
X73774999Y-27789999D02*
X72974999Y-27789999D01*
X73774999Y-27789999D02*
X74574999Y-27789999D01*
X73774999Y-30909999D02*
X72974999Y-30909999D01*
X73774999Y-30909999D02*
X74574999Y-30909999D01*
X72474999Y-27839999D02*
X72234999Y-27509999D01*
X72714999Y-27509999D01*
X72474999Y-27839999D01*
G36*
X72474999Y-27839999D02*
G01*
X72234999Y-27509999D01*
X72714999Y-27509999D01*
X72474999Y-27839999D01*
G37*
%TO.C,LED1*%
X79603003Y-44036445D02*
X81218742Y-42420706D01*
X80179295Y-41381259D02*
X78563556Y-42996998D01*
X81218742Y-42420706D02*
X80179295Y-41381259D01*
%TO.C,R18*%
X51320000Y-31193642D02*
X51320000Y-30886360D01*
X52080000Y-31193642D02*
X52080000Y-30886360D01*
%TO.C,C50*%
X70969190Y-37521693D02*
X71121693Y-37369190D01*
X71478307Y-38030810D02*
X71630810Y-37878307D01*
%TO.C,NEOPIX1*%
X76181677Y-41724160D02*
X76181677Y-42148424D01*
X76181677Y-41724160D02*
X78232287Y-39673550D01*
X77595891Y-43562638D02*
X76181677Y-42148424D01*
X77595891Y-43562638D02*
X79858633Y-41299896D01*
X78232287Y-39673550D02*
X79858633Y-41299896D01*
%TO.C,PWM5*%
X52220001Y-111520000D02*
X53600001Y-111520000D01*
X52220001Y-112900000D02*
X52220001Y-111520000D01*
X52220001Y-114170000D02*
X52220001Y-119360000D01*
X52220001Y-114170000D02*
X54980001Y-114170000D01*
X52220001Y-119360000D02*
X54980001Y-119360000D01*
X54980001Y-114170000D02*
X54980001Y-119360000D01*
%TO.C,Y3*%
X56150000Y-29190001D02*
X52350000Y-29190001D01*
X56150000Y-32340001D02*
X56150000Y-29190001D01*
%TO.C,C7*%
X51940000Y-104592164D02*
X51940000Y-104807836D01*
X52660000Y-104592164D02*
X52660000Y-104807836D01*
%TO.C,U7*%
X55500001Y-98190000D02*
X59260001Y-98190000D01*
X55500001Y-105010000D02*
X59260001Y-105010000D01*
X59260001Y-98190000D02*
X59260001Y-99450000D01*
X59260001Y-105010000D02*
X59260001Y-103750000D01*
X54220001Y-98290000D02*
X53980001Y-97960000D01*
X54460001Y-97960000D01*
X54220001Y-98290000D01*
G36*
X54220001Y-98290000D02*
G01*
X53980001Y-97960000D01*
X54460001Y-97960000D01*
X54220001Y-98290000D01*
G37*
%TO.C,R2*%
X57856360Y-96820000D02*
X58163642Y-96820000D01*
X57856360Y-97580000D02*
X58163642Y-97580000D01*
%TO.C,U3*%
X47367500Y-38700000D02*
X47367500Y-38700000D01*
X47367500Y-39200000D02*
X47367500Y-38900000D01*
X47367500Y-40400000D02*
X47367500Y-40400000D01*
X47367500Y-40900000D02*
X47367500Y-40400000D01*
X47867500Y-38700000D02*
X47567500Y-38700000D01*
X47867500Y-40900000D02*
X47367500Y-40900000D01*
X49067500Y-38700000D02*
X49567500Y-38700000D01*
X49067500Y-40900000D02*
X49067500Y-40900000D01*
X49567500Y-38700000D02*
X49567500Y-39200000D01*
X49567500Y-39200000D02*
X49567500Y-39200000D01*
X49567500Y-40400000D02*
X49567500Y-40900000D01*
X49567500Y-40900000D02*
X49067500Y-40900000D01*
X47367500Y-38700000D02*
X47007500Y-38700000D01*
X47367500Y-38340000D01*
X47367500Y-38700000D01*
G36*
X47367500Y-38700000D02*
G01*
X47007500Y-38700000D01*
X47367500Y-38340000D01*
X47367500Y-38700000D01*
G37*
%TO.C,Q5*%
X47790000Y-69712500D02*
X47790000Y-69062500D01*
X47790000Y-69712500D02*
X47790000Y-70362500D01*
X50910000Y-69712500D02*
X50910000Y-69062500D01*
X50910000Y-69712500D02*
X50910000Y-70362500D01*
X51190000Y-68790000D02*
X50860000Y-68550000D01*
X51190000Y-68310000D01*
X51190000Y-68790000D01*
G36*
X51190000Y-68790000D02*
G01*
X50860000Y-68550000D01*
X51190000Y-68310000D01*
X51190000Y-68790000D01*
G37*
%TO.C,RADIO_5VPWR_3V3IO1*%
X67889999Y-23460000D02*
X67889999Y-24910000D01*
X67889999Y-24910000D02*
X69689999Y-24910000D01*
X77059999Y-24910000D02*
X77059999Y-25900000D01*
X77589999Y-20640000D02*
X69159999Y-20640000D01*
X78859999Y-23460000D02*
X78859999Y-24910000D01*
X78859999Y-24910000D02*
X77059999Y-24910000D01*
%TO.C,J5*%
X83730000Y-59620000D02*
X83730000Y-62380000D01*
X86380000Y-59620000D02*
X83730000Y-59620000D01*
X86380000Y-59620000D02*
X86380000Y-62380000D01*
X86380000Y-62380000D02*
X83730000Y-62380000D01*
X87650000Y-59620001D02*
X89030000Y-59620000D01*
X89030000Y-59620000D02*
X89029999Y-61000000D01*
%TO.C,PWM3*%
X40680000Y-97420000D02*
X40680000Y-100180000D01*
X45870000Y-97420000D02*
X40680000Y-97420000D01*
X45870000Y-97420000D02*
X45870000Y-100180000D01*
X45870000Y-100180000D02*
X40680000Y-100180000D01*
X47140000Y-97420000D02*
X48520000Y-97420000D01*
X48520000Y-97420000D02*
X48520000Y-98800000D01*
%TO.C,J2*%
X83730000Y-34220000D02*
X83730000Y-36980000D01*
X86380000Y-34220000D02*
X83730000Y-34220000D01*
X86380000Y-34220000D02*
X86380000Y-36980000D01*
X86380000Y-36980000D02*
X83730000Y-36980000D01*
X87650000Y-34220001D02*
X89030000Y-34220000D01*
X89030000Y-34220000D02*
X89029999Y-35600000D01*
%TO.C,C49*%
X56440000Y-31422164D02*
X56440000Y-31637836D01*
X57160000Y-31422164D02*
X57160000Y-31637836D01*
%TO.C,R13*%
X50253641Y-77920000D02*
X49946359Y-77920000D01*
X50253641Y-78680000D02*
X49946359Y-78680000D01*
%TO.C,PWM0*%
X40680000Y-86620001D02*
X40680000Y-89380001D01*
X45870000Y-86620001D02*
X40680000Y-86620001D01*
X45870000Y-86620001D02*
X45870000Y-89380001D01*
X45870000Y-89380001D02*
X40680000Y-89380001D01*
X47140000Y-86620001D02*
X48520000Y-86620001D01*
X48520000Y-86620001D02*
X48520000Y-88000001D01*
D14*
%TO.C,G\u002A\u002A\u002A*%
G36*
X74635689Y-77112693D02*
G01*
X74635689Y-77283737D01*
X74122558Y-77283737D01*
X73609427Y-77283737D01*
X73609427Y-77625824D01*
X73609427Y-77967912D01*
X74101178Y-77967912D01*
X74592928Y-77967912D01*
X74592928Y-78138955D01*
X74592928Y-78309999D01*
X74101178Y-78309999D01*
X73609427Y-78309999D01*
X73609427Y-78737609D01*
X73609427Y-79165218D01*
X74122558Y-79165218D01*
X74635689Y-79165218D01*
X74635689Y-79336262D01*
X74635689Y-79507306D01*
X73930134Y-79507306D01*
X73224578Y-79507306D01*
X73224578Y-78224477D01*
X73224578Y-76941649D01*
X73930134Y-76941649D01*
X74635689Y-76941649D01*
X74635689Y-77112693D01*
G37*
G36*
X84578522Y-77433400D02*
G01*
X84685872Y-77614850D01*
X84779112Y-77766063D01*
X84849520Y-77873359D01*
X84888376Y-77923059D01*
X84891887Y-77924907D01*
X84922053Y-77889700D01*
X84985015Y-77793495D01*
X85072168Y-77650126D01*
X85174905Y-77473425D01*
X85197642Y-77433400D01*
X85475588Y-76942137D01*
X85703571Y-76941893D01*
X85931553Y-76941649D01*
X85847925Y-77080622D01*
X85797918Y-77165219D01*
X85714765Y-77307524D01*
X85608007Y-77491143D01*
X85487188Y-77699676D01*
X85416828Y-77821426D01*
X85069359Y-78423257D01*
X85069359Y-78965281D01*
X85069359Y-79507306D01*
X84876935Y-79507306D01*
X84684511Y-79507306D01*
X84684511Y-78944585D01*
X84684511Y-78381865D01*
X84278282Y-77680063D01*
X84151406Y-77459952D01*
X84040721Y-77266172D01*
X83952856Y-77110475D01*
X83894441Y-77004612D01*
X83872104Y-76960334D01*
X83872053Y-76959955D01*
X83910506Y-76949438D01*
X84008667Y-76942819D01*
X84082509Y-76941649D01*
X84292966Y-76941649D01*
X84578522Y-77433400D01*
G37*
G36*
X78746633Y-76935545D02*
G01*
X78840157Y-76959014D01*
X79082827Y-77029560D01*
X79082827Y-77256937D01*
X79082827Y-77484314D01*
X78836952Y-77359175D01*
X78567412Y-77263388D01*
X78305809Y-77246345D01*
X78062756Y-77301307D01*
X77848868Y-77421538D01*
X77674758Y-77600299D01*
X77551041Y-77830855D01*
X77488330Y-78106467D01*
X77482713Y-78218786D01*
X77517506Y-78511414D01*
X77617691Y-78761215D01*
X77772813Y-78961514D01*
X77972416Y-79105639D01*
X78206045Y-79186913D01*
X78463245Y-79198662D01*
X78733562Y-79134212D01*
X78841616Y-79086310D01*
X79082827Y-78964640D01*
X79082827Y-79167189D01*
X79078521Y-79291547D01*
X79051876Y-79361741D01*
X78982303Y-79409110D01*
X78901093Y-79443815D01*
X78664454Y-79509095D01*
X78395321Y-79534721D01*
X78131887Y-79519312D01*
X77955175Y-79478002D01*
X77759506Y-79379659D01*
X77556297Y-79227208D01*
X77372398Y-79044843D01*
X77234655Y-78856760D01*
X77206637Y-78803454D01*
X77108326Y-78503313D01*
X77083073Y-78193067D01*
X77126134Y-77887307D01*
X77232764Y-77600623D01*
X77398219Y-77347605D01*
X77617752Y-77142842D01*
X77777842Y-77047059D01*
X78084096Y-76941417D01*
X78416672Y-76903446D01*
X78746633Y-76935545D01*
G37*
G36*
X79980807Y-77863133D02*
G01*
X79982047Y-78200580D01*
X79987376Y-78463827D01*
X79999210Y-78664180D01*
X80019963Y-78812945D01*
X80052049Y-78921428D01*
X80097883Y-79000935D01*
X80159880Y-79062771D01*
X80240454Y-79118243D01*
X80250139Y-79124188D01*
X80446769Y-79196828D01*
X80654447Y-79191040D01*
X80827909Y-79121361D01*
X80908957Y-79064954D01*
X80971712Y-78999249D01*
X81018469Y-78913146D01*
X81051521Y-78795549D01*
X81073163Y-78635359D01*
X81085689Y-78421479D01*
X81091393Y-78142811D01*
X81092592Y-77841002D01*
X81092592Y-76941649D01*
X81285016Y-76941649D01*
X81477440Y-76941649D01*
X81477202Y-77850319D01*
X81474957Y-78143027D01*
X81468798Y-78410615D01*
X81459351Y-78638442D01*
X81447245Y-78811864D01*
X81433106Y-78916240D01*
X81431235Y-78923674D01*
X81351252Y-79089008D01*
X81215110Y-79255219D01*
X81048129Y-79397204D01*
X80875633Y-79489860D01*
X80852445Y-79497478D01*
X80585615Y-79543046D01*
X80324326Y-79525784D01*
X80204827Y-79492986D01*
X79997019Y-79382534D01*
X79813917Y-79221268D01*
X79684765Y-79035392D01*
X79677897Y-79020814D01*
X79651329Y-78953608D01*
X79631260Y-78876285D01*
X79616790Y-78776314D01*
X79607020Y-78641166D01*
X79601048Y-78458312D01*
X79597976Y-78215223D01*
X79596904Y-77899368D01*
X79596898Y-77893080D01*
X79595959Y-76941649D01*
X79788383Y-76941649D01*
X79980807Y-76941649D01*
X79980807Y-77863133D01*
G37*
G36*
X82557154Y-76949490D02*
G01*
X82846037Y-76971455D01*
X83065559Y-77014527D01*
X83230387Y-77083910D01*
X83355191Y-77184804D01*
X83409327Y-77251711D01*
X83476397Y-77395708D01*
X83518453Y-77583902D01*
X83529213Y-77777043D01*
X83513185Y-77900667D01*
X83450428Y-78032095D01*
X83338952Y-78172689D01*
X83205996Y-78292322D01*
X83105611Y-78351412D01*
X82980189Y-78403363D01*
X83361980Y-78934285D01*
X83494009Y-79119192D01*
X83606255Y-79278882D01*
X83690099Y-79400892D01*
X83736917Y-79472757D01*
X83743770Y-79486257D01*
X83705187Y-79497773D01*
X83606085Y-79504780D01*
X83519275Y-79505873D01*
X83294780Y-79504440D01*
X82934108Y-78971361D01*
X82806201Y-78785560D01*
X82693511Y-78627950D01*
X82605199Y-78510878D01*
X82550424Y-78446689D01*
X82538570Y-78438282D01*
X82525361Y-78478340D01*
X82514449Y-78587721D01*
X82506888Y-78750236D01*
X82503735Y-78949694D01*
X82503703Y-78972794D01*
X82503703Y-79507306D01*
X82311279Y-79507306D01*
X82118854Y-79507306D01*
X82118854Y-78219627D01*
X82118854Y-78107075D01*
X82503703Y-78107075D01*
X82718903Y-78086397D01*
X82923188Y-78040122D01*
X83037392Y-77968685D01*
X83145971Y-77822136D01*
X83178018Y-77671517D01*
X83140839Y-77529646D01*
X83041741Y-77409341D01*
X82888029Y-77323421D01*
X82687010Y-77284704D01*
X82646985Y-77283737D01*
X82503703Y-77283737D01*
X82503703Y-77695406D01*
X82503703Y-78107075D01*
X82118854Y-78107075D01*
X82118854Y-77695406D01*
X82118854Y-76931949D01*
X82557154Y-76949490D01*
G37*
G36*
X75608501Y-76950180D02*
G01*
X75886981Y-76969409D01*
X76085835Y-77000442D01*
X76203378Y-77040341D01*
X76385905Y-77178296D01*
X76509356Y-77359239D01*
X76573446Y-77566061D01*
X76577886Y-77781652D01*
X76522389Y-77988903D01*
X76406667Y-78170703D01*
X76230434Y-78309945D01*
X76224757Y-78312995D01*
X76126619Y-78367521D01*
X76066038Y-78405617D01*
X76060981Y-78409848D01*
X76078374Y-78448290D01*
X76136669Y-78541762D01*
X76226197Y-78676326D01*
X76337290Y-78838045D01*
X76460279Y-79012978D01*
X76585497Y-79187189D01*
X76703275Y-79346740D01*
X76785171Y-79453854D01*
X76790671Y-79485020D01*
X76737198Y-79501702D01*
X76612495Y-79507232D01*
X76588585Y-79507306D01*
X76350200Y-79507306D01*
X75981819Y-78972794D01*
X75851380Y-78787151D01*
X75735862Y-78629516D01*
X75644614Y-78512129D01*
X75586984Y-78447229D01*
X75573554Y-78438282D01*
X75557947Y-78478563D01*
X75545361Y-78589527D01*
X75536901Y-78756357D01*
X75533674Y-78964236D01*
X75533669Y-78972794D01*
X75533669Y-79507306D01*
X75341245Y-79507306D01*
X75148821Y-79507306D01*
X75148821Y-78218985D01*
X75148821Y-78096195D01*
X75533669Y-78096195D01*
X75694023Y-78096128D01*
X75845373Y-78075453D01*
X75994756Y-78025369D01*
X76003092Y-78021296D01*
X76136045Y-77910487D01*
X76205808Y-77754485D01*
X76203311Y-77574320D01*
X76200675Y-77563239D01*
X76130834Y-77445869D01*
X75999450Y-77351915D01*
X75829921Y-77294848D01*
X75715403Y-77283896D01*
X75533669Y-77283737D01*
X75533669Y-77689966D01*
X75533669Y-78096195D01*
X75148821Y-78096195D01*
X75148821Y-77689966D01*
X75148821Y-76930664D01*
X75608501Y-76950180D01*
G37*
G36*
X72202613Y-76836584D02*
G01*
X72225318Y-76952068D01*
X72258206Y-77127222D01*
X72299092Y-77349745D01*
X72345792Y-77607335D01*
X72396119Y-77887690D01*
X72447890Y-78178509D01*
X72498919Y-78467490D01*
X72547020Y-78742330D01*
X72590009Y-78990728D01*
X72625701Y-79200382D01*
X72651911Y-79358990D01*
X72666453Y-79454251D01*
X72668686Y-79475217D01*
X72631575Y-79490316D01*
X72542013Y-79502123D01*
X72432659Y-79508826D01*
X72336170Y-79508612D01*
X72285204Y-79499666D01*
X72283344Y-79496615D01*
X72275534Y-79439366D01*
X72255831Y-79317488D01*
X72227128Y-79147405D01*
X72192322Y-78945541D01*
X72154306Y-78728321D01*
X72115975Y-78512167D01*
X72080225Y-78313505D01*
X72049949Y-78148759D01*
X72028042Y-78034352D01*
X72017400Y-77986709D01*
X72017157Y-77986304D01*
X71996649Y-78019291D01*
X71947337Y-78119437D01*
X71874470Y-78275454D01*
X71783295Y-78476049D01*
X71679060Y-78709933D01*
X71647048Y-78782580D01*
X71539619Y-79025085D01*
X71443429Y-79238607D01*
X71363812Y-79411597D01*
X71306106Y-79532501D01*
X71275648Y-79589769D01*
X71272722Y-79592828D01*
X71247174Y-79557140D01*
X71201409Y-79465676D01*
X71167551Y-79389713D01*
X71004096Y-79009984D01*
X70870129Y-78703572D01*
X70762783Y-78464628D01*
X70679189Y-78287304D01*
X70616481Y-78165752D01*
X70571789Y-78094122D01*
X70542248Y-78066568D01*
X70524988Y-78077240D01*
X70524522Y-78078353D01*
X70508781Y-78140585D01*
X70482346Y-78268825D01*
X70448506Y-78444710D01*
X70410552Y-78649879D01*
X70371772Y-78865969D01*
X70335456Y-79074617D01*
X70304895Y-79257461D01*
X70283376Y-79396139D01*
X70274191Y-79472287D01*
X70274073Y-79476394D01*
X70235833Y-79494834D01*
X70139087Y-79505891D01*
X70081649Y-79507306D01*
X69946882Y-79496220D01*
X69891216Y-79462262D01*
X69889225Y-79451080D01*
X69897216Y-79390131D01*
X69919522Y-79258403D01*
X69953637Y-79068854D01*
X69997057Y-78834444D01*
X70047276Y-78568129D01*
X70101791Y-78282871D01*
X70158097Y-77991626D01*
X70213690Y-77707354D01*
X70266064Y-77443014D01*
X70312715Y-77211564D01*
X70351138Y-77025963D01*
X70378830Y-76899169D01*
X70392919Y-76844979D01*
X70414890Y-76846050D01*
X70459005Y-76908353D01*
X70527257Y-77035787D01*
X70621637Y-77232249D01*
X70744135Y-77501637D01*
X70846180Y-77732269D01*
X70963778Y-77997797D01*
X71070994Y-78235272D01*
X71162872Y-78434085D01*
X71234452Y-78583625D01*
X71280778Y-78673284D01*
X71295999Y-78694848D01*
X71320171Y-78657443D01*
X71373636Y-78552295D01*
X71451384Y-78390000D01*
X71548405Y-78181156D01*
X71659689Y-77936360D01*
X71749471Y-77735607D01*
X71867513Y-77471978D01*
X71974351Y-77237394D01*
X72065123Y-77042202D01*
X72134968Y-76896751D01*
X72179024Y-76811387D01*
X72192277Y-76793074D01*
X72202613Y-76836584D01*
G37*
D13*
%TO.C,PWM1*%
X40680000Y-90220000D02*
X40680000Y-92980000D01*
X45870000Y-90220000D02*
X40680000Y-90220000D01*
X45870000Y-90220000D02*
X45870000Y-92980000D01*
X45870000Y-92980000D02*
X40680000Y-92980000D01*
X47140000Y-90220000D02*
X48520000Y-90220000D01*
X48520000Y-90220000D02*
X48520000Y-91600000D01*
%TO.C,Y1*%
X78914912Y-47677192D02*
X79869507Y-48631787D01*
X80152349Y-46439755D02*
X81106944Y-47394350D01*
%TO.C,BZ1*%
X67300000Y-93400000D02*
X67300000Y-84200000D01*
X69500000Y-84200000D02*
X67300000Y-84200000D01*
X69500000Y-93400000D02*
X67300000Y-93400000D01*
X74300000Y-84200000D02*
X74300000Y-83800000D01*
X76500000Y-84200000D02*
X74300000Y-84200000D01*
X76500000Y-84200000D02*
X76500000Y-93400000D01*
X76500000Y-93400000D02*
X74300000Y-93400000D01*
%TO.C,STEMMA_QT1*%
X40639998Y-44460000D02*
X40639998Y-48340000D01*
X42609998Y-43290000D02*
X45109998Y-43290000D01*
X42609998Y-49510000D02*
X45109998Y-49510000D01*
X45109998Y-43290000D02*
X45109998Y-44340000D01*
X45109998Y-44340000D02*
X46099998Y-44340000D01*
X45109998Y-49510000D02*
X45109998Y-48460000D01*
%TO.C,Q6*%
X54862500Y-105540000D02*
X54212500Y-105540000D01*
X54862500Y-105540000D02*
X55512500Y-105540000D01*
X54862500Y-108660000D02*
X54212500Y-108660000D01*
X54862500Y-108660000D02*
X55512500Y-108660000D01*
X56265000Y-108940000D02*
X55785000Y-108940000D01*
X56025000Y-108610000D01*
X56265000Y-108940000D01*
G36*
X56265000Y-108940000D02*
G01*
X55785000Y-108940000D01*
X56025000Y-108610000D01*
X56265000Y-108940000D01*
G37*
%TO.C,Y2*%
X73470710Y-42102082D02*
X75804163Y-39768629D01*
X75804163Y-39768629D02*
X72975736Y-36940202D01*
%TO.C,ARM1*%
X40630000Y-100960000D02*
X40630000Y-102280000D01*
X40630000Y-102880000D02*
X40630000Y-111820000D01*
X41150000Y-100960000D02*
X41150000Y-111820000D01*
X46250000Y-100960000D02*
X46250000Y-111820000D01*
X47370000Y-100960000D02*
X40630000Y-100960000D01*
X47370000Y-100960000D02*
X47370000Y-111820000D01*
X47370000Y-111820000D02*
X40630000Y-111820000D01*
X40630000Y-102580000D02*
X40020000Y-103020000D01*
X40020000Y-102140000D01*
X40630000Y-102580000D01*
G36*
X40630000Y-102580000D02*
G01*
X40020000Y-103020000D01*
X40020000Y-102140000D01*
X40630000Y-102580000D01*
G37*
%TO.C,Q3*%
X54862502Y-94490000D02*
X54212502Y-94490000D01*
X54862502Y-94490000D02*
X55512502Y-94490000D01*
X54862502Y-97610000D02*
X54212502Y-97610000D01*
X54862502Y-97610000D02*
X55512502Y-97610000D01*
X56265002Y-97890000D02*
X55785002Y-97890000D01*
X56025002Y-97560000D01*
X56265002Y-97890000D01*
G36*
X56265002Y-97890000D02*
G01*
X55785002Y-97890000D01*
X56025002Y-97560000D01*
X56265002Y-97890000D01*
G37*
%TO.C,U6*%
X55450002Y-87190000D02*
X59210002Y-87190000D01*
X55450002Y-94010000D02*
X59210002Y-94010000D01*
X59210002Y-87190000D02*
X59210002Y-88450000D01*
X59210002Y-94010000D02*
X59210002Y-92750000D01*
X54170002Y-87290000D02*
X53930002Y-86960000D01*
X54410002Y-86960000D01*
X54170002Y-87290000D01*
G36*
X54170002Y-87290000D02*
G01*
X53930002Y-86960000D01*
X54410002Y-86960000D01*
X54170002Y-87290000D01*
G37*
%TO.C,R1*%
X64320000Y-80120000D02*
X64820000Y-80120000D01*
X64320000Y-82480000D02*
X64820000Y-82480000D01*
%TO.C,C1*%
X69740000Y-107732651D02*
X77900000Y-107732651D01*
X69740000Y-107772651D02*
X77900000Y-107772651D01*
X69741000Y-107692651D02*
X77899000Y-107692651D01*
X69742000Y-107652651D02*
X77898000Y-107652651D01*
X69743000Y-107612651D02*
X77897000Y-107612651D01*
X69745000Y-107572651D02*
X77895000Y-107572651D01*
X69747000Y-107532651D02*
X77893000Y-107532651D01*
X69750000Y-107492651D02*
X77890000Y-107492651D01*
X69752000Y-107452651D02*
X77888000Y-107452651D01*
X69756000Y-107412651D02*
X77884000Y-107412651D01*
X69759000Y-107372651D02*
X77881000Y-107372651D01*
X69764000Y-107332651D02*
X77876000Y-107332651D01*
X69768000Y-107292651D02*
X77872000Y-107292651D01*
X69773000Y-107252651D02*
X77867000Y-107252651D01*
X69778000Y-107212651D02*
X77862000Y-107212651D01*
X69784000Y-107172651D02*
X77856000Y-107172651D01*
X69790000Y-107132651D02*
X77850000Y-107132651D01*
X69797000Y-107092651D02*
X77843000Y-107092651D01*
X69803000Y-107052651D02*
X77837000Y-107052651D01*
X69811000Y-107012651D02*
X77829000Y-107012651D01*
X69818000Y-106972651D02*
X77822000Y-106972651D01*
X69827000Y-106932651D02*
X77813000Y-106932651D01*
X69835000Y-106892651D02*
X77805000Y-106892651D01*
X69844000Y-106852651D02*
X77796000Y-106852651D01*
X69853000Y-106812651D02*
X77787000Y-106812651D01*
X69863000Y-106772651D02*
X77777000Y-106772651D01*
X69873000Y-106732651D02*
X77767000Y-106732651D01*
X69884000Y-106692651D02*
X77756000Y-106692651D01*
X69895000Y-106652651D02*
X77745000Y-106652651D01*
X69907000Y-106612651D02*
X77733000Y-106612651D01*
X69919000Y-106572651D02*
X77721000Y-106572651D01*
X69931000Y-106532651D02*
X77709000Y-106532651D01*
X69944000Y-106492651D02*
X77696000Y-106492651D01*
X69957000Y-106452651D02*
X77683000Y-106452651D01*
X69971000Y-106412651D02*
X77669000Y-106412651D01*
X69985000Y-106372651D02*
X77655000Y-106372651D01*
X70000000Y-106332651D02*
X77640000Y-106332651D01*
X70015000Y-106292651D02*
X72780000Y-106292651D01*
X70031000Y-106252651D02*
X72780000Y-106252651D01*
X70047000Y-106212651D02*
X72780000Y-106212651D01*
X70063000Y-106172651D02*
X72780000Y-106172651D01*
X70080000Y-106132651D02*
X72780000Y-106132651D01*
X70098000Y-106092651D02*
X72780000Y-106092651D01*
X70116000Y-106052651D02*
X72780000Y-106052651D01*
X70135000Y-106012651D02*
X72780000Y-106012651D01*
X70154000Y-105972651D02*
X72780000Y-105972651D01*
X70174000Y-105932651D02*
X72780000Y-105932651D01*
X70194000Y-105892651D02*
X72780000Y-105892651D01*
X70215000Y-105852651D02*
X72780000Y-105852651D01*
X70236000Y-105812651D02*
X72780000Y-105812651D01*
X70258000Y-105772651D02*
X72780000Y-105772651D01*
X70281000Y-105732651D02*
X72780000Y-105732651D01*
X70304000Y-105692651D02*
X72780000Y-105692651D01*
X70327000Y-105652651D02*
X72780000Y-105652651D01*
X70352000Y-105612651D02*
X72780000Y-105612651D01*
X70377000Y-105572651D02*
X72780000Y-105572651D01*
X70402000Y-105532651D02*
X72780000Y-105532651D01*
X70428000Y-105492651D02*
X72780000Y-105492651D01*
X70455000Y-105452651D02*
X72780000Y-105452651D01*
X70483000Y-105412651D02*
X72780000Y-105412651D01*
X70511000Y-105372651D02*
X72780000Y-105372651D01*
X70540000Y-105332651D02*
X72780000Y-105332651D01*
X70570000Y-105292651D02*
X72780000Y-105292651D01*
X70601000Y-105252651D02*
X72780000Y-105252651D01*
X70632000Y-105212651D02*
X72780000Y-105212651D01*
X70664000Y-105172651D02*
X72780000Y-105172651D01*
X70697000Y-105132651D02*
X72780000Y-105132651D01*
X70731000Y-105092651D02*
X72780000Y-105092651D01*
X70765000Y-105052651D02*
X72780000Y-105052651D01*
X70801000Y-105012651D02*
X72780000Y-105012651D01*
X70838000Y-104972651D02*
X72780000Y-104972651D01*
X70875000Y-104932651D02*
X72780000Y-104932651D01*
X70914000Y-104892651D02*
X72780000Y-104892651D01*
X70953000Y-104852651D02*
X72780000Y-104852651D01*
X70994000Y-104812651D02*
X72780000Y-104812651D01*
X71036000Y-104772651D02*
X72780000Y-104772651D01*
X71079000Y-104732651D02*
X72780000Y-104732651D01*
X71105000Y-111782349D02*
X71905000Y-111782349D01*
X71124000Y-104692651D02*
X72780000Y-104692651D01*
X71169000Y-104652651D02*
X72780000Y-104652651D01*
X71216000Y-104612651D02*
X72780000Y-104612651D01*
X71265000Y-104572651D02*
X72780000Y-104572651D01*
X71315000Y-104532651D02*
X72780000Y-104532651D01*
X71367000Y-104492651D02*
X72780000Y-104492651D01*
X71420000Y-104452651D02*
X72780000Y-104452651D01*
X71476000Y-104412651D02*
X72780000Y-104412651D01*
X71505000Y-112182349D02*
X71505000Y-111382349D01*
X71533000Y-104372651D02*
X72780000Y-104372651D01*
X71593000Y-104332651D02*
X72780000Y-104332651D01*
X71655000Y-104292651D02*
X72780000Y-104292651D01*
X71719000Y-104252651D02*
X72780000Y-104252651D01*
X71786000Y-104212651D02*
X75854000Y-104212651D01*
X71856000Y-104172651D02*
X75784000Y-104172651D01*
X71930000Y-104132651D02*
X75710000Y-104132651D01*
X72007000Y-104092651D02*
X75633000Y-104092651D01*
X72089000Y-104052651D02*
X75551000Y-104052651D01*
X72176000Y-104012651D02*
X75464000Y-104012651D01*
X72268000Y-103972651D02*
X75372000Y-103972651D01*
X72367000Y-103932651D02*
X75273000Y-103932651D01*
X72474000Y-103892651D02*
X75166000Y-103892651D01*
X72592000Y-103852651D02*
X75048000Y-103852651D01*
X72723000Y-103812651D02*
X74917000Y-103812651D01*
X72873000Y-103772651D02*
X74767000Y-103772651D01*
X73052000Y-103732651D02*
X74588000Y-103732651D01*
X73287000Y-103692651D02*
X74353000Y-103692651D01*
X74860000Y-104252651D02*
X75921000Y-104252651D01*
X74860000Y-104292651D02*
X75985000Y-104292651D01*
X74860000Y-104332651D02*
X76047000Y-104332651D01*
X74860000Y-104372651D02*
X76107000Y-104372651D01*
X74860000Y-104412651D02*
X76164000Y-104412651D01*
X74860000Y-104452651D02*
X76220000Y-104452651D01*
X74860000Y-104492651D02*
X76273000Y-104492651D01*
X74860000Y-104532651D02*
X76325000Y-104532651D01*
X74860000Y-104572651D02*
X76375000Y-104572651D01*
X74860000Y-104612651D02*
X76424000Y-104612651D01*
X74860000Y-104652651D02*
X76471000Y-104652651D01*
X74860000Y-104692651D02*
X76516000Y-104692651D01*
X74860000Y-104732651D02*
X76561000Y-104732651D01*
X74860000Y-104772651D02*
X76604000Y-104772651D01*
X74860000Y-104812651D02*
X76646000Y-104812651D01*
X74860000Y-104852651D02*
X76687000Y-104852651D01*
X74860000Y-104892651D02*
X76726000Y-104892651D01*
X74860000Y-104932651D02*
X76765000Y-104932651D01*
X74860000Y-104972651D02*
X76802000Y-104972651D01*
X74860000Y-105012651D02*
X76839000Y-105012651D01*
X74860000Y-105052651D02*
X76875000Y-105052651D01*
X74860000Y-105092651D02*
X76909000Y-105092651D01*
X74860000Y-105132651D02*
X76943000Y-105132651D01*
X74860000Y-105172651D02*
X76976000Y-105172651D01*
X74860000Y-105212651D02*
X77008000Y-105212651D01*
X74860000Y-105252651D02*
X77039000Y-105252651D01*
X74860000Y-105292651D02*
X77070000Y-105292651D01*
X74860000Y-105332651D02*
X77100000Y-105332651D01*
X74860000Y-105372651D02*
X77129000Y-105372651D01*
X74860000Y-105412651D02*
X77157000Y-105412651D01*
X74860000Y-105452651D02*
X77185000Y-105452651D01*
X74860000Y-105492651D02*
X77212000Y-105492651D01*
X74860000Y-105532651D02*
X77238000Y-105532651D01*
X74860000Y-105572651D02*
X77263000Y-105572651D01*
X74860000Y-105612651D02*
X77288000Y-105612651D01*
X74860000Y-105652651D02*
X77313000Y-105652651D01*
X74860000Y-105692651D02*
X77336000Y-105692651D01*
X74860000Y-105732651D02*
X77359000Y-105732651D01*
X74860000Y-105772651D02*
X77382000Y-105772651D01*
X74860000Y-105812651D02*
X77404000Y-105812651D01*
X74860000Y-105852651D02*
X77425000Y-105852651D01*
X74860000Y-105892651D02*
X77446000Y-105892651D01*
X74860000Y-105932651D02*
X77466000Y-105932651D01*
X74860000Y-105972651D02*
X77486000Y-105972651D01*
X74860000Y-106012651D02*
X77505000Y-106012651D01*
X74860000Y-106052651D02*
X77524000Y-106052651D01*
X74860000Y-106092651D02*
X77542000Y-106092651D01*
X74860000Y-106132651D02*
X77560000Y-106132651D01*
X74860000Y-106172651D02*
X77577000Y-106172651D01*
X74860000Y-106212651D02*
X77593000Y-106212651D01*
X74860000Y-106252651D02*
X77609000Y-106252651D01*
X74860000Y-106292651D02*
X77625000Y-106292651D01*
X77940000Y-107772651D02*
G75*
G02*
X69700000Y-107772651I-4120000J0D01*
G01*
X69700000Y-107772651D02*
G75*
G02*
X77940000Y-107772651I4120000J0D01*
G01*
%TO.C,U12*%
X60860000Y-82110000D02*
X60860000Y-80700000D01*
X63180000Y-82100000D02*
X63180000Y-80700000D01*
X60910000Y-82480000D02*
X60580000Y-82720000D01*
X60580000Y-82240000D01*
X60910000Y-82480000D01*
G36*
X60910000Y-82480000D02*
G01*
X60580000Y-82720000D01*
X60580000Y-82240000D01*
X60910000Y-82480000D01*
G37*
%TO.C,U15*%
X43065000Y-64800001D02*
X43065000Y-62800001D01*
X45335000Y-64800001D02*
X45335000Y-62800001D01*
X43150000Y-65630001D02*
X42870000Y-65350001D01*
X43150000Y-65350001D01*
X43150000Y-65630001D01*
G36*
X43150000Y-65630001D02*
G01*
X42870000Y-65350001D01*
X43150000Y-65350001D01*
X43150000Y-65630001D01*
G37*
%TO.C,C8*%
X61940000Y-100307836D02*
X61940000Y-100092164D01*
X62660000Y-100307836D02*
X62660000Y-100092164D01*
%TO.C,C4*%
X52040002Y-94012164D02*
X52040002Y-94227836D01*
X52760002Y-94012164D02*
X52760002Y-94227836D01*
%TO.C,C2*%
X68140000Y-108807836D02*
X68140000Y-108592164D01*
X68860000Y-108807836D02*
X68860000Y-108592164D01*
%TO.C,R45*%
X49513640Y-66770000D02*
X49206358Y-66770000D01*
X49513640Y-67530000D02*
X49206358Y-67530000D01*
%TO.C,C6*%
X61940002Y-91412164D02*
X61940002Y-91627836D01*
X62660002Y-91412164D02*
X62660002Y-91627836D01*
%TO.C,3V3_PWR1*%
X67677500Y-102465000D02*
X67677500Y-103935000D01*
X67677500Y-103935000D02*
X69962500Y-103935000D01*
X69962500Y-102465000D02*
X67677500Y-102465000D01*
%TO.C,J3*%
X44350000Y-75730000D02*
X46050000Y-75730000D01*
X44350000Y-85070000D02*
X46050000Y-85070000D01*
%TO.C,J1*%
X63455000Y-76365000D02*
X63455000Y-77000000D01*
X62820000Y-76365000D02*
X63455000Y-76365000D01*
%TD*%
M02*
