%TF.GenerationSoftware,KiCad,Pcbnew,9.0.1*%
%TF.CreationDate,2025-05-10T22:35:42-04:00*%
%TF.ProjectId,CRVFCU,43525646-4355-42e6-9b69-6361645f7063,rev?*%
%TF.SameCoordinates,Original*%
%TF.FileFunction,Legend,Bot*%
%TF.FilePolarity,Positive*%
%FSLAX46Y46*%
G04 Gerber Fmt 4.6, Leading zero omitted, Abs format (unit mm)*
G04 Created by KiCad (PCBNEW 9.0.1) date 2025-05-10 22:35:42*
%MOMM*%
%LPD*%
G01*
G04 APERTURE LIST*
G04 Aperture macros list*
%AMRoundRect*
0 Rectangle with rounded corners*
0 $1 Rounding radius*
0 $2 $3 $4 $5 $6 $7 $8 $9 X,Y pos of 4 corners*
0 Add a 4 corners polygon primitive as box body*
4,1,4,$2,$3,$4,$5,$6,$7,$8,$9,$2,$3,0*
0 Add four circle primitives for the rounded corners*
1,1,$1+$1,$2,$3*
1,1,$1+$1,$4,$5*
1,1,$1+$1,$6,$7*
1,1,$1+$1,$8,$9*
0 Add four rect primitives between the rounded corners*
20,1,$1+$1,$2,$3,$4,$5,0*
20,1,$1+$1,$4,$5,$6,$7,0*
20,1,$1+$1,$6,$7,$8,$9,0*
20,1,$1+$1,$8,$9,$2,$3,0*%
%AMFreePoly0*
4,1,17,1.515000,0.170000,0.915000,0.170000,0.915000,-0.080000,1.515000,-0.080000,1.515000,-0.480000,0.915000,-0.480000,0.915000,-0.505000,-0.395000,-0.505000,-0.395000,-1.005000,-0.825000,-1.005000,-0.825000,-0.625000,-0.915000,-0.625000,-0.915000,0.505000,0.815000,0.505000,0.815000,0.570000,1.515000,0.570000,1.515000,0.170000,1.515000,0.170000,$1*%
%AMFreePoly1*
4,1,17,-0.395000,0.505000,0.915000,0.505000,0.915000,0.480000,1.515000,0.480000,1.515000,0.080000,0.915000,0.080000,0.915000,-0.170000,1.515000,-0.170000,1.515000,-0.570000,0.815000,-0.570000,0.815000,-0.505000,-0.915000,-0.505000,-0.915000,0.625000,-0.825000,0.625000,-0.825000,1.005000,-0.395000,1.005000,-0.395000,0.505000,-0.395000,0.505000,$1*%
G04 Aperture macros list end*
%ADD10C,0.200000*%
%ADD11C,0.100000*%
%ADD12C,0.120000*%
%ADD13R,0.760000X0.350000*%
%ADD14FreePoly0,0.000000*%
%ADD15FreePoly1,0.000000*%
%ADD16RoundRect,0.135000X-0.135000X-0.185000X0.135000X-0.185000X0.135000X0.185000X-0.135000X0.185000X0*%
%ADD17R,1.600000X1.600000*%
%ADD18C,1.600000*%
%ADD19RoundRect,0.760000X-1.140000X-1.140000X1.140000X-1.140000X1.140000X1.140000X-1.140000X1.140000X0*%
%ADD20C,4.000000*%
%ADD21RoundRect,0.250001X0.799999X-0.799999X0.799999X0.799999X-0.799999X0.799999X-0.799999X-0.799999X0*%
%ADD22C,2.100000*%
%ADD23RoundRect,0.140000X-0.140000X-0.170000X0.140000X-0.170000X0.140000X0.170000X-0.140000X0.170000X0*%
%ADD24C,0.990600*%
%ADD25C,6.400000*%
%ADD26RoundRect,0.050000X0.262500X0.050000X-0.262500X0.050000X-0.262500X-0.050000X0.262500X-0.050000X0*%
%ADD27R,0.400000X2.800000*%
%ADD28R,1.200000X0.700000*%
%ADD29R,0.800000X1.000000*%
%ADD30R,1.200000X1.000000*%
%ADD31R,2.800000X1.000000*%
%ADD32R,1.900000X1.300000*%
%ADD33RoundRect,0.162500X0.574524X-0.344715X-0.344715X0.574524X-0.574524X0.344715X0.344715X-0.574524X0*%
%ADD34RoundRect,0.140000X-0.219203X-0.021213X-0.021213X-0.219203X0.219203X0.021213X0.021213X0.219203X0*%
%ADD35RoundRect,0.140000X0.219203X0.021213X0.021213X0.219203X-0.219203X-0.021213X-0.021213X-0.219203X0*%
%ADD36RoundRect,0.140000X0.021213X-0.219203X0.219203X-0.021213X-0.021213X0.219203X-0.219203X0.021213X0*%
%ADD37RoundRect,0.140000X-0.021213X0.219203X-0.219203X0.021213X0.021213X-0.219203X0.219203X-0.021213X0*%
%ADD38RoundRect,0.218750X0.335876X0.026517X0.026517X0.335876X-0.335876X-0.026517X-0.026517X-0.335876X0*%
%ADD39C,0.650000*%
%ADD40O,2.100000X1.000000*%
%ADD41O,1.800000X1.000000*%
%ADD42RoundRect,0.218750X-0.335876X-0.026517X-0.026517X-0.335876X0.335876X0.026517X0.026517X0.335876X0*%
%ADD43RoundRect,0.135000X-0.226274X-0.035355X-0.035355X-0.226274X0.226274X0.035355X0.035355X0.226274X0*%
%ADD44RoundRect,0.135000X-0.035355X0.226274X-0.226274X0.035355X0.035355X-0.226274X0.226274X-0.035355X0*%
%ADD45RoundRect,0.135000X0.226274X0.035355X0.035355X0.226274X-0.226274X-0.035355X-0.035355X-0.226274X0*%
%ADD46RoundRect,0.100000X0.088388X0.229810X-0.229810X-0.088388X-0.088388X-0.229810X0.229810X0.088388X0*%
%ADD47RoundRect,0.250001X-0.799999X0.799999X-0.799999X-0.799999X0.799999X-0.799999X0.799999X0.799999X0*%
%ADD48R,1.700000X1.700000*%
%ADD49C,1.700000*%
%ADD50R,0.240000X0.900000*%
%ADD51R,0.900000X0.240000*%
%ADD52R,1.000000X2.900000*%
%ADD53RoundRect,0.135000X0.135000X0.185000X-0.135000X0.185000X-0.135000X-0.185000X0.135000X-0.185000X0*%
%ADD54R,0.400000X0.500000*%
%ADD55R,0.300000X0.500000*%
%ADD56R,0.500000X0.400000*%
%ADD57R,0.500000X0.300000*%
%ADD58RoundRect,0.140000X0.140000X0.170000X-0.140000X0.170000X-0.140000X-0.170000X0.140000X-0.170000X0*%
%ADD59RoundRect,0.140000X-0.170000X0.140000X-0.170000X-0.140000X0.170000X-0.140000X0.170000X0.140000X0*%
%ADD60RoundRect,0.135000X-0.185000X0.135000X-0.185000X-0.135000X0.185000X-0.135000X0.185000X0.135000X0*%
G04 APERTURE END LIST*
D10*
X62430326Y-22947331D02*
X62430326Y-21947331D01*
X62430326Y-21947331D02*
X62096993Y-22661616D01*
X62096993Y-22661616D02*
X61763660Y-21947331D01*
X61763660Y-21947331D02*
X61763660Y-22947331D01*
X60906517Y-22899712D02*
X61001755Y-22947331D01*
X61001755Y-22947331D02*
X61192231Y-22947331D01*
X61192231Y-22947331D02*
X61287469Y-22899712D01*
X61287469Y-22899712D02*
X61335088Y-22804473D01*
X61335088Y-22804473D02*
X61335088Y-22423521D01*
X61335088Y-22423521D02*
X61287469Y-22328283D01*
X61287469Y-22328283D02*
X61192231Y-22280664D01*
X61192231Y-22280664D02*
X61001755Y-22280664D01*
X61001755Y-22280664D02*
X60906517Y-22328283D01*
X60906517Y-22328283D02*
X60858898Y-22423521D01*
X60858898Y-22423521D02*
X60858898Y-22518759D01*
X60858898Y-22518759D02*
X61335088Y-22613997D01*
X60430326Y-22947331D02*
X60430326Y-22280664D01*
X60430326Y-22471140D02*
X60382707Y-22375902D01*
X60382707Y-22375902D02*
X60335088Y-22328283D01*
X60335088Y-22328283D02*
X60239850Y-22280664D01*
X60239850Y-22280664D02*
X60144612Y-22280664D01*
X59382707Y-22899712D02*
X59477945Y-22947331D01*
X59477945Y-22947331D02*
X59668421Y-22947331D01*
X59668421Y-22947331D02*
X59763659Y-22899712D01*
X59763659Y-22899712D02*
X59811278Y-22852092D01*
X59811278Y-22852092D02*
X59858897Y-22756854D01*
X59858897Y-22756854D02*
X59858897Y-22471140D01*
X59858897Y-22471140D02*
X59811278Y-22375902D01*
X59811278Y-22375902D02*
X59763659Y-22328283D01*
X59763659Y-22328283D02*
X59668421Y-22280664D01*
X59668421Y-22280664D02*
X59477945Y-22280664D01*
X59477945Y-22280664D02*
X59382707Y-22328283D01*
X58525564Y-22280664D02*
X58525564Y-22947331D01*
X58954135Y-22280664D02*
X58954135Y-22804473D01*
X58954135Y-22804473D02*
X58906516Y-22899712D01*
X58906516Y-22899712D02*
X58811278Y-22947331D01*
X58811278Y-22947331D02*
X58668421Y-22947331D01*
X58668421Y-22947331D02*
X58573183Y-22899712D01*
X58573183Y-22899712D02*
X58525564Y-22852092D01*
X58049373Y-22947331D02*
X58049373Y-22280664D01*
X58049373Y-22471140D02*
X58001754Y-22375902D01*
X58001754Y-22375902D02*
X57954135Y-22328283D01*
X57954135Y-22328283D02*
X57858897Y-22280664D01*
X57858897Y-22280664D02*
X57763659Y-22280664D01*
X57525563Y-22280664D02*
X57287468Y-22947331D01*
X57049373Y-22280664D02*
X57287468Y-22947331D01*
X57287468Y-22947331D02*
X57382706Y-23185426D01*
X57382706Y-23185426D02*
X57430325Y-23233045D01*
X57430325Y-23233045D02*
X57525563Y-23280664D01*
X55906515Y-22947331D02*
X55906515Y-21947331D01*
X55906515Y-22423521D02*
X55335087Y-22423521D01*
X55335087Y-22947331D02*
X55335087Y-21947331D01*
X54954134Y-21947331D02*
X54287468Y-21947331D01*
X54287468Y-21947331D02*
X54716039Y-22947331D01*
X53477944Y-22280664D02*
X53477944Y-22947331D01*
X53716039Y-21899712D02*
X53954134Y-22613997D01*
X53954134Y-22613997D02*
X53335087Y-22613997D01*
X53049372Y-21947331D02*
X52382706Y-21947331D01*
X52382706Y-21947331D02*
X52811277Y-22947331D01*
X50906515Y-22423521D02*
X51239848Y-22423521D01*
X51239848Y-22947331D02*
X51239848Y-21947331D01*
X51239848Y-21947331D02*
X50763658Y-21947331D01*
X49811277Y-22852092D02*
X49858896Y-22899712D01*
X49858896Y-22899712D02*
X50001753Y-22947331D01*
X50001753Y-22947331D02*
X50096991Y-22947331D01*
X50096991Y-22947331D02*
X50239848Y-22899712D01*
X50239848Y-22899712D02*
X50335086Y-22804473D01*
X50335086Y-22804473D02*
X50382705Y-22709235D01*
X50382705Y-22709235D02*
X50430324Y-22518759D01*
X50430324Y-22518759D02*
X50430324Y-22375902D01*
X50430324Y-22375902D02*
X50382705Y-22185426D01*
X50382705Y-22185426D02*
X50335086Y-22090188D01*
X50335086Y-22090188D02*
X50239848Y-21994950D01*
X50239848Y-21994950D02*
X50096991Y-21947331D01*
X50096991Y-21947331D02*
X50001753Y-21947331D01*
X50001753Y-21947331D02*
X49858896Y-21994950D01*
X49858896Y-21994950D02*
X49811277Y-22042569D01*
X49382705Y-21947331D02*
X49382705Y-22756854D01*
X49382705Y-22756854D02*
X49335086Y-22852092D01*
X49335086Y-22852092D02*
X49287467Y-22899712D01*
X49287467Y-22899712D02*
X49192229Y-22947331D01*
X49192229Y-22947331D02*
X49001753Y-22947331D01*
X49001753Y-22947331D02*
X48906515Y-22899712D01*
X48906515Y-22899712D02*
X48858896Y-22852092D01*
X48858896Y-22852092D02*
X48811277Y-22756854D01*
X48811277Y-22756854D02*
X48811277Y-21947331D01*
X62573183Y-23557275D02*
X62239850Y-24557275D01*
X62239850Y-24557275D02*
X61906517Y-23557275D01*
X61049374Y-24557275D02*
X61620802Y-24557275D01*
X61335088Y-24557275D02*
X61335088Y-23557275D01*
X61335088Y-23557275D02*
X61430326Y-23700132D01*
X61430326Y-23700132D02*
X61525564Y-23795370D01*
X61525564Y-23795370D02*
X61620802Y-23842989D01*
X60620802Y-24462036D02*
X60573183Y-24509656D01*
X60573183Y-24509656D02*
X60620802Y-24557275D01*
X60620802Y-24557275D02*
X60668421Y-24509656D01*
X60668421Y-24509656D02*
X60620802Y-24462036D01*
X60620802Y-24462036D02*
X60620802Y-24557275D01*
X59954136Y-23557275D02*
X59858898Y-23557275D01*
X59858898Y-23557275D02*
X59763660Y-23604894D01*
X59763660Y-23604894D02*
X59716041Y-23652513D01*
X59716041Y-23652513D02*
X59668422Y-23747751D01*
X59668422Y-23747751D02*
X59620803Y-23938227D01*
X59620803Y-23938227D02*
X59620803Y-24176322D01*
X59620803Y-24176322D02*
X59668422Y-24366798D01*
X59668422Y-24366798D02*
X59716041Y-24462036D01*
X59716041Y-24462036D02*
X59763660Y-24509656D01*
X59763660Y-24509656D02*
X59858898Y-24557275D01*
X59858898Y-24557275D02*
X59954136Y-24557275D01*
X59954136Y-24557275D02*
X60049374Y-24509656D01*
X60049374Y-24509656D02*
X60096993Y-24462036D01*
X60096993Y-24462036D02*
X60144612Y-24366798D01*
X60144612Y-24366798D02*
X60192231Y-24176322D01*
X60192231Y-24176322D02*
X60192231Y-23938227D01*
X60192231Y-23938227D02*
X60144612Y-23747751D01*
X60144612Y-23747751D02*
X60096993Y-23652513D01*
X60096993Y-23652513D02*
X60049374Y-23604894D01*
X60049374Y-23604894D02*
X59954136Y-23557275D01*
X58477945Y-23652513D02*
X58430326Y-23604894D01*
X58430326Y-23604894D02*
X58335088Y-23557275D01*
X58335088Y-23557275D02*
X58096993Y-23557275D01*
X58096993Y-23557275D02*
X58001755Y-23604894D01*
X58001755Y-23604894D02*
X57954136Y-23652513D01*
X57954136Y-23652513D02*
X57906517Y-23747751D01*
X57906517Y-23747751D02*
X57906517Y-23842989D01*
X57906517Y-23842989D02*
X57954136Y-23985846D01*
X57954136Y-23985846D02*
X58525564Y-24557275D01*
X58525564Y-24557275D02*
X57906517Y-24557275D01*
X57287469Y-23557275D02*
X57192231Y-23557275D01*
X57192231Y-23557275D02*
X57096993Y-23604894D01*
X57096993Y-23604894D02*
X57049374Y-23652513D01*
X57049374Y-23652513D02*
X57001755Y-23747751D01*
X57001755Y-23747751D02*
X56954136Y-23938227D01*
X56954136Y-23938227D02*
X56954136Y-24176322D01*
X56954136Y-24176322D02*
X57001755Y-24366798D01*
X57001755Y-24366798D02*
X57049374Y-24462036D01*
X57049374Y-24462036D02*
X57096993Y-24509656D01*
X57096993Y-24509656D02*
X57192231Y-24557275D01*
X57192231Y-24557275D02*
X57287469Y-24557275D01*
X57287469Y-24557275D02*
X57382707Y-24509656D01*
X57382707Y-24509656D02*
X57430326Y-24462036D01*
X57430326Y-24462036D02*
X57477945Y-24366798D01*
X57477945Y-24366798D02*
X57525564Y-24176322D01*
X57525564Y-24176322D02*
X57525564Y-23938227D01*
X57525564Y-23938227D02*
X57477945Y-23747751D01*
X57477945Y-23747751D02*
X57430326Y-23652513D01*
X57430326Y-23652513D02*
X57382707Y-23604894D01*
X57382707Y-23604894D02*
X57287469Y-23557275D01*
X56573183Y-23652513D02*
X56525564Y-23604894D01*
X56525564Y-23604894D02*
X56430326Y-23557275D01*
X56430326Y-23557275D02*
X56192231Y-23557275D01*
X56192231Y-23557275D02*
X56096993Y-23604894D01*
X56096993Y-23604894D02*
X56049374Y-23652513D01*
X56049374Y-23652513D02*
X56001755Y-23747751D01*
X56001755Y-23747751D02*
X56001755Y-23842989D01*
X56001755Y-23842989D02*
X56049374Y-23985846D01*
X56049374Y-23985846D02*
X56620802Y-24557275D01*
X56620802Y-24557275D02*
X56001755Y-24557275D01*
X55096993Y-23557275D02*
X55573183Y-23557275D01*
X55573183Y-23557275D02*
X55620802Y-24033465D01*
X55620802Y-24033465D02*
X55573183Y-23985846D01*
X55573183Y-23985846D02*
X55477945Y-23938227D01*
X55477945Y-23938227D02*
X55239850Y-23938227D01*
X55239850Y-23938227D02*
X55144612Y-23985846D01*
X55144612Y-23985846D02*
X55096993Y-24033465D01*
X55096993Y-24033465D02*
X55049374Y-24128703D01*
X55049374Y-24128703D02*
X55049374Y-24366798D01*
X55049374Y-24366798D02*
X55096993Y-24462036D01*
X55096993Y-24462036D02*
X55144612Y-24509656D01*
X55144612Y-24509656D02*
X55239850Y-24557275D01*
X55239850Y-24557275D02*
X55477945Y-24557275D01*
X55477945Y-24557275D02*
X55573183Y-24509656D01*
X55573183Y-24509656D02*
X55620802Y-24462036D01*
X62430326Y-26167219D02*
X62430326Y-25167219D01*
X61858898Y-26167219D02*
X62287469Y-25595790D01*
X61858898Y-25167219D02*
X62430326Y-25738647D01*
X61001755Y-26167219D02*
X61001755Y-25643409D01*
X61001755Y-25643409D02*
X61049374Y-25548171D01*
X61049374Y-25548171D02*
X61144612Y-25500552D01*
X61144612Y-25500552D02*
X61335088Y-25500552D01*
X61335088Y-25500552D02*
X61430326Y-25548171D01*
X61001755Y-26119600D02*
X61096993Y-26167219D01*
X61096993Y-26167219D02*
X61335088Y-26167219D01*
X61335088Y-26167219D02*
X61430326Y-26119600D01*
X61430326Y-26119600D02*
X61477945Y-26024361D01*
X61477945Y-26024361D02*
X61477945Y-25929123D01*
X61477945Y-25929123D02*
X61430326Y-25833885D01*
X61430326Y-25833885D02*
X61335088Y-25786266D01*
X61335088Y-25786266D02*
X61096993Y-25786266D01*
X61096993Y-25786266D02*
X61001755Y-25738647D01*
X60525564Y-26167219D02*
X60525564Y-25500552D01*
X60525564Y-25167219D02*
X60573183Y-25214838D01*
X60573183Y-25214838D02*
X60525564Y-25262457D01*
X60525564Y-25262457D02*
X60477945Y-25214838D01*
X60477945Y-25214838D02*
X60525564Y-25167219D01*
X60525564Y-25167219D02*
X60525564Y-25262457D01*
X60144612Y-25500552D02*
X59954136Y-26167219D01*
X59954136Y-26167219D02*
X59763660Y-25691028D01*
X59763660Y-25691028D02*
X59573184Y-26167219D01*
X59573184Y-26167219D02*
X59382708Y-25500552D01*
X58620803Y-26119600D02*
X58716041Y-26167219D01*
X58716041Y-26167219D02*
X58906517Y-26167219D01*
X58906517Y-26167219D02*
X59001755Y-26119600D01*
X59001755Y-26119600D02*
X59049374Y-26024361D01*
X59049374Y-26024361D02*
X59049374Y-25643409D01*
X59049374Y-25643409D02*
X59001755Y-25548171D01*
X59001755Y-25548171D02*
X58906517Y-25500552D01*
X58906517Y-25500552D02*
X58716041Y-25500552D01*
X58716041Y-25500552D02*
X58620803Y-25548171D01*
X58620803Y-25548171D02*
X58573184Y-25643409D01*
X58573184Y-25643409D02*
X58573184Y-25738647D01*
X58573184Y-25738647D02*
X59049374Y-25833885D01*
X58144612Y-25500552D02*
X58144612Y-26167219D01*
X58144612Y-25595790D02*
X58096993Y-25548171D01*
X58096993Y-25548171D02*
X58001755Y-25500552D01*
X58001755Y-25500552D02*
X57858898Y-25500552D01*
X57858898Y-25500552D02*
X57763660Y-25548171D01*
X57763660Y-25548171D02*
X57716041Y-25643409D01*
X57716041Y-25643409D02*
X57716041Y-26167219D01*
X56573183Y-25167219D02*
X55906517Y-25167219D01*
X55906517Y-25167219D02*
X56573183Y-26167219D01*
X56573183Y-26167219D02*
X55906517Y-26167219D01*
X55525564Y-26167219D02*
X55525564Y-25167219D01*
X55096993Y-26167219D02*
X55096993Y-25643409D01*
X55096993Y-25643409D02*
X55144612Y-25548171D01*
X55144612Y-25548171D02*
X55239850Y-25500552D01*
X55239850Y-25500552D02*
X55382707Y-25500552D01*
X55382707Y-25500552D02*
X55477945Y-25548171D01*
X55477945Y-25548171D02*
X55525564Y-25595790D01*
X54239850Y-26119600D02*
X54335088Y-26167219D01*
X54335088Y-26167219D02*
X54525564Y-26167219D01*
X54525564Y-26167219D02*
X54620802Y-26119600D01*
X54620802Y-26119600D02*
X54668421Y-26024361D01*
X54668421Y-26024361D02*
X54668421Y-25643409D01*
X54668421Y-25643409D02*
X54620802Y-25548171D01*
X54620802Y-25548171D02*
X54525564Y-25500552D01*
X54525564Y-25500552D02*
X54335088Y-25500552D01*
X54335088Y-25500552D02*
X54239850Y-25548171D01*
X54239850Y-25548171D02*
X54192231Y-25643409D01*
X54192231Y-25643409D02*
X54192231Y-25738647D01*
X54192231Y-25738647D02*
X54668421Y-25833885D01*
X53763659Y-25500552D02*
X53763659Y-26167219D01*
X53763659Y-25595790D02*
X53716040Y-25548171D01*
X53716040Y-25548171D02*
X53620802Y-25500552D01*
X53620802Y-25500552D02*
X53477945Y-25500552D01*
X53477945Y-25500552D02*
X53382707Y-25548171D01*
X53382707Y-25548171D02*
X53335088Y-25643409D01*
X53335088Y-25643409D02*
X53335088Y-26167219D01*
X52430326Y-25500552D02*
X52430326Y-26310076D01*
X52430326Y-26310076D02*
X52477945Y-26405314D01*
X52477945Y-26405314D02*
X52525564Y-26452933D01*
X52525564Y-26452933D02*
X52620802Y-26500552D01*
X52620802Y-26500552D02*
X52763659Y-26500552D01*
X52763659Y-26500552D02*
X52858897Y-26452933D01*
X52430326Y-26119600D02*
X52525564Y-26167219D01*
X52525564Y-26167219D02*
X52716040Y-26167219D01*
X52716040Y-26167219D02*
X52811278Y-26119600D01*
X52811278Y-26119600D02*
X52858897Y-26071980D01*
X52858897Y-26071980D02*
X52906516Y-25976742D01*
X52906516Y-25976742D02*
X52906516Y-25691028D01*
X52906516Y-25691028D02*
X52858897Y-25595790D01*
X52858897Y-25595790D02*
X52811278Y-25548171D01*
X52811278Y-25548171D02*
X52716040Y-25500552D01*
X52716040Y-25500552D02*
X52525564Y-25500552D01*
X52525564Y-25500552D02*
X52430326Y-25548171D01*
D11*
X69704285Y-102234895D02*
X69970952Y-101853942D01*
X70161428Y-102234895D02*
X70161428Y-101434895D01*
X70161428Y-101434895D02*
X69856666Y-101434895D01*
X69856666Y-101434895D02*
X69780476Y-101472990D01*
X69780476Y-101472990D02*
X69742381Y-101511085D01*
X69742381Y-101511085D02*
X69704285Y-101587276D01*
X69704285Y-101587276D02*
X69704285Y-101701561D01*
X69704285Y-101701561D02*
X69742381Y-101777752D01*
X69742381Y-101777752D02*
X69780476Y-101815847D01*
X69780476Y-101815847D02*
X69856666Y-101853942D01*
X69856666Y-101853942D02*
X70161428Y-101853942D01*
X69437619Y-101434895D02*
X68942381Y-101434895D01*
X68942381Y-101434895D02*
X69209047Y-101739657D01*
X69209047Y-101739657D02*
X69094762Y-101739657D01*
X69094762Y-101739657D02*
X69018571Y-101777752D01*
X69018571Y-101777752D02*
X68980476Y-101815847D01*
X68980476Y-101815847D02*
X68942381Y-101892038D01*
X68942381Y-101892038D02*
X68942381Y-102082514D01*
X68942381Y-102082514D02*
X68980476Y-102158704D01*
X68980476Y-102158704D02*
X69018571Y-102196800D01*
X69018571Y-102196800D02*
X69094762Y-102234895D01*
X69094762Y-102234895D02*
X69323333Y-102234895D01*
X69323333Y-102234895D02*
X69399524Y-102196800D01*
X69399524Y-102196800D02*
X69437619Y-102158704D01*
X68256666Y-101434895D02*
X68409047Y-101434895D01*
X68409047Y-101434895D02*
X68485238Y-101472990D01*
X68485238Y-101472990D02*
X68523333Y-101511085D01*
X68523333Y-101511085D02*
X68599523Y-101625371D01*
X68599523Y-101625371D02*
X68637619Y-101777752D01*
X68637619Y-101777752D02*
X68637619Y-102082514D01*
X68637619Y-102082514D02*
X68599523Y-102158704D01*
X68599523Y-102158704D02*
X68561428Y-102196800D01*
X68561428Y-102196800D02*
X68485238Y-102234895D01*
X68485238Y-102234895D02*
X68332857Y-102234895D01*
X68332857Y-102234895D02*
X68256666Y-102196800D01*
X68256666Y-102196800D02*
X68218571Y-102158704D01*
X68218571Y-102158704D02*
X68180476Y-102082514D01*
X68180476Y-102082514D02*
X68180476Y-101892038D01*
X68180476Y-101892038D02*
X68218571Y-101815847D01*
X68218571Y-101815847D02*
X68256666Y-101777752D01*
X68256666Y-101777752D02*
X68332857Y-101739657D01*
X68332857Y-101739657D02*
X68485238Y-101739657D01*
X68485238Y-101739657D02*
X68561428Y-101777752D01*
X68561428Y-101777752D02*
X68599523Y-101815847D01*
X68599523Y-101815847D02*
X68637619Y-101892038D01*
X68904285Y-106934895D02*
X69170952Y-106553942D01*
X69361428Y-106934895D02*
X69361428Y-106134895D01*
X69361428Y-106134895D02*
X69056666Y-106134895D01*
X69056666Y-106134895D02*
X68980476Y-106172990D01*
X68980476Y-106172990D02*
X68942381Y-106211085D01*
X68942381Y-106211085D02*
X68904285Y-106287276D01*
X68904285Y-106287276D02*
X68904285Y-106401561D01*
X68904285Y-106401561D02*
X68942381Y-106477752D01*
X68942381Y-106477752D02*
X68980476Y-106515847D01*
X68980476Y-106515847D02*
X69056666Y-106553942D01*
X69056666Y-106553942D02*
X69361428Y-106553942D01*
X68637619Y-106134895D02*
X68142381Y-106134895D01*
X68142381Y-106134895D02*
X68409047Y-106439657D01*
X68409047Y-106439657D02*
X68294762Y-106439657D01*
X68294762Y-106439657D02*
X68218571Y-106477752D01*
X68218571Y-106477752D02*
X68180476Y-106515847D01*
X68180476Y-106515847D02*
X68142381Y-106592038D01*
X68142381Y-106592038D02*
X68142381Y-106782514D01*
X68142381Y-106782514D02*
X68180476Y-106858704D01*
X68180476Y-106858704D02*
X68218571Y-106896800D01*
X68218571Y-106896800D02*
X68294762Y-106934895D01*
X68294762Y-106934895D02*
X68523333Y-106934895D01*
X68523333Y-106934895D02*
X68599524Y-106896800D01*
X68599524Y-106896800D02*
X68637619Y-106858704D01*
X67875714Y-106134895D02*
X67342380Y-106134895D01*
X67342380Y-106134895D02*
X67685238Y-106934895D01*
X46964285Y-64938704D02*
X47002381Y-64976800D01*
X47002381Y-64976800D02*
X47116666Y-65014895D01*
X47116666Y-65014895D02*
X47192857Y-65014895D01*
X47192857Y-65014895D02*
X47307143Y-64976800D01*
X47307143Y-64976800D02*
X47383333Y-64900609D01*
X47383333Y-64900609D02*
X47421428Y-64824419D01*
X47421428Y-64824419D02*
X47459524Y-64672038D01*
X47459524Y-64672038D02*
X47459524Y-64557752D01*
X47459524Y-64557752D02*
X47421428Y-64405371D01*
X47421428Y-64405371D02*
X47383333Y-64329180D01*
X47383333Y-64329180D02*
X47307143Y-64252990D01*
X47307143Y-64252990D02*
X47192857Y-64214895D01*
X47192857Y-64214895D02*
X47116666Y-64214895D01*
X47116666Y-64214895D02*
X47002381Y-64252990D01*
X47002381Y-64252990D02*
X46964285Y-64291085D01*
X46278571Y-64481561D02*
X46278571Y-65014895D01*
X46469047Y-64176800D02*
X46659524Y-64748228D01*
X46659524Y-64748228D02*
X46164285Y-64748228D01*
X45707142Y-64214895D02*
X45630952Y-64214895D01*
X45630952Y-64214895D02*
X45554761Y-64252990D01*
X45554761Y-64252990D02*
X45516666Y-64291085D01*
X45516666Y-64291085D02*
X45478571Y-64367276D01*
X45478571Y-64367276D02*
X45440476Y-64519657D01*
X45440476Y-64519657D02*
X45440476Y-64710133D01*
X45440476Y-64710133D02*
X45478571Y-64862514D01*
X45478571Y-64862514D02*
X45516666Y-64938704D01*
X45516666Y-64938704D02*
X45554761Y-64976800D01*
X45554761Y-64976800D02*
X45630952Y-65014895D01*
X45630952Y-65014895D02*
X45707142Y-65014895D01*
X45707142Y-65014895D02*
X45783333Y-64976800D01*
X45783333Y-64976800D02*
X45821428Y-64938704D01*
X45821428Y-64938704D02*
X45859523Y-64862514D01*
X45859523Y-64862514D02*
X45897619Y-64710133D01*
X45897619Y-64710133D02*
X45897619Y-64519657D01*
X45897619Y-64519657D02*
X45859523Y-64367276D01*
X45859523Y-64367276D02*
X45821428Y-64291085D01*
X45821428Y-64291085D02*
X45783333Y-64252990D01*
X45783333Y-64252990D02*
X45707142Y-64214895D01*
X71805475Y-73274894D02*
X71805475Y-73922513D01*
X71805475Y-73922513D02*
X71767380Y-73998703D01*
X71767380Y-73998703D02*
X71729285Y-74036799D01*
X71729285Y-74036799D02*
X71653094Y-74074894D01*
X71653094Y-74074894D02*
X71500713Y-74074894D01*
X71500713Y-74074894D02*
X71424523Y-74036799D01*
X71424523Y-74036799D02*
X71386428Y-73998703D01*
X71386428Y-73998703D02*
X71348332Y-73922513D01*
X71348332Y-73922513D02*
X71348332Y-73274894D01*
X70548333Y-74074894D02*
X71005476Y-74074894D01*
X70776904Y-74074894D02*
X70776904Y-73274894D01*
X70776904Y-73274894D02*
X70853095Y-73389179D01*
X70853095Y-73389179D02*
X70929285Y-73465370D01*
X70929285Y-73465370D02*
X71005476Y-73503465D01*
X69786428Y-74074894D02*
X70243571Y-74074894D01*
X70014999Y-74074894D02*
X70014999Y-73274894D01*
X70014999Y-73274894D02*
X70091190Y-73389179D01*
X70091190Y-73389179D02*
X70167380Y-73465370D01*
X70167380Y-73465370D02*
X70243571Y-73503465D01*
X75681666Y-67944895D02*
X75681666Y-68516323D01*
X75681666Y-68516323D02*
X75719761Y-68630609D01*
X75719761Y-68630609D02*
X75795952Y-68706800D01*
X75795952Y-68706800D02*
X75910237Y-68744895D01*
X75910237Y-68744895D02*
X75986428Y-68744895D01*
X74957856Y-68211561D02*
X74957856Y-68744895D01*
X75148332Y-67906800D02*
X75338809Y-68478228D01*
X75338809Y-68478228D02*
X74843570Y-68478228D01*
X71329285Y-72659895D02*
X71595952Y-72278942D01*
X71786428Y-72659895D02*
X71786428Y-71859895D01*
X71786428Y-71859895D02*
X71481666Y-71859895D01*
X71481666Y-71859895D02*
X71405476Y-71897990D01*
X71405476Y-71897990D02*
X71367381Y-71936085D01*
X71367381Y-71936085D02*
X71329285Y-72012276D01*
X71329285Y-72012276D02*
X71329285Y-72126561D01*
X71329285Y-72126561D02*
X71367381Y-72202752D01*
X71367381Y-72202752D02*
X71405476Y-72240847D01*
X71405476Y-72240847D02*
X71481666Y-72278942D01*
X71481666Y-72278942D02*
X71786428Y-72278942D01*
X71024524Y-71936085D02*
X70986428Y-71897990D01*
X70986428Y-71897990D02*
X70910238Y-71859895D01*
X70910238Y-71859895D02*
X70719762Y-71859895D01*
X70719762Y-71859895D02*
X70643571Y-71897990D01*
X70643571Y-71897990D02*
X70605476Y-71936085D01*
X70605476Y-71936085D02*
X70567381Y-72012276D01*
X70567381Y-72012276D02*
X70567381Y-72088466D01*
X70567381Y-72088466D02*
X70605476Y-72202752D01*
X70605476Y-72202752D02*
X71062619Y-72659895D01*
X71062619Y-72659895D02*
X70567381Y-72659895D01*
X69881666Y-72126561D02*
X69881666Y-72659895D01*
X70072142Y-71821800D02*
X70262619Y-72393228D01*
X70262619Y-72393228D02*
X69767380Y-72393228D01*
X68318965Y-52328477D02*
X67861029Y-52786413D01*
X67861029Y-52786413D02*
X67780217Y-52813350D01*
X67780217Y-52813350D02*
X67726342Y-52813350D01*
X67726342Y-52813350D02*
X67645530Y-52786413D01*
X67645530Y-52786413D02*
X67537781Y-52678663D01*
X67537781Y-52678663D02*
X67510843Y-52597851D01*
X67510843Y-52597851D02*
X67510843Y-52543976D01*
X67510843Y-52543976D02*
X67537781Y-52463164D01*
X67537781Y-52463164D02*
X67995716Y-52005228D01*
X66864346Y-52005228D02*
X67187595Y-52328477D01*
X67025970Y-52166853D02*
X67591656Y-51601167D01*
X67591656Y-51601167D02*
X67564718Y-51735854D01*
X67564718Y-51735854D02*
X67564718Y-51843604D01*
X67564718Y-51843604D02*
X67591656Y-51924416D01*
X67079845Y-51089357D02*
X67025970Y-51035482D01*
X67025970Y-51035482D02*
X66945158Y-51008544D01*
X66945158Y-51008544D02*
X66891283Y-51008544D01*
X66891283Y-51008544D02*
X66810471Y-51035482D01*
X66810471Y-51035482D02*
X66675784Y-51116294D01*
X66675784Y-51116294D02*
X66541097Y-51250981D01*
X66541097Y-51250981D02*
X66460285Y-51385668D01*
X66460285Y-51385668D02*
X66433347Y-51466480D01*
X66433347Y-51466480D02*
X66433347Y-51520355D01*
X66433347Y-51520355D02*
X66460285Y-51601167D01*
X66460285Y-51601167D02*
X66514159Y-51655042D01*
X66514159Y-51655042D02*
X66594972Y-51681980D01*
X66594972Y-51681980D02*
X66648846Y-51681980D01*
X66648846Y-51681980D02*
X66729659Y-51655042D01*
X66729659Y-51655042D02*
X66864346Y-51574230D01*
X66864346Y-51574230D02*
X66999033Y-51439543D01*
X66999033Y-51439543D02*
X67079845Y-51304856D01*
X67079845Y-51304856D02*
X67106782Y-51224044D01*
X67106782Y-51224044D02*
X67106782Y-51170169D01*
X67106782Y-51170169D02*
X67079845Y-51089357D01*
X66198920Y-39057210D02*
X66198920Y-39111084D01*
X66198920Y-39111084D02*
X66252795Y-39218834D01*
X66252795Y-39218834D02*
X66306670Y-39272709D01*
X66306670Y-39272709D02*
X66414420Y-39326584D01*
X66414420Y-39326584D02*
X66522169Y-39326584D01*
X66522169Y-39326584D02*
X66602982Y-39299646D01*
X66602982Y-39299646D02*
X66737669Y-39218834D01*
X66737669Y-39218834D02*
X66818481Y-39138022D01*
X66818481Y-39138022D02*
X66899293Y-39003335D01*
X66899293Y-39003335D02*
X66926230Y-38922523D01*
X66926230Y-38922523D02*
X66926230Y-38814773D01*
X66926230Y-38814773D02*
X66872356Y-38707023D01*
X66872356Y-38707023D02*
X66818481Y-38653149D01*
X66818481Y-38653149D02*
X66710731Y-38599274D01*
X66710731Y-38599274D02*
X66656856Y-38599274D01*
X65606298Y-38572336D02*
X65929546Y-38895585D01*
X65767922Y-38733961D02*
X66333607Y-38168275D01*
X66333607Y-38168275D02*
X66306670Y-38302962D01*
X66306670Y-38302962D02*
X66306670Y-38410712D01*
X66306670Y-38410712D02*
X66333607Y-38491524D01*
X65983421Y-37818089D02*
X65606297Y-37440965D01*
X65606297Y-37440965D02*
X65283049Y-38249087D01*
X54659509Y-61117800D02*
X54659509Y-61171674D01*
X54659509Y-61171674D02*
X54713384Y-61279424D01*
X54713384Y-61279424D02*
X54767259Y-61333299D01*
X54767259Y-61333299D02*
X54875009Y-61387174D01*
X54875009Y-61387174D02*
X54982758Y-61387174D01*
X54982758Y-61387174D02*
X55063571Y-61360236D01*
X55063571Y-61360236D02*
X55198258Y-61279424D01*
X55198258Y-61279424D02*
X55279070Y-61198612D01*
X55279070Y-61198612D02*
X55359882Y-61063925D01*
X55359882Y-61063925D02*
X55386819Y-60983113D01*
X55386819Y-60983113D02*
X55386819Y-60875363D01*
X55386819Y-60875363D02*
X55332945Y-60767613D01*
X55332945Y-60767613D02*
X55279070Y-60713739D01*
X55279070Y-60713739D02*
X55171320Y-60659864D01*
X55171320Y-60659864D02*
X55117445Y-60659864D01*
X54066887Y-60632926D02*
X54390135Y-60956175D01*
X54228511Y-60794551D02*
X54794196Y-60228865D01*
X54794196Y-60228865D02*
X54767259Y-60363552D01*
X54767259Y-60363552D02*
X54767259Y-60471302D01*
X54767259Y-60471302D02*
X54794196Y-60552114D01*
X54147699Y-59582368D02*
X54255448Y-59690117D01*
X54255448Y-59690117D02*
X54282386Y-59770929D01*
X54282386Y-59770929D02*
X54282386Y-59824804D01*
X54282386Y-59824804D02*
X54255448Y-59959491D01*
X54255448Y-59959491D02*
X54174636Y-60094178D01*
X54174636Y-60094178D02*
X53959137Y-60309677D01*
X53959137Y-60309677D02*
X53878325Y-60336615D01*
X53878325Y-60336615D02*
X53824450Y-60336615D01*
X53824450Y-60336615D02*
X53743638Y-60309677D01*
X53743638Y-60309677D02*
X53635888Y-60201928D01*
X53635888Y-60201928D02*
X53608951Y-60121116D01*
X53608951Y-60121116D02*
X53608951Y-60067241D01*
X53608951Y-60067241D02*
X53635888Y-59986429D01*
X53635888Y-59986429D02*
X53770575Y-59851742D01*
X53770575Y-59851742D02*
X53851387Y-59824804D01*
X53851387Y-59824804D02*
X53905262Y-59824804D01*
X53905262Y-59824804D02*
X53986074Y-59851742D01*
X53986074Y-59851742D02*
X54093824Y-59959491D01*
X54093824Y-59959491D02*
X54120761Y-60040303D01*
X54120761Y-60040303D02*
X54120761Y-60094178D01*
X54120761Y-60094178D02*
X54093824Y-60174990D01*
X57479753Y-63897556D02*
X57479753Y-63951430D01*
X57479753Y-63951430D02*
X57533628Y-64059180D01*
X57533628Y-64059180D02*
X57587503Y-64113055D01*
X57587503Y-64113055D02*
X57695253Y-64166930D01*
X57695253Y-64166930D02*
X57803002Y-64166930D01*
X57803002Y-64166930D02*
X57883815Y-64139992D01*
X57883815Y-64139992D02*
X58018502Y-64059180D01*
X58018502Y-64059180D02*
X58099314Y-63978368D01*
X58099314Y-63978368D02*
X58180126Y-63843681D01*
X58180126Y-63843681D02*
X58207063Y-63762869D01*
X58207063Y-63762869D02*
X58207063Y-63655119D01*
X58207063Y-63655119D02*
X58153189Y-63547369D01*
X58153189Y-63547369D02*
X58099314Y-63493495D01*
X58099314Y-63493495D02*
X57991564Y-63439620D01*
X57991564Y-63439620D02*
X57937689Y-63439620D01*
X57722190Y-63224121D02*
X57722190Y-63170246D01*
X57722190Y-63170246D02*
X57695253Y-63089434D01*
X57695253Y-63089434D02*
X57560566Y-62954747D01*
X57560566Y-62954747D02*
X57479753Y-62927809D01*
X57479753Y-62927809D02*
X57425879Y-62927809D01*
X57425879Y-62927809D02*
X57345066Y-62954747D01*
X57345066Y-62954747D02*
X57291192Y-63008621D01*
X57291192Y-63008621D02*
X57237317Y-63116371D01*
X57237317Y-63116371D02*
X57237317Y-63762869D01*
X57237317Y-63762869D02*
X56887131Y-63412682D01*
X57102630Y-62496811D02*
X57048755Y-62442936D01*
X57048755Y-62442936D02*
X56967943Y-62415998D01*
X56967943Y-62415998D02*
X56914068Y-62415998D01*
X56914068Y-62415998D02*
X56833256Y-62442936D01*
X56833256Y-62442936D02*
X56698569Y-62523748D01*
X56698569Y-62523748D02*
X56563882Y-62658435D01*
X56563882Y-62658435D02*
X56483069Y-62793122D01*
X56483069Y-62793122D02*
X56456132Y-62873934D01*
X56456132Y-62873934D02*
X56456132Y-62927809D01*
X56456132Y-62927809D02*
X56483069Y-63008621D01*
X56483069Y-63008621D02*
X56536944Y-63062496D01*
X56536944Y-63062496D02*
X56617756Y-63089433D01*
X56617756Y-63089433D02*
X56671631Y-63089433D01*
X56671631Y-63089433D02*
X56752443Y-63062496D01*
X56752443Y-63062496D02*
X56887130Y-62981684D01*
X56887130Y-62981684D02*
X57021818Y-62846997D01*
X57021818Y-62846997D02*
X57102630Y-62712310D01*
X57102630Y-62712310D02*
X57129567Y-62631498D01*
X57129567Y-62631498D02*
X57129567Y-62577623D01*
X57129567Y-62577623D02*
X57102630Y-62496811D01*
X60079754Y-66297556D02*
X60079754Y-66351430D01*
X60079754Y-66351430D02*
X60133629Y-66459180D01*
X60133629Y-66459180D02*
X60187504Y-66513055D01*
X60187504Y-66513055D02*
X60295254Y-66566930D01*
X60295254Y-66566930D02*
X60403003Y-66566930D01*
X60403003Y-66566930D02*
X60483816Y-66539992D01*
X60483816Y-66539992D02*
X60618503Y-66459180D01*
X60618503Y-66459180D02*
X60699315Y-66378368D01*
X60699315Y-66378368D02*
X60780127Y-66243681D01*
X60780127Y-66243681D02*
X60807064Y-66162869D01*
X60807064Y-66162869D02*
X60807064Y-66055119D01*
X60807064Y-66055119D02*
X60753190Y-65947369D01*
X60753190Y-65947369D02*
X60699315Y-65893495D01*
X60699315Y-65893495D02*
X60591565Y-65839620D01*
X60591565Y-65839620D02*
X60537690Y-65839620D01*
X59487132Y-65812682D02*
X59810380Y-66135931D01*
X59648756Y-65974307D02*
X60214441Y-65408621D01*
X60214441Y-65408621D02*
X60187504Y-65543308D01*
X60187504Y-65543308D02*
X60187504Y-65651058D01*
X60187504Y-65651058D02*
X60214441Y-65731870D01*
X59702631Y-64896811D02*
X59648756Y-64842936D01*
X59648756Y-64842936D02*
X59567944Y-64815998D01*
X59567944Y-64815998D02*
X59514069Y-64815998D01*
X59514069Y-64815998D02*
X59433257Y-64842936D01*
X59433257Y-64842936D02*
X59298570Y-64923748D01*
X59298570Y-64923748D02*
X59163883Y-65058435D01*
X59163883Y-65058435D02*
X59083070Y-65193122D01*
X59083070Y-65193122D02*
X59056133Y-65273934D01*
X59056133Y-65273934D02*
X59056133Y-65327809D01*
X59056133Y-65327809D02*
X59083070Y-65408621D01*
X59083070Y-65408621D02*
X59136945Y-65462496D01*
X59136945Y-65462496D02*
X59217757Y-65489433D01*
X59217757Y-65489433D02*
X59271632Y-65489433D01*
X59271632Y-65489433D02*
X59352444Y-65462496D01*
X59352444Y-65462496D02*
X59487131Y-65381684D01*
X59487131Y-65381684D02*
X59621819Y-65246997D01*
X59621819Y-65246997D02*
X59702631Y-65112310D01*
X59702631Y-65112310D02*
X59729568Y-65031498D01*
X59729568Y-65031498D02*
X59729568Y-64977623D01*
X59729568Y-64977623D02*
X59702631Y-64896811D01*
X79759509Y-47067800D02*
X79759509Y-47121674D01*
X79759509Y-47121674D02*
X79813384Y-47229424D01*
X79813384Y-47229424D02*
X79867259Y-47283299D01*
X79867259Y-47283299D02*
X79975009Y-47337174D01*
X79975009Y-47337174D02*
X80082758Y-47337174D01*
X80082758Y-47337174D02*
X80163571Y-47310236D01*
X80163571Y-47310236D02*
X80298258Y-47229424D01*
X80298258Y-47229424D02*
X80379070Y-47148612D01*
X80379070Y-47148612D02*
X80459882Y-47013925D01*
X80459882Y-47013925D02*
X80486819Y-46933113D01*
X80486819Y-46933113D02*
X80486819Y-46825363D01*
X80486819Y-46825363D02*
X80432945Y-46717613D01*
X80432945Y-46717613D02*
X80379070Y-46663739D01*
X80379070Y-46663739D02*
X80271320Y-46609864D01*
X80271320Y-46609864D02*
X80217445Y-46609864D01*
X79166887Y-46582926D02*
X79490135Y-46906175D01*
X79328511Y-46744551D02*
X79894196Y-46178865D01*
X79894196Y-46178865D02*
X79867259Y-46313552D01*
X79867259Y-46313552D02*
X79867259Y-46421302D01*
X79867259Y-46421302D02*
X79894196Y-46502114D01*
X79463198Y-45855616D02*
X79463198Y-45801742D01*
X79463198Y-45801742D02*
X79436261Y-45720929D01*
X79436261Y-45720929D02*
X79301574Y-45586242D01*
X79301574Y-45586242D02*
X79220761Y-45559305D01*
X79220761Y-45559305D02*
X79166886Y-45559305D01*
X79166886Y-45559305D02*
X79086074Y-45586242D01*
X79086074Y-45586242D02*
X79032199Y-45640117D01*
X79032199Y-45640117D02*
X78978325Y-45747867D01*
X78978325Y-45747867D02*
X78978325Y-46394364D01*
X78978325Y-46394364D02*
X78628138Y-46044178D01*
X80546495Y-55944028D02*
X80600369Y-55944028D01*
X80600369Y-55944028D02*
X80708119Y-55890153D01*
X80708119Y-55890153D02*
X80761994Y-55836278D01*
X80761994Y-55836278D02*
X80815869Y-55728528D01*
X80815869Y-55728528D02*
X80815869Y-55620779D01*
X80815869Y-55620779D02*
X80788931Y-55539966D01*
X80788931Y-55539966D02*
X80708119Y-55405279D01*
X80708119Y-55405279D02*
X80627307Y-55324467D01*
X80627307Y-55324467D02*
X80492620Y-55243655D01*
X80492620Y-55243655D02*
X80411808Y-55216718D01*
X80411808Y-55216718D02*
X80304058Y-55216718D01*
X80304058Y-55216718D02*
X80196308Y-55270592D01*
X80196308Y-55270592D02*
X80142434Y-55324467D01*
X80142434Y-55324467D02*
X80088559Y-55432217D01*
X80088559Y-55432217D02*
X80088559Y-55486092D01*
X80061621Y-56536650D02*
X80384870Y-56213402D01*
X80223246Y-56375026D02*
X79657560Y-55809341D01*
X79657560Y-55809341D02*
X79792247Y-55836278D01*
X79792247Y-55836278D02*
X79899997Y-55836278D01*
X79899997Y-55836278D02*
X79980809Y-55809341D01*
X79307374Y-56159527D02*
X78957188Y-56509713D01*
X78957188Y-56509713D02*
X79361249Y-56536651D01*
X79361249Y-56536651D02*
X79280437Y-56617463D01*
X79280437Y-56617463D02*
X79253499Y-56698275D01*
X79253499Y-56698275D02*
X79253499Y-56752150D01*
X79253499Y-56752150D02*
X79280437Y-56832962D01*
X79280437Y-56832962D02*
X79415124Y-56967649D01*
X79415124Y-56967649D02*
X79495936Y-56994586D01*
X79495936Y-56994586D02*
X79549811Y-56994586D01*
X79549811Y-56994586D02*
X79630623Y-56967649D01*
X79630623Y-56967649D02*
X79792247Y-56806025D01*
X79792247Y-56806025D02*
X79819185Y-56725212D01*
X79819185Y-56725212D02*
X79819185Y-56671338D01*
X53859509Y-61867800D02*
X53859509Y-61921674D01*
X53859509Y-61921674D02*
X53913384Y-62029424D01*
X53913384Y-62029424D02*
X53967259Y-62083299D01*
X53967259Y-62083299D02*
X54075009Y-62137174D01*
X54075009Y-62137174D02*
X54182758Y-62137174D01*
X54182758Y-62137174D02*
X54263571Y-62110236D01*
X54263571Y-62110236D02*
X54398258Y-62029424D01*
X54398258Y-62029424D02*
X54479070Y-61948612D01*
X54479070Y-61948612D02*
X54559882Y-61813925D01*
X54559882Y-61813925D02*
X54586819Y-61733113D01*
X54586819Y-61733113D02*
X54586819Y-61625363D01*
X54586819Y-61625363D02*
X54532945Y-61517613D01*
X54532945Y-61517613D02*
X54479070Y-61463739D01*
X54479070Y-61463739D02*
X54371320Y-61409864D01*
X54371320Y-61409864D02*
X54317445Y-61409864D01*
X53266887Y-61382926D02*
X53590135Y-61706175D01*
X53428511Y-61544551D02*
X53994196Y-60978865D01*
X53994196Y-60978865D02*
X53967259Y-61113552D01*
X53967259Y-61113552D02*
X53967259Y-61221302D01*
X53967259Y-61221302D02*
X53994196Y-61302114D01*
X53320761Y-60305430D02*
X53590135Y-60574804D01*
X53590135Y-60574804D02*
X53347699Y-60871116D01*
X53347699Y-60871116D02*
X53347699Y-60817241D01*
X53347699Y-60817241D02*
X53320761Y-60736429D01*
X53320761Y-60736429D02*
X53186074Y-60601742D01*
X53186074Y-60601742D02*
X53105262Y-60574804D01*
X53105262Y-60574804D02*
X53051387Y-60574804D01*
X53051387Y-60574804D02*
X52970575Y-60601742D01*
X52970575Y-60601742D02*
X52835888Y-60736429D01*
X52835888Y-60736429D02*
X52808951Y-60817241D01*
X52808951Y-60817241D02*
X52808951Y-60871116D01*
X52808951Y-60871116D02*
X52835888Y-60951928D01*
X52835888Y-60951928D02*
X52970575Y-61086615D01*
X52970575Y-61086615D02*
X53051387Y-61113552D01*
X53051387Y-61113552D02*
X53105262Y-61113552D01*
X78091615Y-45424749D02*
X78091615Y-45478623D01*
X78091615Y-45478623D02*
X78145490Y-45586373D01*
X78145490Y-45586373D02*
X78199365Y-45640248D01*
X78199365Y-45640248D02*
X78307115Y-45694123D01*
X78307115Y-45694123D02*
X78414864Y-45694123D01*
X78414864Y-45694123D02*
X78495677Y-45667185D01*
X78495677Y-45667185D02*
X78630364Y-45586373D01*
X78630364Y-45586373D02*
X78711176Y-45505561D01*
X78711176Y-45505561D02*
X78791988Y-45370874D01*
X78791988Y-45370874D02*
X78818925Y-45290062D01*
X78818925Y-45290062D02*
X78818925Y-45182312D01*
X78818925Y-45182312D02*
X78765051Y-45074562D01*
X78765051Y-45074562D02*
X78711176Y-45020688D01*
X78711176Y-45020688D02*
X78603426Y-44966813D01*
X78603426Y-44966813D02*
X78549551Y-44966813D01*
X77498993Y-44939875D02*
X77822241Y-45263124D01*
X77660617Y-45101500D02*
X78226302Y-44535814D01*
X78226302Y-44535814D02*
X78199365Y-44670501D01*
X78199365Y-44670501D02*
X78199365Y-44778251D01*
X78199365Y-44778251D02*
X78226302Y-44859063D01*
X76960244Y-44401127D02*
X77283493Y-44724376D01*
X77121869Y-44562752D02*
X77687554Y-43997066D01*
X77687554Y-43997066D02*
X77660617Y-44131753D01*
X77660617Y-44131753D02*
X77660617Y-44239503D01*
X77660617Y-44239503D02*
X77687554Y-44320315D01*
X65667800Y-70440490D02*
X65721674Y-70440490D01*
X65721674Y-70440490D02*
X65829424Y-70386615D01*
X65829424Y-70386615D02*
X65883299Y-70332740D01*
X65883299Y-70332740D02*
X65937174Y-70224990D01*
X65937174Y-70224990D02*
X65937174Y-70117241D01*
X65937174Y-70117241D02*
X65910236Y-70036428D01*
X65910236Y-70036428D02*
X65829424Y-69901741D01*
X65829424Y-69901741D02*
X65748612Y-69820929D01*
X65748612Y-69820929D02*
X65613925Y-69740117D01*
X65613925Y-69740117D02*
X65533113Y-69713180D01*
X65533113Y-69713180D02*
X65425363Y-69713180D01*
X65425363Y-69713180D02*
X65317613Y-69767054D01*
X65317613Y-69767054D02*
X65263739Y-69820929D01*
X65263739Y-69820929D02*
X65209864Y-69928679D01*
X65209864Y-69928679D02*
X65209864Y-69982554D01*
X65182926Y-71033112D02*
X65506175Y-70709864D01*
X65344551Y-70871488D02*
X64778865Y-70305803D01*
X64778865Y-70305803D02*
X64913552Y-70332740D01*
X64913552Y-70332740D02*
X65021302Y-70332740D01*
X65021302Y-70332740D02*
X65102114Y-70305803D01*
X64320929Y-71140862D02*
X64698053Y-71517986D01*
X64240117Y-70790676D02*
X64778865Y-71060050D01*
X64778865Y-71060050D02*
X64428679Y-71410236D01*
X74959509Y-50017800D02*
X74959509Y-50071674D01*
X74959509Y-50071674D02*
X75013384Y-50179424D01*
X75013384Y-50179424D02*
X75067259Y-50233299D01*
X75067259Y-50233299D02*
X75175009Y-50287174D01*
X75175009Y-50287174D02*
X75282758Y-50287174D01*
X75282758Y-50287174D02*
X75363571Y-50260236D01*
X75363571Y-50260236D02*
X75498258Y-50179424D01*
X75498258Y-50179424D02*
X75579070Y-50098612D01*
X75579070Y-50098612D02*
X75659882Y-49963925D01*
X75659882Y-49963925D02*
X75686819Y-49883113D01*
X75686819Y-49883113D02*
X75686819Y-49775363D01*
X75686819Y-49775363D02*
X75632945Y-49667613D01*
X75632945Y-49667613D02*
X75579070Y-49613739D01*
X75579070Y-49613739D02*
X75471320Y-49559864D01*
X75471320Y-49559864D02*
X75417445Y-49559864D01*
X74366887Y-49532926D02*
X74690135Y-49856175D01*
X74528511Y-49694551D02*
X75094196Y-49128865D01*
X75094196Y-49128865D02*
X75067259Y-49263552D01*
X75067259Y-49263552D02*
X75067259Y-49371302D01*
X75067259Y-49371302D02*
X75094196Y-49452114D01*
X74097512Y-49263552D02*
X73989763Y-49155803D01*
X73989763Y-49155803D02*
X73962825Y-49074990D01*
X73962825Y-49074990D02*
X73962825Y-49021116D01*
X73962825Y-49021116D02*
X73989763Y-48886429D01*
X73989763Y-48886429D02*
X74070575Y-48751742D01*
X74070575Y-48751742D02*
X74286074Y-48536242D01*
X74286074Y-48536242D02*
X74366886Y-48509305D01*
X74366886Y-48509305D02*
X74420761Y-48509305D01*
X74420761Y-48509305D02*
X74501574Y-48536242D01*
X74501574Y-48536242D02*
X74609323Y-48643992D01*
X74609323Y-48643992D02*
X74636261Y-48724804D01*
X74636261Y-48724804D02*
X74636261Y-48778679D01*
X74636261Y-48778679D02*
X74609323Y-48859491D01*
X74609323Y-48859491D02*
X74474636Y-48994178D01*
X74474636Y-48994178D02*
X74393824Y-49021116D01*
X74393824Y-49021116D02*
X74339949Y-49021116D01*
X74339949Y-49021116D02*
X74259137Y-48994178D01*
X74259137Y-48994178D02*
X74151387Y-48886429D01*
X74151387Y-48886429D02*
X74124450Y-48805616D01*
X74124450Y-48805616D02*
X74124450Y-48751742D01*
X74124450Y-48751742D02*
X74151387Y-48670929D01*
X69959509Y-41067799D02*
X69959509Y-41121673D01*
X69959509Y-41121673D02*
X70013384Y-41229423D01*
X70013384Y-41229423D02*
X70067259Y-41283298D01*
X70067259Y-41283298D02*
X70175009Y-41337173D01*
X70175009Y-41337173D02*
X70282758Y-41337173D01*
X70282758Y-41337173D02*
X70363571Y-41310235D01*
X70363571Y-41310235D02*
X70498258Y-41229423D01*
X70498258Y-41229423D02*
X70579070Y-41148611D01*
X70579070Y-41148611D02*
X70659882Y-41013924D01*
X70659882Y-41013924D02*
X70686819Y-40933112D01*
X70686819Y-40933112D02*
X70686819Y-40825362D01*
X70686819Y-40825362D02*
X70632945Y-40717612D01*
X70632945Y-40717612D02*
X70579070Y-40663738D01*
X70579070Y-40663738D02*
X70471320Y-40609863D01*
X70471320Y-40609863D02*
X70417445Y-40609863D01*
X69366887Y-40582925D02*
X69690135Y-40906174D01*
X69528511Y-40744550D02*
X70094196Y-40178864D01*
X70094196Y-40178864D02*
X70067259Y-40313551D01*
X70067259Y-40313551D02*
X70067259Y-40421301D01*
X70067259Y-40421301D02*
X70094196Y-40502113D01*
X69366886Y-39936428D02*
X69447699Y-39963365D01*
X69447699Y-39963365D02*
X69501574Y-39963365D01*
X69501574Y-39963365D02*
X69582386Y-39936428D01*
X69582386Y-39936428D02*
X69609323Y-39909490D01*
X69609323Y-39909490D02*
X69636261Y-39828678D01*
X69636261Y-39828678D02*
X69636261Y-39774803D01*
X69636261Y-39774803D02*
X69609323Y-39693991D01*
X69609323Y-39693991D02*
X69501574Y-39586241D01*
X69501574Y-39586241D02*
X69420761Y-39559304D01*
X69420761Y-39559304D02*
X69366886Y-39559304D01*
X69366886Y-39559304D02*
X69286074Y-39586241D01*
X69286074Y-39586241D02*
X69259137Y-39613179D01*
X69259137Y-39613179D02*
X69232199Y-39693991D01*
X69232199Y-39693991D02*
X69232199Y-39747866D01*
X69232199Y-39747866D02*
X69259137Y-39828678D01*
X69259137Y-39828678D02*
X69366886Y-39936428D01*
X69366886Y-39936428D02*
X69393824Y-40017240D01*
X69393824Y-40017240D02*
X69393824Y-40071115D01*
X69393824Y-40071115D02*
X69366886Y-40151927D01*
X69366886Y-40151927D02*
X69259137Y-40259676D01*
X69259137Y-40259676D02*
X69178325Y-40286614D01*
X69178325Y-40286614D02*
X69124450Y-40286614D01*
X69124450Y-40286614D02*
X69043638Y-40259676D01*
X69043638Y-40259676D02*
X68935888Y-40151927D01*
X68935888Y-40151927D02*
X68908951Y-40071115D01*
X68908951Y-40071115D02*
X68908951Y-40017240D01*
X68908951Y-40017240D02*
X68935888Y-39936428D01*
X68935888Y-39936428D02*
X69043638Y-39828678D01*
X69043638Y-39828678D02*
X69124450Y-39801741D01*
X69124450Y-39801741D02*
X69178325Y-39801741D01*
X69178325Y-39801741D02*
X69259137Y-39828678D01*
X50059509Y-56517800D02*
X50059509Y-56571674D01*
X50059509Y-56571674D02*
X50113384Y-56679424D01*
X50113384Y-56679424D02*
X50167259Y-56733299D01*
X50167259Y-56733299D02*
X50275009Y-56787174D01*
X50275009Y-56787174D02*
X50382758Y-56787174D01*
X50382758Y-56787174D02*
X50463571Y-56760236D01*
X50463571Y-56760236D02*
X50598258Y-56679424D01*
X50598258Y-56679424D02*
X50679070Y-56598612D01*
X50679070Y-56598612D02*
X50759882Y-56463925D01*
X50759882Y-56463925D02*
X50786819Y-56383113D01*
X50786819Y-56383113D02*
X50786819Y-56275363D01*
X50786819Y-56275363D02*
X50732945Y-56167613D01*
X50732945Y-56167613D02*
X50679070Y-56113739D01*
X50679070Y-56113739D02*
X50571320Y-56059864D01*
X50571320Y-56059864D02*
X50517445Y-56059864D01*
X50301946Y-55844365D02*
X50301946Y-55790490D01*
X50301946Y-55790490D02*
X50275009Y-55709678D01*
X50275009Y-55709678D02*
X50140322Y-55574991D01*
X50140322Y-55574991D02*
X50059509Y-55548053D01*
X50059509Y-55548053D02*
X50005635Y-55548053D01*
X50005635Y-55548053D02*
X49924822Y-55574991D01*
X49924822Y-55574991D02*
X49870948Y-55628865D01*
X49870948Y-55628865D02*
X49817073Y-55736615D01*
X49817073Y-55736615D02*
X49817073Y-56383113D01*
X49817073Y-56383113D02*
X49466887Y-56032926D01*
X49763198Y-55305616D02*
X49763198Y-55251742D01*
X49763198Y-55251742D02*
X49736261Y-55170929D01*
X49736261Y-55170929D02*
X49601574Y-55036242D01*
X49601574Y-55036242D02*
X49520761Y-55009305D01*
X49520761Y-55009305D02*
X49466886Y-55009305D01*
X49466886Y-55009305D02*
X49386074Y-55036242D01*
X49386074Y-55036242D02*
X49332199Y-55090117D01*
X49332199Y-55090117D02*
X49278325Y-55197867D01*
X49278325Y-55197867D02*
X49278325Y-55844364D01*
X49278325Y-55844364D02*
X48928138Y-55494178D01*
X63827455Y-38671323D02*
X63881329Y-38671323D01*
X63881329Y-38671323D02*
X63989079Y-38617448D01*
X63989079Y-38617448D02*
X64042954Y-38563573D01*
X64042954Y-38563573D02*
X64096829Y-38455823D01*
X64096829Y-38455823D02*
X64096829Y-38348074D01*
X64096829Y-38348074D02*
X64069891Y-38267261D01*
X64069891Y-38267261D02*
X63989079Y-38132574D01*
X63989079Y-38132574D02*
X63908267Y-38051762D01*
X63908267Y-38051762D02*
X63773580Y-37970950D01*
X63773580Y-37970950D02*
X63692768Y-37944013D01*
X63692768Y-37944013D02*
X63585018Y-37944013D01*
X63585018Y-37944013D02*
X63477268Y-37997887D01*
X63477268Y-37997887D02*
X63423394Y-38051762D01*
X63423394Y-38051762D02*
X63369519Y-38159512D01*
X63369519Y-38159512D02*
X63369519Y-38213387D01*
X63154020Y-38428886D02*
X63100145Y-38428886D01*
X63100145Y-38428886D02*
X63019333Y-38455823D01*
X63019333Y-38455823D02*
X62884646Y-38590510D01*
X62884646Y-38590510D02*
X62857708Y-38671323D01*
X62857708Y-38671323D02*
X62857708Y-38725197D01*
X62857708Y-38725197D02*
X62884646Y-38806010D01*
X62884646Y-38806010D02*
X62938520Y-38859884D01*
X62938520Y-38859884D02*
X63046270Y-38913759D01*
X63046270Y-38913759D02*
X63692768Y-38913759D01*
X63692768Y-38913759D02*
X63342581Y-39263945D01*
X62588334Y-38886822D02*
X62211210Y-39263946D01*
X62211210Y-39263946D02*
X63019332Y-39587194D01*
X52567800Y-50140490D02*
X52621674Y-50140490D01*
X52621674Y-50140490D02*
X52729424Y-50086615D01*
X52729424Y-50086615D02*
X52783299Y-50032740D01*
X52783299Y-50032740D02*
X52837174Y-49924990D01*
X52837174Y-49924990D02*
X52837174Y-49817241D01*
X52837174Y-49817241D02*
X52810236Y-49736428D01*
X52810236Y-49736428D02*
X52729424Y-49601741D01*
X52729424Y-49601741D02*
X52648612Y-49520929D01*
X52648612Y-49520929D02*
X52513925Y-49440117D01*
X52513925Y-49440117D02*
X52433113Y-49413180D01*
X52433113Y-49413180D02*
X52325363Y-49413180D01*
X52325363Y-49413180D02*
X52217613Y-49467054D01*
X52217613Y-49467054D02*
X52163739Y-49520929D01*
X52163739Y-49520929D02*
X52109864Y-49628679D01*
X52109864Y-49628679D02*
X52109864Y-49682554D01*
X51894365Y-49898053D02*
X51840490Y-49898053D01*
X51840490Y-49898053D02*
X51759678Y-49924990D01*
X51759678Y-49924990D02*
X51624991Y-50059677D01*
X51624991Y-50059677D02*
X51598053Y-50140490D01*
X51598053Y-50140490D02*
X51598053Y-50194364D01*
X51598053Y-50194364D02*
X51624991Y-50275177D01*
X51624991Y-50275177D02*
X51678865Y-50329051D01*
X51678865Y-50329051D02*
X51786615Y-50382926D01*
X51786615Y-50382926D02*
X52433113Y-50382926D01*
X52433113Y-50382926D02*
X52082926Y-50733112D01*
X51220929Y-50840862D02*
X51598053Y-51217986D01*
X51140117Y-50490676D02*
X51678865Y-50760050D01*
X51678865Y-50760050D02*
X51328679Y-51110236D01*
X62259509Y-68717800D02*
X62259509Y-68771674D01*
X62259509Y-68771674D02*
X62313384Y-68879424D01*
X62313384Y-68879424D02*
X62367259Y-68933299D01*
X62367259Y-68933299D02*
X62475009Y-68987174D01*
X62475009Y-68987174D02*
X62582758Y-68987174D01*
X62582758Y-68987174D02*
X62663571Y-68960236D01*
X62663571Y-68960236D02*
X62798258Y-68879424D01*
X62798258Y-68879424D02*
X62879070Y-68798612D01*
X62879070Y-68798612D02*
X62959882Y-68663925D01*
X62959882Y-68663925D02*
X62986819Y-68583113D01*
X62986819Y-68583113D02*
X62986819Y-68475363D01*
X62986819Y-68475363D02*
X62932945Y-68367613D01*
X62932945Y-68367613D02*
X62879070Y-68313739D01*
X62879070Y-68313739D02*
X62771320Y-68259864D01*
X62771320Y-68259864D02*
X62717445Y-68259864D01*
X62582758Y-68017427D02*
X62232572Y-67667241D01*
X62232572Y-67667241D02*
X62205635Y-68071302D01*
X62205635Y-68071302D02*
X62124822Y-67990490D01*
X62124822Y-67990490D02*
X62044010Y-67963552D01*
X62044010Y-67963552D02*
X61990135Y-67963552D01*
X61990135Y-67963552D02*
X61909323Y-67990490D01*
X61909323Y-67990490D02*
X61774636Y-68125177D01*
X61774636Y-68125177D02*
X61747699Y-68205989D01*
X61747699Y-68205989D02*
X61747699Y-68259864D01*
X61747699Y-68259864D02*
X61774636Y-68340676D01*
X61774636Y-68340676D02*
X61936261Y-68502300D01*
X61936261Y-68502300D02*
X62017073Y-68529238D01*
X62017073Y-68529238D02*
X62070948Y-68529238D01*
X61963198Y-67505616D02*
X61963198Y-67451742D01*
X61963198Y-67451742D02*
X61936261Y-67370929D01*
X61936261Y-67370929D02*
X61801574Y-67236242D01*
X61801574Y-67236242D02*
X61720761Y-67209305D01*
X61720761Y-67209305D02*
X61666886Y-67209305D01*
X61666886Y-67209305D02*
X61586074Y-67236242D01*
X61586074Y-67236242D02*
X61532199Y-67290117D01*
X61532199Y-67290117D02*
X61478325Y-67397867D01*
X61478325Y-67397867D02*
X61478325Y-68044364D01*
X61478325Y-68044364D02*
X61128138Y-67694178D01*
X52798920Y-59257212D02*
X52798920Y-59311086D01*
X52798920Y-59311086D02*
X52852795Y-59418836D01*
X52852795Y-59418836D02*
X52906670Y-59472711D01*
X52906670Y-59472711D02*
X53014420Y-59526586D01*
X53014420Y-59526586D02*
X53122169Y-59526586D01*
X53122169Y-59526586D02*
X53202982Y-59499648D01*
X53202982Y-59499648D02*
X53337669Y-59418836D01*
X53337669Y-59418836D02*
X53418481Y-59338024D01*
X53418481Y-59338024D02*
X53499293Y-59203337D01*
X53499293Y-59203337D02*
X53526230Y-59122525D01*
X53526230Y-59122525D02*
X53526230Y-59014775D01*
X53526230Y-59014775D02*
X53472356Y-58907025D01*
X53472356Y-58907025D02*
X53418481Y-58853151D01*
X53418481Y-58853151D02*
X53310731Y-58799276D01*
X53310731Y-58799276D02*
X53256856Y-58799276D01*
X53041357Y-58583777D02*
X53041357Y-58529902D01*
X53041357Y-58529902D02*
X53014420Y-58449090D01*
X53014420Y-58449090D02*
X52879733Y-58314403D01*
X52879733Y-58314403D02*
X52798920Y-58287465D01*
X52798920Y-58287465D02*
X52745046Y-58287465D01*
X52745046Y-58287465D02*
X52664233Y-58314403D01*
X52664233Y-58314403D02*
X52610359Y-58368277D01*
X52610359Y-58368277D02*
X52556484Y-58476027D01*
X52556484Y-58476027D02*
X52556484Y-59122525D01*
X52556484Y-59122525D02*
X52206298Y-58772338D01*
X51667549Y-58233590D02*
X51990798Y-58556839D01*
X51829174Y-58395215D02*
X52394859Y-57829529D01*
X52394859Y-57829529D02*
X52367922Y-57964216D01*
X52367922Y-57964216D02*
X52367922Y-58071966D01*
X52367922Y-58071966D02*
X52394859Y-58152778D01*
X50827456Y-51671323D02*
X50881330Y-51671323D01*
X50881330Y-51671323D02*
X50989080Y-51617448D01*
X50989080Y-51617448D02*
X51042955Y-51563573D01*
X51042955Y-51563573D02*
X51096830Y-51455823D01*
X51096830Y-51455823D02*
X51096830Y-51348074D01*
X51096830Y-51348074D02*
X51069892Y-51267261D01*
X51069892Y-51267261D02*
X50989080Y-51132574D01*
X50989080Y-51132574D02*
X50908268Y-51051762D01*
X50908268Y-51051762D02*
X50773581Y-50970950D01*
X50773581Y-50970950D02*
X50692769Y-50944013D01*
X50692769Y-50944013D02*
X50585019Y-50944013D01*
X50585019Y-50944013D02*
X50477269Y-50997887D01*
X50477269Y-50997887D02*
X50423395Y-51051762D01*
X50423395Y-51051762D02*
X50369520Y-51159512D01*
X50369520Y-51159512D02*
X50369520Y-51213387D01*
X50154021Y-51428886D02*
X50100146Y-51428886D01*
X50100146Y-51428886D02*
X50019334Y-51455823D01*
X50019334Y-51455823D02*
X49884647Y-51590510D01*
X49884647Y-51590510D02*
X49857709Y-51671323D01*
X49857709Y-51671323D02*
X49857709Y-51725197D01*
X49857709Y-51725197D02*
X49884647Y-51806010D01*
X49884647Y-51806010D02*
X49938521Y-51859884D01*
X49938521Y-51859884D02*
X50046271Y-51913759D01*
X50046271Y-51913759D02*
X50692769Y-51913759D01*
X50692769Y-51913759D02*
X50342582Y-52263945D01*
X49588335Y-51886822D02*
X49238149Y-52237008D01*
X49238149Y-52237008D02*
X49642210Y-52263946D01*
X49642210Y-52263946D02*
X49561398Y-52344758D01*
X49561398Y-52344758D02*
X49534460Y-52425570D01*
X49534460Y-52425570D02*
X49534460Y-52479445D01*
X49534460Y-52479445D02*
X49561398Y-52560257D01*
X49561398Y-52560257D02*
X49696085Y-52694944D01*
X49696085Y-52694944D02*
X49776897Y-52721881D01*
X49776897Y-52721881D02*
X49830772Y-52721881D01*
X49830772Y-52721881D02*
X49911584Y-52694944D01*
X49911584Y-52694944D02*
X50073208Y-52533320D01*
X50073208Y-52533320D02*
X50100146Y-52452507D01*
X50100146Y-52452507D02*
X50100146Y-52398633D01*
X55548634Y-46950145D02*
X55602508Y-46950145D01*
X55602508Y-46950145D02*
X55710258Y-46896270D01*
X55710258Y-46896270D02*
X55764133Y-46842395D01*
X55764133Y-46842395D02*
X55818008Y-46734645D01*
X55818008Y-46734645D02*
X55818008Y-46626896D01*
X55818008Y-46626896D02*
X55791070Y-46546083D01*
X55791070Y-46546083D02*
X55710258Y-46411396D01*
X55710258Y-46411396D02*
X55629446Y-46330584D01*
X55629446Y-46330584D02*
X55494759Y-46249772D01*
X55494759Y-46249772D02*
X55413947Y-46222835D01*
X55413947Y-46222835D02*
X55306197Y-46222835D01*
X55306197Y-46222835D02*
X55198447Y-46276709D01*
X55198447Y-46276709D02*
X55144573Y-46330584D01*
X55144573Y-46330584D02*
X55090698Y-46438334D01*
X55090698Y-46438334D02*
X55090698Y-46492209D01*
X54875199Y-46707708D02*
X54821324Y-46707708D01*
X54821324Y-46707708D02*
X54740512Y-46734645D01*
X54740512Y-46734645D02*
X54605825Y-46869332D01*
X54605825Y-46869332D02*
X54578887Y-46950145D01*
X54578887Y-46950145D02*
X54578887Y-47004019D01*
X54578887Y-47004019D02*
X54605825Y-47084832D01*
X54605825Y-47084832D02*
X54659699Y-47138706D01*
X54659699Y-47138706D02*
X54767449Y-47192581D01*
X54767449Y-47192581D02*
X55413947Y-47192581D01*
X55413947Y-47192581D02*
X55063760Y-47542767D01*
X53986264Y-47488893D02*
X54255638Y-47219519D01*
X54255638Y-47219519D02*
X54551950Y-47461955D01*
X54551950Y-47461955D02*
X54498075Y-47461955D01*
X54498075Y-47461955D02*
X54417263Y-47488893D01*
X54417263Y-47488893D02*
X54282576Y-47623580D01*
X54282576Y-47623580D02*
X54255638Y-47704392D01*
X54255638Y-47704392D02*
X54255638Y-47758267D01*
X54255638Y-47758267D02*
X54282576Y-47839079D01*
X54282576Y-47839079D02*
X54417263Y-47973766D01*
X54417263Y-47973766D02*
X54498075Y-48000703D01*
X54498075Y-48000703D02*
X54551950Y-48000703D01*
X54551950Y-48000703D02*
X54632762Y-47973766D01*
X54632762Y-47973766D02*
X54767449Y-47839079D01*
X54767449Y-47839079D02*
X54794386Y-47758267D01*
X54794386Y-47758267D02*
X54794386Y-47704392D01*
X57688044Y-44810734D02*
X57741918Y-44810734D01*
X57741918Y-44810734D02*
X57849668Y-44756859D01*
X57849668Y-44756859D02*
X57903543Y-44702984D01*
X57903543Y-44702984D02*
X57957418Y-44595234D01*
X57957418Y-44595234D02*
X57957418Y-44487485D01*
X57957418Y-44487485D02*
X57930480Y-44406672D01*
X57930480Y-44406672D02*
X57849668Y-44271985D01*
X57849668Y-44271985D02*
X57768856Y-44191173D01*
X57768856Y-44191173D02*
X57634169Y-44110361D01*
X57634169Y-44110361D02*
X57553357Y-44083424D01*
X57553357Y-44083424D02*
X57445607Y-44083424D01*
X57445607Y-44083424D02*
X57337857Y-44137298D01*
X57337857Y-44137298D02*
X57283983Y-44191173D01*
X57283983Y-44191173D02*
X57230108Y-44298923D01*
X57230108Y-44298923D02*
X57230108Y-44352798D01*
X57014609Y-44568297D02*
X56960734Y-44568297D01*
X56960734Y-44568297D02*
X56879922Y-44595234D01*
X56879922Y-44595234D02*
X56745235Y-44729921D01*
X56745235Y-44729921D02*
X56718297Y-44810734D01*
X56718297Y-44810734D02*
X56718297Y-44864608D01*
X56718297Y-44864608D02*
X56745235Y-44945421D01*
X56745235Y-44945421D02*
X56799109Y-44999295D01*
X56799109Y-44999295D02*
X56906859Y-45053170D01*
X56906859Y-45053170D02*
X57553357Y-45053170D01*
X57553357Y-45053170D02*
X57203170Y-45403356D01*
X56152612Y-45322544D02*
X56260361Y-45214795D01*
X56260361Y-45214795D02*
X56341173Y-45187857D01*
X56341173Y-45187857D02*
X56395048Y-45187857D01*
X56395048Y-45187857D02*
X56529735Y-45214795D01*
X56529735Y-45214795D02*
X56664422Y-45295607D01*
X56664422Y-45295607D02*
X56879921Y-45511106D01*
X56879921Y-45511106D02*
X56906859Y-45591918D01*
X56906859Y-45591918D02*
X56906859Y-45645793D01*
X56906859Y-45645793D02*
X56879921Y-45726605D01*
X56879921Y-45726605D02*
X56772172Y-45834355D01*
X56772172Y-45834355D02*
X56691360Y-45861292D01*
X56691360Y-45861292D02*
X56637485Y-45861292D01*
X56637485Y-45861292D02*
X56556673Y-45834355D01*
X56556673Y-45834355D02*
X56421986Y-45699668D01*
X56421986Y-45699668D02*
X56395048Y-45618856D01*
X56395048Y-45618856D02*
X56395048Y-45564981D01*
X56395048Y-45564981D02*
X56421986Y-45484169D01*
X56421986Y-45484169D02*
X56529735Y-45376419D01*
X56529735Y-45376419D02*
X56610547Y-45349482D01*
X56610547Y-45349482D02*
X56664422Y-45349482D01*
X56664422Y-45349482D02*
X56745234Y-45376419D01*
X73099854Y-45598632D02*
X73099854Y-45652506D01*
X73099854Y-45652506D02*
X73153729Y-45760256D01*
X73153729Y-45760256D02*
X73207604Y-45814131D01*
X73207604Y-45814131D02*
X73315354Y-45868006D01*
X73315354Y-45868006D02*
X73423103Y-45868006D01*
X73423103Y-45868006D02*
X73503916Y-45841068D01*
X73503916Y-45841068D02*
X73638603Y-45760256D01*
X73638603Y-45760256D02*
X73719415Y-45679444D01*
X73719415Y-45679444D02*
X73800227Y-45544757D01*
X73800227Y-45544757D02*
X73827164Y-45463945D01*
X73827164Y-45463945D02*
X73827164Y-45356195D01*
X73827164Y-45356195D02*
X73773290Y-45248445D01*
X73773290Y-45248445D02*
X73719415Y-45194571D01*
X73719415Y-45194571D02*
X73611665Y-45140696D01*
X73611665Y-45140696D02*
X73557790Y-45140696D01*
X73342291Y-44925197D02*
X73342291Y-44871322D01*
X73342291Y-44871322D02*
X73315354Y-44790510D01*
X73315354Y-44790510D02*
X73180667Y-44655823D01*
X73180667Y-44655823D02*
X73099854Y-44628885D01*
X73099854Y-44628885D02*
X73045980Y-44628885D01*
X73045980Y-44628885D02*
X72965167Y-44655823D01*
X72965167Y-44655823D02*
X72911293Y-44709697D01*
X72911293Y-44709697D02*
X72857418Y-44817447D01*
X72857418Y-44817447D02*
X72857418Y-45463945D01*
X72857418Y-45463945D02*
X72507232Y-45113758D01*
X72237857Y-44844384D02*
X72130108Y-44736635D01*
X72130108Y-44736635D02*
X72103170Y-44655822D01*
X72103170Y-44655822D02*
X72103170Y-44601948D01*
X72103170Y-44601948D02*
X72130108Y-44467261D01*
X72130108Y-44467261D02*
X72210920Y-44332574D01*
X72210920Y-44332574D02*
X72426419Y-44117074D01*
X72426419Y-44117074D02*
X72507231Y-44090137D01*
X72507231Y-44090137D02*
X72561106Y-44090137D01*
X72561106Y-44090137D02*
X72641919Y-44117074D01*
X72641919Y-44117074D02*
X72749668Y-44224824D01*
X72749668Y-44224824D02*
X72776606Y-44305636D01*
X72776606Y-44305636D02*
X72776606Y-44359511D01*
X72776606Y-44359511D02*
X72749668Y-44440323D01*
X72749668Y-44440323D02*
X72614981Y-44575010D01*
X72614981Y-44575010D02*
X72534169Y-44601948D01*
X72534169Y-44601948D02*
X72480294Y-44601948D01*
X72480294Y-44601948D02*
X72399482Y-44575010D01*
X72399482Y-44575010D02*
X72291732Y-44467261D01*
X72291732Y-44467261D02*
X72264795Y-44386448D01*
X72264795Y-44386448D02*
X72264795Y-44332574D01*
X72264795Y-44332574D02*
X72291732Y-44251761D01*
X79299855Y-51798633D02*
X79299855Y-51852507D01*
X79299855Y-51852507D02*
X79353730Y-51960257D01*
X79353730Y-51960257D02*
X79407605Y-52014132D01*
X79407605Y-52014132D02*
X79515355Y-52068007D01*
X79515355Y-52068007D02*
X79623104Y-52068007D01*
X79623104Y-52068007D02*
X79703917Y-52041069D01*
X79703917Y-52041069D02*
X79838604Y-51960257D01*
X79838604Y-51960257D02*
X79919416Y-51879445D01*
X79919416Y-51879445D02*
X80000228Y-51744758D01*
X80000228Y-51744758D02*
X80027165Y-51663946D01*
X80027165Y-51663946D02*
X80027165Y-51556196D01*
X80027165Y-51556196D02*
X79973291Y-51448446D01*
X79973291Y-51448446D02*
X79919416Y-51394572D01*
X79919416Y-51394572D02*
X79811666Y-51340697D01*
X79811666Y-51340697D02*
X79757791Y-51340697D01*
X79623104Y-51098260D02*
X79272918Y-50748074D01*
X79272918Y-50748074D02*
X79245981Y-51152135D01*
X79245981Y-51152135D02*
X79165168Y-51071323D01*
X79165168Y-51071323D02*
X79084356Y-51044385D01*
X79084356Y-51044385D02*
X79030481Y-51044385D01*
X79030481Y-51044385D02*
X78949669Y-51071323D01*
X78949669Y-51071323D02*
X78814982Y-51206010D01*
X78814982Y-51206010D02*
X78788045Y-51286822D01*
X78788045Y-51286822D02*
X78788045Y-51340697D01*
X78788045Y-51340697D02*
X78814982Y-51421509D01*
X78814982Y-51421509D02*
X78976607Y-51583133D01*
X78976607Y-51583133D02*
X79057419Y-51610071D01*
X79057419Y-51610071D02*
X79111294Y-51610071D01*
X78922732Y-50397888D02*
X78868857Y-50344013D01*
X78868857Y-50344013D02*
X78788045Y-50317075D01*
X78788045Y-50317075D02*
X78734170Y-50317075D01*
X78734170Y-50317075D02*
X78653358Y-50344013D01*
X78653358Y-50344013D02*
X78518671Y-50424825D01*
X78518671Y-50424825D02*
X78383984Y-50559512D01*
X78383984Y-50559512D02*
X78303171Y-50694199D01*
X78303171Y-50694199D02*
X78276234Y-50775011D01*
X78276234Y-50775011D02*
X78276234Y-50828886D01*
X78276234Y-50828886D02*
X78303171Y-50909698D01*
X78303171Y-50909698D02*
X78357046Y-50963573D01*
X78357046Y-50963573D02*
X78437858Y-50990510D01*
X78437858Y-50990510D02*
X78491733Y-50990510D01*
X78491733Y-50990510D02*
X78572545Y-50963573D01*
X78572545Y-50963573D02*
X78707232Y-50882761D01*
X78707232Y-50882761D02*
X78841920Y-50748074D01*
X78841920Y-50748074D02*
X78922732Y-50613387D01*
X78922732Y-50613387D02*
X78949669Y-50532575D01*
X78949669Y-50532575D02*
X78949669Y-50478700D01*
X78949669Y-50478700D02*
X78922732Y-50397888D01*
X76439265Y-51538044D02*
X76439265Y-51591918D01*
X76439265Y-51591918D02*
X76493140Y-51699668D01*
X76493140Y-51699668D02*
X76547015Y-51753543D01*
X76547015Y-51753543D02*
X76654765Y-51807418D01*
X76654765Y-51807418D02*
X76762514Y-51807418D01*
X76762514Y-51807418D02*
X76843327Y-51780480D01*
X76843327Y-51780480D02*
X76978014Y-51699668D01*
X76978014Y-51699668D02*
X77058826Y-51618856D01*
X77058826Y-51618856D02*
X77139638Y-51484169D01*
X77139638Y-51484169D02*
X77166575Y-51403357D01*
X77166575Y-51403357D02*
X77166575Y-51295607D01*
X77166575Y-51295607D02*
X77112701Y-51187857D01*
X77112701Y-51187857D02*
X77058826Y-51133983D01*
X77058826Y-51133983D02*
X76951076Y-51080108D01*
X76951076Y-51080108D02*
X76897201Y-51080108D01*
X76762514Y-50837671D02*
X76412328Y-50487485D01*
X76412328Y-50487485D02*
X76385391Y-50891546D01*
X76385391Y-50891546D02*
X76304578Y-50810734D01*
X76304578Y-50810734D02*
X76223766Y-50783796D01*
X76223766Y-50783796D02*
X76169891Y-50783796D01*
X76169891Y-50783796D02*
X76089079Y-50810734D01*
X76089079Y-50810734D02*
X75954392Y-50945421D01*
X75954392Y-50945421D02*
X75927455Y-51026233D01*
X75927455Y-51026233D02*
X75927455Y-51080108D01*
X75927455Y-51080108D02*
X75954392Y-51160920D01*
X75954392Y-51160920D02*
X76116017Y-51322544D01*
X76116017Y-51322544D02*
X76196829Y-51349482D01*
X76196829Y-51349482D02*
X76250704Y-51349482D01*
X75307894Y-50514422D02*
X75631143Y-50837671D01*
X75469519Y-50676047D02*
X76035204Y-50110361D01*
X76035204Y-50110361D02*
X76008267Y-50245048D01*
X76008267Y-50245048D02*
X76008267Y-50352798D01*
X76008267Y-50352798D02*
X76035204Y-50433610D01*
X67240342Y-36608145D02*
X67240342Y-36662019D01*
X67240342Y-36662019D02*
X67294217Y-36769769D01*
X67294217Y-36769769D02*
X67348092Y-36823644D01*
X67348092Y-36823644D02*
X67455842Y-36877519D01*
X67455842Y-36877519D02*
X67563591Y-36877519D01*
X67563591Y-36877519D02*
X67644404Y-36850581D01*
X67644404Y-36850581D02*
X67779091Y-36769769D01*
X67779091Y-36769769D02*
X67859903Y-36688957D01*
X67859903Y-36688957D02*
X67940715Y-36554270D01*
X67940715Y-36554270D02*
X67967652Y-36473458D01*
X67967652Y-36473458D02*
X67967652Y-36365708D01*
X67967652Y-36365708D02*
X67913778Y-36257958D01*
X67913778Y-36257958D02*
X67859903Y-36204084D01*
X67859903Y-36204084D02*
X67752153Y-36150209D01*
X67752153Y-36150209D02*
X67698278Y-36150209D01*
X67482779Y-35934710D02*
X67482779Y-35880835D01*
X67482779Y-35880835D02*
X67455842Y-35800023D01*
X67455842Y-35800023D02*
X67321155Y-35665336D01*
X67321155Y-35665336D02*
X67240342Y-35638398D01*
X67240342Y-35638398D02*
X67186468Y-35638398D01*
X67186468Y-35638398D02*
X67105655Y-35665336D01*
X67105655Y-35665336D02*
X67051781Y-35719210D01*
X67051781Y-35719210D02*
X66997906Y-35826960D01*
X66997906Y-35826960D02*
X66997906Y-36473458D01*
X66997906Y-36473458D02*
X66647720Y-36123271D01*
X66647719Y-35476774D02*
X66728532Y-35503711D01*
X66728532Y-35503711D02*
X66782407Y-35503711D01*
X66782407Y-35503711D02*
X66863219Y-35476774D01*
X66863219Y-35476774D02*
X66890156Y-35449836D01*
X66890156Y-35449836D02*
X66917094Y-35369024D01*
X66917094Y-35369024D02*
X66917094Y-35315149D01*
X66917094Y-35315149D02*
X66890156Y-35234337D01*
X66890156Y-35234337D02*
X66782407Y-35126587D01*
X66782407Y-35126587D02*
X66701594Y-35099650D01*
X66701594Y-35099650D02*
X66647719Y-35099650D01*
X66647719Y-35099650D02*
X66566907Y-35126587D01*
X66566907Y-35126587D02*
X66539970Y-35153525D01*
X66539970Y-35153525D02*
X66513032Y-35234337D01*
X66513032Y-35234337D02*
X66513032Y-35288212D01*
X66513032Y-35288212D02*
X66539970Y-35369024D01*
X66539970Y-35369024D02*
X66647719Y-35476774D01*
X66647719Y-35476774D02*
X66674657Y-35557586D01*
X66674657Y-35557586D02*
X66674657Y-35611461D01*
X66674657Y-35611461D02*
X66647719Y-35692273D01*
X66647719Y-35692273D02*
X66539970Y-35800022D01*
X66539970Y-35800022D02*
X66459158Y-35826960D01*
X66459158Y-35826960D02*
X66405283Y-35826960D01*
X66405283Y-35826960D02*
X66324471Y-35800022D01*
X66324471Y-35800022D02*
X66216721Y-35692273D01*
X66216721Y-35692273D02*
X66189784Y-35611461D01*
X66189784Y-35611461D02*
X66189784Y-35557586D01*
X66189784Y-35557586D02*
X66216721Y-35476774D01*
X66216721Y-35476774D02*
X66324471Y-35369024D01*
X66324471Y-35369024D02*
X66405283Y-35342087D01*
X66405283Y-35342087D02*
X66459158Y-35342087D01*
X66459158Y-35342087D02*
X66539970Y-35369024D01*
X67267799Y-68840490D02*
X67321673Y-68840490D01*
X67321673Y-68840490D02*
X67429423Y-68786615D01*
X67429423Y-68786615D02*
X67483298Y-68732740D01*
X67483298Y-68732740D02*
X67537173Y-68624990D01*
X67537173Y-68624990D02*
X67537173Y-68517241D01*
X67537173Y-68517241D02*
X67510235Y-68436428D01*
X67510235Y-68436428D02*
X67429423Y-68301741D01*
X67429423Y-68301741D02*
X67348611Y-68220929D01*
X67348611Y-68220929D02*
X67213924Y-68140117D01*
X67213924Y-68140117D02*
X67133112Y-68113180D01*
X67133112Y-68113180D02*
X67025362Y-68113180D01*
X67025362Y-68113180D02*
X66917612Y-68167054D01*
X66917612Y-68167054D02*
X66863738Y-68220929D01*
X66863738Y-68220929D02*
X66809863Y-68328679D01*
X66809863Y-68328679D02*
X66809863Y-68382554D01*
X66567426Y-68517241D02*
X66217240Y-68867427D01*
X66217240Y-68867427D02*
X66621301Y-68894364D01*
X66621301Y-68894364D02*
X66540489Y-68975177D01*
X66540489Y-68975177D02*
X66513551Y-69055989D01*
X66513551Y-69055989D02*
X66513551Y-69109864D01*
X66513551Y-69109864D02*
X66540489Y-69190676D01*
X66540489Y-69190676D02*
X66675176Y-69325363D01*
X66675176Y-69325363D02*
X66755988Y-69352300D01*
X66755988Y-69352300D02*
X66809863Y-69352300D01*
X66809863Y-69352300D02*
X66890675Y-69325363D01*
X66890675Y-69325363D02*
X67052299Y-69163738D01*
X67052299Y-69163738D02*
X67079237Y-69082926D01*
X67079237Y-69082926D02*
X67079237Y-69029051D01*
X65732367Y-69352300D02*
X65840116Y-69244551D01*
X65840116Y-69244551D02*
X65920928Y-69217613D01*
X65920928Y-69217613D02*
X65974803Y-69217613D01*
X65974803Y-69217613D02*
X66109490Y-69244551D01*
X66109490Y-69244551D02*
X66244177Y-69325363D01*
X66244177Y-69325363D02*
X66459676Y-69540862D01*
X66459676Y-69540862D02*
X66486614Y-69621674D01*
X66486614Y-69621674D02*
X66486614Y-69675549D01*
X66486614Y-69675549D02*
X66459676Y-69756361D01*
X66459676Y-69756361D02*
X66351927Y-69864111D01*
X66351927Y-69864111D02*
X66271115Y-69891048D01*
X66271115Y-69891048D02*
X66217240Y-69891048D01*
X66217240Y-69891048D02*
X66136428Y-69864111D01*
X66136428Y-69864111D02*
X66001741Y-69729424D01*
X66001741Y-69729424D02*
X65974803Y-69648612D01*
X65974803Y-69648612D02*
X65974803Y-69594737D01*
X65974803Y-69594737D02*
X66001741Y-69513925D01*
X66001741Y-69513925D02*
X66109490Y-69406175D01*
X66109490Y-69406175D02*
X66190302Y-69379238D01*
X66190302Y-69379238D02*
X66244177Y-69379238D01*
X66244177Y-69379238D02*
X66324989Y-69406175D01*
X72986967Y-63430835D02*
X73040841Y-63430835D01*
X73040841Y-63430835D02*
X73148591Y-63376960D01*
X73148591Y-63376960D02*
X73202466Y-63323085D01*
X73202466Y-63323085D02*
X73256341Y-63215335D01*
X73256341Y-63215335D02*
X73256341Y-63107586D01*
X73256341Y-63107586D02*
X73229403Y-63026773D01*
X73229403Y-63026773D02*
X73148591Y-62892086D01*
X73148591Y-62892086D02*
X73067779Y-62811274D01*
X73067779Y-62811274D02*
X72933092Y-62730462D01*
X72933092Y-62730462D02*
X72852280Y-62703525D01*
X72852280Y-62703525D02*
X72744530Y-62703525D01*
X72744530Y-62703525D02*
X72636780Y-62757399D01*
X72636780Y-62757399D02*
X72582906Y-62811274D01*
X72582906Y-62811274D02*
X72529031Y-62919024D01*
X72529031Y-62919024D02*
X72529031Y-62972899D01*
X72286594Y-63107586D02*
X71936408Y-63457772D01*
X71936408Y-63457772D02*
X72340469Y-63484709D01*
X72340469Y-63484709D02*
X72259657Y-63565522D01*
X72259657Y-63565522D02*
X72232719Y-63646334D01*
X72232719Y-63646334D02*
X72232719Y-63700209D01*
X72232719Y-63700209D02*
X72259657Y-63781021D01*
X72259657Y-63781021D02*
X72394344Y-63915708D01*
X72394344Y-63915708D02*
X72475156Y-63942645D01*
X72475156Y-63942645D02*
X72529031Y-63942645D01*
X72529031Y-63942645D02*
X72609843Y-63915708D01*
X72609843Y-63915708D02*
X72771467Y-63754083D01*
X72771467Y-63754083D02*
X72798405Y-63673271D01*
X72798405Y-63673271D02*
X72798405Y-63619396D01*
X71747846Y-63646334D02*
X71397660Y-63996520D01*
X71397660Y-63996520D02*
X71801721Y-64023458D01*
X71801721Y-64023458D02*
X71720909Y-64104270D01*
X71720909Y-64104270D02*
X71693971Y-64185082D01*
X71693971Y-64185082D02*
X71693971Y-64238957D01*
X71693971Y-64238957D02*
X71720909Y-64319769D01*
X71720909Y-64319769D02*
X71855596Y-64454456D01*
X71855596Y-64454456D02*
X71936408Y-64481393D01*
X71936408Y-64481393D02*
X71990283Y-64481393D01*
X71990283Y-64481393D02*
X72071095Y-64454456D01*
X72071095Y-64454456D02*
X72232719Y-64292832D01*
X72232719Y-64292832D02*
X72259657Y-64212019D01*
X72259657Y-64212019D02*
X72259657Y-64158145D01*
X84467800Y-55540490D02*
X84521674Y-55540490D01*
X84521674Y-55540490D02*
X84629424Y-55486615D01*
X84629424Y-55486615D02*
X84683299Y-55432740D01*
X84683299Y-55432740D02*
X84737174Y-55324990D01*
X84737174Y-55324990D02*
X84737174Y-55217241D01*
X84737174Y-55217241D02*
X84710236Y-55136428D01*
X84710236Y-55136428D02*
X84629424Y-55001741D01*
X84629424Y-55001741D02*
X84548612Y-54920929D01*
X84548612Y-54920929D02*
X84413925Y-54840117D01*
X84413925Y-54840117D02*
X84333113Y-54813180D01*
X84333113Y-54813180D02*
X84225363Y-54813180D01*
X84225363Y-54813180D02*
X84117613Y-54867054D01*
X84117613Y-54867054D02*
X84063739Y-54920929D01*
X84063739Y-54920929D02*
X84009864Y-55028679D01*
X84009864Y-55028679D02*
X84009864Y-55082554D01*
X83767427Y-55217241D02*
X83417241Y-55567427D01*
X83417241Y-55567427D02*
X83821302Y-55594364D01*
X83821302Y-55594364D02*
X83740490Y-55675177D01*
X83740490Y-55675177D02*
X83713552Y-55755989D01*
X83713552Y-55755989D02*
X83713552Y-55809864D01*
X83713552Y-55809864D02*
X83740490Y-55890676D01*
X83740490Y-55890676D02*
X83875177Y-56025363D01*
X83875177Y-56025363D02*
X83955989Y-56052300D01*
X83955989Y-56052300D02*
X84009864Y-56052300D01*
X84009864Y-56052300D02*
X84090676Y-56025363D01*
X84090676Y-56025363D02*
X84252300Y-55863738D01*
X84252300Y-55863738D02*
X84279238Y-55782926D01*
X84279238Y-55782926D02*
X84279238Y-55729051D01*
X83120929Y-56240862D02*
X83498053Y-56617986D01*
X83040117Y-55890676D02*
X83578865Y-56160050D01*
X83578865Y-56160050D02*
X83228679Y-56510236D01*
X69467800Y-71940490D02*
X69521674Y-71940490D01*
X69521674Y-71940490D02*
X69629424Y-71886615D01*
X69629424Y-71886615D02*
X69683299Y-71832740D01*
X69683299Y-71832740D02*
X69737174Y-71724990D01*
X69737174Y-71724990D02*
X69737174Y-71617241D01*
X69737174Y-71617241D02*
X69710236Y-71536428D01*
X69710236Y-71536428D02*
X69629424Y-71401741D01*
X69629424Y-71401741D02*
X69548612Y-71320929D01*
X69548612Y-71320929D02*
X69413925Y-71240117D01*
X69413925Y-71240117D02*
X69333113Y-71213180D01*
X69333113Y-71213180D02*
X69225363Y-71213180D01*
X69225363Y-71213180D02*
X69117613Y-71267054D01*
X69117613Y-71267054D02*
X69063739Y-71320929D01*
X69063739Y-71320929D02*
X69009864Y-71428679D01*
X69009864Y-71428679D02*
X69009864Y-71482554D01*
X68767427Y-71617241D02*
X68417241Y-71967427D01*
X68417241Y-71967427D02*
X68821302Y-71994364D01*
X68821302Y-71994364D02*
X68740490Y-72075177D01*
X68740490Y-72075177D02*
X68713552Y-72155989D01*
X68713552Y-72155989D02*
X68713552Y-72209864D01*
X68713552Y-72209864D02*
X68740490Y-72290676D01*
X68740490Y-72290676D02*
X68875177Y-72425363D01*
X68875177Y-72425363D02*
X68955989Y-72452300D01*
X68955989Y-72452300D02*
X69009864Y-72452300D01*
X69009864Y-72452300D02*
X69090676Y-72425363D01*
X69090676Y-72425363D02*
X69252300Y-72263738D01*
X69252300Y-72263738D02*
X69279238Y-72182926D01*
X69279238Y-72182926D02*
X69279238Y-72129051D01*
X67905430Y-72479238D02*
X68174804Y-72209864D01*
X68174804Y-72209864D02*
X68471116Y-72452300D01*
X68471116Y-72452300D02*
X68417241Y-72452300D01*
X68417241Y-72452300D02*
X68336429Y-72479238D01*
X68336429Y-72479238D02*
X68201742Y-72613925D01*
X68201742Y-72613925D02*
X68174804Y-72694737D01*
X68174804Y-72694737D02*
X68174804Y-72748612D01*
X68174804Y-72748612D02*
X68201742Y-72829424D01*
X68201742Y-72829424D02*
X68336429Y-72964111D01*
X68336429Y-72964111D02*
X68417241Y-72991048D01*
X68417241Y-72991048D02*
X68471116Y-72991048D01*
X68471116Y-72991048D02*
X68551928Y-72964111D01*
X68551928Y-72964111D02*
X68686615Y-72829424D01*
X68686615Y-72829424D02*
X68713552Y-72748612D01*
X68713552Y-72748612D02*
X68713552Y-72694737D01*
X70530092Y-44022738D02*
X70530092Y-44076612D01*
X70530092Y-44076612D02*
X70583967Y-44184362D01*
X70583967Y-44184362D02*
X70637842Y-44238237D01*
X70637842Y-44238237D02*
X70745592Y-44292112D01*
X70745592Y-44292112D02*
X70853341Y-44292112D01*
X70853341Y-44292112D02*
X70934154Y-44265174D01*
X70934154Y-44265174D02*
X71068841Y-44184362D01*
X71068841Y-44184362D02*
X71149653Y-44103550D01*
X71149653Y-44103550D02*
X71230465Y-43968863D01*
X71230465Y-43968863D02*
X71257402Y-43888051D01*
X71257402Y-43888051D02*
X71257402Y-43780301D01*
X71257402Y-43780301D02*
X71203528Y-43672551D01*
X71203528Y-43672551D02*
X71149653Y-43618677D01*
X71149653Y-43618677D02*
X71041903Y-43564802D01*
X71041903Y-43564802D02*
X70988028Y-43564802D01*
X70530092Y-42999116D02*
X70799467Y-43268490D01*
X70799467Y-43268490D02*
X70557030Y-43564802D01*
X70557030Y-43564802D02*
X70557030Y-43510927D01*
X70557030Y-43510927D02*
X70530092Y-43430115D01*
X70530092Y-43430115D02*
X70395405Y-43295428D01*
X70395405Y-43295428D02*
X70314593Y-43268490D01*
X70314593Y-43268490D02*
X70260718Y-43268490D01*
X70260718Y-43268490D02*
X70179906Y-43295428D01*
X70179906Y-43295428D02*
X70045219Y-43430115D01*
X70045219Y-43430115D02*
X70018282Y-43510927D01*
X70018282Y-43510927D02*
X70018282Y-43564802D01*
X70018282Y-43564802D02*
X70045219Y-43645614D01*
X70045219Y-43645614D02*
X70179906Y-43780301D01*
X70179906Y-43780301D02*
X70260718Y-43807238D01*
X70260718Y-43807238D02*
X70314593Y-43807238D01*
X69398721Y-42999116D02*
X69721970Y-43322365D01*
X69560346Y-43160741D02*
X70126031Y-42595055D01*
X70126031Y-42595055D02*
X70099094Y-42729742D01*
X70099094Y-42729742D02*
X70099094Y-42837492D01*
X70099094Y-42837492D02*
X70126031Y-42918304D01*
X78536262Y-48502300D02*
X78805636Y-48771674D01*
X78805636Y-48771674D02*
X79371321Y-48205989D01*
X78967260Y-47801928D02*
X78617074Y-47451742D01*
X78617074Y-47451742D02*
X78590136Y-47855803D01*
X78590136Y-47855803D02*
X78509324Y-47774991D01*
X78509324Y-47774991D02*
X78428512Y-47748053D01*
X78428512Y-47748053D02*
X78374637Y-47748053D01*
X78374637Y-47748053D02*
X78293825Y-47774991D01*
X78293825Y-47774991D02*
X78159138Y-47909678D01*
X78159138Y-47909678D02*
X78132201Y-47990490D01*
X78132201Y-47990490D02*
X78132201Y-48044365D01*
X78132201Y-48044365D02*
X78159138Y-48125177D01*
X78159138Y-48125177D02*
X78320762Y-48286801D01*
X78320762Y-48286801D02*
X78401575Y-48313739D01*
X78401575Y-48313739D02*
X78455449Y-48313739D01*
X64474886Y-41052874D02*
X64744260Y-41322248D01*
X64744260Y-41322248D02*
X65309945Y-40756563D01*
X63990012Y-40568001D02*
X64313261Y-40891250D01*
X64151637Y-40729626D02*
X64717322Y-40163940D01*
X64717322Y-40163940D02*
X64690385Y-40298627D01*
X64690385Y-40298627D02*
X64690385Y-40406377D01*
X64690385Y-40406377D02*
X64717322Y-40487189D01*
X74236026Y-47899233D02*
X74505400Y-48168607D01*
X74505400Y-48168607D02*
X75071085Y-47602922D01*
X74586212Y-47225798D02*
X74586212Y-47171924D01*
X74586212Y-47171924D02*
X74559274Y-47091111D01*
X74559274Y-47091111D02*
X74424587Y-46956424D01*
X74424587Y-46956424D02*
X74343775Y-46929487D01*
X74343775Y-46929487D02*
X74289900Y-46929487D01*
X74289900Y-46929487D02*
X74209088Y-46956424D01*
X74209088Y-46956424D02*
X74155213Y-47010299D01*
X74155213Y-47010299D02*
X74101339Y-47118049D01*
X74101339Y-47118049D02*
X74101339Y-47764546D01*
X74101339Y-47764546D02*
X73751152Y-47414360D01*
X69836259Y-37552300D02*
X70294195Y-37471488D01*
X70159508Y-37875549D02*
X70725193Y-37309863D01*
X70725193Y-37309863D02*
X70509694Y-37094364D01*
X70509694Y-37094364D02*
X70428882Y-37067427D01*
X70428882Y-37067427D02*
X70375007Y-37067427D01*
X70375007Y-37067427D02*
X70294195Y-37094364D01*
X70294195Y-37094364D02*
X70213383Y-37175176D01*
X70213383Y-37175176D02*
X70186445Y-37255989D01*
X70186445Y-37255989D02*
X70186445Y-37309863D01*
X70186445Y-37309863D02*
X70213383Y-37390676D01*
X70213383Y-37390676D02*
X70428882Y-37606175D01*
X69728510Y-36690303D02*
X69351386Y-37067427D01*
X70078696Y-36609491D02*
X69809322Y-37148239D01*
X69809322Y-37148239D02*
X69459136Y-36798053D01*
X83441923Y-58253048D02*
X83361111Y-57795112D01*
X83765172Y-57929799D02*
X83199486Y-57364114D01*
X83199486Y-57364114D02*
X82983987Y-57579613D01*
X82983987Y-57579613D02*
X82957050Y-57660425D01*
X82957050Y-57660425D02*
X82957050Y-57714300D01*
X82957050Y-57714300D02*
X82983987Y-57795112D01*
X82983987Y-57795112D02*
X83064799Y-57875924D01*
X83064799Y-57875924D02*
X83145612Y-57902862D01*
X83145612Y-57902862D02*
X83199486Y-57902862D01*
X83199486Y-57902862D02*
X83280299Y-57875924D01*
X83280299Y-57875924D02*
X83495798Y-57660425D01*
X82364427Y-58199173D02*
X82633801Y-57929799D01*
X82633801Y-57929799D02*
X82930112Y-58172236D01*
X82930112Y-58172236D02*
X82876238Y-58172236D01*
X82876238Y-58172236D02*
X82795425Y-58199173D01*
X82795425Y-58199173D02*
X82660738Y-58333860D01*
X82660738Y-58333860D02*
X82633801Y-58414672D01*
X82633801Y-58414672D02*
X82633801Y-58468547D01*
X82633801Y-58468547D02*
X82660738Y-58549359D01*
X82660738Y-58549359D02*
X82795425Y-58684046D01*
X82795425Y-58684046D02*
X82876238Y-58710984D01*
X82876238Y-58710984D02*
X82930112Y-58710984D01*
X82930112Y-58710984D02*
X83010925Y-58684046D01*
X83010925Y-58684046D02*
X83145612Y-58549359D01*
X83145612Y-58549359D02*
X83172549Y-58468547D01*
X83172549Y-58468547D02*
X83172549Y-58414672D01*
X79052300Y-60113738D02*
X78971488Y-59655802D01*
X79375549Y-59790489D02*
X78809863Y-59224804D01*
X78809863Y-59224804D02*
X78594364Y-59440303D01*
X78594364Y-59440303D02*
X78567427Y-59521115D01*
X78567427Y-59521115D02*
X78567427Y-59574990D01*
X78567427Y-59574990D02*
X78594364Y-59655802D01*
X78594364Y-59655802D02*
X78675176Y-59736614D01*
X78675176Y-59736614D02*
X78755989Y-59763552D01*
X78755989Y-59763552D02*
X78809863Y-59763552D01*
X78809863Y-59763552D02*
X78890676Y-59736614D01*
X78890676Y-59736614D02*
X79106175Y-59521115D01*
X78001741Y-60032926D02*
X78109491Y-59925176D01*
X78109491Y-59925176D02*
X78190303Y-59898239D01*
X78190303Y-59898239D02*
X78244178Y-59898239D01*
X78244178Y-59898239D02*
X78378865Y-59925176D01*
X78378865Y-59925176D02*
X78513552Y-60005988D01*
X78513552Y-60005988D02*
X78729051Y-60221487D01*
X78729051Y-60221487D02*
X78755989Y-60302300D01*
X78755989Y-60302300D02*
X78755989Y-60356174D01*
X78755989Y-60356174D02*
X78729051Y-60436987D01*
X78729051Y-60436987D02*
X78621302Y-60544736D01*
X78621302Y-60544736D02*
X78540489Y-60571674D01*
X78540489Y-60571674D02*
X78486615Y-60571674D01*
X78486615Y-60571674D02*
X78405802Y-60544736D01*
X78405802Y-60544736D02*
X78271115Y-60410049D01*
X78271115Y-60410049D02*
X78244178Y-60329237D01*
X78244178Y-60329237D02*
X78244178Y-60275362D01*
X78244178Y-60275362D02*
X78271115Y-60194550D01*
X78271115Y-60194550D02*
X78378865Y-60086800D01*
X78378865Y-60086800D02*
X78459677Y-60059863D01*
X78459677Y-60059863D02*
X78513552Y-60059863D01*
X78513552Y-60059863D02*
X78594364Y-60086800D01*
X72116563Y-47157445D02*
X72574499Y-47076633D01*
X72439812Y-47480694D02*
X73005497Y-46915009D01*
X73005497Y-46915009D02*
X72789998Y-46699510D01*
X72789998Y-46699510D02*
X72709186Y-46672572D01*
X72709186Y-46672572D02*
X72655311Y-46672572D01*
X72655311Y-46672572D02*
X72574499Y-46699510D01*
X72574499Y-46699510D02*
X72493686Y-46780322D01*
X72493686Y-46780322D02*
X72466749Y-46861134D01*
X72466749Y-46861134D02*
X72466749Y-46915009D01*
X72466749Y-46915009D02*
X72493686Y-46995821D01*
X72493686Y-46995821D02*
X72709186Y-47211320D01*
X72412874Y-46430136D02*
X72412874Y-46376261D01*
X72412874Y-46376261D02*
X72385937Y-46295449D01*
X72385937Y-46295449D02*
X72251250Y-46160762D01*
X72251250Y-46160762D02*
X72170437Y-46133824D01*
X72170437Y-46133824D02*
X72116563Y-46133824D01*
X72116563Y-46133824D02*
X72035750Y-46160762D01*
X72035750Y-46160762D02*
X71981876Y-46214636D01*
X71981876Y-46214636D02*
X71928001Y-46322386D01*
X71928001Y-46322386D02*
X71928001Y-46968884D01*
X71928001Y-46968884D02*
X71577815Y-46618697D01*
X71954938Y-45864450D02*
X71604752Y-45514264D01*
X71604752Y-45514264D02*
X71577814Y-45918325D01*
X71577814Y-45918325D02*
X71497002Y-45837513D01*
X71497002Y-45837513D02*
X71416190Y-45810575D01*
X71416190Y-45810575D02*
X71362315Y-45810575D01*
X71362315Y-45810575D02*
X71281503Y-45837513D01*
X71281503Y-45837513D02*
X71146816Y-45972200D01*
X71146816Y-45972200D02*
X71119879Y-46053012D01*
X71119879Y-46053012D02*
X71119879Y-46106887D01*
X71119879Y-46106887D02*
X71146816Y-46187699D01*
X71146816Y-46187699D02*
X71308440Y-46349323D01*
X71308440Y-46349323D02*
X71389253Y-46376261D01*
X71389253Y-46376261D02*
X71443127Y-46376261D01*
X75747556Y-60670246D02*
X75801430Y-60670246D01*
X75801430Y-60670246D02*
X75909180Y-60616371D01*
X75909180Y-60616371D02*
X75963055Y-60562496D01*
X75963055Y-60562496D02*
X76016930Y-60454746D01*
X76016930Y-60454746D02*
X76016930Y-60346997D01*
X76016930Y-60346997D02*
X75989992Y-60266184D01*
X75989992Y-60266184D02*
X75909180Y-60131497D01*
X75909180Y-60131497D02*
X75828368Y-60050685D01*
X75828368Y-60050685D02*
X75693681Y-59969873D01*
X75693681Y-59969873D02*
X75612869Y-59942936D01*
X75612869Y-59942936D02*
X75505119Y-59942936D01*
X75505119Y-59942936D02*
X75397369Y-59996810D01*
X75397369Y-59996810D02*
X75343495Y-60050685D01*
X75343495Y-60050685D02*
X75289620Y-60158435D01*
X75289620Y-60158435D02*
X75289620Y-60212310D01*
X75047183Y-60346997D02*
X74696997Y-60697183D01*
X74696997Y-60697183D02*
X75101058Y-60724120D01*
X75101058Y-60724120D02*
X75020246Y-60804933D01*
X75020246Y-60804933D02*
X74993308Y-60885745D01*
X74993308Y-60885745D02*
X74993308Y-60939620D01*
X74993308Y-60939620D02*
X75020246Y-61020432D01*
X75020246Y-61020432D02*
X75154933Y-61155119D01*
X75154933Y-61155119D02*
X75235745Y-61182056D01*
X75235745Y-61182056D02*
X75289620Y-61182056D01*
X75289620Y-61182056D02*
X75370432Y-61155119D01*
X75370432Y-61155119D02*
X75532056Y-60993494D01*
X75532056Y-60993494D02*
X75558994Y-60912682D01*
X75558994Y-60912682D02*
X75558994Y-60858807D01*
X74993308Y-61532243D02*
X74885559Y-61639992D01*
X74885559Y-61639992D02*
X74804746Y-61666930D01*
X74804746Y-61666930D02*
X74750872Y-61666930D01*
X74750872Y-61666930D02*
X74616185Y-61639992D01*
X74616185Y-61639992D02*
X74481498Y-61559180D01*
X74481498Y-61559180D02*
X74265998Y-61343681D01*
X74265998Y-61343681D02*
X74239061Y-61262869D01*
X74239061Y-61262869D02*
X74239061Y-61208994D01*
X74239061Y-61208994D02*
X74265998Y-61128181D01*
X74265998Y-61128181D02*
X74373748Y-61020432D01*
X74373748Y-61020432D02*
X74454560Y-60993494D01*
X74454560Y-60993494D02*
X74508435Y-60993494D01*
X74508435Y-60993494D02*
X74589247Y-61020432D01*
X74589247Y-61020432D02*
X74723934Y-61155119D01*
X74723934Y-61155119D02*
X74750872Y-61235931D01*
X74750872Y-61235931D02*
X74750872Y-61289806D01*
X74750872Y-61289806D02*
X74723934Y-61370618D01*
X74723934Y-61370618D02*
X74616185Y-61478368D01*
X74616185Y-61478368D02*
X74535372Y-61505305D01*
X74535372Y-61505305D02*
X74481498Y-61505305D01*
X74481498Y-61505305D02*
X74400685Y-61478368D01*
X74883087Y-37788840D02*
X75341023Y-38246776D01*
X75341023Y-38246776D02*
X75367960Y-38327588D01*
X75367960Y-38327588D02*
X75367960Y-38381463D01*
X75367960Y-38381463D02*
X75341023Y-38462275D01*
X75341023Y-38462275D02*
X75233273Y-38570024D01*
X75233273Y-38570024D02*
X75152461Y-38596962D01*
X75152461Y-38596962D02*
X75098586Y-38596962D01*
X75098586Y-38596962D02*
X75017774Y-38570024D01*
X75017774Y-38570024D02*
X74559838Y-38112089D01*
X74559838Y-39243459D02*
X74883087Y-38920210D01*
X74721463Y-39081835D02*
X74155777Y-38516149D01*
X74155777Y-38516149D02*
X74290464Y-38543087D01*
X74290464Y-38543087D02*
X74398214Y-38543087D01*
X74398214Y-38543087D02*
X74479026Y-38516149D01*
X73805591Y-38866336D02*
X73428467Y-39243459D01*
X73428467Y-39243459D02*
X74236590Y-39566708D01*
X59709523Y-101464895D02*
X59709523Y-102112514D01*
X59709523Y-102112514D02*
X59671428Y-102188704D01*
X59671428Y-102188704D02*
X59633333Y-102226800D01*
X59633333Y-102226800D02*
X59557142Y-102264895D01*
X59557142Y-102264895D02*
X59404761Y-102264895D01*
X59404761Y-102264895D02*
X59328571Y-102226800D01*
X59328571Y-102226800D02*
X59290476Y-102188704D01*
X59290476Y-102188704D02*
X59252380Y-102112514D01*
X59252380Y-102112514D02*
X59252380Y-101464895D01*
X58490476Y-101464895D02*
X58871428Y-101464895D01*
X58871428Y-101464895D02*
X58909524Y-101845847D01*
X58909524Y-101845847D02*
X58871428Y-101807752D01*
X58871428Y-101807752D02*
X58795238Y-101769657D01*
X58795238Y-101769657D02*
X58604762Y-101769657D01*
X58604762Y-101769657D02*
X58528571Y-101807752D01*
X58528571Y-101807752D02*
X58490476Y-101845847D01*
X58490476Y-101845847D02*
X58452381Y-101922038D01*
X58452381Y-101922038D02*
X58452381Y-102112514D01*
X58452381Y-102112514D02*
X58490476Y-102188704D01*
X58490476Y-102188704D02*
X58528571Y-102226800D01*
X58528571Y-102226800D02*
X58604762Y-102264895D01*
X58604762Y-102264895D02*
X58795238Y-102264895D01*
X58795238Y-102264895D02*
X58871428Y-102226800D01*
X58871428Y-102226800D02*
X58909524Y-102188704D01*
X53014285Y-105564895D02*
X53280952Y-105183942D01*
X53471428Y-105564895D02*
X53471428Y-104764895D01*
X53471428Y-104764895D02*
X53166666Y-104764895D01*
X53166666Y-104764895D02*
X53090476Y-104802990D01*
X53090476Y-104802990D02*
X53052381Y-104841085D01*
X53052381Y-104841085D02*
X53014285Y-104917276D01*
X53014285Y-104917276D02*
X53014285Y-105031561D01*
X53014285Y-105031561D02*
X53052381Y-105107752D01*
X53052381Y-105107752D02*
X53090476Y-105145847D01*
X53090476Y-105145847D02*
X53166666Y-105183942D01*
X53166666Y-105183942D02*
X53471428Y-105183942D01*
X52328571Y-105031561D02*
X52328571Y-105564895D01*
X52519047Y-104726800D02*
X52709524Y-105298228D01*
X52709524Y-105298228D02*
X52214285Y-105298228D01*
X51566666Y-105031561D02*
X51566666Y-105564895D01*
X51757142Y-104726800D02*
X51947619Y-105298228D01*
X51947619Y-105298228D02*
X51452380Y-105298228D01*
X53114285Y-104464895D02*
X53380952Y-104083942D01*
X53571428Y-104464895D02*
X53571428Y-103664895D01*
X53571428Y-103664895D02*
X53266666Y-103664895D01*
X53266666Y-103664895D02*
X53190476Y-103702990D01*
X53190476Y-103702990D02*
X53152381Y-103741085D01*
X53152381Y-103741085D02*
X53114285Y-103817276D01*
X53114285Y-103817276D02*
X53114285Y-103931561D01*
X53114285Y-103931561D02*
X53152381Y-104007752D01*
X53152381Y-104007752D02*
X53190476Y-104045847D01*
X53190476Y-104045847D02*
X53266666Y-104083942D01*
X53266666Y-104083942D02*
X53571428Y-104083942D01*
X52428571Y-103931561D02*
X52428571Y-104464895D01*
X52619047Y-103626800D02*
X52809524Y-104198228D01*
X52809524Y-104198228D02*
X52314285Y-104198228D01*
X52085714Y-103664895D02*
X51590476Y-103664895D01*
X51590476Y-103664895D02*
X51857142Y-103969657D01*
X51857142Y-103969657D02*
X51742857Y-103969657D01*
X51742857Y-103969657D02*
X51666666Y-104007752D01*
X51666666Y-104007752D02*
X51628571Y-104045847D01*
X51628571Y-104045847D02*
X51590476Y-104122038D01*
X51590476Y-104122038D02*
X51590476Y-104312514D01*
X51590476Y-104312514D02*
X51628571Y-104388704D01*
X51628571Y-104388704D02*
X51666666Y-104426800D01*
X51666666Y-104426800D02*
X51742857Y-104464895D01*
X51742857Y-104464895D02*
X51971428Y-104464895D01*
X51971428Y-104464895D02*
X52047619Y-104426800D01*
X52047619Y-104426800D02*
X52085714Y-104388704D01*
X80321674Y-39994364D02*
X80240862Y-39536428D01*
X80644923Y-39671115D02*
X80079238Y-39105430D01*
X80079238Y-39105430D02*
X79863739Y-39320929D01*
X79863739Y-39320929D02*
X79836801Y-39401741D01*
X79836801Y-39401741D02*
X79836801Y-39455616D01*
X79836801Y-39455616D02*
X79863739Y-39536428D01*
X79863739Y-39536428D02*
X79944551Y-39617241D01*
X79944551Y-39617241D02*
X80025363Y-39644178D01*
X80025363Y-39644178D02*
X80079238Y-39644178D01*
X80079238Y-39644178D02*
X80160050Y-39617241D01*
X80160050Y-39617241D02*
X80375549Y-39401741D01*
X79459678Y-40102114D02*
X79836801Y-40479238D01*
X79378865Y-39751928D02*
X79917613Y-40021302D01*
X79917613Y-40021302D02*
X79567427Y-40371488D01*
X79055616Y-40236801D02*
X79001742Y-40236801D01*
X79001742Y-40236801D02*
X78920929Y-40263738D01*
X78920929Y-40263738D02*
X78786242Y-40398425D01*
X78786242Y-40398425D02*
X78759305Y-40479238D01*
X78759305Y-40479238D02*
X78759305Y-40533113D01*
X78759305Y-40533113D02*
X78786242Y-40613925D01*
X78786242Y-40613925D02*
X78840117Y-40667800D01*
X78840117Y-40667800D02*
X78947867Y-40721674D01*
X78947867Y-40721674D02*
X79594364Y-40721674D01*
X79594364Y-40721674D02*
X79244178Y-41071861D01*
X58014895Y-109385714D02*
X57633942Y-109119047D01*
X58014895Y-108928571D02*
X57214895Y-108928571D01*
X57214895Y-108928571D02*
X57214895Y-109233333D01*
X57214895Y-109233333D02*
X57252990Y-109309523D01*
X57252990Y-109309523D02*
X57291085Y-109347618D01*
X57291085Y-109347618D02*
X57367276Y-109385714D01*
X57367276Y-109385714D02*
X57481561Y-109385714D01*
X57481561Y-109385714D02*
X57557752Y-109347618D01*
X57557752Y-109347618D02*
X57595847Y-109309523D01*
X57595847Y-109309523D02*
X57633942Y-109233333D01*
X57633942Y-109233333D02*
X57633942Y-108928571D01*
X57214895Y-109652380D02*
X57214895Y-110147618D01*
X57214895Y-110147618D02*
X57519657Y-109880952D01*
X57519657Y-109880952D02*
X57519657Y-109995237D01*
X57519657Y-109995237D02*
X57557752Y-110071428D01*
X57557752Y-110071428D02*
X57595847Y-110109523D01*
X57595847Y-110109523D02*
X57672038Y-110147618D01*
X57672038Y-110147618D02*
X57862514Y-110147618D01*
X57862514Y-110147618D02*
X57938704Y-110109523D01*
X57938704Y-110109523D02*
X57976800Y-110071428D01*
X57976800Y-110071428D02*
X58014895Y-109995237D01*
X58014895Y-109995237D02*
X58014895Y-109766666D01*
X58014895Y-109766666D02*
X57976800Y-109690475D01*
X57976800Y-109690475D02*
X57938704Y-109652380D01*
X58014895Y-110528571D02*
X58014895Y-110680952D01*
X58014895Y-110680952D02*
X57976800Y-110757142D01*
X57976800Y-110757142D02*
X57938704Y-110795238D01*
X57938704Y-110795238D02*
X57824419Y-110871428D01*
X57824419Y-110871428D02*
X57672038Y-110909523D01*
X57672038Y-110909523D02*
X57367276Y-110909523D01*
X57367276Y-110909523D02*
X57291085Y-110871428D01*
X57291085Y-110871428D02*
X57252990Y-110833333D01*
X57252990Y-110833333D02*
X57214895Y-110757142D01*
X57214895Y-110757142D02*
X57214895Y-110604761D01*
X57214895Y-110604761D02*
X57252990Y-110528571D01*
X57252990Y-110528571D02*
X57291085Y-110490476D01*
X57291085Y-110490476D02*
X57367276Y-110452380D01*
X57367276Y-110452380D02*
X57557752Y-110452380D01*
X57557752Y-110452380D02*
X57633942Y-110490476D01*
X57633942Y-110490476D02*
X57672038Y-110528571D01*
X57672038Y-110528571D02*
X57710133Y-110604761D01*
X57710133Y-110604761D02*
X57710133Y-110757142D01*
X57710133Y-110757142D02*
X57672038Y-110833333D01*
X57672038Y-110833333D02*
X57633942Y-110871428D01*
X57633942Y-110871428D02*
X57557752Y-110909523D01*
X50614285Y-96414895D02*
X50880952Y-96033942D01*
X51071428Y-96414895D02*
X51071428Y-95614895D01*
X51071428Y-95614895D02*
X50766666Y-95614895D01*
X50766666Y-95614895D02*
X50690476Y-95652990D01*
X50690476Y-95652990D02*
X50652381Y-95691085D01*
X50652381Y-95691085D02*
X50614285Y-95767276D01*
X50614285Y-95767276D02*
X50614285Y-95881561D01*
X50614285Y-95881561D02*
X50652381Y-95957752D01*
X50652381Y-95957752D02*
X50690476Y-95995847D01*
X50690476Y-95995847D02*
X50766666Y-96033942D01*
X50766666Y-96033942D02*
X51071428Y-96033942D01*
X50347619Y-95614895D02*
X49852381Y-95614895D01*
X49852381Y-95614895D02*
X50119047Y-95919657D01*
X50119047Y-95919657D02*
X50004762Y-95919657D01*
X50004762Y-95919657D02*
X49928571Y-95957752D01*
X49928571Y-95957752D02*
X49890476Y-95995847D01*
X49890476Y-95995847D02*
X49852381Y-96072038D01*
X49852381Y-96072038D02*
X49852381Y-96262514D01*
X49852381Y-96262514D02*
X49890476Y-96338704D01*
X49890476Y-96338704D02*
X49928571Y-96376800D01*
X49928571Y-96376800D02*
X50004762Y-96414895D01*
X50004762Y-96414895D02*
X50233333Y-96414895D01*
X50233333Y-96414895D02*
X50309524Y-96376800D01*
X50309524Y-96376800D02*
X50347619Y-96338704D01*
X49395238Y-95957752D02*
X49471428Y-95919657D01*
X49471428Y-95919657D02*
X49509523Y-95881561D01*
X49509523Y-95881561D02*
X49547619Y-95805371D01*
X49547619Y-95805371D02*
X49547619Y-95767276D01*
X49547619Y-95767276D02*
X49509523Y-95691085D01*
X49509523Y-95691085D02*
X49471428Y-95652990D01*
X49471428Y-95652990D02*
X49395238Y-95614895D01*
X49395238Y-95614895D02*
X49242857Y-95614895D01*
X49242857Y-95614895D02*
X49166666Y-95652990D01*
X49166666Y-95652990D02*
X49128571Y-95691085D01*
X49128571Y-95691085D02*
X49090476Y-95767276D01*
X49090476Y-95767276D02*
X49090476Y-95805371D01*
X49090476Y-95805371D02*
X49128571Y-95881561D01*
X49128571Y-95881561D02*
X49166666Y-95919657D01*
X49166666Y-95919657D02*
X49242857Y-95957752D01*
X49242857Y-95957752D02*
X49395238Y-95957752D01*
X49395238Y-95957752D02*
X49471428Y-95995847D01*
X49471428Y-95995847D02*
X49509523Y-96033942D01*
X49509523Y-96033942D02*
X49547619Y-96110133D01*
X49547619Y-96110133D02*
X49547619Y-96262514D01*
X49547619Y-96262514D02*
X49509523Y-96338704D01*
X49509523Y-96338704D02*
X49471428Y-96376800D01*
X49471428Y-96376800D02*
X49395238Y-96414895D01*
X49395238Y-96414895D02*
X49242857Y-96414895D01*
X49242857Y-96414895D02*
X49166666Y-96376800D01*
X49166666Y-96376800D02*
X49128571Y-96338704D01*
X49128571Y-96338704D02*
X49090476Y-96262514D01*
X49090476Y-96262514D02*
X49090476Y-96110133D01*
X49090476Y-96110133D02*
X49128571Y-96033942D01*
X49128571Y-96033942D02*
X49166666Y-95995847D01*
X49166666Y-95995847D02*
X49242857Y-95957752D01*
X79514285Y-94664895D02*
X79780952Y-94283942D01*
X79971428Y-94664895D02*
X79971428Y-93864895D01*
X79971428Y-93864895D02*
X79666666Y-93864895D01*
X79666666Y-93864895D02*
X79590476Y-93902990D01*
X79590476Y-93902990D02*
X79552381Y-93941085D01*
X79552381Y-93941085D02*
X79514285Y-94017276D01*
X79514285Y-94017276D02*
X79514285Y-94131561D01*
X79514285Y-94131561D02*
X79552381Y-94207752D01*
X79552381Y-94207752D02*
X79590476Y-94245847D01*
X79590476Y-94245847D02*
X79666666Y-94283942D01*
X79666666Y-94283942D02*
X79971428Y-94283942D01*
X79247619Y-93864895D02*
X78752381Y-93864895D01*
X78752381Y-93864895D02*
X79019047Y-94169657D01*
X79019047Y-94169657D02*
X78904762Y-94169657D01*
X78904762Y-94169657D02*
X78828571Y-94207752D01*
X78828571Y-94207752D02*
X78790476Y-94245847D01*
X78790476Y-94245847D02*
X78752381Y-94322038D01*
X78752381Y-94322038D02*
X78752381Y-94512514D01*
X78752381Y-94512514D02*
X78790476Y-94588704D01*
X78790476Y-94588704D02*
X78828571Y-94626800D01*
X78828571Y-94626800D02*
X78904762Y-94664895D01*
X78904762Y-94664895D02*
X79133333Y-94664895D01*
X79133333Y-94664895D02*
X79209524Y-94626800D01*
X79209524Y-94626800D02*
X79247619Y-94588704D01*
X78028571Y-93864895D02*
X78409523Y-93864895D01*
X78409523Y-93864895D02*
X78447619Y-94245847D01*
X78447619Y-94245847D02*
X78409523Y-94207752D01*
X78409523Y-94207752D02*
X78333333Y-94169657D01*
X78333333Y-94169657D02*
X78142857Y-94169657D01*
X78142857Y-94169657D02*
X78066666Y-94207752D01*
X78066666Y-94207752D02*
X78028571Y-94245847D01*
X78028571Y-94245847D02*
X77990476Y-94322038D01*
X77990476Y-94322038D02*
X77990476Y-94512514D01*
X77990476Y-94512514D02*
X78028571Y-94588704D01*
X78028571Y-94588704D02*
X78066666Y-94626800D01*
X78066666Y-94626800D02*
X78142857Y-94664895D01*
X78142857Y-94664895D02*
X78333333Y-94664895D01*
X78333333Y-94664895D02*
X78409523Y-94626800D01*
X78409523Y-94626800D02*
X78447619Y-94588704D01*
X81714285Y-94564895D02*
X81980952Y-94183942D01*
X82171428Y-94564895D02*
X82171428Y-93764895D01*
X82171428Y-93764895D02*
X81866666Y-93764895D01*
X81866666Y-93764895D02*
X81790476Y-93802990D01*
X81790476Y-93802990D02*
X81752381Y-93841085D01*
X81752381Y-93841085D02*
X81714285Y-93917276D01*
X81714285Y-93917276D02*
X81714285Y-94031561D01*
X81714285Y-94031561D02*
X81752381Y-94107752D01*
X81752381Y-94107752D02*
X81790476Y-94145847D01*
X81790476Y-94145847D02*
X81866666Y-94183942D01*
X81866666Y-94183942D02*
X82171428Y-94183942D01*
X81447619Y-93764895D02*
X80952381Y-93764895D01*
X80952381Y-93764895D02*
X81219047Y-94069657D01*
X81219047Y-94069657D02*
X81104762Y-94069657D01*
X81104762Y-94069657D02*
X81028571Y-94107752D01*
X81028571Y-94107752D02*
X80990476Y-94145847D01*
X80990476Y-94145847D02*
X80952381Y-94222038D01*
X80952381Y-94222038D02*
X80952381Y-94412514D01*
X80952381Y-94412514D02*
X80990476Y-94488704D01*
X80990476Y-94488704D02*
X81028571Y-94526800D01*
X81028571Y-94526800D02*
X81104762Y-94564895D01*
X81104762Y-94564895D02*
X81333333Y-94564895D01*
X81333333Y-94564895D02*
X81409524Y-94526800D01*
X81409524Y-94526800D02*
X81447619Y-94488704D01*
X80266666Y-94031561D02*
X80266666Y-94564895D01*
X80457142Y-93726800D02*
X80647619Y-94298228D01*
X80647619Y-94298228D02*
X80152380Y-94298228D01*
X75604286Y-91464895D02*
X75870953Y-91083942D01*
X76061429Y-91464895D02*
X76061429Y-90664895D01*
X76061429Y-90664895D02*
X75756667Y-90664895D01*
X75756667Y-90664895D02*
X75680477Y-90702990D01*
X75680477Y-90702990D02*
X75642382Y-90741085D01*
X75642382Y-90741085D02*
X75604286Y-90817276D01*
X75604286Y-90817276D02*
X75604286Y-90931561D01*
X75604286Y-90931561D02*
X75642382Y-91007752D01*
X75642382Y-91007752D02*
X75680477Y-91045847D01*
X75680477Y-91045847D02*
X75756667Y-91083942D01*
X75756667Y-91083942D02*
X76061429Y-91083942D01*
X75337620Y-90664895D02*
X74842382Y-90664895D01*
X74842382Y-90664895D02*
X75109048Y-90969657D01*
X75109048Y-90969657D02*
X74994763Y-90969657D01*
X74994763Y-90969657D02*
X74918572Y-91007752D01*
X74918572Y-91007752D02*
X74880477Y-91045847D01*
X74880477Y-91045847D02*
X74842382Y-91122038D01*
X74842382Y-91122038D02*
X74842382Y-91312514D01*
X74842382Y-91312514D02*
X74880477Y-91388704D01*
X74880477Y-91388704D02*
X74918572Y-91426800D01*
X74918572Y-91426800D02*
X74994763Y-91464895D01*
X74994763Y-91464895D02*
X75223334Y-91464895D01*
X75223334Y-91464895D02*
X75299525Y-91426800D01*
X75299525Y-91426800D02*
X75337620Y-91388704D01*
X74575715Y-90664895D02*
X74080477Y-90664895D01*
X74080477Y-90664895D02*
X74347143Y-90969657D01*
X74347143Y-90969657D02*
X74232858Y-90969657D01*
X74232858Y-90969657D02*
X74156667Y-91007752D01*
X74156667Y-91007752D02*
X74118572Y-91045847D01*
X74118572Y-91045847D02*
X74080477Y-91122038D01*
X74080477Y-91122038D02*
X74080477Y-91312514D01*
X74080477Y-91312514D02*
X74118572Y-91388704D01*
X74118572Y-91388704D02*
X74156667Y-91426800D01*
X74156667Y-91426800D02*
X74232858Y-91464895D01*
X74232858Y-91464895D02*
X74461429Y-91464895D01*
X74461429Y-91464895D02*
X74537620Y-91426800D01*
X74537620Y-91426800D02*
X74575715Y-91388704D01*
X75614285Y-92464895D02*
X75880952Y-92083942D01*
X76071428Y-92464895D02*
X76071428Y-91664895D01*
X76071428Y-91664895D02*
X75766666Y-91664895D01*
X75766666Y-91664895D02*
X75690476Y-91702990D01*
X75690476Y-91702990D02*
X75652381Y-91741085D01*
X75652381Y-91741085D02*
X75614285Y-91817276D01*
X75614285Y-91817276D02*
X75614285Y-91931561D01*
X75614285Y-91931561D02*
X75652381Y-92007752D01*
X75652381Y-92007752D02*
X75690476Y-92045847D01*
X75690476Y-92045847D02*
X75766666Y-92083942D01*
X75766666Y-92083942D02*
X76071428Y-92083942D01*
X75347619Y-91664895D02*
X74852381Y-91664895D01*
X74852381Y-91664895D02*
X75119047Y-91969657D01*
X75119047Y-91969657D02*
X75004762Y-91969657D01*
X75004762Y-91969657D02*
X74928571Y-92007752D01*
X74928571Y-92007752D02*
X74890476Y-92045847D01*
X74890476Y-92045847D02*
X74852381Y-92122038D01*
X74852381Y-92122038D02*
X74852381Y-92312514D01*
X74852381Y-92312514D02*
X74890476Y-92388704D01*
X74890476Y-92388704D02*
X74928571Y-92426800D01*
X74928571Y-92426800D02*
X75004762Y-92464895D01*
X75004762Y-92464895D02*
X75233333Y-92464895D01*
X75233333Y-92464895D02*
X75309524Y-92426800D01*
X75309524Y-92426800D02*
X75347619Y-92388704D01*
X74547619Y-91741085D02*
X74509523Y-91702990D01*
X74509523Y-91702990D02*
X74433333Y-91664895D01*
X74433333Y-91664895D02*
X74242857Y-91664895D01*
X74242857Y-91664895D02*
X74166666Y-91702990D01*
X74166666Y-91702990D02*
X74128571Y-91741085D01*
X74128571Y-91741085D02*
X74090476Y-91817276D01*
X74090476Y-91817276D02*
X74090476Y-91893466D01*
X74090476Y-91893466D02*
X74128571Y-92007752D01*
X74128571Y-92007752D02*
X74585714Y-92464895D01*
X74585714Y-92464895D02*
X74090476Y-92464895D01*
X79704285Y-87764895D02*
X79970952Y-87383942D01*
X80161428Y-87764895D02*
X80161428Y-86964895D01*
X80161428Y-86964895D02*
X79856666Y-86964895D01*
X79856666Y-86964895D02*
X79780476Y-87002990D01*
X79780476Y-87002990D02*
X79742381Y-87041085D01*
X79742381Y-87041085D02*
X79704285Y-87117276D01*
X79704285Y-87117276D02*
X79704285Y-87231561D01*
X79704285Y-87231561D02*
X79742381Y-87307752D01*
X79742381Y-87307752D02*
X79780476Y-87345847D01*
X79780476Y-87345847D02*
X79856666Y-87383942D01*
X79856666Y-87383942D02*
X80161428Y-87383942D01*
X79437619Y-86964895D02*
X78942381Y-86964895D01*
X78942381Y-86964895D02*
X79209047Y-87269657D01*
X79209047Y-87269657D02*
X79094762Y-87269657D01*
X79094762Y-87269657D02*
X79018571Y-87307752D01*
X79018571Y-87307752D02*
X78980476Y-87345847D01*
X78980476Y-87345847D02*
X78942381Y-87422038D01*
X78942381Y-87422038D02*
X78942381Y-87612514D01*
X78942381Y-87612514D02*
X78980476Y-87688704D01*
X78980476Y-87688704D02*
X79018571Y-87726800D01*
X79018571Y-87726800D02*
X79094762Y-87764895D01*
X79094762Y-87764895D02*
X79323333Y-87764895D01*
X79323333Y-87764895D02*
X79399524Y-87726800D01*
X79399524Y-87726800D02*
X79437619Y-87688704D01*
X78180476Y-87764895D02*
X78637619Y-87764895D01*
X78409047Y-87764895D02*
X78409047Y-86964895D01*
X78409047Y-86964895D02*
X78485238Y-87079180D01*
X78485238Y-87079180D02*
X78561428Y-87155371D01*
X78561428Y-87155371D02*
X78637619Y-87193466D01*
X81824285Y-87594895D02*
X82090952Y-87213942D01*
X82281428Y-87594895D02*
X82281428Y-86794895D01*
X82281428Y-86794895D02*
X81976666Y-86794895D01*
X81976666Y-86794895D02*
X81900476Y-86832990D01*
X81900476Y-86832990D02*
X81862381Y-86871085D01*
X81862381Y-86871085D02*
X81824285Y-86947276D01*
X81824285Y-86947276D02*
X81824285Y-87061561D01*
X81824285Y-87061561D02*
X81862381Y-87137752D01*
X81862381Y-87137752D02*
X81900476Y-87175847D01*
X81900476Y-87175847D02*
X81976666Y-87213942D01*
X81976666Y-87213942D02*
X82281428Y-87213942D01*
X81557619Y-86794895D02*
X81062381Y-86794895D01*
X81062381Y-86794895D02*
X81329047Y-87099657D01*
X81329047Y-87099657D02*
X81214762Y-87099657D01*
X81214762Y-87099657D02*
X81138571Y-87137752D01*
X81138571Y-87137752D02*
X81100476Y-87175847D01*
X81100476Y-87175847D02*
X81062381Y-87252038D01*
X81062381Y-87252038D02*
X81062381Y-87442514D01*
X81062381Y-87442514D02*
X81100476Y-87518704D01*
X81100476Y-87518704D02*
X81138571Y-87556800D01*
X81138571Y-87556800D02*
X81214762Y-87594895D01*
X81214762Y-87594895D02*
X81443333Y-87594895D01*
X81443333Y-87594895D02*
X81519524Y-87556800D01*
X81519524Y-87556800D02*
X81557619Y-87518704D01*
X80567142Y-86794895D02*
X80490952Y-86794895D01*
X80490952Y-86794895D02*
X80414761Y-86832990D01*
X80414761Y-86832990D02*
X80376666Y-86871085D01*
X80376666Y-86871085D02*
X80338571Y-86947276D01*
X80338571Y-86947276D02*
X80300476Y-87099657D01*
X80300476Y-87099657D02*
X80300476Y-87290133D01*
X80300476Y-87290133D02*
X80338571Y-87442514D01*
X80338571Y-87442514D02*
X80376666Y-87518704D01*
X80376666Y-87518704D02*
X80414761Y-87556800D01*
X80414761Y-87556800D02*
X80490952Y-87594895D01*
X80490952Y-87594895D02*
X80567142Y-87594895D01*
X80567142Y-87594895D02*
X80643333Y-87556800D01*
X80643333Y-87556800D02*
X80681428Y-87518704D01*
X80681428Y-87518704D02*
X80719523Y-87442514D01*
X80719523Y-87442514D02*
X80757619Y-87290133D01*
X80757619Y-87290133D02*
X80757619Y-87099657D01*
X80757619Y-87099657D02*
X80719523Y-86947276D01*
X80719523Y-86947276D02*
X80681428Y-86871085D01*
X80681428Y-86871085D02*
X80643333Y-86832990D01*
X80643333Y-86832990D02*
X80567142Y-86794895D01*
X75414285Y-89464895D02*
X75680952Y-89083942D01*
X75871428Y-89464895D02*
X75871428Y-88664895D01*
X75871428Y-88664895D02*
X75566666Y-88664895D01*
X75566666Y-88664895D02*
X75490476Y-88702990D01*
X75490476Y-88702990D02*
X75452381Y-88741085D01*
X75452381Y-88741085D02*
X75414285Y-88817276D01*
X75414285Y-88817276D02*
X75414285Y-88931561D01*
X75414285Y-88931561D02*
X75452381Y-89007752D01*
X75452381Y-89007752D02*
X75490476Y-89045847D01*
X75490476Y-89045847D02*
X75566666Y-89083942D01*
X75566666Y-89083942D02*
X75871428Y-89083942D01*
X75109524Y-88741085D02*
X75071428Y-88702990D01*
X75071428Y-88702990D02*
X74995238Y-88664895D01*
X74995238Y-88664895D02*
X74804762Y-88664895D01*
X74804762Y-88664895D02*
X74728571Y-88702990D01*
X74728571Y-88702990D02*
X74690476Y-88741085D01*
X74690476Y-88741085D02*
X74652381Y-88817276D01*
X74652381Y-88817276D02*
X74652381Y-88893466D01*
X74652381Y-88893466D02*
X74690476Y-89007752D01*
X74690476Y-89007752D02*
X75147619Y-89464895D01*
X75147619Y-89464895D02*
X74652381Y-89464895D01*
X74271428Y-89464895D02*
X74119047Y-89464895D01*
X74119047Y-89464895D02*
X74042857Y-89426800D01*
X74042857Y-89426800D02*
X74004761Y-89388704D01*
X74004761Y-89388704D02*
X73928571Y-89274419D01*
X73928571Y-89274419D02*
X73890476Y-89122038D01*
X73890476Y-89122038D02*
X73890476Y-88817276D01*
X73890476Y-88817276D02*
X73928571Y-88741085D01*
X73928571Y-88741085D02*
X73966666Y-88702990D01*
X73966666Y-88702990D02*
X74042857Y-88664895D01*
X74042857Y-88664895D02*
X74195238Y-88664895D01*
X74195238Y-88664895D02*
X74271428Y-88702990D01*
X74271428Y-88702990D02*
X74309523Y-88741085D01*
X74309523Y-88741085D02*
X74347619Y-88817276D01*
X74347619Y-88817276D02*
X74347619Y-89007752D01*
X74347619Y-89007752D02*
X74309523Y-89083942D01*
X74309523Y-89083942D02*
X74271428Y-89122038D01*
X74271428Y-89122038D02*
X74195238Y-89160133D01*
X74195238Y-89160133D02*
X74042857Y-89160133D01*
X74042857Y-89160133D02*
X73966666Y-89122038D01*
X73966666Y-89122038D02*
X73928571Y-89083942D01*
X73928571Y-89083942D02*
X73890476Y-89007752D01*
X75524285Y-90464895D02*
X75790952Y-90083942D01*
X75981428Y-90464895D02*
X75981428Y-89664895D01*
X75981428Y-89664895D02*
X75676666Y-89664895D01*
X75676666Y-89664895D02*
X75600476Y-89702990D01*
X75600476Y-89702990D02*
X75562381Y-89741085D01*
X75562381Y-89741085D02*
X75524285Y-89817276D01*
X75524285Y-89817276D02*
X75524285Y-89931561D01*
X75524285Y-89931561D02*
X75562381Y-90007752D01*
X75562381Y-90007752D02*
X75600476Y-90045847D01*
X75600476Y-90045847D02*
X75676666Y-90083942D01*
X75676666Y-90083942D02*
X75981428Y-90083942D01*
X75219524Y-89741085D02*
X75181428Y-89702990D01*
X75181428Y-89702990D02*
X75105238Y-89664895D01*
X75105238Y-89664895D02*
X74914762Y-89664895D01*
X74914762Y-89664895D02*
X74838571Y-89702990D01*
X74838571Y-89702990D02*
X74800476Y-89741085D01*
X74800476Y-89741085D02*
X74762381Y-89817276D01*
X74762381Y-89817276D02*
X74762381Y-89893466D01*
X74762381Y-89893466D02*
X74800476Y-90007752D01*
X74800476Y-90007752D02*
X75257619Y-90464895D01*
X75257619Y-90464895D02*
X74762381Y-90464895D01*
X74305238Y-90007752D02*
X74381428Y-89969657D01*
X74381428Y-89969657D02*
X74419523Y-89931561D01*
X74419523Y-89931561D02*
X74457619Y-89855371D01*
X74457619Y-89855371D02*
X74457619Y-89817276D01*
X74457619Y-89817276D02*
X74419523Y-89741085D01*
X74419523Y-89741085D02*
X74381428Y-89702990D01*
X74381428Y-89702990D02*
X74305238Y-89664895D01*
X74305238Y-89664895D02*
X74152857Y-89664895D01*
X74152857Y-89664895D02*
X74076666Y-89702990D01*
X74076666Y-89702990D02*
X74038571Y-89741085D01*
X74038571Y-89741085D02*
X74000476Y-89817276D01*
X74000476Y-89817276D02*
X74000476Y-89855371D01*
X74000476Y-89855371D02*
X74038571Y-89931561D01*
X74038571Y-89931561D02*
X74076666Y-89969657D01*
X74076666Y-89969657D02*
X74152857Y-90007752D01*
X74152857Y-90007752D02*
X74305238Y-90007752D01*
X74305238Y-90007752D02*
X74381428Y-90045847D01*
X74381428Y-90045847D02*
X74419523Y-90083942D01*
X74419523Y-90083942D02*
X74457619Y-90160133D01*
X74457619Y-90160133D02*
X74457619Y-90312514D01*
X74457619Y-90312514D02*
X74419523Y-90388704D01*
X74419523Y-90388704D02*
X74381428Y-90426800D01*
X74381428Y-90426800D02*
X74305238Y-90464895D01*
X74305238Y-90464895D02*
X74152857Y-90464895D01*
X74152857Y-90464895D02*
X74076666Y-90426800D01*
X74076666Y-90426800D02*
X74038571Y-90388704D01*
X74038571Y-90388704D02*
X74000476Y-90312514D01*
X74000476Y-90312514D02*
X74000476Y-90160133D01*
X74000476Y-90160133D02*
X74038571Y-90083942D01*
X74038571Y-90083942D02*
X74076666Y-90045847D01*
X74076666Y-90045847D02*
X74152857Y-90007752D01*
X79514285Y-104874895D02*
X79780952Y-104493942D01*
X79971428Y-104874895D02*
X79971428Y-104074895D01*
X79971428Y-104074895D02*
X79666666Y-104074895D01*
X79666666Y-104074895D02*
X79590476Y-104112990D01*
X79590476Y-104112990D02*
X79552381Y-104151085D01*
X79552381Y-104151085D02*
X79514285Y-104227276D01*
X79514285Y-104227276D02*
X79514285Y-104341561D01*
X79514285Y-104341561D02*
X79552381Y-104417752D01*
X79552381Y-104417752D02*
X79590476Y-104455847D01*
X79590476Y-104455847D02*
X79666666Y-104493942D01*
X79666666Y-104493942D02*
X79971428Y-104493942D01*
X79209524Y-104151085D02*
X79171428Y-104112990D01*
X79171428Y-104112990D02*
X79095238Y-104074895D01*
X79095238Y-104074895D02*
X78904762Y-104074895D01*
X78904762Y-104074895D02*
X78828571Y-104112990D01*
X78828571Y-104112990D02*
X78790476Y-104151085D01*
X78790476Y-104151085D02*
X78752381Y-104227276D01*
X78752381Y-104227276D02*
X78752381Y-104303466D01*
X78752381Y-104303466D02*
X78790476Y-104417752D01*
X78790476Y-104417752D02*
X79247619Y-104874895D01*
X79247619Y-104874895D02*
X78752381Y-104874895D01*
X78485714Y-104074895D02*
X77952380Y-104074895D01*
X77952380Y-104074895D02*
X78295238Y-104874895D01*
X81704286Y-104774895D02*
X81970953Y-104393942D01*
X82161429Y-104774895D02*
X82161429Y-103974895D01*
X82161429Y-103974895D02*
X81856667Y-103974895D01*
X81856667Y-103974895D02*
X81780477Y-104012990D01*
X81780477Y-104012990D02*
X81742382Y-104051085D01*
X81742382Y-104051085D02*
X81704286Y-104127276D01*
X81704286Y-104127276D02*
X81704286Y-104241561D01*
X81704286Y-104241561D02*
X81742382Y-104317752D01*
X81742382Y-104317752D02*
X81780477Y-104355847D01*
X81780477Y-104355847D02*
X81856667Y-104393942D01*
X81856667Y-104393942D02*
X82161429Y-104393942D01*
X81399525Y-104051085D02*
X81361429Y-104012990D01*
X81361429Y-104012990D02*
X81285239Y-103974895D01*
X81285239Y-103974895D02*
X81094763Y-103974895D01*
X81094763Y-103974895D02*
X81018572Y-104012990D01*
X81018572Y-104012990D02*
X80980477Y-104051085D01*
X80980477Y-104051085D02*
X80942382Y-104127276D01*
X80942382Y-104127276D02*
X80942382Y-104203466D01*
X80942382Y-104203466D02*
X80980477Y-104317752D01*
X80980477Y-104317752D02*
X81437620Y-104774895D01*
X81437620Y-104774895D02*
X80942382Y-104774895D01*
X80256667Y-103974895D02*
X80409048Y-103974895D01*
X80409048Y-103974895D02*
X80485239Y-104012990D01*
X80485239Y-104012990D02*
X80523334Y-104051085D01*
X80523334Y-104051085D02*
X80599524Y-104165371D01*
X80599524Y-104165371D02*
X80637620Y-104317752D01*
X80637620Y-104317752D02*
X80637620Y-104622514D01*
X80637620Y-104622514D02*
X80599524Y-104698704D01*
X80599524Y-104698704D02*
X80561429Y-104736800D01*
X80561429Y-104736800D02*
X80485239Y-104774895D01*
X80485239Y-104774895D02*
X80332858Y-104774895D01*
X80332858Y-104774895D02*
X80256667Y-104736800D01*
X80256667Y-104736800D02*
X80218572Y-104698704D01*
X80218572Y-104698704D02*
X80180477Y-104622514D01*
X80180477Y-104622514D02*
X80180477Y-104432038D01*
X80180477Y-104432038D02*
X80218572Y-104355847D01*
X80218572Y-104355847D02*
X80256667Y-104317752D01*
X80256667Y-104317752D02*
X80332858Y-104279657D01*
X80332858Y-104279657D02*
X80485239Y-104279657D01*
X80485239Y-104279657D02*
X80561429Y-104317752D01*
X80561429Y-104317752D02*
X80599524Y-104355847D01*
X80599524Y-104355847D02*
X80637620Y-104432038D01*
X75714285Y-101874895D02*
X75980952Y-101493942D01*
X76171428Y-101874895D02*
X76171428Y-101074895D01*
X76171428Y-101074895D02*
X75866666Y-101074895D01*
X75866666Y-101074895D02*
X75790476Y-101112990D01*
X75790476Y-101112990D02*
X75752381Y-101151085D01*
X75752381Y-101151085D02*
X75714285Y-101227276D01*
X75714285Y-101227276D02*
X75714285Y-101341561D01*
X75714285Y-101341561D02*
X75752381Y-101417752D01*
X75752381Y-101417752D02*
X75790476Y-101455847D01*
X75790476Y-101455847D02*
X75866666Y-101493942D01*
X75866666Y-101493942D02*
X76171428Y-101493942D01*
X75409524Y-101151085D02*
X75371428Y-101112990D01*
X75371428Y-101112990D02*
X75295238Y-101074895D01*
X75295238Y-101074895D02*
X75104762Y-101074895D01*
X75104762Y-101074895D02*
X75028571Y-101112990D01*
X75028571Y-101112990D02*
X74990476Y-101151085D01*
X74990476Y-101151085D02*
X74952381Y-101227276D01*
X74952381Y-101227276D02*
X74952381Y-101303466D01*
X74952381Y-101303466D02*
X74990476Y-101417752D01*
X74990476Y-101417752D02*
X75447619Y-101874895D01*
X75447619Y-101874895D02*
X74952381Y-101874895D01*
X74228571Y-101074895D02*
X74609523Y-101074895D01*
X74609523Y-101074895D02*
X74647619Y-101455847D01*
X74647619Y-101455847D02*
X74609523Y-101417752D01*
X74609523Y-101417752D02*
X74533333Y-101379657D01*
X74533333Y-101379657D02*
X74342857Y-101379657D01*
X74342857Y-101379657D02*
X74266666Y-101417752D01*
X74266666Y-101417752D02*
X74228571Y-101455847D01*
X74228571Y-101455847D02*
X74190476Y-101532038D01*
X74190476Y-101532038D02*
X74190476Y-101722514D01*
X74190476Y-101722514D02*
X74228571Y-101798704D01*
X74228571Y-101798704D02*
X74266666Y-101836800D01*
X74266666Y-101836800D02*
X74342857Y-101874895D01*
X74342857Y-101874895D02*
X74533333Y-101874895D01*
X74533333Y-101874895D02*
X74609523Y-101836800D01*
X74609523Y-101836800D02*
X74647619Y-101798704D01*
X47644285Y-39314895D02*
X47910952Y-38933942D01*
X48101428Y-39314895D02*
X48101428Y-38514895D01*
X48101428Y-38514895D02*
X47796666Y-38514895D01*
X47796666Y-38514895D02*
X47720476Y-38552990D01*
X47720476Y-38552990D02*
X47682381Y-38591085D01*
X47682381Y-38591085D02*
X47644285Y-38667276D01*
X47644285Y-38667276D02*
X47644285Y-38781561D01*
X47644285Y-38781561D02*
X47682381Y-38857752D01*
X47682381Y-38857752D02*
X47720476Y-38895847D01*
X47720476Y-38895847D02*
X47796666Y-38933942D01*
X47796666Y-38933942D02*
X48101428Y-38933942D01*
X47339524Y-38591085D02*
X47301428Y-38552990D01*
X47301428Y-38552990D02*
X47225238Y-38514895D01*
X47225238Y-38514895D02*
X47034762Y-38514895D01*
X47034762Y-38514895D02*
X46958571Y-38552990D01*
X46958571Y-38552990D02*
X46920476Y-38591085D01*
X46920476Y-38591085D02*
X46882381Y-38667276D01*
X46882381Y-38667276D02*
X46882381Y-38743466D01*
X46882381Y-38743466D02*
X46920476Y-38857752D01*
X46920476Y-38857752D02*
X47377619Y-39314895D01*
X47377619Y-39314895D02*
X46882381Y-39314895D01*
X46577619Y-38591085D02*
X46539523Y-38552990D01*
X46539523Y-38552990D02*
X46463333Y-38514895D01*
X46463333Y-38514895D02*
X46272857Y-38514895D01*
X46272857Y-38514895D02*
X46196666Y-38552990D01*
X46196666Y-38552990D02*
X46158571Y-38591085D01*
X46158571Y-38591085D02*
X46120476Y-38667276D01*
X46120476Y-38667276D02*
X46120476Y-38743466D01*
X46120476Y-38743466D02*
X46158571Y-38857752D01*
X46158571Y-38857752D02*
X46615714Y-39314895D01*
X46615714Y-39314895D02*
X46120476Y-39314895D01*
X47224285Y-31314895D02*
X47490952Y-30933942D01*
X47681428Y-31314895D02*
X47681428Y-30514895D01*
X47681428Y-30514895D02*
X47376666Y-30514895D01*
X47376666Y-30514895D02*
X47300476Y-30552990D01*
X47300476Y-30552990D02*
X47262381Y-30591085D01*
X47262381Y-30591085D02*
X47224285Y-30667276D01*
X47224285Y-30667276D02*
X47224285Y-30781561D01*
X47224285Y-30781561D02*
X47262381Y-30857752D01*
X47262381Y-30857752D02*
X47300476Y-30895847D01*
X47300476Y-30895847D02*
X47376666Y-30933942D01*
X47376666Y-30933942D02*
X47681428Y-30933942D01*
X46919524Y-30591085D02*
X46881428Y-30552990D01*
X46881428Y-30552990D02*
X46805238Y-30514895D01*
X46805238Y-30514895D02*
X46614762Y-30514895D01*
X46614762Y-30514895D02*
X46538571Y-30552990D01*
X46538571Y-30552990D02*
X46500476Y-30591085D01*
X46500476Y-30591085D02*
X46462381Y-30667276D01*
X46462381Y-30667276D02*
X46462381Y-30743466D01*
X46462381Y-30743466D02*
X46500476Y-30857752D01*
X46500476Y-30857752D02*
X46957619Y-31314895D01*
X46957619Y-31314895D02*
X46462381Y-31314895D01*
X45967142Y-30514895D02*
X45890952Y-30514895D01*
X45890952Y-30514895D02*
X45814761Y-30552990D01*
X45814761Y-30552990D02*
X45776666Y-30591085D01*
X45776666Y-30591085D02*
X45738571Y-30667276D01*
X45738571Y-30667276D02*
X45700476Y-30819657D01*
X45700476Y-30819657D02*
X45700476Y-31010133D01*
X45700476Y-31010133D02*
X45738571Y-31162514D01*
X45738571Y-31162514D02*
X45776666Y-31238704D01*
X45776666Y-31238704D02*
X45814761Y-31276800D01*
X45814761Y-31276800D02*
X45890952Y-31314895D01*
X45890952Y-31314895D02*
X45967142Y-31314895D01*
X45967142Y-31314895D02*
X46043333Y-31276800D01*
X46043333Y-31276800D02*
X46081428Y-31238704D01*
X46081428Y-31238704D02*
X46119523Y-31162514D01*
X46119523Y-31162514D02*
X46157619Y-31010133D01*
X46157619Y-31010133D02*
X46157619Y-30819657D01*
X46157619Y-30819657D02*
X46119523Y-30667276D01*
X46119523Y-30667276D02*
X46081428Y-30591085D01*
X46081428Y-30591085D02*
X46043333Y-30552990D01*
X46043333Y-30552990D02*
X45967142Y-30514895D01*
X75534284Y-102874895D02*
X75800951Y-102493942D01*
X75991427Y-102874895D02*
X75991427Y-102074895D01*
X75991427Y-102074895D02*
X75686665Y-102074895D01*
X75686665Y-102074895D02*
X75610475Y-102112990D01*
X75610475Y-102112990D02*
X75572380Y-102151085D01*
X75572380Y-102151085D02*
X75534284Y-102227276D01*
X75534284Y-102227276D02*
X75534284Y-102341561D01*
X75534284Y-102341561D02*
X75572380Y-102417752D01*
X75572380Y-102417752D02*
X75610475Y-102455847D01*
X75610475Y-102455847D02*
X75686665Y-102493942D01*
X75686665Y-102493942D02*
X75991427Y-102493942D01*
X74772380Y-102874895D02*
X75229523Y-102874895D01*
X75000951Y-102874895D02*
X75000951Y-102074895D01*
X75000951Y-102074895D02*
X75077142Y-102189180D01*
X75077142Y-102189180D02*
X75153332Y-102265371D01*
X75153332Y-102265371D02*
X75229523Y-102303466D01*
X74391427Y-102874895D02*
X74239046Y-102874895D01*
X74239046Y-102874895D02*
X74162856Y-102836800D01*
X74162856Y-102836800D02*
X74124760Y-102798704D01*
X74124760Y-102798704D02*
X74048570Y-102684419D01*
X74048570Y-102684419D02*
X74010475Y-102532038D01*
X74010475Y-102532038D02*
X74010475Y-102227276D01*
X74010475Y-102227276D02*
X74048570Y-102151085D01*
X74048570Y-102151085D02*
X74086665Y-102112990D01*
X74086665Y-102112990D02*
X74162856Y-102074895D01*
X74162856Y-102074895D02*
X74315237Y-102074895D01*
X74315237Y-102074895D02*
X74391427Y-102112990D01*
X74391427Y-102112990D02*
X74429522Y-102151085D01*
X74429522Y-102151085D02*
X74467618Y-102227276D01*
X74467618Y-102227276D02*
X74467618Y-102417752D01*
X74467618Y-102417752D02*
X74429522Y-102493942D01*
X74429522Y-102493942D02*
X74391427Y-102532038D01*
X74391427Y-102532038D02*
X74315237Y-102570133D01*
X74315237Y-102570133D02*
X74162856Y-102570133D01*
X74162856Y-102570133D02*
X74086665Y-102532038D01*
X74086665Y-102532038D02*
X74048570Y-102493942D01*
X74048570Y-102493942D02*
X74010475Y-102417752D01*
X79614285Y-97974895D02*
X79880952Y-97593942D01*
X80071428Y-97974895D02*
X80071428Y-97174895D01*
X80071428Y-97174895D02*
X79766666Y-97174895D01*
X79766666Y-97174895D02*
X79690476Y-97212990D01*
X79690476Y-97212990D02*
X79652381Y-97251085D01*
X79652381Y-97251085D02*
X79614285Y-97327276D01*
X79614285Y-97327276D02*
X79614285Y-97441561D01*
X79614285Y-97441561D02*
X79652381Y-97517752D01*
X79652381Y-97517752D02*
X79690476Y-97555847D01*
X79690476Y-97555847D02*
X79766666Y-97593942D01*
X79766666Y-97593942D02*
X80071428Y-97593942D01*
X78852381Y-97974895D02*
X79309524Y-97974895D01*
X79080952Y-97974895D02*
X79080952Y-97174895D01*
X79080952Y-97174895D02*
X79157143Y-97289180D01*
X79157143Y-97289180D02*
X79233333Y-97365371D01*
X79233333Y-97365371D02*
X79309524Y-97403466D01*
X78166666Y-97174895D02*
X78319047Y-97174895D01*
X78319047Y-97174895D02*
X78395238Y-97212990D01*
X78395238Y-97212990D02*
X78433333Y-97251085D01*
X78433333Y-97251085D02*
X78509523Y-97365371D01*
X78509523Y-97365371D02*
X78547619Y-97517752D01*
X78547619Y-97517752D02*
X78547619Y-97822514D01*
X78547619Y-97822514D02*
X78509523Y-97898704D01*
X78509523Y-97898704D02*
X78471428Y-97936800D01*
X78471428Y-97936800D02*
X78395238Y-97974895D01*
X78395238Y-97974895D02*
X78242857Y-97974895D01*
X78242857Y-97974895D02*
X78166666Y-97936800D01*
X78166666Y-97936800D02*
X78128571Y-97898704D01*
X78128571Y-97898704D02*
X78090476Y-97822514D01*
X78090476Y-97822514D02*
X78090476Y-97632038D01*
X78090476Y-97632038D02*
X78128571Y-97555847D01*
X78128571Y-97555847D02*
X78166666Y-97517752D01*
X78166666Y-97517752D02*
X78242857Y-97479657D01*
X78242857Y-97479657D02*
X78395238Y-97479657D01*
X78395238Y-97479657D02*
X78471428Y-97517752D01*
X78471428Y-97517752D02*
X78509523Y-97555847D01*
X78509523Y-97555847D02*
X78547619Y-97632038D01*
X81814285Y-97974895D02*
X82080952Y-97593942D01*
X82271428Y-97974895D02*
X82271428Y-97174895D01*
X82271428Y-97174895D02*
X81966666Y-97174895D01*
X81966666Y-97174895D02*
X81890476Y-97212990D01*
X81890476Y-97212990D02*
X81852381Y-97251085D01*
X81852381Y-97251085D02*
X81814285Y-97327276D01*
X81814285Y-97327276D02*
X81814285Y-97441561D01*
X81814285Y-97441561D02*
X81852381Y-97517752D01*
X81852381Y-97517752D02*
X81890476Y-97555847D01*
X81890476Y-97555847D02*
X81966666Y-97593942D01*
X81966666Y-97593942D02*
X82271428Y-97593942D01*
X81052381Y-97974895D02*
X81509524Y-97974895D01*
X81280952Y-97974895D02*
X81280952Y-97174895D01*
X81280952Y-97174895D02*
X81357143Y-97289180D01*
X81357143Y-97289180D02*
X81433333Y-97365371D01*
X81433333Y-97365371D02*
X81509524Y-97403466D01*
X80366666Y-97441561D02*
X80366666Y-97974895D01*
X80557142Y-97136800D02*
X80747619Y-97708228D01*
X80747619Y-97708228D02*
X80252380Y-97708228D01*
X75614285Y-99874895D02*
X75880952Y-99493942D01*
X76071428Y-99874895D02*
X76071428Y-99074895D01*
X76071428Y-99074895D02*
X75766666Y-99074895D01*
X75766666Y-99074895D02*
X75690476Y-99112990D01*
X75690476Y-99112990D02*
X75652381Y-99151085D01*
X75652381Y-99151085D02*
X75614285Y-99227276D01*
X75614285Y-99227276D02*
X75614285Y-99341561D01*
X75614285Y-99341561D02*
X75652381Y-99417752D01*
X75652381Y-99417752D02*
X75690476Y-99455847D01*
X75690476Y-99455847D02*
X75766666Y-99493942D01*
X75766666Y-99493942D02*
X76071428Y-99493942D01*
X74852381Y-99874895D02*
X75309524Y-99874895D01*
X75080952Y-99874895D02*
X75080952Y-99074895D01*
X75080952Y-99074895D02*
X75157143Y-99189180D01*
X75157143Y-99189180D02*
X75233333Y-99265371D01*
X75233333Y-99265371D02*
X75309524Y-99303466D01*
X74547619Y-99151085D02*
X74509523Y-99112990D01*
X74509523Y-99112990D02*
X74433333Y-99074895D01*
X74433333Y-99074895D02*
X74242857Y-99074895D01*
X74242857Y-99074895D02*
X74166666Y-99112990D01*
X74166666Y-99112990D02*
X74128571Y-99151085D01*
X74128571Y-99151085D02*
X74090476Y-99227276D01*
X74090476Y-99227276D02*
X74090476Y-99303466D01*
X74090476Y-99303466D02*
X74128571Y-99417752D01*
X74128571Y-99417752D02*
X74585714Y-99874895D01*
X74585714Y-99874895D02*
X74090476Y-99874895D01*
X75614285Y-100874895D02*
X75880952Y-100493942D01*
X76071428Y-100874895D02*
X76071428Y-100074895D01*
X76071428Y-100074895D02*
X75766666Y-100074895D01*
X75766666Y-100074895D02*
X75690476Y-100112990D01*
X75690476Y-100112990D02*
X75652381Y-100151085D01*
X75652381Y-100151085D02*
X75614285Y-100227276D01*
X75614285Y-100227276D02*
X75614285Y-100341561D01*
X75614285Y-100341561D02*
X75652381Y-100417752D01*
X75652381Y-100417752D02*
X75690476Y-100455847D01*
X75690476Y-100455847D02*
X75766666Y-100493942D01*
X75766666Y-100493942D02*
X76071428Y-100493942D01*
X74852381Y-100874895D02*
X75309524Y-100874895D01*
X75080952Y-100874895D02*
X75080952Y-100074895D01*
X75080952Y-100074895D02*
X75157143Y-100189180D01*
X75157143Y-100189180D02*
X75233333Y-100265371D01*
X75233333Y-100265371D02*
X75309524Y-100303466D01*
X74090476Y-100874895D02*
X74547619Y-100874895D01*
X74319047Y-100874895D02*
X74319047Y-100074895D01*
X74319047Y-100074895D02*
X74395238Y-100189180D01*
X74395238Y-100189180D02*
X74471428Y-100265371D01*
X74471428Y-100265371D02*
X74547619Y-100303466D01*
X64814285Y-108564895D02*
X65080952Y-108183942D01*
X65271428Y-108564895D02*
X65271428Y-107764895D01*
X65271428Y-107764895D02*
X64966666Y-107764895D01*
X64966666Y-107764895D02*
X64890476Y-107802990D01*
X64890476Y-107802990D02*
X64852381Y-107841085D01*
X64852381Y-107841085D02*
X64814285Y-107917276D01*
X64814285Y-107917276D02*
X64814285Y-108031561D01*
X64814285Y-108031561D02*
X64852381Y-108107752D01*
X64852381Y-108107752D02*
X64890476Y-108145847D01*
X64890476Y-108145847D02*
X64966666Y-108183942D01*
X64966666Y-108183942D02*
X65271428Y-108183942D01*
X64052381Y-108564895D02*
X64509524Y-108564895D01*
X64280952Y-108564895D02*
X64280952Y-107764895D01*
X64280952Y-107764895D02*
X64357143Y-107879180D01*
X64357143Y-107879180D02*
X64433333Y-107955371D01*
X64433333Y-107955371D02*
X64509524Y-107993466D01*
X63557142Y-107764895D02*
X63480952Y-107764895D01*
X63480952Y-107764895D02*
X63404761Y-107802990D01*
X63404761Y-107802990D02*
X63366666Y-107841085D01*
X63366666Y-107841085D02*
X63328571Y-107917276D01*
X63328571Y-107917276D02*
X63290476Y-108069657D01*
X63290476Y-108069657D02*
X63290476Y-108260133D01*
X63290476Y-108260133D02*
X63328571Y-108412514D01*
X63328571Y-108412514D02*
X63366666Y-108488704D01*
X63366666Y-108488704D02*
X63404761Y-108526800D01*
X63404761Y-108526800D02*
X63480952Y-108564895D01*
X63480952Y-108564895D02*
X63557142Y-108564895D01*
X63557142Y-108564895D02*
X63633333Y-108526800D01*
X63633333Y-108526800D02*
X63671428Y-108488704D01*
X63671428Y-108488704D02*
X63709523Y-108412514D01*
X63709523Y-108412514D02*
X63747619Y-108260133D01*
X63747619Y-108260133D02*
X63747619Y-108069657D01*
X63747619Y-108069657D02*
X63709523Y-107917276D01*
X63709523Y-107917276D02*
X63671428Y-107841085D01*
X63671428Y-107841085D02*
X63633333Y-107802990D01*
X63633333Y-107802990D02*
X63557142Y-107764895D01*
X49014285Y-33788704D02*
X49052381Y-33826800D01*
X49052381Y-33826800D02*
X49166666Y-33864895D01*
X49166666Y-33864895D02*
X49242857Y-33864895D01*
X49242857Y-33864895D02*
X49357143Y-33826800D01*
X49357143Y-33826800D02*
X49433333Y-33750609D01*
X49433333Y-33750609D02*
X49471428Y-33674419D01*
X49471428Y-33674419D02*
X49509524Y-33522038D01*
X49509524Y-33522038D02*
X49509524Y-33407752D01*
X49509524Y-33407752D02*
X49471428Y-33255371D01*
X49471428Y-33255371D02*
X49433333Y-33179180D01*
X49433333Y-33179180D02*
X49357143Y-33102990D01*
X49357143Y-33102990D02*
X49242857Y-33064895D01*
X49242857Y-33064895D02*
X49166666Y-33064895D01*
X49166666Y-33064895D02*
X49052381Y-33102990D01*
X49052381Y-33102990D02*
X49014285Y-33141085D01*
X48328571Y-33331561D02*
X48328571Y-33864895D01*
X48519047Y-33026800D02*
X48709524Y-33598228D01*
X48709524Y-33598228D02*
X48214285Y-33598228D01*
X47795238Y-33407752D02*
X47871428Y-33369657D01*
X47871428Y-33369657D02*
X47909523Y-33331561D01*
X47909523Y-33331561D02*
X47947619Y-33255371D01*
X47947619Y-33255371D02*
X47947619Y-33217276D01*
X47947619Y-33217276D02*
X47909523Y-33141085D01*
X47909523Y-33141085D02*
X47871428Y-33102990D01*
X47871428Y-33102990D02*
X47795238Y-33064895D01*
X47795238Y-33064895D02*
X47642857Y-33064895D01*
X47642857Y-33064895D02*
X47566666Y-33102990D01*
X47566666Y-33102990D02*
X47528571Y-33141085D01*
X47528571Y-33141085D02*
X47490476Y-33217276D01*
X47490476Y-33217276D02*
X47490476Y-33255371D01*
X47490476Y-33255371D02*
X47528571Y-33331561D01*
X47528571Y-33331561D02*
X47566666Y-33369657D01*
X47566666Y-33369657D02*
X47642857Y-33407752D01*
X47642857Y-33407752D02*
X47795238Y-33407752D01*
X47795238Y-33407752D02*
X47871428Y-33445847D01*
X47871428Y-33445847D02*
X47909523Y-33483942D01*
X47909523Y-33483942D02*
X47947619Y-33560133D01*
X47947619Y-33560133D02*
X47947619Y-33712514D01*
X47947619Y-33712514D02*
X47909523Y-33788704D01*
X47909523Y-33788704D02*
X47871428Y-33826800D01*
X47871428Y-33826800D02*
X47795238Y-33864895D01*
X47795238Y-33864895D02*
X47642857Y-33864895D01*
X47642857Y-33864895D02*
X47566666Y-33826800D01*
X47566666Y-33826800D02*
X47528571Y-33788704D01*
X47528571Y-33788704D02*
X47490476Y-33712514D01*
X47490476Y-33712514D02*
X47490476Y-33560133D01*
X47490476Y-33560133D02*
X47528571Y-33483942D01*
X47528571Y-33483942D02*
X47566666Y-33445847D01*
X47566666Y-33445847D02*
X47642857Y-33407752D01*
X51314285Y-33688704D02*
X51352381Y-33726800D01*
X51352381Y-33726800D02*
X51466666Y-33764895D01*
X51466666Y-33764895D02*
X51542857Y-33764895D01*
X51542857Y-33764895D02*
X51657143Y-33726800D01*
X51657143Y-33726800D02*
X51733333Y-33650609D01*
X51733333Y-33650609D02*
X51771428Y-33574419D01*
X51771428Y-33574419D02*
X51809524Y-33422038D01*
X51809524Y-33422038D02*
X51809524Y-33307752D01*
X51809524Y-33307752D02*
X51771428Y-33155371D01*
X51771428Y-33155371D02*
X51733333Y-33079180D01*
X51733333Y-33079180D02*
X51657143Y-33002990D01*
X51657143Y-33002990D02*
X51542857Y-32964895D01*
X51542857Y-32964895D02*
X51466666Y-32964895D01*
X51466666Y-32964895D02*
X51352381Y-33002990D01*
X51352381Y-33002990D02*
X51314285Y-33041085D01*
X50628571Y-33231561D02*
X50628571Y-33764895D01*
X50819047Y-32926800D02*
X51009524Y-33498228D01*
X51009524Y-33498228D02*
X50514285Y-33498228D01*
X50285714Y-32964895D02*
X49752380Y-32964895D01*
X49752380Y-32964895D02*
X50095238Y-33764895D01*
X54053704Y-35730714D02*
X54091800Y-35692618D01*
X54091800Y-35692618D02*
X54129895Y-35578333D01*
X54129895Y-35578333D02*
X54129895Y-35502142D01*
X54129895Y-35502142D02*
X54091800Y-35387856D01*
X54091800Y-35387856D02*
X54015609Y-35311666D01*
X54015609Y-35311666D02*
X53939419Y-35273571D01*
X53939419Y-35273571D02*
X53787038Y-35235475D01*
X53787038Y-35235475D02*
X53672752Y-35235475D01*
X53672752Y-35235475D02*
X53520371Y-35273571D01*
X53520371Y-35273571D02*
X53444180Y-35311666D01*
X53444180Y-35311666D02*
X53367990Y-35387856D01*
X53367990Y-35387856D02*
X53329895Y-35502142D01*
X53329895Y-35502142D02*
X53329895Y-35578333D01*
X53329895Y-35578333D02*
X53367990Y-35692618D01*
X53367990Y-35692618D02*
X53406085Y-35730714D01*
X53596561Y-36416428D02*
X54129895Y-36416428D01*
X53291800Y-36225952D02*
X53863228Y-36035475D01*
X53863228Y-36035475D02*
X53863228Y-36530714D01*
X53329895Y-37178333D02*
X53329895Y-37025952D01*
X53329895Y-37025952D02*
X53367990Y-36949761D01*
X53367990Y-36949761D02*
X53406085Y-36911666D01*
X53406085Y-36911666D02*
X53520371Y-36835476D01*
X53520371Y-36835476D02*
X53672752Y-36797380D01*
X53672752Y-36797380D02*
X53977514Y-36797380D01*
X53977514Y-36797380D02*
X54053704Y-36835476D01*
X54053704Y-36835476D02*
X54091800Y-36873571D01*
X54091800Y-36873571D02*
X54129895Y-36949761D01*
X54129895Y-36949761D02*
X54129895Y-37102142D01*
X54129895Y-37102142D02*
X54091800Y-37178333D01*
X54091800Y-37178333D02*
X54053704Y-37216428D01*
X54053704Y-37216428D02*
X53977514Y-37254523D01*
X53977514Y-37254523D02*
X53787038Y-37254523D01*
X53787038Y-37254523D02*
X53710847Y-37216428D01*
X53710847Y-37216428D02*
X53672752Y-37178333D01*
X53672752Y-37178333D02*
X53634657Y-37102142D01*
X53634657Y-37102142D02*
X53634657Y-36949761D01*
X53634657Y-36949761D02*
X53672752Y-36873571D01*
X53672752Y-36873571D02*
X53710847Y-36835476D01*
X53710847Y-36835476D02*
X53787038Y-36797380D01*
X51704285Y-41438704D02*
X51742381Y-41476800D01*
X51742381Y-41476800D02*
X51856666Y-41514895D01*
X51856666Y-41514895D02*
X51932857Y-41514895D01*
X51932857Y-41514895D02*
X52047143Y-41476800D01*
X52047143Y-41476800D02*
X52123333Y-41400609D01*
X52123333Y-41400609D02*
X52161428Y-41324419D01*
X52161428Y-41324419D02*
X52199524Y-41172038D01*
X52199524Y-41172038D02*
X52199524Y-41057752D01*
X52199524Y-41057752D02*
X52161428Y-40905371D01*
X52161428Y-40905371D02*
X52123333Y-40829180D01*
X52123333Y-40829180D02*
X52047143Y-40752990D01*
X52047143Y-40752990D02*
X51932857Y-40714895D01*
X51932857Y-40714895D02*
X51856666Y-40714895D01*
X51856666Y-40714895D02*
X51742381Y-40752990D01*
X51742381Y-40752990D02*
X51704285Y-40791085D01*
X51018571Y-40981561D02*
X51018571Y-41514895D01*
X51209047Y-40676800D02*
X51399524Y-41248228D01*
X51399524Y-41248228D02*
X50904285Y-41248228D01*
X50218571Y-40714895D02*
X50599523Y-40714895D01*
X50599523Y-40714895D02*
X50637619Y-41095847D01*
X50637619Y-41095847D02*
X50599523Y-41057752D01*
X50599523Y-41057752D02*
X50523333Y-41019657D01*
X50523333Y-41019657D02*
X50332857Y-41019657D01*
X50332857Y-41019657D02*
X50256666Y-41057752D01*
X50256666Y-41057752D02*
X50218571Y-41095847D01*
X50218571Y-41095847D02*
X50180476Y-41172038D01*
X50180476Y-41172038D02*
X50180476Y-41362514D01*
X50180476Y-41362514D02*
X50218571Y-41438704D01*
X50218571Y-41438704D02*
X50256666Y-41476800D01*
X50256666Y-41476800D02*
X50332857Y-41514895D01*
X50332857Y-41514895D02*
X50523333Y-41514895D01*
X50523333Y-41514895D02*
X50599523Y-41476800D01*
X50599523Y-41476800D02*
X50637619Y-41438704D01*
X49744285Y-38138704D02*
X49782381Y-38176800D01*
X49782381Y-38176800D02*
X49896666Y-38214895D01*
X49896666Y-38214895D02*
X49972857Y-38214895D01*
X49972857Y-38214895D02*
X50087143Y-38176800D01*
X50087143Y-38176800D02*
X50163333Y-38100609D01*
X50163333Y-38100609D02*
X50201428Y-38024419D01*
X50201428Y-38024419D02*
X50239524Y-37872038D01*
X50239524Y-37872038D02*
X50239524Y-37757752D01*
X50239524Y-37757752D02*
X50201428Y-37605371D01*
X50201428Y-37605371D02*
X50163333Y-37529180D01*
X50163333Y-37529180D02*
X50087143Y-37452990D01*
X50087143Y-37452990D02*
X49972857Y-37414895D01*
X49972857Y-37414895D02*
X49896666Y-37414895D01*
X49896666Y-37414895D02*
X49782381Y-37452990D01*
X49782381Y-37452990D02*
X49744285Y-37491085D01*
X49058571Y-37681561D02*
X49058571Y-38214895D01*
X49249047Y-37376800D02*
X49439524Y-37948228D01*
X49439524Y-37948228D02*
X48944285Y-37948228D01*
X48296666Y-37681561D02*
X48296666Y-38214895D01*
X48487142Y-37376800D02*
X48677619Y-37948228D01*
X48677619Y-37948228D02*
X48182380Y-37948228D01*
X51814285Y-40238704D02*
X51852381Y-40276800D01*
X51852381Y-40276800D02*
X51966666Y-40314895D01*
X51966666Y-40314895D02*
X52042857Y-40314895D01*
X52042857Y-40314895D02*
X52157143Y-40276800D01*
X52157143Y-40276800D02*
X52233333Y-40200609D01*
X52233333Y-40200609D02*
X52271428Y-40124419D01*
X52271428Y-40124419D02*
X52309524Y-39972038D01*
X52309524Y-39972038D02*
X52309524Y-39857752D01*
X52309524Y-39857752D02*
X52271428Y-39705371D01*
X52271428Y-39705371D02*
X52233333Y-39629180D01*
X52233333Y-39629180D02*
X52157143Y-39552990D01*
X52157143Y-39552990D02*
X52042857Y-39514895D01*
X52042857Y-39514895D02*
X51966666Y-39514895D01*
X51966666Y-39514895D02*
X51852381Y-39552990D01*
X51852381Y-39552990D02*
X51814285Y-39591085D01*
X51128571Y-39781561D02*
X51128571Y-40314895D01*
X51319047Y-39476800D02*
X51509524Y-40048228D01*
X51509524Y-40048228D02*
X51014285Y-40048228D01*
X50785714Y-39514895D02*
X50290476Y-39514895D01*
X50290476Y-39514895D02*
X50557142Y-39819657D01*
X50557142Y-39819657D02*
X50442857Y-39819657D01*
X50442857Y-39819657D02*
X50366666Y-39857752D01*
X50366666Y-39857752D02*
X50328571Y-39895847D01*
X50328571Y-39895847D02*
X50290476Y-39972038D01*
X50290476Y-39972038D02*
X50290476Y-40162514D01*
X50290476Y-40162514D02*
X50328571Y-40238704D01*
X50328571Y-40238704D02*
X50366666Y-40276800D01*
X50366666Y-40276800D02*
X50442857Y-40314895D01*
X50442857Y-40314895D02*
X50671428Y-40314895D01*
X50671428Y-40314895D02*
X50747619Y-40276800D01*
X50747619Y-40276800D02*
X50785714Y-40238704D01*
X47644285Y-42338704D02*
X47682381Y-42376800D01*
X47682381Y-42376800D02*
X47796666Y-42414895D01*
X47796666Y-42414895D02*
X47872857Y-42414895D01*
X47872857Y-42414895D02*
X47987143Y-42376800D01*
X47987143Y-42376800D02*
X48063333Y-42300609D01*
X48063333Y-42300609D02*
X48101428Y-42224419D01*
X48101428Y-42224419D02*
X48139524Y-42072038D01*
X48139524Y-42072038D02*
X48139524Y-41957752D01*
X48139524Y-41957752D02*
X48101428Y-41805371D01*
X48101428Y-41805371D02*
X48063333Y-41729180D01*
X48063333Y-41729180D02*
X47987143Y-41652990D01*
X47987143Y-41652990D02*
X47872857Y-41614895D01*
X47872857Y-41614895D02*
X47796666Y-41614895D01*
X47796666Y-41614895D02*
X47682381Y-41652990D01*
X47682381Y-41652990D02*
X47644285Y-41691085D01*
X46958571Y-41881561D02*
X46958571Y-42414895D01*
X47149047Y-41576800D02*
X47339524Y-42148228D01*
X47339524Y-42148228D02*
X46844285Y-42148228D01*
X46577619Y-41691085D02*
X46539523Y-41652990D01*
X46539523Y-41652990D02*
X46463333Y-41614895D01*
X46463333Y-41614895D02*
X46272857Y-41614895D01*
X46272857Y-41614895D02*
X46196666Y-41652990D01*
X46196666Y-41652990D02*
X46158571Y-41691085D01*
X46158571Y-41691085D02*
X46120476Y-41767276D01*
X46120476Y-41767276D02*
X46120476Y-41843466D01*
X46120476Y-41843466D02*
X46158571Y-41957752D01*
X46158571Y-41957752D02*
X46615714Y-42414895D01*
X46615714Y-42414895D02*
X46120476Y-42414895D01*
X54119895Y-38110714D02*
X53738942Y-37844047D01*
X54119895Y-37653571D02*
X53319895Y-37653571D01*
X53319895Y-37653571D02*
X53319895Y-37958333D01*
X53319895Y-37958333D02*
X53357990Y-38034523D01*
X53357990Y-38034523D02*
X53396085Y-38072618D01*
X53396085Y-38072618D02*
X53472276Y-38110714D01*
X53472276Y-38110714D02*
X53586561Y-38110714D01*
X53586561Y-38110714D02*
X53662752Y-38072618D01*
X53662752Y-38072618D02*
X53700847Y-38034523D01*
X53700847Y-38034523D02*
X53738942Y-37958333D01*
X53738942Y-37958333D02*
X53738942Y-37653571D01*
X53396085Y-38415475D02*
X53357990Y-38453571D01*
X53357990Y-38453571D02*
X53319895Y-38529761D01*
X53319895Y-38529761D02*
X53319895Y-38720237D01*
X53319895Y-38720237D02*
X53357990Y-38796428D01*
X53357990Y-38796428D02*
X53396085Y-38834523D01*
X53396085Y-38834523D02*
X53472276Y-38872618D01*
X53472276Y-38872618D02*
X53548466Y-38872618D01*
X53548466Y-38872618D02*
X53662752Y-38834523D01*
X53662752Y-38834523D02*
X54119895Y-38377380D01*
X54119895Y-38377380D02*
X54119895Y-38872618D01*
X54119895Y-39634523D02*
X54119895Y-39177380D01*
X54119895Y-39405952D02*
X53319895Y-39405952D01*
X53319895Y-39405952D02*
X53434180Y-39329761D01*
X53434180Y-39329761D02*
X53510371Y-39253571D01*
X53510371Y-39253571D02*
X53548466Y-39177380D01*
%TO.C,U16*%
X78455000Y-92395000D02*
X79855000Y-92395000D01*
X78455000Y-89195000D02*
X78455000Y-92395000D01*
X79855000Y-92395000D02*
X81655000Y-92395000D01*
X81655000Y-92395000D02*
X81655000Y-89195000D01*
X81655000Y-89195000D02*
X78455000Y-89195000D01*
%TO.C,U8*%
X78455000Y-102605000D02*
X79855000Y-102605000D01*
X78455000Y-99405000D02*
X78455000Y-102605000D01*
X79855000Y-102605000D02*
X81655000Y-102605000D01*
X81655000Y-102605000D02*
X81655000Y-99405000D01*
X81655000Y-99405000D02*
X78455000Y-99405000D01*
D12*
%TO.C,R36*%
X69036359Y-101080000D02*
X69343641Y-101080000D01*
X69036359Y-100320000D02*
X69343641Y-100320000D01*
%TO.C,R37*%
X68236359Y-105780000D02*
X68543641Y-105780000D01*
X68236359Y-105020000D02*
X68543641Y-105020000D01*
%TO.C,C40*%
X44372164Y-65060000D02*
X44587836Y-65060000D01*
X44372164Y-64340000D02*
X44587836Y-64340000D01*
%TO.C,U11*%
X71490000Y-74550000D02*
X70140000Y-74550000D01*
X71490000Y-78070000D02*
X70140000Y-78070000D01*
X72295000Y-74640000D02*
X72015000Y-74640000D01*
X72015000Y-74360000D01*
X72295000Y-74640000D01*
G36*
X72295000Y-74640000D02*
G01*
X72015000Y-74640000D01*
X72015000Y-74360000D01*
X72295000Y-74640000D01*
G37*
%TO.C,J4*%
X73065000Y-69975000D02*
X76675000Y-69975000D01*
X78375000Y-69975000D02*
X83075000Y-69975000D01*
X84375000Y-69975000D02*
X86175000Y-69975000D01*
X73065000Y-70425000D02*
X73065000Y-69975000D01*
X89335000Y-71005000D02*
X89135000Y-70805000D01*
X89335000Y-71005000D02*
X89335000Y-72865000D01*
X89335000Y-72865000D02*
X89135000Y-73075000D01*
X88985000Y-73075000D02*
X89135000Y-73075000D01*
X88985000Y-73075000D02*
X88985000Y-79445000D01*
X89335000Y-79955000D02*
X88985000Y-79445000D01*
X73065000Y-82025000D02*
X73065000Y-83945000D01*
X89335000Y-82265000D02*
X89335000Y-79955000D01*
X89335000Y-82265000D02*
X89135000Y-82465000D01*
X89135000Y-82465000D02*
X89135000Y-82725000D01*
X73065000Y-83945000D02*
X87075000Y-83945000D01*
%TO.C,R24*%
X70661359Y-71505000D02*
X70968641Y-71505000D01*
X70661359Y-70745000D02*
X70968641Y-70745000D01*
%TO.C,U10*%
X73403229Y-49050000D02*
X73212311Y-49240919D01*
X69500000Y-52953229D02*
X69690919Y-52762311D01*
X71451615Y-47098385D02*
X73403229Y-49050000D01*
X71451615Y-47098385D02*
X69500000Y-45146771D01*
X67548385Y-51001615D02*
X69500000Y-52953229D01*
X67548385Y-51001615D02*
X65596771Y-49050000D01*
X69500000Y-45146771D02*
X69309081Y-45337689D01*
X65596771Y-49050000D02*
X65787689Y-48859081D01*
X74156298Y-49718216D02*
X73753247Y-49781856D01*
X73816887Y-49378805D01*
X74156298Y-49718216D01*
G36*
X74156298Y-49718216D02*
G01*
X73753247Y-49781856D01*
X73816887Y-49378805D01*
X74156298Y-49718216D01*
G37*
%TO.C,C17*%
X67108601Y-39867718D02*
X67261104Y-40020221D01*
X67617718Y-39358601D02*
X67770221Y-39511104D01*
%TO.C,C16*%
X55569190Y-62128307D02*
X55721693Y-62280810D01*
X56078307Y-61619190D02*
X56230810Y-61771693D01*
%TO.C,C20*%
X56830810Y-63971693D02*
X56678307Y-63819190D01*
X56321693Y-64480810D02*
X56169190Y-64328307D01*
%TO.C,C10*%
X59430811Y-66371693D02*
X59278308Y-66219190D01*
X58921694Y-66880810D02*
X58769191Y-66728307D01*
%TO.C,C12*%
X78941739Y-46757464D02*
X78789236Y-46604961D01*
X78432622Y-47266581D02*
X78280119Y-47114078D01*
%TO.C,C13*%
X80738896Y-57220221D02*
X80891399Y-57067718D01*
X80229779Y-56711104D02*
X80382282Y-56558601D01*
%TO.C,C15*%
X54829779Y-62849485D02*
X54982282Y-63001988D01*
X55338896Y-62340368D02*
X55491399Y-62492871D01*
%TO.C,C11*%
X77602328Y-45418053D02*
X77449825Y-45265550D01*
X77093211Y-45927170D02*
X76940708Y-45774667D01*
%TO.C,C14*%
X65782282Y-70958601D02*
X65629779Y-71111104D01*
X66291399Y-71467718D02*
X66138896Y-71620221D01*
%TO.C,C19*%
X75480118Y-48914078D02*
X75632621Y-49066581D01*
X75989235Y-48404961D02*
X76141738Y-48557464D01*
%TO.C,C18*%
X67908601Y-39067718D02*
X68061104Y-39220221D01*
X68417718Y-38558601D02*
X68570221Y-38711104D01*
%TO.C,C22*%
X48969190Y-57128307D02*
X49121693Y-57280810D01*
X49478307Y-56619190D02*
X49630810Y-56771693D01*
%TO.C,C27*%
X62617718Y-38341399D02*
X62770221Y-38188896D01*
X62108601Y-37832282D02*
X62261104Y-37679779D01*
%TO.C,C24*%
X51017719Y-49941399D02*
X51170222Y-49788896D01*
X50508602Y-49432282D02*
X50661105Y-49279779D01*
%TO.C,C32*%
X60908601Y-69267718D02*
X61061104Y-69420221D01*
X61417718Y-68758601D02*
X61570221Y-68911104D01*
%TO.C,C21*%
X51508601Y-59667719D02*
X51661104Y-59820222D01*
X52017718Y-59158602D02*
X52170221Y-59311105D01*
%TO.C,C23*%
X49617719Y-51341399D02*
X49770222Y-51188896D01*
X49108602Y-50832282D02*
X49261105Y-50679779D01*
%TO.C,C25*%
X54338897Y-46620221D02*
X54491400Y-46467718D01*
X53829780Y-46111104D02*
X53982283Y-45958601D01*
%TO.C,C26*%
X56478307Y-44480810D02*
X56630810Y-44328307D01*
X55969190Y-43971693D02*
X56121693Y-43819190D01*
%TO.C,C29*%
X73429779Y-44388895D02*
X73582282Y-44541398D01*
X73938896Y-43879778D02*
X74091399Y-44032281D01*
%TO.C,C30*%
X79629780Y-50588896D02*
X79782283Y-50741399D01*
X80138897Y-50079779D02*
X80291400Y-50232282D01*
%TO.C,C31*%
X76769190Y-50328307D02*
X76921693Y-50480810D01*
X77278307Y-49819190D02*
X77430810Y-49971693D01*
%TO.C,C28*%
X66591399Y-36682282D02*
X66438896Y-36529779D01*
X66082282Y-37191399D02*
X65929779Y-37038896D01*
%TO.C,C36*%
X67478307Y-70280810D02*
X67630810Y-70128307D01*
X66969190Y-69771693D02*
X67121693Y-69619190D01*
%TO.C,C33*%
X73061104Y-64079779D02*
X72908601Y-64232282D01*
X73570221Y-64588896D02*
X73417718Y-64741399D01*
%TO.C,C34*%
X82278308Y-55680810D02*
X82430811Y-55528307D01*
X81769191Y-55171693D02*
X81921694Y-55019190D01*
%TO.C,C35*%
X68538896Y-71420221D02*
X68691399Y-71267718D01*
X68029779Y-70911104D02*
X68182282Y-70758601D01*
%TO.C,C51*%
X69881149Y-44096875D02*
X69728646Y-43944372D01*
X69372032Y-44605992D02*
X69219529Y-44453489D01*
%TO.C,L3*%
X78043503Y-48447096D02*
X77813298Y-48216891D01*
X77322254Y-49168345D02*
X77092049Y-48938140D01*
%TO.C,L1*%
X65174061Y-39934933D02*
X65404266Y-40165138D01*
X65895310Y-39213684D02*
X66125515Y-39443889D01*
%TO.C,L2*%
X74935201Y-46781292D02*
X75165406Y-47011497D01*
X75656450Y-46060043D02*
X75886655Y-46290248D01*
%TO.C,R4*%
X68912282Y-38049369D02*
X69129563Y-38266650D01*
X69449683Y-37511968D02*
X69666964Y-37729249D01*
%TO.C,R5*%
X82090187Y-56951344D02*
X81872906Y-57168625D01*
X82627588Y-57488745D02*
X82410307Y-57706026D01*
%TO.C,R6*%
X77939940Y-58772659D02*
X77722659Y-58989940D01*
X78477341Y-59310060D02*
X78260060Y-59527341D01*
%TO.C,R23*%
X73788269Y-47875711D02*
X73570988Y-47658430D01*
X73250868Y-48413112D02*
X73033587Y-48195831D01*
%TO.C,C39*%
X75821693Y-61319190D02*
X75669190Y-61471693D01*
X76330810Y-61828307D02*
X76178307Y-61980810D01*
%TO.C,U17*%
X75763173Y-39065578D02*
X74766152Y-40062599D01*
X77396590Y-40713137D02*
X76406640Y-41703087D01*
X76060158Y-38839304D02*
X75657107Y-38775665D01*
X75996518Y-38436253D01*
X76060158Y-38839304D01*
G36*
X76060158Y-38839304D02*
G01*
X75657107Y-38775665D01*
X75996518Y-38436253D01*
X76060158Y-38839304D01*
G37*
%TO.C,U5*%
X60460000Y-108260000D02*
X60460000Y-108030000D01*
X59730000Y-103540000D02*
X60160000Y-103540000D01*
X59730000Y-108260000D02*
X60460000Y-108260000D01*
X58470000Y-103540000D02*
X57740000Y-103540000D01*
X58470000Y-108260000D02*
X57740000Y-108260000D01*
X57740000Y-103540000D02*
X57740000Y-103770000D01*
X57740000Y-108260000D02*
X57740000Y-108030000D01*
X60460000Y-103540000D02*
X60220000Y-103210000D01*
X60700000Y-103210000D01*
X60460000Y-103540000D01*
G36*
X60460000Y-103540000D02*
G01*
X60220000Y-103210000D01*
X60700000Y-103210000D01*
X60460000Y-103540000D01*
G37*
%TO.C,R44*%
X50553641Y-104720000D02*
X50246359Y-104720000D01*
X50553641Y-105480000D02*
X50246359Y-105480000D01*
%TO.C,R43*%
X50543642Y-103620000D02*
X50236360Y-103620000D01*
X50543642Y-104380000D02*
X50236360Y-104380000D01*
%TO.C,R42*%
X77650564Y-41612035D02*
X77433283Y-41829316D01*
X78187965Y-42149436D02*
X77970684Y-42366717D01*
%TO.C,R39*%
X56730000Y-109650000D02*
X56730000Y-110150000D01*
X54370000Y-109650000D02*
X54370000Y-110150000D01*
%TO.C,R38*%
X50350000Y-95130000D02*
X49850000Y-95130000D01*
X50350000Y-92770000D02*
X49850000Y-92770000D01*
%TO.C,R35*%
X78946359Y-93580000D02*
X79253641Y-93580000D01*
X78946359Y-92820000D02*
X79253641Y-92820000D01*
%TO.C,R34*%
X81253641Y-92820000D02*
X80946359Y-92820000D01*
X81253641Y-93580000D02*
X80946359Y-93580000D01*
%TO.C,R33*%
X77253641Y-90736000D02*
X76946359Y-90736000D01*
X77253641Y-91496000D02*
X76946359Y-91496000D01*
%TO.C,R32*%
X76946359Y-92480000D02*
X77253641Y-92480000D01*
X76946359Y-91720000D02*
X77253641Y-91720000D01*
%TO.C,R31*%
X78936359Y-88780000D02*
X79243641Y-88780000D01*
X78936359Y-88020000D02*
X79243641Y-88020000D01*
%TO.C,R30*%
X81273640Y-88020000D02*
X80966358Y-88020000D01*
X81273640Y-88780000D02*
X80966358Y-88780000D01*
%TO.C,R29*%
X77253641Y-88720000D02*
X76946359Y-88720000D01*
X77253641Y-89480000D02*
X76946359Y-89480000D01*
%TO.C,R28*%
X76946359Y-90480000D02*
X77253641Y-90480000D01*
X76946359Y-89720000D02*
X77253641Y-89720000D01*
%TO.C,R27*%
X78946359Y-103790000D02*
X79253641Y-103790000D01*
X78946359Y-103030000D02*
X79253641Y-103030000D01*
%TO.C,R26*%
X81253641Y-103030000D02*
X80946359Y-103030000D01*
X81253641Y-103790000D02*
X80946359Y-103790000D01*
%TO.C,R25*%
X77263640Y-101130000D02*
X76956358Y-101130000D01*
X77263640Y-101890000D02*
X76956358Y-101890000D01*
%TO.C,R22*%
X46976359Y-40430000D02*
X47283641Y-40430000D01*
X46976359Y-39670000D02*
X47283641Y-39670000D01*
%TO.C,R20*%
X48546359Y-31330000D02*
X48853641Y-31330000D01*
X48546359Y-30570000D02*
X48853641Y-30570000D01*
%TO.C,R19*%
X76956358Y-102890000D02*
X77263640Y-102890000D01*
X76956358Y-102130000D02*
X77263640Y-102130000D01*
%TO.C,R16*%
X78946359Y-98990000D02*
X79253641Y-98990000D01*
X78946359Y-98230000D02*
X79253641Y-98230000D01*
%TO.C,R14*%
X81253641Y-98230000D02*
X80946359Y-98230000D01*
X81253641Y-98990000D02*
X80946359Y-98990000D01*
%TO.C,R12*%
X77263640Y-99130000D02*
X76956358Y-99130000D01*
X77263640Y-99890000D02*
X76956358Y-99890000D01*
%TO.C,R11*%
X76946359Y-100890000D02*
X77253641Y-100890000D01*
X76946359Y-100130000D02*
X77253641Y-100130000D01*
%TO.C,R10*%
X62453641Y-107820000D02*
X62146359Y-107820000D01*
X62453641Y-108580000D02*
X62146359Y-108580000D01*
%TO.C,C48*%
X48592164Y-32310000D02*
X48807836Y-32310000D01*
X48592164Y-31590000D02*
X48807836Y-31590000D01*
%TO.C,C47*%
X50727836Y-31590000D02*
X50512164Y-31590000D01*
X50727836Y-32310000D02*
X50512164Y-32310000D01*
%TO.C,C46*%
X54565000Y-36137164D02*
X54565000Y-36352836D01*
X55285000Y-36137164D02*
X55285000Y-36352836D01*
%TO.C,C45*%
X49082164Y-41410000D02*
X49297836Y-41410000D01*
X49082164Y-40690000D02*
X49297836Y-40690000D01*
%TO.C,C44*%
X48922164Y-39210000D02*
X49137836Y-39210000D01*
X48922164Y-38490000D02*
X49137836Y-38490000D01*
%TO.C,C43*%
X49082164Y-40410000D02*
X49297836Y-40410000D01*
X49082164Y-39690000D02*
X49297836Y-39690000D01*
%TO.C,C42*%
X47237836Y-40690000D02*
X47022164Y-40690000D01*
X47237836Y-41410000D02*
X47022164Y-41410000D01*
%TO.C,R21*%
X54545000Y-38471359D02*
X54545000Y-38778641D01*
X55305000Y-38471359D02*
X55305000Y-38778641D01*
%TD*%
%LPC*%
D13*
%TO.C,U16*%
X78535000Y-91770000D03*
X78535000Y-91120000D03*
X78535000Y-90470000D03*
X78535000Y-89820000D03*
D14*
X80500000Y-91490000D03*
D15*
X80500000Y-90100000D03*
%TD*%
D13*
%TO.C,U8*%
X78535000Y-101980000D03*
X78535000Y-101330000D03*
X78535000Y-100680000D03*
X78535000Y-100030000D03*
D14*
X80500000Y-101700000D03*
D15*
X80500000Y-100310000D03*
%TD*%
D16*
%TO.C,R36*%
X68680000Y-100700000D03*
X69700000Y-100700000D03*
%TD*%
D17*
%TO.C,C1*%
X74400000Y-110402651D03*
D18*
X74400000Y-105402651D03*
%TD*%
D19*
%TO.C,BATT1*%
X70000000Y-116000000D03*
D20*
X75000000Y-116000000D03*
%TD*%
D16*
%TO.C,R37*%
X67880000Y-105400000D03*
X68900000Y-105400000D03*
%TD*%
D21*
%TO.C,PYRO_TERM1*%
X86000000Y-109860000D03*
D22*
X86000000Y-107320000D03*
X86000000Y-104780000D03*
X86000000Y-102240000D03*
X86000000Y-99700000D03*
X86000000Y-97160000D03*
X86000000Y-94620000D03*
X86000000Y-92080000D03*
X86000000Y-89540000D03*
X86000000Y-87000000D03*
%TD*%
D23*
%TO.C,C40*%
X44000000Y-64700000D03*
X44960000Y-64700000D03*
%TD*%
D24*
%TO.C,J1*%
X64090000Y-77635000D03*
X59010000Y-78651000D03*
X59010000Y-76619000D03*
%TD*%
D25*
%TO.C,H2*%
X86000000Y-24000000D03*
%TD*%
%TO.C,H3*%
X44000000Y-24000000D03*
%TD*%
D26*
%TO.C,U11*%
X71527500Y-74910000D03*
X71527500Y-75310000D03*
X71527500Y-75710000D03*
X71527500Y-76110000D03*
X71527500Y-76510000D03*
X71527500Y-76910000D03*
X71527500Y-77310000D03*
X71527500Y-77710000D03*
X70102500Y-77710000D03*
X70102500Y-77310000D03*
X70102500Y-76910000D03*
X70102500Y-76510000D03*
X70102500Y-76110000D03*
X70102500Y-75710000D03*
X70102500Y-75310000D03*
X70102500Y-74910000D03*
D27*
X70815000Y-76310000D03*
%TD*%
D28*
%TO.C,J4*%
X73225000Y-79725000D03*
X73225000Y-78625000D03*
X73225000Y-77525000D03*
X73225000Y-76425000D03*
X73225000Y-75325000D03*
X73225000Y-74225000D03*
X73225000Y-73125000D03*
X73225000Y-72025000D03*
X73225000Y-71075000D03*
D29*
X83725000Y-70125000D03*
D30*
X77525000Y-70125000D03*
D31*
X87875000Y-70125000D03*
D30*
X73225000Y-81275000D03*
D32*
X88325000Y-83625000D03*
%TD*%
D16*
%TO.C,R24*%
X70305000Y-71125000D03*
X71325000Y-71125000D03*
%TD*%
D33*
%TO.C,U10*%
X73383784Y-50239707D03*
X72485758Y-51137733D03*
X71587733Y-52035758D03*
X70689707Y-52933784D03*
X65616216Y-47860293D03*
X66514242Y-46962267D03*
X67412267Y-46064242D03*
X68310293Y-45166216D03*
%TD*%
D34*
%TO.C,C17*%
X67100000Y-39350000D03*
X67778822Y-40028822D03*
%TD*%
%TO.C,C16*%
X55560589Y-61610589D03*
X56239411Y-62289411D03*
%TD*%
D35*
%TO.C,C20*%
X56839411Y-64489411D03*
X56160589Y-63810589D03*
%TD*%
%TO.C,C10*%
X59439412Y-66889411D03*
X58760590Y-66210589D03*
%TD*%
%TO.C,C12*%
X78950340Y-47275182D03*
X78271518Y-46596360D03*
%TD*%
D36*
%TO.C,C13*%
X80221178Y-57228822D03*
X80900000Y-56550000D03*
%TD*%
D34*
%TO.C,C15*%
X54821178Y-62331767D03*
X55500000Y-63010589D03*
%TD*%
D35*
%TO.C,C11*%
X77610929Y-45935771D03*
X76932107Y-45256949D03*
%TD*%
D37*
%TO.C,C14*%
X66300000Y-70950000D03*
X65621178Y-71628822D03*
%TD*%
D34*
%TO.C,C19*%
X75471517Y-48396360D03*
X76150339Y-49075182D03*
%TD*%
%TO.C,C18*%
X67900000Y-38550000D03*
X68578822Y-39228822D03*
%TD*%
%TO.C,C22*%
X48960589Y-56610589D03*
X49639411Y-57289411D03*
%TD*%
D36*
%TO.C,C27*%
X62100000Y-38350000D03*
X62778822Y-37671178D03*
%TD*%
%TO.C,C24*%
X50500001Y-49950000D03*
X51178823Y-49271178D03*
%TD*%
D34*
%TO.C,C32*%
X60900000Y-68750000D03*
X61578822Y-69428822D03*
%TD*%
%TO.C,C21*%
X51500000Y-59150001D03*
X52178822Y-59828823D03*
%TD*%
D36*
%TO.C,C23*%
X49100001Y-51350000D03*
X49778823Y-50671178D03*
%TD*%
%TO.C,C25*%
X53821179Y-46628822D03*
X54500001Y-45950000D03*
%TD*%
%TO.C,C26*%
X55960589Y-44489411D03*
X56639411Y-43810589D03*
%TD*%
D34*
%TO.C,C29*%
X73421178Y-43871177D03*
X74100000Y-44549999D03*
%TD*%
%TO.C,C30*%
X79621179Y-50071178D03*
X80300001Y-50750000D03*
%TD*%
%TO.C,C31*%
X76760589Y-49810589D03*
X77439411Y-50489411D03*
%TD*%
D35*
%TO.C,C28*%
X66600000Y-37200000D03*
X65921178Y-36521178D03*
%TD*%
D36*
%TO.C,C36*%
X66960589Y-70289411D03*
X67639411Y-69610589D03*
%TD*%
D37*
%TO.C,C33*%
X73578822Y-64071178D03*
X72900000Y-64750000D03*
%TD*%
D36*
%TO.C,C34*%
X81760590Y-55689411D03*
X82439412Y-55010589D03*
%TD*%
%TO.C,C35*%
X68021178Y-71428822D03*
X68700000Y-70750000D03*
%TD*%
D35*
%TO.C,C51*%
X69889750Y-44614593D03*
X69210928Y-43935771D03*
%TD*%
D38*
%TO.C,L3*%
X78124623Y-49249465D03*
X77010929Y-48135771D03*
%TD*%
D39*
%TO.C,J3*%
X46855000Y-77510000D03*
X46855000Y-83290000D03*
D40*
X47355000Y-76080000D03*
D41*
X43175000Y-76080000D03*
D40*
X47355000Y-84720000D03*
D41*
X43175000Y-84720000D03*
%TD*%
D42*
%TO.C,L1*%
X65092941Y-39132564D03*
X66206635Y-40246258D03*
%TD*%
%TO.C,L2*%
X74854081Y-45978923D03*
X75967775Y-47092617D03*
%TD*%
D43*
%TO.C,R4*%
X68928999Y-37528685D03*
X69650247Y-38249933D03*
%TD*%
D44*
%TO.C,R5*%
X82610871Y-56968061D03*
X81889623Y-57689309D03*
%TD*%
%TO.C,R6*%
X78460624Y-58789376D03*
X77739376Y-59510624D03*
%TD*%
D45*
%TO.C,R23*%
X73771552Y-48396395D03*
X73050304Y-47675147D03*
%TD*%
D37*
%TO.C,C39*%
X76339411Y-61310589D03*
X75660589Y-61989411D03*
%TD*%
D46*
%TO.C,U17*%
X76293503Y-39256497D03*
X76753122Y-39716117D03*
X77212742Y-40175736D03*
X75869239Y-41519239D03*
X74950000Y-40600000D03*
%TD*%
D47*
%TO.C,ARM1*%
X44000000Y-102580000D03*
D22*
X44000000Y-105120000D03*
X44000000Y-107660000D03*
X44000000Y-110200000D03*
%TD*%
D25*
%TO.C,H4*%
X86000000Y-116000000D03*
%TD*%
%TO.C,H1*%
X44000000Y-116000000D03*
%TD*%
D48*
%TO.C,PWM0*%
X47140000Y-88000001D03*
D49*
X44600000Y-88000001D03*
X42060000Y-88000001D03*
%TD*%
D48*
%TO.C,PWM3*%
X47140000Y-98800000D03*
D49*
X44600000Y-98800000D03*
X42060000Y-98800000D03*
%TD*%
D48*
%TO.C,PWM2*%
X47140000Y-95200000D03*
D49*
X44600000Y-95200000D03*
X42060000Y-95200000D03*
%TD*%
D48*
%TO.C,PWM1*%
X47140000Y-91600000D03*
D49*
X44600000Y-91600000D03*
X42060000Y-91600000D03*
%TD*%
D50*
%TO.C,U5*%
X59350000Y-103600000D03*
D51*
X60400000Y-104150000D03*
X60400000Y-104650000D03*
X60400000Y-105150000D03*
X60400000Y-105650000D03*
X60400000Y-106150000D03*
X60400000Y-106650000D03*
X60400000Y-107150000D03*
X60400000Y-107650000D03*
D50*
X59350000Y-108200000D03*
X58850000Y-108200000D03*
D51*
X57800000Y-107650000D03*
X57800000Y-107150000D03*
X57800000Y-106650000D03*
X57800000Y-106150000D03*
X57800000Y-105650000D03*
X57800000Y-105150000D03*
X57800000Y-104650000D03*
X57800000Y-104150000D03*
D50*
X58850000Y-103600000D03*
D52*
X59100000Y-105900000D03*
%TD*%
D53*
%TO.C,R44*%
X50910000Y-105100000D03*
X49890000Y-105100000D03*
%TD*%
%TO.C,R43*%
X50900001Y-104000000D03*
X49880001Y-104000000D03*
%TD*%
D44*
%TO.C,R42*%
X78171248Y-41628752D03*
X77450000Y-42350000D03*
%TD*%
D54*
%TO.C,R39*%
X56300000Y-110400000D03*
D55*
X55800000Y-110400000D03*
X55300000Y-110400000D03*
D54*
X54800000Y-110400000D03*
X54800000Y-109400000D03*
D55*
X55300000Y-109400000D03*
X55800000Y-109400000D03*
D54*
X56300000Y-109400000D03*
%TD*%
D56*
%TO.C,R38*%
X49600000Y-94700000D03*
D57*
X49600000Y-94200000D03*
X49600000Y-93700000D03*
D56*
X49600000Y-93200000D03*
X50600000Y-93200000D03*
D57*
X50600000Y-93700000D03*
X50600000Y-94200000D03*
D56*
X50600000Y-94700000D03*
%TD*%
D16*
%TO.C,R35*%
X78590000Y-93200000D03*
X79610000Y-93200000D03*
%TD*%
D53*
%TO.C,R34*%
X81610000Y-93200000D03*
X80590000Y-93200000D03*
%TD*%
%TO.C,R33*%
X77610000Y-91116000D03*
X76590000Y-91116000D03*
%TD*%
D16*
%TO.C,R32*%
X76590000Y-92100000D03*
X77610000Y-92100000D03*
%TD*%
%TO.C,R31*%
X78580000Y-88400000D03*
X79600000Y-88400000D03*
%TD*%
D53*
%TO.C,R30*%
X81629999Y-88400000D03*
X80609999Y-88400000D03*
%TD*%
%TO.C,R29*%
X77610000Y-89100000D03*
X76590000Y-89100000D03*
%TD*%
D16*
%TO.C,R28*%
X76590000Y-90100000D03*
X77610000Y-90100000D03*
%TD*%
%TO.C,R27*%
X78590000Y-103410000D03*
X79610000Y-103410000D03*
%TD*%
D53*
%TO.C,R26*%
X81610000Y-103410000D03*
X80590000Y-103410000D03*
%TD*%
%TO.C,R25*%
X77619999Y-101510000D03*
X76599999Y-101510000D03*
%TD*%
D16*
%TO.C,R22*%
X46620000Y-40050000D03*
X47640000Y-40050000D03*
%TD*%
%TO.C,R20*%
X48190000Y-30950000D03*
X49210000Y-30950000D03*
%TD*%
%TO.C,R19*%
X76599999Y-102510000D03*
X77619999Y-102510000D03*
%TD*%
%TO.C,R16*%
X78590000Y-98610000D03*
X79610000Y-98610000D03*
%TD*%
D53*
%TO.C,R14*%
X81610000Y-98610000D03*
X80590000Y-98610000D03*
%TD*%
%TO.C,R12*%
X77619999Y-99510000D03*
X76599999Y-99510000D03*
%TD*%
D16*
%TO.C,R11*%
X76590000Y-100510000D03*
X77610000Y-100510000D03*
%TD*%
D53*
%TO.C,R10*%
X62810000Y-108200000D03*
X61790000Y-108200000D03*
%TD*%
D48*
%TO.C,PWM7*%
X60799999Y-112900000D03*
D49*
X60799999Y-115440000D03*
X60799999Y-117980000D03*
%TD*%
D48*
%TO.C,PWM6*%
X57200000Y-112900000D03*
D49*
X57200000Y-115440000D03*
X57200000Y-117980000D03*
%TD*%
D48*
%TO.C,PWM5*%
X53600001Y-112900000D03*
D49*
X53600001Y-115440000D03*
X53600001Y-117980000D03*
%TD*%
D48*
%TO.C,PWM4*%
X50000000Y-112900000D03*
D49*
X50000000Y-115440000D03*
X50000000Y-117980000D03*
%TD*%
D23*
%TO.C,C48*%
X48220000Y-31950000D03*
X49180000Y-31950000D03*
%TD*%
D58*
%TO.C,C47*%
X51100000Y-31950000D03*
X50140000Y-31950000D03*
%TD*%
D59*
%TO.C,C46*%
X54925000Y-35765000D03*
X54925000Y-36725000D03*
%TD*%
D23*
%TO.C,C45*%
X48710000Y-41050000D03*
X49670000Y-41050000D03*
%TD*%
%TO.C,C44*%
X48550000Y-38850000D03*
X49510000Y-38850000D03*
%TD*%
%TO.C,C43*%
X48710000Y-40050000D03*
X49670000Y-40050000D03*
%TD*%
D58*
%TO.C,C42*%
X47610000Y-41050000D03*
X46650000Y-41050000D03*
%TD*%
D60*
%TO.C,R21*%
X54925000Y-38115000D03*
X54925000Y-39135000D03*
%TD*%
%LPD*%
M02*
