%TF.GenerationSoftware,KiCad,Pcbnew,9.0.1*%
%TF.CreationDate,2025-05-10T22:35:42-04:00*%
%TF.ProjectId,CRVFCU,43525646-4355-42e6-9b69-6361645f7063,rev?*%
%TF.SameCoordinates,Original*%
%TF.FileFunction,Soldermask,Top*%
%TF.FilePolarity,Negative*%
%FSLAX46Y46*%
G04 Gerber Fmt 4.6, Leading zero omitted, Abs format (unit mm)*
G04 Created by KiCad (PCBNEW 9.0.1) date 2025-05-10 22:35:42*
%MOMM*%
%LPD*%
G01*
G04 APERTURE LIST*
G04 Aperture macros list*
%AMRoundRect*
0 Rectangle with rounded corners*
0 $1 Rounding radius*
0 $2 $3 $4 $5 $6 $7 $8 $9 X,Y pos of 4 corners*
0 Add a 4 corners polygon primitive as box body*
4,1,4,$2,$3,$4,$5,$6,$7,$8,$9,$2,$3,0*
0 Add four circle primitives for the rounded corners*
1,1,$1+$1,$2,$3*
1,1,$1+$1,$4,$5*
1,1,$1+$1,$6,$7*
1,1,$1+$1,$8,$9*
0 Add four rect primitives between the rounded corners*
20,1,$1+$1,$2,$3,$4,$5,0*
20,1,$1+$1,$4,$5,$6,$7,0*
20,1,$1+$1,$6,$7,$8,$9,0*
20,1,$1+$1,$8,$9,$2,$3,0*%
%AMRotRect*
0 Rectangle, with rotation*
0 The origin of the aperture is its center*
0 $1 length*
0 $2 width*
0 $3 Rotation angle, in degrees counterclockwise*
0 Add horizontal line*
21,1,$1,$2,0,0,$3*%
G04 Aperture macros list end*
%ADD10R,4.200000X2.000000*%
%ADD11RoundRect,0.218750X-0.218750X-0.256250X0.218750X-0.256250X0.218750X0.256250X-0.218750X0.256250X0*%
%ADD12R,1.600000X1.600000*%
%ADD13C,1.600000*%
%ADD14RoundRect,0.760000X-1.140000X-1.140000X1.140000X-1.140000X1.140000X1.140000X-1.140000X1.140000X0*%
%ADD15C,4.000000*%
%ADD16RoundRect,0.140000X0.170000X-0.140000X0.170000X0.140000X-0.170000X0.140000X-0.170000X-0.140000X0*%
%ADD17RoundRect,0.250001X0.799999X-0.799999X0.799999X0.799999X-0.799999X0.799999X-0.799999X-0.799999X0*%
%ADD18C,2.100000*%
%ADD19RoundRect,0.150000X0.587500X0.150000X-0.587500X0.150000X-0.587500X-0.150000X0.587500X-0.150000X0*%
%ADD20RoundRect,0.100000X0.100000X-0.225000X0.100000X0.225000X-0.100000X0.225000X-0.100000X-0.225000X0*%
%ADD21C,0.787400*%
%ADD22R,0.500000X0.400000*%
%ADD23R,0.500000X0.300000*%
%ADD24C,6.400000*%
%ADD25RotRect,1.000000X1.800000X315.000000*%
%ADD26RoundRect,0.150000X-0.512500X-0.150000X0.512500X-0.150000X0.512500X0.150000X-0.512500X0.150000X0*%
%ADD27RotRect,1.300000X1.100000X225.000000*%
%ADD28RoundRect,0.140000X-0.219203X-0.021213X-0.021213X-0.219203X0.219203X0.021213X0.021213X0.219203X0*%
%ADD29RoundRect,0.140000X0.021213X-0.219203X0.219203X-0.021213X-0.021213X0.219203X-0.219203X0.021213X0*%
%ADD30RoundRect,0.150000X-0.425000X0.150000X-0.425000X-0.150000X0.425000X-0.150000X0.425000X0.150000X0*%
%ADD31RoundRect,0.075000X-0.500000X0.075000X-0.500000X-0.075000X0.500000X-0.075000X0.500000X0.075000X0*%
%ADD32O,2.100000X1.000000*%
%ADD33O,1.800000X1.000000*%
%ADD34RoundRect,0.135000X-0.226274X-0.035355X-0.035355X-0.226274X0.226274X0.035355X0.035355X0.226274X0*%
%ADD35RoundRect,0.135000X0.035355X-0.226274X0.226274X-0.035355X-0.035355X0.226274X-0.226274X0.035355X0*%
%ADD36RoundRect,0.135000X0.135000X0.185000X-0.135000X0.185000X-0.135000X-0.185000X0.135000X-0.185000X0*%
%ADD37RoundRect,0.075000X0.424264X0.530330X-0.530330X-0.424264X-0.424264X-0.530330X0.530330X0.424264X0*%
%ADD38RoundRect,0.075000X-0.424264X0.530330X-0.530330X0.424264X0.424264X-0.530330X0.530330X-0.424264X0*%
%ADD39R,2.180000X1.600000*%
%ADD40RoundRect,0.250000X0.212132X-0.565685X0.565685X-0.212132X-0.212132X0.565685X-0.565685X0.212132X0*%
%ADD41RoundRect,0.375000X-0.625000X-0.375000X0.625000X-0.375000X0.625000X0.375000X-0.625000X0.375000X0*%
%ADD42RoundRect,0.500000X-0.500000X-1.400000X0.500000X-1.400000X0.500000X1.400000X-0.500000X1.400000X0*%
%ADD43RoundRect,0.140000X-0.170000X0.140000X-0.170000X-0.140000X0.170000X-0.140000X0.170000X0.140000X0*%
%ADD44RoundRect,0.225000X-0.225000X-0.375000X0.225000X-0.375000X0.225000X0.375000X-0.225000X0.375000X0*%
%ADD45RoundRect,0.135000X-0.135000X-0.185000X0.135000X-0.185000X0.135000X0.185000X-0.135000X0.185000X0*%
%ADD46RotRect,0.700000X0.700000X45.000000*%
%ADD47RoundRect,0.250001X-0.799999X0.799999X-0.799999X-0.799999X0.799999X-0.799999X0.799999X0.799999X0*%
%ADD48R,1.700000X1.700000*%
%ADD49C,1.700000*%
%ADD50R,1.300000X1.100000*%
%ADD51RoundRect,0.150000X-0.700000X0.150000X-0.700000X-0.150000X0.700000X-0.150000X0.700000X0.150000X0*%
%ADD52RoundRect,0.250000X-1.100000X0.250000X-1.100000X-0.250000X1.100000X-0.250000X1.100000X0.250000X0*%
%ADD53RoundRect,0.062500X0.062500X-0.325000X0.062500X0.325000X-0.062500X0.325000X-0.062500X-0.325000X0*%
%ADD54R,1.200000X0.800000*%
%ADD55RoundRect,0.087500X-0.225000X-0.087500X0.225000X-0.087500X0.225000X0.087500X-0.225000X0.087500X0*%
%ADD56RoundRect,0.087500X-0.087500X-0.225000X0.087500X-0.225000X0.087500X0.225000X-0.087500X0.225000X0*%
%ADD57R,0.375000X0.350000*%
%ADD58R,0.350000X0.375000*%
%ADD59R,0.950000X0.550000*%
%ADD60RoundRect,0.150000X-0.625000X0.150000X-0.625000X-0.150000X0.625000X-0.150000X0.625000X0.150000X0*%
%ADD61RoundRect,0.250000X-0.650000X0.350000X-0.650000X-0.350000X0.650000X-0.350000X0.650000X0.350000X0*%
%ADD62RoundRect,0.150000X0.150000X0.700000X-0.150000X0.700000X-0.150000X-0.700000X0.150000X-0.700000X0*%
%ADD63RoundRect,0.250000X0.250000X1.100000X-0.250000X1.100000X-0.250000X-1.100000X0.250000X-1.100000X0*%
%ADD64RoundRect,0.135000X-0.185000X0.135000X-0.185000X-0.135000X0.185000X-0.135000X0.185000X0.135000X0*%
%ADD65RoundRect,0.135000X0.185000X-0.135000X0.185000X0.135000X-0.185000X0.135000X-0.185000X-0.135000X0*%
%ADD66R,0.400000X0.500000*%
%ADD67RoundRect,0.150000X-0.150000X0.587500X-0.150000X-0.587500X0.150000X-0.587500X0.150000X0.587500X0*%
%ADD68RoundRect,0.150000X-0.587500X-0.150000X0.587500X-0.150000X0.587500X0.150000X-0.587500X0.150000X0*%
%ADD69RoundRect,0.218750X-0.026517X0.335876X-0.335876X0.026517X0.026517X-0.335876X0.335876X-0.026517X0*%
G04 APERTURE END LIST*
D10*
%TO.C,BZ1*%
X71900000Y-84800000D03*
X71900000Y-92800000D03*
%TD*%
D11*
%TO.C,5V_PWR1*%
X68402500Y-100710000D03*
X69977500Y-100710000D03*
%TD*%
%TO.C,3V3_PWR1*%
X67715000Y-105400000D03*
X69290000Y-105400000D03*
%TD*%
D12*
%TO.C,C1*%
X74400000Y-110402651D03*
D13*
X74400000Y-105402651D03*
%TD*%
D14*
%TO.C,BATT1*%
X70000000Y-116000000D03*
D15*
X75000000Y-116000000D03*
%TD*%
D16*
%TO.C,C2*%
X68500000Y-109180000D03*
X68500000Y-108220000D03*
%TD*%
D17*
%TO.C,PYRO_TERM1*%
X86000000Y-109860000D03*
D18*
X86000000Y-107320000D03*
X86000000Y-104780000D03*
X86000000Y-102240000D03*
X86000000Y-99700000D03*
X86000000Y-97160000D03*
X86000000Y-94620000D03*
X86000000Y-92080000D03*
X86000000Y-89540000D03*
X86000000Y-87000000D03*
%TD*%
D19*
%TO.C,Q3*%
X55800002Y-97000000D03*
X55800002Y-95100000D03*
X53925002Y-96050000D03*
%TD*%
D20*
%TO.C,U12*%
X61370000Y-82350000D03*
X62020000Y-82350000D03*
X62670000Y-82350000D03*
X62670000Y-80450000D03*
X61370000Y-80450000D03*
%TD*%
D21*
%TO.C,J1*%
X62820000Y-77000000D03*
X62820000Y-78270000D03*
X61550000Y-77000000D03*
X61550000Y-78270000D03*
X60280000Y-77000000D03*
X60280000Y-78270000D03*
%TD*%
D22*
%TO.C,R1*%
X65070000Y-82050000D03*
D23*
X65070000Y-81550000D03*
X65070000Y-81050000D03*
D22*
X65070000Y-80550000D03*
X64070000Y-80550000D03*
D23*
X64070000Y-81050000D03*
X64070000Y-81550000D03*
D22*
X64070000Y-82050000D03*
%TD*%
D24*
%TO.C,H2*%
X86000000Y-24000000D03*
%TD*%
%TO.C,H3*%
X44000000Y-24000000D03*
%TD*%
D25*
%TO.C,Y1*%
X80894811Y-48419654D03*
X79127045Y-46651888D03*
%TD*%
D26*
%TO.C,U14*%
X50050001Y-79700000D03*
X50050001Y-80650000D03*
X50050001Y-81600000D03*
X52325001Y-81600000D03*
X52325001Y-80650000D03*
X52325001Y-79700000D03*
%TD*%
D27*
%TO.C,Y4*%
X72000000Y-35750000D03*
X70515076Y-37234924D03*
X71681802Y-38401650D03*
X73166726Y-36916726D03*
%TD*%
D28*
%TO.C,C41*%
X70210801Y-39210487D03*
X70889623Y-39889309D03*
%TD*%
D29*
%TO.C,C37*%
X80339105Y-45621593D03*
X81017927Y-44942771D03*
%TD*%
%TO.C,C38*%
X81732106Y-47014592D03*
X82410928Y-46335770D03*
%TD*%
D28*
%TO.C,C50*%
X74174140Y-35709064D03*
X74852962Y-36387886D03*
%TD*%
D30*
%TO.C,J3*%
X47930000Y-77200000D03*
X47930000Y-78000000D03*
D31*
X47930000Y-79150000D03*
X47930000Y-80150000D03*
X47930000Y-80650000D03*
X47930000Y-81650000D03*
D30*
X47930000Y-82800000D03*
X47930000Y-83600000D03*
X47930000Y-83600000D03*
X47930000Y-82800000D03*
D31*
X47930000Y-82150000D03*
X47930000Y-81150000D03*
X47930000Y-79650000D03*
X47930000Y-78650000D03*
D30*
X47930000Y-78000000D03*
X47930000Y-77200000D03*
D32*
X47355000Y-76080000D03*
D33*
X43175000Y-76080000D03*
D32*
X47355000Y-84720000D03*
D33*
X43175000Y-84720000D03*
%TD*%
D34*
%TO.C,R9*%
X72813551Y-34348475D03*
X73534799Y-35069723D03*
%TD*%
D35*
%TO.C,R8*%
X71439376Y-40610624D03*
X72160624Y-39889376D03*
%TD*%
D36*
%TO.C,R17*%
X51060000Y-82900000D03*
X50040000Y-82900000D03*
%TD*%
%TO.C,R13*%
X50610000Y-78300000D03*
X49590000Y-78300000D03*
%TD*%
D37*
%TO.C,U2*%
X81574903Y-52774590D03*
X81221350Y-52421037D03*
X80867797Y-52067484D03*
X80514243Y-51713930D03*
X80160690Y-51360377D03*
X79807136Y-51006823D03*
X79453583Y-50653270D03*
X79100030Y-50299717D03*
X78746476Y-49946163D03*
X78392923Y-49592610D03*
X78039369Y-49239057D03*
X77685816Y-48885503D03*
X77332263Y-48531950D03*
X76978709Y-48178396D03*
X76625156Y-47824843D03*
X76271602Y-47471290D03*
X75918049Y-47117736D03*
X75564496Y-46764183D03*
X75210942Y-46410629D03*
X74857389Y-46057076D03*
X74503836Y-45703523D03*
X74150282Y-45349969D03*
X73796729Y-44996416D03*
X73443175Y-44642862D03*
X73089622Y-44289309D03*
X72736069Y-43935756D03*
X72382515Y-43582202D03*
X72028962Y-43228649D03*
X71675408Y-42875096D03*
X71321855Y-42521542D03*
X70968302Y-42167989D03*
X70614748Y-41814435D03*
X70261195Y-41460882D03*
X69907641Y-41107329D03*
X69554088Y-40753775D03*
X69200535Y-40400222D03*
X68846981Y-40046668D03*
X68493428Y-39693115D03*
X68139875Y-39339562D03*
X67786321Y-38986008D03*
X67432768Y-38632455D03*
X67079214Y-38278901D03*
X66725661Y-37925348D03*
X66372108Y-37571795D03*
D38*
X63649746Y-37571795D03*
X63296193Y-37925348D03*
X62942640Y-38278901D03*
X62589086Y-38632455D03*
X62235533Y-38986008D03*
X61881979Y-39339562D03*
X61528426Y-39693115D03*
X61174873Y-40046668D03*
X60821319Y-40400222D03*
X60467766Y-40753775D03*
X60114213Y-41107329D03*
X59760659Y-41460882D03*
X59407106Y-41814435D03*
X59053552Y-42167989D03*
X58699999Y-42521542D03*
X58346446Y-42875096D03*
X57992892Y-43228649D03*
X57639339Y-43582202D03*
X57285785Y-43935756D03*
X56932232Y-44289309D03*
X56578679Y-44642862D03*
X56225125Y-44996416D03*
X55871572Y-45349969D03*
X55518018Y-45703523D03*
X55164465Y-46057076D03*
X54810912Y-46410629D03*
X54457358Y-46764183D03*
X54103805Y-47117736D03*
X53750252Y-47471290D03*
X53396698Y-47824843D03*
X53043145Y-48178396D03*
X52689591Y-48531950D03*
X52336038Y-48885503D03*
X51982485Y-49239057D03*
X51628931Y-49592610D03*
X51275378Y-49946163D03*
X50921824Y-50299717D03*
X50568271Y-50653270D03*
X50214718Y-51006823D03*
X49861164Y-51360377D03*
X49507611Y-51713930D03*
X49154057Y-52067484D03*
X48800504Y-52421037D03*
X48446951Y-52774590D03*
D37*
X48446951Y-55496952D03*
X48800504Y-55850505D03*
X49154057Y-56204058D03*
X49507611Y-56557612D03*
X49861164Y-56911165D03*
X50214718Y-57264719D03*
X50568271Y-57618272D03*
X50921824Y-57971825D03*
X51275378Y-58325379D03*
X51628931Y-58678932D03*
X51982485Y-59032485D03*
X52336038Y-59386039D03*
X52689591Y-59739592D03*
X53043145Y-60093146D03*
X53396698Y-60446699D03*
X53750252Y-60800252D03*
X54103805Y-61153806D03*
X54457358Y-61507359D03*
X54810912Y-61860913D03*
X55164465Y-62214466D03*
X55518018Y-62568019D03*
X55871572Y-62921573D03*
X56225125Y-63275126D03*
X56578679Y-63628680D03*
X56932232Y-63982233D03*
X57285785Y-64335786D03*
X57639339Y-64689340D03*
X57992892Y-65042893D03*
X58346446Y-65396446D03*
X58699999Y-65750000D03*
X59053552Y-66103553D03*
X59407106Y-66457107D03*
X59760659Y-66810660D03*
X60114213Y-67164213D03*
X60467766Y-67517767D03*
X60821319Y-67871320D03*
X61174873Y-68224874D03*
X61528426Y-68578427D03*
X61881979Y-68931980D03*
X62235533Y-69285534D03*
X62589086Y-69639087D03*
X62942640Y-69992641D03*
X63296193Y-70346194D03*
X63649746Y-70699747D03*
D38*
X66372108Y-70699747D03*
X66725661Y-70346194D03*
X67079214Y-69992641D03*
X67432768Y-69639087D03*
X67786321Y-69285534D03*
X68139875Y-68931980D03*
X68493428Y-68578427D03*
X68846981Y-68224874D03*
X69200535Y-67871320D03*
X69554088Y-67517767D03*
X69907641Y-67164213D03*
X70261195Y-66810660D03*
X70614748Y-66457107D03*
X70968302Y-66103553D03*
X71321855Y-65750000D03*
X71675408Y-65396446D03*
X72028962Y-65042893D03*
X72382515Y-64689340D03*
X72736069Y-64335786D03*
X73089622Y-63982233D03*
X73443175Y-63628680D03*
X73796729Y-63275126D03*
X74150282Y-62921573D03*
X74503836Y-62568019D03*
X74857389Y-62214466D03*
X75210942Y-61860913D03*
X75564496Y-61507359D03*
X75918049Y-61153806D03*
X76271602Y-60800252D03*
X76625156Y-60446699D03*
X76978709Y-60093146D03*
X77332263Y-59739592D03*
X77685816Y-59386039D03*
X78039369Y-59032485D03*
X78392923Y-58678932D03*
X78746476Y-58325379D03*
X79100030Y-57971825D03*
X79453583Y-57618272D03*
X79807136Y-57264719D03*
X80160690Y-56911165D03*
X80514243Y-56557612D03*
X80867797Y-56204058D03*
X81221350Y-55850505D03*
X81574903Y-55496952D03*
%TD*%
D39*
%TO.C,SW1*%
X86590000Y-33500000D03*
X77410000Y-33500000D03*
%TD*%
D40*
%TO.C,SW2*%
X80188909Y-63613783D03*
X79800000Y-60750000D03*
X82663783Y-61138909D03*
%TD*%
D41*
%TO.C,U7*%
X54200001Y-99300000D03*
X54200001Y-101600000D03*
D42*
X60500001Y-101600000D03*
D41*
X54200001Y-103900000D03*
%TD*%
D43*
%TO.C,C4*%
X52400002Y-93640000D03*
X52400002Y-94600000D03*
%TD*%
D16*
%TO.C,C5*%
X62300002Y-89580000D03*
X62300002Y-88620000D03*
%TD*%
D43*
%TO.C,C9*%
X62300000Y-102020000D03*
X62300000Y-102980000D03*
%TD*%
D16*
%TO.C,C8*%
X62300000Y-100680000D03*
X62300000Y-99720000D03*
%TD*%
D43*
%TO.C,C6*%
X62300002Y-91040000D03*
X62300002Y-92000000D03*
%TD*%
%TO.C,C7*%
X52300000Y-104220000D03*
X52300000Y-105180000D03*
%TD*%
D44*
%TO.C,D1*%
X57750002Y-95500000D03*
X61050002Y-95500000D03*
%TD*%
%TO.C,D2*%
X57650000Y-106500000D03*
X60950000Y-106500000D03*
%TD*%
D45*
%TO.C,R2*%
X57500001Y-97200000D03*
X58520001Y-97200000D03*
%TD*%
D41*
%TO.C,U6*%
X54150002Y-88300000D03*
X54150002Y-90600000D03*
D42*
X60450002Y-90600000D03*
D41*
X54150002Y-92900000D03*
%TD*%
D46*
%TO.C,NEOPIX1*%
X75091422Y-40670711D03*
X75869239Y-41448528D03*
X77163244Y-40154523D03*
X76385427Y-39376706D03*
%TD*%
D47*
%TO.C,ARM1*%
X44000000Y-102580000D03*
D18*
X44000000Y-105120000D03*
X44000000Y-107660000D03*
X44000000Y-110200000D03*
%TD*%
D24*
%TO.C,H4*%
X86000000Y-116000000D03*
%TD*%
%TO.C,H1*%
X44000000Y-116000000D03*
%TD*%
D48*
%TO.C,PWM0*%
X47140000Y-88000001D03*
D49*
X44600000Y-88000001D03*
X42060000Y-88000001D03*
%TD*%
D48*
%TO.C,PWM3*%
X47140000Y-98800000D03*
D49*
X44600000Y-98800000D03*
X42060000Y-98800000D03*
%TD*%
D48*
%TO.C,PWM2*%
X47140000Y-95200000D03*
D49*
X44600000Y-95200000D03*
X42060000Y-95200000D03*
%TD*%
D48*
%TO.C,PWM1*%
X47140000Y-91600000D03*
D49*
X44600000Y-91600000D03*
X42060000Y-91600000D03*
%TD*%
D50*
%TO.C,Y3*%
X55300000Y-29940001D03*
X53200000Y-29940001D03*
X53200000Y-31590001D03*
X55300000Y-31590001D03*
%TD*%
D51*
%TO.C,VIDEO1*%
X45050000Y-68800000D03*
X45050000Y-70050000D03*
D52*
X41850000Y-66950000D03*
X41850000Y-71900000D03*
%TD*%
D53*
%TO.C,U15*%
X43450000Y-64787501D03*
X43950000Y-64787501D03*
X44450000Y-64787501D03*
X44950000Y-64787501D03*
X44950000Y-62812501D03*
X44450000Y-62812501D03*
X43950000Y-62812501D03*
X43450000Y-62812501D03*
D54*
X44200000Y-63800001D03*
%TD*%
D26*
%TO.C,U9*%
X72637499Y-28399999D03*
X72637499Y-29349999D03*
X72637499Y-30299999D03*
X74912499Y-30299999D03*
X74912499Y-29349999D03*
X74912499Y-28399999D03*
%TD*%
D55*
%TO.C,U4*%
X48175000Y-30250000D03*
X48175000Y-30750000D03*
X48175000Y-31250000D03*
X48175000Y-31750000D03*
D56*
X48837500Y-31912500D03*
X49337500Y-31912500D03*
X49837500Y-31912500D03*
D55*
X50500000Y-31750000D03*
X50500000Y-31250000D03*
X50500000Y-30750000D03*
X50500000Y-30250000D03*
D56*
X49837500Y-30087500D03*
X49337500Y-30087500D03*
X48837500Y-30087500D03*
%TD*%
D57*
%TO.C,U3*%
X47705000Y-39050000D03*
X47705000Y-39550000D03*
X47705000Y-40050000D03*
X47705000Y-40550000D03*
D58*
X48217500Y-40562500D03*
X48717500Y-40562500D03*
D57*
X49230000Y-40550000D03*
X49230000Y-40050000D03*
X49230000Y-39550000D03*
X49230000Y-39050000D03*
D58*
X48717500Y-39037500D03*
X48217500Y-39037500D03*
%TD*%
D59*
%TO.C,U1*%
X54875000Y-35575000D03*
X54875000Y-36825000D03*
X54875000Y-38075000D03*
X54875000Y-39325000D03*
X57025000Y-39325000D03*
X57025000Y-38075000D03*
X57025000Y-36825000D03*
X57025000Y-35575000D03*
%TD*%
D60*
%TO.C,STEMMA_QT1*%
X45324998Y-44900000D03*
X45324998Y-45900000D03*
X45324998Y-46900000D03*
X45324998Y-47900000D03*
D61*
X41449998Y-43600000D03*
X41449998Y-49200000D03*
%TD*%
D62*
%TO.C,RADIO_5VPWR_3V3IO1*%
X76499999Y-25050000D03*
X75249999Y-25050000D03*
X73999999Y-25050000D03*
X72749999Y-25050000D03*
X71499999Y-25050000D03*
X70249999Y-25050000D03*
D63*
X78349999Y-21850000D03*
X68399999Y-21850000D03*
%TD*%
D36*
%TO.C,R45*%
X49869999Y-67150000D03*
X48849999Y-67150000D03*
%TD*%
D45*
%TO.C,R41*%
X68940000Y-95050000D03*
X69960000Y-95050000D03*
%TD*%
D64*
%TO.C,R40*%
X66400000Y-91040000D03*
X66400000Y-92060000D03*
%TD*%
D65*
%TO.C,R18*%
X51700000Y-31550001D03*
X51700000Y-30530001D03*
%TD*%
D66*
%TO.C,R15*%
X44100000Y-60480833D03*
X43400000Y-60480833D03*
X43400000Y-61480833D03*
X44100000Y-61480833D03*
%TD*%
D64*
%TO.C,R7*%
X56800000Y-29130001D03*
X56800000Y-30150001D03*
%TD*%
D19*
%TO.C,Q6*%
X55800000Y-108050000D03*
X55800000Y-106150000D03*
X53925000Y-107100000D03*
%TD*%
D67*
%TO.C,Q5*%
X50300000Y-68775000D03*
X48400000Y-68775000D03*
X49350000Y-70650000D03*
%TD*%
D68*
%TO.C,Q4*%
X71550000Y-95050000D03*
X71550000Y-96950000D03*
X73425000Y-96000000D03*
%TD*%
D48*
%TO.C,PWM7*%
X60799999Y-112900000D03*
D49*
X60799999Y-115440000D03*
X60799999Y-117980000D03*
%TD*%
D48*
%TO.C,PWM6*%
X57200000Y-112900000D03*
D49*
X57200000Y-115440000D03*
X57200000Y-117980000D03*
%TD*%
D48*
%TO.C,PWM5*%
X53600001Y-112900000D03*
D49*
X53600001Y-115440000D03*
X53600001Y-117980000D03*
%TD*%
D48*
%TO.C,PWM4*%
X50000000Y-112900000D03*
D49*
X50000000Y-115440000D03*
X50000000Y-117980000D03*
%TD*%
D69*
%TO.C,LED1*%
X78350000Y-41550000D03*
X77236306Y-42663694D03*
%TD*%
D43*
%TO.C,C49*%
X56800000Y-31050000D03*
X56800000Y-32010000D03*
%TD*%
D26*
%TO.C,U13*%
X47700000Y-44900000D03*
X47700000Y-45850000D03*
X47700000Y-46800000D03*
X49975000Y-46800000D03*
X49975000Y-45850000D03*
X49975000Y-44900000D03*
%TD*%
M02*
