M48
; DRILL file {KiCad 9.0.1} date 2025-05-10T22:35:43-0400
; FORMAT={-:-/ absolute / inch / decimal}
; #@! TF.CreationDate,2025-05-10T22:35:43-04:00
; #@! TF.GenerationSoftware,Kicad,Pcbnew,9.0.1
; #@! TF.FileFunction,Plated,1,4,PTH
FMAT,2
INCH
; #@! TA.AperFunction,Plated,PTH,ViaDrill
T1C0.0079
; #@! TA.AperFunction,Plated,PTH,ViaDrill
T2C0.0157
; #@! TA.AperFunction,Plated,PTH,ComponentDrill
T3C0.0236
; #@! TA.AperFunction,Plated,PTH,ComponentDrill
T4C0.0315
; #@! TA.AperFunction,Plated,PTH,ComponentDrill
T5C0.0394
; #@! TA.AperFunction,Plated,PTH,ComponentDrill
T6C0.0433
; #@! TA.AperFunction,Plated,PTH,ComponentDrill
T7C0.1063
; #@! TA.AperFunction,Plated,PTH,ComponentDrill
T8C0.1260
%
G90
G05
T1
X1.685Y-2.126
X1.6988Y-2.3563
X1.7113Y-1.4893
X1.7185Y-2.5787
X1.7242Y-2.4011
X1.7264Y-2.3406
X1.7323Y-1.1614
X1.7323Y-2.8976
X1.7343Y-1.8031
X1.7402Y-2.3602
X1.752Y-2.4429
X1.752Y-2.5787
X1.7913Y-2.0472
X1.7953Y-2.6398
X1.8008Y-1.0405
X1.811Y-2.7953
X1.8209Y-1.2894
X1.8228Y-2.7598
X1.828Y-1.5571
X1.8425Y-2.7717
X1.8504Y-2.7992
X1.8543Y-1.3563
X1.8555Y-1.5571
X1.8701Y-4.4488
X1.874Y-2.4783
X1.8949Y-1.6161
X1.9094Y-1.2854
X1.9094Y-2.9055
X1.9173Y-2.0059
X1.9173Y-2.25
X1.9252Y-0.9724
X1.9336Y-2.2667
X1.9358Y-1.6358
X1.937Y-4.1378
X1.9409Y-1.9744
X1.9421Y-1.502
X1.9449Y-1.2815
X1.9606Y-1.1594
X1.9618Y-1.5531
X1.9646Y-1.9665
X1.9688Y-1.8697
X1.9724Y-1.935
X1.9764Y-1.5768
X1.9882Y-2.4409
X1.9961Y-1.2854
X2.004Y-3.5335
X2.0079Y-2.9921
X2.0079Y-3.189
X2.0098Y-1.8051
X2.0098Y-3.0984
X2.0197Y-2.3524
X2.0354Y-2.3681
X2.0472Y-3.4055
X2.0551Y-4.3858
X2.0866Y-2.874
X2.0945Y-3.9528
X2.1024Y-3.8661
X2.1063Y-1.6496
X2.1063Y-2.6969
X2.1063Y-4.1654
X2.1122Y-1.3327
X2.1142Y-1.8091
X2.1225Y-1.7923
X2.123Y-1.4026
X2.123Y-1.5443
X2.127Y-1.501
X2.1299Y-2.2087
X2.1378Y-2.4783
X2.1417Y-2.5354
X2.1432Y-0.9549
X2.1496Y-3.378
X2.1535Y-2.502
X2.164Y-3.2679
X2.1772Y-4.2205
X2.1781Y-2.6407
X2.1811Y-4.3937
X2.1929Y-1.7224
X2.1929Y-2.5335
X2.1993Y-2.6396
X2.2096Y-1.7141
X2.2165Y-2.5492
X2.2244Y-2.0669
X2.2323Y-3.4685
X2.2329Y-2.6457
X2.2402Y-1.4724
X2.2559Y-3.8898
X2.2598Y-2.6575
X2.2638Y-1.2224
X2.2705Y-3.2612
X2.2795Y-1.4449
X2.2874Y-2.6358
X2.3031Y-1.5906
X2.3042Y-2.7087
X2.311Y-4.3858
X2.3169Y-2.7303
X2.3189Y-2.6594
X2.3327Y-1.565
X2.3346Y-2.5059
X2.3406Y-2.7441
X2.3425Y-3.1299
X2.3602Y-2.7382
X2.3602Y-2.7874
X2.3622Y-2.3819
X2.3622Y-4.2638
X2.3661Y-3.4606
X2.374Y-3.8937
X2.3771Y-2.7995
X2.3819Y-3.122
X2.3839Y-2.8169
X2.3858Y-1.4547
X2.3898Y-2.7303
X2.3901Y-3.398
X2.3917Y-1.8622
X2.4016Y-1.0039
X2.437Y-1.4941
X2.4528Y-1.4783
X2.4646Y-3.1929
X2.4665Y-2.2182
X2.4764Y-2.685
X2.489Y-3.0039
X2.5073Y-3.3084
X2.5079Y-4.252
X2.5197Y-1.7244
X2.5197Y-4.4882
X2.5591Y-1.1043
X2.5591Y-2.6772
X2.5709Y-1.4213
X2.5787Y-1.5098
X2.5866Y-1.4705
X2.5874Y-3.189
X2.5984Y-4.6535
X2.6181Y-2.126
X2.6181Y-2.874
X2.6417Y-2.8169
X2.6496Y-2.9882
X2.6516Y-2.5118
X2.665Y-4.122
X2.6654Y-2.7854
X2.6693Y-2.9902
X2.686Y-2.9818
X2.687Y-3.0098
X2.689Y-1.7126
X2.6914Y-1.8735
X2.6925Y-3.937
X2.6969Y-1.502
X2.6969Y-2.7618
X2.7063Y-3.0303
X2.7106Y-3.6772
X2.7165Y-3.0
X2.7205Y-1.5177
X2.7205Y-1.9843
X2.7327Y-1.7691
X2.7333Y-3.0128
X2.7362Y-1.5335
X2.752Y-2.7598
X2.752Y-3.4252
X2.7555Y-4.1496
X2.7559Y-2.3228
X2.7559Y-3.1102
X2.7638Y-1.7146
X2.7638Y-3.5945
X2.7756Y-2.9134
X2.7835Y-1.7264
X2.7835Y-2.7323
X2.7874Y-1.8538
X2.7894Y-2.8327
X2.7953Y-1.2795
X2.8071Y-3.7835
X2.811Y-3.937
X2.8114Y-1.9092
X2.8115Y-1.7849
X2.8287Y-3.4941
X2.8425Y-3.0827
X2.8504Y-1.9252
X2.8543Y-2.6654
X2.8661Y-1.8189
X2.8937Y-1.2598
X2.8937Y-2.565
X2.902Y-1.8557
X2.9059Y-1.4778
X2.9094Y-1.7146
X2.9094Y-2.5492
X2.9213Y-2.8878
X2.9262Y-3.0089
X2.9331Y-1.7382
X2.9331Y-3.187
X2.9404Y-0.8772
X2.9409Y-2.813
X2.9528Y-1.8898
X2.9547Y-3.0197
X2.9567Y-2.7933
X2.9646Y-3.9764
X2.9665Y-2.6063
X2.9705Y-1.7579
X2.9724Y-3.9016
X2.9758Y-1.5762
X2.9764Y-3.1358
X2.9803Y-1.9508
X2.9882Y-1.1634
X2.9921Y-3.1516
X2.997Y-1.9592
X3.0026Y-3.2034
X3.0031Y-3.1713
X3.0074Y-2.4518
X3.012Y-1.6068
X3.0157Y-2.435
X3.0234Y-2.0883
X3.0236Y-1.9941
X3.0263Y-3.2035
X3.0354Y-1.8327
X3.0413Y-1.185
X3.0466Y-3.197
X3.0492Y-3.1654
X3.0512Y-2.2776
X3.0512Y-1.8563
X3.0512Y-3.3661
X3.0591Y-4.0689
X3.065Y-3.6654
X3.0689Y-2.5846
X3.0689Y-2.8386
X3.0709Y-0.9606
X3.0787Y-1.4488
X3.0827Y-1.8799
X3.0906Y-2.372
X3.1063Y-1.6102
X3.1102Y-3.7795
X3.1339Y-1.0925
X3.1496Y-4.1811
X3.159Y-1.5386
X3.1614Y-1.9587
X3.1693Y-1.3271
X3.1693Y-3.3661
X3.1698Y-1.9754
X3.185Y-2.2736
X3.185Y-4.6535
X3.189Y-4.5472
X3.2008Y-2.5138
X3.2087Y-2.25
X3.2219Y-2.2368
X3.2351Y-2.2236
X3.2638Y-2.187
X3.2713Y-1.6673
X3.3031Y-3.0748
X3.3091Y-1.311
X3.311Y-3.2559
X3.3228Y-2.6575
X3.3268Y-1.4567
X3.3268Y-2.0472
X3.3366Y-2.8819
X3.3504Y-1.1024
X3.3661Y-1.5
X3.3858Y-3.2283
X3.4705Y-1.9409
X3.4764Y-2.2559
X3.498Y-2.628
T2
X2.2756Y-3.6299
X2.2992Y-4.0276
X2.3071Y-3.9528
X2.4803Y-3.9882
X2.5437Y-3.5571
T4
X2.9291Y-4.1497
X2.9291Y-4.3466
T5
X1.6559Y-3.4646
X1.6559Y-3.6063
X1.6559Y-3.748
X1.6559Y-3.8898
X1.7559Y-3.4646
X1.7559Y-3.6063
X1.7559Y-3.748
X1.7559Y-3.8898
X1.8559Y-3.4646
X1.8559Y-3.6063
X1.8559Y-3.748
X1.8559Y-3.8898
X1.9685Y-4.4449
X1.9685Y-4.5449
X1.9685Y-4.6449
X2.1102Y-4.4449
X2.1102Y-4.5449
X2.1102Y-4.6449
X2.252Y-4.4449
X2.252Y-4.5449
X2.252Y-4.6449
X2.3937Y-4.4449
X2.3937Y-4.5449
X2.3937Y-4.6449
T6
X1.7323Y-4.0386
X1.7323Y-4.1386
X1.7323Y-4.2386
X1.7323Y-4.3386
X3.3858Y-3.4252
X3.3858Y-3.5252
X3.3858Y-3.6252
X3.3858Y-3.7252
X3.3858Y-3.8252
X3.3858Y-3.9252
X3.3858Y-4.0252
X3.3858Y-4.1252
X3.3858Y-4.2252
X3.3858Y-4.3252
T7
X2.7559Y-4.5669
X2.9528Y-4.5669
T8
X1.7323Y-0.9449
X1.7323Y-4.5669
X3.3858Y-0.9449
X3.3858Y-4.5669
T3
G00X1.7156Y-2.9953
M15
G01X1.6841Y-2.9953
M16
G05
G00X1.7156Y-3.3354
M15
G01X1.6841Y-3.3354
M16
G05
G00X1.886Y-2.9953
M15
G01X1.8427Y-2.9953
M16
G05
G00X1.886Y-3.3354
M15
G01X1.8427Y-3.3354
M16
G05
M30
