%TF.GenerationSoftware,KiCad,Pcbnew,9.0.1*%
%TF.CreationDate,2025-05-10T22:35:42-04:00*%
%TF.ProjectId,CRVFCU,43525646-4355-42e6-9b69-6361645f7063,rev?*%
%TF.SameCoordinates,Original*%
%TF.FileFunction,Copper,L3,Inr*%
%TF.FilePolarity,Positive*%
%FSLAX46Y46*%
G04 Gerber Fmt 4.6, Leading zero omitted, Abs format (unit mm)*
G04 Created by KiCad (PCBNEW 9.0.1) date 2025-05-10 22:35:42*
%MOMM*%
%LPD*%
G01*
G04 APERTURE LIST*
G04 Aperture macros list*
%AMRoundRect*
0 Rectangle with rounded corners*
0 $1 Rounding radius*
0 $2 $3 $4 $5 $6 $7 $8 $9 X,Y pos of 4 corners*
0 Add a 4 corners polygon primitive as box body*
4,1,4,$2,$3,$4,$5,$6,$7,$8,$9,$2,$3,0*
0 Add four circle primitives for the rounded corners*
1,1,$1+$1,$2,$3*
1,1,$1+$1,$4,$5*
1,1,$1+$1,$6,$7*
1,1,$1+$1,$8,$9*
0 Add four rect primitives between the rounded corners*
20,1,$1+$1,$2,$3,$4,$5,0*
20,1,$1+$1,$4,$5,$6,$7,0*
20,1,$1+$1,$6,$7,$8,$9,0*
20,1,$1+$1,$8,$9,$2,$3,0*%
G04 Aperture macros list end*
%TA.AperFunction,ComponentPad*%
%ADD10R,1.600000X1.600000*%
%TD*%
%TA.AperFunction,ComponentPad*%
%ADD11C,1.600000*%
%TD*%
%TA.AperFunction,ComponentPad*%
%ADD12RoundRect,0.760000X-1.140000X-1.140000X1.140000X-1.140000X1.140000X1.140000X-1.140000X1.140000X0*%
%TD*%
%TA.AperFunction,ComponentPad*%
%ADD13C,4.000000*%
%TD*%
%TA.AperFunction,ComponentPad*%
%ADD14RoundRect,0.250001X0.799999X-0.799999X0.799999X0.799999X-0.799999X0.799999X-0.799999X-0.799999X0*%
%TD*%
%TA.AperFunction,ComponentPad*%
%ADD15C,2.100000*%
%TD*%
%TA.AperFunction,ComponentPad*%
%ADD16C,6.400000*%
%TD*%
%TA.AperFunction,HeatsinkPad*%
%ADD17O,2.100000X1.000000*%
%TD*%
%TA.AperFunction,HeatsinkPad*%
%ADD18O,1.800000X1.000000*%
%TD*%
%TA.AperFunction,ComponentPad*%
%ADD19RoundRect,0.250001X-0.799999X0.799999X-0.799999X-0.799999X0.799999X-0.799999X0.799999X0.799999X0*%
%TD*%
%TA.AperFunction,ComponentPad*%
%ADD20R,1.700000X1.700000*%
%TD*%
%TA.AperFunction,ComponentPad*%
%ADD21C,1.700000*%
%TD*%
%TA.AperFunction,ViaPad*%
%ADD22C,0.350000*%
%TD*%
%TA.AperFunction,ViaPad*%
%ADD23C,0.600000*%
%TD*%
G04 APERTURE END LIST*
D10*
%TO.N,VBAT*%
%TO.C,C1*%
X74400000Y-110402651D03*
D11*
%TO.N,GND*%
X74400000Y-105402651D03*
%TD*%
D12*
%TO.N,GND*%
%TO.C,BATT1*%
X70000000Y-116000000D03*
D13*
%TO.N,VBAT*%
X75000000Y-116000000D03*
%TD*%
D14*
%TO.N,VBAT*%
%TO.C,PYRO_TERM1*%
X86000000Y-109860000D03*
D15*
%TO.N,/VPYRO*%
X86000000Y-107320000D03*
X86000000Y-104780000D03*
%TO.N,/PYO0*%
X86000000Y-102240000D03*
%TO.N,/PYO1*%
X86000000Y-99700000D03*
%TO.N,/VPYRO*%
X86000000Y-97160000D03*
X86000000Y-94620000D03*
%TO.N,/PYO2*%
X86000000Y-92080000D03*
%TO.N,/PYO3*%
X86000000Y-89540000D03*
%TO.N,/VPYRO*%
X86000000Y-87000000D03*
%TD*%
D16*
%TO.N,GND*%
%TO.C,H2*%
X86000000Y-24000000D03*
%TD*%
%TO.N,GND*%
%TO.C,H3*%
X44000000Y-24000000D03*
%TD*%
D17*
%TO.N,GND*%
%TO.C,J3*%
X47355000Y-76080000D03*
D18*
X43175000Y-76080000D03*
D17*
X47355000Y-84720000D03*
D18*
X43175000Y-84720000D03*
%TD*%
D19*
%TO.N,+3V3*%
%TO.C,ARM1*%
X44000000Y-102580000D03*
D15*
%TO.N,Net-(ARM1-Pin_2)*%
X44000000Y-105120000D03*
%TO.N,+8V4*%
X44000000Y-107660000D03*
%TO.N,VBAT*%
X44000000Y-110200000D03*
%TD*%
D16*
%TO.N,GND*%
%TO.C,H4*%
X86000000Y-116000000D03*
%TD*%
%TO.N,GND*%
%TO.C,H1*%
X44000000Y-116000000D03*
%TD*%
D20*
%TO.N,/SRVO_0*%
%TO.C,PWM0*%
X47140000Y-88000001D03*
D21*
%TO.N,+8V4*%
X44600000Y-88000001D03*
%TO.N,GND*%
X42060000Y-88000001D03*
%TD*%
D20*
%TO.N,/SRVO_3*%
%TO.C,PWM3*%
X47140000Y-98800000D03*
D21*
%TO.N,+8V4*%
X44600000Y-98800000D03*
%TO.N,GND*%
X42060000Y-98800000D03*
%TD*%
D20*
%TO.N,/SRVO_2*%
%TO.C,PWM2*%
X47140000Y-95200000D03*
D21*
%TO.N,+8V4*%
X44600000Y-95200000D03*
%TO.N,GND*%
X42060000Y-95200000D03*
%TD*%
D20*
%TO.N,/SRVO_1*%
%TO.C,PWM1*%
X47140000Y-91600000D03*
D21*
%TO.N,+8V4*%
X44600000Y-91600000D03*
%TO.N,GND*%
X42060000Y-91600000D03*
%TD*%
D20*
%TO.N,/SRVO_7*%
%TO.C,PWM7*%
X60799999Y-112900000D03*
D21*
%TO.N,+8V4*%
X60799999Y-115440000D03*
%TO.N,GND*%
X60799999Y-117980000D03*
%TD*%
D20*
%TO.N,/SRVO_6*%
%TO.C,PWM6*%
X57200000Y-112900000D03*
D21*
%TO.N,+8V4*%
X57200000Y-115440000D03*
%TO.N,GND*%
X57200000Y-117980000D03*
%TD*%
D20*
%TO.N,/SRVO_5*%
%TO.C,PWM5*%
X53600001Y-112900000D03*
D21*
%TO.N,+8V4*%
X53600001Y-115440000D03*
%TO.N,GND*%
X53600001Y-117980000D03*
%TD*%
D20*
%TO.N,/SRVO_4*%
%TO.C,PWM4*%
X50000000Y-112900000D03*
D21*
%TO.N,+8V4*%
X50000000Y-115440000D03*
%TO.N,GND*%
X50000000Y-117980000D03*
%TD*%
D22*
%TO.N,GND*%
X55300000Y-107200000D03*
X55400000Y-111600000D03*
X58700000Y-111400000D03*
X52200000Y-111400000D03*
X68739168Y-76970001D03*
X72200000Y-78300000D03*
X72500000Y-67700000D03*
X78200000Y-36800000D03*
X80238155Y-39080400D03*
X44000000Y-73600000D03*
X48500000Y-73800000D03*
X46300000Y-70100000D03*
X47000000Y-71100000D03*
X46800000Y-70400000D03*
X46000000Y-71000000D03*
X70200000Y-91300000D03*
X71300000Y-96100000D03*
X71400000Y-100000000D03*
X80900000Y-118200000D03*
X66000000Y-118200000D03*
X43794658Y-60987668D03*
X68300000Y-43500000D03*
X72800000Y-46200000D03*
X72400000Y-48900000D03*
X71409419Y-48494196D03*
X69100000Y-50400000D03*
X64000000Y-43800000D03*
X53500000Y-41900000D03*
X48900000Y-24700000D03*
X88300000Y-57300000D03*
X83900000Y-78100000D03*
X84100000Y-82700000D03*
X69900000Y-87000000D03*
X63686586Y-84032157D03*
X57670219Y-82834820D03*
X50901806Y-89751664D03*
X60708089Y-86308085D03*
X54600000Y-85800000D03*
X60100000Y-87900000D03*
X56700000Y-88100000D03*
X60300000Y-98900000D03*
X53200000Y-100400000D03*
X53400000Y-98200000D03*
X57300000Y-98800000D03*
%TO.N,Net-(5V_PWR1-K)*%
X68390000Y-100000000D03*
%TO.N,GND*%
X53500000Y-105800000D03*
X80000000Y-106200000D03*
X75300000Y-101000000D03*
X75500000Y-99100000D03*
X50008577Y-47491423D03*
%TO.N,+3V3*%
X69990000Y-105400000D03*
%TO.N,Net-(3V3_PWR1-K)*%
X67690000Y-104700000D03*
%TO.N,GND*%
X77700000Y-103350000D03*
X57900000Y-36700000D03*
X56900000Y-37400000D03*
X60500000Y-79300000D03*
X62600000Y-81100000D03*
X69900000Y-70100000D03*
X70700000Y-69400000D03*
X73500000Y-32000000D03*
X71000000Y-32500000D03*
X59500000Y-79500000D03*
X50500000Y-62000000D03*
X53500000Y-68500000D03*
X65000000Y-68000000D03*
X60000000Y-60500000D03*
X56500000Y-52500000D03*
X66500000Y-54000000D03*
X70000000Y-59000000D03*
X84500000Y-52000000D03*
X83089966Y-42349658D03*
X84500000Y-37000000D03*
X61000000Y-25500000D03*
X44000000Y-29500000D03*
X45500000Y-52000000D03*
X53000000Y-73000000D03*
X47500000Y-113000000D03*
X64000000Y-114000000D03*
X81000000Y-115500000D03*
X52000000Y-86500000D03*
X80500000Y-85500000D03*
X77500000Y-85500000D03*
X71850000Y-88750000D03*
X79000000Y-96000000D03*
X66500000Y-73000000D03*
X70500000Y-74000000D03*
X70000000Y-79000000D03*
X86000000Y-82000000D03*
X51000000Y-76000000D03*
X51000000Y-81000000D03*
X54965859Y-83003832D03*
%TO.N,+3V3*%
X75000000Y-48000000D03*
%TO.N,GND*%
X43466318Y-37828385D03*
X45741401Y-26427693D03*
X54437272Y-24253725D03*
X65000000Y-28050000D03*
X74685507Y-22281987D03*
X78000000Y-24400000D03*
X79600000Y-27750000D03*
X77250000Y-30100000D03*
X80499607Y-33707957D03*
X84050000Y-33300000D03*
X85100000Y-28000000D03*
X88150000Y-49300000D03*
X77950000Y-65650000D03*
X77950000Y-72100000D03*
X75050000Y-76700000D03*
X67350000Y-63800000D03*
X76793760Y-53043945D03*
X62650330Y-56342815D03*
X60750000Y-47300000D03*
X54100000Y-56100000D03*
X45600000Y-67050000D03*
X47600000Y-62950000D03*
X44500000Y-62050000D03*
X43850000Y-59450000D03*
X42800000Y-54000000D03*
%TO.N,/BUZZ*%
X74700000Y-71450000D03*
X68850000Y-93400000D03*
%TO.N,/ARM*%
X54400000Y-64400000D03*
%TO.N,+5V*%
X85500000Y-38100000D03*
%TO.N,/SRVI_7*%
X55325000Y-67075000D03*
%TO.N,/SRVI_6*%
X55861988Y-67045505D03*
%TO.N,/SRVI_5*%
X56714420Y-67200000D03*
%TO.N,/SRVI_4*%
X57400000Y-67500000D03*
%TO.N,/SRVI_3*%
X58527447Y-68800000D03*
%TO.N,/SRVI_2*%
X58850000Y-69350000D03*
%TO.N,/SRVI_1*%
X59950000Y-70800000D03*
%TO.N,/SRVI_0*%
X60377687Y-71108521D03*
%TO.N,/SRV_OE*%
X60550000Y-71550000D03*
%TO.N,+3V3*%
X81300000Y-63850000D03*
%TO.N,GND*%
X77850000Y-93100000D03*
%TO.N,/PYC0*%
X74500000Y-80950000D03*
%TO.N,/PYR0*%
X75600000Y-79650000D03*
%TO.N,/PYR1*%
X76000000Y-80050000D03*
%TO.N,/PYC1*%
X76278000Y-80550000D03*
%TO.N,/PYC2*%
X76265832Y-81365832D03*
%TO.N,/PYR2*%
X76869167Y-81369167D03*
%TO.N,/PYR3*%
X77384415Y-81202817D03*
%TO.N,/PYC3*%
X77450000Y-80400000D03*
%TO.N,Net-(LED1-K)*%
X78900000Y-40900000D03*
%TO.N,/NEOPIX*%
X75450000Y-44650000D03*
D23*
%TO.N,+5V*%
X64610000Y-90350000D03*
D22*
%TO.N,+8V4*%
X43650000Y-65500000D03*
%TO.N,+3V3*%
X44500000Y-65500000D03*
X44200000Y-59950000D03*
X43150000Y-59850000D03*
X44050000Y-45800000D03*
X51050000Y-45850000D03*
X75900000Y-29550000D03*
%TO.N,GND*%
X74200000Y-73350000D03*
X88850000Y-66750000D03*
X84400000Y-67500000D03*
X75350000Y-66200000D03*
X75100000Y-70950000D03*
X84750000Y-73200000D03*
%TO.N,+3V3*%
X65720000Y-81000000D03*
X63220000Y-76300000D03*
%TO.N,/MAG_CS*%
X58500000Y-40400000D03*
%TO.N,/SCK*%
X47100000Y-34450000D03*
X46250000Y-32750000D03*
%TO.N,/IMU_CS*%
X59250000Y-39750000D03*
%TO.N,/IMU_INT*%
X60600000Y-36950000D03*
X53650000Y-33850000D03*
%TO.N,/SD_DET*%
X69000000Y-76200000D03*
%TO.N,/SD_DAT2*%
X67300000Y-75900000D03*
%TO.N,/SD_DAT3*%
X67800000Y-75950000D03*
%TO.N,/SD_CMD*%
X68250000Y-76450000D03*
%TO.N,/SD_CLK*%
X68224855Y-75737572D03*
%TO.N,/SD_DAT0*%
X59450000Y-69700000D03*
%TO.N,/SD_DAT1*%
X59950000Y-69550000D03*
%TO.N,+3V3*%
X74325001Y-76425000D03*
X69425000Y-76524999D03*
X70850000Y-71950000D03*
X48700000Y-50950000D03*
%TO.N,GND*%
X50100001Y-49150000D03*
%TO.N,+3V3*%
X49900000Y-49950000D03*
%TO.N,GND*%
X49300000Y-50150000D03*
%TO.N,+3V3*%
X48700000Y-57150000D03*
%TO.N,GND*%
X49112428Y-57574855D03*
%TO.N,+3V3*%
X51300000Y-59750000D03*
%TO.N,GND*%
X51700000Y-60150000D03*
%TO.N,+3V3*%
X56300000Y-64750000D03*
%TO.N,GND*%
X73500000Y-65150000D03*
%TO.N,+3V3*%
X73900000Y-64750000D03*
%TO.N,GND*%
X55700001Y-64350000D03*
%TO.N,/VLXSMPS*%
X77500000Y-47150000D03*
%TO.N,Net-(U2-PDR_ON)*%
X81835878Y-56814122D03*
%TO.N,GND*%
X78300000Y-47750000D03*
%TO.N,Net-(C13-Pad1)*%
X80900000Y-57750000D03*
%TO.N,+3V3*%
X82171756Y-56478244D03*
%TO.N,/VDDSMPS*%
X77100000Y-46550000D03*
%TO.N,GND*%
X81500000Y-57150000D03*
X75700000Y-49550000D03*
%TO.N,/VDDA*%
X68500000Y-38150000D03*
%TO.N,+3V3*%
X65500000Y-38350000D03*
%TO.N,GND*%
X54700000Y-63550000D03*
X58100000Y-66950000D03*
%TO.N,+3V3*%
X58900000Y-67550000D03*
%TO.N,GND*%
X53912428Y-45525145D03*
X65300000Y-36100000D03*
%TO.N,+3V3*%
X61900001Y-37950000D03*
%TO.N,GND*%
X62300000Y-37550000D03*
%TO.N,+3V3*%
X65699999Y-37350000D03*
X73900000Y-43550000D03*
X80299999Y-49750000D03*
%TO.N,GND*%
X80512428Y-50174855D03*
X76800000Y-50650000D03*
%TO.N,+3V3*%
X76124855Y-49762428D03*
%TO.N,GND*%
X74500000Y-44150000D03*
X82900000Y-55549999D03*
%TO.N,Net-(C14-Pad1)*%
X67100000Y-71550000D03*
%TO.N,+3V3*%
X67700000Y-70749999D03*
%TO.N,GND*%
X68500000Y-70150000D03*
%TO.N,/QSPI_IO1*%
X70700000Y-43850000D03*
%TO.N,/QSPI_CLK*%
X70200000Y-43550000D03*
%TO.N,/QSPI_IO2*%
X70800000Y-47085771D03*
%TO.N,/QSPI_IO0*%
X68362578Y-47587421D03*
%TO.N,/QSPI_IO3*%
X71412579Y-45337421D03*
%TO.N,/FLASH_CS*%
X59300000Y-63650000D03*
%TO.N,Net-(U2-BOOT0)*%
X77499999Y-57850000D03*
%TO.N,Net-(SW2-B)*%
X78500000Y-60250000D03*
%TO.N,+3V3*%
X55700000Y-43750000D03*
%TO.N,GND*%
X56124855Y-43537573D03*
%TO.N,+3V3*%
X60700000Y-69349999D03*
X53700000Y-45950000D03*
%TO.N,GND*%
X62900000Y-68200000D03*
X76387572Y-62274855D03*
%TO.N,+3V3*%
X76600000Y-61850000D03*
%TO.N,GND*%
X51050001Y-78700000D03*
%TO.N,/VDD12DSI*%
X54300001Y-62950000D03*
%TO.N,GND*%
X69500000Y-38950000D03*
%TO.N,Net-(U2-VREF+)*%
X69100000Y-38550001D03*
%TO.N,+3V3*%
X69410928Y-44935771D03*
X73710928Y-47135771D03*
X73810928Y-37535770D03*
%TO.N,/IMU_CS*%
X49800000Y-29450000D03*
%TO.N,+3V3*%
X50700000Y-32650000D03*
%TO.N,GND*%
X49400000Y-32550000D03*
%TO.N,+3V3*%
X48500000Y-32650000D03*
X57500000Y-31050000D03*
%TO.N,GND*%
X60000000Y-108300000D03*
%TO.N,+3V3*%
X63700000Y-108000000D03*
%TO.N,Net-(ARM1-Pin_2)*%
X49200000Y-105100000D03*
%TO.N,GND*%
X49170000Y-41550000D03*
%TO.N,+3V3*%
X49330000Y-38150000D03*
%TO.N,GND*%
X50200000Y-40050000D03*
%TO.N,+3V3*%
X49830000Y-39450000D03*
%TO.N,Net-(U3-C1)*%
X48130000Y-41050000D03*
%TO.N,+3V3*%
X46430000Y-39550000D03*
%TO.N,/MAG_CS*%
X47130000Y-39550000D03*
%TO.N,+3V3*%
X53925000Y-35625000D03*
X54025000Y-38125000D03*
%TO.N,/ALT_CS*%
X53925000Y-39225000D03*
D23*
%TO.N,+5V*%
X57800000Y-92200000D03*
%TO.N,+3V3*%
X63000000Y-101300000D03*
X58600000Y-100400000D03*
X58400000Y-102300000D03*
D22*
%TO.N,Net-(NEOPIX1-DIN)*%
X76505635Y-40812132D03*
%TO.N,+5V*%
X75586396Y-40034315D03*
%TD*%
%TA.AperFunction,Conductor*%
%TO.N,+3V3*%
G36*
X89486613Y-20513387D02*
G01*
X89499500Y-20544500D01*
X89499500Y-119455500D01*
X89486613Y-119486613D01*
X89455500Y-119499500D01*
X40544500Y-119499500D01*
X40513387Y-119486613D01*
X40500500Y-119455500D01*
X40500500Y-115838345D01*
X40709500Y-115838345D01*
X40709500Y-116161654D01*
X40741189Y-116483392D01*
X40741189Y-116483394D01*
X40804265Y-116800499D01*
X40898109Y-117109863D01*
X40898112Y-117109871D01*
X40898113Y-117109873D01*
X40958434Y-117255502D01*
X41021840Y-117408576D01*
X41021841Y-117408577D01*
X41174239Y-117693692D01*
X41174243Y-117693699D01*
X41353856Y-117962510D01*
X41353865Y-117962522D01*
X41558953Y-118212421D01*
X41558960Y-118212429D01*
X41787571Y-118441040D01*
X41787576Y-118441044D01*
X41787578Y-118441046D01*
X42037477Y-118646134D01*
X42037489Y-118646143D01*
X42306300Y-118825756D01*
X42306303Y-118825758D01*
X42306305Y-118825759D01*
X42415933Y-118884357D01*
X42591422Y-118978158D01*
X42591423Y-118978159D01*
X42591425Y-118978160D01*
X42591433Y-118978164D01*
X42890127Y-119101887D01*
X42890133Y-119101888D01*
X42890136Y-119101890D01*
X43199500Y-119195734D01*
X43199510Y-119195737D01*
X43516601Y-119258810D01*
X43838348Y-119290500D01*
X44161652Y-119290500D01*
X44483399Y-119258810D01*
X44800490Y-119195737D01*
X45109873Y-119101887D01*
X45408567Y-118978164D01*
X45693695Y-118825759D01*
X45962512Y-118646142D01*
X46212429Y-118441040D01*
X46441040Y-118212429D01*
X46646142Y-117962512D01*
X46696350Y-117887369D01*
X49059500Y-117887369D01*
X49059500Y-118072631D01*
X49071761Y-118134271D01*
X49095643Y-118254334D01*
X49166539Y-118425494D01*
X49166538Y-118425494D01*
X49193270Y-118465500D01*
X49269466Y-118579534D01*
X49400466Y-118710534D01*
X49452046Y-118744999D01*
X49554505Y-118813461D01*
X49625401Y-118842826D01*
X49725666Y-118884357D01*
X49907369Y-118920500D01*
X49907372Y-118920500D01*
X50092627Y-118920500D01*
X50092631Y-118920500D01*
X50274334Y-118884357D01*
X50445494Y-118813461D01*
X50599534Y-118710534D01*
X50730534Y-118579534D01*
X50833461Y-118425494D01*
X50904357Y-118254334D01*
X50940500Y-118072631D01*
X50940500Y-117887369D01*
X52659501Y-117887369D01*
X52659501Y-118072631D01*
X52671762Y-118134271D01*
X52695644Y-118254334D01*
X52766540Y-118425494D01*
X52766539Y-118425494D01*
X52793271Y-118465500D01*
X52869467Y-118579534D01*
X53000467Y-118710534D01*
X53052047Y-118744999D01*
X53154506Y-118813461D01*
X53225402Y-118842826D01*
X53325667Y-118884357D01*
X53507370Y-118920500D01*
X53507373Y-118920500D01*
X53692628Y-118920500D01*
X53692632Y-118920500D01*
X53874335Y-118884357D01*
X54045495Y-118813461D01*
X54199535Y-118710534D01*
X54330535Y-118579534D01*
X54433462Y-118425494D01*
X54504358Y-118254334D01*
X54540501Y-118072631D01*
X54540501Y-117887369D01*
X56259500Y-117887369D01*
X56259500Y-118072631D01*
X56271761Y-118134271D01*
X56295643Y-118254334D01*
X56366539Y-118425494D01*
X56366538Y-118425494D01*
X56393270Y-118465500D01*
X56469466Y-118579534D01*
X56600466Y-118710534D01*
X56652046Y-118744999D01*
X56754505Y-118813461D01*
X56825401Y-118842826D01*
X56925666Y-118884357D01*
X57107369Y-118920500D01*
X57107372Y-118920500D01*
X57292627Y-118920500D01*
X57292631Y-118920500D01*
X57474334Y-118884357D01*
X57645494Y-118813461D01*
X57799534Y-118710534D01*
X57930534Y-118579534D01*
X58033461Y-118425494D01*
X58104357Y-118254334D01*
X58140500Y-118072631D01*
X58140500Y-117887369D01*
X59859499Y-117887369D01*
X59859499Y-118072631D01*
X59871760Y-118134271D01*
X59895642Y-118254334D01*
X59966538Y-118425494D01*
X59966537Y-118425494D01*
X59993269Y-118465500D01*
X60069465Y-118579534D01*
X60200465Y-118710534D01*
X60252045Y-118744999D01*
X60354504Y-118813461D01*
X60425400Y-118842826D01*
X60525665Y-118884357D01*
X60707368Y-118920500D01*
X60707371Y-118920500D01*
X60892626Y-118920500D01*
X60892630Y-118920500D01*
X61074333Y-118884357D01*
X61245493Y-118813461D01*
X61399533Y-118710534D01*
X61530533Y-118579534D01*
X61633460Y-118425494D01*
X61704356Y-118254334D01*
X61725668Y-118147189D01*
X65734500Y-118147189D01*
X65734500Y-118252811D01*
X65774920Y-118350393D01*
X65849607Y-118425080D01*
X65947189Y-118465500D01*
X65947190Y-118465500D01*
X66052810Y-118465500D01*
X66052811Y-118465500D01*
X66150393Y-118425080D01*
X66225080Y-118350393D01*
X66265500Y-118252811D01*
X66265500Y-118147189D01*
X80634500Y-118147189D01*
X80634500Y-118252811D01*
X80674920Y-118350393D01*
X80749607Y-118425080D01*
X80847189Y-118465500D01*
X80847190Y-118465500D01*
X80952810Y-118465500D01*
X80952811Y-118465500D01*
X81050393Y-118425080D01*
X81125080Y-118350393D01*
X81165500Y-118252811D01*
X81165500Y-118147189D01*
X81125080Y-118049607D01*
X81050393Y-117974920D01*
X80952811Y-117934500D01*
X80847189Y-117934500D01*
X80749607Y-117974920D01*
X80674920Y-118049607D01*
X80634500Y-118147189D01*
X66265500Y-118147189D01*
X66225080Y-118049607D01*
X66150393Y-117974920D01*
X66052811Y-117934500D01*
X65947189Y-117934500D01*
X65849607Y-117974920D01*
X65774920Y-118049607D01*
X65734500Y-118147189D01*
X61725668Y-118147189D01*
X61740499Y-118072631D01*
X61740499Y-117887369D01*
X61704356Y-117705666D01*
X61633460Y-117534506D01*
X61633459Y-117534505D01*
X61633460Y-117534505D01*
X61549316Y-117408577D01*
X61530533Y-117380466D01*
X61399533Y-117249466D01*
X61346386Y-117213954D01*
X61245493Y-117146538D01*
X61074333Y-117075643D01*
X60892630Y-117039500D01*
X60707368Y-117039500D01*
X60571090Y-117066607D01*
X60525664Y-117075643D01*
X60354504Y-117146538D01*
X60200467Y-117249464D01*
X60069463Y-117380468D01*
X59966537Y-117534505D01*
X59895642Y-117705665D01*
X59895642Y-117705666D01*
X59859499Y-117887369D01*
X58140500Y-117887369D01*
X58104357Y-117705666D01*
X58033461Y-117534506D01*
X58033460Y-117534505D01*
X58033461Y-117534505D01*
X57949317Y-117408577D01*
X57930534Y-117380466D01*
X57799534Y-117249466D01*
X57746387Y-117213954D01*
X57645494Y-117146538D01*
X57474334Y-117075643D01*
X57292631Y-117039500D01*
X57107369Y-117039500D01*
X56971091Y-117066607D01*
X56925665Y-117075643D01*
X56754505Y-117146538D01*
X56600468Y-117249464D01*
X56469464Y-117380468D01*
X56366538Y-117534505D01*
X56295643Y-117705665D01*
X56295643Y-117705666D01*
X56259500Y-117887369D01*
X54540501Y-117887369D01*
X54504358Y-117705666D01*
X54433462Y-117534506D01*
X54433461Y-117534505D01*
X54433462Y-117534505D01*
X54349318Y-117408577D01*
X54330535Y-117380466D01*
X54199535Y-117249466D01*
X54146388Y-117213954D01*
X54045495Y-117146538D01*
X53874335Y-117075643D01*
X53692632Y-117039500D01*
X53507370Y-117039500D01*
X53371092Y-117066607D01*
X53325666Y-117075643D01*
X53154506Y-117146538D01*
X53000469Y-117249464D01*
X52869465Y-117380468D01*
X52766539Y-117534505D01*
X52695644Y-117705665D01*
X52695644Y-117705666D01*
X52659501Y-117887369D01*
X50940500Y-117887369D01*
X50904357Y-117705666D01*
X50833461Y-117534506D01*
X50833460Y-117534505D01*
X50833461Y-117534505D01*
X50749317Y-117408577D01*
X50730534Y-117380466D01*
X50599534Y-117249466D01*
X50546387Y-117213954D01*
X50445494Y-117146538D01*
X50274334Y-117075643D01*
X50092631Y-117039500D01*
X49907369Y-117039500D01*
X49771091Y-117066607D01*
X49725665Y-117075643D01*
X49554505Y-117146538D01*
X49400468Y-117249464D01*
X49269464Y-117380468D01*
X49166538Y-117534505D01*
X49095643Y-117705665D01*
X49095643Y-117705666D01*
X49059500Y-117887369D01*
X46696350Y-117887369D01*
X46701985Y-117878936D01*
X46714129Y-117860762D01*
X46791518Y-117744940D01*
X46825759Y-117693695D01*
X46978164Y-117408567D01*
X47101887Y-117109873D01*
X47195737Y-116800490D01*
X47258810Y-116483399D01*
X47290500Y-116161652D01*
X47290500Y-115838348D01*
X47258810Y-115516601D01*
X47225148Y-115347369D01*
X49059500Y-115347369D01*
X49059500Y-115532631D01*
X49095643Y-115714334D01*
X49166539Y-115885494D01*
X49166538Y-115885494D01*
X49268997Y-116038833D01*
X49269466Y-116039534D01*
X49400466Y-116170534D01*
X49452046Y-116204999D01*
X49554505Y-116273461D01*
X49625401Y-116302826D01*
X49725666Y-116344357D01*
X49907369Y-116380500D01*
X49907372Y-116380500D01*
X50092627Y-116380500D01*
X50092631Y-116380500D01*
X50274334Y-116344357D01*
X50445494Y-116273461D01*
X50599534Y-116170534D01*
X50730534Y-116039534D01*
X50833461Y-115885494D01*
X50904357Y-115714334D01*
X50940500Y-115532631D01*
X50940500Y-115347369D01*
X52659501Y-115347369D01*
X52659501Y-115532631D01*
X52695644Y-115714334D01*
X52766540Y-115885494D01*
X52766539Y-115885494D01*
X52868998Y-116038833D01*
X52869467Y-116039534D01*
X53000467Y-116170534D01*
X53052047Y-116204999D01*
X53154506Y-116273461D01*
X53225402Y-116302826D01*
X53325667Y-116344357D01*
X53507370Y-116380500D01*
X53507373Y-116380500D01*
X53692628Y-116380500D01*
X53692632Y-116380500D01*
X53874335Y-116344357D01*
X54045495Y-116273461D01*
X54199535Y-116170534D01*
X54330535Y-116039534D01*
X54433462Y-115885494D01*
X54504358Y-115714334D01*
X54540501Y-115532631D01*
X54540501Y-115347369D01*
X56259500Y-115347369D01*
X56259500Y-115532631D01*
X56295643Y-115714334D01*
X56366539Y-115885494D01*
X56366538Y-115885494D01*
X56468997Y-116038833D01*
X56469466Y-116039534D01*
X56600466Y-116170534D01*
X56652046Y-116204999D01*
X56754505Y-116273461D01*
X56825401Y-116302826D01*
X56925666Y-116344357D01*
X57107369Y-116380500D01*
X57107372Y-116380500D01*
X57292627Y-116380500D01*
X57292631Y-116380500D01*
X57474334Y-116344357D01*
X57645494Y-116273461D01*
X57799534Y-116170534D01*
X57930534Y-116039534D01*
X58033461Y-115885494D01*
X58104357Y-115714334D01*
X58140500Y-115532631D01*
X58140500Y-115347369D01*
X59859499Y-115347369D01*
X59859499Y-115532631D01*
X59895642Y-115714334D01*
X59966538Y-115885494D01*
X59966537Y-115885494D01*
X60068996Y-116038833D01*
X60069465Y-116039534D01*
X60200465Y-116170534D01*
X60252045Y-116204999D01*
X60354504Y-116273461D01*
X60425400Y-116302826D01*
X60525665Y-116344357D01*
X60707368Y-116380500D01*
X60707371Y-116380500D01*
X60892626Y-116380500D01*
X60892630Y-116380500D01*
X61074333Y-116344357D01*
X61245493Y-116273461D01*
X61399533Y-116170534D01*
X61530533Y-116039534D01*
X61633460Y-115885494D01*
X61704356Y-115714334D01*
X61740499Y-115532631D01*
X61740499Y-115347369D01*
X61704356Y-115165666D01*
X61633460Y-114994506D01*
X61633459Y-114994505D01*
X61633460Y-114994505D01*
X61530534Y-114840468D01*
X61530533Y-114840466D01*
X61476104Y-114786037D01*
X68009500Y-114786037D01*
X68009500Y-117213962D01*
X68012316Y-117255488D01*
X68012318Y-117255502D01*
X68056961Y-117435016D01*
X68056962Y-117435019D01*
X68056963Y-117435021D01*
X68139158Y-117600753D01*
X68255060Y-117744940D01*
X68399247Y-117860842D01*
X68564979Y-117943037D01*
X68744505Y-117987683D01*
X68761121Y-117988809D01*
X68786037Y-117990500D01*
X68786046Y-117990500D01*
X71213963Y-117990500D01*
X71237320Y-117988915D01*
X71255495Y-117987683D01*
X71435021Y-117943037D01*
X71600753Y-117860842D01*
X71744940Y-117744940D01*
X71860842Y-117600753D01*
X71943037Y-117435021D01*
X71987683Y-117255495D01*
X71988997Y-117236109D01*
X71990500Y-117213962D01*
X71990500Y-115862981D01*
X72909500Y-115862981D01*
X72909500Y-116137019D01*
X72921423Y-116227583D01*
X72945269Y-116408713D01*
X72992553Y-116585177D01*
X73016195Y-116673411D01*
X73121064Y-116926589D01*
X73258083Y-117163912D01*
X73424906Y-117381320D01*
X73618680Y-117575094D01*
X73836088Y-117741917D01*
X74073411Y-117878936D01*
X74326589Y-117983805D01*
X74591289Y-118054731D01*
X74862981Y-118090500D01*
X75137019Y-118090500D01*
X75408711Y-118054731D01*
X75673411Y-117983805D01*
X75926589Y-117878936D01*
X76163912Y-117741917D01*
X76381320Y-117575094D01*
X76575094Y-117381320D01*
X76741917Y-117163912D01*
X76878936Y-116926589D01*
X76983805Y-116673411D01*
X77054731Y-116408711D01*
X77090500Y-116137019D01*
X77090500Y-115862981D01*
X77087257Y-115838345D01*
X82709500Y-115838345D01*
X82709500Y-116161654D01*
X82741189Y-116483392D01*
X82741189Y-116483394D01*
X82804265Y-116800499D01*
X82898109Y-117109863D01*
X82898112Y-117109871D01*
X82898113Y-117109873D01*
X82958434Y-117255502D01*
X83021840Y-117408576D01*
X83021841Y-117408577D01*
X83174239Y-117693692D01*
X83174243Y-117693699D01*
X83353856Y-117962510D01*
X83353865Y-117962522D01*
X83558953Y-118212421D01*
X83558960Y-118212429D01*
X83787571Y-118441040D01*
X83787576Y-118441044D01*
X83787578Y-118441046D01*
X84037477Y-118646134D01*
X84037489Y-118646143D01*
X84306300Y-118825756D01*
X84306303Y-118825758D01*
X84306305Y-118825759D01*
X84415933Y-118884357D01*
X84591422Y-118978158D01*
X84591423Y-118978159D01*
X84591425Y-118978160D01*
X84591433Y-118978164D01*
X84890127Y-119101887D01*
X84890133Y-119101888D01*
X84890136Y-119101890D01*
X85199500Y-119195734D01*
X85199510Y-119195737D01*
X85516601Y-119258810D01*
X85838348Y-119290500D01*
X86161652Y-119290500D01*
X86483399Y-119258810D01*
X86800490Y-119195737D01*
X87109873Y-119101887D01*
X87408567Y-118978164D01*
X87693695Y-118825759D01*
X87962512Y-118646142D01*
X88212429Y-118441040D01*
X88441040Y-118212429D01*
X88646142Y-117962512D01*
X88825759Y-117693695D01*
X88978164Y-117408567D01*
X89101887Y-117109873D01*
X89195737Y-116800490D01*
X89258810Y-116483399D01*
X89290500Y-116161652D01*
X89290500Y-115838348D01*
X89258810Y-115516601D01*
X89195737Y-115199510D01*
X89157486Y-115073412D01*
X89101890Y-114890136D01*
X89101888Y-114890133D01*
X89101887Y-114890127D01*
X88978164Y-114591433D01*
X88825759Y-114306305D01*
X88793538Y-114258083D01*
X88646143Y-114037489D01*
X88646134Y-114037477D01*
X88441046Y-113787578D01*
X88441044Y-113787576D01*
X88441040Y-113787571D01*
X88212429Y-113558960D01*
X88212423Y-113558955D01*
X88212421Y-113558953D01*
X87962522Y-113353865D01*
X87962510Y-113353856D01*
X87693699Y-113174243D01*
X87693692Y-113174239D01*
X87408577Y-113021841D01*
X87408576Y-113021840D01*
X87408569Y-113021837D01*
X87408567Y-113021836D01*
X87109873Y-112898113D01*
X87109871Y-112898112D01*
X87109863Y-112898109D01*
X86800499Y-112804265D01*
X86800492Y-112804263D01*
X86800490Y-112804263D01*
X86483399Y-112741190D01*
X86483397Y-112741189D01*
X86483393Y-112741189D01*
X86161654Y-112709500D01*
X86161652Y-112709500D01*
X85838348Y-112709500D01*
X85838345Y-112709500D01*
X85516607Y-112741189D01*
X85516605Y-112741189D01*
X85199500Y-112804265D01*
X84890136Y-112898109D01*
X84591423Y-113021840D01*
X84591422Y-113021841D01*
X84306307Y-113174239D01*
X84306300Y-113174243D01*
X84037489Y-113353856D01*
X84037477Y-113353865D01*
X83787578Y-113558953D01*
X83558953Y-113787578D01*
X83353865Y-114037477D01*
X83353856Y-114037489D01*
X83174243Y-114306300D01*
X83174239Y-114306307D01*
X83021841Y-114591422D01*
X83021840Y-114591423D01*
X82898109Y-114890136D01*
X82804265Y-115199500D01*
X82741189Y-115516605D01*
X82741189Y-115516607D01*
X82709500Y-115838345D01*
X77087257Y-115838345D01*
X77054731Y-115591289D01*
X77034720Y-115516605D01*
X77018010Y-115454243D01*
X77016120Y-115447189D01*
X80734500Y-115447189D01*
X80734500Y-115552811D01*
X80774920Y-115650393D01*
X80849607Y-115725080D01*
X80947189Y-115765500D01*
X80947190Y-115765500D01*
X81052810Y-115765500D01*
X81052811Y-115765500D01*
X81150393Y-115725080D01*
X81225080Y-115650393D01*
X81265500Y-115552811D01*
X81265500Y-115447189D01*
X81225080Y-115349607D01*
X81150393Y-115274920D01*
X81052811Y-115234500D01*
X80947189Y-115234500D01*
X80849607Y-115274920D01*
X80774920Y-115349607D01*
X80734500Y-115447189D01*
X77016120Y-115447189D01*
X77010387Y-115425797D01*
X76983805Y-115326589D01*
X76878936Y-115073411D01*
X76741917Y-114836088D01*
X76575094Y-114618680D01*
X76381320Y-114424906D01*
X76163912Y-114258083D01*
X75926589Y-114121064D01*
X75673411Y-114016195D01*
X75585177Y-113992553D01*
X75408713Y-113945269D01*
X75137019Y-113909500D01*
X74862981Y-113909500D01*
X74591286Y-113945269D01*
X74326589Y-114016195D01*
X74073412Y-114121063D01*
X73836089Y-114258082D01*
X73618684Y-114424902D01*
X73424902Y-114618684D01*
X73258082Y-114836089D01*
X73121063Y-115073412D01*
X73016195Y-115326589D01*
X72945269Y-115591286D01*
X72929070Y-115714334D01*
X72909500Y-115862981D01*
X71990500Y-115862981D01*
X71990500Y-114786037D01*
X71987683Y-114744511D01*
X71987683Y-114744505D01*
X71943037Y-114564979D01*
X71860842Y-114399247D01*
X71744940Y-114255060D01*
X71600753Y-114139158D01*
X71435021Y-114056963D01*
X71435019Y-114056962D01*
X71435016Y-114056961D01*
X71255502Y-114012318D01*
X71255488Y-114012316D01*
X71213963Y-114009500D01*
X71213954Y-114009500D01*
X68786046Y-114009500D01*
X68786037Y-114009500D01*
X68744511Y-114012316D01*
X68744497Y-114012318D01*
X68564983Y-114056961D01*
X68399246Y-114139158D01*
X68255061Y-114255059D01*
X68255059Y-114255061D01*
X68139158Y-114399246D01*
X68056961Y-114564983D01*
X68012318Y-114744497D01*
X68012316Y-114744511D01*
X68009500Y-114786037D01*
X61476104Y-114786037D01*
X61399533Y-114709466D01*
X61398832Y-114708997D01*
X61245493Y-114606538D01*
X61074333Y-114535643D01*
X60892630Y-114499500D01*
X60707368Y-114499500D01*
X60571090Y-114526607D01*
X60525664Y-114535643D01*
X60354504Y-114606538D01*
X60200467Y-114709464D01*
X60069463Y-114840468D01*
X59966537Y-114994505D01*
X59895642Y-115165665D01*
X59895642Y-115165666D01*
X59859499Y-115347369D01*
X58140500Y-115347369D01*
X58104357Y-115165666D01*
X58033461Y-114994506D01*
X58033460Y-114994505D01*
X58033461Y-114994505D01*
X57930535Y-114840468D01*
X57930534Y-114840466D01*
X57799534Y-114709466D01*
X57798833Y-114708997D01*
X57645494Y-114606538D01*
X57474334Y-114535643D01*
X57292631Y-114499500D01*
X57107369Y-114499500D01*
X56971091Y-114526607D01*
X56925665Y-114535643D01*
X56754505Y-114606538D01*
X56600468Y-114709464D01*
X56469464Y-114840468D01*
X56366538Y-114994505D01*
X56295643Y-115165665D01*
X56295643Y-115165666D01*
X56259500Y-115347369D01*
X54540501Y-115347369D01*
X54504358Y-115165666D01*
X54433462Y-114994506D01*
X54433461Y-114994505D01*
X54433462Y-114994505D01*
X54330536Y-114840468D01*
X54330535Y-114840466D01*
X54199535Y-114709466D01*
X54198834Y-114708997D01*
X54045495Y-114606538D01*
X53874335Y-114535643D01*
X53692632Y-114499500D01*
X53507370Y-114499500D01*
X53371092Y-114526607D01*
X53325666Y-114535643D01*
X53154506Y-114606538D01*
X53000469Y-114709464D01*
X52869465Y-114840468D01*
X52766539Y-114994505D01*
X52695644Y-115165665D01*
X52695644Y-115165666D01*
X52659501Y-115347369D01*
X50940500Y-115347369D01*
X50904357Y-115165666D01*
X50833461Y-114994506D01*
X50833460Y-114994505D01*
X50833461Y-114994505D01*
X50730535Y-114840468D01*
X50730534Y-114840466D01*
X50599534Y-114709466D01*
X50598833Y-114708997D01*
X50445494Y-114606538D01*
X50274334Y-114535643D01*
X50092631Y-114499500D01*
X49907369Y-114499500D01*
X49771091Y-114526607D01*
X49725665Y-114535643D01*
X49554505Y-114606538D01*
X49400468Y-114709464D01*
X49269464Y-114840468D01*
X49166538Y-114994505D01*
X49095643Y-115165665D01*
X49095643Y-115165666D01*
X49059500Y-115347369D01*
X47225148Y-115347369D01*
X47195737Y-115199510D01*
X47157486Y-115073412D01*
X47101890Y-114890136D01*
X47101888Y-114890133D01*
X47101887Y-114890127D01*
X46978164Y-114591433D01*
X46825759Y-114306305D01*
X46793538Y-114258083D01*
X46646143Y-114037489D01*
X46646134Y-114037477D01*
X46591387Y-113970768D01*
X46572036Y-113947189D01*
X63734500Y-113947189D01*
X63734500Y-114052811D01*
X63774920Y-114150393D01*
X63849607Y-114225080D01*
X63947189Y-114265500D01*
X63947190Y-114265500D01*
X64052810Y-114265500D01*
X64052811Y-114265500D01*
X64150393Y-114225080D01*
X64225080Y-114150393D01*
X64265500Y-114052811D01*
X64265500Y-113947189D01*
X64225080Y-113849607D01*
X64150393Y-113774920D01*
X64052811Y-113734500D01*
X63947189Y-113734500D01*
X63849607Y-113774920D01*
X63774920Y-113849607D01*
X63734500Y-113947189D01*
X46572036Y-113947189D01*
X46441046Y-113787578D01*
X46441044Y-113787576D01*
X46441040Y-113787571D01*
X46212429Y-113558960D01*
X46212423Y-113558955D01*
X46212421Y-113558953D01*
X45962522Y-113353865D01*
X45962510Y-113353856D01*
X45693699Y-113174243D01*
X45693692Y-113174239D01*
X45408577Y-113021841D01*
X45408576Y-113021840D01*
X45408569Y-113021837D01*
X45408567Y-113021836D01*
X45228353Y-112947189D01*
X47234500Y-112947189D01*
X47234500Y-113052811D01*
X47274920Y-113150393D01*
X47349607Y-113225080D01*
X47447189Y-113265500D01*
X47447190Y-113265500D01*
X47552810Y-113265500D01*
X47552811Y-113265500D01*
X47650393Y-113225080D01*
X47725080Y-113150393D01*
X47765500Y-113052811D01*
X47765500Y-112947189D01*
X47725080Y-112849607D01*
X47650393Y-112774920D01*
X47552811Y-112734500D01*
X47447189Y-112734500D01*
X47349607Y-112774920D01*
X47274920Y-112849607D01*
X47234500Y-112947189D01*
X45228353Y-112947189D01*
X45109873Y-112898113D01*
X45109871Y-112898112D01*
X45109863Y-112898109D01*
X44800499Y-112804265D01*
X44800492Y-112804263D01*
X44800490Y-112804263D01*
X44483399Y-112741190D01*
X44483397Y-112741189D01*
X44483393Y-112741189D01*
X44161654Y-112709500D01*
X44161652Y-112709500D01*
X43838348Y-112709500D01*
X43838345Y-112709500D01*
X43516607Y-112741189D01*
X43516605Y-112741189D01*
X43199500Y-112804265D01*
X42890136Y-112898109D01*
X42591423Y-113021840D01*
X42591422Y-113021841D01*
X42306307Y-113174239D01*
X42306300Y-113174243D01*
X42037489Y-113353856D01*
X42037477Y-113353865D01*
X41787578Y-113558953D01*
X41558953Y-113787578D01*
X41353865Y-114037477D01*
X41353856Y-114037489D01*
X41174243Y-114306300D01*
X41174239Y-114306307D01*
X41021841Y-114591422D01*
X41021840Y-114591423D01*
X40898109Y-114890136D01*
X40804265Y-115199500D01*
X40741189Y-115516605D01*
X40741189Y-115516607D01*
X40709500Y-115838345D01*
X40500500Y-115838345D01*
X40500500Y-112041087D01*
X49059500Y-112041087D01*
X49059500Y-112041088D01*
X49059500Y-112041090D01*
X49059500Y-113758907D01*
X49059501Y-113758914D01*
X49064750Y-113785309D01*
X49064750Y-113785310D01*
X49074684Y-113800177D01*
X49084753Y-113815247D01*
X49114689Y-113835249D01*
X49141087Y-113840500D01*
X50858912Y-113840499D01*
X50885311Y-113835249D01*
X50915247Y-113815247D01*
X50935249Y-113785311D01*
X50940500Y-113758913D01*
X50940499Y-112041088D01*
X50940499Y-112041087D01*
X52659501Y-112041087D01*
X52659501Y-112041088D01*
X52659501Y-112041090D01*
X52659501Y-113758907D01*
X52659502Y-113758914D01*
X52664751Y-113785309D01*
X52664751Y-113785310D01*
X52674685Y-113800177D01*
X52684754Y-113815247D01*
X52714690Y-113835249D01*
X52741088Y-113840500D01*
X54458913Y-113840499D01*
X54485312Y-113835249D01*
X54515248Y-113815247D01*
X54535250Y-113785311D01*
X54540501Y-113758913D01*
X54540500Y-112041088D01*
X54540500Y-112041087D01*
X56259500Y-112041087D01*
X56259500Y-112041088D01*
X56259500Y-112041090D01*
X56259500Y-113758907D01*
X56259501Y-113758914D01*
X56264750Y-113785309D01*
X56264750Y-113785310D01*
X56274684Y-113800177D01*
X56284753Y-113815247D01*
X56314689Y-113835249D01*
X56341087Y-113840500D01*
X58058912Y-113840499D01*
X58085311Y-113835249D01*
X58115247Y-113815247D01*
X58135249Y-113785311D01*
X58140500Y-113758913D01*
X58140499Y-112041088D01*
X58140499Y-112041087D01*
X59859499Y-112041087D01*
X59859499Y-112041088D01*
X59859499Y-112041090D01*
X59859499Y-113758907D01*
X59859500Y-113758914D01*
X59864749Y-113785309D01*
X59864749Y-113785310D01*
X59874683Y-113800177D01*
X59884752Y-113815247D01*
X59914688Y-113835249D01*
X59941086Y-113840500D01*
X61658911Y-113840499D01*
X61685310Y-113835249D01*
X61715246Y-113815247D01*
X61735248Y-113785311D01*
X61740499Y-113758913D01*
X61740498Y-112041088D01*
X61735248Y-112014689D01*
X61715246Y-111984753D01*
X61685310Y-111964751D01*
X61658912Y-111959500D01*
X61658908Y-111959500D01*
X59941091Y-111959500D01*
X59941084Y-111959501D01*
X59914689Y-111964750D01*
X59914688Y-111964750D01*
X59884753Y-111984752D01*
X59884749Y-111984756D01*
X59864750Y-112014688D01*
X59864750Y-112014689D01*
X59859499Y-112041087D01*
X58140499Y-112041087D01*
X58135249Y-112014689D01*
X58115247Y-111984753D01*
X58085311Y-111964751D01*
X58058913Y-111959500D01*
X58058909Y-111959500D01*
X56341092Y-111959500D01*
X56341085Y-111959501D01*
X56314690Y-111964750D01*
X56314689Y-111964750D01*
X56284754Y-111984752D01*
X56284750Y-111984756D01*
X56264751Y-112014688D01*
X56264751Y-112014689D01*
X56259500Y-112041087D01*
X54540500Y-112041087D01*
X54535250Y-112014689D01*
X54515248Y-111984753D01*
X54485312Y-111964751D01*
X54458914Y-111959500D01*
X54458910Y-111959500D01*
X52741093Y-111959500D01*
X52741086Y-111959501D01*
X52714691Y-111964750D01*
X52714690Y-111964750D01*
X52684755Y-111984752D01*
X52684751Y-111984756D01*
X52664752Y-112014688D01*
X52664752Y-112014689D01*
X52659501Y-112041087D01*
X50940499Y-112041087D01*
X50935249Y-112014689D01*
X50915247Y-111984753D01*
X50885311Y-111964751D01*
X50858913Y-111959500D01*
X50858909Y-111959500D01*
X49141092Y-111959500D01*
X49141085Y-111959501D01*
X49114690Y-111964750D01*
X49114689Y-111964750D01*
X49084754Y-111984752D01*
X49084750Y-111984756D01*
X49064751Y-112014688D01*
X49064751Y-112014689D01*
X49059500Y-112041087D01*
X40500500Y-112041087D01*
X40500500Y-111347189D01*
X51934500Y-111347189D01*
X51934500Y-111452811D01*
X51974920Y-111550393D01*
X52049607Y-111625080D01*
X52147189Y-111665500D01*
X52147190Y-111665500D01*
X52252810Y-111665500D01*
X52252811Y-111665500D01*
X52350393Y-111625080D01*
X52425080Y-111550393D01*
X52426407Y-111547189D01*
X55134500Y-111547189D01*
X55134500Y-111652811D01*
X55174920Y-111750393D01*
X55249607Y-111825080D01*
X55347189Y-111865500D01*
X55347190Y-111865500D01*
X55452810Y-111865500D01*
X55452811Y-111865500D01*
X55550393Y-111825080D01*
X55625080Y-111750393D01*
X55665500Y-111652811D01*
X55665500Y-111547189D01*
X55625080Y-111449607D01*
X55550393Y-111374920D01*
X55483445Y-111347189D01*
X58434500Y-111347189D01*
X58434500Y-111452811D01*
X58474920Y-111550393D01*
X58549607Y-111625080D01*
X58647189Y-111665500D01*
X58647190Y-111665500D01*
X58752810Y-111665500D01*
X58752811Y-111665500D01*
X58850393Y-111625080D01*
X58925080Y-111550393D01*
X58965500Y-111452811D01*
X58965500Y-111347189D01*
X58925080Y-111249607D01*
X58850393Y-111174920D01*
X58752811Y-111134500D01*
X58647189Y-111134500D01*
X58549607Y-111174920D01*
X58474920Y-111249607D01*
X58434500Y-111347189D01*
X55483445Y-111347189D01*
X55452811Y-111334500D01*
X55347189Y-111334500D01*
X55249607Y-111374920D01*
X55174920Y-111449607D01*
X55134500Y-111547189D01*
X52426407Y-111547189D01*
X52465500Y-111452811D01*
X52465500Y-111347189D01*
X52425080Y-111249607D01*
X52350393Y-111174920D01*
X52252811Y-111134500D01*
X52147189Y-111134500D01*
X52049607Y-111174920D01*
X51974920Y-111249607D01*
X51934500Y-111347189D01*
X40500500Y-111347189D01*
X40500500Y-110110243D01*
X42859500Y-110110243D01*
X42859500Y-110289756D01*
X42859501Y-110289769D01*
X42887581Y-110467061D01*
X42887585Y-110467077D01*
X42943054Y-110637792D01*
X42943058Y-110637803D01*
X43024558Y-110797754D01*
X43130070Y-110942980D01*
X43130072Y-110942982D01*
X43130075Y-110942986D01*
X43257014Y-111069925D01*
X43257017Y-111069927D01*
X43257019Y-111069929D01*
X43345894Y-111134500D01*
X43402248Y-111175443D01*
X43562200Y-111256943D01*
X43651679Y-111286016D01*
X43732922Y-111312414D01*
X43732925Y-111312414D01*
X43732932Y-111312417D01*
X43910241Y-111340500D01*
X43910244Y-111340500D01*
X44089756Y-111340500D01*
X44089759Y-111340500D01*
X44267068Y-111312417D01*
X44271384Y-111311014D01*
X44302180Y-111301009D01*
X44366540Y-111280096D01*
X44437800Y-111256943D01*
X44597752Y-111175443D01*
X44742986Y-111069925D01*
X44869925Y-110942986D01*
X44975443Y-110797752D01*
X45056943Y-110637800D01*
X45112417Y-110467068D01*
X45140500Y-110289759D01*
X45140500Y-110110241D01*
X45112417Y-109932932D01*
X45056943Y-109762200D01*
X44975443Y-109602248D01*
X44969264Y-109593743D01*
X44969260Y-109593738D01*
X73509500Y-109593738D01*
X73509500Y-109593739D01*
X73509500Y-109593741D01*
X73509500Y-111211558D01*
X73509501Y-111211565D01*
X73514750Y-111237960D01*
X73514750Y-111237961D01*
X73514751Y-111237962D01*
X73534753Y-111267898D01*
X73564689Y-111287900D01*
X73591087Y-111293151D01*
X75208912Y-111293150D01*
X75235311Y-111287900D01*
X75265247Y-111267898D01*
X75285249Y-111237962D01*
X75290500Y-111211564D01*
X75290499Y-109593739D01*
X75285249Y-109567340D01*
X75265247Y-109537404D01*
X75235311Y-109517402D01*
X75208913Y-109512151D01*
X75208909Y-109512151D01*
X73591092Y-109512151D01*
X73591085Y-109512152D01*
X73564690Y-109517401D01*
X73564689Y-109517401D01*
X73534754Y-109537403D01*
X73534750Y-109537407D01*
X73514751Y-109567339D01*
X73514751Y-109567340D01*
X73509500Y-109593738D01*
X44969260Y-109593738D01*
X44869929Y-109457019D01*
X44869927Y-109457017D01*
X44869925Y-109457014D01*
X44742986Y-109330075D01*
X44742982Y-109330072D01*
X44742980Y-109330070D01*
X44597754Y-109224558D01*
X44437803Y-109143058D01*
X44437792Y-109143054D01*
X44267077Y-109087585D01*
X44267061Y-109087581D01*
X44106286Y-109062117D01*
X44089769Y-109059501D01*
X44089761Y-109059500D01*
X44089759Y-109059500D01*
X43910241Y-109059500D01*
X43910238Y-109059500D01*
X43910230Y-109059501D01*
X43732938Y-109087581D01*
X43732922Y-109087585D01*
X43562207Y-109143054D01*
X43562196Y-109143058D01*
X43402245Y-109224558D01*
X43257019Y-109330070D01*
X43130070Y-109457019D01*
X43024558Y-109602245D01*
X42943058Y-109762196D01*
X42943054Y-109762207D01*
X42887585Y-109932922D01*
X42887581Y-109932938D01*
X42859501Y-110110230D01*
X42859500Y-110110243D01*
X40500500Y-110110243D01*
X40500500Y-109020099D01*
X84859500Y-109020099D01*
X84859500Y-110699899D01*
X84866028Y-110749486D01*
X84866028Y-110749487D01*
X84916776Y-110858315D01*
X85001685Y-110943224D01*
X85110513Y-110993972D01*
X85160099Y-111000500D01*
X86839900Y-111000499D01*
X86889487Y-110993972D01*
X86998315Y-110943224D01*
X87083224Y-110858315D01*
X87133972Y-110749487D01*
X87140500Y-110699901D01*
X87140499Y-109020100D01*
X87133972Y-108970513D01*
X87083224Y-108861685D01*
X86998315Y-108776776D01*
X86889487Y-108726028D01*
X86839901Y-108719500D01*
X86839900Y-108719500D01*
X85160100Y-108719500D01*
X85110512Y-108726028D01*
X85001684Y-108776776D01*
X84916776Y-108861684D01*
X84866028Y-108970513D01*
X84859500Y-109020099D01*
X40500500Y-109020099D01*
X40500500Y-107570243D01*
X42859500Y-107570243D01*
X42859500Y-107749756D01*
X42859501Y-107749769D01*
X42887581Y-107927061D01*
X42887585Y-107927077D01*
X42943054Y-108097792D01*
X42943058Y-108097803D01*
X43024558Y-108257754D01*
X43130070Y-108402980D01*
X43130072Y-108402982D01*
X43130075Y-108402986D01*
X43257014Y-108529925D01*
X43257017Y-108529927D01*
X43257019Y-108529929D01*
X43305979Y-108565500D01*
X43402248Y-108635443D01*
X43562200Y-108716943D01*
X43590161Y-108726028D01*
X43732922Y-108772414D01*
X43732925Y-108772414D01*
X43732932Y-108772417D01*
X43910241Y-108800500D01*
X43910244Y-108800500D01*
X44089756Y-108800500D01*
X44089759Y-108800500D01*
X44267068Y-108772417D01*
X44437800Y-108716943D01*
X44597752Y-108635443D01*
X44742986Y-108529925D01*
X44869925Y-108402986D01*
X44975443Y-108257752D01*
X44980825Y-108247189D01*
X59734500Y-108247189D01*
X59734500Y-108352811D01*
X59774920Y-108450393D01*
X59849607Y-108525080D01*
X59947189Y-108565500D01*
X59947190Y-108565500D01*
X60052810Y-108565500D01*
X60052811Y-108565500D01*
X60150393Y-108525080D01*
X60225080Y-108450393D01*
X60265500Y-108352811D01*
X60265500Y-108247189D01*
X60225080Y-108149607D01*
X60150393Y-108074920D01*
X60052811Y-108034500D01*
X59947189Y-108034500D01*
X59849607Y-108074920D01*
X59774920Y-108149607D01*
X59734500Y-108247189D01*
X44980825Y-108247189D01*
X45056943Y-108097800D01*
X45112417Y-107927068D01*
X45140500Y-107749759D01*
X45140500Y-107570241D01*
X45112417Y-107392932D01*
X45056943Y-107222200D01*
X45018723Y-107147189D01*
X55034500Y-107147189D01*
X55034500Y-107252811D01*
X55074920Y-107350393D01*
X55149607Y-107425080D01*
X55247189Y-107465500D01*
X55247190Y-107465500D01*
X55352810Y-107465500D01*
X55352811Y-107465500D01*
X55450393Y-107425080D01*
X55525080Y-107350393D01*
X55565500Y-107252811D01*
X55565500Y-107230243D01*
X84859500Y-107230243D01*
X84859500Y-107409756D01*
X84859501Y-107409769D01*
X84887581Y-107587061D01*
X84887585Y-107587077D01*
X84943054Y-107757792D01*
X84943058Y-107757803D01*
X85024558Y-107917754D01*
X85130070Y-108062980D01*
X85130072Y-108062982D01*
X85130075Y-108062986D01*
X85257014Y-108189925D01*
X85257017Y-108189927D01*
X85257019Y-108189929D01*
X85335833Y-108247190D01*
X85402248Y-108295443D01*
X85562200Y-108376943D01*
X85642334Y-108402980D01*
X85732922Y-108432414D01*
X85732925Y-108432414D01*
X85732932Y-108432417D01*
X85910241Y-108460500D01*
X85910244Y-108460500D01*
X86089756Y-108460500D01*
X86089759Y-108460500D01*
X86267068Y-108432417D01*
X86437800Y-108376943D01*
X86597752Y-108295443D01*
X86742986Y-108189925D01*
X86869925Y-108062986D01*
X86975443Y-107917752D01*
X87056943Y-107757800D01*
X87112417Y-107587068D01*
X87140500Y-107409759D01*
X87140500Y-107230241D01*
X87112417Y-107052932D01*
X87056943Y-106882200D01*
X86975443Y-106722248D01*
X86888847Y-106603058D01*
X86869929Y-106577019D01*
X86869927Y-106577017D01*
X86869925Y-106577014D01*
X86742986Y-106450075D01*
X86742982Y-106450072D01*
X86742980Y-106450070D01*
X86597754Y-106344558D01*
X86437803Y-106263058D01*
X86437792Y-106263054D01*
X86267077Y-106207585D01*
X86267061Y-106207581D01*
X86089769Y-106179501D01*
X86089761Y-106179500D01*
X86089759Y-106179500D01*
X85910241Y-106179500D01*
X85910238Y-106179500D01*
X85910230Y-106179501D01*
X85732938Y-106207581D01*
X85732922Y-106207585D01*
X85562207Y-106263054D01*
X85562196Y-106263058D01*
X85402245Y-106344558D01*
X85257019Y-106450070D01*
X85130070Y-106577019D01*
X85024558Y-106722245D01*
X84943058Y-106882196D01*
X84943054Y-106882207D01*
X84887585Y-107052922D01*
X84887581Y-107052938D01*
X84859501Y-107230230D01*
X84859500Y-107230243D01*
X55565500Y-107230243D01*
X55565500Y-107147189D01*
X55525080Y-107049607D01*
X55450393Y-106974920D01*
X55352811Y-106934500D01*
X55247189Y-106934500D01*
X55149607Y-106974920D01*
X55074920Y-107049607D01*
X55034500Y-107147189D01*
X45018723Y-107147189D01*
X44975443Y-107062248D01*
X44911996Y-106974920D01*
X44869929Y-106917019D01*
X44869927Y-106917017D01*
X44869925Y-106917014D01*
X44742986Y-106790075D01*
X44742982Y-106790072D01*
X44742980Y-106790070D01*
X44597754Y-106684558D01*
X44437803Y-106603058D01*
X44437792Y-106603054D01*
X44267077Y-106547585D01*
X44267061Y-106547581D01*
X44089769Y-106519501D01*
X44089761Y-106519500D01*
X44089759Y-106519500D01*
X43910241Y-106519500D01*
X43910238Y-106519500D01*
X43910230Y-106519501D01*
X43732938Y-106547581D01*
X43732922Y-106547585D01*
X43562207Y-106603054D01*
X43562196Y-106603058D01*
X43402245Y-106684558D01*
X43257019Y-106790070D01*
X43130070Y-106917019D01*
X43024558Y-107062245D01*
X42943058Y-107222196D01*
X42943054Y-107222207D01*
X42887585Y-107392922D01*
X42887581Y-107392938D01*
X42859501Y-107570230D01*
X42859500Y-107570243D01*
X40500500Y-107570243D01*
X40500500Y-105030243D01*
X42859500Y-105030243D01*
X42859500Y-105209756D01*
X42859501Y-105209769D01*
X42887581Y-105387061D01*
X42887585Y-105387077D01*
X42943054Y-105557792D01*
X42943058Y-105557803D01*
X43024558Y-105717754D01*
X43130070Y-105862980D01*
X43130072Y-105862982D01*
X43130075Y-105862986D01*
X43257014Y-105989925D01*
X43257017Y-105989927D01*
X43257019Y-105989929D01*
X43400741Y-106094348D01*
X43402248Y-106095443D01*
X43562200Y-106176943D01*
X43651679Y-106206016D01*
X43732922Y-106232414D01*
X43732925Y-106232414D01*
X43732932Y-106232417D01*
X43910241Y-106260500D01*
X43910244Y-106260500D01*
X44089756Y-106260500D01*
X44089759Y-106260500D01*
X44267068Y-106232417D01*
X44437800Y-106176943D01*
X44597752Y-106095443D01*
X44742986Y-105989925D01*
X44869925Y-105862986D01*
X44954056Y-105747189D01*
X53234500Y-105747189D01*
X53234500Y-105852811D01*
X53274920Y-105950393D01*
X53349607Y-106025080D01*
X53447189Y-106065500D01*
X53447190Y-106065500D01*
X53552810Y-106065500D01*
X53552811Y-106065500D01*
X53650393Y-106025080D01*
X53725080Y-105950393D01*
X53765500Y-105852811D01*
X53765500Y-105747189D01*
X53725080Y-105649607D01*
X53650393Y-105574920D01*
X53552811Y-105534500D01*
X53447189Y-105534500D01*
X53349607Y-105574920D01*
X53274920Y-105649607D01*
X53234500Y-105747189D01*
X44954056Y-105747189D01*
X44975443Y-105717752D01*
X45056943Y-105557800D01*
X45112417Y-105387068D01*
X45140500Y-105209759D01*
X45140500Y-105047189D01*
X48934500Y-105047189D01*
X48934500Y-105152811D01*
X48974920Y-105250393D01*
X49049607Y-105325080D01*
X49147189Y-105365500D01*
X49147190Y-105365500D01*
X49252810Y-105365500D01*
X49252811Y-105365500D01*
X49350393Y-105325080D01*
X49360529Y-105314944D01*
X73509500Y-105314944D01*
X73509500Y-105490358D01*
X73543721Y-105662400D01*
X73566649Y-105717754D01*
X73610851Y-105824465D01*
X73675020Y-105920500D01*
X73708303Y-105970312D01*
X73832339Y-106094348D01*
X73833975Y-106095441D01*
X73978185Y-106191799D01*
X73978186Y-106191799D01*
X73978190Y-106191802D01*
X74140251Y-106258930D01*
X74312293Y-106293151D01*
X74312296Y-106293151D01*
X74487703Y-106293151D01*
X74487707Y-106293151D01*
X74659749Y-106258930D01*
X74821810Y-106191802D01*
X74888578Y-106147189D01*
X79734500Y-106147189D01*
X79734500Y-106252811D01*
X79774920Y-106350393D01*
X79849607Y-106425080D01*
X79947189Y-106465500D01*
X79947190Y-106465500D01*
X80052810Y-106465500D01*
X80052811Y-106465500D01*
X80150393Y-106425080D01*
X80225080Y-106350393D01*
X80265500Y-106252811D01*
X80265500Y-106147189D01*
X80225080Y-106049607D01*
X80150393Y-105974920D01*
X80052811Y-105934500D01*
X79947189Y-105934500D01*
X79849607Y-105974920D01*
X79774920Y-106049607D01*
X79734500Y-106147189D01*
X74888578Y-106147189D01*
X74967661Y-106094348D01*
X75091697Y-105970312D01*
X75189151Y-105824461D01*
X75256279Y-105662400D01*
X75290500Y-105490358D01*
X75290500Y-105314944D01*
X75256279Y-105142902D01*
X75189151Y-104980841D01*
X75091697Y-104834990D01*
X74967661Y-104710954D01*
X74936665Y-104690243D01*
X84859500Y-104690243D01*
X84859500Y-104869756D01*
X84859501Y-104869769D01*
X84887581Y-105047061D01*
X84887585Y-105047077D01*
X84943054Y-105217792D01*
X84943058Y-105217803D01*
X85024558Y-105377754D01*
X85130070Y-105522980D01*
X85130072Y-105522982D01*
X85130075Y-105522986D01*
X85257014Y-105649925D01*
X85257017Y-105649927D01*
X85257019Y-105649929D01*
X85402245Y-105755441D01*
X85402248Y-105755443D01*
X85562200Y-105836943D01*
X85611031Y-105852809D01*
X85732922Y-105892414D01*
X85732925Y-105892414D01*
X85732932Y-105892417D01*
X85910241Y-105920500D01*
X85910244Y-105920500D01*
X86089756Y-105920500D01*
X86089759Y-105920500D01*
X86267068Y-105892417D01*
X86437800Y-105836943D01*
X86597752Y-105755443D01*
X86742986Y-105649925D01*
X86869925Y-105522986D01*
X86975443Y-105377752D01*
X87056943Y-105217800D01*
X87112417Y-105047068D01*
X87140500Y-104869759D01*
X87140500Y-104690241D01*
X87112417Y-104512932D01*
X87056943Y-104342200D01*
X86975443Y-104182248D01*
X86888847Y-104063058D01*
X86869929Y-104037019D01*
X86869927Y-104037017D01*
X86869925Y-104037014D01*
X86742986Y-103910075D01*
X86742982Y-103910072D01*
X86742980Y-103910070D01*
X86597754Y-103804558D01*
X86437803Y-103723058D01*
X86437792Y-103723054D01*
X86267077Y-103667585D01*
X86267061Y-103667581D01*
X86089769Y-103639501D01*
X86089761Y-103639500D01*
X86089759Y-103639500D01*
X85910241Y-103639500D01*
X85910238Y-103639500D01*
X85910230Y-103639501D01*
X85732938Y-103667581D01*
X85732922Y-103667585D01*
X85562207Y-103723054D01*
X85562196Y-103723058D01*
X85402245Y-103804558D01*
X85257019Y-103910070D01*
X85130070Y-104037019D01*
X85024558Y-104182245D01*
X84943058Y-104342196D01*
X84943054Y-104342207D01*
X84887585Y-104512922D01*
X84887581Y-104512938D01*
X84859501Y-104690230D01*
X84859500Y-104690243D01*
X74936665Y-104690243D01*
X74924638Y-104682207D01*
X74821814Y-104613502D01*
X74821811Y-104613500D01*
X74821810Y-104613500D01*
X74659749Y-104546372D01*
X74487707Y-104512151D01*
X74312293Y-104512151D01*
X74183261Y-104537816D01*
X74140250Y-104546372D01*
X73978185Y-104613502D01*
X73832341Y-104710952D01*
X73708301Y-104834992D01*
X73610851Y-104980836D01*
X73583367Y-105047189D01*
X73543721Y-105142902D01*
X73509500Y-105314944D01*
X49360529Y-105314944D01*
X49425080Y-105250393D01*
X49465500Y-105152811D01*
X49465500Y-105047189D01*
X49425080Y-104949607D01*
X49350393Y-104874920D01*
X49252811Y-104834500D01*
X49147189Y-104834500D01*
X49049607Y-104874920D01*
X48974920Y-104949607D01*
X48934500Y-105047189D01*
X45140500Y-105047189D01*
X45140500Y-105030241D01*
X45112417Y-104852932D01*
X45106587Y-104834990D01*
X45059556Y-104690243D01*
X45056943Y-104682200D01*
X45039104Y-104647189D01*
X67424500Y-104647189D01*
X67424500Y-104752811D01*
X67464920Y-104850393D01*
X67539607Y-104925080D01*
X67637189Y-104965500D01*
X67637190Y-104965500D01*
X67742810Y-104965500D01*
X67742811Y-104965500D01*
X67840393Y-104925080D01*
X67915080Y-104850393D01*
X67955500Y-104752811D01*
X67955500Y-104647189D01*
X67915080Y-104549607D01*
X67840393Y-104474920D01*
X67742811Y-104434500D01*
X67637189Y-104434500D01*
X67539607Y-104474920D01*
X67464920Y-104549607D01*
X67424500Y-104647189D01*
X45039104Y-104647189D01*
X44975443Y-104522248D01*
X44968107Y-104512151D01*
X44869929Y-104377019D01*
X44869927Y-104377017D01*
X44869925Y-104377014D01*
X44742986Y-104250075D01*
X44742982Y-104250072D01*
X44742980Y-104250070D01*
X44597754Y-104144558D01*
X44437803Y-104063058D01*
X44437792Y-104063054D01*
X44267077Y-104007585D01*
X44267061Y-104007581D01*
X44089769Y-103979501D01*
X44089761Y-103979500D01*
X44089759Y-103979500D01*
X43910241Y-103979500D01*
X43910238Y-103979500D01*
X43910230Y-103979501D01*
X43732938Y-104007581D01*
X43732922Y-104007585D01*
X43562207Y-104063054D01*
X43562196Y-104063058D01*
X43402245Y-104144558D01*
X43257019Y-104250070D01*
X43130070Y-104377019D01*
X43024558Y-104522245D01*
X42943058Y-104682196D01*
X42943054Y-104682207D01*
X42887585Y-104852922D01*
X42887581Y-104852938D01*
X42859501Y-105030230D01*
X42859500Y-105030243D01*
X40500500Y-105030243D01*
X40500500Y-103297189D01*
X77434500Y-103297189D01*
X77434500Y-103402811D01*
X77474920Y-103500393D01*
X77549607Y-103575080D01*
X77647189Y-103615500D01*
X77647190Y-103615500D01*
X77752810Y-103615500D01*
X77752811Y-103615500D01*
X77850393Y-103575080D01*
X77925080Y-103500393D01*
X77965500Y-103402811D01*
X77965500Y-103297189D01*
X77925080Y-103199607D01*
X77850393Y-103124920D01*
X77752811Y-103084500D01*
X77647189Y-103084500D01*
X77549607Y-103124920D01*
X77474920Y-103199607D01*
X77434500Y-103297189D01*
X40500500Y-103297189D01*
X40500500Y-102150243D01*
X84859500Y-102150243D01*
X84859500Y-102329756D01*
X84859501Y-102329769D01*
X84887581Y-102507061D01*
X84887585Y-102507077D01*
X84943054Y-102677792D01*
X84943058Y-102677803D01*
X85024558Y-102837754D01*
X85130070Y-102982980D01*
X85130072Y-102982982D01*
X85130075Y-102982986D01*
X85257014Y-103109925D01*
X85257017Y-103109927D01*
X85257019Y-103109929D01*
X85277653Y-103124920D01*
X85402248Y-103215443D01*
X85562200Y-103296943D01*
X85651679Y-103326016D01*
X85732922Y-103352414D01*
X85732925Y-103352414D01*
X85732932Y-103352417D01*
X85910241Y-103380500D01*
X85910244Y-103380500D01*
X86089756Y-103380500D01*
X86089759Y-103380500D01*
X86267068Y-103352417D01*
X86437800Y-103296943D01*
X86597752Y-103215443D01*
X86742986Y-103109925D01*
X86869925Y-102982986D01*
X86975443Y-102837752D01*
X87056943Y-102677800D01*
X87112417Y-102507068D01*
X87140500Y-102329759D01*
X87140500Y-102150241D01*
X87112417Y-101972932D01*
X87056943Y-101802200D01*
X86975443Y-101642248D01*
X86869925Y-101497014D01*
X86742986Y-101370075D01*
X86742982Y-101370072D01*
X86742980Y-101370070D01*
X86597754Y-101264558D01*
X86437803Y-101183058D01*
X86437792Y-101183054D01*
X86267077Y-101127585D01*
X86267061Y-101127581D01*
X86089769Y-101099501D01*
X86089761Y-101099500D01*
X86089759Y-101099500D01*
X85910241Y-101099500D01*
X85910238Y-101099500D01*
X85910230Y-101099501D01*
X85732938Y-101127581D01*
X85732922Y-101127585D01*
X85562207Y-101183054D01*
X85562196Y-101183058D01*
X85402245Y-101264558D01*
X85257019Y-101370070D01*
X85130070Y-101497019D01*
X85024558Y-101642245D01*
X84943058Y-101802196D01*
X84943054Y-101802207D01*
X84887585Y-101972922D01*
X84887581Y-101972938D01*
X84859501Y-102150230D01*
X84859500Y-102150243D01*
X40500500Y-102150243D01*
X40500500Y-100947189D01*
X75034500Y-100947189D01*
X75034500Y-101052811D01*
X75074920Y-101150393D01*
X75149607Y-101225080D01*
X75247189Y-101265500D01*
X75247190Y-101265500D01*
X75352810Y-101265500D01*
X75352811Y-101265500D01*
X75450393Y-101225080D01*
X75525080Y-101150393D01*
X75565500Y-101052811D01*
X75565500Y-100947189D01*
X75525080Y-100849607D01*
X75450393Y-100774920D01*
X75352811Y-100734500D01*
X75247189Y-100734500D01*
X75149607Y-100774920D01*
X75074920Y-100849607D01*
X75034500Y-100947189D01*
X40500500Y-100947189D01*
X40500500Y-100347189D01*
X52934500Y-100347189D01*
X52934500Y-100452811D01*
X52974920Y-100550393D01*
X53049607Y-100625080D01*
X53147189Y-100665500D01*
X53147190Y-100665500D01*
X53252810Y-100665500D01*
X53252811Y-100665500D01*
X53350393Y-100625080D01*
X53425080Y-100550393D01*
X53465500Y-100452811D01*
X53465500Y-100347189D01*
X53425080Y-100249607D01*
X53350393Y-100174920D01*
X53252811Y-100134500D01*
X53147189Y-100134500D01*
X53049607Y-100174920D01*
X52974920Y-100249607D01*
X52934500Y-100347189D01*
X40500500Y-100347189D01*
X40500500Y-99947189D01*
X68124500Y-99947189D01*
X68124500Y-100052811D01*
X68164920Y-100150393D01*
X68239607Y-100225080D01*
X68337189Y-100265500D01*
X68337190Y-100265500D01*
X68442810Y-100265500D01*
X68442811Y-100265500D01*
X68540393Y-100225080D01*
X68615080Y-100150393D01*
X68655500Y-100052811D01*
X68655500Y-99947189D01*
X71134500Y-99947189D01*
X71134500Y-100052811D01*
X71174920Y-100150393D01*
X71249607Y-100225080D01*
X71347189Y-100265500D01*
X71347190Y-100265500D01*
X71452810Y-100265500D01*
X71452811Y-100265500D01*
X71550393Y-100225080D01*
X71625080Y-100150393D01*
X71665500Y-100052811D01*
X71665500Y-99947189D01*
X71625080Y-99849607D01*
X71550393Y-99774920D01*
X71452811Y-99734500D01*
X71347189Y-99734500D01*
X71249607Y-99774920D01*
X71174920Y-99849607D01*
X71134500Y-99947189D01*
X68655500Y-99947189D01*
X68615080Y-99849607D01*
X68540393Y-99774920D01*
X68442811Y-99734500D01*
X68337189Y-99734500D01*
X68239607Y-99774920D01*
X68164920Y-99849607D01*
X68124500Y-99947189D01*
X40500500Y-99947189D01*
X40500500Y-98707369D01*
X41119500Y-98707369D01*
X41119500Y-98892631D01*
X41131471Y-98952811D01*
X41155643Y-99074334D01*
X41226539Y-99245494D01*
X41226538Y-99245494D01*
X41279716Y-99325079D01*
X41329466Y-99399534D01*
X41460466Y-99530534D01*
X41512046Y-99564999D01*
X41614505Y-99633461D01*
X41675951Y-99658912D01*
X41785666Y-99704357D01*
X41967369Y-99740500D01*
X41967372Y-99740500D01*
X42152627Y-99740500D01*
X42152631Y-99740500D01*
X42334334Y-99704357D01*
X42505494Y-99633461D01*
X42659534Y-99530534D01*
X42790534Y-99399534D01*
X42893461Y-99245494D01*
X42964357Y-99074334D01*
X43000500Y-98892631D01*
X43000500Y-98707369D01*
X43659500Y-98707369D01*
X43659500Y-98892631D01*
X43671471Y-98952811D01*
X43695643Y-99074334D01*
X43766539Y-99245494D01*
X43766538Y-99245494D01*
X43819716Y-99325079D01*
X43869466Y-99399534D01*
X44000466Y-99530534D01*
X44052046Y-99564999D01*
X44154505Y-99633461D01*
X44215951Y-99658912D01*
X44325666Y-99704357D01*
X44507369Y-99740500D01*
X44507372Y-99740500D01*
X44692627Y-99740500D01*
X44692631Y-99740500D01*
X44874334Y-99704357D01*
X45045494Y-99633461D01*
X45199534Y-99530534D01*
X45330534Y-99399534D01*
X45433461Y-99245494D01*
X45504357Y-99074334D01*
X45540500Y-98892631D01*
X45540500Y-98707369D01*
X45504357Y-98525666D01*
X45433461Y-98354506D01*
X45433460Y-98354505D01*
X45433461Y-98354505D01*
X45341545Y-98216945D01*
X45330534Y-98200466D01*
X45199534Y-98069466D01*
X45058920Y-97975510D01*
X45058919Y-97975509D01*
X45045495Y-97966539D01*
X44984047Y-97941087D01*
X46199500Y-97941087D01*
X46199500Y-97941088D01*
X46199500Y-97941090D01*
X46199500Y-99658907D01*
X46199501Y-99658914D01*
X46204750Y-99685309D01*
X46204750Y-99685310D01*
X46204751Y-99685311D01*
X46224753Y-99715247D01*
X46254689Y-99735249D01*
X46281087Y-99740500D01*
X47998912Y-99740499D01*
X48025311Y-99735249D01*
X48055247Y-99715247D01*
X48075249Y-99685311D01*
X48080500Y-99658913D01*
X48080500Y-99610243D01*
X84859500Y-99610243D01*
X84859500Y-99789756D01*
X84859501Y-99789769D01*
X84887581Y-99967061D01*
X84887585Y-99967077D01*
X84943054Y-100137792D01*
X84943058Y-100137803D01*
X85024558Y-100297754D01*
X85130070Y-100442980D01*
X85130072Y-100442982D01*
X85130075Y-100442986D01*
X85257014Y-100569925D01*
X85257017Y-100569927D01*
X85257019Y-100569929D01*
X85402245Y-100675441D01*
X85402248Y-100675443D01*
X85562200Y-100756943D01*
X85617528Y-100774920D01*
X85732922Y-100812414D01*
X85732925Y-100812414D01*
X85732932Y-100812417D01*
X85910241Y-100840500D01*
X85910244Y-100840500D01*
X86089756Y-100840500D01*
X86089759Y-100840500D01*
X86267068Y-100812417D01*
X86437800Y-100756943D01*
X86597752Y-100675443D01*
X86742986Y-100569925D01*
X86869925Y-100442986D01*
X86975443Y-100297752D01*
X87056943Y-100137800D01*
X87112417Y-99967068D01*
X87140500Y-99789759D01*
X87140500Y-99610241D01*
X87112417Y-99432932D01*
X87101565Y-99399534D01*
X87077374Y-99325080D01*
X87056943Y-99262200D01*
X86975443Y-99102248D01*
X86975441Y-99102245D01*
X86869929Y-98957019D01*
X86869927Y-98957017D01*
X86869925Y-98957014D01*
X86742986Y-98830075D01*
X86742982Y-98830072D01*
X86742980Y-98830070D01*
X86597754Y-98724558D01*
X86437803Y-98643058D01*
X86437792Y-98643054D01*
X86267077Y-98587585D01*
X86267061Y-98587581D01*
X86089769Y-98559501D01*
X86089761Y-98559500D01*
X86089759Y-98559500D01*
X85910241Y-98559500D01*
X85910238Y-98559500D01*
X85910230Y-98559501D01*
X85732938Y-98587581D01*
X85732922Y-98587585D01*
X85562207Y-98643054D01*
X85562196Y-98643058D01*
X85402245Y-98724558D01*
X85257019Y-98830070D01*
X85130070Y-98957019D01*
X85024558Y-99102245D01*
X84943058Y-99262196D01*
X84943054Y-99262207D01*
X84887585Y-99432922D01*
X84887581Y-99432938D01*
X84859501Y-99610230D01*
X84859500Y-99610243D01*
X48080500Y-99610243D01*
X48080499Y-98747189D01*
X57034500Y-98747189D01*
X57034500Y-98852811D01*
X57074920Y-98950393D01*
X57149607Y-99025080D01*
X57247189Y-99065500D01*
X57247190Y-99065500D01*
X57352810Y-99065500D01*
X57352811Y-99065500D01*
X57450393Y-99025080D01*
X57525080Y-98950393D01*
X57565500Y-98852811D01*
X57565500Y-98847189D01*
X60034500Y-98847189D01*
X60034500Y-98952811D01*
X60074920Y-99050393D01*
X60149607Y-99125080D01*
X60247189Y-99165500D01*
X60247190Y-99165500D01*
X60352810Y-99165500D01*
X60352811Y-99165500D01*
X60450393Y-99125080D01*
X60525080Y-99050393D01*
X60526407Y-99047189D01*
X75234500Y-99047189D01*
X75234500Y-99152811D01*
X75274920Y-99250393D01*
X75349607Y-99325080D01*
X75447189Y-99365500D01*
X75447190Y-99365500D01*
X75552810Y-99365500D01*
X75552811Y-99365500D01*
X75650393Y-99325080D01*
X75725080Y-99250393D01*
X75765500Y-99152811D01*
X75765500Y-99047189D01*
X75725080Y-98949607D01*
X75650393Y-98874920D01*
X75552811Y-98834500D01*
X75447189Y-98834500D01*
X75349607Y-98874920D01*
X75274920Y-98949607D01*
X75234500Y-99047189D01*
X60526407Y-99047189D01*
X60565500Y-98952811D01*
X60565500Y-98847189D01*
X60525080Y-98749607D01*
X60450393Y-98674920D01*
X60352811Y-98634500D01*
X60247189Y-98634500D01*
X60149607Y-98674920D01*
X60074920Y-98749607D01*
X60034500Y-98847189D01*
X57565500Y-98847189D01*
X57565500Y-98747189D01*
X57525080Y-98649607D01*
X57450393Y-98574920D01*
X57352811Y-98534500D01*
X57247189Y-98534500D01*
X57149607Y-98574920D01*
X57074920Y-98649607D01*
X57034500Y-98747189D01*
X48080499Y-98747189D01*
X48080499Y-98147189D01*
X53134500Y-98147189D01*
X53134500Y-98252811D01*
X53174920Y-98350393D01*
X53249607Y-98425080D01*
X53347189Y-98465500D01*
X53347190Y-98465500D01*
X53452810Y-98465500D01*
X53452811Y-98465500D01*
X53550393Y-98425080D01*
X53625080Y-98350393D01*
X53665500Y-98252811D01*
X53665500Y-98147189D01*
X53625080Y-98049607D01*
X53550393Y-97974920D01*
X53452811Y-97934500D01*
X53347189Y-97934500D01*
X53249607Y-97974920D01*
X53174920Y-98049607D01*
X53134500Y-98147189D01*
X48080499Y-98147189D01*
X48080499Y-97941088D01*
X48075249Y-97914689D01*
X48055247Y-97884753D01*
X48025311Y-97864751D01*
X47998913Y-97859500D01*
X47998909Y-97859500D01*
X46281092Y-97859500D01*
X46281085Y-97859501D01*
X46254690Y-97864750D01*
X46254689Y-97864750D01*
X46224754Y-97884752D01*
X46224750Y-97884756D01*
X46204751Y-97914688D01*
X46204751Y-97914689D01*
X46199500Y-97941087D01*
X44984047Y-97941087D01*
X44874334Y-97895643D01*
X44692631Y-97859500D01*
X44507369Y-97859500D01*
X44380429Y-97884750D01*
X44325665Y-97895643D01*
X44154505Y-97966538D01*
X44000468Y-98069464D01*
X43869464Y-98200468D01*
X43766538Y-98354505D01*
X43720564Y-98465500D01*
X43695643Y-98525666D01*
X43659500Y-98707369D01*
X43000500Y-98707369D01*
X42964357Y-98525666D01*
X42893461Y-98354506D01*
X42893460Y-98354505D01*
X42893461Y-98354505D01*
X42801545Y-98216945D01*
X42790534Y-98200466D01*
X42659534Y-98069466D01*
X42629813Y-98049607D01*
X42505494Y-97966538D01*
X42334334Y-97895643D01*
X42152631Y-97859500D01*
X41967369Y-97859500D01*
X41840429Y-97884750D01*
X41785665Y-97895643D01*
X41614505Y-97966538D01*
X41460468Y-98069464D01*
X41329464Y-98200468D01*
X41226538Y-98354505D01*
X41180564Y-98465500D01*
X41155643Y-98525666D01*
X41119500Y-98707369D01*
X40500500Y-98707369D01*
X40500500Y-97070243D01*
X84859500Y-97070243D01*
X84859500Y-97249756D01*
X84859501Y-97249769D01*
X84887581Y-97427061D01*
X84887585Y-97427077D01*
X84943054Y-97597792D01*
X84943058Y-97597803D01*
X85024558Y-97757754D01*
X85130070Y-97902980D01*
X85130072Y-97902982D01*
X85130075Y-97902986D01*
X85257014Y-98029925D01*
X85257017Y-98029927D01*
X85257019Y-98029929D01*
X85402245Y-98135441D01*
X85402248Y-98135443D01*
X85562200Y-98216943D01*
X85651679Y-98246016D01*
X85732922Y-98272414D01*
X85732925Y-98272414D01*
X85732932Y-98272417D01*
X85910241Y-98300500D01*
X85910244Y-98300500D01*
X86089756Y-98300500D01*
X86089759Y-98300500D01*
X86267068Y-98272417D01*
X86437800Y-98216943D01*
X86597752Y-98135443D01*
X86742986Y-98029925D01*
X86869925Y-97902986D01*
X86975443Y-97757752D01*
X87056943Y-97597800D01*
X87112417Y-97427068D01*
X87140500Y-97249759D01*
X87140500Y-97070241D01*
X87112417Y-96892932D01*
X87056943Y-96722200D01*
X86975443Y-96562248D01*
X86869925Y-96417014D01*
X86742986Y-96290075D01*
X86742982Y-96290072D01*
X86742980Y-96290070D01*
X86597754Y-96184558D01*
X86437803Y-96103058D01*
X86437792Y-96103054D01*
X86267077Y-96047585D01*
X86267061Y-96047581D01*
X86089769Y-96019501D01*
X86089761Y-96019500D01*
X86089759Y-96019500D01*
X85910241Y-96019500D01*
X85910238Y-96019500D01*
X85910230Y-96019501D01*
X85732938Y-96047581D01*
X85732922Y-96047585D01*
X85562207Y-96103054D01*
X85562196Y-96103058D01*
X85402245Y-96184558D01*
X85257019Y-96290070D01*
X85130070Y-96417019D01*
X85024558Y-96562245D01*
X84943058Y-96722196D01*
X84943054Y-96722207D01*
X84887585Y-96892922D01*
X84887581Y-96892938D01*
X84859501Y-97070230D01*
X84859500Y-97070243D01*
X40500500Y-97070243D01*
X40500500Y-95107369D01*
X41119500Y-95107369D01*
X41119500Y-95292631D01*
X41155643Y-95474334D01*
X41226539Y-95645494D01*
X41226538Y-95645494D01*
X41284620Y-95732418D01*
X41329466Y-95799534D01*
X41460466Y-95930534D01*
X41489011Y-95949607D01*
X41614505Y-96033461D01*
X41675951Y-96058912D01*
X41785666Y-96104357D01*
X41967369Y-96140500D01*
X41967372Y-96140500D01*
X42152627Y-96140500D01*
X42152631Y-96140500D01*
X42334334Y-96104357D01*
X42505494Y-96033461D01*
X42659534Y-95930534D01*
X42790534Y-95799534D01*
X42893461Y-95645494D01*
X42964357Y-95474334D01*
X43000500Y-95292631D01*
X43000500Y-95107369D01*
X43659500Y-95107369D01*
X43659500Y-95292631D01*
X43695643Y-95474334D01*
X43766539Y-95645494D01*
X43766538Y-95645494D01*
X43824620Y-95732418D01*
X43869466Y-95799534D01*
X44000466Y-95930534D01*
X44029011Y-95949607D01*
X44154505Y-96033461D01*
X44215951Y-96058912D01*
X44325666Y-96104357D01*
X44507369Y-96140500D01*
X44507372Y-96140500D01*
X44692627Y-96140500D01*
X44692631Y-96140500D01*
X44874334Y-96104357D01*
X45045494Y-96033461D01*
X45199534Y-95930534D01*
X45330534Y-95799534D01*
X45433461Y-95645494D01*
X45504357Y-95474334D01*
X45540500Y-95292631D01*
X45540500Y-95107369D01*
X45504357Y-94925666D01*
X45433461Y-94754506D01*
X45433460Y-94754505D01*
X45433461Y-94754505D01*
X45330535Y-94600468D01*
X45330534Y-94600466D01*
X45199534Y-94469466D01*
X45058920Y-94375510D01*
X45058919Y-94375509D01*
X45045495Y-94366539D01*
X44984047Y-94341087D01*
X46199500Y-94341087D01*
X46199500Y-94341088D01*
X46199500Y-94341090D01*
X46199500Y-96058907D01*
X46199501Y-96058914D01*
X46204750Y-96085309D01*
X46204750Y-96085310D01*
X46204751Y-96085311D01*
X46224753Y-96115247D01*
X46254689Y-96135249D01*
X46281087Y-96140500D01*
X47998912Y-96140499D01*
X48025311Y-96135249D01*
X48055247Y-96115247D01*
X48075249Y-96085311D01*
X48080500Y-96058913D01*
X48080500Y-96047189D01*
X71034500Y-96047189D01*
X71034500Y-96152811D01*
X71074920Y-96250393D01*
X71149607Y-96325080D01*
X71247189Y-96365500D01*
X71247190Y-96365500D01*
X71352810Y-96365500D01*
X71352811Y-96365500D01*
X71450393Y-96325080D01*
X71525080Y-96250393D01*
X71565500Y-96152811D01*
X71565500Y-96047189D01*
X71525080Y-95949607D01*
X71522662Y-95947189D01*
X78734500Y-95947189D01*
X78734500Y-96052811D01*
X78774920Y-96150393D01*
X78849607Y-96225080D01*
X78947189Y-96265500D01*
X78947190Y-96265500D01*
X79052810Y-96265500D01*
X79052811Y-96265500D01*
X79150393Y-96225080D01*
X79225080Y-96150393D01*
X79265500Y-96052811D01*
X79265500Y-95947189D01*
X79225080Y-95849607D01*
X79150393Y-95774920D01*
X79052811Y-95734500D01*
X78947189Y-95734500D01*
X78849607Y-95774920D01*
X78774920Y-95849607D01*
X78734500Y-95947189D01*
X71522662Y-95947189D01*
X71450393Y-95874920D01*
X71352811Y-95834500D01*
X71247189Y-95834500D01*
X71149607Y-95874920D01*
X71074920Y-95949607D01*
X71034500Y-96047189D01*
X48080500Y-96047189D01*
X48080499Y-94530243D01*
X84859500Y-94530243D01*
X84859500Y-94709756D01*
X84859501Y-94709769D01*
X84887581Y-94887061D01*
X84887585Y-94887077D01*
X84943054Y-95057792D01*
X84943058Y-95057803D01*
X85024558Y-95217754D01*
X85130070Y-95362980D01*
X85130072Y-95362982D01*
X85130075Y-95362986D01*
X85257014Y-95489925D01*
X85257017Y-95489927D01*
X85257019Y-95489929D01*
X85402245Y-95595441D01*
X85402248Y-95595443D01*
X85562200Y-95676943D01*
X85651679Y-95706016D01*
X85732922Y-95732414D01*
X85732925Y-95732414D01*
X85732932Y-95732417D01*
X85732937Y-95732417D01*
X85732938Y-95732418D01*
X85761592Y-95736956D01*
X85910241Y-95760500D01*
X85910244Y-95760500D01*
X86089756Y-95760500D01*
X86089759Y-95760500D01*
X86267068Y-95732417D01*
X86437800Y-95676943D01*
X86597752Y-95595443D01*
X86742986Y-95489925D01*
X86869925Y-95362986D01*
X86975443Y-95217752D01*
X87056943Y-95057800D01*
X87112417Y-94887068D01*
X87140500Y-94709759D01*
X87140500Y-94530241D01*
X87112417Y-94352932D01*
X87108569Y-94341090D01*
X87083765Y-94264750D01*
X87056943Y-94182200D01*
X86975443Y-94022248D01*
X86869925Y-93877014D01*
X86742986Y-93750075D01*
X86742982Y-93750072D01*
X86742980Y-93750070D01*
X86597754Y-93644558D01*
X86437803Y-93563058D01*
X86437792Y-93563054D01*
X86267077Y-93507585D01*
X86267061Y-93507581D01*
X86089769Y-93479501D01*
X86089761Y-93479500D01*
X86089759Y-93479500D01*
X85910241Y-93479500D01*
X85910238Y-93479500D01*
X85910230Y-93479501D01*
X85732938Y-93507581D01*
X85732922Y-93507585D01*
X85562207Y-93563054D01*
X85562196Y-93563058D01*
X85402245Y-93644558D01*
X85257019Y-93750070D01*
X85130070Y-93877019D01*
X85024558Y-94022245D01*
X84943058Y-94182196D01*
X84943054Y-94182207D01*
X84887585Y-94352922D01*
X84887581Y-94352938D01*
X84859501Y-94530230D01*
X84859500Y-94530243D01*
X48080499Y-94530243D01*
X48080499Y-94341088D01*
X48075249Y-94314689D01*
X48055247Y-94284753D01*
X48025311Y-94264751D01*
X47998913Y-94259500D01*
X47998909Y-94259500D01*
X46281092Y-94259500D01*
X46281085Y-94259501D01*
X46254690Y-94264750D01*
X46254689Y-94264750D01*
X46224754Y-94284752D01*
X46224750Y-94284756D01*
X46204751Y-94314688D01*
X46204751Y-94314689D01*
X46199500Y-94341087D01*
X44984047Y-94341087D01*
X44874334Y-94295643D01*
X44692631Y-94259500D01*
X44507369Y-94259500D01*
X44380429Y-94284750D01*
X44325665Y-94295643D01*
X44154505Y-94366538D01*
X44000468Y-94469464D01*
X43869464Y-94600468D01*
X43766538Y-94754505D01*
X43695643Y-94925665D01*
X43695643Y-94925666D01*
X43659500Y-95107369D01*
X43000500Y-95107369D01*
X42964357Y-94925666D01*
X42893461Y-94754506D01*
X42893460Y-94754505D01*
X42893461Y-94754505D01*
X42790535Y-94600468D01*
X42790534Y-94600466D01*
X42659534Y-94469466D01*
X42658833Y-94468997D01*
X42505494Y-94366538D01*
X42334334Y-94295643D01*
X42152631Y-94259500D01*
X41967369Y-94259500D01*
X41840429Y-94284750D01*
X41785665Y-94295643D01*
X41614505Y-94366538D01*
X41460468Y-94469464D01*
X41329464Y-94600468D01*
X41226538Y-94754505D01*
X41155643Y-94925665D01*
X41155643Y-94925666D01*
X41119500Y-95107369D01*
X40500500Y-95107369D01*
X40500500Y-93347189D01*
X68584500Y-93347189D01*
X68584500Y-93452811D01*
X68624920Y-93550393D01*
X68699607Y-93625080D01*
X68797189Y-93665500D01*
X68797190Y-93665500D01*
X68902810Y-93665500D01*
X68902811Y-93665500D01*
X69000393Y-93625080D01*
X69075080Y-93550393D01*
X69115500Y-93452811D01*
X69115500Y-93347189D01*
X69075080Y-93249607D01*
X69000393Y-93174920D01*
X68902811Y-93134500D01*
X68797189Y-93134500D01*
X68699607Y-93174920D01*
X68624920Y-93249607D01*
X68584500Y-93347189D01*
X40500500Y-93347189D01*
X40500500Y-93047189D01*
X77584500Y-93047189D01*
X77584500Y-93152811D01*
X77624920Y-93250393D01*
X77699607Y-93325080D01*
X77797189Y-93365500D01*
X77797190Y-93365500D01*
X77902810Y-93365500D01*
X77902811Y-93365500D01*
X78000393Y-93325080D01*
X78075080Y-93250393D01*
X78115500Y-93152811D01*
X78115500Y-93047189D01*
X78075080Y-92949607D01*
X78000393Y-92874920D01*
X77902811Y-92834500D01*
X77797189Y-92834500D01*
X77699607Y-92874920D01*
X77624920Y-92949607D01*
X77584500Y-93047189D01*
X40500500Y-93047189D01*
X40500500Y-91507369D01*
X41119500Y-91507369D01*
X41119500Y-91692631D01*
X41143431Y-91812938D01*
X41155643Y-91874334D01*
X41226539Y-92045494D01*
X41226538Y-92045494D01*
X41328997Y-92198833D01*
X41329466Y-92199534D01*
X41460466Y-92330534D01*
X41485200Y-92347061D01*
X41614505Y-92433461D01*
X41675951Y-92458912D01*
X41785666Y-92504357D01*
X41967369Y-92540500D01*
X41967372Y-92540500D01*
X42152627Y-92540500D01*
X42152631Y-92540500D01*
X42334334Y-92504357D01*
X42505494Y-92433461D01*
X42659534Y-92330534D01*
X42790534Y-92199534D01*
X42893461Y-92045494D01*
X42964357Y-91874334D01*
X43000500Y-91692631D01*
X43000500Y-91507369D01*
X43659500Y-91507369D01*
X43659500Y-91692631D01*
X43683431Y-91812938D01*
X43695643Y-91874334D01*
X43766539Y-92045494D01*
X43766538Y-92045494D01*
X43868997Y-92198833D01*
X43869466Y-92199534D01*
X44000466Y-92330534D01*
X44025200Y-92347061D01*
X44154505Y-92433461D01*
X44215951Y-92458912D01*
X44325666Y-92504357D01*
X44507369Y-92540500D01*
X44507372Y-92540500D01*
X44692627Y-92540500D01*
X44692631Y-92540500D01*
X44874334Y-92504357D01*
X45045494Y-92433461D01*
X45199534Y-92330534D01*
X45330534Y-92199534D01*
X45433461Y-92045494D01*
X45504357Y-91874334D01*
X45540500Y-91692631D01*
X45540500Y-91507369D01*
X45504357Y-91325666D01*
X45433461Y-91154506D01*
X45433460Y-91154505D01*
X45433461Y-91154505D01*
X45353275Y-91034500D01*
X45330534Y-91000466D01*
X45199534Y-90869466D01*
X45058920Y-90775510D01*
X45058919Y-90775509D01*
X45045495Y-90766539D01*
X44984047Y-90741087D01*
X46199500Y-90741087D01*
X46199500Y-90741088D01*
X46199500Y-90741090D01*
X46199500Y-92458907D01*
X46199501Y-92458914D01*
X46204750Y-92485309D01*
X46204750Y-92485310D01*
X46204751Y-92485311D01*
X46224753Y-92515247D01*
X46254689Y-92535249D01*
X46281087Y-92540500D01*
X47998912Y-92540499D01*
X48025311Y-92535249D01*
X48055247Y-92515247D01*
X48075249Y-92485311D01*
X48080500Y-92458913D01*
X48080500Y-92148590D01*
X57409500Y-92148590D01*
X57409500Y-92251410D01*
X57428980Y-92324112D01*
X57436111Y-92350725D01*
X57436114Y-92350732D01*
X57487519Y-92439769D01*
X57487520Y-92439770D01*
X57487522Y-92439773D01*
X57560227Y-92512478D01*
X57560229Y-92512479D01*
X57560230Y-92512480D01*
X57608759Y-92540498D01*
X57649272Y-92563888D01*
X57748590Y-92590500D01*
X57748592Y-92590500D01*
X57851408Y-92590500D01*
X57851410Y-92590500D01*
X57950728Y-92563888D01*
X58039773Y-92512478D01*
X58112478Y-92439773D01*
X58163888Y-92350728D01*
X58190500Y-92251410D01*
X58190500Y-92148590D01*
X58163888Y-92049272D01*
X58129808Y-91990243D01*
X84859500Y-91990243D01*
X84859500Y-92169756D01*
X84859501Y-92169769D01*
X84887581Y-92347061D01*
X84887585Y-92347077D01*
X84943054Y-92517792D01*
X84943058Y-92517803D01*
X85024558Y-92677754D01*
X85130070Y-92822980D01*
X85130072Y-92822982D01*
X85130075Y-92822986D01*
X85257014Y-92949925D01*
X85257017Y-92949927D01*
X85257019Y-92949929D01*
X85402245Y-93055441D01*
X85402248Y-93055443D01*
X85562200Y-93136943D01*
X85611031Y-93152809D01*
X85732922Y-93192414D01*
X85732925Y-93192414D01*
X85732932Y-93192417D01*
X85910241Y-93220500D01*
X85910244Y-93220500D01*
X86089756Y-93220500D01*
X86089759Y-93220500D01*
X86267068Y-93192417D01*
X86437800Y-93136943D01*
X86597752Y-93055443D01*
X86742986Y-92949925D01*
X86869925Y-92822986D01*
X86975443Y-92677752D01*
X87056943Y-92517800D01*
X87112417Y-92347068D01*
X87140500Y-92169759D01*
X87140500Y-91990241D01*
X87112417Y-91812932D01*
X87056943Y-91642200D01*
X86975443Y-91482248D01*
X86952299Y-91450393D01*
X86869929Y-91337019D01*
X86869927Y-91337017D01*
X86869925Y-91337014D01*
X86742986Y-91210075D01*
X86742982Y-91210072D01*
X86742980Y-91210070D01*
X86597754Y-91104558D01*
X86437803Y-91023058D01*
X86437792Y-91023054D01*
X86267077Y-90967585D01*
X86267061Y-90967581D01*
X86089769Y-90939501D01*
X86089761Y-90939500D01*
X86089759Y-90939500D01*
X85910241Y-90939500D01*
X85910238Y-90939500D01*
X85910230Y-90939501D01*
X85732938Y-90967581D01*
X85732922Y-90967585D01*
X85562207Y-91023054D01*
X85562196Y-91023058D01*
X85402245Y-91104558D01*
X85257019Y-91210070D01*
X85130070Y-91337019D01*
X85024558Y-91482245D01*
X84943058Y-91642196D01*
X84943054Y-91642207D01*
X84887585Y-91812922D01*
X84887581Y-91812938D01*
X84859501Y-91990230D01*
X84859500Y-91990243D01*
X58129808Y-91990243D01*
X58112478Y-91960227D01*
X58039773Y-91887522D01*
X58039770Y-91887520D01*
X58039769Y-91887519D01*
X57950732Y-91836114D01*
X57950729Y-91836113D01*
X57950728Y-91836112D01*
X57950726Y-91836111D01*
X57950725Y-91836111D01*
X57924112Y-91828980D01*
X57851410Y-91809500D01*
X57748590Y-91809500D01*
X57695368Y-91823760D01*
X57649274Y-91836111D01*
X57649267Y-91836114D01*
X57560230Y-91887519D01*
X57487519Y-91960230D01*
X57436114Y-92049267D01*
X57436112Y-92049272D01*
X57409500Y-92148590D01*
X48080500Y-92148590D01*
X48080499Y-91247189D01*
X69934500Y-91247189D01*
X69934500Y-91352811D01*
X69974920Y-91450393D01*
X70049607Y-91525080D01*
X70147189Y-91565500D01*
X70147190Y-91565500D01*
X70252810Y-91565500D01*
X70252811Y-91565500D01*
X70350393Y-91525080D01*
X70425080Y-91450393D01*
X70465500Y-91352811D01*
X70465500Y-91247189D01*
X70425080Y-91149607D01*
X70350393Y-91074920D01*
X70252811Y-91034500D01*
X70147189Y-91034500D01*
X70049607Y-91074920D01*
X69974920Y-91149607D01*
X69934500Y-91247189D01*
X48080499Y-91247189D01*
X48080499Y-90741088D01*
X48075249Y-90714689D01*
X48055247Y-90684753D01*
X48025311Y-90664751D01*
X47998913Y-90659500D01*
X47998909Y-90659500D01*
X46281092Y-90659500D01*
X46281085Y-90659501D01*
X46254690Y-90664750D01*
X46254689Y-90664750D01*
X46224754Y-90684752D01*
X46224750Y-90684756D01*
X46204751Y-90714688D01*
X46204751Y-90714689D01*
X46199500Y-90741087D01*
X44984047Y-90741087D01*
X44874334Y-90695643D01*
X44692631Y-90659500D01*
X44507369Y-90659500D01*
X44380429Y-90684750D01*
X44325665Y-90695643D01*
X44154505Y-90766538D01*
X44000468Y-90869464D01*
X43869464Y-91000468D01*
X43766538Y-91154505D01*
X43695643Y-91325665D01*
X43686607Y-91371091D01*
X43659500Y-91507369D01*
X43000500Y-91507369D01*
X42964357Y-91325666D01*
X42893461Y-91154506D01*
X42893460Y-91154505D01*
X42893461Y-91154505D01*
X42813275Y-91034500D01*
X42790534Y-91000466D01*
X42659534Y-90869466D01*
X42658833Y-90868997D01*
X42505494Y-90766538D01*
X42334334Y-90695643D01*
X42152631Y-90659500D01*
X41967369Y-90659500D01*
X41840429Y-90684750D01*
X41785665Y-90695643D01*
X41614505Y-90766538D01*
X41460468Y-90869464D01*
X41329464Y-91000468D01*
X41226538Y-91154505D01*
X41155643Y-91325665D01*
X41146607Y-91371091D01*
X41119500Y-91507369D01*
X40500500Y-91507369D01*
X40500500Y-90298590D01*
X64219500Y-90298590D01*
X64219500Y-90401410D01*
X64221782Y-90409925D01*
X64246111Y-90500725D01*
X64246114Y-90500732D01*
X64297519Y-90589769D01*
X64297520Y-90589770D01*
X64297522Y-90589773D01*
X64370227Y-90662478D01*
X64370229Y-90662479D01*
X64370230Y-90662480D01*
X64408810Y-90684754D01*
X64459272Y-90713888D01*
X64558590Y-90740500D01*
X64558592Y-90740500D01*
X64661408Y-90740500D01*
X64661410Y-90740500D01*
X64760728Y-90713888D01*
X64849773Y-90662478D01*
X64922478Y-90589773D01*
X64973888Y-90500728D01*
X65000500Y-90401410D01*
X65000500Y-90298590D01*
X64973888Y-90199272D01*
X64922478Y-90110227D01*
X64849773Y-90037522D01*
X64849770Y-90037520D01*
X64849769Y-90037519D01*
X64760732Y-89986114D01*
X64760729Y-89986113D01*
X64760728Y-89986112D01*
X64760726Y-89986111D01*
X64760725Y-89986111D01*
X64725762Y-89976743D01*
X64661410Y-89959500D01*
X64558590Y-89959500D01*
X64505368Y-89973760D01*
X64459274Y-89986111D01*
X64459267Y-89986114D01*
X64370230Y-90037519D01*
X64297519Y-90110230D01*
X64246114Y-90199267D01*
X64246112Y-90199272D01*
X64219500Y-90298590D01*
X40500500Y-90298590D01*
X40500500Y-89698853D01*
X50636306Y-89698853D01*
X50636306Y-89804475D01*
X50676726Y-89902057D01*
X50751413Y-89976744D01*
X50848995Y-90017164D01*
X50848996Y-90017164D01*
X50954616Y-90017164D01*
X50954617Y-90017164D01*
X51052199Y-89976744D01*
X51126886Y-89902057D01*
X51167306Y-89804475D01*
X51167306Y-89698853D01*
X51126886Y-89601271D01*
X51052199Y-89526584D01*
X50954617Y-89486164D01*
X50848995Y-89486164D01*
X50751413Y-89526584D01*
X50676726Y-89601271D01*
X50636306Y-89698853D01*
X40500500Y-89698853D01*
X40500500Y-89450243D01*
X84859500Y-89450243D01*
X84859500Y-89629756D01*
X84859501Y-89629769D01*
X84887581Y-89807061D01*
X84887585Y-89807077D01*
X84943054Y-89977792D01*
X84943058Y-89977803D01*
X85024558Y-90137754D01*
X85130070Y-90282980D01*
X85130072Y-90282982D01*
X85130075Y-90282986D01*
X85257014Y-90409925D01*
X85257017Y-90409927D01*
X85257019Y-90409929D01*
X85381990Y-90500725D01*
X85402248Y-90515443D01*
X85562200Y-90596943D01*
X85651679Y-90626016D01*
X85732922Y-90652414D01*
X85732925Y-90652414D01*
X85732932Y-90652417D01*
X85910241Y-90680500D01*
X85910244Y-90680500D01*
X86089756Y-90680500D01*
X86089759Y-90680500D01*
X86267068Y-90652417D01*
X86437800Y-90596943D01*
X86597752Y-90515443D01*
X86742986Y-90409925D01*
X86869925Y-90282986D01*
X86975443Y-90137752D01*
X87056943Y-89977800D01*
X87112417Y-89807068D01*
X87140500Y-89629759D01*
X87140500Y-89450241D01*
X87112417Y-89272932D01*
X87056943Y-89102200D01*
X86975443Y-88942248D01*
X86955828Y-88915250D01*
X86869929Y-88797019D01*
X86869927Y-88797017D01*
X86869925Y-88797014D01*
X86742986Y-88670075D01*
X86742982Y-88670072D01*
X86742980Y-88670070D01*
X86597754Y-88564558D01*
X86437803Y-88483058D01*
X86437792Y-88483054D01*
X86267077Y-88427585D01*
X86267061Y-88427581D01*
X86089769Y-88399501D01*
X86089761Y-88399500D01*
X86089759Y-88399500D01*
X85910241Y-88399500D01*
X85910238Y-88399500D01*
X85910230Y-88399501D01*
X85732938Y-88427581D01*
X85732922Y-88427585D01*
X85562207Y-88483054D01*
X85562196Y-88483058D01*
X85402245Y-88564558D01*
X85257019Y-88670070D01*
X85130070Y-88797019D01*
X85024558Y-88942245D01*
X84943058Y-89102196D01*
X84943054Y-89102207D01*
X84887585Y-89272922D01*
X84887581Y-89272938D01*
X84859501Y-89450230D01*
X84859500Y-89450243D01*
X40500500Y-89450243D01*
X40500500Y-87907370D01*
X41119500Y-87907370D01*
X41119500Y-88092632D01*
X41150881Y-88250393D01*
X41155643Y-88274335D01*
X41226539Y-88445495D01*
X41226538Y-88445495D01*
X41279609Y-88524920D01*
X41329466Y-88599535D01*
X41460466Y-88730535D01*
X41512046Y-88765000D01*
X41614505Y-88833462D01*
X41675951Y-88858913D01*
X41785666Y-88904358D01*
X41967369Y-88940501D01*
X41967372Y-88940501D01*
X42152627Y-88940501D01*
X42152631Y-88940501D01*
X42334334Y-88904358D01*
X42505494Y-88833462D01*
X42659534Y-88730535D01*
X42790534Y-88599535D01*
X42893461Y-88445495D01*
X42964357Y-88274335D01*
X43000500Y-88092632D01*
X43000500Y-87907370D01*
X43659500Y-87907370D01*
X43659500Y-88092632D01*
X43690881Y-88250393D01*
X43695643Y-88274335D01*
X43766539Y-88445495D01*
X43766538Y-88445495D01*
X43819609Y-88524920D01*
X43869466Y-88599535D01*
X44000466Y-88730535D01*
X44052046Y-88765000D01*
X44154505Y-88833462D01*
X44215951Y-88858913D01*
X44325666Y-88904358D01*
X44507369Y-88940501D01*
X44507372Y-88940501D01*
X44692627Y-88940501D01*
X44692631Y-88940501D01*
X44874334Y-88904358D01*
X45045494Y-88833462D01*
X45199534Y-88730535D01*
X45330534Y-88599535D01*
X45433461Y-88445495D01*
X45504357Y-88274335D01*
X45540500Y-88092632D01*
X45540500Y-87907370D01*
X45504357Y-87725667D01*
X45433461Y-87554507D01*
X45433460Y-87554506D01*
X45433461Y-87554506D01*
X45330535Y-87400469D01*
X45330534Y-87400467D01*
X45199534Y-87269467D01*
X45058920Y-87175511D01*
X45058919Y-87175510D01*
X45045495Y-87166540D01*
X44984047Y-87141088D01*
X46199500Y-87141088D01*
X46199500Y-87141089D01*
X46199500Y-87141091D01*
X46199500Y-88858908D01*
X46199501Y-88858915D01*
X46204750Y-88885310D01*
X46204750Y-88885311D01*
X46204751Y-88885312D01*
X46224753Y-88915248D01*
X46254689Y-88935250D01*
X46281087Y-88940501D01*
X47998912Y-88940500D01*
X48025311Y-88935250D01*
X48055247Y-88915248D01*
X48075249Y-88885312D01*
X48080500Y-88858914D01*
X48080500Y-88697189D01*
X71584500Y-88697189D01*
X71584500Y-88802811D01*
X71624920Y-88900393D01*
X71699607Y-88975080D01*
X71797189Y-89015500D01*
X71797190Y-89015500D01*
X71902810Y-89015500D01*
X71902811Y-89015500D01*
X72000393Y-88975080D01*
X72075080Y-88900393D01*
X72115500Y-88802811D01*
X72115500Y-88697189D01*
X72075080Y-88599607D01*
X72000393Y-88524920D01*
X71902811Y-88484500D01*
X71797189Y-88484500D01*
X71699607Y-88524920D01*
X71624920Y-88599607D01*
X71584500Y-88697189D01*
X48080500Y-88697189D01*
X48080499Y-88047189D01*
X56434500Y-88047189D01*
X56434500Y-88152811D01*
X56474920Y-88250393D01*
X56549607Y-88325080D01*
X56647189Y-88365500D01*
X56647190Y-88365500D01*
X56752810Y-88365500D01*
X56752811Y-88365500D01*
X56850393Y-88325080D01*
X56925080Y-88250393D01*
X56965500Y-88152811D01*
X56965500Y-88047189D01*
X56925080Y-87949607D01*
X56850393Y-87874920D01*
X56783445Y-87847189D01*
X59834500Y-87847189D01*
X59834500Y-87952811D01*
X59874920Y-88050393D01*
X59949607Y-88125080D01*
X60047189Y-88165500D01*
X60047190Y-88165500D01*
X60152810Y-88165500D01*
X60152811Y-88165500D01*
X60250393Y-88125080D01*
X60325080Y-88050393D01*
X60365500Y-87952811D01*
X60365500Y-87847189D01*
X60325080Y-87749607D01*
X60250393Y-87674920D01*
X60152811Y-87634500D01*
X60047189Y-87634500D01*
X59949607Y-87674920D01*
X59874920Y-87749607D01*
X59834500Y-87847189D01*
X56783445Y-87847189D01*
X56752811Y-87834500D01*
X56647189Y-87834500D01*
X56549607Y-87874920D01*
X56474920Y-87949607D01*
X56434500Y-88047189D01*
X48080499Y-88047189D01*
X48080499Y-87975443D01*
X48080499Y-87141093D01*
X48080499Y-87141091D01*
X48080499Y-87141089D01*
X48075249Y-87114690D01*
X48055247Y-87084754D01*
X48025311Y-87064752D01*
X47998913Y-87059501D01*
X47998909Y-87059501D01*
X46281092Y-87059501D01*
X46281085Y-87059502D01*
X46254690Y-87064751D01*
X46254689Y-87064751D01*
X46224754Y-87084753D01*
X46224750Y-87084757D01*
X46204751Y-87114689D01*
X46204751Y-87114690D01*
X46199500Y-87141088D01*
X44984047Y-87141088D01*
X44874334Y-87095644D01*
X44844733Y-87089756D01*
X44692631Y-87059501D01*
X44507369Y-87059501D01*
X44380429Y-87084751D01*
X44325665Y-87095644D01*
X44154505Y-87166539D01*
X44000468Y-87269465D01*
X43869464Y-87400469D01*
X43766538Y-87554506D01*
X43695643Y-87725666D01*
X43695643Y-87725667D01*
X43659500Y-87907370D01*
X43000500Y-87907370D01*
X42964357Y-87725667D01*
X42893461Y-87554507D01*
X42893460Y-87554506D01*
X42893461Y-87554506D01*
X42790535Y-87400469D01*
X42790534Y-87400467D01*
X42659534Y-87269467D01*
X42593105Y-87225080D01*
X42505494Y-87166539D01*
X42334334Y-87095644D01*
X42304733Y-87089756D01*
X42152631Y-87059501D01*
X41967369Y-87059501D01*
X41840429Y-87084751D01*
X41785665Y-87095644D01*
X41614505Y-87166539D01*
X41460468Y-87269465D01*
X41329464Y-87400469D01*
X41226538Y-87554506D01*
X41155643Y-87725666D01*
X41155643Y-87725667D01*
X41119500Y-87907370D01*
X40500500Y-87907370D01*
X40500500Y-86947189D01*
X69634500Y-86947189D01*
X69634500Y-87052811D01*
X69674920Y-87150393D01*
X69749607Y-87225080D01*
X69847189Y-87265500D01*
X69847190Y-87265500D01*
X69952810Y-87265500D01*
X69952811Y-87265500D01*
X70050393Y-87225080D01*
X70125080Y-87150393D01*
X70165500Y-87052811D01*
X70165500Y-86947189D01*
X70150196Y-86910243D01*
X84859500Y-86910243D01*
X84859500Y-87089756D01*
X84859501Y-87089769D01*
X84887581Y-87267061D01*
X84887585Y-87267077D01*
X84943054Y-87437792D01*
X84943058Y-87437803D01*
X85024558Y-87597754D01*
X85130070Y-87742980D01*
X85130072Y-87742982D01*
X85130075Y-87742986D01*
X85257014Y-87869925D01*
X85257017Y-87869927D01*
X85257019Y-87869929D01*
X85402245Y-87975441D01*
X85402248Y-87975443D01*
X85562200Y-88056943D01*
X85651679Y-88086016D01*
X85732922Y-88112414D01*
X85732925Y-88112414D01*
X85732932Y-88112417D01*
X85910241Y-88140500D01*
X85910244Y-88140500D01*
X86089756Y-88140500D01*
X86089759Y-88140500D01*
X86267068Y-88112417D01*
X86437800Y-88056943D01*
X86597752Y-87975443D01*
X86742986Y-87869925D01*
X86869925Y-87742986D01*
X86975443Y-87597752D01*
X87056943Y-87437800D01*
X87112417Y-87267068D01*
X87140500Y-87089759D01*
X87140500Y-86910241D01*
X87112417Y-86732932D01*
X87109865Y-86725079D01*
X87056945Y-86562207D01*
X87056943Y-86562200D01*
X86975443Y-86402248D01*
X86945398Y-86360894D01*
X86869929Y-86257019D01*
X86869927Y-86257017D01*
X86869925Y-86257014D01*
X86742986Y-86130075D01*
X86742982Y-86130072D01*
X86742980Y-86130070D01*
X86597754Y-86024558D01*
X86437803Y-85943058D01*
X86437792Y-85943054D01*
X86267077Y-85887585D01*
X86267061Y-85887581D01*
X86089769Y-85859501D01*
X86089761Y-85859500D01*
X86089759Y-85859500D01*
X85910241Y-85859500D01*
X85910238Y-85859500D01*
X85910230Y-85859501D01*
X85732938Y-85887581D01*
X85732922Y-85887585D01*
X85562207Y-85943054D01*
X85562196Y-85943058D01*
X85402245Y-86024558D01*
X85257019Y-86130070D01*
X85130070Y-86257019D01*
X85024558Y-86402245D01*
X84943058Y-86562196D01*
X84943054Y-86562207D01*
X84887585Y-86732922D01*
X84887581Y-86732938D01*
X84859501Y-86910230D01*
X84859500Y-86910243D01*
X70150196Y-86910243D01*
X70125080Y-86849607D01*
X70050393Y-86774920D01*
X69952811Y-86734500D01*
X69847189Y-86734500D01*
X69749607Y-86774920D01*
X69674920Y-86849607D01*
X69634500Y-86947189D01*
X40500500Y-86947189D01*
X40500500Y-86447189D01*
X51734500Y-86447189D01*
X51734500Y-86552811D01*
X51774920Y-86650393D01*
X51849607Y-86725080D01*
X51947189Y-86765500D01*
X51947190Y-86765500D01*
X52052810Y-86765500D01*
X52052811Y-86765500D01*
X52150393Y-86725080D01*
X52225080Y-86650393D01*
X52265500Y-86552811D01*
X52265500Y-86447189D01*
X52225080Y-86349607D01*
X52150393Y-86274920D01*
X52102964Y-86255274D01*
X60442589Y-86255274D01*
X60442589Y-86360896D01*
X60483009Y-86458478D01*
X60557696Y-86533165D01*
X60655278Y-86573585D01*
X60655279Y-86573585D01*
X60760899Y-86573585D01*
X60760900Y-86573585D01*
X60858482Y-86533165D01*
X60933169Y-86458478D01*
X60973589Y-86360896D01*
X60973589Y-86255274D01*
X60933169Y-86157692D01*
X60858482Y-86083005D01*
X60760900Y-86042585D01*
X60655278Y-86042585D01*
X60557696Y-86083005D01*
X60483009Y-86157692D01*
X60442589Y-86255274D01*
X52102964Y-86255274D01*
X52052811Y-86234500D01*
X51947189Y-86234500D01*
X51849607Y-86274920D01*
X51774920Y-86349607D01*
X51734500Y-86447189D01*
X40500500Y-86447189D01*
X40500500Y-85747189D01*
X54334500Y-85747189D01*
X54334500Y-85852811D01*
X54374920Y-85950393D01*
X54449607Y-86025080D01*
X54547189Y-86065500D01*
X54547190Y-86065500D01*
X54652810Y-86065500D01*
X54652811Y-86065500D01*
X54750393Y-86025080D01*
X54825080Y-85950393D01*
X54865500Y-85852811D01*
X54865500Y-85747189D01*
X54825080Y-85649607D01*
X54750393Y-85574920D01*
X54652811Y-85534500D01*
X54547189Y-85534500D01*
X54449607Y-85574920D01*
X54374920Y-85649607D01*
X54334500Y-85747189D01*
X40500500Y-85747189D01*
X40500500Y-85447189D01*
X77234500Y-85447189D01*
X77234500Y-85552811D01*
X77274920Y-85650393D01*
X77349607Y-85725080D01*
X77447189Y-85765500D01*
X77447190Y-85765500D01*
X77552810Y-85765500D01*
X77552811Y-85765500D01*
X77650393Y-85725080D01*
X77725080Y-85650393D01*
X77765500Y-85552811D01*
X77765500Y-85447189D01*
X80234500Y-85447189D01*
X80234500Y-85552811D01*
X80274920Y-85650393D01*
X80349607Y-85725080D01*
X80447189Y-85765500D01*
X80447190Y-85765500D01*
X80552810Y-85765500D01*
X80552811Y-85765500D01*
X80650393Y-85725080D01*
X80725080Y-85650393D01*
X80765500Y-85552811D01*
X80765500Y-85447189D01*
X80725080Y-85349607D01*
X80650393Y-85274920D01*
X80552811Y-85234500D01*
X80447189Y-85234500D01*
X80349607Y-85274920D01*
X80274920Y-85349607D01*
X80234500Y-85447189D01*
X77765500Y-85447189D01*
X77725080Y-85349607D01*
X77650393Y-85274920D01*
X77552811Y-85234500D01*
X77447189Y-85234500D01*
X77349607Y-85274920D01*
X77274920Y-85349607D01*
X77234500Y-85447189D01*
X40500500Y-85447189D01*
X40500500Y-84642259D01*
X42184500Y-84642259D01*
X42184500Y-84797740D01*
X42224742Y-84947924D01*
X42224744Y-84947928D01*
X42302480Y-85082571D01*
X42302481Y-85082572D01*
X42302483Y-85082575D01*
X42412425Y-85192517D01*
X42547076Y-85270258D01*
X42697259Y-85310500D01*
X42697260Y-85310500D01*
X43652740Y-85310500D01*
X43652741Y-85310500D01*
X43802924Y-85270258D01*
X43937575Y-85192517D01*
X44047517Y-85082575D01*
X44125258Y-84947924D01*
X44165500Y-84797741D01*
X44165500Y-84642259D01*
X46214500Y-84642259D01*
X46214500Y-84797740D01*
X46254742Y-84947924D01*
X46254744Y-84947928D01*
X46332480Y-85082571D01*
X46332481Y-85082572D01*
X46332483Y-85082575D01*
X46442425Y-85192517D01*
X46577076Y-85270258D01*
X46727259Y-85310500D01*
X46727260Y-85310500D01*
X47982740Y-85310500D01*
X47982741Y-85310500D01*
X48132924Y-85270258D01*
X48267575Y-85192517D01*
X48377517Y-85082575D01*
X48455258Y-84947924D01*
X48495500Y-84797741D01*
X48495500Y-84642259D01*
X48455258Y-84492076D01*
X48377517Y-84357425D01*
X48267575Y-84247483D01*
X48267572Y-84247481D01*
X48267571Y-84247480D01*
X48132928Y-84169744D01*
X48132924Y-84169742D01*
X47982741Y-84129500D01*
X46727259Y-84129500D01*
X46652167Y-84149621D01*
X46577075Y-84169742D01*
X46577071Y-84169744D01*
X46442428Y-84247480D01*
X46332480Y-84357428D01*
X46254744Y-84492071D01*
X46254742Y-84492075D01*
X46214500Y-84642259D01*
X44165500Y-84642259D01*
X44125258Y-84492076D01*
X44047517Y-84357425D01*
X43937575Y-84247483D01*
X43937572Y-84247481D01*
X43937571Y-84247480D01*
X43802928Y-84169744D01*
X43802924Y-84169742D01*
X43652741Y-84129500D01*
X42697259Y-84129500D01*
X42622167Y-84149621D01*
X42547075Y-84169742D01*
X42547071Y-84169744D01*
X42412428Y-84247480D01*
X42302480Y-84357428D01*
X42224744Y-84492071D01*
X42224742Y-84492075D01*
X42184500Y-84642259D01*
X40500500Y-84642259D01*
X40500500Y-83979346D01*
X63421086Y-83979346D01*
X63421086Y-84084968D01*
X63461506Y-84182550D01*
X63536193Y-84257237D01*
X63633775Y-84297657D01*
X63633776Y-84297657D01*
X63739396Y-84297657D01*
X63739397Y-84297657D01*
X63836979Y-84257237D01*
X63911666Y-84182550D01*
X63952086Y-84084968D01*
X63952086Y-83979346D01*
X63911666Y-83881764D01*
X63836979Y-83807077D01*
X63739397Y-83766657D01*
X63633775Y-83766657D01*
X63536193Y-83807077D01*
X63461506Y-83881764D01*
X63421086Y-83979346D01*
X40500500Y-83979346D01*
X40500500Y-83226083D01*
X46369500Y-83226083D01*
X46369500Y-83353917D01*
X46402586Y-83477396D01*
X46466504Y-83588104D01*
X46556896Y-83678496D01*
X46667604Y-83742414D01*
X46791083Y-83775500D01*
X46791085Y-83775500D01*
X46918915Y-83775500D01*
X46918917Y-83775500D01*
X47042396Y-83742414D01*
X47153104Y-83678496D01*
X47243496Y-83588104D01*
X47307414Y-83477396D01*
X47340500Y-83353917D01*
X47340500Y-83226083D01*
X47307414Y-83102604D01*
X47243496Y-82991896D01*
X47202621Y-82951021D01*
X54700359Y-82951021D01*
X54700359Y-83056643D01*
X54740779Y-83154225D01*
X54815466Y-83228912D01*
X54913048Y-83269332D01*
X54913049Y-83269332D01*
X55018669Y-83269332D01*
X55018670Y-83269332D01*
X55116252Y-83228912D01*
X55190939Y-83154225D01*
X55231359Y-83056643D01*
X55231359Y-82951021D01*
X55190939Y-82853439D01*
X55119509Y-82782009D01*
X57404719Y-82782009D01*
X57404719Y-82887631D01*
X57445139Y-82985213D01*
X57519826Y-83059900D01*
X57617408Y-83100320D01*
X57617409Y-83100320D01*
X57723029Y-83100320D01*
X57723030Y-83100320D01*
X57820612Y-83059900D01*
X57895299Y-82985213D01*
X57935719Y-82887631D01*
X57935719Y-82782009D01*
X57895299Y-82684427D01*
X57858061Y-82647189D01*
X83834500Y-82647189D01*
X83834500Y-82752811D01*
X83874920Y-82850393D01*
X83949607Y-82925080D01*
X84047189Y-82965500D01*
X84047190Y-82965500D01*
X84152810Y-82965500D01*
X84152811Y-82965500D01*
X84250393Y-82925080D01*
X84325080Y-82850393D01*
X84365500Y-82752811D01*
X84365500Y-82647189D01*
X84325080Y-82549607D01*
X84250393Y-82474920D01*
X84152811Y-82434500D01*
X84047189Y-82434500D01*
X83949607Y-82474920D01*
X83874920Y-82549607D01*
X83834500Y-82647189D01*
X57858061Y-82647189D01*
X57820612Y-82609740D01*
X57723030Y-82569320D01*
X57617408Y-82569320D01*
X57519826Y-82609740D01*
X57445139Y-82684427D01*
X57404719Y-82782009D01*
X55119509Y-82782009D01*
X55116252Y-82778752D01*
X55018670Y-82738332D01*
X54913048Y-82738332D01*
X54815466Y-82778752D01*
X54740779Y-82853439D01*
X54700359Y-82951021D01*
X47202621Y-82951021D01*
X47153104Y-82901504D01*
X47153103Y-82901503D01*
X47042400Y-82837588D01*
X47042396Y-82837586D01*
X46918917Y-82804500D01*
X46791083Y-82804500D01*
X46708763Y-82826557D01*
X46667603Y-82837586D01*
X46667599Y-82837588D01*
X46556897Y-82901503D01*
X46556896Y-82901503D01*
X46466503Y-82991896D01*
X46466503Y-82991897D01*
X46402588Y-83102599D01*
X46402586Y-83102603D01*
X46388754Y-83154225D01*
X46369500Y-83226083D01*
X40500500Y-83226083D01*
X40500500Y-81947189D01*
X85734500Y-81947189D01*
X85734500Y-82052811D01*
X85774920Y-82150393D01*
X85849607Y-82225080D01*
X85947189Y-82265500D01*
X85947190Y-82265500D01*
X86052810Y-82265500D01*
X86052811Y-82265500D01*
X86150393Y-82225080D01*
X86225080Y-82150393D01*
X86265500Y-82052811D01*
X86265500Y-81947189D01*
X86225080Y-81849607D01*
X86150393Y-81774920D01*
X86052811Y-81734500D01*
X85947189Y-81734500D01*
X85849607Y-81774920D01*
X85774920Y-81849607D01*
X85734500Y-81947189D01*
X40500500Y-81947189D01*
X40500500Y-80947189D01*
X50734500Y-80947189D01*
X50734500Y-81052811D01*
X50774920Y-81150393D01*
X50849607Y-81225080D01*
X50947189Y-81265500D01*
X50947190Y-81265500D01*
X51052810Y-81265500D01*
X51052811Y-81265500D01*
X51150393Y-81225080D01*
X51225080Y-81150393D01*
X51265500Y-81052811D01*
X51265500Y-81047189D01*
X62334500Y-81047189D01*
X62334500Y-81152811D01*
X62374920Y-81250393D01*
X62449607Y-81325080D01*
X62547189Y-81365500D01*
X62547190Y-81365500D01*
X62652810Y-81365500D01*
X62652811Y-81365500D01*
X62750393Y-81325080D01*
X62762452Y-81313021D01*
X76000332Y-81313021D01*
X76000332Y-81418643D01*
X76040752Y-81516225D01*
X76115439Y-81590912D01*
X76213021Y-81631332D01*
X76213022Y-81631332D01*
X76318642Y-81631332D01*
X76318643Y-81631332D01*
X76416225Y-81590912D01*
X76490912Y-81516225D01*
X76526159Y-81431130D01*
X76549970Y-81407320D01*
X76583646Y-81407320D01*
X76607459Y-81431133D01*
X76644087Y-81519560D01*
X76718774Y-81594247D01*
X76816356Y-81634667D01*
X76816357Y-81634667D01*
X76921977Y-81634667D01*
X76921978Y-81634667D01*
X77019560Y-81594247D01*
X77094247Y-81519560D01*
X77134667Y-81421978D01*
X77134667Y-81421976D01*
X77136325Y-81417974D01*
X77138151Y-81418730D01*
X77152818Y-81396780D01*
X77185847Y-81390209D01*
X77208374Y-81402249D01*
X77234022Y-81427897D01*
X77331604Y-81468317D01*
X77331605Y-81468317D01*
X77437225Y-81468317D01*
X77437226Y-81468317D01*
X77534808Y-81427897D01*
X77609495Y-81353210D01*
X77649915Y-81255628D01*
X77649915Y-81150006D01*
X77609495Y-81052424D01*
X77534808Y-80977737D01*
X77437226Y-80937317D01*
X77331604Y-80937317D01*
X77234022Y-80977737D01*
X77159335Y-81052424D01*
X77122749Y-81140752D01*
X77117257Y-81154010D01*
X77115436Y-81153255D01*
X77100734Y-81175223D01*
X77067699Y-81181767D01*
X77045206Y-81169733D01*
X77019560Y-81144087D01*
X76921978Y-81103667D01*
X76816356Y-81103667D01*
X76718774Y-81144087D01*
X76644087Y-81218774D01*
X76628822Y-81255628D01*
X76608841Y-81303865D01*
X76585028Y-81327678D01*
X76551352Y-81327678D01*
X76527539Y-81303865D01*
X76516649Y-81277574D01*
X76490912Y-81215439D01*
X76416225Y-81140752D01*
X76318643Y-81100332D01*
X76213021Y-81100332D01*
X76115439Y-81140752D01*
X76040752Y-81215439D01*
X76000332Y-81313021D01*
X62762452Y-81313021D01*
X62825080Y-81250393D01*
X62865500Y-81152811D01*
X62865500Y-81047189D01*
X62825080Y-80949607D01*
X62772662Y-80897189D01*
X74234500Y-80897189D01*
X74234500Y-81002811D01*
X74274920Y-81100393D01*
X74349607Y-81175080D01*
X74447189Y-81215500D01*
X74447190Y-81215500D01*
X74552810Y-81215500D01*
X74552811Y-81215500D01*
X74650393Y-81175080D01*
X74725080Y-81100393D01*
X74765500Y-81002811D01*
X74765500Y-80897189D01*
X74725080Y-80799607D01*
X74650393Y-80724920D01*
X74552811Y-80684500D01*
X74447189Y-80684500D01*
X74349607Y-80724920D01*
X74274920Y-80799607D01*
X74234500Y-80897189D01*
X62772662Y-80897189D01*
X62750393Y-80874920D01*
X62652811Y-80834500D01*
X62547189Y-80834500D01*
X62449607Y-80874920D01*
X62374920Y-80949607D01*
X62334500Y-81047189D01*
X51265500Y-81047189D01*
X51265500Y-80947189D01*
X51225080Y-80849607D01*
X51150393Y-80774920D01*
X51052811Y-80734500D01*
X50947189Y-80734500D01*
X50849607Y-80774920D01*
X50774920Y-80849607D01*
X50734500Y-80947189D01*
X40500500Y-80947189D01*
X40500500Y-78647189D01*
X50784501Y-78647189D01*
X50784501Y-78752811D01*
X50824921Y-78850393D01*
X50899608Y-78925080D01*
X50997190Y-78965500D01*
X50997191Y-78965500D01*
X51102811Y-78965500D01*
X51102812Y-78965500D01*
X51200394Y-78925080D01*
X51275081Y-78850393D01*
X51315501Y-78752811D01*
X51315501Y-78647189D01*
X51290325Y-78586409D01*
X58354200Y-78586409D01*
X58354200Y-78715591D01*
X58379402Y-78842290D01*
X58422853Y-78947190D01*
X58428840Y-78961642D01*
X58477523Y-79034500D01*
X58500607Y-79069048D01*
X58591952Y-79160393D01*
X58637010Y-79190500D01*
X58699357Y-79232159D01*
X58699358Y-79232159D01*
X58699362Y-79232162D01*
X58818710Y-79281598D01*
X58945409Y-79306800D01*
X58945412Y-79306800D01*
X59074587Y-79306800D01*
X59074591Y-79306800D01*
X59201290Y-79281598D01*
X59201291Y-79281597D01*
X59201293Y-79281597D01*
X59217412Y-79274920D01*
X59238719Y-79266093D01*
X59272394Y-79266093D01*
X59296207Y-79289905D01*
X59296208Y-79323581D01*
X59286671Y-79337856D01*
X59274920Y-79349607D01*
X59234500Y-79447189D01*
X59234500Y-79552811D01*
X59274920Y-79650393D01*
X59349607Y-79725080D01*
X59447189Y-79765500D01*
X59447190Y-79765500D01*
X59552810Y-79765500D01*
X59552811Y-79765500D01*
X59650393Y-79725080D01*
X59725080Y-79650393D01*
X59747118Y-79597189D01*
X75334500Y-79597189D01*
X75334500Y-79702811D01*
X75374920Y-79800393D01*
X75449607Y-79875080D01*
X75547189Y-79915500D01*
X75547190Y-79915500D01*
X75652810Y-79915500D01*
X75652811Y-79915500D01*
X75694125Y-79898387D01*
X75727799Y-79898387D01*
X75751612Y-79922200D01*
X75751612Y-79955875D01*
X75734500Y-79997189D01*
X75734500Y-80102811D01*
X75774920Y-80200393D01*
X75849607Y-80275080D01*
X75947189Y-80315500D01*
X75947190Y-80315500D01*
X76030802Y-80315500D01*
X76061915Y-80328387D01*
X76074802Y-80359500D01*
X76061915Y-80390611D01*
X76052920Y-80399607D01*
X76012500Y-80497189D01*
X76012500Y-80602811D01*
X76052920Y-80700393D01*
X76127607Y-80775080D01*
X76225189Y-80815500D01*
X76225190Y-80815500D01*
X76330810Y-80815500D01*
X76330811Y-80815500D01*
X76428393Y-80775080D01*
X76503080Y-80700393D01*
X76543500Y-80602811D01*
X76543500Y-80497189D01*
X76503080Y-80399607D01*
X76450662Y-80347189D01*
X77184500Y-80347189D01*
X77184500Y-80452811D01*
X77224920Y-80550393D01*
X77299607Y-80625080D01*
X77397189Y-80665500D01*
X77397190Y-80665500D01*
X77502810Y-80665500D01*
X77502811Y-80665500D01*
X77600393Y-80625080D01*
X77675080Y-80550393D01*
X77715500Y-80452811D01*
X77715500Y-80347189D01*
X77675080Y-80249607D01*
X77600393Y-80174920D01*
X77502811Y-80134500D01*
X77397189Y-80134500D01*
X77299607Y-80174920D01*
X77224920Y-80249607D01*
X77184500Y-80347189D01*
X76450662Y-80347189D01*
X76428393Y-80324920D01*
X76330811Y-80284500D01*
X76247198Y-80284500D01*
X76216085Y-80271613D01*
X76203198Y-80240500D01*
X76216084Y-80209388D01*
X76225080Y-80200393D01*
X76265500Y-80102811D01*
X76265500Y-79997189D01*
X76225080Y-79899607D01*
X76150393Y-79824920D01*
X76052811Y-79784500D01*
X75947189Y-79784500D01*
X75905875Y-79801612D01*
X75872199Y-79801611D01*
X75848387Y-79777798D01*
X75848387Y-79744125D01*
X75865500Y-79702811D01*
X75865500Y-79597189D01*
X75825080Y-79499607D01*
X75750393Y-79424920D01*
X75652811Y-79384500D01*
X75547189Y-79384500D01*
X75449607Y-79424920D01*
X75374920Y-79499607D01*
X75334500Y-79597189D01*
X59747118Y-79597189D01*
X59765500Y-79552811D01*
X59765500Y-79447189D01*
X59725080Y-79349607D01*
X59650393Y-79274920D01*
X59583445Y-79247189D01*
X60234500Y-79247189D01*
X60234500Y-79352811D01*
X60274920Y-79450393D01*
X60349607Y-79525080D01*
X60447189Y-79565500D01*
X60447190Y-79565500D01*
X60552810Y-79565500D01*
X60552811Y-79565500D01*
X60650393Y-79525080D01*
X60725080Y-79450393D01*
X60765500Y-79352811D01*
X60765500Y-79247189D01*
X60725080Y-79149607D01*
X60650393Y-79074920D01*
X60552811Y-79034500D01*
X60447189Y-79034500D01*
X60349607Y-79074920D01*
X60274920Y-79149607D01*
X60234500Y-79247189D01*
X59583445Y-79247189D01*
X59552811Y-79234500D01*
X59460166Y-79234500D01*
X59429053Y-79221613D01*
X59416166Y-79190500D01*
X59429052Y-79159388D01*
X59519393Y-79069048D01*
X59591162Y-78961638D01*
X59597147Y-78947189D01*
X69734500Y-78947189D01*
X69734500Y-79052811D01*
X69774920Y-79150393D01*
X69849607Y-79225080D01*
X69947189Y-79265500D01*
X69947190Y-79265500D01*
X70052810Y-79265500D01*
X70052811Y-79265500D01*
X70150393Y-79225080D01*
X70225080Y-79150393D01*
X70265500Y-79052811D01*
X70265500Y-78947189D01*
X70225080Y-78849607D01*
X70150393Y-78774920D01*
X70052811Y-78734500D01*
X69947189Y-78734500D01*
X69849607Y-78774920D01*
X69774920Y-78849607D01*
X69734500Y-78947189D01*
X59597147Y-78947189D01*
X59640598Y-78842290D01*
X59665800Y-78715591D01*
X59665800Y-78586409D01*
X59640598Y-78459710D01*
X59591162Y-78340362D01*
X59519393Y-78232952D01*
X59428048Y-78141607D01*
X59427325Y-78141124D01*
X59320642Y-78069840D01*
X59320639Y-78069838D01*
X59320638Y-78069838D01*
X59201290Y-78020402D01*
X59074591Y-77995200D01*
X58945409Y-77995200D01*
X58850384Y-78014101D01*
X58818709Y-78020402D01*
X58699357Y-78069840D01*
X58591954Y-78141605D01*
X58500605Y-78232954D01*
X58428840Y-78340357D01*
X58379402Y-78459709D01*
X58373101Y-78491384D01*
X58354200Y-78586409D01*
X51290325Y-78586409D01*
X51275081Y-78549607D01*
X51200394Y-78474920D01*
X51102812Y-78434500D01*
X50997190Y-78434500D01*
X50899608Y-78474920D01*
X50824921Y-78549607D01*
X50784501Y-78647189D01*
X40500500Y-78647189D01*
X40500500Y-77446083D01*
X46369500Y-77446083D01*
X46369500Y-77573917D01*
X46402586Y-77697396D01*
X46466504Y-77808104D01*
X46556896Y-77898496D01*
X46667604Y-77962414D01*
X46791083Y-77995500D01*
X46791085Y-77995500D01*
X46918915Y-77995500D01*
X46918917Y-77995500D01*
X47042396Y-77962414D01*
X47153104Y-77898496D01*
X47243496Y-77808104D01*
X47307414Y-77697396D01*
X47340500Y-77573917D01*
X47340500Y-77570409D01*
X63434200Y-77570409D01*
X63434200Y-77699591D01*
X63459402Y-77826290D01*
X63479545Y-77874920D01*
X63508840Y-77945642D01*
X63568214Y-78034500D01*
X63580607Y-78053048D01*
X63671952Y-78144393D01*
X63725295Y-78180036D01*
X63779357Y-78216159D01*
X63779358Y-78216159D01*
X63779362Y-78216162D01*
X63898710Y-78265598D01*
X64025409Y-78290800D01*
X64025412Y-78290800D01*
X64154587Y-78290800D01*
X64154591Y-78290800D01*
X64281290Y-78265598D01*
X64325733Y-78247189D01*
X71934500Y-78247189D01*
X71934500Y-78352811D01*
X71974920Y-78450393D01*
X72049607Y-78525080D01*
X72147189Y-78565500D01*
X72147190Y-78565500D01*
X72252810Y-78565500D01*
X72252811Y-78565500D01*
X72350393Y-78525080D01*
X72425080Y-78450393D01*
X72465500Y-78352811D01*
X72465500Y-78247189D01*
X72425080Y-78149607D01*
X72350393Y-78074920D01*
X72283445Y-78047189D01*
X83634500Y-78047189D01*
X83634500Y-78152811D01*
X83674920Y-78250393D01*
X83749607Y-78325080D01*
X83847189Y-78365500D01*
X83847190Y-78365500D01*
X83952810Y-78365500D01*
X83952811Y-78365500D01*
X84050393Y-78325080D01*
X84125080Y-78250393D01*
X84165500Y-78152811D01*
X84165500Y-78047189D01*
X84125080Y-77949607D01*
X84050393Y-77874920D01*
X83952811Y-77834500D01*
X83847189Y-77834500D01*
X83749607Y-77874920D01*
X83674920Y-77949607D01*
X83634500Y-78047189D01*
X72283445Y-78047189D01*
X72252811Y-78034500D01*
X72147189Y-78034500D01*
X72049607Y-78074920D01*
X71974920Y-78149607D01*
X71934500Y-78247189D01*
X64325733Y-78247189D01*
X64400638Y-78216162D01*
X64407535Y-78211553D01*
X64415443Y-78206270D01*
X64440636Y-78189436D01*
X64508048Y-78144393D01*
X64599393Y-78053048D01*
X64671162Y-77945638D01*
X64720598Y-77826290D01*
X64745800Y-77699591D01*
X64745800Y-77570409D01*
X64720598Y-77443710D01*
X64671162Y-77324362D01*
X64669987Y-77322604D01*
X64599394Y-77216954D01*
X64599393Y-77216952D01*
X64508048Y-77125607D01*
X64500245Y-77120393D01*
X64400642Y-77053840D01*
X64400639Y-77053838D01*
X64400638Y-77053838D01*
X64281290Y-77004402D01*
X64154591Y-76979200D01*
X64025409Y-76979200D01*
X63930384Y-76998101D01*
X63898709Y-77004402D01*
X63779357Y-77053840D01*
X63671954Y-77125605D01*
X63580605Y-77216954D01*
X63508840Y-77324357D01*
X63508838Y-77324362D01*
X63459402Y-77443710D01*
X63434200Y-77570409D01*
X47340500Y-77570409D01*
X47340500Y-77446083D01*
X47307414Y-77322604D01*
X47243496Y-77211896D01*
X47153104Y-77121504D01*
X47153103Y-77121503D01*
X47042400Y-77057588D01*
X47042396Y-77057586D01*
X46918917Y-77024500D01*
X46791083Y-77024500D01*
X46708763Y-77046557D01*
X46667603Y-77057586D01*
X46667599Y-77057588D01*
X46556897Y-77121503D01*
X46556896Y-77121503D01*
X46466503Y-77211896D01*
X46466503Y-77211897D01*
X46402588Y-77322599D01*
X46402586Y-77322603D01*
X46402586Y-77322604D01*
X46369500Y-77446083D01*
X40500500Y-77446083D01*
X40500500Y-76002259D01*
X42184500Y-76002259D01*
X42184500Y-76157741D01*
X42202544Y-76225080D01*
X42224742Y-76307924D01*
X42224744Y-76307928D01*
X42302480Y-76442571D01*
X42302481Y-76442572D01*
X42302483Y-76442575D01*
X42412425Y-76552517D01*
X42547076Y-76630258D01*
X42697259Y-76670500D01*
X42697260Y-76670500D01*
X43652740Y-76670500D01*
X43652741Y-76670500D01*
X43802924Y-76630258D01*
X43937575Y-76552517D01*
X44047517Y-76442575D01*
X44125258Y-76307924D01*
X44165500Y-76157741D01*
X44165500Y-76002259D01*
X46214500Y-76002259D01*
X46214500Y-76157741D01*
X46232544Y-76225080D01*
X46254742Y-76307924D01*
X46254744Y-76307928D01*
X46332480Y-76442571D01*
X46332481Y-76442572D01*
X46332483Y-76442575D01*
X46442425Y-76552517D01*
X46577076Y-76630258D01*
X46727259Y-76670500D01*
X46727260Y-76670500D01*
X47982740Y-76670500D01*
X47982741Y-76670500D01*
X48132924Y-76630258D01*
X48264298Y-76554409D01*
X58354200Y-76554409D01*
X58354200Y-76683591D01*
X58379402Y-76810290D01*
X58423682Y-76917191D01*
X58428840Y-76929642D01*
X58491093Y-77022810D01*
X58500607Y-77037048D01*
X58591952Y-77128393D01*
X58645295Y-77164036D01*
X58699357Y-77200159D01*
X58699358Y-77200159D01*
X58699362Y-77200162D01*
X58818710Y-77249598D01*
X58945409Y-77274800D01*
X58945412Y-77274800D01*
X59074587Y-77274800D01*
X59074591Y-77274800D01*
X59201290Y-77249598D01*
X59320638Y-77200162D01*
X59428048Y-77128393D01*
X59519393Y-77037048D01*
X59591162Y-76929638D01*
X59596318Y-76917190D01*
X68473668Y-76917190D01*
X68473668Y-77022812D01*
X68514088Y-77120394D01*
X68588775Y-77195081D01*
X68686357Y-77235501D01*
X68686358Y-77235501D01*
X68791978Y-77235501D01*
X68791979Y-77235501D01*
X68889561Y-77195081D01*
X68964248Y-77120394D01*
X69004668Y-77022812D01*
X69004668Y-76917190D01*
X68964248Y-76819608D01*
X68889561Y-76744921D01*
X68791979Y-76704501D01*
X68686357Y-76704501D01*
X68588775Y-76744921D01*
X68514088Y-76819608D01*
X68473668Y-76917190D01*
X59596318Y-76917190D01*
X59640598Y-76810290D01*
X59665800Y-76683591D01*
X59665800Y-76554409D01*
X59640598Y-76427710D01*
X59627956Y-76397189D01*
X67984500Y-76397189D01*
X67984500Y-76502811D01*
X68024920Y-76600393D01*
X68099607Y-76675080D01*
X68197189Y-76715500D01*
X68197190Y-76715500D01*
X68302810Y-76715500D01*
X68302811Y-76715500D01*
X68400393Y-76675080D01*
X68428284Y-76647189D01*
X74784500Y-76647189D01*
X74784500Y-76752811D01*
X74824920Y-76850393D01*
X74899607Y-76925080D01*
X74997189Y-76965500D01*
X74997190Y-76965500D01*
X75102810Y-76965500D01*
X75102811Y-76965500D01*
X75200393Y-76925080D01*
X75275080Y-76850393D01*
X75315500Y-76752811D01*
X75315500Y-76647189D01*
X75275080Y-76549607D01*
X75200393Y-76474920D01*
X75102811Y-76434500D01*
X74997189Y-76434500D01*
X74899607Y-76474920D01*
X74824920Y-76549607D01*
X74784500Y-76647189D01*
X68428284Y-76647189D01*
X68475080Y-76600393D01*
X68515500Y-76502811D01*
X68515500Y-76397189D01*
X68475080Y-76299607D01*
X68400393Y-76224920D01*
X68302811Y-76184500D01*
X68197189Y-76184500D01*
X68099607Y-76224920D01*
X68024920Y-76299607D01*
X67984500Y-76397189D01*
X59627956Y-76397189D01*
X59591162Y-76308362D01*
X59590869Y-76307924D01*
X59535408Y-76224920D01*
X59519393Y-76200952D01*
X59428048Y-76109607D01*
X59414255Y-76100391D01*
X59320642Y-76037840D01*
X59320639Y-76037838D01*
X59320638Y-76037838D01*
X59201290Y-75988402D01*
X59074591Y-75963200D01*
X58945409Y-75963200D01*
X58850384Y-75982101D01*
X58818709Y-75988402D01*
X58699357Y-76037840D01*
X58591954Y-76109605D01*
X58500605Y-76200954D01*
X58428840Y-76308357D01*
X58380492Y-76425079D01*
X58379402Y-76427710D01*
X58354200Y-76554409D01*
X48264298Y-76554409D01*
X48267575Y-76552517D01*
X48377517Y-76442575D01*
X48455258Y-76307924D01*
X48495500Y-76157741D01*
X48495500Y-76002259D01*
X48480744Y-75947189D01*
X50734500Y-75947189D01*
X50734500Y-76052811D01*
X50774920Y-76150393D01*
X50849607Y-76225080D01*
X50947189Y-76265500D01*
X50947190Y-76265500D01*
X51052810Y-76265500D01*
X51052811Y-76265500D01*
X51150393Y-76225080D01*
X51225080Y-76150393D01*
X51265500Y-76052811D01*
X51265500Y-75947189D01*
X51225080Y-75849607D01*
X51222662Y-75847189D01*
X67034500Y-75847189D01*
X67034500Y-75952811D01*
X67074920Y-76050393D01*
X67149607Y-76125080D01*
X67247189Y-76165500D01*
X67247190Y-76165500D01*
X67352810Y-76165500D01*
X67352811Y-76165500D01*
X67450393Y-76125080D01*
X67499114Y-76076358D01*
X67530226Y-76063471D01*
X67561338Y-76076358D01*
X67570876Y-76090631D01*
X67574920Y-76100393D01*
X67649607Y-76175080D01*
X67747189Y-76215500D01*
X67747190Y-76215500D01*
X67852810Y-76215500D01*
X67852811Y-76215500D01*
X67950393Y-76175080D01*
X67978284Y-76147189D01*
X68734500Y-76147189D01*
X68734500Y-76252811D01*
X68774920Y-76350393D01*
X68849607Y-76425080D01*
X68947189Y-76465500D01*
X68947190Y-76465500D01*
X69052810Y-76465500D01*
X69052811Y-76465500D01*
X69150393Y-76425080D01*
X69225080Y-76350393D01*
X69265500Y-76252811D01*
X69265500Y-76147189D01*
X69225080Y-76049607D01*
X69150393Y-75974920D01*
X69052811Y-75934500D01*
X68947189Y-75934500D01*
X68849607Y-75974920D01*
X68774920Y-76049607D01*
X68734500Y-76147189D01*
X67978284Y-76147189D01*
X68025080Y-76100393D01*
X68064173Y-76006013D01*
X68087985Y-75982202D01*
X68121660Y-75982202D01*
X68172044Y-76003072D01*
X68172045Y-76003072D01*
X68277665Y-76003072D01*
X68277666Y-76003072D01*
X68375248Y-75962652D01*
X68449935Y-75887965D01*
X68490355Y-75790383D01*
X68490355Y-75684761D01*
X68449935Y-75587179D01*
X68375248Y-75512492D01*
X68277666Y-75472072D01*
X68172044Y-75472072D01*
X68074462Y-75512492D01*
X67999775Y-75587179D01*
X67960682Y-75681557D01*
X67936869Y-75705369D01*
X67903193Y-75705369D01*
X67852811Y-75684500D01*
X67747189Y-75684500D01*
X67698398Y-75704710D01*
X67649606Y-75724920D01*
X67600885Y-75773641D01*
X67569773Y-75786528D01*
X67538660Y-75773640D01*
X67529123Y-75759369D01*
X67525080Y-75749607D01*
X67450393Y-75674920D01*
X67352811Y-75634500D01*
X67247189Y-75634500D01*
X67149607Y-75674920D01*
X67074920Y-75749607D01*
X67034500Y-75847189D01*
X51222662Y-75847189D01*
X51150393Y-75774920D01*
X51052811Y-75734500D01*
X50947189Y-75734500D01*
X50849607Y-75774920D01*
X50774920Y-75849607D01*
X50734500Y-75947189D01*
X48480744Y-75947189D01*
X48455258Y-75852076D01*
X48410712Y-75774920D01*
X48377519Y-75717428D01*
X48377518Y-75717427D01*
X48377517Y-75717425D01*
X48267575Y-75607483D01*
X48267572Y-75607481D01*
X48267571Y-75607480D01*
X48132928Y-75529744D01*
X48132924Y-75529742D01*
X48068547Y-75512492D01*
X47982741Y-75489500D01*
X46727259Y-75489500D01*
X46652167Y-75509621D01*
X46577075Y-75529742D01*
X46577071Y-75529744D01*
X46442428Y-75607480D01*
X46332480Y-75717428D01*
X46254744Y-75852071D01*
X46254742Y-75852075D01*
X46245125Y-75887965D01*
X46214500Y-76002259D01*
X44165500Y-76002259D01*
X44125258Y-75852076D01*
X44080712Y-75774920D01*
X44047519Y-75717428D01*
X44047518Y-75717427D01*
X44047517Y-75717425D01*
X43937575Y-75607483D01*
X43937572Y-75607481D01*
X43937571Y-75607480D01*
X43802928Y-75529744D01*
X43802924Y-75529742D01*
X43738547Y-75512492D01*
X43652741Y-75489500D01*
X42697259Y-75489500D01*
X42622167Y-75509621D01*
X42547075Y-75529742D01*
X42547071Y-75529744D01*
X42412428Y-75607480D01*
X42302480Y-75717428D01*
X42224744Y-75852071D01*
X42224742Y-75852075D01*
X42215125Y-75887965D01*
X42184500Y-76002259D01*
X40500500Y-76002259D01*
X40500500Y-73547189D01*
X43734500Y-73547189D01*
X43734500Y-73652811D01*
X43774920Y-73750393D01*
X43849607Y-73825080D01*
X43947189Y-73865500D01*
X43947190Y-73865500D01*
X44052810Y-73865500D01*
X44052811Y-73865500D01*
X44150393Y-73825080D01*
X44225080Y-73750393D01*
X44226407Y-73747189D01*
X48234500Y-73747189D01*
X48234500Y-73852811D01*
X48274920Y-73950393D01*
X48349607Y-74025080D01*
X48447189Y-74065500D01*
X48447190Y-74065500D01*
X48552810Y-74065500D01*
X48552811Y-74065500D01*
X48650393Y-74025080D01*
X48725080Y-73950393D01*
X48726407Y-73947189D01*
X70234500Y-73947189D01*
X70234500Y-74052811D01*
X70274920Y-74150393D01*
X70349607Y-74225080D01*
X70447189Y-74265500D01*
X70447190Y-74265500D01*
X70552810Y-74265500D01*
X70552811Y-74265500D01*
X70650393Y-74225080D01*
X70725080Y-74150393D01*
X70765500Y-74052811D01*
X70765500Y-73947189D01*
X70725080Y-73849607D01*
X70650393Y-73774920D01*
X70552811Y-73734500D01*
X70447189Y-73734500D01*
X70349607Y-73774920D01*
X70274920Y-73849607D01*
X70234500Y-73947189D01*
X48726407Y-73947189D01*
X48765500Y-73852811D01*
X48765500Y-73747189D01*
X48725080Y-73649607D01*
X48650393Y-73574920D01*
X48552811Y-73534500D01*
X48447189Y-73534500D01*
X48349607Y-73574920D01*
X48274920Y-73649607D01*
X48234500Y-73747189D01*
X44226407Y-73747189D01*
X44265500Y-73652811D01*
X44265500Y-73547189D01*
X44225080Y-73449607D01*
X44150393Y-73374920D01*
X44052811Y-73334500D01*
X43947189Y-73334500D01*
X43849607Y-73374920D01*
X43774920Y-73449607D01*
X43734500Y-73547189D01*
X40500500Y-73547189D01*
X40500500Y-73297189D01*
X73934500Y-73297189D01*
X73934500Y-73402811D01*
X73974920Y-73500393D01*
X74049607Y-73575080D01*
X74147189Y-73615500D01*
X74147190Y-73615500D01*
X74252810Y-73615500D01*
X74252811Y-73615500D01*
X74350393Y-73575080D01*
X74425080Y-73500393D01*
X74465500Y-73402811D01*
X74465500Y-73297189D01*
X74425080Y-73199607D01*
X74372662Y-73147189D01*
X84484500Y-73147189D01*
X84484500Y-73252811D01*
X84524920Y-73350393D01*
X84599607Y-73425080D01*
X84697189Y-73465500D01*
X84697190Y-73465500D01*
X84802810Y-73465500D01*
X84802811Y-73465500D01*
X84900393Y-73425080D01*
X84975080Y-73350393D01*
X85015500Y-73252811D01*
X85015500Y-73147189D01*
X84975080Y-73049607D01*
X84900393Y-72974920D01*
X84802811Y-72934500D01*
X84697189Y-72934500D01*
X84599607Y-72974920D01*
X84524920Y-73049607D01*
X84484500Y-73147189D01*
X74372662Y-73147189D01*
X74350393Y-73124920D01*
X74252811Y-73084500D01*
X74147189Y-73084500D01*
X74049607Y-73124920D01*
X73974920Y-73199607D01*
X73934500Y-73297189D01*
X40500500Y-73297189D01*
X40500500Y-72947189D01*
X52734500Y-72947189D01*
X52734500Y-73052811D01*
X52774920Y-73150393D01*
X52849607Y-73225080D01*
X52947189Y-73265500D01*
X52947190Y-73265500D01*
X53052810Y-73265500D01*
X53052811Y-73265500D01*
X53150393Y-73225080D01*
X53225080Y-73150393D01*
X53265500Y-73052811D01*
X53265500Y-72947189D01*
X66234500Y-72947189D01*
X66234500Y-73052811D01*
X66274920Y-73150393D01*
X66349607Y-73225080D01*
X66447189Y-73265500D01*
X66447190Y-73265500D01*
X66552810Y-73265500D01*
X66552811Y-73265500D01*
X66650393Y-73225080D01*
X66725080Y-73150393D01*
X66765500Y-73052811D01*
X66765500Y-72947189D01*
X66725080Y-72849607D01*
X66650393Y-72774920D01*
X66552811Y-72734500D01*
X66447189Y-72734500D01*
X66349607Y-72774920D01*
X66274920Y-72849607D01*
X66234500Y-72947189D01*
X53265500Y-72947189D01*
X53225080Y-72849607D01*
X53150393Y-72774920D01*
X53052811Y-72734500D01*
X52947189Y-72734500D01*
X52849607Y-72774920D01*
X52774920Y-72849607D01*
X52734500Y-72947189D01*
X40500500Y-72947189D01*
X40500500Y-72047189D01*
X77684500Y-72047189D01*
X77684500Y-72152811D01*
X77724920Y-72250393D01*
X77799607Y-72325080D01*
X77897189Y-72365500D01*
X77897190Y-72365500D01*
X78002810Y-72365500D01*
X78002811Y-72365500D01*
X78100393Y-72325080D01*
X78175080Y-72250393D01*
X78215500Y-72152811D01*
X78215500Y-72047189D01*
X78175080Y-71949607D01*
X78100393Y-71874920D01*
X78002811Y-71834500D01*
X77897189Y-71834500D01*
X77799607Y-71874920D01*
X77724920Y-71949607D01*
X77684500Y-72047189D01*
X40500500Y-72047189D01*
X40500500Y-70947189D01*
X45734500Y-70947189D01*
X45734500Y-71052811D01*
X45774920Y-71150393D01*
X45849607Y-71225080D01*
X45947189Y-71265500D01*
X45947190Y-71265500D01*
X46052810Y-71265500D01*
X46052811Y-71265500D01*
X46150393Y-71225080D01*
X46225080Y-71150393D01*
X46265500Y-71052811D01*
X46265500Y-71047189D01*
X46734500Y-71047189D01*
X46734500Y-71152811D01*
X46774920Y-71250393D01*
X46849607Y-71325080D01*
X46947189Y-71365500D01*
X46947190Y-71365500D01*
X47052810Y-71365500D01*
X47052811Y-71365500D01*
X47150393Y-71325080D01*
X47225080Y-71250393D01*
X47265500Y-71152811D01*
X47265500Y-71047189D01*
X47225080Y-70949607D01*
X47150393Y-70874920D01*
X47052811Y-70834500D01*
X46947189Y-70834500D01*
X46849607Y-70874920D01*
X46774920Y-70949607D01*
X46734500Y-71047189D01*
X46265500Y-71047189D01*
X46265500Y-70947189D01*
X46225080Y-70849607D01*
X46150393Y-70774920D01*
X46083445Y-70747189D01*
X59684500Y-70747189D01*
X59684500Y-70852811D01*
X59724920Y-70950393D01*
X59799607Y-71025080D01*
X59897189Y-71065500D01*
X59897190Y-71065500D01*
X60002810Y-71065500D01*
X60002811Y-71065500D01*
X60051351Y-71045394D01*
X60085025Y-71045394D01*
X60108838Y-71069207D01*
X60112187Y-71086045D01*
X60112187Y-71161332D01*
X60152607Y-71258914D01*
X60227294Y-71333601D01*
X60293311Y-71360946D01*
X60317122Y-71384757D01*
X60317122Y-71418432D01*
X60284500Y-71497189D01*
X60284500Y-71602811D01*
X60324920Y-71700393D01*
X60399607Y-71775080D01*
X60497189Y-71815500D01*
X60497190Y-71815500D01*
X60602810Y-71815500D01*
X60602811Y-71815500D01*
X60700393Y-71775080D01*
X60775080Y-71700393D01*
X60815500Y-71602811D01*
X60815500Y-71497189D01*
X66834500Y-71497189D01*
X66834500Y-71602811D01*
X66874920Y-71700393D01*
X66949607Y-71775080D01*
X67047189Y-71815500D01*
X67047190Y-71815500D01*
X67152810Y-71815500D01*
X67152811Y-71815500D01*
X67250393Y-71775080D01*
X67325080Y-71700393D01*
X67365500Y-71602811D01*
X67365500Y-71497189D01*
X67325080Y-71399607D01*
X67322662Y-71397189D01*
X74434500Y-71397189D01*
X74434500Y-71502811D01*
X74474920Y-71600393D01*
X74549607Y-71675080D01*
X74647189Y-71715500D01*
X74647190Y-71715500D01*
X74752810Y-71715500D01*
X74752811Y-71715500D01*
X74850393Y-71675080D01*
X74925080Y-71600393D01*
X74965500Y-71502811D01*
X74965500Y-71397189D01*
X74925080Y-71299607D01*
X74850393Y-71224920D01*
X74752811Y-71184500D01*
X74647189Y-71184500D01*
X74549607Y-71224920D01*
X74474920Y-71299607D01*
X74434500Y-71397189D01*
X67322662Y-71397189D01*
X67250393Y-71324920D01*
X67152811Y-71284500D01*
X67047189Y-71284500D01*
X66949607Y-71324920D01*
X66874920Y-71399607D01*
X66834500Y-71497189D01*
X60815500Y-71497189D01*
X60775080Y-71399607D01*
X60700393Y-71324920D01*
X60634375Y-71297574D01*
X60610564Y-71273763D01*
X60610564Y-71240090D01*
X60643187Y-71161332D01*
X60643187Y-71055710D01*
X60602767Y-70958128D01*
X60541828Y-70897189D01*
X74834500Y-70897189D01*
X74834500Y-71002811D01*
X74874920Y-71100393D01*
X74949607Y-71175080D01*
X75047189Y-71215500D01*
X75047190Y-71215500D01*
X75152810Y-71215500D01*
X75152811Y-71215500D01*
X75250393Y-71175080D01*
X75325080Y-71100393D01*
X75365500Y-71002811D01*
X75365500Y-70897189D01*
X75325080Y-70799607D01*
X75250393Y-70724920D01*
X75152811Y-70684500D01*
X75047189Y-70684500D01*
X74949607Y-70724920D01*
X74874920Y-70799607D01*
X74834500Y-70897189D01*
X60541828Y-70897189D01*
X60528080Y-70883441D01*
X60430498Y-70843021D01*
X60324876Y-70843021D01*
X60276338Y-70863126D01*
X60242662Y-70863126D01*
X60218849Y-70839313D01*
X60215500Y-70822475D01*
X60215500Y-70747190D01*
X60210244Y-70734500D01*
X60175080Y-70649607D01*
X60100393Y-70574920D01*
X60002811Y-70534500D01*
X59897189Y-70534500D01*
X59799607Y-70574920D01*
X59724920Y-70649607D01*
X59684500Y-70747189D01*
X46083445Y-70747189D01*
X46052811Y-70734500D01*
X45947189Y-70734500D01*
X45849607Y-70774920D01*
X45774920Y-70849607D01*
X45734500Y-70947189D01*
X40500500Y-70947189D01*
X40500500Y-70047189D01*
X46034500Y-70047189D01*
X46034500Y-70152811D01*
X46074920Y-70250393D01*
X46149607Y-70325080D01*
X46247189Y-70365500D01*
X46247190Y-70365500D01*
X46352810Y-70365500D01*
X46352811Y-70365500D01*
X46450393Y-70325080D01*
X46459388Y-70316084D01*
X46490500Y-70303198D01*
X46521613Y-70316085D01*
X46534500Y-70347198D01*
X46534500Y-70452811D01*
X46574920Y-70550393D01*
X46649607Y-70625080D01*
X46747189Y-70665500D01*
X46747190Y-70665500D01*
X46852810Y-70665500D01*
X46852811Y-70665500D01*
X46950393Y-70625080D01*
X47025080Y-70550393D01*
X47065500Y-70452811D01*
X47065500Y-70347189D01*
X47025080Y-70249607D01*
X46950393Y-70174920D01*
X46852811Y-70134500D01*
X46747189Y-70134500D01*
X46649607Y-70174920D01*
X46640611Y-70183915D01*
X46609500Y-70196802D01*
X46578387Y-70183915D01*
X46565500Y-70152802D01*
X46565500Y-70097189D01*
X68234500Y-70097189D01*
X68234500Y-70202811D01*
X68274920Y-70300393D01*
X68349607Y-70375080D01*
X68447189Y-70415500D01*
X68447190Y-70415500D01*
X68552810Y-70415500D01*
X68552811Y-70415500D01*
X68650393Y-70375080D01*
X68725080Y-70300393D01*
X68765500Y-70202811D01*
X68765500Y-70097189D01*
X68744789Y-70047189D01*
X69634500Y-70047189D01*
X69634500Y-70152811D01*
X69674920Y-70250393D01*
X69749607Y-70325080D01*
X69847189Y-70365500D01*
X69847190Y-70365500D01*
X69952810Y-70365500D01*
X69952811Y-70365500D01*
X70050393Y-70325080D01*
X70125080Y-70250393D01*
X70165500Y-70152811D01*
X70165500Y-70047189D01*
X70125080Y-69949607D01*
X70050393Y-69874920D01*
X69952811Y-69834500D01*
X69847189Y-69834500D01*
X69749607Y-69874920D01*
X69674920Y-69949607D01*
X69634500Y-70047189D01*
X68744789Y-70047189D01*
X68725080Y-69999607D01*
X68650393Y-69924920D01*
X68552811Y-69884500D01*
X68447189Y-69884500D01*
X68349607Y-69924920D01*
X68274920Y-69999607D01*
X68234500Y-70097189D01*
X46565500Y-70097189D01*
X46565500Y-70047190D01*
X46565500Y-70047189D01*
X46525080Y-69949607D01*
X46450393Y-69874920D01*
X46352811Y-69834500D01*
X46247189Y-69834500D01*
X46149607Y-69874920D01*
X46074920Y-69949607D01*
X46034500Y-70047189D01*
X40500500Y-70047189D01*
X40500500Y-69647189D01*
X59184500Y-69647189D01*
X59184500Y-69752811D01*
X59224920Y-69850393D01*
X59299607Y-69925080D01*
X59397189Y-69965500D01*
X59397190Y-69965500D01*
X59502810Y-69965500D01*
X59502811Y-69965500D01*
X59600393Y-69925080D01*
X59675080Y-69850393D01*
X59708413Y-69769919D01*
X59732224Y-69746109D01*
X59765900Y-69746109D01*
X59780171Y-69755644D01*
X59799607Y-69775080D01*
X59897189Y-69815500D01*
X59897190Y-69815500D01*
X60002810Y-69815500D01*
X60002811Y-69815500D01*
X60100393Y-69775080D01*
X60175080Y-69700393D01*
X60215500Y-69602811D01*
X60215500Y-69497189D01*
X60175080Y-69399607D01*
X60122662Y-69347189D01*
X70434500Y-69347189D01*
X70434500Y-69452811D01*
X70474920Y-69550393D01*
X70549607Y-69625080D01*
X70647189Y-69665500D01*
X70647190Y-69665500D01*
X70752810Y-69665500D01*
X70752811Y-69665500D01*
X70850393Y-69625080D01*
X70925080Y-69550393D01*
X70965500Y-69452811D01*
X70965500Y-69347189D01*
X70925080Y-69249607D01*
X70850393Y-69174920D01*
X70752811Y-69134500D01*
X70647189Y-69134500D01*
X70549607Y-69174920D01*
X70474920Y-69249607D01*
X70434500Y-69347189D01*
X60122662Y-69347189D01*
X60100393Y-69324920D01*
X60002811Y-69284500D01*
X59897189Y-69284500D01*
X59866553Y-69297190D01*
X59799607Y-69324920D01*
X59724920Y-69399607D01*
X59691588Y-69480077D01*
X59667775Y-69503890D01*
X59634099Y-69503890D01*
X59619827Y-69494354D01*
X59600393Y-69474920D01*
X59502811Y-69434500D01*
X59397189Y-69434500D01*
X59299607Y-69474920D01*
X59224920Y-69549607D01*
X59184500Y-69647189D01*
X40500500Y-69647189D01*
X40500500Y-69297189D01*
X58584500Y-69297189D01*
X58584500Y-69402811D01*
X58624920Y-69500393D01*
X58699607Y-69575080D01*
X58797189Y-69615500D01*
X58797190Y-69615500D01*
X58902810Y-69615500D01*
X58902811Y-69615500D01*
X59000393Y-69575080D01*
X59075080Y-69500393D01*
X59115500Y-69402811D01*
X59115500Y-69297189D01*
X59075080Y-69199607D01*
X59000393Y-69124920D01*
X58902811Y-69084500D01*
X58797189Y-69084500D01*
X58699607Y-69124920D01*
X58624920Y-69199607D01*
X58584500Y-69297189D01*
X40500500Y-69297189D01*
X40500500Y-68447189D01*
X53234500Y-68447189D01*
X53234500Y-68552811D01*
X53274920Y-68650393D01*
X53349607Y-68725080D01*
X53447189Y-68765500D01*
X53447190Y-68765500D01*
X53552810Y-68765500D01*
X53552811Y-68765500D01*
X53597017Y-68747189D01*
X58261947Y-68747189D01*
X58261947Y-68852811D01*
X58302367Y-68950393D01*
X58377054Y-69025080D01*
X58474636Y-69065500D01*
X58474637Y-69065500D01*
X58580257Y-69065500D01*
X58580258Y-69065500D01*
X58677840Y-69025080D01*
X58752527Y-68950393D01*
X58792947Y-68852811D01*
X58792947Y-68747189D01*
X58752527Y-68649607D01*
X58677840Y-68574920D01*
X58580258Y-68534500D01*
X58474636Y-68534500D01*
X58377054Y-68574920D01*
X58302367Y-68649607D01*
X58261947Y-68747189D01*
X53597017Y-68747189D01*
X53650393Y-68725080D01*
X53725080Y-68650393D01*
X53765500Y-68552811D01*
X53765500Y-68447189D01*
X53725080Y-68349607D01*
X53650393Y-68274920D01*
X53552811Y-68234500D01*
X53447189Y-68234500D01*
X53349607Y-68274920D01*
X53274920Y-68349607D01*
X53234500Y-68447189D01*
X40500500Y-68447189D01*
X40500500Y-68147189D01*
X62634500Y-68147189D01*
X62634500Y-68252811D01*
X62674920Y-68350393D01*
X62749607Y-68425080D01*
X62847189Y-68465500D01*
X62847190Y-68465500D01*
X62952810Y-68465500D01*
X62952811Y-68465500D01*
X63050393Y-68425080D01*
X63125080Y-68350393D01*
X63165500Y-68252811D01*
X63165500Y-68147189D01*
X63125080Y-68049607D01*
X63050393Y-67974920D01*
X62983445Y-67947189D01*
X64734500Y-67947189D01*
X64734500Y-68052811D01*
X64774920Y-68150393D01*
X64849607Y-68225080D01*
X64947189Y-68265500D01*
X64947190Y-68265500D01*
X65052810Y-68265500D01*
X65052811Y-68265500D01*
X65150393Y-68225080D01*
X65225080Y-68150393D01*
X65265500Y-68052811D01*
X65265500Y-67947189D01*
X65225080Y-67849607D01*
X65150393Y-67774920D01*
X65052811Y-67734500D01*
X64947189Y-67734500D01*
X64849607Y-67774920D01*
X64774920Y-67849607D01*
X64734500Y-67947189D01*
X62983445Y-67947189D01*
X62952811Y-67934500D01*
X62847189Y-67934500D01*
X62749607Y-67974920D01*
X62674920Y-68049607D01*
X62634500Y-68147189D01*
X40500500Y-68147189D01*
X40500500Y-66997189D01*
X45334500Y-66997189D01*
X45334500Y-67102811D01*
X45374920Y-67200393D01*
X45449607Y-67275080D01*
X45547189Y-67315500D01*
X45547190Y-67315500D01*
X45652810Y-67315500D01*
X45652811Y-67315500D01*
X45750393Y-67275080D01*
X45825080Y-67200393D01*
X45865500Y-67102811D01*
X45865500Y-67022189D01*
X55059500Y-67022189D01*
X55059500Y-67127811D01*
X55099920Y-67225393D01*
X55174607Y-67300080D01*
X55272189Y-67340500D01*
X55272190Y-67340500D01*
X55377810Y-67340500D01*
X55377811Y-67340500D01*
X55475393Y-67300080D01*
X55550080Y-67225393D01*
X55559348Y-67203017D01*
X55583159Y-67179206D01*
X55616835Y-67179205D01*
X55633662Y-67193014D01*
X55633844Y-67192833D01*
X55635684Y-67194673D01*
X55636582Y-67195410D01*
X55636906Y-67195895D01*
X55636907Y-67195896D01*
X55636908Y-67195898D01*
X55711595Y-67270585D01*
X55809177Y-67311005D01*
X55809178Y-67311005D01*
X55914798Y-67311005D01*
X55914799Y-67311005D01*
X56012381Y-67270585D01*
X56087068Y-67195898D01*
X56107244Y-67147189D01*
X56448920Y-67147189D01*
X56448920Y-67252811D01*
X56489340Y-67350393D01*
X56564027Y-67425080D01*
X56661609Y-67465500D01*
X56661610Y-67465500D01*
X56767230Y-67465500D01*
X56767231Y-67465500D01*
X56811437Y-67447189D01*
X57134500Y-67447189D01*
X57134500Y-67552811D01*
X57174920Y-67650393D01*
X57249607Y-67725080D01*
X57347189Y-67765500D01*
X57347190Y-67765500D01*
X57452810Y-67765500D01*
X57452811Y-67765500D01*
X57550393Y-67725080D01*
X57625080Y-67650393D01*
X57626407Y-67647189D01*
X72234500Y-67647189D01*
X72234500Y-67752811D01*
X72274920Y-67850393D01*
X72349607Y-67925080D01*
X72447189Y-67965500D01*
X72447190Y-67965500D01*
X72552810Y-67965500D01*
X72552811Y-67965500D01*
X72650393Y-67925080D01*
X72725080Y-67850393D01*
X72765500Y-67752811D01*
X72765500Y-67647189D01*
X72725080Y-67549607D01*
X72650393Y-67474920D01*
X72583445Y-67447189D01*
X84134500Y-67447189D01*
X84134500Y-67552811D01*
X84174920Y-67650393D01*
X84249607Y-67725080D01*
X84347189Y-67765500D01*
X84347190Y-67765500D01*
X84452810Y-67765500D01*
X84452811Y-67765500D01*
X84550393Y-67725080D01*
X84625080Y-67650393D01*
X84665500Y-67552811D01*
X84665500Y-67447189D01*
X84625080Y-67349607D01*
X84550393Y-67274920D01*
X84452811Y-67234500D01*
X84347189Y-67234500D01*
X84249607Y-67274920D01*
X84174920Y-67349607D01*
X84134500Y-67447189D01*
X72583445Y-67447189D01*
X72552811Y-67434500D01*
X72447189Y-67434500D01*
X72349607Y-67474920D01*
X72274920Y-67549607D01*
X72234500Y-67647189D01*
X57626407Y-67647189D01*
X57665500Y-67552811D01*
X57665500Y-67447189D01*
X57625080Y-67349607D01*
X57550393Y-67274920D01*
X57452811Y-67234500D01*
X57347189Y-67234500D01*
X57249607Y-67274920D01*
X57174920Y-67349607D01*
X57134500Y-67447189D01*
X56811437Y-67447189D01*
X56864813Y-67425080D01*
X56939500Y-67350393D01*
X56979920Y-67252811D01*
X56979920Y-67147189D01*
X56939500Y-67049607D01*
X56864813Y-66974920D01*
X56767231Y-66934500D01*
X56661609Y-66934500D01*
X56564027Y-66974920D01*
X56489340Y-67049607D01*
X56448920Y-67147189D01*
X56107244Y-67147189D01*
X56127488Y-67098316D01*
X56127488Y-66992694D01*
X56087928Y-66897189D01*
X57834500Y-66897189D01*
X57834500Y-67002811D01*
X57874920Y-67100393D01*
X57949607Y-67175080D01*
X58047189Y-67215500D01*
X58047190Y-67215500D01*
X58152810Y-67215500D01*
X58152811Y-67215500D01*
X58250393Y-67175080D01*
X58325080Y-67100393D01*
X58365500Y-67002811D01*
X58365500Y-66897189D01*
X58325080Y-66799607D01*
X58250393Y-66724920D01*
X58183445Y-66697189D01*
X88584500Y-66697189D01*
X88584500Y-66802811D01*
X88624920Y-66900393D01*
X88699607Y-66975080D01*
X88797189Y-67015500D01*
X88797190Y-67015500D01*
X88902810Y-67015500D01*
X88902811Y-67015500D01*
X89000393Y-66975080D01*
X89075080Y-66900393D01*
X89115500Y-66802811D01*
X89115500Y-66697189D01*
X89075080Y-66599607D01*
X89000393Y-66524920D01*
X88902811Y-66484500D01*
X88797189Y-66484500D01*
X88699607Y-66524920D01*
X88624920Y-66599607D01*
X88584500Y-66697189D01*
X58183445Y-66697189D01*
X58152811Y-66684500D01*
X58047189Y-66684500D01*
X57949607Y-66724920D01*
X57874920Y-66799607D01*
X57834500Y-66897189D01*
X56087928Y-66897189D01*
X56087068Y-66895112D01*
X56012381Y-66820425D01*
X55914799Y-66780005D01*
X55809177Y-66780005D01*
X55761854Y-66799607D01*
X55711595Y-66820425D01*
X55636906Y-66895114D01*
X55627639Y-66917487D01*
X55603826Y-66941299D01*
X55570150Y-66941298D01*
X55553325Y-66927490D01*
X55553144Y-66927672D01*
X55551296Y-66925824D01*
X55550404Y-66925092D01*
X55550081Y-66924609D01*
X55550080Y-66924608D01*
X55550080Y-66924607D01*
X55475393Y-66849920D01*
X55377811Y-66809500D01*
X55272189Y-66809500D01*
X55174607Y-66849920D01*
X55099920Y-66924607D01*
X55059500Y-67022189D01*
X45865500Y-67022189D01*
X45865500Y-66997189D01*
X45825080Y-66899607D01*
X45750393Y-66824920D01*
X45652811Y-66784500D01*
X45547189Y-66784500D01*
X45449607Y-66824920D01*
X45374920Y-66899607D01*
X45334500Y-66997189D01*
X40500500Y-66997189D01*
X40500500Y-66147189D01*
X75084500Y-66147189D01*
X75084500Y-66252811D01*
X75124920Y-66350393D01*
X75199607Y-66425080D01*
X75297189Y-66465500D01*
X75297190Y-66465500D01*
X75402810Y-66465500D01*
X75402811Y-66465500D01*
X75500393Y-66425080D01*
X75575080Y-66350393D01*
X75615500Y-66252811D01*
X75615500Y-66147189D01*
X75575080Y-66049607D01*
X75500393Y-65974920D01*
X75402811Y-65934500D01*
X75297189Y-65934500D01*
X75199607Y-65974920D01*
X75124920Y-66049607D01*
X75084500Y-66147189D01*
X40500500Y-66147189D01*
X40500500Y-65447189D01*
X43384500Y-65447189D01*
X43384500Y-65552811D01*
X43424920Y-65650393D01*
X43499607Y-65725080D01*
X43597189Y-65765500D01*
X43597190Y-65765500D01*
X43702810Y-65765500D01*
X43702811Y-65765500D01*
X43800393Y-65725080D01*
X43875080Y-65650393D01*
X43897118Y-65597189D01*
X77684500Y-65597189D01*
X77684500Y-65702811D01*
X77724920Y-65800393D01*
X77799607Y-65875080D01*
X77897189Y-65915500D01*
X77897190Y-65915500D01*
X78002810Y-65915500D01*
X78002811Y-65915500D01*
X78100393Y-65875080D01*
X78175080Y-65800393D01*
X78215500Y-65702811D01*
X78215500Y-65597189D01*
X78175080Y-65499607D01*
X78100393Y-65424920D01*
X78002811Y-65384500D01*
X77897189Y-65384500D01*
X77799607Y-65424920D01*
X77724920Y-65499607D01*
X77684500Y-65597189D01*
X43897118Y-65597189D01*
X43915500Y-65552811D01*
X43915500Y-65447189D01*
X43875080Y-65349607D01*
X43800393Y-65274920D01*
X43702811Y-65234500D01*
X43597189Y-65234500D01*
X43499607Y-65274920D01*
X43424920Y-65349607D01*
X43384500Y-65447189D01*
X40500500Y-65447189D01*
X40500500Y-65097189D01*
X73234500Y-65097189D01*
X73234500Y-65202811D01*
X73274920Y-65300393D01*
X73349607Y-65375080D01*
X73447189Y-65415500D01*
X73447190Y-65415500D01*
X73552810Y-65415500D01*
X73552811Y-65415500D01*
X73650393Y-65375080D01*
X73725080Y-65300393D01*
X73765500Y-65202811D01*
X73765500Y-65097189D01*
X73725080Y-64999607D01*
X73650393Y-64924920D01*
X73552811Y-64884500D01*
X73447189Y-64884500D01*
X73349607Y-64924920D01*
X73274920Y-64999607D01*
X73234500Y-65097189D01*
X40500500Y-65097189D01*
X40500500Y-64347189D01*
X54134500Y-64347189D01*
X54134500Y-64452811D01*
X54174920Y-64550393D01*
X54249607Y-64625080D01*
X54347189Y-64665500D01*
X54347190Y-64665500D01*
X54452810Y-64665500D01*
X54452811Y-64665500D01*
X54550393Y-64625080D01*
X54625080Y-64550393D01*
X54665500Y-64452811D01*
X54665500Y-64347189D01*
X54644789Y-64297189D01*
X55434501Y-64297189D01*
X55434501Y-64402811D01*
X55474921Y-64500393D01*
X55549608Y-64575080D01*
X55647190Y-64615500D01*
X55647191Y-64615500D01*
X55752811Y-64615500D01*
X55752812Y-64615500D01*
X55850394Y-64575080D01*
X55925081Y-64500393D01*
X55965501Y-64402811D01*
X55965501Y-64297189D01*
X55925081Y-64199607D01*
X55850394Y-64124920D01*
X55752812Y-64084500D01*
X55647190Y-64084500D01*
X55549608Y-64124920D01*
X55474921Y-64199607D01*
X55434501Y-64297189D01*
X54644789Y-64297189D01*
X54625080Y-64249607D01*
X54550393Y-64174920D01*
X54452811Y-64134500D01*
X54347189Y-64134500D01*
X54249607Y-64174920D01*
X54174920Y-64249607D01*
X54134500Y-64347189D01*
X40500500Y-64347189D01*
X40500500Y-63497189D01*
X54434500Y-63497189D01*
X54434500Y-63602811D01*
X54474920Y-63700393D01*
X54549607Y-63775080D01*
X54647189Y-63815500D01*
X54647190Y-63815500D01*
X54752810Y-63815500D01*
X54752811Y-63815500D01*
X54850393Y-63775080D01*
X54925080Y-63700393D01*
X54965500Y-63602811D01*
X54965500Y-63597189D01*
X59034500Y-63597189D01*
X59034500Y-63702811D01*
X59074920Y-63800393D01*
X59149607Y-63875080D01*
X59247189Y-63915500D01*
X59247190Y-63915500D01*
X59352810Y-63915500D01*
X59352811Y-63915500D01*
X59450393Y-63875080D01*
X59525080Y-63800393D01*
X59547118Y-63747189D01*
X67084500Y-63747189D01*
X67084500Y-63852811D01*
X67124920Y-63950393D01*
X67199607Y-64025080D01*
X67297189Y-64065500D01*
X67297190Y-64065500D01*
X67402810Y-64065500D01*
X67402811Y-64065500D01*
X67500393Y-64025080D01*
X67575080Y-63950393D01*
X67615500Y-63852811D01*
X67615500Y-63747189D01*
X67575080Y-63649607D01*
X67500393Y-63574920D01*
X67402811Y-63534500D01*
X67297189Y-63534500D01*
X67199607Y-63574920D01*
X67124920Y-63649607D01*
X67084500Y-63747189D01*
X59547118Y-63747189D01*
X59565500Y-63702811D01*
X59565500Y-63597189D01*
X59525080Y-63499607D01*
X59450393Y-63424920D01*
X59352811Y-63384500D01*
X59247189Y-63384500D01*
X59149607Y-63424920D01*
X59074920Y-63499607D01*
X59034500Y-63597189D01*
X54965500Y-63597189D01*
X54965500Y-63497189D01*
X54925080Y-63399607D01*
X54850393Y-63324920D01*
X54752811Y-63284500D01*
X54647189Y-63284500D01*
X54549607Y-63324920D01*
X54474920Y-63399607D01*
X54434500Y-63497189D01*
X40500500Y-63497189D01*
X40500500Y-62897189D01*
X47334500Y-62897189D01*
X47334500Y-63002811D01*
X47374920Y-63100393D01*
X47449607Y-63175080D01*
X47547189Y-63215500D01*
X47547190Y-63215500D01*
X47652810Y-63215500D01*
X47652811Y-63215500D01*
X47750393Y-63175080D01*
X47825080Y-63100393D01*
X47865500Y-63002811D01*
X47865500Y-62897189D01*
X54034501Y-62897189D01*
X54034501Y-63002811D01*
X54074921Y-63100393D01*
X54149608Y-63175080D01*
X54247190Y-63215500D01*
X54247191Y-63215500D01*
X54352811Y-63215500D01*
X54352812Y-63215500D01*
X54450394Y-63175080D01*
X54525081Y-63100393D01*
X54565501Y-63002811D01*
X54565501Y-62897189D01*
X54525081Y-62799607D01*
X54450394Y-62724920D01*
X54352812Y-62684500D01*
X54247190Y-62684500D01*
X54149608Y-62724920D01*
X54074921Y-62799607D01*
X54034501Y-62897189D01*
X47865500Y-62897189D01*
X47825080Y-62799607D01*
X47750393Y-62724920D01*
X47652811Y-62684500D01*
X47547189Y-62684500D01*
X47449607Y-62724920D01*
X47374920Y-62799607D01*
X47334500Y-62897189D01*
X40500500Y-62897189D01*
X40500500Y-61997189D01*
X44234500Y-61997189D01*
X44234500Y-62102811D01*
X44274920Y-62200393D01*
X44349607Y-62275080D01*
X44447189Y-62315500D01*
X44447190Y-62315500D01*
X44552810Y-62315500D01*
X44552811Y-62315500D01*
X44650393Y-62275080D01*
X44725080Y-62200393D01*
X44765500Y-62102811D01*
X44765500Y-61997189D01*
X44744789Y-61947189D01*
X50234500Y-61947189D01*
X50234500Y-62052811D01*
X50274920Y-62150393D01*
X50349607Y-62225080D01*
X50447189Y-62265500D01*
X50447190Y-62265500D01*
X50552810Y-62265500D01*
X50552811Y-62265500D01*
X50650393Y-62225080D01*
X50653429Y-62222044D01*
X76122072Y-62222044D01*
X76122072Y-62327666D01*
X76162492Y-62425248D01*
X76237179Y-62499935D01*
X76334761Y-62540355D01*
X76334762Y-62540355D01*
X76440382Y-62540355D01*
X76440383Y-62540355D01*
X76537965Y-62499935D01*
X76612652Y-62425248D01*
X76653072Y-62327666D01*
X76653072Y-62222044D01*
X76612652Y-62124462D01*
X76537965Y-62049775D01*
X76440383Y-62009355D01*
X76334761Y-62009355D01*
X76237179Y-62049775D01*
X76162492Y-62124462D01*
X76122072Y-62222044D01*
X50653429Y-62222044D01*
X50725080Y-62150393D01*
X50765500Y-62052811D01*
X50765500Y-61947189D01*
X50725080Y-61849607D01*
X50650393Y-61774920D01*
X50552811Y-61734500D01*
X50447189Y-61734500D01*
X50349607Y-61774920D01*
X50274920Y-61849607D01*
X50234500Y-61947189D01*
X44744789Y-61947189D01*
X44725080Y-61899607D01*
X44650393Y-61824920D01*
X44552811Y-61784500D01*
X44447189Y-61784500D01*
X44349607Y-61824920D01*
X44274920Y-61899607D01*
X44234500Y-61997189D01*
X40500500Y-61997189D01*
X40500500Y-60934857D01*
X43529158Y-60934857D01*
X43529158Y-61040479D01*
X43569578Y-61138061D01*
X43644265Y-61212748D01*
X43741847Y-61253168D01*
X43741848Y-61253168D01*
X43847468Y-61253168D01*
X43847469Y-61253168D01*
X43945051Y-61212748D01*
X44019738Y-61138061D01*
X44060158Y-61040479D01*
X44060158Y-60934857D01*
X44019738Y-60837275D01*
X43945051Y-60762588D01*
X43847469Y-60722168D01*
X43741847Y-60722168D01*
X43644265Y-60762588D01*
X43569578Y-60837275D01*
X43529158Y-60934857D01*
X40500500Y-60934857D01*
X40500500Y-60447189D01*
X59734500Y-60447189D01*
X59734500Y-60552811D01*
X59774920Y-60650393D01*
X59849607Y-60725080D01*
X59947189Y-60765500D01*
X59947190Y-60765500D01*
X60052810Y-60765500D01*
X60052811Y-60765500D01*
X60150393Y-60725080D01*
X60225080Y-60650393D01*
X60265500Y-60552811D01*
X60265500Y-60447189D01*
X60225080Y-60349607D01*
X60150393Y-60274920D01*
X60052811Y-60234500D01*
X59947189Y-60234500D01*
X59849607Y-60274920D01*
X59774920Y-60349607D01*
X59734500Y-60447189D01*
X40500500Y-60447189D01*
X40500500Y-60097189D01*
X51434500Y-60097189D01*
X51434500Y-60202811D01*
X51474920Y-60300393D01*
X51549607Y-60375080D01*
X51647189Y-60415500D01*
X51647190Y-60415500D01*
X51752810Y-60415500D01*
X51752811Y-60415500D01*
X51850393Y-60375080D01*
X51925080Y-60300393D01*
X51965500Y-60202811D01*
X51965500Y-60197189D01*
X78234500Y-60197189D01*
X78234500Y-60302811D01*
X78274920Y-60400393D01*
X78349607Y-60475080D01*
X78447189Y-60515500D01*
X78447190Y-60515500D01*
X78552810Y-60515500D01*
X78552811Y-60515500D01*
X78650393Y-60475080D01*
X78725080Y-60400393D01*
X78765500Y-60302811D01*
X78765500Y-60197189D01*
X78725080Y-60099607D01*
X78650393Y-60024920D01*
X78552811Y-59984500D01*
X78447189Y-59984500D01*
X78349607Y-60024920D01*
X78274920Y-60099607D01*
X78234500Y-60197189D01*
X51965500Y-60197189D01*
X51965500Y-60097189D01*
X51925080Y-59999607D01*
X51850393Y-59924920D01*
X51752811Y-59884500D01*
X51647189Y-59884500D01*
X51549607Y-59924920D01*
X51474920Y-59999607D01*
X51434500Y-60097189D01*
X40500500Y-60097189D01*
X40500500Y-59397189D01*
X43584500Y-59397189D01*
X43584500Y-59502811D01*
X43624920Y-59600393D01*
X43699607Y-59675080D01*
X43797189Y-59715500D01*
X43797190Y-59715500D01*
X43902810Y-59715500D01*
X43902811Y-59715500D01*
X44000393Y-59675080D01*
X44075080Y-59600393D01*
X44115500Y-59502811D01*
X44115500Y-59397189D01*
X44075080Y-59299607D01*
X44000393Y-59224920D01*
X43902811Y-59184500D01*
X43797189Y-59184500D01*
X43699607Y-59224920D01*
X43624920Y-59299607D01*
X43584500Y-59397189D01*
X40500500Y-59397189D01*
X40500500Y-58947189D01*
X69734500Y-58947189D01*
X69734500Y-59052811D01*
X69774920Y-59150393D01*
X69849607Y-59225080D01*
X69947189Y-59265500D01*
X69947190Y-59265500D01*
X70052810Y-59265500D01*
X70052811Y-59265500D01*
X70150393Y-59225080D01*
X70225080Y-59150393D01*
X70265500Y-59052811D01*
X70265500Y-58947189D01*
X70225080Y-58849607D01*
X70150393Y-58774920D01*
X70052811Y-58734500D01*
X69947189Y-58734500D01*
X69849607Y-58774920D01*
X69774920Y-58849607D01*
X69734500Y-58947189D01*
X40500500Y-58947189D01*
X40500500Y-57522044D01*
X48846928Y-57522044D01*
X48846928Y-57627666D01*
X48887348Y-57725248D01*
X48962035Y-57799935D01*
X49059617Y-57840355D01*
X49059618Y-57840355D01*
X49165238Y-57840355D01*
X49165239Y-57840355D01*
X49262821Y-57799935D01*
X49265567Y-57797189D01*
X77234499Y-57797189D01*
X77234499Y-57902811D01*
X77274919Y-58000393D01*
X77349606Y-58075080D01*
X77447188Y-58115500D01*
X77447189Y-58115500D01*
X77552809Y-58115500D01*
X77552810Y-58115500D01*
X77650392Y-58075080D01*
X77725079Y-58000393D01*
X77765499Y-57902811D01*
X77765499Y-57797189D01*
X77725079Y-57699607D01*
X77722661Y-57697189D01*
X80634500Y-57697189D01*
X80634500Y-57802811D01*
X80674920Y-57900393D01*
X80749607Y-57975080D01*
X80847189Y-58015500D01*
X80847190Y-58015500D01*
X80952810Y-58015500D01*
X80952811Y-58015500D01*
X81050393Y-57975080D01*
X81125080Y-57900393D01*
X81165500Y-57802811D01*
X81165500Y-57697189D01*
X81125080Y-57599607D01*
X81050393Y-57524920D01*
X80952811Y-57484500D01*
X80847189Y-57484500D01*
X80749607Y-57524920D01*
X80674920Y-57599607D01*
X80634500Y-57697189D01*
X77722661Y-57697189D01*
X77650392Y-57624920D01*
X77552810Y-57584500D01*
X77447188Y-57584500D01*
X77349606Y-57624920D01*
X77274919Y-57699607D01*
X77234499Y-57797189D01*
X49265567Y-57797189D01*
X49337508Y-57725248D01*
X49377928Y-57627666D01*
X49377928Y-57522044D01*
X49337508Y-57424462D01*
X49262821Y-57349775D01*
X49165239Y-57309355D01*
X49059617Y-57309355D01*
X48962035Y-57349775D01*
X48887348Y-57424462D01*
X48846928Y-57522044D01*
X40500500Y-57522044D01*
X40500500Y-57097189D01*
X81234500Y-57097189D01*
X81234500Y-57202811D01*
X81274920Y-57300393D01*
X81349607Y-57375080D01*
X81447189Y-57415500D01*
X81447190Y-57415500D01*
X81552810Y-57415500D01*
X81552811Y-57415500D01*
X81650393Y-57375080D01*
X81725080Y-57300393D01*
X81747118Y-57247189D01*
X88034500Y-57247189D01*
X88034500Y-57352811D01*
X88074920Y-57450393D01*
X88149607Y-57525080D01*
X88247189Y-57565500D01*
X88247190Y-57565500D01*
X88352810Y-57565500D01*
X88352811Y-57565500D01*
X88450393Y-57525080D01*
X88525080Y-57450393D01*
X88565500Y-57352811D01*
X88565500Y-57247189D01*
X88525080Y-57149607D01*
X88450393Y-57074920D01*
X88352811Y-57034500D01*
X88247189Y-57034500D01*
X88149607Y-57074920D01*
X88074920Y-57149607D01*
X88034500Y-57247189D01*
X81747118Y-57247189D01*
X81765500Y-57202811D01*
X81765500Y-57123622D01*
X81778387Y-57092509D01*
X81809500Y-57079622D01*
X81888688Y-57079622D01*
X81888689Y-57079622D01*
X81986271Y-57039202D01*
X82060958Y-56964515D01*
X82101378Y-56866933D01*
X82101378Y-56761311D01*
X82060958Y-56663729D01*
X81986271Y-56589042D01*
X81888689Y-56548622D01*
X81783067Y-56548622D01*
X81685485Y-56589042D01*
X81610798Y-56663729D01*
X81570378Y-56761312D01*
X81570378Y-56840500D01*
X81557491Y-56871613D01*
X81526378Y-56884500D01*
X81447189Y-56884500D01*
X81349607Y-56924920D01*
X81274920Y-56999607D01*
X81234500Y-57097189D01*
X40500500Y-57097189D01*
X40500500Y-56047189D01*
X53834500Y-56047189D01*
X53834500Y-56152811D01*
X53874920Y-56250393D01*
X53949607Y-56325080D01*
X54047189Y-56365500D01*
X54047190Y-56365500D01*
X54152810Y-56365500D01*
X54152811Y-56365500D01*
X54250393Y-56325080D01*
X54285469Y-56290004D01*
X62384830Y-56290004D01*
X62384830Y-56395626D01*
X62425250Y-56493208D01*
X62499937Y-56567895D01*
X62597519Y-56608315D01*
X62597520Y-56608315D01*
X62703140Y-56608315D01*
X62703141Y-56608315D01*
X62800723Y-56567895D01*
X62875410Y-56493208D01*
X62915830Y-56395626D01*
X62915830Y-56290004D01*
X62875410Y-56192422D01*
X62800723Y-56117735D01*
X62703141Y-56077315D01*
X62597519Y-56077315D01*
X62499937Y-56117735D01*
X62425250Y-56192422D01*
X62384830Y-56290004D01*
X54285469Y-56290004D01*
X54325080Y-56250393D01*
X54365500Y-56152811D01*
X54365500Y-56047189D01*
X54325080Y-55949607D01*
X54250393Y-55874920D01*
X54152811Y-55834500D01*
X54047189Y-55834500D01*
X53949607Y-55874920D01*
X53874920Y-55949607D01*
X53834500Y-56047189D01*
X40500500Y-56047189D01*
X40500500Y-55497188D01*
X82634500Y-55497188D01*
X82634500Y-55602810D01*
X82674920Y-55700392D01*
X82749607Y-55775079D01*
X82847189Y-55815499D01*
X82847190Y-55815499D01*
X82952810Y-55815499D01*
X82952811Y-55815499D01*
X83050393Y-55775079D01*
X83125080Y-55700392D01*
X83165500Y-55602810D01*
X83165500Y-55497188D01*
X83125080Y-55399606D01*
X83050393Y-55324919D01*
X82952811Y-55284499D01*
X82847189Y-55284499D01*
X82749607Y-55324919D01*
X82674920Y-55399606D01*
X82634500Y-55497188D01*
X40500500Y-55497188D01*
X40500500Y-53947189D01*
X42534500Y-53947189D01*
X42534500Y-54052811D01*
X42574920Y-54150393D01*
X42649607Y-54225080D01*
X42747189Y-54265500D01*
X42747190Y-54265500D01*
X42852810Y-54265500D01*
X42852811Y-54265500D01*
X42950393Y-54225080D01*
X43025080Y-54150393D01*
X43065500Y-54052811D01*
X43065500Y-53947189D01*
X66234500Y-53947189D01*
X66234500Y-54052811D01*
X66274920Y-54150393D01*
X66349607Y-54225080D01*
X66447189Y-54265500D01*
X66447190Y-54265500D01*
X66552810Y-54265500D01*
X66552811Y-54265500D01*
X66650393Y-54225080D01*
X66725080Y-54150393D01*
X66765500Y-54052811D01*
X66765500Y-53947189D01*
X66725080Y-53849607D01*
X66650393Y-53774920D01*
X66552811Y-53734500D01*
X66447189Y-53734500D01*
X66349607Y-53774920D01*
X66274920Y-53849607D01*
X66234500Y-53947189D01*
X43065500Y-53947189D01*
X43025080Y-53849607D01*
X42950393Y-53774920D01*
X42852811Y-53734500D01*
X42747189Y-53734500D01*
X42649607Y-53774920D01*
X42574920Y-53849607D01*
X42534500Y-53947189D01*
X40500500Y-53947189D01*
X40500500Y-52991134D01*
X76528260Y-52991134D01*
X76528260Y-53096756D01*
X76568680Y-53194338D01*
X76643367Y-53269025D01*
X76740949Y-53309445D01*
X76740950Y-53309445D01*
X76846570Y-53309445D01*
X76846571Y-53309445D01*
X76944153Y-53269025D01*
X77018840Y-53194338D01*
X77059260Y-53096756D01*
X77059260Y-52991134D01*
X77018840Y-52893552D01*
X76944153Y-52818865D01*
X76846571Y-52778445D01*
X76740949Y-52778445D01*
X76643367Y-52818865D01*
X76568680Y-52893552D01*
X76528260Y-52991134D01*
X40500500Y-52991134D01*
X40500500Y-52447189D01*
X56234500Y-52447189D01*
X56234500Y-52552811D01*
X56274920Y-52650393D01*
X56349607Y-52725080D01*
X56447189Y-52765500D01*
X56447190Y-52765500D01*
X56552810Y-52765500D01*
X56552811Y-52765500D01*
X56650393Y-52725080D01*
X56725080Y-52650393D01*
X56765500Y-52552811D01*
X56765500Y-52447189D01*
X56725080Y-52349607D01*
X56650393Y-52274920D01*
X56552811Y-52234500D01*
X56447189Y-52234500D01*
X56349607Y-52274920D01*
X56274920Y-52349607D01*
X56234500Y-52447189D01*
X40500500Y-52447189D01*
X40500500Y-51947189D01*
X45234500Y-51947189D01*
X45234500Y-52052811D01*
X45274920Y-52150393D01*
X45349607Y-52225080D01*
X45447189Y-52265500D01*
X45447190Y-52265500D01*
X45552810Y-52265500D01*
X45552811Y-52265500D01*
X45650393Y-52225080D01*
X45725080Y-52150393D01*
X45765500Y-52052811D01*
X45765500Y-51947189D01*
X84234500Y-51947189D01*
X84234500Y-52052811D01*
X84274920Y-52150393D01*
X84349607Y-52225080D01*
X84447189Y-52265500D01*
X84447190Y-52265500D01*
X84552810Y-52265500D01*
X84552811Y-52265500D01*
X84650393Y-52225080D01*
X84725080Y-52150393D01*
X84765500Y-52052811D01*
X84765500Y-51947189D01*
X84725080Y-51849607D01*
X84650393Y-51774920D01*
X84552811Y-51734500D01*
X84447189Y-51734500D01*
X84349607Y-51774920D01*
X84274920Y-51849607D01*
X84234500Y-51947189D01*
X45765500Y-51947189D01*
X45725080Y-51849607D01*
X45650393Y-51774920D01*
X45552811Y-51734500D01*
X45447189Y-51734500D01*
X45349607Y-51774920D01*
X45274920Y-51849607D01*
X45234500Y-51947189D01*
X40500500Y-51947189D01*
X40500500Y-50097189D01*
X49034500Y-50097189D01*
X49034500Y-50202811D01*
X49074920Y-50300393D01*
X49149607Y-50375080D01*
X49247189Y-50415500D01*
X49247190Y-50415500D01*
X49352810Y-50415500D01*
X49352811Y-50415500D01*
X49450393Y-50375080D01*
X49478284Y-50347189D01*
X68834500Y-50347189D01*
X68834500Y-50452811D01*
X68874920Y-50550393D01*
X68949607Y-50625080D01*
X69047189Y-50665500D01*
X69047190Y-50665500D01*
X69152810Y-50665500D01*
X69152811Y-50665500D01*
X69250393Y-50625080D01*
X69278284Y-50597189D01*
X76534500Y-50597189D01*
X76534500Y-50702811D01*
X76574920Y-50800393D01*
X76649607Y-50875080D01*
X76747189Y-50915500D01*
X76747190Y-50915500D01*
X76852810Y-50915500D01*
X76852811Y-50915500D01*
X76950393Y-50875080D01*
X77025080Y-50800393D01*
X77065500Y-50702811D01*
X77065500Y-50597189D01*
X77025080Y-50499607D01*
X76950393Y-50424920D01*
X76852811Y-50384500D01*
X76747189Y-50384500D01*
X76649607Y-50424920D01*
X76574920Y-50499607D01*
X76534500Y-50597189D01*
X69278284Y-50597189D01*
X69325080Y-50550393D01*
X69365500Y-50452811D01*
X69365500Y-50347189D01*
X69325080Y-50249607D01*
X69250393Y-50174920D01*
X69152811Y-50134500D01*
X69047189Y-50134500D01*
X68949607Y-50174920D01*
X68874920Y-50249607D01*
X68834500Y-50347189D01*
X49478284Y-50347189D01*
X49525080Y-50300393D01*
X49565500Y-50202811D01*
X49565500Y-50122044D01*
X80246928Y-50122044D01*
X80246928Y-50227666D01*
X80287348Y-50325248D01*
X80362035Y-50399935D01*
X80459617Y-50440355D01*
X80459618Y-50440355D01*
X80565238Y-50440355D01*
X80565239Y-50440355D01*
X80662821Y-50399935D01*
X80737508Y-50325248D01*
X80777928Y-50227666D01*
X80777928Y-50122044D01*
X80737508Y-50024462D01*
X80662821Y-49949775D01*
X80565239Y-49909355D01*
X80459617Y-49909355D01*
X80362035Y-49949775D01*
X80287348Y-50024462D01*
X80246928Y-50122044D01*
X49565500Y-50122044D01*
X49565500Y-50097189D01*
X49525080Y-49999607D01*
X49450393Y-49924920D01*
X49352811Y-49884500D01*
X49247189Y-49884500D01*
X49149607Y-49924920D01*
X49074920Y-49999607D01*
X49034500Y-50097189D01*
X40500500Y-50097189D01*
X40500500Y-49497189D01*
X75434500Y-49497189D01*
X75434500Y-49602811D01*
X75474920Y-49700393D01*
X75549607Y-49775080D01*
X75647189Y-49815500D01*
X75647190Y-49815500D01*
X75752810Y-49815500D01*
X75752811Y-49815500D01*
X75850393Y-49775080D01*
X75925080Y-49700393D01*
X75965500Y-49602811D01*
X75965500Y-49497189D01*
X75925080Y-49399607D01*
X75850393Y-49324920D01*
X75752811Y-49284500D01*
X75647189Y-49284500D01*
X75549607Y-49324920D01*
X75474920Y-49399607D01*
X75434500Y-49497189D01*
X40500500Y-49497189D01*
X40500500Y-49097189D01*
X49834501Y-49097189D01*
X49834501Y-49202811D01*
X49874921Y-49300393D01*
X49949608Y-49375080D01*
X50047190Y-49415500D01*
X50047191Y-49415500D01*
X50152811Y-49415500D01*
X50152812Y-49415500D01*
X50250394Y-49375080D01*
X50325081Y-49300393D01*
X50347119Y-49247189D01*
X87884500Y-49247189D01*
X87884500Y-49352811D01*
X87924920Y-49450393D01*
X87999607Y-49525080D01*
X88097189Y-49565500D01*
X88097190Y-49565500D01*
X88202810Y-49565500D01*
X88202811Y-49565500D01*
X88300393Y-49525080D01*
X88375080Y-49450393D01*
X88415500Y-49352811D01*
X88415500Y-49247189D01*
X88375080Y-49149607D01*
X88300393Y-49074920D01*
X88202811Y-49034500D01*
X88097189Y-49034500D01*
X87999607Y-49074920D01*
X87924920Y-49149607D01*
X87884500Y-49247189D01*
X50347119Y-49247189D01*
X50365501Y-49202811D01*
X50365501Y-49097189D01*
X50325081Y-48999607D01*
X50250394Y-48924920D01*
X50152812Y-48884500D01*
X50047190Y-48884500D01*
X49949608Y-48924920D01*
X49874921Y-48999607D01*
X49834501Y-49097189D01*
X40500500Y-49097189D01*
X40500500Y-48847189D01*
X72134500Y-48847189D01*
X72134500Y-48952811D01*
X72174920Y-49050393D01*
X72249607Y-49125080D01*
X72347189Y-49165500D01*
X72347190Y-49165500D01*
X72452810Y-49165500D01*
X72452811Y-49165500D01*
X72550393Y-49125080D01*
X72625080Y-49050393D01*
X72665500Y-48952811D01*
X72665500Y-48847189D01*
X72625080Y-48749607D01*
X72550393Y-48674920D01*
X72452811Y-48634500D01*
X72347189Y-48634500D01*
X72249607Y-48674920D01*
X72174920Y-48749607D01*
X72134500Y-48847189D01*
X40500500Y-48847189D01*
X40500500Y-48441385D01*
X71143919Y-48441385D01*
X71143919Y-48547007D01*
X71184339Y-48644589D01*
X71259026Y-48719276D01*
X71356608Y-48759696D01*
X71356609Y-48759696D01*
X71462229Y-48759696D01*
X71462230Y-48759696D01*
X71559812Y-48719276D01*
X71634499Y-48644589D01*
X71674919Y-48547007D01*
X71674919Y-48441385D01*
X71634499Y-48343803D01*
X71559812Y-48269116D01*
X71462230Y-48228696D01*
X71356608Y-48228696D01*
X71259026Y-48269116D01*
X71184339Y-48343803D01*
X71143919Y-48441385D01*
X40500500Y-48441385D01*
X40500500Y-47438612D01*
X49743077Y-47438612D01*
X49743077Y-47544234D01*
X49783497Y-47641816D01*
X49858184Y-47716503D01*
X49955766Y-47756923D01*
X49955767Y-47756923D01*
X50061387Y-47756923D01*
X50061388Y-47756923D01*
X50158970Y-47716503D01*
X50233657Y-47641816D01*
X50274077Y-47544234D01*
X50274077Y-47438612D01*
X50233657Y-47341030D01*
X50158970Y-47266343D01*
X50112728Y-47247189D01*
X60484500Y-47247189D01*
X60484500Y-47352811D01*
X60524920Y-47450393D01*
X60599607Y-47525080D01*
X60697189Y-47565500D01*
X60697190Y-47565500D01*
X60802810Y-47565500D01*
X60802811Y-47565500D01*
X60877386Y-47534610D01*
X68097078Y-47534610D01*
X68097078Y-47640232D01*
X68137498Y-47737814D01*
X68212185Y-47812501D01*
X68309767Y-47852921D01*
X68309768Y-47852921D01*
X68415388Y-47852921D01*
X68415389Y-47852921D01*
X68512971Y-47812501D01*
X68587658Y-47737814D01*
X68604486Y-47697189D01*
X78034500Y-47697189D01*
X78034500Y-47802811D01*
X78074920Y-47900393D01*
X78149607Y-47975080D01*
X78247189Y-48015500D01*
X78247190Y-48015500D01*
X78352810Y-48015500D01*
X78352811Y-48015500D01*
X78450393Y-47975080D01*
X78525080Y-47900393D01*
X78565500Y-47802811D01*
X78565500Y-47697189D01*
X78525080Y-47599607D01*
X78450393Y-47524920D01*
X78352811Y-47484500D01*
X78247189Y-47484500D01*
X78149607Y-47524920D01*
X78074920Y-47599607D01*
X78034500Y-47697189D01*
X68604486Y-47697189D01*
X68628078Y-47640232D01*
X68628078Y-47534610D01*
X68587658Y-47437028D01*
X68512971Y-47362341D01*
X68415389Y-47321921D01*
X68309767Y-47321921D01*
X68212185Y-47362341D01*
X68137498Y-47437028D01*
X68097078Y-47534610D01*
X60877386Y-47534610D01*
X60900393Y-47525080D01*
X60975080Y-47450393D01*
X61015500Y-47352811D01*
X61015500Y-47247189D01*
X60975080Y-47149607D01*
X60900393Y-47074920D01*
X60802811Y-47034500D01*
X60697189Y-47034500D01*
X60599607Y-47074920D01*
X60524920Y-47149607D01*
X60484500Y-47247189D01*
X50112728Y-47247189D01*
X50061388Y-47225923D01*
X49955766Y-47225923D01*
X49858184Y-47266343D01*
X49783497Y-47341030D01*
X49743077Y-47438612D01*
X40500500Y-47438612D01*
X40500500Y-47032960D01*
X70534500Y-47032960D01*
X70534500Y-47138582D01*
X70574920Y-47236164D01*
X70649607Y-47310851D01*
X70747189Y-47351271D01*
X70747190Y-47351271D01*
X70852810Y-47351271D01*
X70852811Y-47351271D01*
X70950393Y-47310851D01*
X71025080Y-47236164D01*
X71065500Y-47138582D01*
X71065500Y-47097189D01*
X77234500Y-47097189D01*
X77234500Y-47202811D01*
X77274920Y-47300393D01*
X77349607Y-47375080D01*
X77447189Y-47415500D01*
X77447190Y-47415500D01*
X77552810Y-47415500D01*
X77552811Y-47415500D01*
X77650393Y-47375080D01*
X77725080Y-47300393D01*
X77765500Y-47202811D01*
X77765500Y-47097189D01*
X77725080Y-46999607D01*
X77650393Y-46924920D01*
X77552811Y-46884500D01*
X77447189Y-46884500D01*
X77349607Y-46924920D01*
X77274920Y-46999607D01*
X77234500Y-47097189D01*
X71065500Y-47097189D01*
X71065500Y-47032960D01*
X71025080Y-46935378D01*
X70950393Y-46860691D01*
X70852811Y-46820271D01*
X70747189Y-46820271D01*
X70649607Y-46860691D01*
X70574920Y-46935378D01*
X70534500Y-47032960D01*
X40500500Y-47032960D01*
X40500500Y-46497189D01*
X76834500Y-46497189D01*
X76834500Y-46602811D01*
X76874920Y-46700393D01*
X76949607Y-46775080D01*
X77047189Y-46815500D01*
X77047190Y-46815500D01*
X77152810Y-46815500D01*
X77152811Y-46815500D01*
X77250393Y-46775080D01*
X77325080Y-46700393D01*
X77365500Y-46602811D01*
X77365500Y-46497189D01*
X77325080Y-46399607D01*
X77250393Y-46324920D01*
X77152811Y-46284500D01*
X77047189Y-46284500D01*
X76949607Y-46324920D01*
X76874920Y-46399607D01*
X76834500Y-46497189D01*
X40500500Y-46497189D01*
X40500500Y-46147189D01*
X72534500Y-46147189D01*
X72534500Y-46252811D01*
X72574920Y-46350393D01*
X72649607Y-46425080D01*
X72747189Y-46465500D01*
X72747190Y-46465500D01*
X72852810Y-46465500D01*
X72852811Y-46465500D01*
X72950393Y-46425080D01*
X73025080Y-46350393D01*
X73065500Y-46252811D01*
X73065500Y-46147189D01*
X73025080Y-46049607D01*
X72950393Y-45974920D01*
X72852811Y-45934500D01*
X72747189Y-45934500D01*
X72649607Y-45974920D01*
X72574920Y-46049607D01*
X72534500Y-46147189D01*
X40500500Y-46147189D01*
X40500500Y-45472334D01*
X53646928Y-45472334D01*
X53646928Y-45577956D01*
X53687348Y-45675538D01*
X53762035Y-45750225D01*
X53859617Y-45790645D01*
X53859618Y-45790645D01*
X53965238Y-45790645D01*
X53965239Y-45790645D01*
X54062821Y-45750225D01*
X54137508Y-45675538D01*
X54177928Y-45577956D01*
X54177928Y-45472334D01*
X54137508Y-45374752D01*
X54062821Y-45300065D01*
X54025510Y-45284610D01*
X71147079Y-45284610D01*
X71147079Y-45390232D01*
X71187499Y-45487814D01*
X71262186Y-45562501D01*
X71359768Y-45602921D01*
X71359769Y-45602921D01*
X71465389Y-45602921D01*
X71465390Y-45602921D01*
X71562972Y-45562501D01*
X71637659Y-45487814D01*
X71678079Y-45390232D01*
X71678079Y-45284610D01*
X71637659Y-45187028D01*
X71562972Y-45112341D01*
X71465390Y-45071921D01*
X71359768Y-45071921D01*
X71262186Y-45112341D01*
X71187499Y-45187028D01*
X71147079Y-45284610D01*
X54025510Y-45284610D01*
X53965239Y-45259645D01*
X53859617Y-45259645D01*
X53762035Y-45300065D01*
X53687348Y-45374752D01*
X53646928Y-45472334D01*
X40500500Y-45472334D01*
X40500500Y-44597189D01*
X75184500Y-44597189D01*
X75184500Y-44702811D01*
X75224920Y-44800393D01*
X75299607Y-44875080D01*
X75397189Y-44915500D01*
X75397190Y-44915500D01*
X75502810Y-44915500D01*
X75502811Y-44915500D01*
X75600393Y-44875080D01*
X75675080Y-44800393D01*
X75715500Y-44702811D01*
X75715500Y-44597189D01*
X75675080Y-44499607D01*
X75600393Y-44424920D01*
X75502811Y-44384500D01*
X75397189Y-44384500D01*
X75299607Y-44424920D01*
X75224920Y-44499607D01*
X75184500Y-44597189D01*
X40500500Y-44597189D01*
X40500500Y-43484762D01*
X55859355Y-43484762D01*
X55859355Y-43590384D01*
X55899775Y-43687966D01*
X55974462Y-43762653D01*
X56072044Y-43803073D01*
X56072045Y-43803073D01*
X56177665Y-43803073D01*
X56177666Y-43803073D01*
X56275248Y-43762653D01*
X56290712Y-43747189D01*
X63734500Y-43747189D01*
X63734500Y-43852811D01*
X63774920Y-43950393D01*
X63849607Y-44025080D01*
X63947189Y-44065500D01*
X63947190Y-44065500D01*
X64052810Y-44065500D01*
X64052811Y-44065500D01*
X64150393Y-44025080D01*
X64225080Y-43950393D01*
X64265500Y-43852811D01*
X64265500Y-43747189D01*
X64225080Y-43649607D01*
X64150393Y-43574920D01*
X64052811Y-43534500D01*
X63947189Y-43534500D01*
X63849607Y-43574920D01*
X63774920Y-43649607D01*
X63734500Y-43747189D01*
X56290712Y-43747189D01*
X56349935Y-43687966D01*
X56390355Y-43590384D01*
X56390355Y-43484762D01*
X56374792Y-43447189D01*
X68034500Y-43447189D01*
X68034500Y-43552811D01*
X68074920Y-43650393D01*
X68149607Y-43725080D01*
X68247189Y-43765500D01*
X68247190Y-43765500D01*
X68352810Y-43765500D01*
X68352811Y-43765500D01*
X68450393Y-43725080D01*
X68525080Y-43650393D01*
X68565500Y-43552811D01*
X68565500Y-43497189D01*
X69934500Y-43497189D01*
X69934500Y-43602811D01*
X69974920Y-43700393D01*
X70049607Y-43775080D01*
X70147189Y-43815500D01*
X70147190Y-43815500D01*
X70252810Y-43815500D01*
X70252811Y-43815500D01*
X70350393Y-43775080D01*
X70359388Y-43766084D01*
X70390500Y-43753198D01*
X70421613Y-43766085D01*
X70434500Y-43797198D01*
X70434500Y-43902811D01*
X70474920Y-44000393D01*
X70549607Y-44075080D01*
X70647189Y-44115500D01*
X70647190Y-44115500D01*
X70752810Y-44115500D01*
X70752811Y-44115500D01*
X70797017Y-44097189D01*
X74234500Y-44097189D01*
X74234500Y-44202811D01*
X74274920Y-44300393D01*
X74349607Y-44375080D01*
X74447189Y-44415500D01*
X74447190Y-44415500D01*
X74552810Y-44415500D01*
X74552811Y-44415500D01*
X74650393Y-44375080D01*
X74725080Y-44300393D01*
X74765500Y-44202811D01*
X74765500Y-44097189D01*
X74725080Y-43999607D01*
X74650393Y-43924920D01*
X74552811Y-43884500D01*
X74447189Y-43884500D01*
X74349607Y-43924920D01*
X74274920Y-43999607D01*
X74234500Y-44097189D01*
X70797017Y-44097189D01*
X70850393Y-44075080D01*
X70925080Y-44000393D01*
X70965500Y-43902811D01*
X70965500Y-43797189D01*
X70925080Y-43699607D01*
X70850393Y-43624920D01*
X70752811Y-43584500D01*
X70647189Y-43584500D01*
X70549607Y-43624920D01*
X70540611Y-43633915D01*
X70509500Y-43646802D01*
X70478387Y-43633915D01*
X70465500Y-43602802D01*
X70465500Y-43497190D01*
X70465500Y-43497189D01*
X70425080Y-43399607D01*
X70350393Y-43324920D01*
X70252811Y-43284500D01*
X70147189Y-43284500D01*
X70049607Y-43324920D01*
X69974920Y-43399607D01*
X69934500Y-43497189D01*
X68565500Y-43497189D01*
X68565500Y-43447189D01*
X68525080Y-43349607D01*
X68450393Y-43274920D01*
X68352811Y-43234500D01*
X68247189Y-43234500D01*
X68149607Y-43274920D01*
X68074920Y-43349607D01*
X68034500Y-43447189D01*
X56374792Y-43447189D01*
X56349935Y-43387180D01*
X56275248Y-43312493D01*
X56177666Y-43272073D01*
X56072044Y-43272073D01*
X55974462Y-43312493D01*
X55899775Y-43387180D01*
X55859355Y-43484762D01*
X40500500Y-43484762D01*
X40500500Y-42296847D01*
X82824466Y-42296847D01*
X82824466Y-42402469D01*
X82864886Y-42500051D01*
X82939573Y-42574738D01*
X83037155Y-42615158D01*
X83037156Y-42615158D01*
X83142776Y-42615158D01*
X83142777Y-42615158D01*
X83240359Y-42574738D01*
X83315046Y-42500051D01*
X83355466Y-42402469D01*
X83355466Y-42296847D01*
X83315046Y-42199265D01*
X83240359Y-42124578D01*
X83142777Y-42084158D01*
X83037155Y-42084158D01*
X82939573Y-42124578D01*
X82864886Y-42199265D01*
X82824466Y-42296847D01*
X40500500Y-42296847D01*
X40500500Y-41847189D01*
X53234500Y-41847189D01*
X53234500Y-41952811D01*
X53274920Y-42050393D01*
X53349607Y-42125080D01*
X53447189Y-42165500D01*
X53447190Y-42165500D01*
X53552810Y-42165500D01*
X53552811Y-42165500D01*
X53650393Y-42125080D01*
X53725080Y-42050393D01*
X53765500Y-41952811D01*
X53765500Y-41847189D01*
X53725080Y-41749607D01*
X53650393Y-41674920D01*
X53552811Y-41634500D01*
X53447189Y-41634500D01*
X53349607Y-41674920D01*
X53274920Y-41749607D01*
X53234500Y-41847189D01*
X40500500Y-41847189D01*
X40500500Y-41497189D01*
X48904500Y-41497189D01*
X48904500Y-41602811D01*
X48944920Y-41700393D01*
X49019607Y-41775080D01*
X49117189Y-41815500D01*
X49117190Y-41815500D01*
X49222810Y-41815500D01*
X49222811Y-41815500D01*
X49320393Y-41775080D01*
X49395080Y-41700393D01*
X49435500Y-41602811D01*
X49435500Y-41497189D01*
X49395080Y-41399607D01*
X49320393Y-41324920D01*
X49222811Y-41284500D01*
X49117189Y-41284500D01*
X49019607Y-41324920D01*
X48944920Y-41399607D01*
X48904500Y-41497189D01*
X40500500Y-41497189D01*
X40500500Y-40997189D01*
X47864500Y-40997189D01*
X47864500Y-41102811D01*
X47904920Y-41200393D01*
X47979607Y-41275080D01*
X48077189Y-41315500D01*
X48077190Y-41315500D01*
X48182810Y-41315500D01*
X48182811Y-41315500D01*
X48280393Y-41275080D01*
X48355080Y-41200393D01*
X48395500Y-41102811D01*
X48395500Y-40997189D01*
X48355080Y-40899607D01*
X48280393Y-40824920D01*
X48182811Y-40784500D01*
X48077189Y-40784500D01*
X47979607Y-40824920D01*
X47904920Y-40899607D01*
X47864500Y-40997189D01*
X40500500Y-40997189D01*
X40500500Y-40759321D01*
X76240135Y-40759321D01*
X76240135Y-40864943D01*
X76280555Y-40962525D01*
X76355242Y-41037212D01*
X76452824Y-41077632D01*
X76452825Y-41077632D01*
X76558445Y-41077632D01*
X76558446Y-41077632D01*
X76656028Y-41037212D01*
X76730715Y-40962525D01*
X76771135Y-40864943D01*
X76771135Y-40847189D01*
X78634500Y-40847189D01*
X78634500Y-40952811D01*
X78674920Y-41050393D01*
X78749607Y-41125080D01*
X78847189Y-41165500D01*
X78847190Y-41165500D01*
X78952810Y-41165500D01*
X78952811Y-41165500D01*
X79050393Y-41125080D01*
X79125080Y-41050393D01*
X79165500Y-40952811D01*
X79165500Y-40847189D01*
X79125080Y-40749607D01*
X79050393Y-40674920D01*
X78952811Y-40634500D01*
X78847189Y-40634500D01*
X78749607Y-40674920D01*
X78674920Y-40749607D01*
X78634500Y-40847189D01*
X76771135Y-40847189D01*
X76771135Y-40759321D01*
X76730715Y-40661739D01*
X76656028Y-40587052D01*
X76558446Y-40546632D01*
X76452824Y-40546632D01*
X76355242Y-40587052D01*
X76280555Y-40661739D01*
X76240135Y-40759321D01*
X40500500Y-40759321D01*
X40500500Y-40347189D01*
X58234500Y-40347189D01*
X58234500Y-40452811D01*
X58274920Y-40550393D01*
X58349607Y-40625080D01*
X58447189Y-40665500D01*
X58447190Y-40665500D01*
X58552810Y-40665500D01*
X58552811Y-40665500D01*
X58650393Y-40625080D01*
X58725080Y-40550393D01*
X58765500Y-40452811D01*
X58765500Y-40347189D01*
X58725080Y-40249607D01*
X58650393Y-40174920D01*
X58552811Y-40134500D01*
X58447189Y-40134500D01*
X58349607Y-40174920D01*
X58274920Y-40249607D01*
X58234500Y-40347189D01*
X40500500Y-40347189D01*
X40500500Y-39997189D01*
X49934500Y-39997189D01*
X49934500Y-40102811D01*
X49974920Y-40200393D01*
X50049607Y-40275080D01*
X50147189Y-40315500D01*
X50147190Y-40315500D01*
X50252810Y-40315500D01*
X50252811Y-40315500D01*
X50350393Y-40275080D01*
X50425080Y-40200393D01*
X50465500Y-40102811D01*
X50465500Y-39997189D01*
X50425080Y-39899607D01*
X50350393Y-39824920D01*
X50252811Y-39784500D01*
X50147189Y-39784500D01*
X50049607Y-39824920D01*
X49974920Y-39899607D01*
X49934500Y-39997189D01*
X40500500Y-39997189D01*
X40500500Y-39497189D01*
X46864500Y-39497189D01*
X46864500Y-39602811D01*
X46904920Y-39700393D01*
X46979607Y-39775080D01*
X47077189Y-39815500D01*
X47077190Y-39815500D01*
X47182810Y-39815500D01*
X47182811Y-39815500D01*
X47280393Y-39775080D01*
X47355080Y-39700393D01*
X47356407Y-39697189D01*
X58984500Y-39697189D01*
X58984500Y-39802811D01*
X59024920Y-39900393D01*
X59099607Y-39975080D01*
X59197189Y-40015500D01*
X59197190Y-40015500D01*
X59302810Y-40015500D01*
X59302811Y-40015500D01*
X59384884Y-39981504D01*
X75320896Y-39981504D01*
X75320896Y-40087126D01*
X75361316Y-40184708D01*
X75436003Y-40259395D01*
X75533585Y-40299815D01*
X75533586Y-40299815D01*
X75639206Y-40299815D01*
X75639207Y-40299815D01*
X75736789Y-40259395D01*
X75811476Y-40184708D01*
X75851896Y-40087126D01*
X75851896Y-39981504D01*
X75811476Y-39883922D01*
X75736789Y-39809235D01*
X75639207Y-39768815D01*
X75533585Y-39768815D01*
X75436003Y-39809235D01*
X75361316Y-39883922D01*
X75320896Y-39981504D01*
X59384884Y-39981504D01*
X59400393Y-39975080D01*
X59475080Y-39900393D01*
X59515500Y-39802811D01*
X59515500Y-39697189D01*
X59475080Y-39599607D01*
X59400393Y-39524920D01*
X59302811Y-39484500D01*
X59197189Y-39484500D01*
X59099607Y-39524920D01*
X59024920Y-39599607D01*
X58984500Y-39697189D01*
X47356407Y-39697189D01*
X47395500Y-39602811D01*
X47395500Y-39497189D01*
X47355080Y-39399607D01*
X47280393Y-39324920D01*
X47182811Y-39284500D01*
X47077189Y-39284500D01*
X46979607Y-39324920D01*
X46904920Y-39399607D01*
X46864500Y-39497189D01*
X40500500Y-39497189D01*
X40500500Y-39172189D01*
X53659500Y-39172189D01*
X53659500Y-39277811D01*
X53699920Y-39375393D01*
X53774607Y-39450080D01*
X53872189Y-39490500D01*
X53872190Y-39490500D01*
X53977810Y-39490500D01*
X53977811Y-39490500D01*
X54075393Y-39450080D01*
X54150080Y-39375393D01*
X54190500Y-39277811D01*
X54190500Y-39172189D01*
X54150080Y-39074607D01*
X54075393Y-38999920D01*
X53977811Y-38959500D01*
X53872189Y-38959500D01*
X53774607Y-38999920D01*
X53699920Y-39074607D01*
X53659500Y-39172189D01*
X40500500Y-39172189D01*
X40500500Y-38497190D01*
X68834500Y-38497190D01*
X68834500Y-38602812D01*
X68874920Y-38700394D01*
X68949607Y-38775081D01*
X69047189Y-38815501D01*
X69047190Y-38815501D01*
X69152810Y-38815501D01*
X69152811Y-38815501D01*
X69194125Y-38798388D01*
X69227799Y-38798388D01*
X69251612Y-38822201D01*
X69251612Y-38855877D01*
X69234500Y-38897189D01*
X69234500Y-39002811D01*
X69274920Y-39100393D01*
X69349607Y-39175080D01*
X69447189Y-39215500D01*
X69447190Y-39215500D01*
X69552810Y-39215500D01*
X69552811Y-39215500D01*
X69650393Y-39175080D01*
X69725080Y-39100393D01*
X69755237Y-39027589D01*
X79972655Y-39027589D01*
X79972655Y-39133211D01*
X80013075Y-39230793D01*
X80087762Y-39305480D01*
X80185344Y-39345900D01*
X80185345Y-39345900D01*
X80290965Y-39345900D01*
X80290966Y-39345900D01*
X80388548Y-39305480D01*
X80463235Y-39230793D01*
X80503655Y-39133211D01*
X80503655Y-39027589D01*
X80463235Y-38930007D01*
X80388548Y-38855320D01*
X80290966Y-38814900D01*
X80185344Y-38814900D01*
X80087762Y-38855320D01*
X80013075Y-38930007D01*
X79972655Y-39027589D01*
X69755237Y-39027589D01*
X69765500Y-39002811D01*
X69765500Y-38897189D01*
X69725080Y-38799607D01*
X69650393Y-38724920D01*
X69552811Y-38684500D01*
X69447189Y-38684500D01*
X69405875Y-38701612D01*
X69372199Y-38701611D01*
X69348387Y-38677798D01*
X69348387Y-38644123D01*
X69365500Y-38602812D01*
X69365500Y-38497190D01*
X69325080Y-38399608D01*
X69250393Y-38324921D01*
X69152811Y-38284501D01*
X69047189Y-38284501D01*
X68949607Y-38324921D01*
X68874920Y-38399608D01*
X68834500Y-38497190D01*
X40500500Y-38497190D01*
X40500500Y-38097189D01*
X68234500Y-38097189D01*
X68234500Y-38202811D01*
X68274920Y-38300393D01*
X68349607Y-38375080D01*
X68447189Y-38415500D01*
X68447190Y-38415500D01*
X68552810Y-38415500D01*
X68552811Y-38415500D01*
X68650393Y-38375080D01*
X68725080Y-38300393D01*
X68765500Y-38202811D01*
X68765500Y-38097189D01*
X68744789Y-38047189D01*
X85234500Y-38047189D01*
X85234500Y-38152811D01*
X85274920Y-38250393D01*
X85349607Y-38325080D01*
X85447189Y-38365500D01*
X85447190Y-38365500D01*
X85552810Y-38365500D01*
X85552811Y-38365500D01*
X85650393Y-38325080D01*
X85725080Y-38250393D01*
X85765500Y-38152811D01*
X85765500Y-38047189D01*
X85725080Y-37949607D01*
X85650393Y-37874920D01*
X85552811Y-37834500D01*
X85447189Y-37834500D01*
X85349607Y-37874920D01*
X85274920Y-37949607D01*
X85234500Y-38047189D01*
X68744789Y-38047189D01*
X68725080Y-37999607D01*
X68650393Y-37924920D01*
X68552811Y-37884500D01*
X68447189Y-37884500D01*
X68349607Y-37924920D01*
X68274920Y-37999607D01*
X68234500Y-38097189D01*
X40500500Y-38097189D01*
X40500500Y-37775574D01*
X43200818Y-37775574D01*
X43200818Y-37881196D01*
X43241238Y-37978778D01*
X43315925Y-38053465D01*
X43413507Y-38093885D01*
X43413508Y-38093885D01*
X43519128Y-38093885D01*
X43519129Y-38093885D01*
X43616711Y-38053465D01*
X43691398Y-37978778D01*
X43731818Y-37881196D01*
X43731818Y-37775574D01*
X43691398Y-37677992D01*
X43616711Y-37603305D01*
X43519129Y-37562885D01*
X43413507Y-37562885D01*
X43315925Y-37603305D01*
X43241238Y-37677992D01*
X43200818Y-37775574D01*
X40500500Y-37775574D01*
X40500500Y-37347189D01*
X56634500Y-37347189D01*
X56634500Y-37452811D01*
X56674920Y-37550393D01*
X56749607Y-37625080D01*
X56847189Y-37665500D01*
X56847190Y-37665500D01*
X56952810Y-37665500D01*
X56952811Y-37665500D01*
X57050393Y-37625080D01*
X57125080Y-37550393D01*
X57147118Y-37497189D01*
X62034500Y-37497189D01*
X62034500Y-37602811D01*
X62074920Y-37700393D01*
X62149607Y-37775080D01*
X62247189Y-37815500D01*
X62247190Y-37815500D01*
X62352810Y-37815500D01*
X62352811Y-37815500D01*
X62450393Y-37775080D01*
X62525080Y-37700393D01*
X62565500Y-37602811D01*
X62565500Y-37497189D01*
X62525080Y-37399607D01*
X62450393Y-37324920D01*
X62352811Y-37284500D01*
X62247189Y-37284500D01*
X62149607Y-37324920D01*
X62074920Y-37399607D01*
X62034500Y-37497189D01*
X57147118Y-37497189D01*
X57165500Y-37452811D01*
X57165500Y-37347189D01*
X57125080Y-37249607D01*
X57050393Y-37174920D01*
X56952811Y-37134500D01*
X56847189Y-37134500D01*
X56749607Y-37174920D01*
X56674920Y-37249607D01*
X56634500Y-37347189D01*
X40500500Y-37347189D01*
X40500500Y-36647189D01*
X57634500Y-36647189D01*
X57634500Y-36752811D01*
X57674920Y-36850393D01*
X57749607Y-36925080D01*
X57847189Y-36965500D01*
X57847190Y-36965500D01*
X57952810Y-36965500D01*
X57952811Y-36965500D01*
X58050393Y-36925080D01*
X58078284Y-36897189D01*
X60334500Y-36897189D01*
X60334500Y-37002811D01*
X60374920Y-37100393D01*
X60449607Y-37175080D01*
X60547189Y-37215500D01*
X60547190Y-37215500D01*
X60652810Y-37215500D01*
X60652811Y-37215500D01*
X60750393Y-37175080D01*
X60825080Y-37100393D01*
X60865500Y-37002811D01*
X60865500Y-36897189D01*
X60825080Y-36799607D01*
X60772662Y-36747189D01*
X77934500Y-36747189D01*
X77934500Y-36852811D01*
X77974920Y-36950393D01*
X78049607Y-37025080D01*
X78147189Y-37065500D01*
X78147190Y-37065500D01*
X78252810Y-37065500D01*
X78252811Y-37065500D01*
X78350393Y-37025080D01*
X78425080Y-36950393D01*
X78426407Y-36947189D01*
X84234500Y-36947189D01*
X84234500Y-37052811D01*
X84274920Y-37150393D01*
X84349607Y-37225080D01*
X84447189Y-37265500D01*
X84447190Y-37265500D01*
X84552810Y-37265500D01*
X84552811Y-37265500D01*
X84650393Y-37225080D01*
X84725080Y-37150393D01*
X84765500Y-37052811D01*
X84765500Y-36947189D01*
X84725080Y-36849607D01*
X84650393Y-36774920D01*
X84552811Y-36734500D01*
X84447189Y-36734500D01*
X84349607Y-36774920D01*
X84274920Y-36849607D01*
X84234500Y-36947189D01*
X78426407Y-36947189D01*
X78465500Y-36852811D01*
X78465500Y-36747189D01*
X78425080Y-36649607D01*
X78350393Y-36574920D01*
X78252811Y-36534500D01*
X78147189Y-36534500D01*
X78049607Y-36574920D01*
X77974920Y-36649607D01*
X77934500Y-36747189D01*
X60772662Y-36747189D01*
X60750393Y-36724920D01*
X60652811Y-36684500D01*
X60547189Y-36684500D01*
X60449607Y-36724920D01*
X60374920Y-36799607D01*
X60334500Y-36897189D01*
X58078284Y-36897189D01*
X58125080Y-36850393D01*
X58165500Y-36752811D01*
X58165500Y-36647189D01*
X58125080Y-36549607D01*
X58050393Y-36474920D01*
X57952811Y-36434500D01*
X57847189Y-36434500D01*
X57749607Y-36474920D01*
X57674920Y-36549607D01*
X57634500Y-36647189D01*
X40500500Y-36647189D01*
X40500500Y-36047189D01*
X65034500Y-36047189D01*
X65034500Y-36152811D01*
X65074920Y-36250393D01*
X65149607Y-36325080D01*
X65247189Y-36365500D01*
X65247190Y-36365500D01*
X65352810Y-36365500D01*
X65352811Y-36365500D01*
X65450393Y-36325080D01*
X65525080Y-36250393D01*
X65565500Y-36152811D01*
X65565500Y-36047189D01*
X65525080Y-35949607D01*
X65450393Y-35874920D01*
X65352811Y-35834500D01*
X65247189Y-35834500D01*
X65149607Y-35874920D01*
X65074920Y-35949607D01*
X65034500Y-36047189D01*
X40500500Y-36047189D01*
X40500500Y-34397189D01*
X46834500Y-34397189D01*
X46834500Y-34502811D01*
X46874920Y-34600393D01*
X46949607Y-34675080D01*
X47047189Y-34715500D01*
X47047190Y-34715500D01*
X47152810Y-34715500D01*
X47152811Y-34715500D01*
X47250393Y-34675080D01*
X47325080Y-34600393D01*
X47365500Y-34502811D01*
X47365500Y-34397189D01*
X47325080Y-34299607D01*
X47250393Y-34224920D01*
X47152811Y-34184500D01*
X47047189Y-34184500D01*
X46949607Y-34224920D01*
X46874920Y-34299607D01*
X46834500Y-34397189D01*
X40500500Y-34397189D01*
X40500500Y-33797189D01*
X53384500Y-33797189D01*
X53384500Y-33902811D01*
X53424920Y-34000393D01*
X53499607Y-34075080D01*
X53597189Y-34115500D01*
X53597190Y-34115500D01*
X53702810Y-34115500D01*
X53702811Y-34115500D01*
X53800393Y-34075080D01*
X53875080Y-34000393D01*
X53915500Y-33902811D01*
X53915500Y-33797189D01*
X53875080Y-33699607D01*
X53830619Y-33655146D01*
X80234107Y-33655146D01*
X80234107Y-33760768D01*
X80274527Y-33858350D01*
X80349214Y-33933037D01*
X80446796Y-33973457D01*
X80446797Y-33973457D01*
X80552417Y-33973457D01*
X80552418Y-33973457D01*
X80650000Y-33933037D01*
X80724687Y-33858350D01*
X80765107Y-33760768D01*
X80765107Y-33655146D01*
X80724687Y-33557564D01*
X80650000Y-33482877D01*
X80552418Y-33442457D01*
X80446796Y-33442457D01*
X80349214Y-33482877D01*
X80274527Y-33557564D01*
X80234107Y-33655146D01*
X53830619Y-33655146D01*
X53800393Y-33624920D01*
X53702811Y-33584500D01*
X53597189Y-33584500D01*
X53499607Y-33624920D01*
X53424920Y-33699607D01*
X53384500Y-33797189D01*
X40500500Y-33797189D01*
X40500500Y-33247189D01*
X83784500Y-33247189D01*
X83784500Y-33352811D01*
X83824920Y-33450393D01*
X83899607Y-33525080D01*
X83997189Y-33565500D01*
X83997190Y-33565500D01*
X84102810Y-33565500D01*
X84102811Y-33565500D01*
X84200393Y-33525080D01*
X84275080Y-33450393D01*
X84315500Y-33352811D01*
X84315500Y-33247189D01*
X84275080Y-33149607D01*
X84200393Y-33074920D01*
X84102811Y-33034500D01*
X83997189Y-33034500D01*
X83899607Y-33074920D01*
X83824920Y-33149607D01*
X83784500Y-33247189D01*
X40500500Y-33247189D01*
X40500500Y-32697189D01*
X45984500Y-32697189D01*
X45984500Y-32802811D01*
X46024920Y-32900393D01*
X46099607Y-32975080D01*
X46197189Y-33015500D01*
X46197190Y-33015500D01*
X46302810Y-33015500D01*
X46302811Y-33015500D01*
X46400393Y-32975080D01*
X46475080Y-32900393D01*
X46515500Y-32802811D01*
X46515500Y-32697189D01*
X46475080Y-32599607D01*
X46400393Y-32524920D01*
X46333445Y-32497189D01*
X49134500Y-32497189D01*
X49134500Y-32602811D01*
X49174920Y-32700393D01*
X49249607Y-32775080D01*
X49347189Y-32815500D01*
X49347190Y-32815500D01*
X49452810Y-32815500D01*
X49452811Y-32815500D01*
X49550393Y-32775080D01*
X49625080Y-32700393D01*
X49665500Y-32602811D01*
X49665500Y-32497189D01*
X49644789Y-32447189D01*
X70734500Y-32447189D01*
X70734500Y-32552811D01*
X70774920Y-32650393D01*
X70849607Y-32725080D01*
X70947189Y-32765500D01*
X70947190Y-32765500D01*
X71052810Y-32765500D01*
X71052811Y-32765500D01*
X71150393Y-32725080D01*
X71225080Y-32650393D01*
X71265500Y-32552811D01*
X71265500Y-32447189D01*
X71225080Y-32349607D01*
X71150393Y-32274920D01*
X71052811Y-32234500D01*
X70947189Y-32234500D01*
X70849607Y-32274920D01*
X70774920Y-32349607D01*
X70734500Y-32447189D01*
X49644789Y-32447189D01*
X49625080Y-32399607D01*
X49550393Y-32324920D01*
X49452811Y-32284500D01*
X49347189Y-32284500D01*
X49249607Y-32324920D01*
X49174920Y-32399607D01*
X49134500Y-32497189D01*
X46333445Y-32497189D01*
X46302811Y-32484500D01*
X46197189Y-32484500D01*
X46099607Y-32524920D01*
X46024920Y-32599607D01*
X45984500Y-32697189D01*
X40500500Y-32697189D01*
X40500500Y-31947189D01*
X73234500Y-31947189D01*
X73234500Y-32052811D01*
X73274920Y-32150393D01*
X73349607Y-32225080D01*
X73447189Y-32265500D01*
X73447190Y-32265500D01*
X73552810Y-32265500D01*
X73552811Y-32265500D01*
X73650393Y-32225080D01*
X73725080Y-32150393D01*
X73765500Y-32052811D01*
X73765500Y-31947189D01*
X73725080Y-31849607D01*
X73650393Y-31774920D01*
X73552811Y-31734500D01*
X73447189Y-31734500D01*
X73349607Y-31774920D01*
X73274920Y-31849607D01*
X73234500Y-31947189D01*
X40500500Y-31947189D01*
X40500500Y-30047189D01*
X76984500Y-30047189D01*
X76984500Y-30152811D01*
X77024920Y-30250393D01*
X77099607Y-30325080D01*
X77197189Y-30365500D01*
X77197190Y-30365500D01*
X77302810Y-30365500D01*
X77302811Y-30365500D01*
X77400393Y-30325080D01*
X77475080Y-30250393D01*
X77515500Y-30152811D01*
X77515500Y-30047189D01*
X77475080Y-29949607D01*
X77400393Y-29874920D01*
X77302811Y-29834500D01*
X77197189Y-29834500D01*
X77099607Y-29874920D01*
X77024920Y-29949607D01*
X76984500Y-30047189D01*
X40500500Y-30047189D01*
X40500500Y-29447189D01*
X43734500Y-29447189D01*
X43734500Y-29552811D01*
X43774920Y-29650393D01*
X43849607Y-29725080D01*
X43947189Y-29765500D01*
X43947190Y-29765500D01*
X44052810Y-29765500D01*
X44052811Y-29765500D01*
X44150393Y-29725080D01*
X44225080Y-29650393D01*
X44265500Y-29552811D01*
X44265500Y-29447189D01*
X44244789Y-29397189D01*
X49534500Y-29397189D01*
X49534500Y-29502811D01*
X49574920Y-29600393D01*
X49649607Y-29675080D01*
X49747189Y-29715500D01*
X49747190Y-29715500D01*
X49852810Y-29715500D01*
X49852811Y-29715500D01*
X49950393Y-29675080D01*
X50025080Y-29600393D01*
X50065500Y-29502811D01*
X50065500Y-29397189D01*
X50025080Y-29299607D01*
X49950393Y-29224920D01*
X49852811Y-29184500D01*
X49747189Y-29184500D01*
X49649607Y-29224920D01*
X49574920Y-29299607D01*
X49534500Y-29397189D01*
X44244789Y-29397189D01*
X44225080Y-29349607D01*
X44150393Y-29274920D01*
X44052811Y-29234500D01*
X43947189Y-29234500D01*
X43849607Y-29274920D01*
X43774920Y-29349607D01*
X43734500Y-29447189D01*
X40500500Y-29447189D01*
X40500500Y-27997189D01*
X64734500Y-27997189D01*
X64734500Y-28102811D01*
X64774920Y-28200393D01*
X64849607Y-28275080D01*
X64947189Y-28315500D01*
X64947190Y-28315500D01*
X65052810Y-28315500D01*
X65052811Y-28315500D01*
X65150393Y-28275080D01*
X65225080Y-28200393D01*
X65265500Y-28102811D01*
X65265500Y-27997189D01*
X65225080Y-27899607D01*
X65150393Y-27824920D01*
X65052811Y-27784500D01*
X64947189Y-27784500D01*
X64849607Y-27824920D01*
X64774920Y-27899607D01*
X64734500Y-27997189D01*
X40500500Y-27997189D01*
X40500500Y-27697189D01*
X79334500Y-27697189D01*
X79334500Y-27802811D01*
X79374920Y-27900393D01*
X79449607Y-27975080D01*
X79547189Y-28015500D01*
X79547190Y-28015500D01*
X79652810Y-28015500D01*
X79652811Y-28015500D01*
X79750393Y-27975080D01*
X79778284Y-27947189D01*
X84834500Y-27947189D01*
X84834500Y-28052811D01*
X84874920Y-28150393D01*
X84949607Y-28225080D01*
X85047189Y-28265500D01*
X85047190Y-28265500D01*
X85152810Y-28265500D01*
X85152811Y-28265500D01*
X85250393Y-28225080D01*
X85325080Y-28150393D01*
X85365500Y-28052811D01*
X85365500Y-27947189D01*
X85325080Y-27849607D01*
X85250393Y-27774920D01*
X85152811Y-27734500D01*
X85047189Y-27734500D01*
X84949607Y-27774920D01*
X84874920Y-27849607D01*
X84834500Y-27947189D01*
X79778284Y-27947189D01*
X79825080Y-27900393D01*
X79865500Y-27802811D01*
X79865500Y-27697189D01*
X79825080Y-27599607D01*
X79750393Y-27524920D01*
X79652811Y-27484500D01*
X79547189Y-27484500D01*
X79449607Y-27524920D01*
X79374920Y-27599607D01*
X79334500Y-27697189D01*
X40500500Y-27697189D01*
X40500500Y-23838345D01*
X40709500Y-23838345D01*
X40709500Y-24161654D01*
X40741189Y-24483392D01*
X40741189Y-24483394D01*
X40804265Y-24800499D01*
X40898109Y-25109863D01*
X41021840Y-25408576D01*
X41021841Y-25408577D01*
X41174239Y-25693692D01*
X41174243Y-25693699D01*
X41353856Y-25962510D01*
X41353865Y-25962522D01*
X41558953Y-26212421D01*
X41558960Y-26212429D01*
X41787571Y-26441040D01*
X41787576Y-26441044D01*
X41787578Y-26441046D01*
X42037477Y-26646134D01*
X42037489Y-26646143D01*
X42306300Y-26825756D01*
X42306307Y-26825760D01*
X42591422Y-26978158D01*
X42591423Y-26978159D01*
X42591425Y-26978160D01*
X42591433Y-26978164D01*
X42890127Y-27101887D01*
X42890133Y-27101888D01*
X42890136Y-27101890D01*
X43199500Y-27195734D01*
X43199510Y-27195737D01*
X43516601Y-27258810D01*
X43838348Y-27290500D01*
X44161652Y-27290500D01*
X44483399Y-27258810D01*
X44800490Y-27195737D01*
X45109873Y-27101887D01*
X45408567Y-26978164D01*
X45693695Y-26825759D01*
X45962512Y-26646142D01*
X46212429Y-26441040D01*
X46441040Y-26212429D01*
X46646142Y-25962512D01*
X46825759Y-25693695D01*
X46902981Y-25549223D01*
X46957520Y-25447189D01*
X60734500Y-25447189D01*
X60734500Y-25552811D01*
X60774920Y-25650393D01*
X60849607Y-25725080D01*
X60947189Y-25765500D01*
X60947190Y-25765500D01*
X61052810Y-25765500D01*
X61052811Y-25765500D01*
X61150393Y-25725080D01*
X61225080Y-25650393D01*
X61265500Y-25552811D01*
X61265500Y-25447189D01*
X61225080Y-25349607D01*
X61150393Y-25274920D01*
X61052811Y-25234500D01*
X60947189Y-25234500D01*
X60849607Y-25274920D01*
X60774920Y-25349607D01*
X60734500Y-25447189D01*
X46957520Y-25447189D01*
X46970924Y-25422113D01*
X46974163Y-25416051D01*
X46978164Y-25408567D01*
X47101887Y-25109873D01*
X47195737Y-24800490D01*
X47226230Y-24647189D01*
X48634500Y-24647189D01*
X48634500Y-24752811D01*
X48674920Y-24850393D01*
X48749607Y-24925080D01*
X48847189Y-24965500D01*
X48847190Y-24965500D01*
X48952810Y-24965500D01*
X48952811Y-24965500D01*
X49050393Y-24925080D01*
X49125080Y-24850393D01*
X49165500Y-24752811D01*
X49165500Y-24647189D01*
X49125080Y-24549607D01*
X49050393Y-24474920D01*
X48952811Y-24434500D01*
X48847189Y-24434500D01*
X48749607Y-24474920D01*
X48674920Y-24549607D01*
X48634500Y-24647189D01*
X47226230Y-24647189D01*
X47258810Y-24483399D01*
X47286633Y-24200914D01*
X54171772Y-24200914D01*
X54171772Y-24306536D01*
X54212192Y-24404118D01*
X54286879Y-24478805D01*
X54384461Y-24519225D01*
X54384462Y-24519225D01*
X54490082Y-24519225D01*
X54490083Y-24519225D01*
X54587665Y-24478805D01*
X54662352Y-24404118D01*
X54685933Y-24347189D01*
X77734500Y-24347189D01*
X77734500Y-24452811D01*
X77774920Y-24550393D01*
X77849607Y-24625080D01*
X77947189Y-24665500D01*
X77947190Y-24665500D01*
X78052810Y-24665500D01*
X78052811Y-24665500D01*
X78150393Y-24625080D01*
X78225080Y-24550393D01*
X78265500Y-24452811D01*
X78265500Y-24347189D01*
X78225080Y-24249607D01*
X78150393Y-24174920D01*
X78052811Y-24134500D01*
X77947189Y-24134500D01*
X77849607Y-24174920D01*
X77774920Y-24249607D01*
X77734500Y-24347189D01*
X54685933Y-24347189D01*
X54702772Y-24306536D01*
X54702772Y-24200914D01*
X54662352Y-24103332D01*
X54587665Y-24028645D01*
X54490083Y-23988225D01*
X54384461Y-23988225D01*
X54286879Y-24028645D01*
X54212192Y-24103332D01*
X54171772Y-24200914D01*
X47286633Y-24200914D01*
X47290500Y-24161652D01*
X47290500Y-23838348D01*
X47290500Y-23838345D01*
X82709500Y-23838345D01*
X82709500Y-24161654D01*
X82741189Y-24483392D01*
X82741189Y-24483394D01*
X82804265Y-24800499D01*
X82898109Y-25109863D01*
X83021840Y-25408576D01*
X83021841Y-25408577D01*
X83174239Y-25693692D01*
X83174243Y-25693699D01*
X83353856Y-25962510D01*
X83353865Y-25962522D01*
X83558953Y-26212421D01*
X83558960Y-26212429D01*
X83787571Y-26441040D01*
X83787576Y-26441044D01*
X83787578Y-26441046D01*
X84037477Y-26646134D01*
X84037489Y-26646143D01*
X84306300Y-26825756D01*
X84306307Y-26825760D01*
X84591422Y-26978158D01*
X84591423Y-26978159D01*
X84591425Y-26978160D01*
X84591433Y-26978164D01*
X84890127Y-27101887D01*
X84890133Y-27101888D01*
X84890136Y-27101890D01*
X85199500Y-27195734D01*
X85199510Y-27195737D01*
X85516601Y-27258810D01*
X85838348Y-27290500D01*
X86161652Y-27290500D01*
X86483399Y-27258810D01*
X86800490Y-27195737D01*
X87109873Y-27101887D01*
X87408567Y-26978164D01*
X87693695Y-26825759D01*
X87962512Y-26646142D01*
X88212429Y-26441040D01*
X88441040Y-26212429D01*
X88646142Y-25962512D01*
X88825759Y-25693695D01*
X88978164Y-25408567D01*
X89101887Y-25109873D01*
X89195737Y-24800490D01*
X89258810Y-24483399D01*
X89290500Y-24161652D01*
X89290500Y-23838348D01*
X89258810Y-23516601D01*
X89195737Y-23199510D01*
X89101887Y-22890127D01*
X88978164Y-22591433D01*
X88825759Y-22306305D01*
X88774223Y-22229176D01*
X88646143Y-22037489D01*
X88646134Y-22037477D01*
X88441046Y-21787578D01*
X88441044Y-21787576D01*
X88441040Y-21787571D01*
X88212429Y-21558960D01*
X88212423Y-21558955D01*
X88212421Y-21558953D01*
X87962522Y-21353865D01*
X87962510Y-21353856D01*
X87693699Y-21174243D01*
X87693692Y-21174239D01*
X87408577Y-21021841D01*
X87408576Y-21021840D01*
X87408569Y-21021837D01*
X87408567Y-21021836D01*
X87109873Y-20898113D01*
X87109871Y-20898112D01*
X87109863Y-20898109D01*
X86800499Y-20804265D01*
X86800492Y-20804263D01*
X86800490Y-20804263D01*
X86483399Y-20741190D01*
X86483397Y-20741189D01*
X86483393Y-20741189D01*
X86161654Y-20709500D01*
X86161652Y-20709500D01*
X85838348Y-20709500D01*
X85838345Y-20709500D01*
X85516607Y-20741189D01*
X85516605Y-20741189D01*
X85199500Y-20804265D01*
X84890136Y-20898109D01*
X84591423Y-21021840D01*
X84591422Y-21021841D01*
X84306307Y-21174239D01*
X84306300Y-21174243D01*
X84037489Y-21353856D01*
X84037477Y-21353865D01*
X83787578Y-21558953D01*
X83558953Y-21787578D01*
X83353865Y-22037477D01*
X83353856Y-22037489D01*
X83174243Y-22306300D01*
X83174239Y-22306307D01*
X83021841Y-22591422D01*
X83021840Y-22591423D01*
X82898109Y-22890136D01*
X82804265Y-23199500D01*
X82741189Y-23516605D01*
X82741189Y-23516607D01*
X82709500Y-23838345D01*
X47290500Y-23838345D01*
X47258810Y-23516601D01*
X47195737Y-23199510D01*
X47101887Y-22890127D01*
X46978164Y-22591433D01*
X46825759Y-22306305D01*
X46774223Y-22229176D01*
X74420007Y-22229176D01*
X74420007Y-22334798D01*
X74460427Y-22432380D01*
X74535114Y-22507067D01*
X74632696Y-22547487D01*
X74632697Y-22547487D01*
X74738317Y-22547487D01*
X74738318Y-22547487D01*
X74835900Y-22507067D01*
X74910587Y-22432380D01*
X74951007Y-22334798D01*
X74951007Y-22229176D01*
X74910587Y-22131594D01*
X74835900Y-22056907D01*
X74738318Y-22016487D01*
X74632696Y-22016487D01*
X74535114Y-22056907D01*
X74460427Y-22131594D01*
X74420007Y-22229176D01*
X46774223Y-22229176D01*
X46646143Y-22037489D01*
X46646134Y-22037477D01*
X46441046Y-21787578D01*
X46441044Y-21787576D01*
X46441040Y-21787571D01*
X46212429Y-21558960D01*
X46212423Y-21558955D01*
X46212421Y-21558953D01*
X45962522Y-21353865D01*
X45962510Y-21353856D01*
X45693699Y-21174243D01*
X45693692Y-21174239D01*
X45408577Y-21021841D01*
X45408576Y-21021840D01*
X45408569Y-21021837D01*
X45408567Y-21021836D01*
X45109873Y-20898113D01*
X45109871Y-20898112D01*
X45109863Y-20898109D01*
X44800499Y-20804265D01*
X44800492Y-20804263D01*
X44800490Y-20804263D01*
X44483399Y-20741190D01*
X44483397Y-20741189D01*
X44483393Y-20741189D01*
X44161654Y-20709500D01*
X44161652Y-20709500D01*
X43838348Y-20709500D01*
X43838345Y-20709500D01*
X43516607Y-20741189D01*
X43516605Y-20741189D01*
X43199500Y-20804265D01*
X42890136Y-20898109D01*
X42591423Y-21021840D01*
X42591422Y-21021841D01*
X42306307Y-21174239D01*
X42306300Y-21174243D01*
X42037489Y-21353856D01*
X42037477Y-21353865D01*
X41787578Y-21558953D01*
X41558953Y-21787578D01*
X41353865Y-22037477D01*
X41353856Y-22037489D01*
X41174243Y-22306300D01*
X41174239Y-22306307D01*
X41021841Y-22591422D01*
X41021840Y-22591423D01*
X40898109Y-22890136D01*
X40804265Y-23199500D01*
X40741189Y-23516605D01*
X40741189Y-23516607D01*
X40709500Y-23838345D01*
X40500500Y-23838345D01*
X40500500Y-20544500D01*
X40513387Y-20513387D01*
X40544500Y-20500500D01*
X89455500Y-20500500D01*
X89486613Y-20513387D01*
G37*
%TD.AperFunction*%
%TD*%
M02*
