%TF.GenerationSoftware,KiCad,Pcbnew,9.0.1*%
%TF.CreationDate,2025-05-10T22:35:42-04:00*%
%TF.ProjectId,CRVFCU,43525646-4355-42e6-9b69-6361645f7063,rev?*%
%TF.SameCoordinates,Original*%
%TF.FileFunction,Copper,L2,Inr*%
%TF.FilePolarity,Positive*%
%FSLAX46Y46*%
G04 Gerber Fmt 4.6, Leading zero omitted, Abs format (unit mm)*
G04 Created by KiCad (PCBNEW 9.0.1) date 2025-05-10 22:35:42*
%MOMM*%
%LPD*%
G01*
G04 APERTURE LIST*
G04 Aperture macros list*
%AMRoundRect*
0 Rectangle with rounded corners*
0 $1 Rounding radius*
0 $2 $3 $4 $5 $6 $7 $8 $9 X,Y pos of 4 corners*
0 Add a 4 corners polygon primitive as box body*
4,1,4,$2,$3,$4,$5,$6,$7,$8,$9,$2,$3,0*
0 Add four circle primitives for the rounded corners*
1,1,$1+$1,$2,$3*
1,1,$1+$1,$4,$5*
1,1,$1+$1,$6,$7*
1,1,$1+$1,$8,$9*
0 Add four rect primitives between the rounded corners*
20,1,$1+$1,$2,$3,$4,$5,0*
20,1,$1+$1,$4,$5,$6,$7,0*
20,1,$1+$1,$6,$7,$8,$9,0*
20,1,$1+$1,$8,$9,$2,$3,0*%
G04 Aperture macros list end*
%TA.AperFunction,ComponentPad*%
%ADD10R,1.600000X1.600000*%
%TD*%
%TA.AperFunction,ComponentPad*%
%ADD11C,1.600000*%
%TD*%
%TA.AperFunction,ComponentPad*%
%ADD12RoundRect,0.760000X-1.140000X-1.140000X1.140000X-1.140000X1.140000X1.140000X-1.140000X1.140000X0*%
%TD*%
%TA.AperFunction,ComponentPad*%
%ADD13C,4.000000*%
%TD*%
%TA.AperFunction,ComponentPad*%
%ADD14RoundRect,0.250001X0.799999X-0.799999X0.799999X0.799999X-0.799999X0.799999X-0.799999X-0.799999X0*%
%TD*%
%TA.AperFunction,ComponentPad*%
%ADD15C,2.100000*%
%TD*%
%TA.AperFunction,ComponentPad*%
%ADD16C,6.400000*%
%TD*%
%TA.AperFunction,HeatsinkPad*%
%ADD17O,2.100000X1.000000*%
%TD*%
%TA.AperFunction,HeatsinkPad*%
%ADD18O,1.800000X1.000000*%
%TD*%
%TA.AperFunction,ComponentPad*%
%ADD19RoundRect,0.250001X-0.799999X0.799999X-0.799999X-0.799999X0.799999X-0.799999X0.799999X0.799999X0*%
%TD*%
%TA.AperFunction,ComponentPad*%
%ADD20R,1.700000X1.700000*%
%TD*%
%TA.AperFunction,ComponentPad*%
%ADD21C,1.700000*%
%TD*%
%TA.AperFunction,ViaPad*%
%ADD22C,0.350000*%
%TD*%
%TA.AperFunction,ViaPad*%
%ADD23C,0.600000*%
%TD*%
G04 APERTURE END LIST*
D10*
%TO.N,VBAT*%
%TO.C,C1*%
X74400000Y-110402651D03*
D11*
%TO.N,GND*%
X74400000Y-105402651D03*
%TD*%
D12*
%TO.N,GND*%
%TO.C,BATT1*%
X70000000Y-116000000D03*
D13*
%TO.N,VBAT*%
X75000000Y-116000000D03*
%TD*%
D14*
%TO.N,VBAT*%
%TO.C,PYRO_TERM1*%
X86000000Y-109860000D03*
D15*
%TO.N,/VPYRO*%
X86000000Y-107320000D03*
X86000000Y-104780000D03*
%TO.N,/PYO0*%
X86000000Y-102240000D03*
%TO.N,/PYO1*%
X86000000Y-99700000D03*
%TO.N,/VPYRO*%
X86000000Y-97160000D03*
X86000000Y-94620000D03*
%TO.N,/PYO2*%
X86000000Y-92080000D03*
%TO.N,/PYO3*%
X86000000Y-89540000D03*
%TO.N,/VPYRO*%
X86000000Y-87000000D03*
%TD*%
D16*
%TO.N,GND*%
%TO.C,H2*%
X86000000Y-24000000D03*
%TD*%
%TO.N,GND*%
%TO.C,H3*%
X44000000Y-24000000D03*
%TD*%
D17*
%TO.N,GND*%
%TO.C,J3*%
X47355000Y-76080000D03*
D18*
X43175000Y-76080000D03*
D17*
X47355000Y-84720000D03*
D18*
X43175000Y-84720000D03*
%TD*%
D19*
%TO.N,+3V3*%
%TO.C,ARM1*%
X44000000Y-102580000D03*
D15*
%TO.N,Net-(ARM1-Pin_2)*%
X44000000Y-105120000D03*
%TO.N,+8V4*%
X44000000Y-107660000D03*
%TO.N,VBAT*%
X44000000Y-110200000D03*
%TD*%
D16*
%TO.N,GND*%
%TO.C,H4*%
X86000000Y-116000000D03*
%TD*%
%TO.N,GND*%
%TO.C,H1*%
X44000000Y-116000000D03*
%TD*%
D20*
%TO.N,/SRVO_0*%
%TO.C,PWM0*%
X47140000Y-88000001D03*
D21*
%TO.N,+8V4*%
X44600000Y-88000001D03*
%TO.N,GND*%
X42060000Y-88000001D03*
%TD*%
D20*
%TO.N,/SRVO_3*%
%TO.C,PWM3*%
X47140000Y-98800000D03*
D21*
%TO.N,+8V4*%
X44600000Y-98800000D03*
%TO.N,GND*%
X42060000Y-98800000D03*
%TD*%
D20*
%TO.N,/SRVO_2*%
%TO.C,PWM2*%
X47140000Y-95200000D03*
D21*
%TO.N,+8V4*%
X44600000Y-95200000D03*
%TO.N,GND*%
X42060000Y-95200000D03*
%TD*%
D20*
%TO.N,/SRVO_1*%
%TO.C,PWM1*%
X47140000Y-91600000D03*
D21*
%TO.N,+8V4*%
X44600000Y-91600000D03*
%TO.N,GND*%
X42060000Y-91600000D03*
%TD*%
D20*
%TO.N,/SRVO_7*%
%TO.C,PWM7*%
X60799999Y-112900000D03*
D21*
%TO.N,+8V4*%
X60799999Y-115440000D03*
%TO.N,GND*%
X60799999Y-117980000D03*
%TD*%
D20*
%TO.N,/SRVO_6*%
%TO.C,PWM6*%
X57200000Y-112900000D03*
D21*
%TO.N,+8V4*%
X57200000Y-115440000D03*
%TO.N,GND*%
X57200000Y-117980000D03*
%TD*%
D20*
%TO.N,/SRVO_5*%
%TO.C,PWM5*%
X53600001Y-112900000D03*
D21*
%TO.N,+8V4*%
X53600001Y-115440000D03*
%TO.N,GND*%
X53600001Y-117980000D03*
%TD*%
D20*
%TO.N,/SRVO_4*%
%TO.C,PWM4*%
X50000000Y-112900000D03*
D21*
%TO.N,+8V4*%
X50000000Y-115440000D03*
%TO.N,GND*%
X50000000Y-117980000D03*
%TD*%
D22*
%TO.N,GND*%
X55300000Y-107200000D03*
X55400000Y-111600000D03*
X58700000Y-111400000D03*
X52200000Y-111400000D03*
X68739168Y-76970001D03*
X72200000Y-78300000D03*
X72500000Y-67700000D03*
X78200000Y-36800000D03*
X80238155Y-39080400D03*
X44000000Y-73600000D03*
X48500000Y-73800000D03*
X46300000Y-70100000D03*
X47000000Y-71100000D03*
X46800000Y-70400000D03*
X46000000Y-71000000D03*
X70200000Y-91300000D03*
X71300000Y-96100000D03*
X71400000Y-100000000D03*
X80900000Y-118200000D03*
X66000000Y-118200000D03*
X43794658Y-60987668D03*
X68300000Y-43500000D03*
X72800000Y-46200000D03*
X72400000Y-48900000D03*
X71409419Y-48494196D03*
X69100000Y-50400000D03*
X64000000Y-43800000D03*
X53500000Y-41900000D03*
X48900000Y-24700000D03*
X88300000Y-57300000D03*
X83900000Y-78100000D03*
X84100000Y-82700000D03*
X69900000Y-87000000D03*
X63686586Y-84032157D03*
X57670219Y-82834820D03*
X50901806Y-89751664D03*
X60708089Y-86308085D03*
X54600000Y-85800000D03*
X60100000Y-87900000D03*
X56700000Y-88100000D03*
X60300000Y-98900000D03*
X53200000Y-100400000D03*
X53400000Y-98200000D03*
X57300000Y-98800000D03*
%TO.N,Net-(5V_PWR1-K)*%
X68390000Y-100000000D03*
%TO.N,GND*%
X53500000Y-105800000D03*
X80000000Y-106200000D03*
X75300000Y-101000000D03*
X75500000Y-99100000D03*
X50008577Y-47491423D03*
%TO.N,+3V3*%
X69990000Y-105400000D03*
%TO.N,Net-(3V3_PWR1-K)*%
X67690000Y-104700000D03*
%TO.N,GND*%
X77700000Y-103350000D03*
X57900000Y-36700000D03*
X56900000Y-37400000D03*
X60500000Y-79300000D03*
X62600000Y-81100000D03*
X69900000Y-70100000D03*
X70700000Y-69400000D03*
X73500000Y-32000000D03*
X71000000Y-32500000D03*
X59500000Y-79500000D03*
X50500000Y-62000000D03*
X53500000Y-68500000D03*
X65000000Y-68000000D03*
X60000000Y-60500000D03*
X56500000Y-52500000D03*
X66500000Y-54000000D03*
X70000000Y-59000000D03*
X84500000Y-52000000D03*
X83089966Y-42349658D03*
X84500000Y-37000000D03*
X61000000Y-25500000D03*
X44000000Y-29500000D03*
X45500000Y-52000000D03*
X53000000Y-73000000D03*
X47500000Y-113000000D03*
X64000000Y-114000000D03*
X81000000Y-115500000D03*
X52000000Y-86500000D03*
X80500000Y-85500000D03*
X77500000Y-85500000D03*
X71850000Y-88750000D03*
X79000000Y-96000000D03*
X66500000Y-73000000D03*
X70500000Y-74000000D03*
X70000000Y-79000000D03*
X86000000Y-82000000D03*
X51000000Y-76000000D03*
X51000000Y-81000000D03*
X54965859Y-83003832D03*
%TO.N,+3V3*%
X75000000Y-48000000D03*
%TO.N,GND*%
X43466318Y-37828385D03*
X45741401Y-26427693D03*
X54437272Y-24253725D03*
X65000000Y-28050000D03*
X74685507Y-22281987D03*
X78000000Y-24400000D03*
X79600000Y-27750000D03*
X77250000Y-30100000D03*
X80499607Y-33707957D03*
X84050000Y-33300000D03*
X85100000Y-28000000D03*
X88150000Y-49300000D03*
X77950000Y-65650000D03*
X77950000Y-72100000D03*
X75050000Y-76700000D03*
X67350000Y-63800000D03*
X76793760Y-53043945D03*
X62650330Y-56342815D03*
X60750000Y-47300000D03*
X54100000Y-56100000D03*
X45600000Y-67050000D03*
X47600000Y-62950000D03*
X44500000Y-62050000D03*
X43850000Y-59450000D03*
X42800000Y-54000000D03*
%TO.N,/BUZZ*%
X74700000Y-71450000D03*
X68850000Y-93400000D03*
%TO.N,/ARM*%
X54400000Y-64400000D03*
%TO.N,+5V*%
X85500000Y-38100000D03*
%TO.N,/SRVI_7*%
X55325000Y-67075000D03*
%TO.N,/SRVI_6*%
X55861988Y-67045505D03*
%TO.N,/SRVI_5*%
X56714420Y-67200000D03*
%TO.N,/SRVI_4*%
X57400000Y-67500000D03*
%TO.N,/SRVI_3*%
X58527447Y-68800000D03*
%TO.N,/SRVI_2*%
X58850000Y-69350000D03*
%TO.N,/SRVI_1*%
X59950000Y-70800000D03*
%TO.N,/SRVI_0*%
X60377687Y-71108521D03*
%TO.N,/SRV_OE*%
X60550000Y-71550000D03*
%TO.N,+3V3*%
X81300000Y-63850000D03*
%TO.N,GND*%
X77850000Y-93100000D03*
%TO.N,/PYC0*%
X74500000Y-80950000D03*
%TO.N,/PYR0*%
X75600000Y-79650000D03*
%TO.N,/PYR1*%
X76000000Y-80050000D03*
%TO.N,/PYC1*%
X76278000Y-80550000D03*
%TO.N,/PYC2*%
X76265832Y-81365832D03*
%TO.N,/PYR2*%
X76869167Y-81369167D03*
%TO.N,/PYR3*%
X77384415Y-81202817D03*
%TO.N,/PYC3*%
X77450000Y-80400000D03*
%TO.N,Net-(LED1-K)*%
X78900000Y-40900000D03*
%TO.N,/NEOPIX*%
X75450000Y-44650000D03*
D23*
%TO.N,+5V*%
X64610000Y-90350000D03*
D22*
%TO.N,+8V4*%
X43650000Y-65500000D03*
%TO.N,+3V3*%
X44500000Y-65500000D03*
X44200000Y-59950000D03*
X43150000Y-59850000D03*
X44050000Y-45800000D03*
X51050000Y-45850000D03*
X75900000Y-29550000D03*
%TO.N,GND*%
X74200000Y-73350000D03*
X88850000Y-66750000D03*
X84400000Y-67500000D03*
X75350000Y-66200000D03*
X75100000Y-70950000D03*
X84750000Y-73200000D03*
%TO.N,+3V3*%
X65720000Y-81000000D03*
X63220000Y-76300000D03*
%TO.N,/MAG_CS*%
X58500000Y-40400000D03*
%TO.N,/SCK*%
X47100000Y-34450000D03*
X46250000Y-32750000D03*
%TO.N,/IMU_CS*%
X59250000Y-39750000D03*
%TO.N,/IMU_INT*%
X60600000Y-36950000D03*
X53650000Y-33850000D03*
%TO.N,/SD_DET*%
X69000000Y-76200000D03*
%TO.N,/SD_DAT2*%
X67300000Y-75900000D03*
%TO.N,/SD_DAT3*%
X67800000Y-75950000D03*
%TO.N,/SD_CMD*%
X68250000Y-76450000D03*
%TO.N,/SD_CLK*%
X68224855Y-75737572D03*
%TO.N,/SD_DAT0*%
X59450000Y-69700000D03*
%TO.N,/SD_DAT1*%
X59950000Y-69550000D03*
%TO.N,+3V3*%
X74325001Y-76425000D03*
X69425000Y-76524999D03*
X70850000Y-71950000D03*
X48700000Y-50950000D03*
%TO.N,GND*%
X50100001Y-49150000D03*
%TO.N,+3V3*%
X49900000Y-49950000D03*
%TO.N,GND*%
X49300000Y-50150000D03*
%TO.N,+3V3*%
X48700000Y-57150000D03*
%TO.N,GND*%
X49112428Y-57574855D03*
%TO.N,+3V3*%
X51300000Y-59750000D03*
%TO.N,GND*%
X51700000Y-60150000D03*
%TO.N,+3V3*%
X56300000Y-64750000D03*
%TO.N,GND*%
X73500000Y-65150000D03*
%TO.N,+3V3*%
X73900000Y-64750000D03*
%TO.N,GND*%
X55700001Y-64350000D03*
%TO.N,/VLXSMPS*%
X77500000Y-47150000D03*
%TO.N,Net-(U2-PDR_ON)*%
X81835878Y-56814122D03*
%TO.N,GND*%
X78300000Y-47750000D03*
%TO.N,Net-(C13-Pad1)*%
X80900000Y-57750000D03*
%TO.N,+3V3*%
X82171756Y-56478244D03*
%TO.N,/VDDSMPS*%
X77100000Y-46550000D03*
%TO.N,GND*%
X81500000Y-57150000D03*
X75700000Y-49550000D03*
%TO.N,/VDDA*%
X68500000Y-38150000D03*
%TO.N,+3V3*%
X65500000Y-38350000D03*
%TO.N,GND*%
X54700000Y-63550000D03*
X58100000Y-66950000D03*
%TO.N,+3V3*%
X58900000Y-67550000D03*
%TO.N,GND*%
X53912428Y-45525145D03*
X65300000Y-36100000D03*
%TO.N,+3V3*%
X61900001Y-37950000D03*
%TO.N,GND*%
X62300000Y-37550000D03*
%TO.N,+3V3*%
X65699999Y-37350000D03*
X73900000Y-43550000D03*
X80299999Y-49750000D03*
%TO.N,GND*%
X80512428Y-50174855D03*
X76800000Y-50650000D03*
%TO.N,+3V3*%
X76124855Y-49762428D03*
%TO.N,GND*%
X74500000Y-44150000D03*
X82900000Y-55549999D03*
%TO.N,Net-(C14-Pad1)*%
X67100000Y-71550000D03*
%TO.N,+3V3*%
X67700000Y-70749999D03*
%TO.N,GND*%
X68500000Y-70150000D03*
%TO.N,/QSPI_IO1*%
X70700000Y-43850000D03*
%TO.N,/QSPI_CLK*%
X70200000Y-43550000D03*
%TO.N,/QSPI_IO2*%
X70800000Y-47085771D03*
%TO.N,/QSPI_IO0*%
X68362578Y-47587421D03*
%TO.N,/QSPI_IO3*%
X71412579Y-45337421D03*
%TO.N,/FLASH_CS*%
X59300000Y-63650000D03*
%TO.N,Net-(U2-BOOT0)*%
X77499999Y-57850000D03*
%TO.N,Net-(SW2-B)*%
X78500000Y-60250000D03*
%TO.N,+3V3*%
X55700000Y-43750000D03*
%TO.N,GND*%
X56124855Y-43537573D03*
%TO.N,+3V3*%
X60700000Y-69349999D03*
X53700000Y-45950000D03*
%TO.N,GND*%
X62900000Y-68200000D03*
X76387572Y-62274855D03*
%TO.N,+3V3*%
X76600000Y-61850000D03*
%TO.N,GND*%
X51050001Y-78700000D03*
%TO.N,/VDD12DSI*%
X54300001Y-62950000D03*
%TO.N,GND*%
X69500000Y-38950000D03*
%TO.N,Net-(U2-VREF+)*%
X69100000Y-38550001D03*
%TO.N,+3V3*%
X69410928Y-44935771D03*
X73710928Y-47135771D03*
X73810928Y-37535770D03*
%TO.N,/IMU_CS*%
X49800000Y-29450000D03*
%TO.N,+3V3*%
X50700000Y-32650000D03*
%TO.N,GND*%
X49400000Y-32550000D03*
%TO.N,+3V3*%
X48500000Y-32650000D03*
X57500000Y-31050000D03*
%TO.N,GND*%
X60000000Y-108300000D03*
%TO.N,+3V3*%
X63700000Y-108000000D03*
%TO.N,Net-(ARM1-Pin_2)*%
X49200000Y-105100000D03*
%TO.N,GND*%
X49170000Y-41550000D03*
%TO.N,+3V3*%
X49330000Y-38150000D03*
%TO.N,GND*%
X50200000Y-40050000D03*
%TO.N,+3V3*%
X49830000Y-39450000D03*
%TO.N,Net-(U3-C1)*%
X48130000Y-41050000D03*
%TO.N,+3V3*%
X46430000Y-39550000D03*
%TO.N,/MAG_CS*%
X47130000Y-39550000D03*
%TO.N,+3V3*%
X53925000Y-35625000D03*
X54025000Y-38125000D03*
%TO.N,/ALT_CS*%
X53925000Y-39225000D03*
D23*
%TO.N,+5V*%
X57800000Y-92200000D03*
%TO.N,+3V3*%
X63000000Y-101300000D03*
X58600000Y-100400000D03*
X58400000Y-102300000D03*
D22*
%TO.N,Net-(NEOPIX1-DIN)*%
X76505635Y-40812132D03*
%TO.N,+5V*%
X75586396Y-40034315D03*
%TD*%
%TA.AperFunction,Conductor*%
%TO.N,GND*%
G36*
X89486613Y-20513387D02*
G01*
X89499500Y-20544500D01*
X89499500Y-119455500D01*
X89486613Y-119486613D01*
X89455500Y-119499500D01*
X40544500Y-119499500D01*
X40513387Y-119486613D01*
X40500500Y-119455500D01*
X40500500Y-115347369D01*
X49059500Y-115347369D01*
X49059500Y-115532631D01*
X49071168Y-115591289D01*
X49095643Y-115714334D01*
X49166539Y-115885494D01*
X49166538Y-115885494D01*
X49268997Y-116038833D01*
X49269466Y-116039534D01*
X49400466Y-116170534D01*
X49452046Y-116204999D01*
X49554505Y-116273461D01*
X49625401Y-116302826D01*
X49725666Y-116344357D01*
X49907369Y-116380500D01*
X49907372Y-116380500D01*
X50092627Y-116380500D01*
X50092631Y-116380500D01*
X50274334Y-116344357D01*
X50445494Y-116273461D01*
X50599534Y-116170534D01*
X50730534Y-116039534D01*
X50833461Y-115885494D01*
X50904357Y-115714334D01*
X50940500Y-115532631D01*
X50940500Y-115347369D01*
X52659501Y-115347369D01*
X52659501Y-115532631D01*
X52671169Y-115591289D01*
X52695644Y-115714334D01*
X52766540Y-115885494D01*
X52766539Y-115885494D01*
X52868998Y-116038833D01*
X52869467Y-116039534D01*
X53000467Y-116170534D01*
X53052047Y-116204999D01*
X53154506Y-116273461D01*
X53225402Y-116302826D01*
X53325667Y-116344357D01*
X53507370Y-116380500D01*
X53507373Y-116380500D01*
X53692628Y-116380500D01*
X53692632Y-116380500D01*
X53874335Y-116344357D01*
X54045495Y-116273461D01*
X54199535Y-116170534D01*
X54330535Y-116039534D01*
X54433462Y-115885494D01*
X54504358Y-115714334D01*
X54540501Y-115532631D01*
X54540501Y-115347369D01*
X56259500Y-115347369D01*
X56259500Y-115532631D01*
X56271168Y-115591289D01*
X56295643Y-115714334D01*
X56366539Y-115885494D01*
X56366538Y-115885494D01*
X56468997Y-116038833D01*
X56469466Y-116039534D01*
X56600466Y-116170534D01*
X56652046Y-116204999D01*
X56754505Y-116273461D01*
X56825401Y-116302826D01*
X56925666Y-116344357D01*
X57107369Y-116380500D01*
X57107372Y-116380500D01*
X57292627Y-116380500D01*
X57292631Y-116380500D01*
X57474334Y-116344357D01*
X57645494Y-116273461D01*
X57799534Y-116170534D01*
X57930534Y-116039534D01*
X58033461Y-115885494D01*
X58104357Y-115714334D01*
X58140500Y-115532631D01*
X58140500Y-115347369D01*
X59859499Y-115347369D01*
X59859499Y-115532631D01*
X59871167Y-115591289D01*
X59895642Y-115714334D01*
X59966538Y-115885494D01*
X59966537Y-115885494D01*
X60068996Y-116038833D01*
X60069465Y-116039534D01*
X60200465Y-116170534D01*
X60252045Y-116204999D01*
X60354504Y-116273461D01*
X60425400Y-116302826D01*
X60525665Y-116344357D01*
X60707368Y-116380500D01*
X60707371Y-116380500D01*
X60892626Y-116380500D01*
X60892630Y-116380500D01*
X61074333Y-116344357D01*
X61245493Y-116273461D01*
X61399533Y-116170534D01*
X61530533Y-116039534D01*
X61633460Y-115885494D01*
X61642785Y-115862981D01*
X72909500Y-115862981D01*
X72909500Y-116137019D01*
X72921423Y-116227583D01*
X72945269Y-116408713D01*
X72992553Y-116585177D01*
X73016195Y-116673411D01*
X73121064Y-116926589D01*
X73258083Y-117163912D01*
X73424906Y-117381320D01*
X73618680Y-117575094D01*
X73836088Y-117741917D01*
X74073411Y-117878936D01*
X74326589Y-117983805D01*
X74591289Y-118054731D01*
X74862981Y-118090500D01*
X75137019Y-118090500D01*
X75408711Y-118054731D01*
X75673411Y-117983805D01*
X75926589Y-117878936D01*
X76163912Y-117741917D01*
X76381320Y-117575094D01*
X76575094Y-117381320D01*
X76741917Y-117163912D01*
X76878936Y-116926589D01*
X76983805Y-116673411D01*
X77054731Y-116408711D01*
X77090500Y-116137019D01*
X77090500Y-115862981D01*
X77054731Y-115591289D01*
X76983805Y-115326589D01*
X76878936Y-115073411D01*
X76741917Y-114836088D01*
X76575094Y-114618680D01*
X76381320Y-114424906D01*
X76163912Y-114258083D01*
X75926589Y-114121064D01*
X75673411Y-114016195D01*
X75585177Y-113992553D01*
X75408713Y-113945269D01*
X75137019Y-113909500D01*
X74862981Y-113909500D01*
X74591286Y-113945269D01*
X74326589Y-114016195D01*
X74073412Y-114121063D01*
X73836089Y-114258082D01*
X73618684Y-114424902D01*
X73424902Y-114618684D01*
X73258082Y-114836089D01*
X73121063Y-115073412D01*
X73016195Y-115326589D01*
X72945269Y-115591286D01*
X72945269Y-115591289D01*
X72909500Y-115862981D01*
X61642785Y-115862981D01*
X61704356Y-115714334D01*
X61740499Y-115532631D01*
X61740499Y-115347369D01*
X61704356Y-115165666D01*
X61633460Y-114994506D01*
X61633459Y-114994505D01*
X61633460Y-114994505D01*
X61530534Y-114840468D01*
X61530533Y-114840466D01*
X61399533Y-114709466D01*
X61398832Y-114708997D01*
X61245493Y-114606538D01*
X61074333Y-114535643D01*
X60892630Y-114499500D01*
X60707368Y-114499500D01*
X60571090Y-114526607D01*
X60525664Y-114535643D01*
X60354504Y-114606538D01*
X60200467Y-114709464D01*
X60069463Y-114840468D01*
X59966537Y-114994505D01*
X59895642Y-115165665D01*
X59895642Y-115165666D01*
X59859499Y-115347369D01*
X58140500Y-115347369D01*
X58104357Y-115165666D01*
X58033461Y-114994506D01*
X58033460Y-114994505D01*
X58033461Y-114994505D01*
X57930535Y-114840468D01*
X57930534Y-114840466D01*
X57799534Y-114709466D01*
X57798833Y-114708997D01*
X57645494Y-114606538D01*
X57474334Y-114535643D01*
X57292631Y-114499500D01*
X57107369Y-114499500D01*
X56971091Y-114526607D01*
X56925665Y-114535643D01*
X56754505Y-114606538D01*
X56600468Y-114709464D01*
X56469464Y-114840468D01*
X56366538Y-114994505D01*
X56295643Y-115165665D01*
X56295643Y-115165666D01*
X56259500Y-115347369D01*
X54540501Y-115347369D01*
X54504358Y-115165666D01*
X54433462Y-114994506D01*
X54433461Y-114994505D01*
X54433462Y-114994505D01*
X54330536Y-114840468D01*
X54330535Y-114840466D01*
X54199535Y-114709466D01*
X54198834Y-114708997D01*
X54045495Y-114606538D01*
X53874335Y-114535643D01*
X53692632Y-114499500D01*
X53507370Y-114499500D01*
X53371092Y-114526607D01*
X53325666Y-114535643D01*
X53154506Y-114606538D01*
X53000469Y-114709464D01*
X52869465Y-114840468D01*
X52766539Y-114994505D01*
X52695644Y-115165665D01*
X52695644Y-115165666D01*
X52659501Y-115347369D01*
X50940500Y-115347369D01*
X50904357Y-115165666D01*
X50833461Y-114994506D01*
X50833460Y-114994505D01*
X50833461Y-114994505D01*
X50730535Y-114840468D01*
X50730534Y-114840466D01*
X50599534Y-114709466D01*
X50598833Y-114708997D01*
X50445494Y-114606538D01*
X50274334Y-114535643D01*
X50092631Y-114499500D01*
X49907369Y-114499500D01*
X49771091Y-114526607D01*
X49725665Y-114535643D01*
X49554505Y-114606538D01*
X49400468Y-114709464D01*
X49269464Y-114840468D01*
X49166538Y-114994505D01*
X49095643Y-115165665D01*
X49095643Y-115165666D01*
X49059500Y-115347369D01*
X40500500Y-115347369D01*
X40500500Y-112041087D01*
X49059500Y-112041087D01*
X49059500Y-112041088D01*
X49059500Y-112041090D01*
X49059500Y-113758907D01*
X49059501Y-113758914D01*
X49064750Y-113785309D01*
X49064750Y-113785310D01*
X49064751Y-113785311D01*
X49084753Y-113815247D01*
X49114689Y-113835249D01*
X49141087Y-113840500D01*
X50858912Y-113840499D01*
X50885311Y-113835249D01*
X50915247Y-113815247D01*
X50935249Y-113785311D01*
X50940500Y-113758913D01*
X50940499Y-112041088D01*
X50940499Y-112041087D01*
X52659501Y-112041087D01*
X52659501Y-112041088D01*
X52659501Y-112041090D01*
X52659501Y-113758907D01*
X52659502Y-113758914D01*
X52664751Y-113785309D01*
X52664751Y-113785310D01*
X52664752Y-113785311D01*
X52684754Y-113815247D01*
X52714690Y-113835249D01*
X52741088Y-113840500D01*
X54458913Y-113840499D01*
X54485312Y-113835249D01*
X54515248Y-113815247D01*
X54535250Y-113785311D01*
X54540501Y-113758913D01*
X54540500Y-112041088D01*
X54540500Y-112041087D01*
X56259500Y-112041087D01*
X56259500Y-112041088D01*
X56259500Y-112041090D01*
X56259500Y-113758907D01*
X56259501Y-113758914D01*
X56264750Y-113785309D01*
X56264750Y-113785310D01*
X56264751Y-113785311D01*
X56284753Y-113815247D01*
X56314689Y-113835249D01*
X56341087Y-113840500D01*
X58058912Y-113840499D01*
X58085311Y-113835249D01*
X58115247Y-113815247D01*
X58135249Y-113785311D01*
X58140500Y-113758913D01*
X58140499Y-112041088D01*
X58140499Y-112041087D01*
X59859499Y-112041087D01*
X59859499Y-112041088D01*
X59859499Y-112041090D01*
X59859499Y-113758907D01*
X59859500Y-113758914D01*
X59864749Y-113785309D01*
X59864749Y-113785310D01*
X59864750Y-113785311D01*
X59884752Y-113815247D01*
X59914688Y-113835249D01*
X59941086Y-113840500D01*
X61658911Y-113840499D01*
X61685310Y-113835249D01*
X61715246Y-113815247D01*
X61735248Y-113785311D01*
X61740499Y-113758913D01*
X61740498Y-112041088D01*
X61735248Y-112014689D01*
X61715246Y-111984753D01*
X61685310Y-111964751D01*
X61658912Y-111959500D01*
X61658908Y-111959500D01*
X59941091Y-111959500D01*
X59941084Y-111959501D01*
X59914689Y-111964750D01*
X59914688Y-111964750D01*
X59884753Y-111984752D01*
X59884749Y-111984756D01*
X59864750Y-112014688D01*
X59864750Y-112014689D01*
X59859499Y-112041087D01*
X58140499Y-112041087D01*
X58135249Y-112014689D01*
X58115247Y-111984753D01*
X58085311Y-111964751D01*
X58058913Y-111959500D01*
X58058909Y-111959500D01*
X56341092Y-111959500D01*
X56341085Y-111959501D01*
X56314690Y-111964750D01*
X56314689Y-111964750D01*
X56284754Y-111984752D01*
X56284750Y-111984756D01*
X56264751Y-112014688D01*
X56264751Y-112014689D01*
X56259500Y-112041087D01*
X54540500Y-112041087D01*
X54535250Y-112014689D01*
X54515248Y-111984753D01*
X54485312Y-111964751D01*
X54458914Y-111959500D01*
X54458910Y-111959500D01*
X52741093Y-111959500D01*
X52741086Y-111959501D01*
X52714691Y-111964750D01*
X52714690Y-111964750D01*
X52684755Y-111984752D01*
X52684751Y-111984756D01*
X52664752Y-112014688D01*
X52664752Y-112014689D01*
X52659501Y-112041087D01*
X50940499Y-112041087D01*
X50935249Y-112014689D01*
X50915247Y-111984753D01*
X50885311Y-111964751D01*
X50858913Y-111959500D01*
X50858909Y-111959500D01*
X49141092Y-111959500D01*
X49141085Y-111959501D01*
X49114690Y-111964750D01*
X49114689Y-111964750D01*
X49084754Y-111984752D01*
X49084750Y-111984756D01*
X49064751Y-112014688D01*
X49064751Y-112014689D01*
X49059500Y-112041087D01*
X40500500Y-112041087D01*
X40500500Y-110110243D01*
X42859500Y-110110243D01*
X42859500Y-110289756D01*
X42859501Y-110289769D01*
X42887581Y-110467061D01*
X42887585Y-110467077D01*
X42943054Y-110637792D01*
X42943058Y-110637803D01*
X43024558Y-110797754D01*
X43130070Y-110942980D01*
X43130072Y-110942982D01*
X43130075Y-110942986D01*
X43257014Y-111069925D01*
X43257017Y-111069927D01*
X43257019Y-111069929D01*
X43402245Y-111175441D01*
X43402248Y-111175443D01*
X43562200Y-111256943D01*
X43651679Y-111286016D01*
X43732922Y-111312414D01*
X43732925Y-111312414D01*
X43732932Y-111312417D01*
X43910241Y-111340500D01*
X43910244Y-111340500D01*
X44089756Y-111340500D01*
X44089759Y-111340500D01*
X44267068Y-111312417D01*
X44437800Y-111256943D01*
X44597752Y-111175443D01*
X44742986Y-111069925D01*
X44869925Y-110942986D01*
X44975443Y-110797752D01*
X45056943Y-110637800D01*
X45112417Y-110467068D01*
X45140500Y-110289759D01*
X45140500Y-110110241D01*
X45112417Y-109932932D01*
X45056943Y-109762200D01*
X44975443Y-109602248D01*
X44969264Y-109593743D01*
X44969260Y-109593738D01*
X73509500Y-109593738D01*
X73509500Y-109593739D01*
X73509500Y-109593741D01*
X73509500Y-111211558D01*
X73509501Y-111211565D01*
X73514750Y-111237960D01*
X73514750Y-111237961D01*
X73514751Y-111237962D01*
X73534753Y-111267898D01*
X73564689Y-111287900D01*
X73591087Y-111293151D01*
X75208912Y-111293150D01*
X75235311Y-111287900D01*
X75265247Y-111267898D01*
X75285249Y-111237962D01*
X75290500Y-111211564D01*
X75290499Y-109593739D01*
X75285249Y-109567340D01*
X75265247Y-109537404D01*
X75235311Y-109517402D01*
X75208913Y-109512151D01*
X75208909Y-109512151D01*
X73591092Y-109512151D01*
X73591085Y-109512152D01*
X73564690Y-109517401D01*
X73564689Y-109517401D01*
X73534754Y-109537403D01*
X73534750Y-109537407D01*
X73514751Y-109567339D01*
X73514751Y-109567340D01*
X73509500Y-109593738D01*
X44969260Y-109593738D01*
X44869929Y-109457019D01*
X44869927Y-109457017D01*
X44869925Y-109457014D01*
X44742986Y-109330075D01*
X44742982Y-109330072D01*
X44742980Y-109330070D01*
X44597754Y-109224558D01*
X44437803Y-109143058D01*
X44437792Y-109143054D01*
X44267077Y-109087585D01*
X44267061Y-109087581D01*
X44106286Y-109062117D01*
X44089769Y-109059501D01*
X44089761Y-109059500D01*
X44089759Y-109059500D01*
X43910241Y-109059500D01*
X43910238Y-109059500D01*
X43910230Y-109059501D01*
X43732938Y-109087581D01*
X43732922Y-109087585D01*
X43562207Y-109143054D01*
X43562196Y-109143058D01*
X43402245Y-109224558D01*
X43257019Y-109330070D01*
X43130070Y-109457019D01*
X43024558Y-109602245D01*
X42943058Y-109762196D01*
X42943054Y-109762207D01*
X42887585Y-109932922D01*
X42887581Y-109932938D01*
X42859501Y-110110230D01*
X42859500Y-110110243D01*
X40500500Y-110110243D01*
X40500500Y-109020099D01*
X84859500Y-109020099D01*
X84859500Y-110699899D01*
X84866028Y-110749486D01*
X84866028Y-110749487D01*
X84916776Y-110858315D01*
X85001685Y-110943224D01*
X85110513Y-110993972D01*
X85160099Y-111000500D01*
X86839900Y-111000499D01*
X86889487Y-110993972D01*
X86998315Y-110943224D01*
X87083224Y-110858315D01*
X87133972Y-110749487D01*
X87140500Y-110699901D01*
X87140499Y-109020100D01*
X87133972Y-108970513D01*
X87083224Y-108861685D01*
X86998315Y-108776776D01*
X86889487Y-108726028D01*
X86839901Y-108719500D01*
X86839900Y-108719500D01*
X85160100Y-108719500D01*
X85110512Y-108726028D01*
X85001684Y-108776776D01*
X84916776Y-108861684D01*
X84866028Y-108970513D01*
X84859500Y-109020099D01*
X40500500Y-109020099D01*
X40500500Y-107570243D01*
X42859500Y-107570243D01*
X42859500Y-107749756D01*
X42859501Y-107749769D01*
X42887581Y-107927061D01*
X42887585Y-107927077D01*
X42943054Y-108097792D01*
X42943058Y-108097803D01*
X43024558Y-108257754D01*
X43130070Y-108402980D01*
X43130072Y-108402982D01*
X43130075Y-108402986D01*
X43257014Y-108529925D01*
X43257017Y-108529927D01*
X43257019Y-108529929D01*
X43402245Y-108635441D01*
X43402248Y-108635443D01*
X43562200Y-108716943D01*
X43590161Y-108726028D01*
X43732922Y-108772414D01*
X43732925Y-108772414D01*
X43732932Y-108772417D01*
X43910241Y-108800500D01*
X43910244Y-108800500D01*
X44089756Y-108800500D01*
X44089759Y-108800500D01*
X44267068Y-108772417D01*
X44437800Y-108716943D01*
X44597752Y-108635443D01*
X44742986Y-108529925D01*
X44869925Y-108402986D01*
X44975443Y-108257752D01*
X45056943Y-108097800D01*
X45105879Y-107947190D01*
X45105879Y-107947189D01*
X63434500Y-107947189D01*
X63434500Y-108052811D01*
X63474920Y-108150393D01*
X63549607Y-108225080D01*
X63647189Y-108265500D01*
X63647190Y-108265500D01*
X63752810Y-108265500D01*
X63752811Y-108265500D01*
X63850393Y-108225080D01*
X63925080Y-108150393D01*
X63965500Y-108052811D01*
X63965500Y-107947189D01*
X63925080Y-107849607D01*
X63850393Y-107774920D01*
X63752811Y-107734500D01*
X63647189Y-107734500D01*
X63549607Y-107774920D01*
X63474920Y-107849607D01*
X63434500Y-107947189D01*
X45105879Y-107947189D01*
X45111706Y-107929258D01*
X45111706Y-107929256D01*
X45112417Y-107927068D01*
X45140500Y-107749759D01*
X45140500Y-107570241D01*
X45112417Y-107392932D01*
X45059556Y-107230243D01*
X84859500Y-107230243D01*
X84859500Y-107409756D01*
X84859501Y-107409769D01*
X84887581Y-107587061D01*
X84887585Y-107587077D01*
X84943054Y-107757792D01*
X84943058Y-107757803D01*
X85024558Y-107917754D01*
X85130070Y-108062980D01*
X85130072Y-108062982D01*
X85130075Y-108062986D01*
X85257014Y-108189925D01*
X85257017Y-108189927D01*
X85257019Y-108189929D01*
X85402245Y-108295441D01*
X85402248Y-108295443D01*
X85562200Y-108376943D01*
X85642334Y-108402980D01*
X85732922Y-108432414D01*
X85732925Y-108432414D01*
X85732932Y-108432417D01*
X85910241Y-108460500D01*
X85910244Y-108460500D01*
X86089756Y-108460500D01*
X86089759Y-108460500D01*
X86267068Y-108432417D01*
X86437800Y-108376943D01*
X86597752Y-108295443D01*
X86742986Y-108189925D01*
X86869925Y-108062986D01*
X86975443Y-107917752D01*
X87056943Y-107757800D01*
X87112417Y-107587068D01*
X87140500Y-107409759D01*
X87140500Y-107230241D01*
X87112417Y-107052932D01*
X87056943Y-106882200D01*
X86975443Y-106722248D01*
X86888847Y-106603058D01*
X86869929Y-106577019D01*
X86869927Y-106577017D01*
X86869925Y-106577014D01*
X86742986Y-106450075D01*
X86742982Y-106450072D01*
X86742980Y-106450070D01*
X86597754Y-106344558D01*
X86437803Y-106263058D01*
X86437792Y-106263054D01*
X86267077Y-106207585D01*
X86267061Y-106207581D01*
X86089769Y-106179501D01*
X86089761Y-106179500D01*
X86089759Y-106179500D01*
X85910241Y-106179500D01*
X85910238Y-106179500D01*
X85910230Y-106179501D01*
X85732938Y-106207581D01*
X85732922Y-106207585D01*
X85562207Y-106263054D01*
X85562196Y-106263058D01*
X85402245Y-106344558D01*
X85257019Y-106450070D01*
X85130070Y-106577019D01*
X85024558Y-106722245D01*
X84943058Y-106882196D01*
X84943054Y-106882207D01*
X84887585Y-107052922D01*
X84887581Y-107052938D01*
X84859501Y-107230230D01*
X84859500Y-107230243D01*
X45059556Y-107230243D01*
X45056943Y-107222200D01*
X44975443Y-107062248D01*
X44869925Y-106917014D01*
X44742986Y-106790075D01*
X44742982Y-106790072D01*
X44742980Y-106790070D01*
X44597754Y-106684558D01*
X44437803Y-106603058D01*
X44437792Y-106603054D01*
X44267077Y-106547585D01*
X44267061Y-106547581D01*
X44089769Y-106519501D01*
X44089761Y-106519500D01*
X44089759Y-106519500D01*
X43910241Y-106519500D01*
X43910238Y-106519500D01*
X43910230Y-106519501D01*
X43732938Y-106547581D01*
X43732922Y-106547585D01*
X43562207Y-106603054D01*
X43562196Y-106603058D01*
X43402245Y-106684558D01*
X43257019Y-106790070D01*
X43130070Y-106917019D01*
X43024558Y-107062245D01*
X42943058Y-107222196D01*
X42943054Y-107222207D01*
X42887585Y-107392922D01*
X42887581Y-107392938D01*
X42859501Y-107570230D01*
X42859500Y-107570243D01*
X40500500Y-107570243D01*
X40500500Y-105030243D01*
X42859500Y-105030243D01*
X42859500Y-105209756D01*
X42859501Y-105209769D01*
X42887581Y-105387061D01*
X42887585Y-105387077D01*
X42943054Y-105557792D01*
X42943058Y-105557803D01*
X43024558Y-105717754D01*
X43130070Y-105862980D01*
X43130072Y-105862982D01*
X43130075Y-105862986D01*
X43257014Y-105989925D01*
X43257017Y-105989927D01*
X43257019Y-105989929D01*
X43402245Y-106095441D01*
X43402248Y-106095443D01*
X43562200Y-106176943D01*
X43651679Y-106206016D01*
X43732922Y-106232414D01*
X43732925Y-106232414D01*
X43732932Y-106232417D01*
X43910241Y-106260500D01*
X43910244Y-106260500D01*
X44089756Y-106260500D01*
X44089759Y-106260500D01*
X44267068Y-106232417D01*
X44437800Y-106176943D01*
X44597752Y-106095443D01*
X44742986Y-105989925D01*
X44869925Y-105862986D01*
X44975443Y-105717752D01*
X45056943Y-105557800D01*
X45112417Y-105387068D01*
X45140500Y-105209759D01*
X45140500Y-105047189D01*
X48934500Y-105047189D01*
X48934500Y-105152811D01*
X48974920Y-105250393D01*
X49049607Y-105325080D01*
X49147189Y-105365500D01*
X49147190Y-105365500D01*
X49252810Y-105365500D01*
X49252811Y-105365500D01*
X49297017Y-105347189D01*
X69724500Y-105347189D01*
X69724500Y-105452811D01*
X69764920Y-105550393D01*
X69839607Y-105625080D01*
X69937189Y-105665500D01*
X69937190Y-105665500D01*
X70042810Y-105665500D01*
X70042811Y-105665500D01*
X70140393Y-105625080D01*
X70215080Y-105550393D01*
X70255500Y-105452811D01*
X70255500Y-105347189D01*
X70215080Y-105249607D01*
X70140393Y-105174920D01*
X70042811Y-105134500D01*
X69937189Y-105134500D01*
X69839607Y-105174920D01*
X69764920Y-105249607D01*
X69724500Y-105347189D01*
X49297017Y-105347189D01*
X49350393Y-105325080D01*
X49425080Y-105250393D01*
X49465500Y-105152811D01*
X49465500Y-105047189D01*
X49425080Y-104949607D01*
X49350393Y-104874920D01*
X49252811Y-104834500D01*
X49147189Y-104834500D01*
X49049607Y-104874920D01*
X48974920Y-104949607D01*
X48934500Y-105047189D01*
X45140500Y-105047189D01*
X45140500Y-105030241D01*
X45112417Y-104852932D01*
X45056943Y-104682200D01*
X45039104Y-104647189D01*
X67424500Y-104647189D01*
X67424500Y-104752811D01*
X67464920Y-104850393D01*
X67539607Y-104925080D01*
X67637189Y-104965500D01*
X67637190Y-104965500D01*
X67742810Y-104965500D01*
X67742811Y-104965500D01*
X67840393Y-104925080D01*
X67915080Y-104850393D01*
X67955500Y-104752811D01*
X67955500Y-104690243D01*
X84859500Y-104690243D01*
X84859500Y-104869756D01*
X84859501Y-104869769D01*
X84887581Y-105047061D01*
X84887585Y-105047077D01*
X84943054Y-105217792D01*
X84943058Y-105217803D01*
X85024558Y-105377754D01*
X85130070Y-105522980D01*
X85130072Y-105522982D01*
X85130075Y-105522986D01*
X85257014Y-105649925D01*
X85257017Y-105649927D01*
X85257019Y-105649929D01*
X85278451Y-105665500D01*
X85402248Y-105755443D01*
X85562200Y-105836943D01*
X85642334Y-105862980D01*
X85732922Y-105892414D01*
X85732925Y-105892414D01*
X85732932Y-105892417D01*
X85910241Y-105920500D01*
X85910244Y-105920500D01*
X86089756Y-105920500D01*
X86089759Y-105920500D01*
X86267068Y-105892417D01*
X86437800Y-105836943D01*
X86597752Y-105755443D01*
X86742986Y-105649925D01*
X86869925Y-105522986D01*
X86975443Y-105377752D01*
X87056943Y-105217800D01*
X87112417Y-105047068D01*
X87140500Y-104869759D01*
X87140500Y-104690241D01*
X87112417Y-104512932D01*
X87056943Y-104342200D01*
X86975443Y-104182248D01*
X86888847Y-104063058D01*
X86869929Y-104037019D01*
X86869927Y-104037017D01*
X86869925Y-104037014D01*
X86742986Y-103910075D01*
X86742982Y-103910072D01*
X86742980Y-103910070D01*
X86597754Y-103804558D01*
X86437803Y-103723058D01*
X86437792Y-103723054D01*
X86267077Y-103667585D01*
X86267061Y-103667581D01*
X86089769Y-103639501D01*
X86089761Y-103639500D01*
X86089759Y-103639500D01*
X85910241Y-103639500D01*
X85910238Y-103639500D01*
X85910230Y-103639501D01*
X85732938Y-103667581D01*
X85732922Y-103667585D01*
X85562207Y-103723054D01*
X85562196Y-103723058D01*
X85402245Y-103804558D01*
X85257019Y-103910070D01*
X85130070Y-104037019D01*
X85024558Y-104182245D01*
X84943058Y-104342196D01*
X84943054Y-104342207D01*
X84887585Y-104512922D01*
X84887581Y-104512938D01*
X84859501Y-104690230D01*
X84859500Y-104690243D01*
X67955500Y-104690243D01*
X67955500Y-104647189D01*
X67915080Y-104549607D01*
X67840393Y-104474920D01*
X67742811Y-104434500D01*
X67637189Y-104434500D01*
X67539607Y-104474920D01*
X67464920Y-104549607D01*
X67424500Y-104647189D01*
X45039104Y-104647189D01*
X44975443Y-104522248D01*
X44968667Y-104512922D01*
X44869929Y-104377019D01*
X44869927Y-104377017D01*
X44869925Y-104377014D01*
X44742986Y-104250075D01*
X44742982Y-104250072D01*
X44742980Y-104250070D01*
X44597754Y-104144558D01*
X44437803Y-104063058D01*
X44437792Y-104063054D01*
X44267077Y-104007585D01*
X44267061Y-104007581D01*
X44089769Y-103979501D01*
X44089761Y-103979500D01*
X44089759Y-103979500D01*
X43910241Y-103979500D01*
X43910238Y-103979500D01*
X43910230Y-103979501D01*
X43732938Y-104007581D01*
X43732922Y-104007585D01*
X43562207Y-104063054D01*
X43562196Y-104063058D01*
X43402245Y-104144558D01*
X43257019Y-104250070D01*
X43130070Y-104377019D01*
X43024558Y-104522245D01*
X42943058Y-104682196D01*
X42943054Y-104682207D01*
X42887585Y-104852922D01*
X42887581Y-104852938D01*
X42859501Y-105030230D01*
X42859500Y-105030243D01*
X40500500Y-105030243D01*
X40500500Y-101740099D01*
X42859500Y-101740099D01*
X42859500Y-103419899D01*
X42866028Y-103469486D01*
X42866028Y-103469487D01*
X42916776Y-103578315D01*
X43001685Y-103663224D01*
X43110513Y-103713972D01*
X43160099Y-103720500D01*
X44839900Y-103720499D01*
X44889487Y-103713972D01*
X44998315Y-103663224D01*
X45083224Y-103578315D01*
X45133972Y-103469487D01*
X45140500Y-103419901D01*
X45140499Y-102248590D01*
X58009500Y-102248590D01*
X58009500Y-102351410D01*
X58028980Y-102424112D01*
X58036111Y-102450725D01*
X58036114Y-102450732D01*
X58087519Y-102539769D01*
X58087520Y-102539770D01*
X58087522Y-102539773D01*
X58160227Y-102612478D01*
X58249272Y-102663888D01*
X58348590Y-102690500D01*
X58348592Y-102690500D01*
X58451408Y-102690500D01*
X58451410Y-102690500D01*
X58550728Y-102663888D01*
X58639773Y-102612478D01*
X58712478Y-102539773D01*
X58763888Y-102450728D01*
X58790500Y-102351410D01*
X58790500Y-102248590D01*
X58764148Y-102150243D01*
X84859500Y-102150243D01*
X84859500Y-102329756D01*
X84859501Y-102329769D01*
X84887581Y-102507061D01*
X84887585Y-102507077D01*
X84943054Y-102677792D01*
X84943058Y-102677803D01*
X85024558Y-102837754D01*
X85130070Y-102982980D01*
X85130072Y-102982982D01*
X85130075Y-102982986D01*
X85257014Y-103109925D01*
X85257017Y-103109927D01*
X85257019Y-103109929D01*
X85402245Y-103215441D01*
X85402248Y-103215443D01*
X85562200Y-103296943D01*
X85651679Y-103326016D01*
X85732922Y-103352414D01*
X85732925Y-103352414D01*
X85732932Y-103352417D01*
X85910241Y-103380500D01*
X85910244Y-103380500D01*
X86089756Y-103380500D01*
X86089759Y-103380500D01*
X86267068Y-103352417D01*
X86437800Y-103296943D01*
X86597752Y-103215443D01*
X86742986Y-103109925D01*
X86869925Y-102982986D01*
X86975443Y-102837752D01*
X87056943Y-102677800D01*
X87112417Y-102507068D01*
X87140500Y-102329759D01*
X87140500Y-102150241D01*
X87112417Y-101972932D01*
X87100453Y-101936112D01*
X87056945Y-101802207D01*
X87056943Y-101802200D01*
X86975443Y-101642248D01*
X86975441Y-101642245D01*
X86869929Y-101497019D01*
X86869927Y-101497017D01*
X86869925Y-101497014D01*
X86742986Y-101370075D01*
X86742982Y-101370072D01*
X86742980Y-101370070D01*
X86597754Y-101264558D01*
X86437803Y-101183058D01*
X86437792Y-101183054D01*
X86267077Y-101127585D01*
X86267061Y-101127581D01*
X86089769Y-101099501D01*
X86089761Y-101099500D01*
X86089759Y-101099500D01*
X85910241Y-101099500D01*
X85910238Y-101099500D01*
X85910230Y-101099501D01*
X85732938Y-101127581D01*
X85732922Y-101127585D01*
X85562207Y-101183054D01*
X85562196Y-101183058D01*
X85402245Y-101264558D01*
X85257019Y-101370070D01*
X85130070Y-101497019D01*
X85024558Y-101642245D01*
X84943058Y-101802196D01*
X84943054Y-101802207D01*
X84887585Y-101972922D01*
X84887581Y-101972938D01*
X84859501Y-102150230D01*
X84859500Y-102150243D01*
X58764148Y-102150243D01*
X58763888Y-102149272D01*
X58712478Y-102060227D01*
X58639773Y-101987522D01*
X58639770Y-101987520D01*
X58639769Y-101987519D01*
X58550732Y-101936114D01*
X58550729Y-101936113D01*
X58550728Y-101936112D01*
X58550726Y-101936111D01*
X58550725Y-101936111D01*
X58524112Y-101928980D01*
X58451410Y-101909500D01*
X58348590Y-101909500D01*
X58295368Y-101923760D01*
X58249274Y-101936111D01*
X58249267Y-101936114D01*
X58160230Y-101987519D01*
X58087519Y-102060230D01*
X58036114Y-102149267D01*
X58036111Y-102149274D01*
X58033264Y-102159900D01*
X58009500Y-102248590D01*
X45140499Y-102248590D01*
X45140499Y-101740100D01*
X45133972Y-101690513D01*
X45083224Y-101581685D01*
X44998315Y-101496776D01*
X44889487Y-101446028D01*
X44839901Y-101439500D01*
X44839900Y-101439500D01*
X43160100Y-101439500D01*
X43110512Y-101446028D01*
X43001684Y-101496776D01*
X42916776Y-101581684D01*
X42866028Y-101690513D01*
X42859500Y-101740099D01*
X40500500Y-101740099D01*
X40500500Y-101248590D01*
X62609500Y-101248590D01*
X62609500Y-101351410D01*
X62628980Y-101424112D01*
X62636111Y-101450725D01*
X62636114Y-101450732D01*
X62687519Y-101539769D01*
X62687520Y-101539770D01*
X62687522Y-101539773D01*
X62760227Y-101612478D01*
X62849272Y-101663888D01*
X62948590Y-101690500D01*
X62948592Y-101690500D01*
X63051408Y-101690500D01*
X63051410Y-101690500D01*
X63150728Y-101663888D01*
X63239773Y-101612478D01*
X63312478Y-101539773D01*
X63363888Y-101450728D01*
X63390500Y-101351410D01*
X63390500Y-101248590D01*
X63363888Y-101149272D01*
X63312478Y-101060227D01*
X63239773Y-100987522D01*
X63239770Y-100987520D01*
X63239769Y-100987519D01*
X63150732Y-100936114D01*
X63150729Y-100936113D01*
X63150728Y-100936112D01*
X63150726Y-100936111D01*
X63150725Y-100936111D01*
X63124112Y-100928980D01*
X63051410Y-100909500D01*
X62948590Y-100909500D01*
X62895368Y-100923760D01*
X62849274Y-100936111D01*
X62849267Y-100936114D01*
X62760230Y-100987519D01*
X62687519Y-101060230D01*
X62636114Y-101149267D01*
X62636112Y-101149272D01*
X62609500Y-101248590D01*
X40500500Y-101248590D01*
X40500500Y-100348590D01*
X58209500Y-100348590D01*
X58209500Y-100451410D01*
X58228980Y-100524112D01*
X58236111Y-100550725D01*
X58236114Y-100550732D01*
X58287519Y-100639769D01*
X58287520Y-100639770D01*
X58287522Y-100639773D01*
X58360227Y-100712478D01*
X58449272Y-100763888D01*
X58548590Y-100790500D01*
X58548592Y-100790500D01*
X58651408Y-100790500D01*
X58651410Y-100790500D01*
X58750728Y-100763888D01*
X58839773Y-100712478D01*
X58912478Y-100639773D01*
X58963888Y-100550728D01*
X58990500Y-100451410D01*
X58990500Y-100348590D01*
X58963888Y-100249272D01*
X58912478Y-100160227D01*
X58839773Y-100087522D01*
X58839770Y-100087520D01*
X58839769Y-100087519D01*
X58750732Y-100036114D01*
X58750729Y-100036113D01*
X58750728Y-100036112D01*
X58750726Y-100036111D01*
X58750725Y-100036111D01*
X58724112Y-100028980D01*
X58651410Y-100009500D01*
X58548590Y-100009500D01*
X58495368Y-100023760D01*
X58449274Y-100036111D01*
X58449267Y-100036114D01*
X58360230Y-100087519D01*
X58287519Y-100160230D01*
X58236114Y-100249267D01*
X58236111Y-100249274D01*
X58223122Y-100297752D01*
X58209500Y-100348590D01*
X40500500Y-100348590D01*
X40500500Y-99947189D01*
X68124500Y-99947189D01*
X68124500Y-100052811D01*
X68164920Y-100150393D01*
X68239607Y-100225080D01*
X68337189Y-100265500D01*
X68337190Y-100265500D01*
X68442810Y-100265500D01*
X68442811Y-100265500D01*
X68540393Y-100225080D01*
X68615080Y-100150393D01*
X68655500Y-100052811D01*
X68655500Y-99947189D01*
X68615080Y-99849607D01*
X68540393Y-99774920D01*
X68442811Y-99734500D01*
X68337189Y-99734500D01*
X68239607Y-99774920D01*
X68164920Y-99849607D01*
X68124500Y-99947189D01*
X40500500Y-99947189D01*
X40500500Y-98707369D01*
X43659500Y-98707369D01*
X43659500Y-98892631D01*
X43672307Y-98957014D01*
X43695643Y-99074334D01*
X43766539Y-99245494D01*
X43766538Y-99245494D01*
X43868997Y-99398833D01*
X43869466Y-99399534D01*
X44000466Y-99530534D01*
X44052046Y-99564999D01*
X44154505Y-99633461D01*
X44215951Y-99658912D01*
X44325666Y-99704357D01*
X44507369Y-99740500D01*
X44507372Y-99740500D01*
X44692627Y-99740500D01*
X44692631Y-99740500D01*
X44874334Y-99704357D01*
X45045494Y-99633461D01*
X45199534Y-99530534D01*
X45330534Y-99399534D01*
X45433461Y-99245494D01*
X45504357Y-99074334D01*
X45540500Y-98892631D01*
X45540500Y-98707369D01*
X45504357Y-98525666D01*
X45433461Y-98354506D01*
X45433460Y-98354505D01*
X45433461Y-98354505D01*
X45341545Y-98216945D01*
X45330534Y-98200466D01*
X45199534Y-98069466D01*
X45058920Y-97975510D01*
X45058919Y-97975509D01*
X45045495Y-97966539D01*
X44984047Y-97941087D01*
X46199500Y-97941087D01*
X46199500Y-97941088D01*
X46199500Y-97941090D01*
X46199500Y-99658907D01*
X46199501Y-99658914D01*
X46204750Y-99685309D01*
X46204750Y-99685310D01*
X46204751Y-99685311D01*
X46224753Y-99715247D01*
X46254689Y-99735249D01*
X46281087Y-99740500D01*
X47998912Y-99740499D01*
X48025311Y-99735249D01*
X48055247Y-99715247D01*
X48075249Y-99685311D01*
X48080500Y-99658913D01*
X48080500Y-99610243D01*
X84859500Y-99610243D01*
X84859500Y-99789756D01*
X84859501Y-99789769D01*
X84887581Y-99967061D01*
X84887585Y-99967077D01*
X84943054Y-100137792D01*
X84943058Y-100137803D01*
X85024558Y-100297754D01*
X85130070Y-100442980D01*
X85130072Y-100442982D01*
X85130075Y-100442986D01*
X85257014Y-100569925D01*
X85257017Y-100569927D01*
X85257019Y-100569929D01*
X85353152Y-100639773D01*
X85402248Y-100675443D01*
X85562200Y-100756943D01*
X85583575Y-100763888D01*
X85732922Y-100812414D01*
X85732925Y-100812414D01*
X85732932Y-100812417D01*
X85910241Y-100840500D01*
X85910244Y-100840500D01*
X86089756Y-100840500D01*
X86089759Y-100840500D01*
X86267068Y-100812417D01*
X86437800Y-100756943D01*
X86597752Y-100675443D01*
X86742986Y-100569925D01*
X86869925Y-100442986D01*
X86975443Y-100297752D01*
X87056943Y-100137800D01*
X87112417Y-99967068D01*
X87140500Y-99789759D01*
X87140500Y-99610241D01*
X87112417Y-99432932D01*
X87101565Y-99399534D01*
X87056945Y-99262207D01*
X87056943Y-99262200D01*
X86975443Y-99102248D01*
X86975441Y-99102245D01*
X86869929Y-98957019D01*
X86869927Y-98957017D01*
X86869925Y-98957014D01*
X86742986Y-98830075D01*
X86742982Y-98830072D01*
X86742980Y-98830070D01*
X86597754Y-98724558D01*
X86437803Y-98643058D01*
X86437792Y-98643054D01*
X86267077Y-98587585D01*
X86267061Y-98587581D01*
X86089769Y-98559501D01*
X86089761Y-98559500D01*
X86089759Y-98559500D01*
X85910241Y-98559500D01*
X85910238Y-98559500D01*
X85910230Y-98559501D01*
X85732938Y-98587581D01*
X85732922Y-98587585D01*
X85562207Y-98643054D01*
X85562196Y-98643058D01*
X85402245Y-98724558D01*
X85257019Y-98830070D01*
X85130070Y-98957019D01*
X85024558Y-99102245D01*
X84943058Y-99262196D01*
X84943054Y-99262207D01*
X84887585Y-99432922D01*
X84887581Y-99432938D01*
X84859501Y-99610230D01*
X84859500Y-99610243D01*
X48080500Y-99610243D01*
X48080499Y-97941088D01*
X48075249Y-97914689D01*
X48055247Y-97884753D01*
X48025311Y-97864751D01*
X47998913Y-97859500D01*
X47998909Y-97859500D01*
X46281092Y-97859500D01*
X46281085Y-97859501D01*
X46254690Y-97864750D01*
X46254689Y-97864750D01*
X46224754Y-97884752D01*
X46224750Y-97884756D01*
X46204751Y-97914688D01*
X46204751Y-97914689D01*
X46199500Y-97941087D01*
X44984047Y-97941087D01*
X44874334Y-97895643D01*
X44692631Y-97859500D01*
X44507369Y-97859500D01*
X44380429Y-97884750D01*
X44325665Y-97895643D01*
X44154505Y-97966538D01*
X44000468Y-98069464D01*
X43869464Y-98200468D01*
X43766538Y-98354505D01*
X43695643Y-98525665D01*
X43695643Y-98525666D01*
X43659500Y-98707369D01*
X40500500Y-98707369D01*
X40500500Y-97070243D01*
X84859500Y-97070243D01*
X84859500Y-97249756D01*
X84859501Y-97249769D01*
X84887581Y-97427061D01*
X84887585Y-97427077D01*
X84943054Y-97597792D01*
X84943058Y-97597803D01*
X85024558Y-97757754D01*
X85130070Y-97902980D01*
X85130072Y-97902982D01*
X85130075Y-97902986D01*
X85257014Y-98029925D01*
X85257017Y-98029927D01*
X85257019Y-98029929D01*
X85402245Y-98135441D01*
X85402248Y-98135443D01*
X85562200Y-98216943D01*
X85651679Y-98246016D01*
X85732922Y-98272414D01*
X85732925Y-98272414D01*
X85732932Y-98272417D01*
X85910241Y-98300500D01*
X85910244Y-98300500D01*
X86089756Y-98300500D01*
X86089759Y-98300500D01*
X86267068Y-98272417D01*
X86437800Y-98216943D01*
X86597752Y-98135443D01*
X86742986Y-98029925D01*
X86869925Y-97902986D01*
X86975443Y-97757752D01*
X87056943Y-97597800D01*
X87112417Y-97427068D01*
X87140500Y-97249759D01*
X87140500Y-97070241D01*
X87112417Y-96892932D01*
X87056943Y-96722200D01*
X86975443Y-96562248D01*
X86869925Y-96417014D01*
X86742986Y-96290075D01*
X86742982Y-96290072D01*
X86742980Y-96290070D01*
X86597754Y-96184558D01*
X86437803Y-96103058D01*
X86437792Y-96103054D01*
X86267077Y-96047585D01*
X86267061Y-96047581D01*
X86089769Y-96019501D01*
X86089761Y-96019500D01*
X86089759Y-96019500D01*
X85910241Y-96019500D01*
X85910238Y-96019500D01*
X85910230Y-96019501D01*
X85732938Y-96047581D01*
X85732922Y-96047585D01*
X85562207Y-96103054D01*
X85562196Y-96103058D01*
X85402245Y-96184558D01*
X85257019Y-96290070D01*
X85130070Y-96417019D01*
X85024558Y-96562245D01*
X84943058Y-96722196D01*
X84943054Y-96722207D01*
X84887585Y-96892922D01*
X84887581Y-96892938D01*
X84859501Y-97070230D01*
X84859500Y-97070243D01*
X40500500Y-97070243D01*
X40500500Y-95107369D01*
X43659500Y-95107369D01*
X43659500Y-95292631D01*
X43695643Y-95474334D01*
X43766539Y-95645494D01*
X43766538Y-95645494D01*
X43824620Y-95732418D01*
X43869466Y-95799534D01*
X44000466Y-95930534D01*
X44052046Y-95964999D01*
X44154505Y-96033461D01*
X44215951Y-96058912D01*
X44325666Y-96104357D01*
X44507369Y-96140500D01*
X44507372Y-96140500D01*
X44692627Y-96140500D01*
X44692631Y-96140500D01*
X44874334Y-96104357D01*
X45045494Y-96033461D01*
X45199534Y-95930534D01*
X45330534Y-95799534D01*
X45433461Y-95645494D01*
X45504357Y-95474334D01*
X45540500Y-95292631D01*
X45540500Y-95107369D01*
X45504357Y-94925666D01*
X45433461Y-94754506D01*
X45433460Y-94754505D01*
X45433461Y-94754505D01*
X45330535Y-94600468D01*
X45330534Y-94600466D01*
X45199534Y-94469466D01*
X45058920Y-94375510D01*
X45058919Y-94375509D01*
X45045495Y-94366539D01*
X44984047Y-94341087D01*
X46199500Y-94341087D01*
X46199500Y-94341088D01*
X46199500Y-94341090D01*
X46199500Y-96058907D01*
X46199501Y-96058914D01*
X46204750Y-96085309D01*
X46204750Y-96085310D01*
X46204751Y-96085311D01*
X46224753Y-96115247D01*
X46254689Y-96135249D01*
X46281087Y-96140500D01*
X47998912Y-96140499D01*
X48025311Y-96135249D01*
X48055247Y-96115247D01*
X48075249Y-96085311D01*
X48080500Y-96058913D01*
X48080499Y-94530243D01*
X84859500Y-94530243D01*
X84859500Y-94709756D01*
X84859501Y-94709769D01*
X84887581Y-94887061D01*
X84887585Y-94887077D01*
X84943054Y-95057792D01*
X84943058Y-95057803D01*
X85024558Y-95217754D01*
X85130070Y-95362980D01*
X85130072Y-95362982D01*
X85130075Y-95362986D01*
X85257014Y-95489925D01*
X85257017Y-95489927D01*
X85257019Y-95489929D01*
X85402245Y-95595441D01*
X85402248Y-95595443D01*
X85562200Y-95676943D01*
X85651679Y-95706016D01*
X85732922Y-95732414D01*
X85732925Y-95732414D01*
X85732932Y-95732417D01*
X85910241Y-95760500D01*
X85910244Y-95760500D01*
X86089756Y-95760500D01*
X86089759Y-95760500D01*
X86267068Y-95732417D01*
X86437800Y-95676943D01*
X86597752Y-95595443D01*
X86742986Y-95489925D01*
X86869925Y-95362986D01*
X86975443Y-95217752D01*
X87056943Y-95057800D01*
X87112417Y-94887068D01*
X87140500Y-94709759D01*
X87140500Y-94530241D01*
X87112417Y-94352932D01*
X87108569Y-94341090D01*
X87083765Y-94264750D01*
X87056943Y-94182200D01*
X86975443Y-94022248D01*
X86869925Y-93877014D01*
X86742986Y-93750075D01*
X86742982Y-93750072D01*
X86742980Y-93750070D01*
X86597754Y-93644558D01*
X86437803Y-93563058D01*
X86437792Y-93563054D01*
X86267077Y-93507585D01*
X86267061Y-93507581D01*
X86089769Y-93479501D01*
X86089761Y-93479500D01*
X86089759Y-93479500D01*
X85910241Y-93479500D01*
X85910238Y-93479500D01*
X85910230Y-93479501D01*
X85732938Y-93507581D01*
X85732922Y-93507585D01*
X85562207Y-93563054D01*
X85562196Y-93563058D01*
X85402245Y-93644558D01*
X85257019Y-93750070D01*
X85130070Y-93877019D01*
X85024558Y-94022245D01*
X84943058Y-94182196D01*
X84943054Y-94182207D01*
X84887585Y-94352922D01*
X84887581Y-94352938D01*
X84859501Y-94530230D01*
X84859500Y-94530243D01*
X48080499Y-94530243D01*
X48080499Y-94341088D01*
X48075249Y-94314689D01*
X48055247Y-94284753D01*
X48025311Y-94264751D01*
X47998913Y-94259500D01*
X47998909Y-94259500D01*
X46281092Y-94259500D01*
X46281085Y-94259501D01*
X46254690Y-94264750D01*
X46254689Y-94264750D01*
X46224754Y-94284752D01*
X46224750Y-94284756D01*
X46204751Y-94314688D01*
X46204751Y-94314689D01*
X46199500Y-94341087D01*
X44984047Y-94341087D01*
X44874334Y-94295643D01*
X44692631Y-94259500D01*
X44507369Y-94259500D01*
X44380429Y-94284750D01*
X44325665Y-94295643D01*
X44154505Y-94366538D01*
X44000468Y-94469464D01*
X43869464Y-94600468D01*
X43766538Y-94754505D01*
X43695643Y-94925665D01*
X43695643Y-94925666D01*
X43659500Y-95107369D01*
X40500500Y-95107369D01*
X40500500Y-93347189D01*
X68584500Y-93347189D01*
X68584500Y-93452811D01*
X68624920Y-93550393D01*
X68699607Y-93625080D01*
X68797189Y-93665500D01*
X68797190Y-93665500D01*
X68902810Y-93665500D01*
X68902811Y-93665500D01*
X69000393Y-93625080D01*
X69075080Y-93550393D01*
X69115500Y-93452811D01*
X69115500Y-93347189D01*
X69075080Y-93249607D01*
X69000393Y-93174920D01*
X68902811Y-93134500D01*
X68797189Y-93134500D01*
X68699607Y-93174920D01*
X68624920Y-93249607D01*
X68584500Y-93347189D01*
X40500500Y-93347189D01*
X40500500Y-91507369D01*
X43659500Y-91507369D01*
X43659500Y-91692631D01*
X43683431Y-91812938D01*
X43695643Y-91874334D01*
X43766539Y-92045494D01*
X43766538Y-92045494D01*
X43868997Y-92198833D01*
X43869466Y-92199534D01*
X44000466Y-92330534D01*
X44025200Y-92347061D01*
X44154505Y-92433461D01*
X44215951Y-92458912D01*
X44325666Y-92504357D01*
X44507369Y-92540500D01*
X44507372Y-92540500D01*
X44692627Y-92540500D01*
X44692631Y-92540500D01*
X44874334Y-92504357D01*
X45045494Y-92433461D01*
X45199534Y-92330534D01*
X45330534Y-92199534D01*
X45433461Y-92045494D01*
X45504357Y-91874334D01*
X45540500Y-91692631D01*
X45540500Y-91507369D01*
X45504357Y-91325666D01*
X45433461Y-91154506D01*
X45433460Y-91154505D01*
X45433461Y-91154505D01*
X45364999Y-91052046D01*
X45330534Y-91000466D01*
X45199534Y-90869466D01*
X45058920Y-90775510D01*
X45058919Y-90775509D01*
X45045495Y-90766539D01*
X44984047Y-90741087D01*
X46199500Y-90741087D01*
X46199500Y-90741088D01*
X46199500Y-90741090D01*
X46199500Y-92458907D01*
X46199501Y-92458914D01*
X46204750Y-92485309D01*
X46204750Y-92485310D01*
X46204751Y-92485311D01*
X46224753Y-92515247D01*
X46254689Y-92535249D01*
X46281087Y-92540500D01*
X47998912Y-92540499D01*
X48025311Y-92535249D01*
X48055247Y-92515247D01*
X48075249Y-92485311D01*
X48080500Y-92458913D01*
X48080500Y-92148590D01*
X57409500Y-92148590D01*
X57409500Y-92251410D01*
X57428980Y-92324112D01*
X57436111Y-92350725D01*
X57436114Y-92350732D01*
X57487519Y-92439769D01*
X57487520Y-92439770D01*
X57487522Y-92439773D01*
X57560227Y-92512478D01*
X57560229Y-92512479D01*
X57560230Y-92512480D01*
X57608759Y-92540498D01*
X57649272Y-92563888D01*
X57748590Y-92590500D01*
X57748592Y-92590500D01*
X57851408Y-92590500D01*
X57851410Y-92590500D01*
X57950728Y-92563888D01*
X58039773Y-92512478D01*
X58112478Y-92439773D01*
X58163888Y-92350728D01*
X58190500Y-92251410D01*
X58190500Y-92148590D01*
X58163888Y-92049272D01*
X58129808Y-91990243D01*
X84859500Y-91990243D01*
X84859500Y-92169756D01*
X84859501Y-92169769D01*
X84887581Y-92347061D01*
X84887585Y-92347077D01*
X84943054Y-92517792D01*
X84943058Y-92517803D01*
X85024558Y-92677754D01*
X85130070Y-92822980D01*
X85130072Y-92822982D01*
X85130075Y-92822986D01*
X85257014Y-92949925D01*
X85257017Y-92949927D01*
X85257019Y-92949929D01*
X85402245Y-93055441D01*
X85402248Y-93055443D01*
X85562200Y-93136943D01*
X85651679Y-93166016D01*
X85732922Y-93192414D01*
X85732925Y-93192414D01*
X85732932Y-93192417D01*
X85910241Y-93220500D01*
X85910244Y-93220500D01*
X86089756Y-93220500D01*
X86089759Y-93220500D01*
X86267068Y-93192417D01*
X86437800Y-93136943D01*
X86597752Y-93055443D01*
X86742986Y-92949925D01*
X86869925Y-92822986D01*
X86975443Y-92677752D01*
X87056943Y-92517800D01*
X87112417Y-92347068D01*
X87140500Y-92169759D01*
X87140500Y-91990241D01*
X87112417Y-91812932D01*
X87056943Y-91642200D01*
X86975443Y-91482248D01*
X86869925Y-91337014D01*
X86742986Y-91210075D01*
X86742982Y-91210072D01*
X86742980Y-91210070D01*
X86597754Y-91104558D01*
X86437803Y-91023058D01*
X86437792Y-91023054D01*
X86267077Y-90967585D01*
X86267061Y-90967581D01*
X86089769Y-90939501D01*
X86089761Y-90939500D01*
X86089759Y-90939500D01*
X85910241Y-90939500D01*
X85910238Y-90939500D01*
X85910230Y-90939501D01*
X85732938Y-90967581D01*
X85732922Y-90967585D01*
X85562207Y-91023054D01*
X85562196Y-91023058D01*
X85402245Y-91104558D01*
X85257019Y-91210070D01*
X85130070Y-91337019D01*
X85024558Y-91482245D01*
X84943058Y-91642196D01*
X84943054Y-91642207D01*
X84887585Y-91812922D01*
X84887581Y-91812938D01*
X84859501Y-91990230D01*
X84859500Y-91990243D01*
X58129808Y-91990243D01*
X58112478Y-91960227D01*
X58039773Y-91887522D01*
X58039770Y-91887520D01*
X58039769Y-91887519D01*
X57950732Y-91836114D01*
X57950729Y-91836113D01*
X57950728Y-91836112D01*
X57950726Y-91836111D01*
X57950725Y-91836111D01*
X57924112Y-91828980D01*
X57851410Y-91809500D01*
X57748590Y-91809500D01*
X57695368Y-91823760D01*
X57649274Y-91836111D01*
X57649267Y-91836114D01*
X57560230Y-91887519D01*
X57487519Y-91960230D01*
X57436114Y-92049267D01*
X57436112Y-92049272D01*
X57409500Y-92148590D01*
X48080500Y-92148590D01*
X48080499Y-91507372D01*
X48080499Y-90741092D01*
X48080499Y-90741090D01*
X48080499Y-90741088D01*
X48075249Y-90714689D01*
X48055247Y-90684753D01*
X48025311Y-90664751D01*
X47998913Y-90659500D01*
X47998909Y-90659500D01*
X46281092Y-90659500D01*
X46281085Y-90659501D01*
X46254690Y-90664750D01*
X46254689Y-90664750D01*
X46224754Y-90684752D01*
X46224750Y-90684756D01*
X46204751Y-90714688D01*
X46204751Y-90714689D01*
X46199500Y-90741087D01*
X44984047Y-90741087D01*
X44874334Y-90695643D01*
X44692631Y-90659500D01*
X44507369Y-90659500D01*
X44380429Y-90684750D01*
X44325665Y-90695643D01*
X44154505Y-90766538D01*
X44000468Y-90869464D01*
X43869464Y-91000468D01*
X43766538Y-91154505D01*
X43695643Y-91325665D01*
X43695643Y-91325666D01*
X43659500Y-91507369D01*
X40500500Y-91507369D01*
X40500500Y-90298590D01*
X64219500Y-90298590D01*
X64219500Y-90401410D01*
X64221782Y-90409925D01*
X64246111Y-90500725D01*
X64246114Y-90500732D01*
X64297519Y-90589769D01*
X64297520Y-90589770D01*
X64297522Y-90589773D01*
X64370227Y-90662478D01*
X64370229Y-90662479D01*
X64370230Y-90662480D01*
X64408810Y-90684754D01*
X64459272Y-90713888D01*
X64558590Y-90740500D01*
X64558592Y-90740500D01*
X64661408Y-90740500D01*
X64661410Y-90740500D01*
X64760728Y-90713888D01*
X64849773Y-90662478D01*
X64922478Y-90589773D01*
X64973888Y-90500728D01*
X65000500Y-90401410D01*
X65000500Y-90298590D01*
X64973888Y-90199272D01*
X64922478Y-90110227D01*
X64849773Y-90037522D01*
X64849770Y-90037520D01*
X64849769Y-90037519D01*
X64760732Y-89986114D01*
X64760729Y-89986113D01*
X64760728Y-89986112D01*
X64760726Y-89986111D01*
X64760725Y-89986111D01*
X64729677Y-89977792D01*
X64661410Y-89959500D01*
X64558590Y-89959500D01*
X64505368Y-89973760D01*
X64459274Y-89986111D01*
X64459267Y-89986114D01*
X64370230Y-90037519D01*
X64297519Y-90110230D01*
X64246114Y-90199267D01*
X64246112Y-90199272D01*
X64219500Y-90298590D01*
X40500500Y-90298590D01*
X40500500Y-89450243D01*
X84859500Y-89450243D01*
X84859500Y-89629756D01*
X84859501Y-89629769D01*
X84887581Y-89807061D01*
X84887585Y-89807077D01*
X84943054Y-89977792D01*
X84943058Y-89977803D01*
X85024558Y-90137754D01*
X85130070Y-90282980D01*
X85130072Y-90282982D01*
X85130075Y-90282986D01*
X85257014Y-90409925D01*
X85257017Y-90409927D01*
X85257019Y-90409929D01*
X85381990Y-90500725D01*
X85402248Y-90515443D01*
X85562200Y-90596943D01*
X85651679Y-90626016D01*
X85732922Y-90652414D01*
X85732925Y-90652414D01*
X85732932Y-90652417D01*
X85910241Y-90680500D01*
X85910244Y-90680500D01*
X86089756Y-90680500D01*
X86089759Y-90680500D01*
X86267068Y-90652417D01*
X86437800Y-90596943D01*
X86597752Y-90515443D01*
X86742986Y-90409925D01*
X86869925Y-90282986D01*
X86975443Y-90137752D01*
X87056943Y-89977800D01*
X87112417Y-89807068D01*
X87140500Y-89629759D01*
X87140500Y-89450241D01*
X87112417Y-89272932D01*
X87056943Y-89102200D01*
X86975443Y-88942248D01*
X86955828Y-88915250D01*
X86869929Y-88797019D01*
X86869927Y-88797017D01*
X86869925Y-88797014D01*
X86742986Y-88670075D01*
X86742982Y-88670072D01*
X86742980Y-88670070D01*
X86597754Y-88564558D01*
X86437803Y-88483058D01*
X86437792Y-88483054D01*
X86267077Y-88427585D01*
X86267061Y-88427581D01*
X86089769Y-88399501D01*
X86089761Y-88399500D01*
X86089759Y-88399500D01*
X85910241Y-88399500D01*
X85910238Y-88399500D01*
X85910230Y-88399501D01*
X85732938Y-88427581D01*
X85732922Y-88427585D01*
X85562207Y-88483054D01*
X85562196Y-88483058D01*
X85402245Y-88564558D01*
X85257019Y-88670070D01*
X85130070Y-88797019D01*
X85024558Y-88942245D01*
X84943058Y-89102196D01*
X84943054Y-89102207D01*
X84887585Y-89272922D01*
X84887581Y-89272938D01*
X84859501Y-89450230D01*
X84859500Y-89450243D01*
X40500500Y-89450243D01*
X40500500Y-87907370D01*
X43659500Y-87907370D01*
X43659500Y-88092632D01*
X43669022Y-88140500D01*
X43695643Y-88274335D01*
X43766539Y-88445495D01*
X43766538Y-88445495D01*
X43846094Y-88564557D01*
X43869466Y-88599535D01*
X44000466Y-88730535D01*
X44052046Y-88765000D01*
X44154505Y-88833462D01*
X44215951Y-88858913D01*
X44325666Y-88904358D01*
X44507369Y-88940501D01*
X44507372Y-88940501D01*
X44692627Y-88940501D01*
X44692631Y-88940501D01*
X44874334Y-88904358D01*
X45045494Y-88833462D01*
X45199534Y-88730535D01*
X45330534Y-88599535D01*
X45433461Y-88445495D01*
X45504357Y-88274335D01*
X45540500Y-88092632D01*
X45540500Y-87907370D01*
X45504357Y-87725667D01*
X45433461Y-87554507D01*
X45433460Y-87554506D01*
X45433461Y-87554506D01*
X45330535Y-87400469D01*
X45330534Y-87400467D01*
X45199534Y-87269467D01*
X45058920Y-87175511D01*
X45058919Y-87175510D01*
X45045495Y-87166540D01*
X44984047Y-87141088D01*
X46199500Y-87141088D01*
X46199500Y-87141089D01*
X46199500Y-87141091D01*
X46199500Y-88858908D01*
X46199501Y-88858915D01*
X46204750Y-88885310D01*
X46204750Y-88885311D01*
X46204751Y-88885312D01*
X46224753Y-88915248D01*
X46254689Y-88935250D01*
X46281087Y-88940501D01*
X47998912Y-88940500D01*
X48025311Y-88935250D01*
X48055247Y-88915248D01*
X48075249Y-88885312D01*
X48080500Y-88858914D01*
X48080499Y-87141089D01*
X48075249Y-87114690D01*
X48055247Y-87084754D01*
X48025311Y-87064752D01*
X47998913Y-87059501D01*
X47998909Y-87059501D01*
X46281092Y-87059501D01*
X46281085Y-87059502D01*
X46254690Y-87064751D01*
X46254689Y-87064751D01*
X46224754Y-87084753D01*
X46224750Y-87084757D01*
X46204751Y-87114689D01*
X46204751Y-87114690D01*
X46199500Y-87141088D01*
X44984047Y-87141088D01*
X44874334Y-87095644D01*
X44844733Y-87089756D01*
X44692631Y-87059501D01*
X44507369Y-87059501D01*
X44380429Y-87084751D01*
X44325665Y-87095644D01*
X44154505Y-87166539D01*
X44000468Y-87269465D01*
X43869464Y-87400469D01*
X43766538Y-87554506D01*
X43695643Y-87725666D01*
X43695643Y-87725667D01*
X43659500Y-87907370D01*
X40500500Y-87907370D01*
X40500500Y-86910243D01*
X84859500Y-86910243D01*
X84859500Y-87089756D01*
X84859501Y-87089769D01*
X84887581Y-87267061D01*
X84887585Y-87267077D01*
X84943054Y-87437792D01*
X84943058Y-87437803D01*
X85024558Y-87597754D01*
X85130070Y-87742980D01*
X85130072Y-87742982D01*
X85130075Y-87742986D01*
X85257014Y-87869925D01*
X85257017Y-87869927D01*
X85257019Y-87869929D01*
X85308553Y-87907370D01*
X85402248Y-87975443D01*
X85562200Y-88056943D01*
X85651679Y-88086016D01*
X85732922Y-88112414D01*
X85732925Y-88112414D01*
X85732932Y-88112417D01*
X85910241Y-88140500D01*
X85910244Y-88140500D01*
X86089756Y-88140500D01*
X86089759Y-88140500D01*
X86267068Y-88112417D01*
X86437800Y-88056943D01*
X86597752Y-87975443D01*
X86742986Y-87869925D01*
X86869925Y-87742986D01*
X86975443Y-87597752D01*
X87056943Y-87437800D01*
X87112417Y-87267068D01*
X87140500Y-87089759D01*
X87140500Y-86910241D01*
X87112417Y-86732932D01*
X87056943Y-86562200D01*
X86975443Y-86402248D01*
X86869925Y-86257014D01*
X86742986Y-86130075D01*
X86742982Y-86130072D01*
X86742980Y-86130070D01*
X86597754Y-86024558D01*
X86437803Y-85943058D01*
X86437792Y-85943054D01*
X86267077Y-85887585D01*
X86267061Y-85887581D01*
X86089769Y-85859501D01*
X86089761Y-85859500D01*
X86089759Y-85859500D01*
X85910241Y-85859500D01*
X85910238Y-85859500D01*
X85910230Y-85859501D01*
X85732938Y-85887581D01*
X85732922Y-85887585D01*
X85562207Y-85943054D01*
X85562196Y-85943058D01*
X85402245Y-86024558D01*
X85257019Y-86130070D01*
X85130070Y-86257019D01*
X85024558Y-86402245D01*
X84943058Y-86562196D01*
X84943054Y-86562207D01*
X84887585Y-86732922D01*
X84887581Y-86732938D01*
X84859501Y-86910230D01*
X84859500Y-86910243D01*
X40500500Y-86910243D01*
X40500500Y-83226083D01*
X46369500Y-83226083D01*
X46369500Y-83353917D01*
X46402586Y-83477396D01*
X46466504Y-83588104D01*
X46556896Y-83678496D01*
X46667604Y-83742414D01*
X46791083Y-83775500D01*
X46791085Y-83775500D01*
X46918915Y-83775500D01*
X46918917Y-83775500D01*
X47042396Y-83742414D01*
X47153104Y-83678496D01*
X47243496Y-83588104D01*
X47307414Y-83477396D01*
X47340500Y-83353917D01*
X47340500Y-83226083D01*
X47307414Y-83102604D01*
X47243496Y-82991896D01*
X47153104Y-82901504D01*
X47153103Y-82901503D01*
X47042400Y-82837588D01*
X47042396Y-82837586D01*
X46918917Y-82804500D01*
X46791083Y-82804500D01*
X46708763Y-82826557D01*
X46667603Y-82837586D01*
X46667599Y-82837588D01*
X46556897Y-82901503D01*
X46556896Y-82901503D01*
X46466503Y-82991896D01*
X46466503Y-82991897D01*
X46402588Y-83102599D01*
X46402586Y-83102603D01*
X46402586Y-83102604D01*
X46369500Y-83226083D01*
X40500500Y-83226083D01*
X40500500Y-81313021D01*
X76000332Y-81313021D01*
X76000332Y-81418643D01*
X76040752Y-81516225D01*
X76115439Y-81590912D01*
X76213021Y-81631332D01*
X76213022Y-81631332D01*
X76318642Y-81631332D01*
X76318643Y-81631332D01*
X76416225Y-81590912D01*
X76490912Y-81516225D01*
X76526159Y-81431130D01*
X76549970Y-81407320D01*
X76583646Y-81407320D01*
X76607459Y-81431133D01*
X76644087Y-81519560D01*
X76718774Y-81594247D01*
X76816356Y-81634667D01*
X76816357Y-81634667D01*
X76921977Y-81634667D01*
X76921978Y-81634667D01*
X77019560Y-81594247D01*
X77094247Y-81519560D01*
X77134667Y-81421978D01*
X77134667Y-81421976D01*
X77136325Y-81417974D01*
X77138151Y-81418730D01*
X77152818Y-81396780D01*
X77185847Y-81390209D01*
X77208374Y-81402249D01*
X77234022Y-81427897D01*
X77331604Y-81468317D01*
X77331605Y-81468317D01*
X77437225Y-81468317D01*
X77437226Y-81468317D01*
X77534808Y-81427897D01*
X77609495Y-81353210D01*
X77649915Y-81255628D01*
X77649915Y-81150006D01*
X77609495Y-81052424D01*
X77534808Y-80977737D01*
X77437226Y-80937317D01*
X77331604Y-80937317D01*
X77234022Y-80977737D01*
X77159335Y-81052424D01*
X77122749Y-81140752D01*
X77117257Y-81154010D01*
X77115436Y-81153255D01*
X77100734Y-81175223D01*
X77067699Y-81181767D01*
X77045206Y-81169733D01*
X77019560Y-81144087D01*
X76921978Y-81103667D01*
X76816356Y-81103667D01*
X76718774Y-81144087D01*
X76644087Y-81218774D01*
X76628822Y-81255628D01*
X76608841Y-81303865D01*
X76585028Y-81327678D01*
X76551352Y-81327678D01*
X76527539Y-81303865D01*
X76490912Y-81215439D01*
X76416225Y-81140752D01*
X76318643Y-81100332D01*
X76213021Y-81100332D01*
X76115439Y-81140752D01*
X76040752Y-81215439D01*
X76000332Y-81313021D01*
X40500500Y-81313021D01*
X40500500Y-80947189D01*
X65454500Y-80947189D01*
X65454500Y-81052811D01*
X65494920Y-81150393D01*
X65569607Y-81225080D01*
X65667189Y-81265500D01*
X65667190Y-81265500D01*
X65772810Y-81265500D01*
X65772811Y-81265500D01*
X65870393Y-81225080D01*
X65945080Y-81150393D01*
X65985500Y-81052811D01*
X65985500Y-80947189D01*
X65964789Y-80897189D01*
X74234500Y-80897189D01*
X74234500Y-81002811D01*
X74274920Y-81100393D01*
X74349607Y-81175080D01*
X74447189Y-81215500D01*
X74447190Y-81215500D01*
X74552810Y-81215500D01*
X74552811Y-81215500D01*
X74650393Y-81175080D01*
X74725080Y-81100393D01*
X74765500Y-81002811D01*
X74765500Y-80897189D01*
X74725080Y-80799607D01*
X74650393Y-80724920D01*
X74552811Y-80684500D01*
X74447189Y-80684500D01*
X74349607Y-80724920D01*
X74274920Y-80799607D01*
X74234500Y-80897189D01*
X65964789Y-80897189D01*
X65945080Y-80849607D01*
X65870393Y-80774920D01*
X65772811Y-80734500D01*
X65667189Y-80734500D01*
X65569607Y-80774920D01*
X65494920Y-80849607D01*
X65454500Y-80947189D01*
X40500500Y-80947189D01*
X40500500Y-79597189D01*
X75334500Y-79597189D01*
X75334500Y-79702811D01*
X75374920Y-79800393D01*
X75449607Y-79875080D01*
X75547189Y-79915500D01*
X75547190Y-79915500D01*
X75652810Y-79915500D01*
X75652811Y-79915500D01*
X75694125Y-79898387D01*
X75727799Y-79898387D01*
X75751612Y-79922200D01*
X75751612Y-79955875D01*
X75734500Y-79997189D01*
X75734500Y-80102811D01*
X75774920Y-80200393D01*
X75849607Y-80275080D01*
X75947189Y-80315500D01*
X75947190Y-80315500D01*
X76030802Y-80315500D01*
X76061915Y-80328387D01*
X76074802Y-80359500D01*
X76061915Y-80390611D01*
X76052920Y-80399607D01*
X76012500Y-80497189D01*
X76012500Y-80602811D01*
X76052920Y-80700393D01*
X76127607Y-80775080D01*
X76225189Y-80815500D01*
X76225190Y-80815500D01*
X76330810Y-80815500D01*
X76330811Y-80815500D01*
X76428393Y-80775080D01*
X76503080Y-80700393D01*
X76543500Y-80602811D01*
X76543500Y-80497189D01*
X76503080Y-80399607D01*
X76450662Y-80347189D01*
X77184500Y-80347189D01*
X77184500Y-80452811D01*
X77224920Y-80550393D01*
X77299607Y-80625080D01*
X77397189Y-80665500D01*
X77397190Y-80665500D01*
X77502810Y-80665500D01*
X77502811Y-80665500D01*
X77600393Y-80625080D01*
X77675080Y-80550393D01*
X77715500Y-80452811D01*
X77715500Y-80347189D01*
X77675080Y-80249607D01*
X77600393Y-80174920D01*
X77502811Y-80134500D01*
X77397189Y-80134500D01*
X77299607Y-80174920D01*
X77224920Y-80249607D01*
X77184500Y-80347189D01*
X76450662Y-80347189D01*
X76428393Y-80324920D01*
X76330811Y-80284500D01*
X76247198Y-80284500D01*
X76216085Y-80271613D01*
X76203198Y-80240500D01*
X76216084Y-80209388D01*
X76225080Y-80200393D01*
X76265500Y-80102811D01*
X76265500Y-79997189D01*
X76225080Y-79899607D01*
X76150393Y-79824920D01*
X76052811Y-79784500D01*
X75947189Y-79784500D01*
X75905875Y-79801612D01*
X75872199Y-79801611D01*
X75848387Y-79777798D01*
X75848387Y-79744125D01*
X75865500Y-79702811D01*
X75865500Y-79597189D01*
X75825080Y-79499607D01*
X75750393Y-79424920D01*
X75652811Y-79384500D01*
X75547189Y-79384500D01*
X75449607Y-79424920D01*
X75374920Y-79499607D01*
X75334500Y-79597189D01*
X40500500Y-79597189D01*
X40500500Y-78586409D01*
X58354200Y-78586409D01*
X58354200Y-78715591D01*
X58379402Y-78842290D01*
X58428840Y-78961642D01*
X58500124Y-79068325D01*
X58500607Y-79069048D01*
X58591952Y-79160393D01*
X58645295Y-79196036D01*
X58699357Y-79232159D01*
X58699358Y-79232159D01*
X58699362Y-79232162D01*
X58818710Y-79281598D01*
X58945409Y-79306800D01*
X58945412Y-79306800D01*
X59074587Y-79306800D01*
X59074591Y-79306800D01*
X59201290Y-79281598D01*
X59320638Y-79232162D01*
X59428048Y-79160393D01*
X59519393Y-79069048D01*
X59591162Y-78961638D01*
X59640598Y-78842290D01*
X59665800Y-78715591D01*
X59665800Y-78586409D01*
X59640598Y-78459710D01*
X59591162Y-78340362D01*
X59519393Y-78232952D01*
X59428048Y-78141607D01*
X59427325Y-78141124D01*
X59320642Y-78069840D01*
X59320639Y-78069838D01*
X59320638Y-78069838D01*
X59201290Y-78020402D01*
X59074591Y-77995200D01*
X58945409Y-77995200D01*
X58850384Y-78014101D01*
X58818709Y-78020402D01*
X58699357Y-78069840D01*
X58591954Y-78141605D01*
X58500605Y-78232954D01*
X58428840Y-78340357D01*
X58428838Y-78340362D01*
X58379402Y-78459710D01*
X58354200Y-78586409D01*
X40500500Y-78586409D01*
X40500500Y-77446083D01*
X46369500Y-77446083D01*
X46369500Y-77573917D01*
X46402586Y-77697396D01*
X46466504Y-77808104D01*
X46556896Y-77898496D01*
X46667604Y-77962414D01*
X46791083Y-77995500D01*
X46791085Y-77995500D01*
X46918915Y-77995500D01*
X46918917Y-77995500D01*
X47042396Y-77962414D01*
X47153104Y-77898496D01*
X47243496Y-77808104D01*
X47307414Y-77697396D01*
X47340500Y-77573917D01*
X47340500Y-77570409D01*
X63434200Y-77570409D01*
X63434200Y-77699591D01*
X63455784Y-77808102D01*
X63459402Y-77826290D01*
X63508840Y-77945642D01*
X63580124Y-78052325D01*
X63580607Y-78053048D01*
X63671952Y-78144393D01*
X63725295Y-78180036D01*
X63779357Y-78216159D01*
X63779358Y-78216159D01*
X63779362Y-78216162D01*
X63898710Y-78265598D01*
X64025409Y-78290800D01*
X64025412Y-78290800D01*
X64154587Y-78290800D01*
X64154591Y-78290800D01*
X64281290Y-78265598D01*
X64400638Y-78216162D01*
X64508048Y-78144393D01*
X64599393Y-78053048D01*
X64671162Y-77945638D01*
X64720598Y-77826290D01*
X64745800Y-77699591D01*
X64745800Y-77570409D01*
X64720598Y-77443710D01*
X64671162Y-77324362D01*
X64669987Y-77322604D01*
X64599394Y-77216954D01*
X64599393Y-77216952D01*
X64508048Y-77125607D01*
X64501906Y-77121503D01*
X64400642Y-77053840D01*
X64400639Y-77053838D01*
X64400638Y-77053838D01*
X64281290Y-77004402D01*
X64154591Y-76979200D01*
X64025409Y-76979200D01*
X63930384Y-76998101D01*
X63898709Y-77004402D01*
X63779357Y-77053840D01*
X63671954Y-77125605D01*
X63580605Y-77216954D01*
X63508840Y-77324357D01*
X63508838Y-77324362D01*
X63459402Y-77443710D01*
X63434200Y-77570409D01*
X47340500Y-77570409D01*
X47340500Y-77446083D01*
X47307414Y-77322604D01*
X47243496Y-77211896D01*
X47153104Y-77121504D01*
X47153103Y-77121503D01*
X47042400Y-77057588D01*
X47042396Y-77057586D01*
X46918917Y-77024500D01*
X46791083Y-77024500D01*
X46708763Y-77046557D01*
X46667603Y-77057586D01*
X46667599Y-77057588D01*
X46556897Y-77121503D01*
X46556896Y-77121503D01*
X46466503Y-77211896D01*
X46466503Y-77211897D01*
X46402588Y-77322599D01*
X46402586Y-77322603D01*
X46402586Y-77322604D01*
X46369500Y-77446083D01*
X40500500Y-77446083D01*
X40500500Y-76554409D01*
X58354200Y-76554409D01*
X58354200Y-76683591D01*
X58375465Y-76790499D01*
X58379402Y-76810290D01*
X58428840Y-76929642D01*
X58492223Y-77024500D01*
X58500607Y-77037048D01*
X58591952Y-77128393D01*
X58645295Y-77164036D01*
X58699357Y-77200159D01*
X58699358Y-77200159D01*
X58699362Y-77200162D01*
X58818710Y-77249598D01*
X58945409Y-77274800D01*
X58945412Y-77274800D01*
X59074587Y-77274800D01*
X59074591Y-77274800D01*
X59201290Y-77249598D01*
X59320638Y-77200162D01*
X59428048Y-77128393D01*
X59519393Y-77037048D01*
X59591162Y-76929638D01*
X59640598Y-76810290D01*
X59665800Y-76683591D01*
X59665800Y-76554409D01*
X59640598Y-76427710D01*
X59591162Y-76308362D01*
X59591159Y-76308357D01*
X59591158Y-76308355D01*
X59591157Y-76308352D01*
X59563730Y-76267306D01*
X59563725Y-76267300D01*
X59558513Y-76259499D01*
X59550288Y-76247189D01*
X62954500Y-76247189D01*
X62954500Y-76352811D01*
X62994920Y-76450393D01*
X63069607Y-76525080D01*
X63167189Y-76565500D01*
X63167190Y-76565500D01*
X63272810Y-76565500D01*
X63272811Y-76565500D01*
X63370393Y-76525080D01*
X63445080Y-76450393D01*
X63467118Y-76397189D01*
X67984500Y-76397189D01*
X67984500Y-76502811D01*
X68024920Y-76600393D01*
X68099607Y-76675080D01*
X68197189Y-76715500D01*
X68197190Y-76715500D01*
X68302810Y-76715500D01*
X68302811Y-76715500D01*
X68400393Y-76675080D01*
X68475080Y-76600393D01*
X68515500Y-76502811D01*
X68515500Y-76397189D01*
X68475080Y-76299607D01*
X68400393Y-76224920D01*
X68302811Y-76184500D01*
X68197189Y-76184500D01*
X68099607Y-76224920D01*
X68024920Y-76299607D01*
X67984500Y-76397189D01*
X63467118Y-76397189D01*
X63485500Y-76352811D01*
X63485500Y-76247189D01*
X63445080Y-76149607D01*
X63370393Y-76074920D01*
X63272811Y-76034500D01*
X63167189Y-76034500D01*
X63069607Y-76074920D01*
X62994920Y-76149607D01*
X62954500Y-76247189D01*
X59550288Y-76247189D01*
X59519393Y-76200952D01*
X59428048Y-76109607D01*
X59414255Y-76100391D01*
X59320642Y-76037840D01*
X59320639Y-76037838D01*
X59320638Y-76037838D01*
X59201290Y-75988402D01*
X59074591Y-75963200D01*
X58945409Y-75963200D01*
X58850384Y-75982101D01*
X58818709Y-75988402D01*
X58699357Y-76037840D01*
X58591954Y-76109605D01*
X58500605Y-76200954D01*
X58428840Y-76308357D01*
X58380492Y-76425079D01*
X58379402Y-76427710D01*
X58354200Y-76554409D01*
X40500500Y-76554409D01*
X40500500Y-75847189D01*
X67034500Y-75847189D01*
X67034500Y-75952811D01*
X67074920Y-76050393D01*
X67149607Y-76125080D01*
X67247189Y-76165500D01*
X67247190Y-76165500D01*
X67352810Y-76165500D01*
X67352811Y-76165500D01*
X67450393Y-76125080D01*
X67499114Y-76076358D01*
X67530226Y-76063471D01*
X67561338Y-76076358D01*
X67570876Y-76090631D01*
X67574920Y-76100393D01*
X67649607Y-76175080D01*
X67747189Y-76215500D01*
X67747190Y-76215500D01*
X67852810Y-76215500D01*
X67852811Y-76215500D01*
X67950393Y-76175080D01*
X67978284Y-76147189D01*
X68734500Y-76147189D01*
X68734500Y-76252811D01*
X68774920Y-76350393D01*
X68849607Y-76425080D01*
X68947189Y-76465500D01*
X68947190Y-76465500D01*
X69052810Y-76465500D01*
X69052811Y-76465500D01*
X69098664Y-76446507D01*
X69132338Y-76446507D01*
X69156151Y-76470320D01*
X69159500Y-76487158D01*
X69159500Y-76577810D01*
X69199920Y-76675392D01*
X69274607Y-76750079D01*
X69372189Y-76790499D01*
X69372190Y-76790499D01*
X69477810Y-76790499D01*
X69477811Y-76790499D01*
X69575393Y-76750079D01*
X69650080Y-76675392D01*
X69690500Y-76577810D01*
X69690500Y-76472188D01*
X69654258Y-76384692D01*
X69654258Y-76384691D01*
X69650081Y-76374608D01*
X69650080Y-76374607D01*
X69650080Y-76374606D01*
X69647663Y-76372189D01*
X74059501Y-76372189D01*
X74059501Y-76477811D01*
X74099921Y-76575393D01*
X74174608Y-76650080D01*
X74272190Y-76690500D01*
X74272191Y-76690500D01*
X74377811Y-76690500D01*
X74377812Y-76690500D01*
X74475394Y-76650080D01*
X74550081Y-76575393D01*
X74590501Y-76477811D01*
X74590501Y-76372189D01*
X74550081Y-76274607D01*
X74475394Y-76199920D01*
X74377812Y-76159500D01*
X74272190Y-76159500D01*
X74174608Y-76199920D01*
X74099921Y-76274607D01*
X74059501Y-76372189D01*
X69647663Y-76372189D01*
X69575393Y-76299919D01*
X69477811Y-76259499D01*
X69372189Y-76259499D01*
X69326338Y-76278491D01*
X69292661Y-76278491D01*
X69268849Y-76254678D01*
X69265500Y-76237840D01*
X69265500Y-76147190D01*
X69256342Y-76125080D01*
X69225080Y-76049607D01*
X69150393Y-75974920D01*
X69052811Y-75934500D01*
X68947189Y-75934500D01*
X68849607Y-75974920D01*
X68774920Y-76049607D01*
X68734500Y-76147189D01*
X67978284Y-76147189D01*
X68025080Y-76100393D01*
X68064173Y-76006013D01*
X68087985Y-75982202D01*
X68121660Y-75982202D01*
X68172044Y-76003072D01*
X68172045Y-76003072D01*
X68277665Y-76003072D01*
X68277666Y-76003072D01*
X68375248Y-75962652D01*
X68449935Y-75887965D01*
X68490355Y-75790383D01*
X68490355Y-75684761D01*
X68449935Y-75587179D01*
X68375248Y-75512492D01*
X68277666Y-75472072D01*
X68172044Y-75472072D01*
X68074462Y-75512492D01*
X67999775Y-75587179D01*
X67960682Y-75681557D01*
X67936869Y-75705369D01*
X67903193Y-75705369D01*
X67852811Y-75684500D01*
X67747189Y-75684500D01*
X67698398Y-75704710D01*
X67649606Y-75724920D01*
X67600885Y-75773641D01*
X67569773Y-75786528D01*
X67538660Y-75773640D01*
X67529123Y-75759369D01*
X67525080Y-75749607D01*
X67450393Y-75674920D01*
X67352811Y-75634500D01*
X67247189Y-75634500D01*
X67149607Y-75674920D01*
X67074920Y-75749607D01*
X67034500Y-75847189D01*
X40500500Y-75847189D01*
X40500500Y-71897189D01*
X70584500Y-71897189D01*
X70584500Y-72002811D01*
X70624920Y-72100393D01*
X70699607Y-72175080D01*
X70797189Y-72215500D01*
X70797190Y-72215500D01*
X70902810Y-72215500D01*
X70902811Y-72215500D01*
X71000393Y-72175080D01*
X71075080Y-72100393D01*
X71115500Y-72002811D01*
X71115500Y-71897189D01*
X71075080Y-71799607D01*
X71000393Y-71724920D01*
X70902811Y-71684500D01*
X70797189Y-71684500D01*
X70699607Y-71724920D01*
X70624920Y-71799607D01*
X70584500Y-71897189D01*
X40500500Y-71897189D01*
X40500500Y-70747189D01*
X59684500Y-70747189D01*
X59684500Y-70852811D01*
X59724920Y-70950393D01*
X59799607Y-71025080D01*
X59897189Y-71065500D01*
X59897190Y-71065500D01*
X60002810Y-71065500D01*
X60002811Y-71065500D01*
X60051351Y-71045394D01*
X60085025Y-71045394D01*
X60108838Y-71069207D01*
X60112187Y-71086045D01*
X60112187Y-71161332D01*
X60152607Y-71258914D01*
X60227294Y-71333601D01*
X60293311Y-71360946D01*
X60317122Y-71384757D01*
X60317122Y-71418432D01*
X60284500Y-71497189D01*
X60284500Y-71602811D01*
X60324920Y-71700393D01*
X60399607Y-71775080D01*
X60497189Y-71815500D01*
X60497190Y-71815500D01*
X60602810Y-71815500D01*
X60602811Y-71815500D01*
X60700393Y-71775080D01*
X60775080Y-71700393D01*
X60815500Y-71602811D01*
X60815500Y-71497189D01*
X66834500Y-71497189D01*
X66834500Y-71602811D01*
X66874920Y-71700393D01*
X66949607Y-71775080D01*
X67047189Y-71815500D01*
X67047190Y-71815500D01*
X67152810Y-71815500D01*
X67152811Y-71815500D01*
X67250393Y-71775080D01*
X67325080Y-71700393D01*
X67365500Y-71602811D01*
X67365500Y-71497189D01*
X67325080Y-71399607D01*
X67322662Y-71397189D01*
X74434500Y-71397189D01*
X74434500Y-71502811D01*
X74474920Y-71600393D01*
X74549607Y-71675080D01*
X74647189Y-71715500D01*
X74647190Y-71715500D01*
X74752810Y-71715500D01*
X74752811Y-71715500D01*
X74850393Y-71675080D01*
X74925080Y-71600393D01*
X74965500Y-71502811D01*
X74965500Y-71397189D01*
X74925080Y-71299607D01*
X74850393Y-71224920D01*
X74752811Y-71184500D01*
X74647189Y-71184500D01*
X74549607Y-71224920D01*
X74474920Y-71299607D01*
X74434500Y-71397189D01*
X67322662Y-71397189D01*
X67250393Y-71324920D01*
X67152811Y-71284500D01*
X67047189Y-71284500D01*
X66949607Y-71324920D01*
X66874920Y-71399607D01*
X66834500Y-71497189D01*
X60815500Y-71497189D01*
X60775080Y-71399607D01*
X60700393Y-71324920D01*
X60634375Y-71297574D01*
X60610564Y-71273763D01*
X60610564Y-71240090D01*
X60643187Y-71161332D01*
X60643187Y-71055710D01*
X60602767Y-70958128D01*
X60528080Y-70883441D01*
X60430498Y-70843021D01*
X60324876Y-70843021D01*
X60276338Y-70863126D01*
X60242662Y-70863126D01*
X60218849Y-70839313D01*
X60215500Y-70822475D01*
X60215500Y-70747190D01*
X60199968Y-70709692D01*
X60194789Y-70697189D01*
X60194789Y-70697188D01*
X67434500Y-70697188D01*
X67434500Y-70802810D01*
X67474920Y-70900392D01*
X67549607Y-70975079D01*
X67647189Y-71015499D01*
X67647190Y-71015499D01*
X67752810Y-71015499D01*
X67752811Y-71015499D01*
X67850393Y-70975079D01*
X67925080Y-70900392D01*
X67965500Y-70802810D01*
X67965500Y-70697188D01*
X67925080Y-70599606D01*
X67850393Y-70524919D01*
X67752811Y-70484499D01*
X67647189Y-70484499D01*
X67549607Y-70524919D01*
X67474920Y-70599606D01*
X67434500Y-70697188D01*
X60194789Y-70697188D01*
X60175080Y-70649607D01*
X60100393Y-70574920D01*
X60002811Y-70534500D01*
X59897189Y-70534500D01*
X59799607Y-70574920D01*
X59724920Y-70649607D01*
X59684500Y-70747189D01*
X40500500Y-70747189D01*
X40500500Y-69647189D01*
X59184500Y-69647189D01*
X59184500Y-69752811D01*
X59224920Y-69850393D01*
X59299607Y-69925080D01*
X59397189Y-69965500D01*
X59397190Y-69965500D01*
X59502810Y-69965500D01*
X59502811Y-69965500D01*
X59600393Y-69925080D01*
X59675080Y-69850393D01*
X59708413Y-69769919D01*
X59732224Y-69746109D01*
X59765900Y-69746109D01*
X59780171Y-69755644D01*
X59799607Y-69775080D01*
X59897189Y-69815500D01*
X59897190Y-69815500D01*
X60002810Y-69815500D01*
X60002811Y-69815500D01*
X60100393Y-69775080D01*
X60175080Y-69700393D01*
X60215500Y-69602811D01*
X60215500Y-69497189D01*
X60175080Y-69399607D01*
X60100393Y-69324920D01*
X60033442Y-69297188D01*
X60434500Y-69297188D01*
X60434500Y-69402810D01*
X60474920Y-69500392D01*
X60549607Y-69575079D01*
X60647189Y-69615499D01*
X60647190Y-69615499D01*
X60752810Y-69615499D01*
X60752811Y-69615499D01*
X60850393Y-69575079D01*
X60925080Y-69500392D01*
X60965500Y-69402810D01*
X60965500Y-69297188D01*
X60925080Y-69199606D01*
X60850393Y-69124919D01*
X60752811Y-69084499D01*
X60647189Y-69084499D01*
X60549607Y-69124919D01*
X60474920Y-69199606D01*
X60434500Y-69297188D01*
X60033442Y-69297188D01*
X60002811Y-69284500D01*
X59897189Y-69284500D01*
X59866553Y-69297190D01*
X59799607Y-69324920D01*
X59724920Y-69399607D01*
X59691588Y-69480077D01*
X59667775Y-69503890D01*
X59634099Y-69503890D01*
X59619827Y-69494354D01*
X59600393Y-69474920D01*
X59502811Y-69434500D01*
X59397189Y-69434500D01*
X59299607Y-69474920D01*
X59224920Y-69549607D01*
X59184500Y-69647189D01*
X40500500Y-69647189D01*
X40500500Y-69297189D01*
X58584500Y-69297189D01*
X58584500Y-69402811D01*
X58624920Y-69500393D01*
X58699607Y-69575080D01*
X58797189Y-69615500D01*
X58797190Y-69615500D01*
X58902810Y-69615500D01*
X58902811Y-69615500D01*
X59000393Y-69575080D01*
X59075080Y-69500393D01*
X59115500Y-69402811D01*
X59115500Y-69297189D01*
X59075080Y-69199607D01*
X59000393Y-69124920D01*
X58902811Y-69084500D01*
X58797189Y-69084500D01*
X58699607Y-69124920D01*
X58624920Y-69199607D01*
X58584500Y-69297189D01*
X40500500Y-69297189D01*
X40500500Y-68747189D01*
X58261947Y-68747189D01*
X58261947Y-68852811D01*
X58302367Y-68950393D01*
X58377054Y-69025080D01*
X58474636Y-69065500D01*
X58474637Y-69065500D01*
X58580257Y-69065500D01*
X58580258Y-69065500D01*
X58677840Y-69025080D01*
X58752527Y-68950393D01*
X58792947Y-68852811D01*
X58792947Y-68747189D01*
X58752527Y-68649607D01*
X58677840Y-68574920D01*
X58580258Y-68534500D01*
X58474636Y-68534500D01*
X58377054Y-68574920D01*
X58302367Y-68649607D01*
X58261947Y-68747189D01*
X40500500Y-68747189D01*
X40500500Y-67022189D01*
X55059500Y-67022189D01*
X55059500Y-67127811D01*
X55099920Y-67225393D01*
X55174607Y-67300080D01*
X55272189Y-67340500D01*
X55272190Y-67340500D01*
X55377810Y-67340500D01*
X55377811Y-67340500D01*
X55475393Y-67300080D01*
X55550080Y-67225393D01*
X55559348Y-67203017D01*
X55583159Y-67179206D01*
X55616835Y-67179205D01*
X55633662Y-67193014D01*
X55633844Y-67192833D01*
X55635684Y-67194673D01*
X55636582Y-67195410D01*
X55636906Y-67195895D01*
X55636907Y-67195896D01*
X55636908Y-67195898D01*
X55711595Y-67270585D01*
X55809177Y-67311005D01*
X55809178Y-67311005D01*
X55914798Y-67311005D01*
X55914799Y-67311005D01*
X56012381Y-67270585D01*
X56087068Y-67195898D01*
X56107244Y-67147189D01*
X56448920Y-67147189D01*
X56448920Y-67252811D01*
X56489340Y-67350393D01*
X56564027Y-67425080D01*
X56661609Y-67465500D01*
X56661610Y-67465500D01*
X56767230Y-67465500D01*
X56767231Y-67465500D01*
X56811437Y-67447189D01*
X57134500Y-67447189D01*
X57134500Y-67552811D01*
X57174920Y-67650393D01*
X57249607Y-67725080D01*
X57347189Y-67765500D01*
X57347190Y-67765500D01*
X57452810Y-67765500D01*
X57452811Y-67765500D01*
X57550393Y-67725080D01*
X57625080Y-67650393D01*
X57665500Y-67552811D01*
X57665500Y-67497189D01*
X58634500Y-67497189D01*
X58634500Y-67602811D01*
X58674920Y-67700393D01*
X58749607Y-67775080D01*
X58847189Y-67815500D01*
X58847190Y-67815500D01*
X58952810Y-67815500D01*
X58952811Y-67815500D01*
X59050393Y-67775080D01*
X59125080Y-67700393D01*
X59165500Y-67602811D01*
X59165500Y-67497189D01*
X59125080Y-67399607D01*
X59050393Y-67324920D01*
X58952811Y-67284500D01*
X58847189Y-67284500D01*
X58749607Y-67324920D01*
X58674920Y-67399607D01*
X58634500Y-67497189D01*
X57665500Y-67497189D01*
X57665500Y-67447189D01*
X57625080Y-67349607D01*
X57550393Y-67274920D01*
X57452811Y-67234500D01*
X57347189Y-67234500D01*
X57249607Y-67274920D01*
X57174920Y-67349607D01*
X57134500Y-67447189D01*
X56811437Y-67447189D01*
X56864813Y-67425080D01*
X56939500Y-67350393D01*
X56979920Y-67252811D01*
X56979920Y-67147189D01*
X56939500Y-67049607D01*
X56864813Y-66974920D01*
X56767231Y-66934500D01*
X56661609Y-66934500D01*
X56564027Y-66974920D01*
X56489340Y-67049607D01*
X56448920Y-67147189D01*
X56107244Y-67147189D01*
X56127488Y-67098316D01*
X56127488Y-66992694D01*
X56087068Y-66895112D01*
X56012381Y-66820425D01*
X55914799Y-66780005D01*
X55809177Y-66780005D01*
X55737970Y-66809500D01*
X55711595Y-66820425D01*
X55636906Y-66895114D01*
X55627639Y-66917487D01*
X55603826Y-66941299D01*
X55570150Y-66941298D01*
X55553325Y-66927490D01*
X55553144Y-66927672D01*
X55551296Y-66925824D01*
X55550404Y-66925092D01*
X55550081Y-66924609D01*
X55550080Y-66924608D01*
X55550080Y-66924607D01*
X55475393Y-66849920D01*
X55377811Y-66809500D01*
X55272189Y-66809500D01*
X55174607Y-66849920D01*
X55099920Y-66924607D01*
X55059500Y-67022189D01*
X40500500Y-67022189D01*
X40500500Y-65447189D01*
X43384500Y-65447189D01*
X43384500Y-65552811D01*
X43424920Y-65650393D01*
X43499607Y-65725080D01*
X43597189Y-65765500D01*
X43597190Y-65765500D01*
X43702810Y-65765500D01*
X43702811Y-65765500D01*
X43800393Y-65725080D01*
X43875080Y-65650393D01*
X43915500Y-65552811D01*
X43915500Y-65447189D01*
X44234500Y-65447189D01*
X44234500Y-65552811D01*
X44274920Y-65650393D01*
X44349607Y-65725080D01*
X44447189Y-65765500D01*
X44447190Y-65765500D01*
X44552810Y-65765500D01*
X44552811Y-65765500D01*
X44650393Y-65725080D01*
X44725080Y-65650393D01*
X44765500Y-65552811D01*
X44765500Y-65447189D01*
X44725080Y-65349607D01*
X44650393Y-65274920D01*
X44552811Y-65234500D01*
X44447189Y-65234500D01*
X44349607Y-65274920D01*
X44274920Y-65349607D01*
X44234500Y-65447189D01*
X43915500Y-65447189D01*
X43875080Y-65349607D01*
X43800393Y-65274920D01*
X43702811Y-65234500D01*
X43597189Y-65234500D01*
X43499607Y-65274920D01*
X43424920Y-65349607D01*
X43384500Y-65447189D01*
X40500500Y-65447189D01*
X40500500Y-64697189D01*
X56034500Y-64697189D01*
X56034500Y-64802811D01*
X56074920Y-64900393D01*
X56149607Y-64975080D01*
X56247189Y-65015500D01*
X56247190Y-65015500D01*
X56352810Y-65015500D01*
X56352811Y-65015500D01*
X56450393Y-64975080D01*
X56525080Y-64900393D01*
X56565500Y-64802811D01*
X56565500Y-64697189D01*
X73634500Y-64697189D01*
X73634500Y-64802811D01*
X73674920Y-64900393D01*
X73749607Y-64975080D01*
X73847189Y-65015500D01*
X73847190Y-65015500D01*
X73952810Y-65015500D01*
X73952811Y-65015500D01*
X74050393Y-64975080D01*
X74125080Y-64900393D01*
X74165500Y-64802811D01*
X74165500Y-64697189D01*
X74125080Y-64599607D01*
X74050393Y-64524920D01*
X73952811Y-64484500D01*
X73847189Y-64484500D01*
X73749607Y-64524920D01*
X73674920Y-64599607D01*
X73634500Y-64697189D01*
X56565500Y-64697189D01*
X56525080Y-64599607D01*
X56450393Y-64524920D01*
X56352811Y-64484500D01*
X56247189Y-64484500D01*
X56149607Y-64524920D01*
X56074920Y-64599607D01*
X56034500Y-64697189D01*
X40500500Y-64697189D01*
X40500500Y-64347189D01*
X54134500Y-64347189D01*
X54134500Y-64452811D01*
X54174920Y-64550393D01*
X54249607Y-64625080D01*
X54347189Y-64665500D01*
X54347190Y-64665500D01*
X54452810Y-64665500D01*
X54452811Y-64665500D01*
X54550393Y-64625080D01*
X54625080Y-64550393D01*
X54665500Y-64452811D01*
X54665500Y-64347189D01*
X54625080Y-64249607D01*
X54550393Y-64174920D01*
X54452811Y-64134500D01*
X54347189Y-64134500D01*
X54249607Y-64174920D01*
X54174920Y-64249607D01*
X54134500Y-64347189D01*
X40500500Y-64347189D01*
X40500500Y-63597189D01*
X59034500Y-63597189D01*
X59034500Y-63702811D01*
X59074920Y-63800393D01*
X59149607Y-63875080D01*
X59247189Y-63915500D01*
X59247190Y-63915500D01*
X59352810Y-63915500D01*
X59352811Y-63915500D01*
X59450393Y-63875080D01*
X59525080Y-63800393D01*
X59526407Y-63797189D01*
X81034500Y-63797189D01*
X81034500Y-63902811D01*
X81074920Y-64000393D01*
X81149607Y-64075080D01*
X81247189Y-64115500D01*
X81247190Y-64115500D01*
X81352810Y-64115500D01*
X81352811Y-64115500D01*
X81450393Y-64075080D01*
X81525080Y-64000393D01*
X81565500Y-63902811D01*
X81565500Y-63797189D01*
X81525080Y-63699607D01*
X81450393Y-63624920D01*
X81352811Y-63584500D01*
X81247189Y-63584500D01*
X81149607Y-63624920D01*
X81074920Y-63699607D01*
X81034500Y-63797189D01*
X59526407Y-63797189D01*
X59565500Y-63702811D01*
X59565500Y-63597189D01*
X59525080Y-63499607D01*
X59450393Y-63424920D01*
X59352811Y-63384500D01*
X59247189Y-63384500D01*
X59149607Y-63424920D01*
X59074920Y-63499607D01*
X59034500Y-63597189D01*
X40500500Y-63597189D01*
X40500500Y-62897189D01*
X54034501Y-62897189D01*
X54034501Y-63002811D01*
X54074921Y-63100393D01*
X54149608Y-63175080D01*
X54247190Y-63215500D01*
X54247191Y-63215500D01*
X54352811Y-63215500D01*
X54352812Y-63215500D01*
X54450394Y-63175080D01*
X54525081Y-63100393D01*
X54565501Y-63002811D01*
X54565501Y-62897189D01*
X54525081Y-62799607D01*
X54450394Y-62724920D01*
X54352812Y-62684500D01*
X54247190Y-62684500D01*
X54149608Y-62724920D01*
X54074921Y-62799607D01*
X54034501Y-62897189D01*
X40500500Y-62897189D01*
X40500500Y-61797189D01*
X76334500Y-61797189D01*
X76334500Y-61902811D01*
X76374920Y-62000393D01*
X76449607Y-62075080D01*
X76547189Y-62115500D01*
X76547190Y-62115500D01*
X76652810Y-62115500D01*
X76652811Y-62115500D01*
X76750393Y-62075080D01*
X76825080Y-62000393D01*
X76865500Y-61902811D01*
X76865500Y-61797189D01*
X76825080Y-61699607D01*
X76750393Y-61624920D01*
X76652811Y-61584500D01*
X76547189Y-61584500D01*
X76449607Y-61624920D01*
X76374920Y-61699607D01*
X76334500Y-61797189D01*
X40500500Y-61797189D01*
X40500500Y-59797189D01*
X42884500Y-59797189D01*
X42884500Y-59902811D01*
X42924920Y-60000393D01*
X42999607Y-60075080D01*
X43097189Y-60115500D01*
X43097190Y-60115500D01*
X43202810Y-60115500D01*
X43202811Y-60115500D01*
X43300393Y-60075080D01*
X43375080Y-60000393D01*
X43415500Y-59902811D01*
X43415500Y-59897189D01*
X43934500Y-59897189D01*
X43934500Y-60002811D01*
X43974920Y-60100393D01*
X44049607Y-60175080D01*
X44147189Y-60215500D01*
X44147190Y-60215500D01*
X44252810Y-60215500D01*
X44252811Y-60215500D01*
X44297017Y-60197189D01*
X78234500Y-60197189D01*
X78234500Y-60302811D01*
X78274920Y-60400393D01*
X78349607Y-60475080D01*
X78447189Y-60515500D01*
X78447190Y-60515500D01*
X78552810Y-60515500D01*
X78552811Y-60515500D01*
X78650393Y-60475080D01*
X78725080Y-60400393D01*
X78765500Y-60302811D01*
X78765500Y-60197189D01*
X78725080Y-60099607D01*
X78650393Y-60024920D01*
X78552811Y-59984500D01*
X78447189Y-59984500D01*
X78349607Y-60024920D01*
X78274920Y-60099607D01*
X78234500Y-60197189D01*
X44297017Y-60197189D01*
X44350393Y-60175080D01*
X44425080Y-60100393D01*
X44465500Y-60002811D01*
X44465500Y-59897189D01*
X44425080Y-59799607D01*
X44350393Y-59724920D01*
X44283445Y-59697189D01*
X51034500Y-59697189D01*
X51034500Y-59802811D01*
X51074920Y-59900393D01*
X51149607Y-59975080D01*
X51247189Y-60015500D01*
X51247190Y-60015500D01*
X51352810Y-60015500D01*
X51352811Y-60015500D01*
X51450393Y-59975080D01*
X51525080Y-59900393D01*
X51565500Y-59802811D01*
X51565500Y-59697189D01*
X51525080Y-59599607D01*
X51450393Y-59524920D01*
X51352811Y-59484500D01*
X51247189Y-59484500D01*
X51149607Y-59524920D01*
X51074920Y-59599607D01*
X51034500Y-59697189D01*
X44283445Y-59697189D01*
X44252811Y-59684500D01*
X44147189Y-59684500D01*
X44049607Y-59724920D01*
X43974920Y-59799607D01*
X43934500Y-59897189D01*
X43415500Y-59897189D01*
X43415500Y-59797189D01*
X43375080Y-59699607D01*
X43300393Y-59624920D01*
X43202811Y-59584500D01*
X43097189Y-59584500D01*
X42999607Y-59624920D01*
X42924920Y-59699607D01*
X42884500Y-59797189D01*
X40500500Y-59797189D01*
X40500500Y-57797189D01*
X77234499Y-57797189D01*
X77234499Y-57902811D01*
X77274919Y-58000393D01*
X77349606Y-58075080D01*
X77447188Y-58115500D01*
X77447189Y-58115500D01*
X77552809Y-58115500D01*
X77552810Y-58115500D01*
X77650392Y-58075080D01*
X77725079Y-58000393D01*
X77765499Y-57902811D01*
X77765499Y-57797189D01*
X77725079Y-57699607D01*
X77722661Y-57697189D01*
X80634500Y-57697189D01*
X80634500Y-57802811D01*
X80674920Y-57900393D01*
X80749607Y-57975080D01*
X80847189Y-58015500D01*
X80847190Y-58015500D01*
X80952810Y-58015500D01*
X80952811Y-58015500D01*
X81050393Y-57975080D01*
X81125080Y-57900393D01*
X81165500Y-57802811D01*
X81165500Y-57697189D01*
X81125080Y-57599607D01*
X81050393Y-57524920D01*
X80952811Y-57484500D01*
X80847189Y-57484500D01*
X80749607Y-57524920D01*
X80674920Y-57599607D01*
X80634500Y-57697189D01*
X77722661Y-57697189D01*
X77650392Y-57624920D01*
X77552810Y-57584500D01*
X77447188Y-57584500D01*
X77349606Y-57624920D01*
X77274919Y-57699607D01*
X77234499Y-57797189D01*
X40500500Y-57797189D01*
X40500500Y-57097189D01*
X48434500Y-57097189D01*
X48434500Y-57202811D01*
X48474920Y-57300393D01*
X48549607Y-57375080D01*
X48647189Y-57415500D01*
X48647190Y-57415500D01*
X48752810Y-57415500D01*
X48752811Y-57415500D01*
X48850393Y-57375080D01*
X48925080Y-57300393D01*
X48965500Y-57202811D01*
X48965500Y-57097189D01*
X48925080Y-56999607D01*
X48850393Y-56924920D01*
X48752811Y-56884500D01*
X48647189Y-56884500D01*
X48549607Y-56924920D01*
X48474920Y-56999607D01*
X48434500Y-57097189D01*
X40500500Y-57097189D01*
X40500500Y-56761311D01*
X81570378Y-56761311D01*
X81570378Y-56866933D01*
X81610798Y-56964515D01*
X81685485Y-57039202D01*
X81783067Y-57079622D01*
X81783068Y-57079622D01*
X81888688Y-57079622D01*
X81888689Y-57079622D01*
X81986271Y-57039202D01*
X82060958Y-56964515D01*
X82101378Y-56866933D01*
X82101378Y-56787744D01*
X82114265Y-56756631D01*
X82145378Y-56743744D01*
X82224566Y-56743744D01*
X82224567Y-56743744D01*
X82322149Y-56703324D01*
X82396836Y-56628637D01*
X82437256Y-56531055D01*
X82437256Y-56425433D01*
X82396836Y-56327851D01*
X82322149Y-56253164D01*
X82224567Y-56212744D01*
X82118945Y-56212744D01*
X82021363Y-56253164D01*
X81946676Y-56327851D01*
X81906256Y-56425434D01*
X81906256Y-56504622D01*
X81893369Y-56535735D01*
X81862256Y-56548622D01*
X81783067Y-56548622D01*
X81685485Y-56589042D01*
X81610798Y-56663729D01*
X81570378Y-56761311D01*
X40500500Y-56761311D01*
X40500500Y-50897189D01*
X48434500Y-50897189D01*
X48434500Y-51002811D01*
X48474920Y-51100393D01*
X48549607Y-51175080D01*
X48647189Y-51215500D01*
X48647190Y-51215500D01*
X48752810Y-51215500D01*
X48752811Y-51215500D01*
X48850393Y-51175080D01*
X48925080Y-51100393D01*
X48965500Y-51002811D01*
X48965500Y-50897189D01*
X48925080Y-50799607D01*
X48850393Y-50724920D01*
X48752811Y-50684500D01*
X48647189Y-50684500D01*
X48549607Y-50724920D01*
X48474920Y-50799607D01*
X48434500Y-50897189D01*
X40500500Y-50897189D01*
X40500500Y-49897189D01*
X49634500Y-49897189D01*
X49634500Y-50002811D01*
X49674920Y-50100393D01*
X49749607Y-50175080D01*
X49847189Y-50215500D01*
X49847190Y-50215500D01*
X49952810Y-50215500D01*
X49952811Y-50215500D01*
X50050393Y-50175080D01*
X50125080Y-50100393D01*
X50165500Y-50002811D01*
X50165500Y-49897189D01*
X50125080Y-49799607D01*
X50050393Y-49724920D01*
X50013448Y-49709617D01*
X75859355Y-49709617D01*
X75859355Y-49815239D01*
X75899775Y-49912821D01*
X75974462Y-49987508D01*
X76072044Y-50027928D01*
X76072045Y-50027928D01*
X76177665Y-50027928D01*
X76177666Y-50027928D01*
X76275248Y-49987508D01*
X76349935Y-49912821D01*
X76390355Y-49815239D01*
X76390355Y-49709617D01*
X76385207Y-49697189D01*
X80034499Y-49697189D01*
X80034499Y-49802811D01*
X80074919Y-49900393D01*
X80149606Y-49975080D01*
X80247188Y-50015500D01*
X80247189Y-50015500D01*
X80352809Y-50015500D01*
X80352810Y-50015500D01*
X80450392Y-49975080D01*
X80525079Y-49900393D01*
X80565499Y-49802811D01*
X80565499Y-49697189D01*
X80525079Y-49599607D01*
X80450392Y-49524920D01*
X80352810Y-49484500D01*
X80247188Y-49484500D01*
X80149606Y-49524920D01*
X80074919Y-49599607D01*
X80034499Y-49697189D01*
X76385207Y-49697189D01*
X76349935Y-49612035D01*
X76275248Y-49537348D01*
X76177666Y-49496928D01*
X76072044Y-49496928D01*
X75974462Y-49537348D01*
X75899775Y-49612035D01*
X75859355Y-49709617D01*
X50013448Y-49709617D01*
X49952811Y-49684500D01*
X49847189Y-49684500D01*
X49749607Y-49724920D01*
X49674920Y-49799607D01*
X49634500Y-49897189D01*
X40500500Y-49897189D01*
X40500500Y-47947189D01*
X74734500Y-47947189D01*
X74734500Y-48052811D01*
X74774920Y-48150393D01*
X74849607Y-48225080D01*
X74947189Y-48265500D01*
X74947190Y-48265500D01*
X75052810Y-48265500D01*
X75052811Y-48265500D01*
X75150393Y-48225080D01*
X75225080Y-48150393D01*
X75265500Y-48052811D01*
X75265500Y-47947189D01*
X75225080Y-47849607D01*
X75150393Y-47774920D01*
X75052811Y-47734500D01*
X74947189Y-47734500D01*
X74849607Y-47774920D01*
X74774920Y-47849607D01*
X74734500Y-47947189D01*
X40500500Y-47947189D01*
X40500500Y-47534610D01*
X68097078Y-47534610D01*
X68097078Y-47640232D01*
X68137498Y-47737814D01*
X68212185Y-47812501D01*
X68309767Y-47852921D01*
X68309768Y-47852921D01*
X68415388Y-47852921D01*
X68415389Y-47852921D01*
X68512971Y-47812501D01*
X68587658Y-47737814D01*
X68628078Y-47640232D01*
X68628078Y-47534610D01*
X68587658Y-47437028D01*
X68512971Y-47362341D01*
X68415389Y-47321921D01*
X68309767Y-47321921D01*
X68212185Y-47362341D01*
X68137498Y-47437028D01*
X68097078Y-47534610D01*
X40500500Y-47534610D01*
X40500500Y-47032960D01*
X70534500Y-47032960D01*
X70534500Y-47138582D01*
X70574920Y-47236164D01*
X70649607Y-47310851D01*
X70747189Y-47351271D01*
X70747190Y-47351271D01*
X70852810Y-47351271D01*
X70852811Y-47351271D01*
X70950393Y-47310851D01*
X71025080Y-47236164D01*
X71065500Y-47138582D01*
X71065500Y-47082960D01*
X73445428Y-47082960D01*
X73445428Y-47188582D01*
X73485848Y-47286164D01*
X73560535Y-47360851D01*
X73658117Y-47401271D01*
X73658118Y-47401271D01*
X73763738Y-47401271D01*
X73763739Y-47401271D01*
X73861321Y-47360851D01*
X73936008Y-47286164D01*
X73976428Y-47188582D01*
X73976428Y-47097189D01*
X77234500Y-47097189D01*
X77234500Y-47202811D01*
X77274920Y-47300393D01*
X77349607Y-47375080D01*
X77447189Y-47415500D01*
X77447190Y-47415500D01*
X77552810Y-47415500D01*
X77552811Y-47415500D01*
X77650393Y-47375080D01*
X77725080Y-47300393D01*
X77765500Y-47202811D01*
X77765500Y-47097189D01*
X77725080Y-46999607D01*
X77650393Y-46924920D01*
X77552811Y-46884500D01*
X77447189Y-46884500D01*
X77349607Y-46924920D01*
X77274920Y-46999607D01*
X77234500Y-47097189D01*
X73976428Y-47097189D01*
X73976428Y-47082960D01*
X73936008Y-46985378D01*
X73861321Y-46910691D01*
X73763739Y-46870271D01*
X73658117Y-46870271D01*
X73560535Y-46910691D01*
X73485848Y-46985378D01*
X73445428Y-47082960D01*
X71065500Y-47082960D01*
X71065500Y-47032960D01*
X71025080Y-46935378D01*
X70950393Y-46860691D01*
X70852811Y-46820271D01*
X70747189Y-46820271D01*
X70649607Y-46860691D01*
X70574920Y-46935378D01*
X70534500Y-47032960D01*
X40500500Y-47032960D01*
X40500500Y-46497189D01*
X76834500Y-46497189D01*
X76834500Y-46602811D01*
X76874920Y-46700393D01*
X76949607Y-46775080D01*
X77047189Y-46815500D01*
X77047190Y-46815500D01*
X77152810Y-46815500D01*
X77152811Y-46815500D01*
X77250393Y-46775080D01*
X77325080Y-46700393D01*
X77365500Y-46602811D01*
X77365500Y-46497189D01*
X77325080Y-46399607D01*
X77250393Y-46324920D01*
X77152811Y-46284500D01*
X77047189Y-46284500D01*
X76949607Y-46324920D01*
X76874920Y-46399607D01*
X76834500Y-46497189D01*
X40500500Y-46497189D01*
X40500500Y-45747189D01*
X43784500Y-45747189D01*
X43784500Y-45852811D01*
X43824920Y-45950393D01*
X43899607Y-46025080D01*
X43997189Y-46065500D01*
X43997190Y-46065500D01*
X44102810Y-46065500D01*
X44102811Y-46065500D01*
X44200393Y-46025080D01*
X44275080Y-45950393D01*
X44315500Y-45852811D01*
X44315500Y-45797189D01*
X50784500Y-45797189D01*
X50784500Y-45902811D01*
X50824920Y-46000393D01*
X50899607Y-46075080D01*
X50997189Y-46115500D01*
X50997190Y-46115500D01*
X51102810Y-46115500D01*
X51102811Y-46115500D01*
X51200393Y-46075080D01*
X51275080Y-46000393D01*
X51315500Y-45902811D01*
X51315500Y-45897189D01*
X53434500Y-45897189D01*
X53434500Y-46002811D01*
X53474920Y-46100393D01*
X53549607Y-46175080D01*
X53647189Y-46215500D01*
X53647190Y-46215500D01*
X53752810Y-46215500D01*
X53752811Y-46215500D01*
X53850393Y-46175080D01*
X53925080Y-46100393D01*
X53965500Y-46002811D01*
X53965500Y-45897189D01*
X53925080Y-45799607D01*
X53850393Y-45724920D01*
X53752811Y-45684500D01*
X53647189Y-45684500D01*
X53549607Y-45724920D01*
X53474920Y-45799607D01*
X53434500Y-45897189D01*
X51315500Y-45897189D01*
X51315500Y-45797189D01*
X51275080Y-45699607D01*
X51200393Y-45624920D01*
X51102811Y-45584500D01*
X50997189Y-45584500D01*
X50899607Y-45624920D01*
X50824920Y-45699607D01*
X50784500Y-45797189D01*
X44315500Y-45797189D01*
X44315500Y-45747189D01*
X44275080Y-45649607D01*
X44200393Y-45574920D01*
X44102811Y-45534500D01*
X43997189Y-45534500D01*
X43899607Y-45574920D01*
X43824920Y-45649607D01*
X43784500Y-45747189D01*
X40500500Y-45747189D01*
X40500500Y-45284610D01*
X71147079Y-45284610D01*
X71147079Y-45390232D01*
X71187499Y-45487814D01*
X71262186Y-45562501D01*
X71359768Y-45602921D01*
X71359769Y-45602921D01*
X71465389Y-45602921D01*
X71465390Y-45602921D01*
X71562972Y-45562501D01*
X71637659Y-45487814D01*
X71678079Y-45390232D01*
X71678079Y-45284610D01*
X71637659Y-45187028D01*
X71562972Y-45112341D01*
X71465390Y-45071921D01*
X71359768Y-45071921D01*
X71262186Y-45112341D01*
X71187499Y-45187028D01*
X71147079Y-45284610D01*
X40500500Y-45284610D01*
X40500500Y-44882960D01*
X69145428Y-44882960D01*
X69145428Y-44988582D01*
X69185848Y-45086164D01*
X69260535Y-45160851D01*
X69358117Y-45201271D01*
X69358118Y-45201271D01*
X69463738Y-45201271D01*
X69463739Y-45201271D01*
X69561321Y-45160851D01*
X69636008Y-45086164D01*
X69676428Y-44988582D01*
X69676428Y-44882960D01*
X69636008Y-44785378D01*
X69561321Y-44710691D01*
X69463739Y-44670271D01*
X69358117Y-44670271D01*
X69260535Y-44710691D01*
X69185848Y-44785378D01*
X69145428Y-44882960D01*
X40500500Y-44882960D01*
X40500500Y-44597189D01*
X75184500Y-44597189D01*
X75184500Y-44702811D01*
X75224920Y-44800393D01*
X75299607Y-44875080D01*
X75397189Y-44915500D01*
X75397190Y-44915500D01*
X75502810Y-44915500D01*
X75502811Y-44915500D01*
X75600393Y-44875080D01*
X75675080Y-44800393D01*
X75715500Y-44702811D01*
X75715500Y-44597189D01*
X75675080Y-44499607D01*
X75600393Y-44424920D01*
X75502811Y-44384500D01*
X75397189Y-44384500D01*
X75299607Y-44424920D01*
X75224920Y-44499607D01*
X75184500Y-44597189D01*
X40500500Y-44597189D01*
X40500500Y-43697189D01*
X55434500Y-43697189D01*
X55434500Y-43802811D01*
X55474920Y-43900393D01*
X55549607Y-43975080D01*
X55647189Y-44015500D01*
X55647190Y-44015500D01*
X55752810Y-44015500D01*
X55752811Y-44015500D01*
X55850393Y-43975080D01*
X55925080Y-43900393D01*
X55965500Y-43802811D01*
X55965500Y-43697189D01*
X55925080Y-43599607D01*
X55850393Y-43524920D01*
X55783445Y-43497189D01*
X69934500Y-43497189D01*
X69934500Y-43602811D01*
X69974920Y-43700393D01*
X70049607Y-43775080D01*
X70147189Y-43815500D01*
X70147190Y-43815500D01*
X70252810Y-43815500D01*
X70252811Y-43815500D01*
X70350393Y-43775080D01*
X70359388Y-43766084D01*
X70390500Y-43753198D01*
X70421613Y-43766085D01*
X70434500Y-43797198D01*
X70434500Y-43902811D01*
X70474920Y-44000393D01*
X70549607Y-44075080D01*
X70647189Y-44115500D01*
X70647190Y-44115500D01*
X70752810Y-44115500D01*
X70752811Y-44115500D01*
X70850393Y-44075080D01*
X70925080Y-44000393D01*
X70965500Y-43902811D01*
X70965500Y-43797189D01*
X70925080Y-43699607D01*
X70850393Y-43624920D01*
X70752811Y-43584500D01*
X70647189Y-43584500D01*
X70549607Y-43624920D01*
X70540611Y-43633915D01*
X70509500Y-43646802D01*
X70478387Y-43633915D01*
X70465500Y-43602802D01*
X70465500Y-43497190D01*
X70465500Y-43497189D01*
X73634500Y-43497189D01*
X73634500Y-43602811D01*
X73674920Y-43700393D01*
X73749607Y-43775080D01*
X73847189Y-43815500D01*
X73847190Y-43815500D01*
X73952810Y-43815500D01*
X73952811Y-43815500D01*
X74050393Y-43775080D01*
X74125080Y-43700393D01*
X74165500Y-43602811D01*
X74165500Y-43497189D01*
X74125080Y-43399607D01*
X74050393Y-43324920D01*
X73952811Y-43284500D01*
X73847189Y-43284500D01*
X73749607Y-43324920D01*
X73674920Y-43399607D01*
X73634500Y-43497189D01*
X70465500Y-43497189D01*
X70460244Y-43484500D01*
X70425080Y-43399607D01*
X70350393Y-43324920D01*
X70252811Y-43284500D01*
X70147189Y-43284500D01*
X70049607Y-43324920D01*
X69974920Y-43399607D01*
X69934500Y-43497189D01*
X55783445Y-43497189D01*
X55752811Y-43484500D01*
X55647189Y-43484500D01*
X55549607Y-43524920D01*
X55474920Y-43599607D01*
X55434500Y-43697189D01*
X40500500Y-43697189D01*
X40500500Y-40997189D01*
X47864500Y-40997189D01*
X47864500Y-41102811D01*
X47904920Y-41200393D01*
X47979607Y-41275080D01*
X48077189Y-41315500D01*
X48077190Y-41315500D01*
X48182810Y-41315500D01*
X48182811Y-41315500D01*
X48280393Y-41275080D01*
X48355080Y-41200393D01*
X48395500Y-41102811D01*
X48395500Y-40997189D01*
X48355080Y-40899607D01*
X48280393Y-40824920D01*
X48182811Y-40784500D01*
X48077189Y-40784500D01*
X47979607Y-40824920D01*
X47904920Y-40899607D01*
X47864500Y-40997189D01*
X40500500Y-40997189D01*
X40500500Y-40759321D01*
X76240135Y-40759321D01*
X76240135Y-40864943D01*
X76280555Y-40962525D01*
X76355242Y-41037212D01*
X76452824Y-41077632D01*
X76452825Y-41077632D01*
X76558445Y-41077632D01*
X76558446Y-41077632D01*
X76656028Y-41037212D01*
X76730715Y-40962525D01*
X76771135Y-40864943D01*
X76771135Y-40847189D01*
X78634500Y-40847189D01*
X78634500Y-40952811D01*
X78674920Y-41050393D01*
X78749607Y-41125080D01*
X78847189Y-41165500D01*
X78847190Y-41165500D01*
X78952810Y-41165500D01*
X78952811Y-41165500D01*
X79050393Y-41125080D01*
X79125080Y-41050393D01*
X79165500Y-40952811D01*
X79165500Y-40847189D01*
X79125080Y-40749607D01*
X79050393Y-40674920D01*
X78952811Y-40634500D01*
X78847189Y-40634500D01*
X78749607Y-40674920D01*
X78674920Y-40749607D01*
X78634500Y-40847189D01*
X76771135Y-40847189D01*
X76771135Y-40759321D01*
X76730715Y-40661739D01*
X76656028Y-40587052D01*
X76558446Y-40546632D01*
X76452824Y-40546632D01*
X76355242Y-40587052D01*
X76280555Y-40661739D01*
X76240135Y-40759321D01*
X40500500Y-40759321D01*
X40500500Y-40347189D01*
X58234500Y-40347189D01*
X58234500Y-40452811D01*
X58274920Y-40550393D01*
X58349607Y-40625080D01*
X58447189Y-40665500D01*
X58447190Y-40665500D01*
X58552810Y-40665500D01*
X58552811Y-40665500D01*
X58650393Y-40625080D01*
X58725080Y-40550393D01*
X58765500Y-40452811D01*
X58765500Y-40347189D01*
X58725080Y-40249607D01*
X58650393Y-40174920D01*
X58552811Y-40134500D01*
X58447189Y-40134500D01*
X58349607Y-40174920D01*
X58274920Y-40249607D01*
X58234500Y-40347189D01*
X40500500Y-40347189D01*
X40500500Y-39497189D01*
X46164500Y-39497189D01*
X46164500Y-39602811D01*
X46204920Y-39700393D01*
X46279607Y-39775080D01*
X46377189Y-39815500D01*
X46377190Y-39815500D01*
X46482810Y-39815500D01*
X46482811Y-39815500D01*
X46580393Y-39775080D01*
X46655080Y-39700393D01*
X46695500Y-39602811D01*
X46695500Y-39497189D01*
X46864500Y-39497189D01*
X46864500Y-39602811D01*
X46904920Y-39700393D01*
X46979607Y-39775080D01*
X47077189Y-39815500D01*
X47077190Y-39815500D01*
X47182810Y-39815500D01*
X47182811Y-39815500D01*
X47280393Y-39775080D01*
X47355080Y-39700393D01*
X47395500Y-39602811D01*
X47395500Y-39497189D01*
X47355080Y-39399607D01*
X47352662Y-39397189D01*
X49564500Y-39397189D01*
X49564500Y-39502811D01*
X49604920Y-39600393D01*
X49679607Y-39675080D01*
X49777189Y-39715500D01*
X49777190Y-39715500D01*
X49882810Y-39715500D01*
X49882811Y-39715500D01*
X49927017Y-39697189D01*
X58984500Y-39697189D01*
X58984500Y-39802811D01*
X59024920Y-39900393D01*
X59099607Y-39975080D01*
X59197189Y-40015500D01*
X59197190Y-40015500D01*
X59302810Y-40015500D01*
X59302811Y-40015500D01*
X59384884Y-39981504D01*
X75320896Y-39981504D01*
X75320896Y-40087126D01*
X75361316Y-40184708D01*
X75436003Y-40259395D01*
X75533585Y-40299815D01*
X75533586Y-40299815D01*
X75639206Y-40299815D01*
X75639207Y-40299815D01*
X75736789Y-40259395D01*
X75811476Y-40184708D01*
X75851896Y-40087126D01*
X75851896Y-39981504D01*
X75811476Y-39883922D01*
X75736789Y-39809235D01*
X75639207Y-39768815D01*
X75533585Y-39768815D01*
X75436003Y-39809235D01*
X75361316Y-39883922D01*
X75320896Y-39981504D01*
X59384884Y-39981504D01*
X59400393Y-39975080D01*
X59475080Y-39900393D01*
X59515500Y-39802811D01*
X59515500Y-39697189D01*
X59475080Y-39599607D01*
X59400393Y-39524920D01*
X59302811Y-39484500D01*
X59197189Y-39484500D01*
X59099607Y-39524920D01*
X59024920Y-39599607D01*
X58984500Y-39697189D01*
X49927017Y-39697189D01*
X49980393Y-39675080D01*
X50055080Y-39600393D01*
X50095500Y-39502811D01*
X50095500Y-39397189D01*
X50055080Y-39299607D01*
X49980393Y-39224920D01*
X49882811Y-39184500D01*
X49777189Y-39184500D01*
X49679607Y-39224920D01*
X49604920Y-39299607D01*
X49564500Y-39397189D01*
X47352662Y-39397189D01*
X47280393Y-39324920D01*
X47182811Y-39284500D01*
X47077189Y-39284500D01*
X46979607Y-39324920D01*
X46904920Y-39399607D01*
X46864500Y-39497189D01*
X46695500Y-39497189D01*
X46655080Y-39399607D01*
X46580393Y-39324920D01*
X46482811Y-39284500D01*
X46377189Y-39284500D01*
X46279607Y-39324920D01*
X46204920Y-39399607D01*
X46164500Y-39497189D01*
X40500500Y-39497189D01*
X40500500Y-39172189D01*
X53659500Y-39172189D01*
X53659500Y-39277811D01*
X53699920Y-39375393D01*
X53774607Y-39450080D01*
X53872189Y-39490500D01*
X53872190Y-39490500D01*
X53977810Y-39490500D01*
X53977811Y-39490500D01*
X54075393Y-39450080D01*
X54150080Y-39375393D01*
X54190500Y-39277811D01*
X54190500Y-39172189D01*
X54150080Y-39074607D01*
X54075393Y-38999920D01*
X53977811Y-38959500D01*
X53872189Y-38959500D01*
X53774607Y-38999920D01*
X53699920Y-39074607D01*
X53659500Y-39172189D01*
X40500500Y-39172189D01*
X40500500Y-38097189D01*
X49064500Y-38097189D01*
X49064500Y-38202811D01*
X49104920Y-38300393D01*
X49179607Y-38375080D01*
X49277189Y-38415500D01*
X49277190Y-38415500D01*
X49382810Y-38415500D01*
X49382811Y-38415500D01*
X49480393Y-38375080D01*
X49555080Y-38300393D01*
X49595500Y-38202811D01*
X49595500Y-38097189D01*
X49585145Y-38072189D01*
X53759500Y-38072189D01*
X53759500Y-38177811D01*
X53799920Y-38275393D01*
X53874607Y-38350080D01*
X53972189Y-38390500D01*
X53972190Y-38390500D01*
X54077810Y-38390500D01*
X54077811Y-38390500D01*
X54175393Y-38350080D01*
X54228284Y-38297189D01*
X65234500Y-38297189D01*
X65234500Y-38402811D01*
X65274920Y-38500393D01*
X65349607Y-38575080D01*
X65447189Y-38615500D01*
X65447190Y-38615500D01*
X65552810Y-38615500D01*
X65552811Y-38615500D01*
X65650393Y-38575080D01*
X65725080Y-38500393D01*
X65726407Y-38497190D01*
X68834500Y-38497190D01*
X68834500Y-38602812D01*
X68874920Y-38700394D01*
X68949607Y-38775081D01*
X69047189Y-38815501D01*
X69047190Y-38815501D01*
X69152810Y-38815501D01*
X69152811Y-38815501D01*
X69250393Y-38775081D01*
X69325080Y-38700394D01*
X69365500Y-38602812D01*
X69365500Y-38497190D01*
X69325080Y-38399608D01*
X69250393Y-38324921D01*
X69152811Y-38284501D01*
X69047189Y-38284501D01*
X68949607Y-38324921D01*
X68874920Y-38399608D01*
X68834500Y-38497190D01*
X65726407Y-38497190D01*
X65765500Y-38402811D01*
X65765500Y-38297189D01*
X65725080Y-38199607D01*
X65650393Y-38124920D01*
X65583445Y-38097189D01*
X68234500Y-38097189D01*
X68234500Y-38202811D01*
X68274920Y-38300393D01*
X68349607Y-38375080D01*
X68447189Y-38415500D01*
X68447190Y-38415500D01*
X68552810Y-38415500D01*
X68552811Y-38415500D01*
X68650393Y-38375080D01*
X68725080Y-38300393D01*
X68765500Y-38202811D01*
X68765500Y-38097189D01*
X68744789Y-38047189D01*
X85234500Y-38047189D01*
X85234500Y-38152811D01*
X85274920Y-38250393D01*
X85349607Y-38325080D01*
X85447189Y-38365500D01*
X85447190Y-38365500D01*
X85552810Y-38365500D01*
X85552811Y-38365500D01*
X85650393Y-38325080D01*
X85725080Y-38250393D01*
X85765500Y-38152811D01*
X85765500Y-38047189D01*
X85725080Y-37949607D01*
X85650393Y-37874920D01*
X85552811Y-37834500D01*
X85447189Y-37834500D01*
X85349607Y-37874920D01*
X85274920Y-37949607D01*
X85234500Y-38047189D01*
X68744789Y-38047189D01*
X68725080Y-37999607D01*
X68650393Y-37924920D01*
X68552811Y-37884500D01*
X68447189Y-37884500D01*
X68349607Y-37924920D01*
X68274920Y-37999607D01*
X68234500Y-38097189D01*
X65583445Y-38097189D01*
X65552811Y-38084500D01*
X65447189Y-38084500D01*
X65349607Y-38124920D01*
X65274920Y-38199607D01*
X65234500Y-38297189D01*
X54228284Y-38297189D01*
X54250080Y-38275393D01*
X54290500Y-38177811D01*
X54290500Y-38072189D01*
X54250080Y-37974607D01*
X54175393Y-37899920D01*
X54168800Y-37897189D01*
X61634501Y-37897189D01*
X61634501Y-38002811D01*
X61674921Y-38100393D01*
X61749608Y-38175080D01*
X61847190Y-38215500D01*
X61847191Y-38215500D01*
X61952811Y-38215500D01*
X61952812Y-38215500D01*
X62050394Y-38175080D01*
X62125081Y-38100393D01*
X62165501Y-38002811D01*
X62165501Y-37897189D01*
X62125081Y-37799607D01*
X62050394Y-37724920D01*
X61952812Y-37684500D01*
X61847190Y-37684500D01*
X61749608Y-37724920D01*
X61674921Y-37799607D01*
X61634501Y-37897189D01*
X54168800Y-37897189D01*
X54077811Y-37859500D01*
X53972189Y-37859500D01*
X53874607Y-37899920D01*
X53799920Y-37974607D01*
X53759500Y-38072189D01*
X49585145Y-38072189D01*
X49555080Y-37999607D01*
X49480393Y-37924920D01*
X49382811Y-37884500D01*
X49277189Y-37884500D01*
X49179607Y-37924920D01*
X49104920Y-37999607D01*
X49064500Y-38097189D01*
X40500500Y-38097189D01*
X40500500Y-37297189D01*
X65434499Y-37297189D01*
X65434499Y-37402811D01*
X65474919Y-37500393D01*
X65549606Y-37575080D01*
X65647188Y-37615500D01*
X65647189Y-37615500D01*
X65752809Y-37615500D01*
X65752810Y-37615500D01*
X65850392Y-37575080D01*
X65925079Y-37500393D01*
X65932300Y-37482959D01*
X73545428Y-37482959D01*
X73545428Y-37588581D01*
X73585848Y-37686163D01*
X73660535Y-37760850D01*
X73758117Y-37801270D01*
X73758118Y-37801270D01*
X73863738Y-37801270D01*
X73863739Y-37801270D01*
X73961321Y-37760850D01*
X74036008Y-37686163D01*
X74076428Y-37588581D01*
X74076428Y-37482959D01*
X74036008Y-37385377D01*
X73961321Y-37310690D01*
X73863739Y-37270270D01*
X73758117Y-37270270D01*
X73660535Y-37310690D01*
X73585848Y-37385377D01*
X73545428Y-37482959D01*
X65932300Y-37482959D01*
X65965499Y-37402811D01*
X65965499Y-37297189D01*
X65925079Y-37199607D01*
X65850392Y-37124920D01*
X65752810Y-37084500D01*
X65647188Y-37084500D01*
X65549606Y-37124920D01*
X65474919Y-37199607D01*
X65434499Y-37297189D01*
X40500500Y-37297189D01*
X40500500Y-36897189D01*
X60334500Y-36897189D01*
X60334500Y-37002811D01*
X60374920Y-37100393D01*
X60449607Y-37175080D01*
X60547189Y-37215500D01*
X60547190Y-37215500D01*
X60652810Y-37215500D01*
X60652811Y-37215500D01*
X60750393Y-37175080D01*
X60825080Y-37100393D01*
X60865500Y-37002811D01*
X60865500Y-36897189D01*
X60825080Y-36799607D01*
X60750393Y-36724920D01*
X60652811Y-36684500D01*
X60547189Y-36684500D01*
X60449607Y-36724920D01*
X60374920Y-36799607D01*
X60334500Y-36897189D01*
X40500500Y-36897189D01*
X40500500Y-35572189D01*
X53659500Y-35572189D01*
X53659500Y-35677811D01*
X53699920Y-35775393D01*
X53774607Y-35850080D01*
X53872189Y-35890500D01*
X53872190Y-35890500D01*
X53977810Y-35890500D01*
X53977811Y-35890500D01*
X54075393Y-35850080D01*
X54150080Y-35775393D01*
X54190500Y-35677811D01*
X54190500Y-35572189D01*
X54150080Y-35474607D01*
X54075393Y-35399920D01*
X53977811Y-35359500D01*
X53872189Y-35359500D01*
X53774607Y-35399920D01*
X53699920Y-35474607D01*
X53659500Y-35572189D01*
X40500500Y-35572189D01*
X40500500Y-34397189D01*
X46834500Y-34397189D01*
X46834500Y-34502811D01*
X46874920Y-34600393D01*
X46949607Y-34675080D01*
X47047189Y-34715500D01*
X47047190Y-34715500D01*
X47152810Y-34715500D01*
X47152811Y-34715500D01*
X47250393Y-34675080D01*
X47325080Y-34600393D01*
X47365500Y-34502811D01*
X47365500Y-34397189D01*
X47325080Y-34299607D01*
X47250393Y-34224920D01*
X47152811Y-34184500D01*
X47047189Y-34184500D01*
X46949607Y-34224920D01*
X46874920Y-34299607D01*
X46834500Y-34397189D01*
X40500500Y-34397189D01*
X40500500Y-33797189D01*
X53384500Y-33797189D01*
X53384500Y-33902811D01*
X53424920Y-34000393D01*
X53499607Y-34075080D01*
X53597189Y-34115500D01*
X53597190Y-34115500D01*
X53702810Y-34115500D01*
X53702811Y-34115500D01*
X53800393Y-34075080D01*
X53875080Y-34000393D01*
X53915500Y-33902811D01*
X53915500Y-33797189D01*
X53875080Y-33699607D01*
X53800393Y-33624920D01*
X53702811Y-33584500D01*
X53597189Y-33584500D01*
X53499607Y-33624920D01*
X53424920Y-33699607D01*
X53384500Y-33797189D01*
X40500500Y-33797189D01*
X40500500Y-32697189D01*
X45984500Y-32697189D01*
X45984500Y-32802811D01*
X46024920Y-32900393D01*
X46099607Y-32975080D01*
X46197189Y-33015500D01*
X46197190Y-33015500D01*
X46302810Y-33015500D01*
X46302811Y-33015500D01*
X46400393Y-32975080D01*
X46475080Y-32900393D01*
X46515500Y-32802811D01*
X46515500Y-32697189D01*
X46475080Y-32599607D01*
X46472662Y-32597189D01*
X48234500Y-32597189D01*
X48234500Y-32702811D01*
X48274920Y-32800393D01*
X48349607Y-32875080D01*
X48447189Y-32915500D01*
X48447190Y-32915500D01*
X48552810Y-32915500D01*
X48552811Y-32915500D01*
X48650393Y-32875080D01*
X48725080Y-32800393D01*
X48765500Y-32702811D01*
X48765500Y-32597189D01*
X50434500Y-32597189D01*
X50434500Y-32702811D01*
X50474920Y-32800393D01*
X50549607Y-32875080D01*
X50647189Y-32915500D01*
X50647190Y-32915500D01*
X50752810Y-32915500D01*
X50752811Y-32915500D01*
X50850393Y-32875080D01*
X50925080Y-32800393D01*
X50965500Y-32702811D01*
X50965500Y-32597189D01*
X50925080Y-32499607D01*
X50850393Y-32424920D01*
X50752811Y-32384500D01*
X50647189Y-32384500D01*
X50549607Y-32424920D01*
X50474920Y-32499607D01*
X50434500Y-32597189D01*
X48765500Y-32597189D01*
X48725080Y-32499607D01*
X48650393Y-32424920D01*
X48552811Y-32384500D01*
X48447189Y-32384500D01*
X48349607Y-32424920D01*
X48274920Y-32499607D01*
X48234500Y-32597189D01*
X46472662Y-32597189D01*
X46400393Y-32524920D01*
X46302811Y-32484500D01*
X46197189Y-32484500D01*
X46099607Y-32524920D01*
X46024920Y-32599607D01*
X45984500Y-32697189D01*
X40500500Y-32697189D01*
X40500500Y-30997189D01*
X57234500Y-30997189D01*
X57234500Y-31102811D01*
X57274920Y-31200393D01*
X57349607Y-31275080D01*
X57447189Y-31315500D01*
X57447190Y-31315500D01*
X57552810Y-31315500D01*
X57552811Y-31315500D01*
X57650393Y-31275080D01*
X57725080Y-31200393D01*
X57765500Y-31102811D01*
X57765500Y-30997189D01*
X57725080Y-30899607D01*
X57650393Y-30824920D01*
X57552811Y-30784500D01*
X57447189Y-30784500D01*
X57349607Y-30824920D01*
X57274920Y-30899607D01*
X57234500Y-30997189D01*
X40500500Y-30997189D01*
X40500500Y-29397189D01*
X49534500Y-29397189D01*
X49534500Y-29502811D01*
X49574920Y-29600393D01*
X49649607Y-29675080D01*
X49747189Y-29715500D01*
X49747190Y-29715500D01*
X49852810Y-29715500D01*
X49852811Y-29715500D01*
X49950393Y-29675080D01*
X50025080Y-29600393D01*
X50065500Y-29502811D01*
X50065500Y-29497189D01*
X75634500Y-29497189D01*
X75634500Y-29602811D01*
X75674920Y-29700393D01*
X75749607Y-29775080D01*
X75847189Y-29815500D01*
X75847190Y-29815500D01*
X75952810Y-29815500D01*
X75952811Y-29815500D01*
X76050393Y-29775080D01*
X76125080Y-29700393D01*
X76165500Y-29602811D01*
X76165500Y-29497189D01*
X76125080Y-29399607D01*
X76050393Y-29324920D01*
X75952811Y-29284500D01*
X75847189Y-29284500D01*
X75749607Y-29324920D01*
X75674920Y-29399607D01*
X75634500Y-29497189D01*
X50065500Y-29497189D01*
X50065500Y-29397189D01*
X50025080Y-29299607D01*
X49950393Y-29224920D01*
X49852811Y-29184500D01*
X49747189Y-29184500D01*
X49649607Y-29224920D01*
X49574920Y-29299607D01*
X49534500Y-29397189D01*
X40500500Y-29397189D01*
X40500500Y-20544500D01*
X40513387Y-20513387D01*
X40544500Y-20500500D01*
X89455500Y-20500500D01*
X89486613Y-20513387D01*
G37*
%TD.AperFunction*%
%TD*%
M02*
